<svg width="600" height="200" viewBox="0 0 600 200" fill="none" xmlns="http://www.w3.org/2000/svg">
<mask id="mask0_49_86" style="mask-type:luminance" maskUnits="userSpaceOnUse" x="117" y="12" width="175" height="176">
<path d="M291.393 12.9341H117.261V187.066H291.393V12.9341Z" fill="white"/>
</mask>
<g mask="url(#mask0_49_86)">
<path d="M174.347 170.557C174.01 170.557 173.702 170.359 173.569 170.046L128.967 67.6671C128.183 65.878 127.95 63.8913 128.299 61.9685C129.728 52.7553 134.828 44.5123 142.432 39.1157C151.303 33.2137 163.443 31.9299 178.518 35.2875C206.378 41.4974 218.862 33.1266 222.963 30.3731C224.322 29.4611 226.013 29.2113 227.575 29.6818C229.161 30.1581 230.451 31.32 231.084 32.8419L280.194 157.498C281.111 159.833 279.967 162.465 277.632 163.389C277.196 163.557 276.737 163.662 276.273 163.696L174.405 170.563H174.353M163.321 35.1597C156.287 34.9216 149.339 36.7921 143.373 40.5273C136.158 45.6741 131.325 53.5163 129.972 62.2764C129.687 63.868 129.879 65.512 130.529 66.9991L174.887 168.832L276.156 162.006C277.725 161.896 278.91 160.542 278.799 158.974C278.782 158.683 278.718 158.399 278.608 158.126L229.504 33.4867C229.062 32.4353 228.174 31.6336 227.082 31.3083C226.001 30.983 224.833 31.1573 223.898 31.7847C219.652 34.6369 206.721 43.3214 178.146 36.9431C173.284 35.8103 168.311 35.212 163.316 35.1597" fill="white"/>
<path d="M206.314 120.698C203.584 120.686 200.871 120.274 198.263 119.478C182.497 114.296 172.569 98.7164 174.539 82.2361C175.997 68.7475 188.114 58.9941 201.603 60.4522C203.404 60.6439 205.175 61.0389 206.889 61.6256C214.58 64.0538 221.15 69.1542 225.408 76.0088C234.668 90.5605 231.978 108.929 219.39 116.939C215.487 119.42 210.955 120.721 206.331 120.698M198.832 62.0962C194.527 62.0671 190.31 63.2754 186.674 65.5816C180.865 69.3923 177.036 75.5731 176.217 82.4685C174.376 98.118 183.798 112.908 198.756 117.846C205.356 120.018 212.582 119.164 218.49 115.51C230.288 107.993 232.751 90.6767 223.979 76.915C219.942 70.4031 213.709 65.5525 206.407 63.2464C203.956 62.497 201.405 62.1078 198.844 62.102" fill="white"/>
<path d="M201.016 106.529C200.226 106.529 199.471 106.233 198.89 105.705L187.929 95.7421C186.639 94.5686 186.54 92.5645 187.719 91.2749C188.899 89.9853 190.897 89.8866 192.187 91.0658L199.459 97.6765L206.761 74.0163C207.267 72.3432 209.027 71.3964 210.7 71.9018C212.373 72.4071 213.32 74.1673 212.814 75.8403C212.814 75.8519 212.809 75.8693 212.803 75.881L204.037 104.299C203.63 105.623 202.405 106.529 201.016 106.529Z" fill="white"/>
</g>
<path d="M341.147 85.5675H347.81L357.546 115.263H353.299L350.534 106.538H338.242L335.477 115.263H331.394L341.147 85.5675ZM349.396 103.035L344.551 87.7343H344.179L339.352 103.035H349.396Z" fill="#68E085"/>
<path d="M367.509 114.56C366.428 113.817 365.464 112.649 364.61 111.052H364.279V115.258H360.689V84.3243H364.482V98.3241H364.813C365.609 96.8254 366.539 95.7217 367.596 95.013C368.653 94.3043 369.914 93.9499 371.372 93.9499C373.115 93.9499 374.677 94.4089 376.054 95.3209C377.431 96.2329 378.505 97.5167 379.284 99.1665C380.062 100.816 380.451 102.698 380.451 104.819C380.451 106.939 380.062 108.798 379.284 110.448C378.505 112.097 377.431 113.381 376.054 114.293C374.677 115.205 373.126 115.664 371.395 115.664C369.885 115.664 368.589 115.292 367.509 114.549V114.56ZM373.672 111.447C374.573 110.825 375.246 109.954 375.694 108.815C376.141 107.683 376.362 106.352 376.362 104.824C376.362 103.297 376.141 101.949 375.7 100.822C375.258 99.6951 374.584 98.8237 373.678 98.2022C372.772 97.5806 371.651 97.2727 370.315 97.2727C368.978 97.2727 367.863 97.5806 366.963 98.2022C366.062 98.8179 365.388 99.6951 364.941 100.822C364.494 101.949 364.273 103.285 364.273 104.824C364.273 106.364 364.494 107.683 364.941 108.815C365.388 109.948 366.062 110.825 366.963 111.447C367.863 112.063 368.978 112.376 370.315 112.376C371.651 112.376 372.766 112.068 373.666 111.447H373.672Z" fill="#68E085"/>
<path d="M386.649 114.177C385.156 113.178 384.052 111.673 383.338 109.652L387.067 108.972C387.52 110.128 388.2 110.988 389.106 111.551C390.012 112.115 391.163 112.399 392.551 112.399C393.446 112.399 394.224 112.283 394.892 112.057C395.56 111.83 396.071 111.505 396.426 111.075C396.78 110.645 396.96 110.146 396.96 109.57C396.96 108.926 396.734 108.397 396.28 107.99C395.827 107.584 395.264 107.27 394.59 107.044C393.916 106.817 392.975 106.561 391.767 106.271C390.158 105.888 388.851 105.498 387.84 105.103C386.829 104.714 385.964 104.104 385.243 103.291C384.523 102.472 384.163 101.386 384.163 100.02C384.163 98.8121 384.488 97.7491 385.145 96.8312C385.795 95.9192 386.719 95.2105 387.91 94.7051C389.1 94.2055 390.477 93.95 392.046 93.95C394.218 93.95 396.042 94.4379 397.512 95.4138C398.982 96.3897 400.056 97.8013 400.73 99.6428L397.204 100.322C396.792 99.2943 396.147 98.5159 395.275 98.0047C394.404 97.4877 393.295 97.2321 391.947 97.2321C390.698 97.2321 389.722 97.4528 389.019 97.8943C388.316 98.3358 387.968 98.9573 387.968 99.7706C387.968 100.404 388.194 100.921 388.647 101.316C389.1 101.711 389.67 102.025 390.349 102.257C391.029 102.483 391.97 102.727 393.167 102.989C394.817 103.361 396.153 103.738 397.181 104.122C398.203 104.505 399.086 105.109 399.818 105.934C400.556 106.759 400.922 107.874 400.922 109.274C400.922 110.564 400.573 111.697 399.87 112.667C399.168 113.637 398.174 114.38 396.89 114.892C395.607 115.409 394.102 115.664 392.383 115.664C390.059 115.664 388.154 115.165 386.661 114.171L386.649 114.177Z" fill="#68E085"/>
<path d="M409.148 114.665C408.259 114.264 407.632 113.648 407.26 112.818C406.888 111.987 406.702 110.883 406.702 109.507V97.6677H403.031V94.3682H406.702V89.3143H410.495V94.3682H416.351V97.6677H410.495V109.361C410.495 110.006 410.559 110.512 410.693 110.878C410.821 111.243 411.076 111.511 411.448 111.679C411.82 111.848 412.354 111.935 413.057 111.935H416.357V115.258H412.807C411.256 115.258 410.036 115.06 409.148 114.659V114.665Z" fill="#68E085"/>
<path d="M420.103 94.3681H423.693V98.9863H424.025C424.576 97.749 425.128 96.7673 425.698 96.0353C426.261 95.3092 426.883 94.7748 427.562 94.4495C428.242 94.1183 429.038 93.9557 429.944 93.9557C430.205 93.9557 430.473 93.9731 430.746 94.008C431.019 94.0428 431.263 94.1009 431.466 94.1822V98.266C431.193 98.1847 430.844 98.1208 430.432 98.0685C430.02 98.0162 429.607 97.9988 429.195 97.9988C428.056 97.9988 427.086 98.2079 426.296 98.6204C425.506 99.0328 424.908 99.6369 424.501 100.427C424.094 101.217 423.891 102.17 423.891 103.285V115.269H420.098V94.3797L420.103 94.3681Z" fill="#68E085"/>
<path d="M435.997 114.944C435.056 114.456 434.318 113.77 433.778 112.893C433.244 112.016 432.977 111.005 432.977 109.861C432.977 108.031 433.697 106.556 435.132 105.429C436.567 104.302 438.716 103.541 441.574 103.14L446.605 102.42C446.576 101.211 446.395 100.224 446.059 99.4685C445.722 98.7134 445.228 98.1557 444.583 97.7955C443.938 97.4354 443.113 97.2611 442.108 97.2611C440.819 97.2611 439.75 97.5632 438.913 98.1673C438.077 98.7714 437.455 99.7183 437.06 101.014L433.325 100.706C433.685 99.2768 434.26 98.0627 435.056 97.0578C435.852 96.0528 436.851 95.286 438.059 94.7574C439.262 94.2288 440.65 93.9615 442.213 93.9615C443.932 93.9615 445.402 94.2869 446.628 94.9317C447.854 95.5765 448.783 96.5291 449.434 97.7781C450.078 99.027 450.404 100.549 450.404 102.332V115.263H446.814V111.058H446.483C445.646 112.545 444.589 113.683 443.317 114.479C442.044 115.275 440.662 115.676 439.163 115.676C437.996 115.676 436.938 115.432 435.997 114.944ZM437.978 111.621C438.617 112.121 439.512 112.376 440.668 112.376C441.742 112.376 442.73 112.173 443.636 111.766C444.542 111.36 445.263 110.802 445.803 110.093C446.343 109.385 446.605 108.6 446.605 107.735V105.324L442.213 105.986C440.964 106.166 439.959 106.393 439.21 106.678C438.46 106.962 437.908 107.322 437.548 107.77C437.188 108.217 437.014 108.775 437.014 109.448C437.014 110.395 437.333 111.121 437.972 111.627L437.978 111.621Z" fill="#68E085"/>
<path d="M458.78 114.665C457.891 114.264 457.264 113.648 456.892 112.818C456.52 111.987 456.334 110.883 456.334 109.507V97.6677H452.663V94.3682H456.334V89.3143H460.128V94.3682H465.983V97.6677H460.128V109.361C460.128 110.006 460.192 110.512 460.325 110.878C460.453 111.243 460.709 111.511 461.08 111.679C461.452 111.848 461.987 111.935 462.69 111.935H465.989V115.258H462.44C460.889 115.258 459.669 115.06 458.78 114.659V114.665Z" fill="#68E085"/>
<path d="M472.989 114.305C471.456 113.393 470.265 112.109 469.423 110.471C468.574 108.827 468.156 106.933 468.156 104.79C468.156 102.646 468.58 100.776 469.423 99.1374C470.271 97.4993 471.456 96.2271 472.989 95.3209C474.523 94.4147 476.295 93.9615 478.299 93.9615C479.827 93.9615 481.221 94.2346 482.487 94.7748C483.754 95.3209 484.834 96.1109 485.723 97.1449C486.617 98.1847 487.268 99.4162 487.68 100.845L483.783 101.525C483.382 100.125 482.72 99.0619 481.79 98.3474C480.861 97.6329 479.681 97.2727 478.252 97.2727C476.916 97.2727 475.801 97.5806 474.901 98.1905C474 98.8005 473.326 99.6718 472.879 100.799C472.432 101.926 472.211 103.25 472.211 104.778C472.211 106.306 472.432 107.653 472.879 108.78C473.326 109.907 474 110.779 474.901 111.4C475.801 112.022 476.916 112.33 478.252 112.33C481.128 112.33 482.969 110.854 483.777 107.897L487.675 108.577C487.262 110.064 486.612 111.336 485.729 112.399C484.84 113.463 483.765 114.276 482.499 114.833C481.232 115.391 479.832 115.67 478.293 115.67C476.283 115.67 474.517 115.211 472.984 114.299L472.989 114.305Z" fill="#68E085"/>
<path d="M493.466 114.177C491.973 113.178 490.869 111.673 490.155 109.652L493.884 108.972C494.337 110.128 495.017 110.988 495.923 111.551C496.829 112.115 497.98 112.399 499.368 112.399C500.263 112.399 501.041 112.283 501.709 112.057C502.377 111.83 502.888 111.505 503.243 111.075C503.597 110.645 503.777 110.146 503.777 109.57C503.777 108.926 503.55 108.397 503.097 107.99C502.644 107.584 502.081 107.27 501.407 107.044C500.733 106.817 499.792 106.561 498.584 106.271C496.975 105.888 495.668 105.498 494.657 105.103C493.646 104.714 492.78 104.104 492.06 103.291C491.34 102.472 490.98 101.386 490.98 100.02C490.98 98.8121 491.305 97.7491 491.961 96.8312C492.612 95.9192 493.536 95.2105 494.727 94.7051C495.917 94.2055 497.294 93.95 498.863 93.95C501.035 93.95 502.859 94.4379 504.329 95.4138C505.799 96.3897 506.873 97.8013 507.547 99.6428L504.021 100.322C503.609 99.2943 502.964 98.5159 502.092 98.0047C501.221 97.4877 500.111 97.2321 498.764 97.2321C497.515 97.2321 496.539 97.4528 495.836 97.8943C495.133 98.3358 494.785 98.9573 494.785 99.7706C494.785 100.404 495.011 100.921 495.464 101.316C495.917 101.711 496.487 102.025 497.166 102.257C497.846 102.483 498.787 102.727 499.984 102.989C501.633 103.361 502.97 103.738 503.998 104.122C505.02 104.505 505.903 105.109 506.635 105.934C507.373 106.759 507.739 107.874 507.739 109.274C507.739 110.564 507.39 111.697 506.687 112.667C505.984 113.637 504.991 114.38 503.707 114.892C502.423 115.409 500.919 115.664 499.199 115.664C496.876 115.664 494.97 115.165 493.478 114.171L493.466 114.177Z" fill="#68E085"/>
</svg>
