<svg width="600" height="200" viewBox="0 0 600 200" fill="none" xmlns="http://www.w3.org/2000/svg">
<g clip-path="url(#clip0_28_14453)">
<path d="M182.57 130.6C176.99 126.58 174.03 123.62 171.24 119.35C167.22 113.11 165 105.55 165 98.08C165 76.48 182.41 58.99 204 58.99C225.59 58.99 243 76.48 243 98C243 106.87 239.96 115.73 234.62 122.3C232.4 125.09 230.52 126.74 225.42 130.59V107.76H229.28V123.36C232.15 119.99 233.55 117.94 234.94 115.48C237.81 110.39 239.37 104.07 239.37 97.99C239.37 78.28 223.52 62.27 203.98 62.27C184.44 62.27 168.59 78.28 168.59 98.24C168.59 107.35 171.79 115.4 178.61 123.37V107.77H182.55V130.6H182.57ZM190.29 134.54C189.55 134.38 187.83 133.55 186.43 132.81V107.77H190.29V134.54ZM213.78 79.52L204.01 71.97L194.24 79.52L192.1 76.73L204.01 67.45L215.92 76.73L213.78 79.52ZM198.09 136.59C196.69 136.34 196.61 136.34 196.12 136.18C195.71 136.1 195.55 136.1 194.23 135.77V82.39H198.09V136.59ZM205.89 136.92C205.32 137 205.15 137 204.33 137C203.1 137 202.69 137 202.03 136.92V82.39H205.89V136.92ZM213.69 135.69C212.46 136.1 211.39 136.35 209.83 136.68V82.4H213.69V135.69ZM221.57 132.82C220.34 133.4 219.6 133.72 217.63 134.63V107.78H221.57V132.82Z" fill="white"/>
<path d="M266.17 62.86C267.4 62.78 268.39 62.7 268.72 62.7C273.4 62.7 276.52 65.4099 276.52 69.5999C276.52 72.4799 274.96 74.5299 271.59 76.1699C275.86 77.0699 278.16 79.78 278.16 83.81C278.16 86.93 276.44 89.5599 273.73 90.6199C272.5 91.1099 271.02 91.2799 268.31 91.2799H265.76C264.36 91.1999 263.3 91.2 262.48 91.2H257.72V89.56L260.51 89.07V65.1699L257.72 64.68V62.95H262.73L266.18 62.8699L266.17 62.86ZM257.88 133.15V131.51L260.51 131.02V107.04L257.88 106.63V104.82H267.32V106.55L264.86 107.04V130.94L267.24 131.43V133.16H257.88V133.15ZM266.67 75.4199C270.2 75.4199 271.84 73.61 271.84 69.75C271.84 66.47 270.11 64.5 267.16 64.5C266.34 64.5 265.76 64.58 264.61 64.99V75.4199H266.66H266.67ZM264.62 88.8899C265.44 89.3799 266.02 89.5499 267.17 89.5499C271.03 89.5499 273.41 87.17 273.41 83.31C273.41 79.45 271.19 77.4 266.43 77.4H264.62V88.8899ZM280.31 133.15V131.51L282.45 131.1V119.11C282.45 116.81 281.71 115.74 280.15 115.74C278.92 115.74 277.85 116.23 276.29 117.55V130.93L278.42 131.42V133.15H269.96V131.51L272.34 131.02V116.07L269.96 115.74V114.1L275.05 112.79H276.2V115.25C278.67 113.36 279.82 112.87 281.62 112.87C284.74 112.87 286.46 114.84 286.46 118.21V130.94L288.6 131.43V133.16H280.31V133.15ZM297.47 80.7599C297.47 87.2499 294.1 91.5999 289.18 91.5999C284.26 91.5999 281.3 87.49 281.3 81.5C281.3 75.1 284.67 70.66 289.59 70.66C294.51 70.66 297.47 74.6799 297.47 80.7599ZM285.65 81.34C285.65 86.6 286.96 89.5499 289.26 89.5499C291.72 89.5499 293.04 86.43 293.04 80.27C293.04 75.34 291.72 72.63 289.43 72.63C287.14 72.63 285.65 75.83 285.65 81.33M304.45 115.57C305.6 117.05 305.93 118.03 305.93 119.59C305.93 123.37 302.98 126.16 299.03 126.16C298.21 126.16 297.55 126.08 296.81 125.83C295.82 126.49 295.25 127.15 295.25 127.64C295.25 128.13 295.74 128.38 296.98 128.46L301.9 128.71C305.76 128.87 307.57 130.35 307.57 133.39C307.57 137.74 303.71 140.53 297.8 140.53C293.36 140.53 290.49 138.89 290.49 136.34C290.49 134.7 291.31 133.63 293.69 132.07C292.05 131.41 291.39 130.67 291.39 129.52C291.39 128.04 292.46 126.73 295.08 125.09C292.62 123.53 291.71 121.97 291.71 119.42C291.71 115.56 294.67 112.61 298.53 112.61C299.35 112.61 299.68 112.69 301.16 113.02C301.98 113.27 302.56 113.35 302.97 113.35C303.05 113.35 303.38 113.35 303.71 113.27H304.45L307.82 113.19V115.57H304.45ZM295.91 132.4C294.84 133.39 294.43 134.21 294.43 135.44C294.43 137.25 296.07 138.32 298.78 138.32C302.14 138.32 304.69 136.92 304.69 134.95C304.69 133.22 303.79 132.9 297.46 132.49L295.9 132.41L295.91 132.4ZM296.07 119.26C296.07 122.71 296.89 124.27 298.86 124.27C300.83 124.27 301.65 122.71 301.65 119.67C301.65 116.06 300.66 114.33 298.69 114.33C296.88 114.33 296.06 115.89 296.06 119.26M304.6 80.83C305.01 86.41 306.41 88.7099 309.36 88.7099C310.84 88.7099 311.9 87.97 313.14 86.08L314.95 86.82C312.9 90.51 311.42 91.58 308.22 91.58C303.29 91.58 300.5 88.0499 300.5 81.6399C300.5 74.8199 303.38 70.72 308.14 70.72C312.9 70.72 314.96 74.01 315.04 80.82H304.61L304.6 80.83ZM310.84 78.86C310.68 74.43 309.85 72.7 307.97 72.7C306.09 72.7 305.09 74.59 304.6 78.86H310.84Z" fill="white"/>
<path d="M314.12 122.72C314.53 128.39 315.93 130.69 318.88 130.69C320.44 130.69 321.51 129.95 322.74 128.06L324.55 128.8C322.66 132.33 320.94 133.56 317.73 133.56C312.81 133.56 310.01 129.86 310.01 123.54C310.01 116.72 312.88 112.7 317.65 112.7C320.93 112.7 323.07 114.43 324.05 117.63C324.38 118.7 324.46 120.01 324.63 122.72H314.12ZM320.36 120.83C320.28 116.56 319.46 114.67 317.57 114.67C315.68 114.67 314.62 116.48 314.12 120.83H320.36ZM327.75 91.19V89.55L329.72 89.14V78.06C329.72 75.1 329.06 74.04 327.34 74.04C326.11 74.04 325.21 74.45 323.56 75.85V89.07L325.53 89.48V91.2H317.15V89.56L319.62 89.07V64.02L317.32 63.53V62.13L322.41 61.06H323.56V73.46C325.86 71.65 327.18 71.08 328.9 71.08C332.1 71.08 333.75 72.97 333.75 76.66V89.06L335.88 89.47V91.19H327.75ZM327.01 133.15V131.51L329.39 131.02V105.73L327.09 105.48V104.08L332.26 102.93H333.33V130.93L335.55 131.42V133.15H327.01ZM348.77 133.15V131.51L350.74 131.1V119.94C350.74 116.98 350.08 115.91 348.36 115.91C347.21 115.91 346.22 116.4 344.58 117.8V130.94L346.55 131.43V133.16H338.26V131.52L340.64 131.03V105.9L338.34 105.49V104.09L343.51 102.94H344.58V115.42C346.8 113.61 348.11 113.04 350 113.04C353.04 113.04 354.76 114.93 354.76 118.29V130.94L356.98 131.43V133.16H348.77V133.15ZM344.83 74.68C346.47 71.89 347.29 71.15 348.77 71.15C350.25 71.15 351.15 72.05 351.15 73.53C351.15 74.43 350.66 75.17 349.59 75.99L347.45 74.84C346.05 75.58 344.9 77.14 344.9 78.29V89.05L347.78 89.46V91.18H338.66V89.54L341.04 89.05V73.94L338.66 73.53V72.21L343.59 70.9H344.82V74.68H344.83ZM353.21 91.18V89.54L355.43 89.05V74.27L353.21 73.78V72.38L358.38 71.07H359.37V89.05L361.67 89.46V91.18H353.21ZM359.7 63.67C359.7 65.15 358.55 66.3 357.07 66.3C355.59 66.3 354.44 65.15 354.44 63.67C354.44 62.19 355.59 61.04 357.07 61.04C358.55 61.04 359.7 62.19 359.7 63.67ZM363.73 122.71C364.14 128.38 365.54 130.68 368.49 130.68C370.05 130.68 371.12 129.94 372.35 128.05L374.16 128.79C372.27 132.32 370.55 133.55 367.34 133.55C362.41 133.55 359.62 129.85 359.62 123.53C359.62 116.71 362.49 112.69 367.26 112.69C370.55 112.69 372.68 114.42 373.66 117.62C373.99 118.69 374.07 120 374.24 122.71H363.73ZM369.97 120.82C369.89 116.55 369.07 114.66 367.18 114.66C365.29 114.66 364.22 116.47 363.73 120.82H369.97Z" fill="white"/>
<path d="M374.89 91.1899V89.5499L377.03 89.1399V77.1499C377.03 74.8499 376.29 73.7799 374.73 73.7799C373.5 73.7799 372.43 74.2699 370.87 75.5899V88.9799L373.01 89.4699V91.1999H364.55V89.5599L366.93 89.0699V74.1199L364.55 73.7899V72.1499L369.64 70.8399H370.79V73.2999C373.25 71.4099 374.4 70.9199 376.21 70.9199C379.33 70.9199 381.05 72.8899 381.05 76.2599V88.9899L383.19 89.4799V91.2099H374.9L374.89 91.1899ZM377.44 133.15V131.51L379.66 131.02V116.16L377.44 115.67V114.36L382.61 113.04H383.6V130.94L385.9 131.43V133.16H377.44V133.15ZM384.01 105.56C384.01 107.04 382.78 108.27 381.3 108.27C379.82 108.27 378.67 107.12 378.67 105.64C378.67 104.16 379.9 102.93 381.46 102.93C382.86 102.93 384.01 104.16 384.01 105.56ZM398.96 73.6199C400.11 75.0999 400.44 76.0799 400.44 77.6399C400.44 81.4199 397.49 84.2099 393.54 84.2099C392.72 84.2099 392.06 84.1299 391.32 83.8799C390.33 84.5399 389.76 85.1999 389.76 85.6099C389.76 86.1899 390.25 86.4299 391.49 86.5099L396.41 86.7599C400.27 86.9199 402.08 88.3999 402.08 91.4399C402.08 95.7899 398.22 98.5799 392.31 98.5799C387.88 98.5799 385 96.9399 385 94.3899C385 92.7499 385.9 91.5999 388.2 90.1199C386.56 89.4599 385.9 88.6399 385.9 87.4899C385.9 86.0899 386.97 84.7799 389.59 83.1399C387.13 81.5799 386.22 80.0199 386.22 77.4799C386.22 73.6199 389.18 70.6599 393.04 70.6599C393.86 70.6599 394.19 70.7399 395.67 71.0699C396.49 71.3199 397.07 71.3999 397.48 71.3999C397.56 71.3999 397.89 71.3999 398.22 71.3199H398.96L402.33 71.2399V73.6199H398.96ZM409.55 133.15V131.51L411.77 131.02V119.61C411.77 116.9 411.03 115.83 409.31 115.83C407.99 115.83 407.09 116.32 405.45 117.8V130.94L407.5 131.43V133.16H399.21V131.52L401.51 131.03V119.54C401.51 116.99 400.69 115.84 398.88 115.84C397.56 115.84 396.58 116.33 395.18 117.73V130.95L397.07 131.44V133.17H388.69V131.53L391.07 131.04V115.93L388.69 115.52V114.12L393.86 112.81H394.93V115.52C396.98 113.8 398.54 113.14 400.51 113.14C402.48 113.14 403.96 113.96 405.11 115.77C407.25 113.8 408.64 113.06 410.77 113.06C414.3 113.06 415.78 114.79 415.78 118.89V130.96L418.08 131.45V133.18H409.54L409.55 133.15ZM388.94 93.4899C388.94 95.2999 390.58 96.3699 393.29 96.3699C396.66 96.3699 399.2 94.8899 399.2 92.9999C399.2 91.1099 398.54 90.9499 390.41 90.4499C389.34 91.4399 388.93 92.2599 388.93 93.4899M390.57 77.3099C390.57 80.7599 391.39 82.3199 393.36 82.3199C395.33 82.3199 396.15 80.7599 396.15 77.7199C396.15 74.1099 395.16 72.3799 393.19 72.3799C391.38 72.3799 390.56 73.9399 390.56 77.3099M408.71 80.8399C409.12 86.4199 410.52 88.7199 413.47 88.7199C414.95 88.7199 416.02 87.9799 417.25 86.0899L419.06 86.8299C417.01 90.5199 415.53 91.5899 412.33 91.5899C407.4 91.5899 404.61 88.0599 404.61 81.6499C404.61 74.8399 407.49 70.7299 412.25 70.7299C417.01 70.7299 419.07 74.0199 419.15 80.8299H408.72L408.71 80.8399ZM414.95 78.8699C414.79 74.4399 413.96 72.7099 412.08 72.7099C410.2 72.7099 409.2 74.5999 408.71 78.8699H414.95ZM428.66 74.6799C430.3 71.8899 431.12 71.1499 432.6 71.1499C434.08 71.1499 434.98 72.0499 434.98 73.5299C434.98 74.4299 434.49 75.1699 433.42 75.9999L431.28 74.8499C429.88 75.5899 428.73 77.1499 428.73 78.2999V89.0599L431.61 89.4699V91.1999H422.49V89.5599L424.87 89.0699V73.9599L422.49 73.5499V72.2399L427.42 70.9199H428.65V74.6999L428.66 74.6799Z" fill="white"/>
</g>
<defs>
<clipPath id="clip0_28_14453">
<rect width="390" height="141.54" fill="white" transform="translate(105 29)"/>
</clipPath>
</defs>
</svg>
