<svg width="600" height="200" viewBox="0 0 600 200" fill="none" xmlns="http://www.w3.org/2000/svg">
<path d="M243.342 135.359C250.172 144.649 247.142 158.479 236.572 166.259C226.002 174.039 211.892 172.809 205.052 163.519C198.222 154.229 201.252 140.399 211.822 132.619C222.392 124.839 236.502 126.069 243.342 135.359Z" stroke="#00E47C" stroke-width="1.15" stroke-miterlimit="10"/>
<path d="M205.532 168.899C205.532 168.899 187.752 159.859 190.722 141.939C193.682 124.019 212.052 116.309 222.272 116.459C224.052 116.159 224.642 113.789 224.642 113.789C224.642 113.789 226.122 116.899 227.462 117.499C228.792 118.089 241.092 121.349 241.532 121.349C241.972 121.349 244.792 121.799 244.792 121.799L244.342 125.499C244.342 125.499 253.082 138.089 249.822 148.609C246.562 159.129 242.562 165.789 226.412 170.829C212.632 174.539 205.522 168.899 205.522 168.899H205.532Z" stroke="#00E47C" stroke-width="1.15" stroke-linecap="round" stroke-linejoin="round"/>
<path d="M190.422 148.309C190.422 148.309 184.202 129.499 201.532 118.389C214.712 109.209 225.682 112.459 225.682 112.459C225.682 112.459 234.722 92.3091 233.982 60.0191C233.242 27.7291 226.542 27.6791 217.832 30.6891C206.272 34.6891 194.132 58.5391 189.242 74.8391C184.352 91.1391 178.872 108.169 179.462 118.249C182.282 117.059 194.572 116.919 196.792 117.659C196.642 115.289 206.122 60.9191 231.302 38.2591" stroke="#00E47C" stroke-width="1.15" stroke-linecap="round" stroke-linejoin="round"/>
<path d="M245.822 120.159C245.822 120.159 260.192 68.1591 251.892 44.4591C245.962 27.8691 214.802 8.15913 192.602 55.1691C177.952 86.1991 174.672 120.819 174.672 120.819C174.672 120.819 166.272 126.679 163.012 133.349C159.752 140.019 160.342 153.039 170.272 162.679C190.772 182.599 208.782 170.529 208.782 170.529" stroke="#00E47C" stroke-width="1.15" stroke-linecap="round" stroke-linejoin="round"/>
<path d="M204.932 168.449C204.932 168.449 178.732 173.389 167.162 149.189C159.392 130.689 170.722 124.299 170.722 124.299" stroke="#00E47C" stroke-width="1.15" stroke-linecap="round" stroke-linejoin="round"/>
<path d="M224.612 115.339L222.272 116.459C222.272 116.459 212.332 117.419 207.132 119.919C201.932 122.419 195.062 129.699 193.602 133.449C192.142 137.199 190.062 146.149 190.062 146.149C190.062 146.149 189.022 141.989 189.442 136.369C189.862 130.749 192.152 124.919 199.432 120.139C199.432 120.139 208.172 113.479 215.662 111.819C223.152 110.149 224.612 115.359 224.612 115.359" fill="#00E47C"/>
<path d="M294.483 85.725H304.163C306.103 85.725 307.823 86.085 309.303 86.805C310.783 87.525 311.933 88.545 312.743 89.855C313.553 91.165 313.953 92.695 313.953 94.455C313.953 96.215 313.553 97.745 312.743 99.065C311.933 100.385 310.793 101.395 309.303 102.115C307.813 102.835 306.113 103.185 304.163 103.185H298.493V115.095H294.473V85.735L294.483 85.725ZM304.163 99.715C305.363 99.715 306.373 99.505 307.193 99.075C308.013 98.645 308.633 98.035 309.033 97.245C309.443 96.455 309.643 95.525 309.643 94.455C309.643 93.385 309.443 92.455 309.033 91.665C308.623 90.875 308.013 90.265 307.193 89.835C306.373 89.405 305.363 89.195 304.163 89.195H298.493V99.715H304.163Z" fill="white"/>
<path d="M320.403 114.145C318.873 113.245 317.693 111.985 316.853 110.365C316.013 108.745 315.603 106.875 315.603 104.765C315.603 102.655 316.023 100.775 316.853 99.145C317.693 97.525 318.873 96.265 320.403 95.365C321.933 94.465 323.693 94.015 325.693 94.015C327.693 94.015 329.453 94.465 330.983 95.365C332.513 96.265 333.693 97.525 334.533 99.145C335.373 100.775 335.783 102.645 335.783 104.765C335.783 106.885 335.363 108.735 334.533 110.365C333.693 111.985 332.513 113.255 330.983 114.145C329.453 115.045 327.693 115.495 325.693 115.495C323.693 115.495 321.933 115.045 320.403 114.145ZM329.063 111.315C329.963 110.705 330.643 109.845 331.083 108.725C331.523 107.605 331.743 106.295 331.743 104.775C331.743 103.255 331.523 101.935 331.083 100.825C330.643 99.715 329.973 98.845 329.063 98.235C328.153 97.625 327.033 97.315 325.693 97.315C324.353 97.315 323.243 97.615 322.343 98.235C321.443 98.855 320.763 99.715 320.313 100.825C319.863 101.935 319.643 103.255 319.643 104.775C319.643 106.295 319.863 107.615 320.313 108.725C320.763 109.835 321.433 110.705 322.343 111.315C323.243 111.925 324.363 112.235 325.693 112.235C327.023 112.235 328.163 111.925 329.063 111.315Z" fill="white"/>
<path d="M343.763 114.135C342.403 113.235 341.343 111.965 340.573 110.335C339.803 108.705 339.423 106.845 339.423 104.765C339.423 102.685 339.803 100.815 340.573 99.175C341.343 97.535 342.403 96.275 343.763 95.375C345.123 94.475 346.663 94.015 348.393 94.015C349.833 94.015 351.073 94.365 352.123 95.065C353.173 95.765 354.083 96.855 354.873 98.335H355.203V84.495H358.953V115.075H355.403V110.915H355.073C354.233 112.495 353.273 113.645 352.213 114.385C351.153 115.125 349.863 115.485 348.373 115.485C346.663 115.485 345.123 115.035 343.763 114.125V114.135ZM352.743 111.315C353.633 110.705 354.303 109.835 354.743 108.715C355.183 107.595 355.403 106.275 355.403 104.775C355.403 103.275 355.183 101.935 354.743 100.825C354.303 99.715 353.633 98.845 352.743 98.235C351.853 97.625 350.753 97.315 349.433 97.315C348.113 97.315 347.003 97.615 346.113 98.235C345.213 98.845 344.553 99.715 344.113 100.825C343.673 101.935 343.463 103.255 343.463 104.775C343.463 106.295 343.683 107.595 344.123 108.715C344.563 109.835 345.233 110.705 346.123 111.315C347.013 111.925 348.123 112.235 349.433 112.235C350.743 112.235 351.853 111.925 352.743 111.315Z" fill="white"/>
<path d="M368.072 114.135C366.552 113.235 365.382 111.965 364.542 110.345C363.702 108.725 363.292 106.845 363.292 104.725C363.292 102.605 363.712 100.755 364.542 99.135C365.382 97.515 366.552 96.265 368.072 95.365C369.592 94.465 371.342 94.015 373.322 94.015C374.832 94.015 376.212 94.285 377.462 94.825C378.712 95.365 379.782 96.145 380.662 97.175C381.542 98.205 382.192 99.425 382.602 100.835L378.752 101.505C378.352 100.125 377.702 99.075 376.782 98.365C375.862 97.655 374.702 97.305 373.282 97.305C371.962 97.305 370.862 97.605 369.972 98.215C369.082 98.815 368.412 99.675 367.972 100.795C367.532 101.905 367.312 103.225 367.312 104.735C367.312 106.245 367.532 107.575 367.972 108.685C368.412 109.795 369.082 110.665 369.972 111.275C370.862 111.885 371.962 112.195 373.282 112.195C376.122 112.195 377.942 110.735 378.742 107.815L382.592 108.485C382.182 109.955 381.542 111.215 380.662 112.265C379.782 113.315 378.722 114.125 377.472 114.675C376.222 115.225 374.832 115.505 373.312 115.505C371.332 115.505 369.582 115.055 368.062 114.145L368.072 114.135Z" fill="white"/>
<path d="M388.353 114.775C387.423 114.295 386.693 113.615 386.163 112.745C385.633 111.875 385.363 110.875 385.363 109.745C385.363 107.935 386.073 106.475 387.493 105.365C388.913 104.255 391.033 103.495 393.863 103.105L398.843 102.395C398.813 101.195 398.633 100.225 398.303 99.475C397.973 98.725 397.483 98.175 396.843 97.825C396.203 97.475 395.393 97.295 394.393 97.295C393.113 97.295 392.063 97.595 391.233 98.195C390.403 98.795 389.793 99.735 389.403 101.005L385.713 100.695C386.063 99.285 386.633 98.075 387.423 97.085C388.213 96.095 389.203 95.335 390.393 94.815C391.583 94.295 392.953 94.025 394.503 94.025C396.203 94.025 397.653 94.345 398.863 94.985C400.073 95.625 400.993 96.565 401.633 97.795C402.273 99.035 402.593 100.535 402.593 102.305V115.085H399.043V110.925H398.713C397.883 112.395 396.843 113.525 395.583 114.315C394.323 115.105 392.953 115.495 391.473 115.495C390.313 115.495 389.273 115.255 388.343 114.775H388.353ZM390.313 111.495C390.943 111.995 391.833 112.235 392.973 112.235C394.033 112.235 395.013 112.035 395.913 111.635C396.813 111.235 397.523 110.685 398.053 109.985C398.583 109.285 398.853 108.505 398.853 107.655V105.265L394.513 105.915C393.273 106.095 392.283 106.315 391.543 106.595C390.803 106.875 390.253 107.235 389.903 107.675C389.553 108.115 389.373 108.675 389.373 109.335C389.373 110.275 389.693 110.995 390.323 111.485L390.313 111.495Z" fill="white"/>
<path d="M409.312 114.015C407.842 113.025 406.742 111.535 406.042 109.545L409.732 108.875C410.182 110.015 410.852 110.865 411.752 111.425C412.652 111.985 413.782 112.265 415.162 112.265C416.042 112.265 416.812 112.155 417.472 111.925C418.132 111.705 418.632 111.375 418.992 110.955C419.342 110.535 419.522 110.035 419.522 109.465C419.522 108.825 419.302 108.305 418.852 107.905C418.402 107.505 417.842 107.195 417.182 106.965C416.512 106.745 415.582 106.485 414.392 106.205C412.802 105.825 411.512 105.435 410.512 105.055C409.512 104.675 408.662 104.065 407.942 103.265C407.222 102.465 406.872 101.375 406.872 100.035C406.872 98.835 407.192 97.785 407.842 96.885C408.492 95.985 409.402 95.285 410.572 94.785C411.742 94.285 413.112 94.045 414.662 94.045C416.812 94.045 418.612 94.525 420.062 95.495C421.512 96.465 422.572 97.855 423.242 99.675L419.752 100.345C419.342 99.325 418.712 98.565 417.842 98.055C416.982 97.545 415.882 97.285 414.552 97.285C413.312 97.285 412.352 97.505 411.662 97.935C410.972 98.375 410.622 98.985 410.622 99.795C410.622 100.415 410.842 100.935 411.292 101.325C411.742 101.725 412.302 102.025 412.972 102.255C413.642 102.485 414.572 102.725 415.752 102.975C417.382 103.345 418.702 103.715 419.722 104.095C420.742 104.475 421.602 105.075 422.332 105.885C423.062 106.695 423.422 107.805 423.422 109.185C423.422 110.465 423.072 111.585 422.382 112.535C421.692 113.495 420.702 114.225 419.432 114.735C418.162 115.245 416.672 115.505 414.982 115.505C412.682 115.505 410.802 115.015 409.322 114.025L409.312 114.015Z" fill="white"/>
<path d="M431.643 114.495C430.763 114.105 430.143 113.495 429.773 112.675C429.403 111.855 429.223 110.765 429.223 109.405V97.705H425.593V94.445H429.223V89.455H432.973V94.445H438.763V97.705H432.973V109.265C432.973 109.905 433.033 110.405 433.163 110.765C433.293 111.125 433.543 111.395 433.903 111.555C434.273 111.725 434.803 111.815 435.493 111.815H438.753V115.095H435.243C433.703 115.095 432.503 114.895 431.623 114.505L431.643 114.495Z" fill="white"/>
</svg>
