<svg width="600" height="200" viewBox="0 0 600 200" fill="none" xmlns="http://www.w3.org/2000/svg">
<g clip-path="url(#clip0_28_14453)">
<g clip-path="url(#clip1_28_14453)">
<mask id="mask0_28_14453" style="mask-type:luminance" maskUnits="userSpaceOnUse" x="54" y="23" width="154" height="154">
<path d="M207.299 23.855H54.8896V176.145H207.299V23.855Z" fill="white"/>
</mask>
<g mask="url(#mask0_28_14453)">
<path d="M171.788 50.6023C168.465 46.9879 153.768 33.495 153.768 33.495C153.768 33.495 151.269 30.8299 147.438 34.2006C145.589 35.6829 143.867 37.3074 142.276 39.0638C142.276 39.0638 140.239 40.8912 142.556 44.0792L140.361 47.0032C137.592 45.4752 134.346 45.0589 131.277 45.8407C126.771 46.6529 122.727 49.1149 119.943 52.7546C117.708 55.4197 87.7239 94.4669 87.4495 94.8222C87.3835 94.8984 80.7283 102.437 87.6832 109.391C93.9676 115.671 113.11 128.854 113.283 128.971C114.711 130.042 116.443 130.636 118.226 130.666C120.324 130.646 122.306 129.692 123.637 128.072C127.447 123.737 161.226 81.1161 162.654 79.314C162.704 79.248 167.952 72.7605 161.566 64.4962C162.018 63.6738 162.582 62.9225 163.243 62.2626C164.386 63.1459 165.295 63.0951 166.657 61.8413C169.441 59.2828 175.095 54.2065 171.768 50.6124M158.208 56.7649C159.524 58.2117 160.545 59.4402 161.394 60.4098C159.255 62.7246 158.513 64.4861 159.194 65.6688C159.229 65.7298 159.265 65.7856 159.311 65.8414C164.716 72.5879 160.809 77.4764 160.632 77.6947C159.194 79.5069 125.405 122.133 121.681 126.372C119.908 128.387 116.849 128.61 114.802 126.884C114.609 126.752 95.5577 113.615 89.5122 107.569C84.4064 102.467 88.8873 97.1117 89.4359 96.4924L89.7865 96.0355C96.8532 86.8372 120.055 56.6583 121.93 54.4248C124.348 51.2317 127.889 49.0692 131.836 48.3788C134.554 47.5869 137.481 48.0895 139.777 49.7393C140.046 49.988 140.407 50.1099 140.773 50.0743C141.138 50.0388 141.469 49.851 141.687 49.5616L144.354 46.0133C144.441 46.0894 144.522 46.1656 144.613 46.2417C149.546 49.2063 154.119 52.7394 158.229 56.7649" fill="white"/>
<path d="M177.005 151.911L172.001 136.072L171.701 136.174C171.701 136.174 171.701 136.133 171.686 136.118C171.656 136.022 168.46 126.26 164.828 116.701C162.745 111.127 156.532 108.3 150.959 110.386C150.831 110.432 150.704 110.483 150.577 110.538C144.496 112.706 141.88 119.295 143.912 127.331C145.365 132.717 147.118 138.017 149.165 143.205L148.19 143.509C149.551 148.951 151.197 154.322 153.123 159.591C156.232 168.043 160.062 168.784 169.761 166.221C180.892 163.277 177.015 151.926 177.015 151.926M151.299 142.54C149.262 137.392 147.514 132.128 146.071 126.783C144.689 121.331 145.345 114.752 151.329 112.615C155.653 110.726 160.682 112.701 162.572 117.016C162.638 117.168 162.704 117.326 162.76 117.483C166.382 127.001 169.558 136.707 169.593 136.809L169.603 136.834L151.294 142.54H151.299Z" fill="white"/>
</g>
<path d="M253.159 61.8718H263.101C265.098 61.8718 266.856 62.2423 268.375 62.9784C269.894 63.7196 271.072 64.7602 271.9 66.1054C272.729 67.4507 273.145 69.0243 273.145 70.8214C273.145 72.6184 272.729 74.1971 271.9 75.5474C271.072 76.8977 269.894 77.9435 268.375 78.6744C266.856 79.4054 265.098 79.7709 263.101 79.7709H257.284V91.9846H253.159V61.8667V61.8718ZM263.101 76.2175C264.331 76.2175 265.367 75.9992 266.211 75.5576C267.054 75.1159 267.684 74.4966 268.105 73.6844C268.527 72.8722 268.735 71.9229 268.735 70.8214C268.735 69.7198 268.527 68.7654 268.105 67.9583C267.684 67.1512 267.054 66.5268 266.211 66.0851C265.367 65.6435 264.331 65.4252 263.101 65.4252H257.284V76.2175H263.101Z" fill="white"/>
<path d="M276.956 70.8062H280.598V75.4916H280.933C281.492 74.2378 282.056 73.2377 282.63 72.5017C283.204 71.7605 283.834 71.2275 284.525 70.8925C285.216 70.5574 286.024 70.3899 286.943 70.3899C287.208 70.3899 287.482 70.4102 287.761 70.4407C288.041 70.4762 288.285 70.5371 288.493 70.6183V74.7606C288.214 74.6743 287.863 74.6134 287.446 74.5626C287.03 74.5119 286.608 74.4916 286.192 74.4916C285.033 74.4916 284.053 74.6997 283.25 75.121C282.447 75.5373 281.843 76.1515 281.431 76.9485C281.02 77.7506 280.812 78.7151 280.812 79.8471V91.9999H276.961V70.8163L276.956 70.8062Z" fill="white"/>
<path d="M294.986 91.0251C293.416 90.1063 292.202 88.8119 291.343 87.1468C290.484 85.4818 290.058 83.568 290.058 81.4055C290.058 79.243 290.484 77.3089 291.343 75.6438C292.202 73.9788 293.416 72.6843 294.986 71.7655C296.555 70.8467 298.364 70.3848 300.416 70.3848C302.469 70.3848 304.277 70.8467 305.847 71.7655C307.417 72.6843 308.631 73.9788 309.49 75.6438C310.348 77.3089 310.775 79.2328 310.775 81.4055C310.775 83.5782 310.348 85.4818 309.49 87.1468C308.631 88.8119 307.417 90.1063 305.847 91.0251C304.277 91.944 302.469 92.4059 300.416 92.4059C298.364 92.4059 296.555 91.944 294.986 91.0251ZM303.881 88.1164C304.811 87.4869 305.502 86.6037 305.954 85.4615C306.406 84.3193 306.635 82.9639 306.635 81.4055C306.635 79.8471 306.406 78.4917 305.954 77.3495C305.502 76.2073 304.811 75.319 303.881 74.6946C302.951 74.0651 301.798 73.7555 300.416 73.7555C299.035 73.7555 297.902 74.0702 296.972 74.6946C296.042 75.324 295.351 76.2073 294.889 77.3495C294.427 78.4917 294.198 79.8471 294.198 81.4055C294.198 82.9639 294.427 84.3193 294.889 85.4615C295.351 86.6037 296.042 87.492 296.972 88.1164C297.902 88.7459 299.05 89.0555 300.416 89.0555C301.783 89.0555 302.951 88.7408 303.881 88.1164Z" fill="white"/>
<path d="M318.878 91.015C317.481 90.0861 316.389 88.7865 315.601 87.1164C314.814 85.4412 314.417 83.5427 314.417 81.4055C314.417 79.2684 314.814 77.3495 315.601 75.6743C316.389 73.9991 317.481 72.6996 318.878 71.7757C320.275 70.8467 321.855 70.3848 323.628 70.3848C325.106 70.3848 326.382 70.7452 327.459 71.461C328.531 72.1818 329.476 73.2986 330.283 74.8164H330.619V60.6179H334.469V91.9897H330.827V87.7256H330.492C329.628 89.3449 328.647 90.5277 327.55 91.279C326.453 92.0303 325.142 92.4059 323.603 92.4059C321.845 92.4059 320.27 91.944 318.873 91.015H318.878ZM328.099 88.1164C329.013 87.487 329.694 86.5986 330.151 85.4514C330.603 84.299 330.832 82.9538 330.832 81.4055C330.832 79.8572 330.603 78.4917 330.151 77.3495C329.699 76.2074 329.013 75.319 328.099 74.6946C327.184 74.0651 326.051 73.7555 324.7 73.7555C323.349 73.7555 322.211 74.0702 321.286 74.6946C320.361 75.319 319.681 76.2074 319.234 77.3495C318.787 78.4917 318.563 79.8471 318.563 81.4055C318.563 82.964 318.792 84.3041 319.244 85.4514C319.696 86.6037 320.382 87.492 321.296 88.1164C322.211 88.7459 323.344 89.0556 324.695 89.0556C326.046 89.0556 327.184 88.7408 328.094 88.1164H328.099Z" fill="white"/>
<path d="M357.474 91.9896H353.831V87.7255H353.496C352.673 89.2738 351.651 90.4413 350.427 91.2282C349.208 92.015 347.816 92.4109 346.251 92.4109C344.829 92.4109 343.604 92.0962 342.578 91.4566C341.552 90.822 340.769 89.9083 340.221 88.7052C339.677 87.5072 339.403 86.0757 339.403 84.4157V70.801H343.254V83.9538C343.254 87.3549 344.803 89.0555 347.902 89.0555C349.086 89.0555 350.112 88.822 350.971 88.3549C351.829 87.8879 352.485 87.2128 352.937 86.3346C353.389 85.4564 353.618 84.4106 353.618 83.1974V70.7959H357.468V91.9794L357.474 91.9896Z" fill="white"/>
<path d="M366.796 91.015C365.241 90.086 364.032 88.7916 363.173 87.1265C362.315 85.4615 361.888 83.5375 361.888 81.3649C361.888 79.1922 362.315 77.2937 363.173 75.6337C364.032 73.9737 365.236 72.6843 366.796 71.7655C368.35 70.8467 370.149 70.3848 372.186 70.3848C373.736 70.3848 375.153 70.6589 376.433 71.2122C377.718 71.7604 378.811 72.5625 379.72 73.6184C380.629 74.6692 381.29 75.923 381.707 77.3749L377.749 78.0653C377.343 76.6439 376.672 75.5677 375.727 74.8469C374.787 74.1209 373.588 73.7605 372.135 73.7605C370.784 73.7605 369.646 74.0702 368.736 74.6895C367.822 75.3088 367.136 76.1921 366.684 77.3343C366.232 78.4764 366.003 79.8217 366.003 81.37C366.003 82.9182 366.232 84.2838 366.684 85.4259C367.136 86.5681 367.822 87.4565 368.736 88.0809C369.651 88.7103 370.784 89.02 372.135 89.02C375.051 89.02 376.921 87.5225 377.744 84.5224L381.701 85.2127C381.285 86.7204 380.624 88.0098 379.725 89.0911C378.826 90.1723 377.734 90.9947 376.448 91.5582C375.163 92.1216 373.741 92.4059 372.181 92.4059C370.144 92.4059 368.345 91.944 366.791 91.015H366.796Z" fill="white"/>
<path d="M390.115 91.3856C389.215 90.9795 388.575 90.3551 388.199 89.5124C387.823 88.6697 387.636 87.5479 387.636 86.1569V74.1514H383.912V70.8061H387.636V65.6841H391.486V70.8061H397.43V74.1514H391.486V86.0097C391.486 86.6646 391.552 87.1773 391.685 87.5479C391.817 87.9184 392.071 88.1875 392.447 88.3652C392.822 88.5377 393.366 88.6291 394.077 88.6291H397.425V91.9947H393.823C392.248 91.9947 391.009 91.7917 390.11 91.3906L390.115 91.3856Z" fill="white"/>
<path d="M404.553 91.0251C402.983 90.1063 401.769 88.8119 400.91 87.1468C400.052 85.4818 399.625 83.568 399.625 81.4055C399.625 79.243 400.052 77.3089 400.91 75.6438C401.769 73.9788 402.983 72.6843 404.553 71.7655C406.123 70.8467 407.931 70.3848 409.984 70.3848C412.036 70.3848 413.845 70.8467 415.415 71.7655C416.984 72.6843 418.199 73.9788 419.057 75.6438C419.916 77.3089 420.343 79.2328 420.343 81.4055C420.343 83.5782 419.916 85.4818 419.057 87.1468C418.199 88.8119 416.984 90.1063 415.415 91.0251C413.845 91.944 412.036 92.4059 409.984 92.4059C407.931 92.4059 406.123 91.944 404.553 91.0251ZM413.449 88.1164C414.378 87.4869 415.069 86.6037 415.521 85.4615C415.973 84.3193 416.202 82.9639 416.202 81.4055C416.202 79.8471 415.973 78.4917 415.521 77.3495C415.069 76.2073 414.378 75.319 413.449 74.6946C412.519 74.0651 411.366 73.7555 409.984 73.7555C408.602 73.7555 407.469 74.0702 406.539 74.6946C405.61 75.324 404.919 76.2073 404.456 77.3495C403.994 78.4917 403.765 79.8471 403.765 81.4055C403.765 82.9639 403.994 84.3193 404.456 85.4615C404.919 86.6037 405.61 87.492 406.539 88.1164C407.469 88.7459 408.617 89.0555 409.984 89.0555C411.35 89.0555 412.519 88.7408 413.449 88.1164Z" fill="white"/>
<path d="M426.637 90.8932C425.123 89.883 424.005 88.3499 423.279 86.3042L427.069 85.6138C427.531 86.7864 428.222 87.6545 429.142 88.2281C430.061 88.8017 431.23 89.086 432.637 89.086C433.546 89.086 434.334 88.9692 435.014 88.7408C435.69 88.5124 436.208 88.1773 436.574 87.7458C436.935 87.3143 437.118 86.8067 437.118 86.2179C437.118 85.563 436.889 85.03 436.427 84.6188C435.964 84.2076 435.395 83.8878 434.71 83.6543C434.024 83.4259 433.069 83.1619 431.844 82.8725C430.213 82.4817 428.882 82.0908 427.856 81.6898C426.83 81.2938 425.951 80.6796 425.219 79.8471C424.488 79.0196 424.122 77.913 424.122 76.5322C424.122 75.3037 424.452 74.2275 425.118 73.2986C425.778 72.3696 426.713 71.6538 427.922 71.1462C429.131 70.6386 430.528 70.3848 432.119 70.3848C434.323 70.3848 436.173 70.8822 437.666 71.8721C439.16 72.862 440.247 74.2935 440.933 76.1616L437.356 76.852C436.94 75.8063 436.284 75.0245 435.4 74.5017C434.517 73.9788 433.389 73.7199 432.022 73.7199C430.752 73.7199 429.761 73.9433 429.05 74.39C428.339 74.8367 427.983 75.4713 427.983 76.2936C427.983 76.9332 428.212 77.4561 428.674 77.8622C429.136 78.2683 429.711 78.583 430.401 78.8166C431.092 79.045 432.042 79.2937 433.257 79.5577C434.933 79.9333 436.29 80.3192 437.326 80.71C438.367 81.1009 439.256 81.7151 440.003 82.5477C440.75 83.3853 441.121 84.5122 441.121 85.9336C441.121 87.2433 440.765 88.3905 440.054 89.3753C439.343 90.3601 438.332 91.1114 437.031 91.6343C435.726 92.1572 434.202 92.4161 432.459 92.4161C430.102 92.4161 428.166 91.9084 426.652 90.8982L426.637 90.8932Z" fill="white"/>
<path d="M252.235 109.894H258.052V114.391H258.387C259.21 112.747 260.16 111.513 261.242 110.701C262.324 109.884 263.604 109.478 265.083 109.478C266.759 109.478 268.248 109.955 269.553 110.909C270.859 111.863 271.875 113.183 272.596 114.874C273.323 116.559 273.684 118.463 273.684 120.585C273.684 122.706 273.323 124.656 272.596 126.356C271.87 128.057 270.859 129.387 269.564 130.351C268.268 131.316 266.78 131.793 265.103 131.793C263.609 131.793 262.319 131.402 261.232 130.62C260.145 129.839 259.266 128.691 258.595 127.169H258.26V139.717H252.229V109.894H252.235ZM266.246 125.392C266.993 124.234 267.364 122.646 267.364 120.625C267.364 118.605 266.988 117.036 266.246 115.879C265.499 114.721 264.316 114.143 262.7 114.143C261.084 114.143 259.921 114.721 259.174 115.879C258.427 117.036 258.057 118.62 258.057 120.625C258.057 122.63 258.427 124.234 259.174 125.392C259.921 126.549 261.095 127.128 262.7 127.128C264.305 127.128 265.499 126.549 266.246 125.392Z" fill="#68E085"/>
<path d="M279.353 131.006C278.368 130.499 277.6 129.783 277.052 128.864C276.498 127.945 276.224 126.884 276.224 125.686C276.224 123.691 277.052 122.108 278.713 120.93C280.374 119.752 282.879 118.945 286.227 118.514L289.951 118.031C289.91 116.681 289.59 115.691 288.985 115.072C288.386 114.453 287.471 114.143 286.242 114.143C285.195 114.143 284.352 114.361 283.707 114.803C283.067 115.244 282.579 115.945 282.244 116.904L276.635 116.442C276.996 114.95 277.621 113.686 278.51 112.645C279.394 111.605 280.522 110.818 281.888 110.28C283.255 109.742 284.83 109.473 286.618 109.473C288.599 109.473 290.286 109.803 291.683 110.457C293.08 111.112 294.142 112.077 294.873 113.356C295.605 114.63 295.971 116.184 295.971 118.011V131.357H290.154V126.879H289.819C288.909 128.555 287.878 129.788 286.72 130.58C285.561 131.377 284.22 131.773 282.701 131.773C281.446 131.773 280.323 131.519 279.343 131.012L279.353 131.006ZM283.265 126.549C283.758 126.92 284.494 127.103 285.475 127.103C286.369 127.103 287.151 126.95 287.832 126.641C288.508 126.336 289.031 125.9 289.402 125.331C289.773 124.768 289.956 124.108 289.956 123.356V121.768L287.111 122.163C285.968 122.316 285.068 122.509 284.413 122.737C283.758 122.966 283.28 123.255 282.98 123.595C282.681 123.935 282.528 124.372 282.528 124.9C282.528 125.626 282.777 126.174 283.27 126.539L283.265 126.549Z" fill="#68E085"/>
<path d="M304.298 130.631C303.231 130.149 302.444 129.418 301.93 128.433C301.422 127.448 301.168 126.184 301.168 124.636V114.473H297.653V109.894H301.168V104.31H307.199V109.894H312.558V114.473H307.199V123.945C307.199 124.641 307.27 125.179 307.417 125.555C307.565 125.93 307.813 126.199 308.159 126.362C308.509 126.524 309.007 126.6 309.668 126.6H312.558V131.347H308.433C306.747 131.347 305.365 131.108 304.298 130.626V130.631Z" fill="#68E085"/>
<path d="M315.698 109.894H321.515V115.143H321.85C322.409 113.691 322.968 112.559 323.537 111.732C324.101 110.909 324.705 110.325 325.345 109.985C325.985 109.645 326.727 109.473 327.565 109.473C327.86 109.473 328.139 109.488 328.414 109.523C328.688 109.559 328.912 109.61 329.095 109.681V115.869C328.297 115.661 327.408 115.554 326.417 115.554C324.842 115.554 323.664 115.874 322.891 116.508C322.119 117.143 321.728 118.092 321.728 119.361V131.347H315.698V109.889V109.894Z" fill="#68E085"/>
<path d="M335.486 130.377C333.804 129.448 332.493 128.138 331.549 126.443C330.609 124.747 330.136 122.808 330.136 120.62C330.136 118.432 330.609 116.493 331.549 114.808C332.488 113.123 333.804 111.808 335.486 110.874C337.167 109.94 339.088 109.473 341.252 109.473C343.416 109.473 345.337 109.94 347.018 110.874C348.7 111.808 350.005 113.117 350.94 114.808C351.875 116.493 352.342 118.432 352.342 120.62C352.342 122.808 351.875 124.768 350.94 126.453C350.005 128.138 348.7 129.448 347.028 130.372C345.352 131.301 343.426 131.763 341.252 131.763C339.078 131.763 337.167 131.301 335.486 130.372V130.377ZM344.864 125.367C345.636 124.209 346.027 122.625 346.027 120.62C346.027 118.615 345.641 117.031 344.864 115.874C344.092 114.717 342.888 114.138 341.252 114.138C339.616 114.138 338.412 114.717 337.63 115.874C336.847 117.031 336.456 118.615 336.456 120.62C336.456 122.625 336.847 124.23 337.63 125.377C338.412 126.529 339.616 127.103 341.252 127.103C342.888 127.103 344.087 126.524 344.864 125.367Z" fill="#68E085"/>
<path d="M360.466 130.347C358.804 129.397 357.519 128.082 356.605 126.392C355.69 124.707 355.233 122.783 355.233 120.62C355.233 118.458 355.69 116.534 356.605 114.848C357.519 113.163 358.804 111.843 360.466 110.894C362.127 109.945 364.042 109.473 366.222 109.473C367.827 109.473 369.31 109.757 370.667 110.32C372.028 110.884 373.192 111.721 374.162 112.828C375.133 113.935 375.839 115.28 376.286 116.854L370.362 117.752C370.057 116.595 369.534 115.701 368.792 115.077C368.051 114.447 367.126 114.138 366.008 114.138C364.444 114.138 363.295 114.711 362.564 115.864C361.832 117.016 361.466 118.6 361.466 120.62C361.466 122.641 361.832 124.179 362.564 125.275C363.295 126.372 364.444 126.915 366.008 126.915C367.126 126.915 368.045 126.6 368.772 125.976C369.498 125.346 370.022 124.443 370.342 123.255L376.306 124.174C375.859 125.818 375.148 127.209 374.172 128.346C373.197 129.484 372.028 130.336 370.677 130.91C369.326 131.484 367.837 131.768 366.217 131.768C364.042 131.768 362.122 131.296 360.461 130.347H360.466Z" fill="#68E085"/>
<path d="M380.371 107.092C379.796 106.772 379.349 106.325 379.019 105.752C378.689 105.178 378.526 104.523 378.526 103.787C378.526 103.051 378.689 102.391 379.019 101.823C379.349 101.249 379.796 100.807 380.371 100.483C380.945 100.163 381.59 100 382.316 100C383.043 100 383.693 100.163 384.262 100.483C384.836 100.802 385.278 101.249 385.603 101.823C385.923 102.396 386.086 103.051 386.086 103.787C386.086 104.523 385.923 105.183 385.603 105.752C385.283 106.325 384.836 106.767 384.262 107.092C383.688 107.412 383.043 107.574 382.316 107.574C381.59 107.574 380.94 107.412 380.371 107.092ZM379.304 109.894H385.334V131.352H379.304V109.894Z" fill="#68E085"/>
<path d="M389.475 109.894H395.292V114.391H395.627C397.385 111.117 399.772 109.478 402.785 109.478C404.167 109.478 405.371 109.797 406.397 110.442C407.423 111.082 408.211 112.006 408.765 113.204C409.313 114.402 409.593 115.823 409.593 117.473V131.362H403.562V118.249C403.562 116.94 403.232 115.93 402.577 115.219C401.921 114.508 400.976 114.153 399.752 114.153C398.858 114.153 398.096 114.336 397.461 114.706C396.826 115.077 396.343 115.615 396.008 116.326C395.673 117.036 395.505 117.899 395.505 118.92V131.362H389.475V109.904V109.894Z" fill="#68E085"/>
<path d="M415.669 131.006C414.683 130.499 413.916 129.783 413.367 128.864C412.813 127.945 412.539 126.884 412.539 125.686C412.539 123.691 413.367 122.108 415.028 120.93C416.69 119.752 419.194 118.945 422.542 118.514L426.266 118.031C426.225 116.681 425.905 115.691 425.301 115.072C424.701 114.453 423.787 114.143 422.557 114.143C421.511 114.143 420.668 114.361 420.022 114.803C419.382 115.244 418.895 115.945 418.559 116.904L412.951 116.442C413.311 114.95 413.936 113.686 414.825 112.645C415.709 111.605 416.837 110.818 418.204 110.28C419.57 109.742 421.145 109.473 422.933 109.473C424.915 109.473 426.601 109.803 427.998 110.457C429.396 111.112 430.457 112.077 431.189 113.356C431.92 114.63 432.286 116.184 432.286 118.011V131.357H426.469V126.879H426.134C425.225 128.555 424.193 129.788 423.035 130.58C421.877 131.377 420.535 131.773 419.016 131.773C417.762 131.773 416.639 131.519 415.658 131.012L415.669 131.006ZM419.58 126.549C420.073 126.92 420.81 127.103 421.79 127.103C422.684 127.103 423.467 126.95 424.148 126.641C424.823 126.336 425.347 125.9 425.717 125.331C426.088 124.768 426.271 124.108 426.271 123.356V121.768L423.426 122.163C422.283 122.316 421.384 122.509 420.729 122.737C420.073 122.966 419.596 123.255 419.296 123.595C418.996 123.935 418.844 124.372 418.844 124.9C418.844 125.626 419.093 126.174 419.585 126.539L419.58 126.549Z" fill="#68E085"/>
<path d="M439.759 130.336C438.454 129.382 437.438 128.062 436.701 126.372C435.969 124.686 435.604 122.783 435.604 120.661C435.604 118.539 435.964 116.61 436.691 114.909C437.417 113.209 438.433 111.879 439.734 110.914C441.039 109.95 442.523 109.472 444.179 109.472C445.673 109.472 446.968 109.868 448.06 110.655C449.158 111.442 450.032 112.6 450.687 114.117H451.022V99.9797H457.053V131.352H451.236V126.874H450.9C450.093 128.519 449.143 129.747 448.055 130.555C446.968 131.362 445.683 131.768 444.204 131.768C442.543 131.768 441.06 131.291 439.759 130.336ZM450.118 125.366C450.865 124.209 451.236 122.625 451.236 120.62C451.236 118.615 450.86 117.031 450.118 115.874C449.371 114.716 448.198 114.138 446.592 114.138C444.987 114.138 443.808 114.716 443.056 115.874C442.304 117.031 441.929 118.615 441.929 120.62C441.929 122.625 442.304 124.209 443.056 125.366C443.808 126.524 444.987 127.103 446.592 127.103C448.198 127.103 449.371 126.524 450.118 125.366Z" fill="#68E085"/>
<path d="M465.923 130.377C464.241 129.448 462.93 128.138 461.986 126.443C461.046 124.747 460.573 122.808 460.573 120.62C460.573 118.432 461.046 116.493 461.986 114.808C462.925 113.123 464.241 111.808 465.923 110.874C467.604 109.94 469.525 109.473 471.689 109.473C473.853 109.473 475.774 109.94 477.455 110.874C479.137 111.808 480.442 113.117 481.377 114.808C482.312 116.493 482.779 118.432 482.779 120.62C482.779 122.808 482.312 124.768 481.377 126.453C480.442 128.138 479.137 129.448 477.465 130.372C475.789 131.301 473.863 131.763 471.689 131.763C469.515 131.763 467.604 131.301 465.923 130.372V130.377ZM475.301 125.367C476.073 124.209 476.464 122.625 476.464 120.62C476.464 118.615 476.078 117.031 475.301 115.874C474.529 114.717 473.325 114.138 471.689 114.138C470.053 114.138 468.849 114.717 468.067 115.874C467.284 117.031 466.893 118.615 466.893 120.62C466.893 122.625 467.284 124.23 468.067 125.377C468.849 126.529 470.053 127.103 471.689 127.103C473.325 127.103 474.524 126.524 475.301 125.367Z" fill="#68E085"/>
<path d="M486.295 109.894H492.112V115.143H492.447C493.006 113.691 493.565 112.559 494.134 111.732C494.698 110.909 495.302 110.325 495.942 109.985C496.583 109.645 497.324 109.473 498.163 109.473C498.457 109.473 498.737 109.488 499.011 109.523C499.285 109.559 499.509 109.61 499.692 109.681V115.869C498.894 115.661 498.005 115.554 497.014 115.554C495.439 115.554 494.261 115.874 493.489 116.508C492.716 117.143 492.325 118.092 492.325 119.361V131.347H486.295V109.889V109.894Z" fill="#68E085"/>
<path d="M506.058 130.347C504.371 129.397 503.06 128.082 502.136 126.392C501.206 124.707 500.744 122.783 500.744 120.62C500.744 118.458 501.201 116.554 502.115 114.859C503.03 113.163 504.315 111.843 505.966 110.894C507.617 109.945 509.512 109.473 511.651 109.473C513.79 109.473 515.634 109.945 517.239 110.884C518.845 111.823 520.084 113.138 520.953 114.818C521.827 116.498 522.259 118.412 522.259 120.559V122.316H507.064C507.231 123.879 507.699 125.103 508.466 125.986C509.233 126.869 510.335 127.316 511.773 127.316C512.738 127.316 513.561 127.113 514.242 126.707C514.928 126.301 515.451 125.722 515.812 124.971L521.842 125.473C521.355 126.829 520.623 127.971 519.653 128.915C518.682 129.854 517.539 130.565 516.218 131.047C514.897 131.529 513.465 131.768 511.915 131.768C509.695 131.768 507.744 131.296 506.053 130.347H506.058ZM516.04 118.28C515.903 116.93 515.482 115.869 514.786 115.102C514.09 114.336 513.063 113.95 511.707 113.95C510.351 113.95 509.299 114.336 508.547 115.102C507.795 115.869 507.312 116.93 507.104 118.28H516.04Z" fill="#68E085"/>
<path d="M528.198 130.219C526.567 129.189 525.363 127.62 524.596 125.514L530.103 124.448C530.438 125.412 530.977 126.128 531.713 126.6C532.455 127.072 533.41 127.311 534.579 127.311C535.249 127.311 535.838 127.24 536.346 127.092C536.854 126.945 537.251 126.732 537.54 126.443C537.825 126.158 537.967 125.818 537.967 125.427C537.967 124.981 537.769 124.605 537.383 124.3C536.992 123.996 536.499 123.747 535.894 123.559C535.295 123.371 534.462 123.153 533.405 122.899C531.688 122.483 530.276 122.062 529.168 121.635C528.06 121.209 527.1 120.554 526.303 119.671C525.5 118.788 525.099 117.61 525.099 116.148C525.099 114.808 525.47 113.635 526.206 112.625C526.948 111.615 528.005 110.838 529.376 110.295C530.748 109.752 532.374 109.478 534.243 109.478C536.656 109.478 538.658 109.97 540.248 110.95C541.838 111.929 543.012 113.386 543.764 115.31L538.404 116.503C538.053 115.666 537.505 115.031 536.753 114.6C536.001 114.168 535.056 113.95 533.928 113.95C532.963 113.95 532.221 114.092 531.698 114.376C531.175 114.66 530.916 115.072 530.916 115.6C530.916 116.046 531.109 116.417 531.5 116.706C531.891 117.001 532.384 117.234 532.973 117.407C533.568 117.579 534.401 117.787 535.473 118.026C537.23 118.432 538.678 118.843 539.816 119.26C540.954 119.676 541.935 120.341 542.768 121.244C543.596 122.153 544.013 123.366 544.013 124.884C544.013 126.321 543.611 127.559 542.809 128.595C542.006 129.636 540.888 130.422 539.451 130.961C538.013 131.499 536.346 131.768 534.446 131.768C531.906 131.768 529.823 131.25 528.187 130.219H528.198Z" fill="#68E085"/>
</g>
</g>
<defs>
<clipPath id="clip0_28_14453">
<rect width="600" height="200" fill="white"/>
</clipPath>
<clipPath id="clip1_28_14453">
<rect width="506" height="266" fill="white" transform="translate(47 -33)"/>
</clipPath>
</defs>
</svg>
