<svg width="600" height="200" viewBox="0 0 600 200" fill="none" xmlns="http://www.w3.org/2000/svg">
<mask id="mask0_49_86" style="mask-type:luminance" maskUnits="userSpaceOnUse" x="165" y="23" width="270" height="96">
<path d="M435 23.5374H165V118.028H435V23.5374Z" fill="white"/>
</mask>
<g mask="url(#mask0_49_86)">
<path d="M288.99 104.306C285.059 80.5816 271.352 86.4193 271.352 86.4193L270.953 36.6452C270.953 36.6452 281.383 33.0679 289.042 57.172L288.977 104.306H288.99Z" fill="#C9C9C9"/>
<path d="M288.958 104.548C287.87 75.3468 279.864 77.1616 279.864 77.1616L278.927 32C278.927 32 287.857 36.5863 289.154 54.6431L288.951 104.555H288.964L288.958 104.548Z" fill="#DADADA"/>
<path d="M209.785 68.1593C210.015 71.1207 208.849 74.0232 206.634 76.0018C204 77.8822 200.796 78.7929 197.566 78.5832H192.934V93.6H185V57.7681H197.494C200.692 57.5978 203.856 58.5019 206.483 60.3495C208.783 62.2692 210.015 65.1782 209.792 68.1658V68.1527L209.785 68.1593ZM201.851 69.201C201.969 67.7269 201.452 66.2789 200.416 65.2241C199.283 64.2937 197.842 63.8285 196.38 63.9203H192.921V74.6194H196.584C198.071 74.7504 199.538 74.2197 200.593 73.1714C201.491 72.0511 201.943 70.6359 201.864 69.2076" fill="white"/>
<path d="M236.916 93.6064H229.762V90.7433L226.807 92.4206C225.988 92.8792 225.123 93.2461 224.225 93.5082C223.275 93.7768 222.299 93.9078 221.316 93.8947C219.128 94.0127 216.999 93.1806 215.479 91.6016C214.011 89.9309 213.245 87.7491 213.349 85.5281V68.5327H220.504V83.8901C220.504 84.7943 220.851 85.6657 221.48 86.3143C222.286 87.0743 223.38 87.4543 224.481 87.356C225.608 87.3888 226.728 87.1071 227.711 86.5501C228.451 86.1243 229.146 85.6264 229.788 85.0629V68.5261H236.942V93.5999L236.923 93.613L236.916 93.6064Z" fill="white"/>
<path d="M267.461 80.5618C267.573 84.0867 266.308 87.5198 263.936 90.1274C261.676 92.6433 258.433 94.0454 255.052 93.9602C253.735 93.9537 252.425 93.7768 251.154 93.4295C250.112 93.2002 249.129 92.7744 248.245 92.1847L244.235 93.9537L242.519 93.0364V57.7615H249.536V69.7316L252.222 68.4278C252.798 68.1592 253.395 67.9233 254.004 67.7202C254.711 67.4975 255.458 67.3861 256.205 67.3926C259.403 67.242 262.475 68.6309 264.48 71.1206C266.537 73.8265 267.592 77.1679 267.461 80.5618ZM260.241 81.0138C260.287 79.0745 259.691 77.1745 258.544 75.6086C257.568 74.1803 255.943 73.3351 254.214 73.3417C253.218 73.3286 252.228 73.5055 251.305 73.8658C250.59 74.0951 249.975 74.5603 249.562 75.1762V87.0808C250.066 87.5788 250.682 87.9457 251.363 88.1422C252.248 88.437 253.178 88.5746 254.109 88.5615C255.884 88.7384 257.634 88.0636 258.833 86.7467C259.914 85.0367 260.412 83.0252 260.248 81.0138H260.241Z" fill="white"/>
<path d="M361.112 82.1278H342.557C342.767 83.8444 343.625 85.4169 344.962 86.5176C346.252 87.4348 347.805 87.9131 349.384 87.8672C350.943 87.8476 352.496 87.6445 354.01 87.271C355.425 86.9762 356.775 86.4389 358 85.6855V91.9883C356.735 92.7745 355.333 93.3052 353.866 93.5411C352.405 93.8753 350.917 94.0718 349.423 94.1111C345.617 94.3339 341.882 93.0301 339.052 90.4814C336.503 87.9065 335.154 84.3817 335.324 80.7651C335.173 77.083 336.549 73.4991 339.131 70.8718C341.66 68.3691 345.099 67.0063 348.65 67.1111C352.142 66.9735 355.497 68.4542 357.751 71.1208C360.162 74.2657 361.354 78.1706 361.118 82.1278H361.112ZM354.521 78.7275C354.305 77.1157 353.551 75.6219 352.378 74.4884C351.278 73.5253 349.849 73.0143 348.388 73.0536C346.835 72.9422 345.302 73.5057 344.195 74.5933C343.199 75.7529 342.596 77.1943 342.479 78.7209H354.527L354.521 78.7275Z" fill="#000082"/>
<path d="M388.433 93.6064H382.989L381.501 91.3395L377.741 93.3771C377.308 93.5802 376.85 93.7113 376.378 93.7637C375.867 93.8423 375.349 93.8816 374.838 93.8882C371.602 94.0978 368.47 92.7154 366.445 90.1864C364.48 87.487 363.471 84.2046 363.582 80.8632C363.386 77.3121 364.624 73.8331 367.022 71.2058C369.433 68.7685 372.755 67.4647 376.181 67.6088C377.145 67.6023 378.101 67.6875 379.045 67.8709C379.883 68.0478 380.683 68.3558 381.423 68.7816V57.7615H388.44V93.5999L388.433 93.6064ZM381.416 85.8884V74.8027C380.886 74.2458 380.224 73.82 379.49 73.5776C378.553 73.2303 377.564 73.06 376.561 73.0665C374.923 72.9355 373.318 73.571 372.211 74.7831C371.123 76.3817 370.619 78.3014 370.776 80.2276C370.632 82.239 371.169 84.2439 372.296 85.9146C373.286 87.166 374.819 87.8605 376.411 87.795C377.42 87.8146 378.416 87.6181 379.346 87.225C380.106 86.9039 380.8 86.4453 381.397 85.8753H381.416V85.8884Z" fill="#000082"/>
<path d="M361.112 82.1278H342.557C342.767 83.8444 343.625 85.4169 344.962 86.5176C346.252 87.4348 347.805 87.9131 349.384 87.8672C350.943 87.8476 352.496 87.6445 354.01 87.271C355.425 86.9762 356.775 86.4389 358 85.6855V91.9883C356.735 92.7745 355.333 93.3052 353.866 93.5411C352.405 93.8753 350.917 94.0718 349.423 94.1111C345.617 94.3339 341.882 93.0301 339.052 90.4814C336.503 87.9065 335.154 84.3817 335.324 80.7651C335.173 77.083 336.549 73.4991 339.131 70.8718C341.66 68.3691 345.099 67.0063 348.65 67.1111C352.142 66.9735 355.497 68.4542 357.751 71.1208C360.162 74.2657 361.354 78.1706 361.118 82.1278H361.112ZM354.521 78.7275C354.305 77.1157 353.551 75.6219 352.378 74.4884C351.278 73.5253 349.849 73.0143 348.388 73.0536C346.835 72.9422 345.302 73.5057 344.195 74.5933C343.199 75.7529 342.596 77.1943 342.479 78.7209H354.527L354.521 78.7275Z" fill="white"/>
<path d="M388.433 93.6064H382.989L381.501 91.3395L377.741 93.3771C377.308 93.5802 376.85 93.7113 376.378 93.7637C375.867 93.8423 375.349 93.8816 374.838 93.8882C371.602 94.0978 368.47 92.7154 366.445 90.1864C364.48 87.487 363.471 84.2046 363.582 80.8632C363.386 77.3121 364.624 73.8331 367.022 71.2058C369.433 68.7685 372.755 67.4647 376.181 67.6088C377.145 67.6023 378.101 67.6875 379.045 67.8709C379.883 68.0478 380.683 68.3558 381.423 68.7816V57.7615H388.44V93.5999L388.433 93.6064ZM381.416 85.8884V74.8027C380.886 74.2458 380.224 73.82 379.49 73.5776C378.553 73.2303 377.564 73.06 376.561 73.0665C374.923 72.9355 373.318 73.571 372.211 74.7831C371.123 76.3817 370.619 78.3014 370.776 80.2276C370.632 82.239 371.169 84.2439 372.296 85.9146C373.286 87.166 374.819 87.8605 376.411 87.795C377.42 87.8146 378.416 87.6181 379.346 87.225C380.106 86.9039 380.8 86.4453 381.397 85.8753H381.416V85.8884Z" fill="white"/>
<path d="M288.964 58.9674V104.312C295.765 75.9759 332.043 109.967 332.043 109.967V61.2409C332.043 61.2409 295.772 30.6374 288.971 58.9739M321.075 90.2392L317.714 73.1848L311.522 87.8347H308.371L302.782 73.8531L299.428 90.2326H292.836L299.618 59.7143H302.225L310.317 77.7121L318.402 59.7143H321.212L328.007 90.2326H321.068H321.075V90.2392Z" fill="white"/>
<path d="M414.307 57.0409C414.444 62.1054 410.448 66.3183 405.39 66.4624C400.325 66.6 396.112 62.6034 395.968 57.5454C395.831 52.4808 399.827 48.268 404.885 48.1239C404.977 48.1239 405.075 48.1239 405.167 48.1239C410.12 48.0322 414.209 51.9698 414.3 56.9164C414.3 56.9623 414.3 57.0016 414.3 57.0474M398.248 57.0474C398.13 60.8672 401.131 64.0579 404.951 64.1758C405.036 64.1758 405.121 64.1758 405.206 64.1758C408.941 64.1955 411.987 61.1882 412.014 57.4537C412.014 57.3357 412.014 57.2178 412.007 57.0999C412.02 53.2998 408.954 50.2074 405.154 50.1943C401.354 50.1812 398.261 53.2474 398.248 57.0474ZM403.745 61.7254H401.688V52.8084C402.821 52.6053 403.968 52.507 405.115 52.5201C406.189 52.4284 407.27 52.6577 408.22 53.1753C408.79 53.6602 409.111 54.3809 409.092 55.1343C409.013 56.163 408.253 57.0081 407.244 57.1981V57.3095C408.155 57.6764 408.784 58.5151 408.875 59.4847C408.961 60.2644 409.183 61.0178 409.531 61.7189H407.296C406.956 61.031 406.72 60.2971 406.595 59.5437C406.438 58.5675 405.894 58.1285 404.748 58.1285H403.771V61.7254H403.745ZM403.804 56.6674H404.78C405.927 56.6674 406.844 56.2809 406.844 55.3636C406.844 54.5512 406.242 54.0074 404.938 54.0074C404.551 54.0009 404.165 54.0336 403.791 54.1188V56.6805L403.804 56.6674Z" fill="#C9C9C9"/>
</g>
<path d="M217 139.393H227.751C229.907 139.393 231.813 139.794 233.458 140.591C235.104 141.389 236.373 142.517 237.272 143.977C238.171 145.431 238.617 147.134 238.617 149.085C238.617 151.037 238.171 152.739 237.272 154.199C236.373 155.666 235.104 156.795 233.458 157.586C231.813 158.376 229.913 158.772 227.751 158.772H221.457V171.991H217V139.393ZM227.751 154.92C229.078 154.92 230.2 154.684 231.112 154.206C232.024 153.728 232.706 153.058 233.159 152.178C233.612 151.304 233.835 150.271 233.835 149.079C233.835 147.886 233.612 146.853 233.159 145.98C232.706 145.106 232.024 144.43 231.112 143.952C230.2 143.474 229.078 143.238 227.751 143.238H221.457V154.92H227.751Z" fill="#68E085"/>
<path d="M262.001 171.991H258.06V167.374H257.697C256.804 169.051 255.701 170.314 254.381 171.168C253.061 172.023 251.556 172.45 249.866 172.45C248.33 172.45 247.003 172.106 245.894 171.417C244.784 170.728 243.936 169.74 243.349 168.439C242.763 167.138 242.469 165.595 242.469 163.797V149.06H246.633V163.299C246.633 166.979 248.31 168.821 251.658 168.821C252.94 168.821 254.049 168.566 254.974 168.063C255.905 167.559 256.613 166.832 257.104 165.875C257.595 164.925 257.837 163.79 257.837 162.477V149.053H262.001V171.984V171.991Z" fill="#68E085"/>
<path d="M275.099 171.219C273.913 170.403 272.855 169.121 271.917 167.368H271.554V171.984H267.613V138.028H271.777V153.396H272.14C273.014 151.751 274.034 150.539 275.195 149.761C276.355 148.983 277.739 148.594 279.34 148.594C281.253 148.594 282.968 149.098 284.479 150.099C285.991 151.1 287.17 152.51 288.025 154.321C288.879 156.132 289.307 158.198 289.307 160.525C289.307 162.853 288.879 164.893 288.025 166.704C287.17 168.515 285.991 169.925 284.479 170.926C282.968 171.927 281.265 172.431 279.365 172.431C277.707 172.431 276.285 172.023 275.099 171.206V171.219ZM281.865 167.801C282.853 167.119 283.593 166.162 284.084 164.912C284.575 163.669 284.817 162.209 284.817 160.532C284.817 158.855 284.575 157.375 284.09 156.138C283.606 154.901 282.866 153.944 281.871 153.262C280.876 152.58 279.646 152.242 278.179 152.242C276.712 152.242 275.488 152.58 274.5 153.262C273.511 153.938 272.772 154.901 272.281 156.138C271.79 157.375 271.547 158.842 271.547 160.532C271.547 162.221 271.79 163.669 272.281 164.912C272.772 166.156 273.511 167.119 274.5 167.801C275.488 168.477 276.712 168.821 278.179 168.821C279.646 168.821 280.87 168.483 281.859 167.801H281.865Z" fill="#68E085"/>
<path d="M299.331 141.765H298.967V171.984H294.51V139.386H302.978L312.237 169.606H312.601L321.879 139.386H330.347V171.984H325.89V141.765H325.526L316.242 171.984H308.59L299.331 141.765Z" fill="#68E085"/>
<path d="M340.869 170.939C339.179 169.937 337.872 168.528 336.941 166.73C336.01 164.925 335.551 162.853 335.551 160.519C335.551 158.185 336.01 156.132 336.935 154.327C337.853 152.522 339.147 151.119 340.818 150.118C342.489 149.117 344.415 148.613 346.602 148.613C348.789 148.613 350.651 149.111 352.283 150.099C353.916 151.088 355.172 152.471 356.065 154.244C356.958 156.017 357.398 158.051 357.398 160.347V161.82H340.059C340.168 163.267 340.48 164.517 341.009 165.569C341.539 166.621 342.278 167.431 343.241 168.005C344.204 168.579 345.358 168.866 346.717 168.866C348.075 168.866 349.229 168.579 350.179 168.005C351.129 167.431 351.863 166.609 352.373 165.537L356.811 165.92C356.301 167.265 355.555 168.426 354.579 169.408C353.603 170.39 352.449 171.143 351.104 171.672C349.758 172.201 348.298 172.463 346.71 172.463C344.504 172.463 342.559 171.959 340.869 170.958V170.939ZM352.979 158.478C352.749 156.501 352.111 154.965 351.053 153.861C349.994 152.758 348.528 152.21 346.64 152.21C344.752 152.21 343.216 152.758 342.112 153.861C341.009 154.965 340.346 156.501 340.123 158.478H352.979Z" fill="#68E085"/>
<path d="M366.134 170.938C364.623 169.937 363.443 168.528 362.588 166.717C361.734 164.906 361.307 162.846 361.307 160.538C361.307 158.23 361.734 156.144 362.588 154.333C363.443 152.522 364.623 151.113 366.134 150.112C367.645 149.111 369.354 148.607 371.274 148.607C372.874 148.607 374.251 148.996 375.418 149.774C376.579 150.552 377.599 151.763 378.473 153.409H378.836V138.041H383V171.997H379.06V167.38H378.696C377.759 169.134 376.7 170.416 375.514 171.232C374.328 172.048 372.906 172.456 371.248 172.456C369.348 172.456 367.639 171.952 366.134 170.951V170.938ZM376.107 167.801C377.096 167.119 377.835 166.162 378.326 164.912C378.817 163.669 379.06 162.209 379.06 160.532C379.06 158.854 378.811 157.375 378.326 156.138C377.835 154.901 377.096 153.944 376.107 153.262C375.119 152.58 373.894 152.242 372.428 152.242C370.961 152.242 369.737 152.58 368.736 153.262C367.741 153.938 367.001 154.901 366.516 156.138C366.032 157.375 365.79 158.842 365.79 160.532C365.79 162.221 366.032 163.669 366.523 164.912C367.014 166.156 367.754 167.119 368.742 167.801C369.73 168.477 370.955 168.821 372.421 168.821C373.888 168.821 375.112 168.483 376.101 167.801H376.107Z" fill="#68E085"/>
</svg>
