<svg width="600" height="200" viewBox="0 0 600 200" fill="none" xmlns="http://www.w3.org/2000/svg">
<path d="M166.558 174.149C165.278 174.149 164.268 173.929 163.918 173.159C163.698 172.699 159.198 163.269 157.868 159.309C156.558 155.359 153.768 146.709 153.738 146.619C153.698 146.489 150.008 134.399 149.118 131.769C148.228 129.169 144.718 120.099 141.868 115.419C139.068 110.819 141.248 106.879 142.788 105.439C143.228 105.029 144.218 104.199 145.358 103.229C146.988 101.849 148.838 100.289 149.568 99.5591C150.908 98.2191 157.278 90.6291 159.378 87.1691C160.528 85.2691 164.258 81.0291 165.378 79.7691C165.478 79.6591 165.638 79.5991 165.788 79.6191C165.938 79.6391 166.068 79.7391 166.128 79.8791L173.728 96.6591C173.778 96.7691 173.778 96.8991 173.728 97.0191C173.698 97.0891 171.008 103.699 172.888 106.479C174.748 109.239 177.548 112.519 180.358 112.519C183.168 112.519 184.768 110.379 185.498 109.099C185.818 108.529 186.598 106.409 187.428 104.169C188.748 100.569 190.248 96.4991 191.188 94.9991C192.778 92.4691 196.448 86.6291 201.488 83.3691C206.298 80.2491 212.718 77.8691 215.668 79.3491C217.198 80.1191 218.338 81.4291 218.718 82.8591C218.918 83.6291 218.868 84.3291 218.578 84.7691C217.998 85.6391 210.948 97.4491 210.198 98.9491C210.048 99.2491 209.658 99.9191 209.078 100.949C206.668 105.169 201.038 115.039 200.078 119.649C198.908 125.279 199.238 141.459 199.248 141.619C199.288 141.919 200.168 150.159 192.998 160.519C186.218 170.329 174.508 173.429 170.938 173.749C170.528 173.789 170.078 173.839 169.618 173.889C168.558 174.009 167.478 174.129 166.538 174.129M165.578 80.8891C164.138 82.5191 161.128 85.9991 160.138 87.6291C157.998 91.1391 151.548 98.8291 150.188 100.189C149.428 100.949 147.568 102.519 145.918 103.909C144.828 104.829 143.798 105.699 143.378 106.089C143.338 106.129 139.488 109.809 142.618 114.939C145.508 119.679 149.048 128.849 149.948 131.469C150.848 134.109 154.538 146.219 154.578 146.339C154.608 146.419 157.398 155.059 158.708 159.009C160.018 162.929 164.668 172.669 164.718 172.759C165.048 173.489 167.838 173.169 169.508 172.989C169.978 172.939 170.438 172.879 170.858 172.849C170.988 172.839 184.528 171.169 192.248 160.009C199.208 149.949 198.348 141.759 198.338 141.679C198.318 140.969 197.998 125.189 199.188 119.459C200.168 114.709 205.858 104.749 208.288 100.499C208.848 99.5191 209.248 98.8191 209.388 98.5391C210.138 97.0391 217.248 85.1391 217.828 84.2691C217.948 84.0991 217.998 83.6591 217.848 83.0991C217.528 81.9091 216.568 80.8191 215.268 80.1691C212.958 79.0191 207.248 80.7191 201.978 84.1391C197.108 87.2891 193.508 93.0191 191.978 95.4591C191.068 96.9091 189.528 101.109 188.288 104.489C187.378 106.969 186.658 108.929 186.298 109.559C185.468 111.009 183.608 113.429 180.368 113.429C177.128 113.429 174.128 109.929 172.148 106.999C170.178 104.069 172.378 98.0291 172.828 96.8691L165.588 80.8991L165.578 80.8891Z" fill="#00E47C"/>
<path d="M210.059 96.1691C209.439 96.1691 208.799 95.9691 208.129 95.5791C204.369 93.3691 206.139 89.5691 206.159 89.5291C206.239 89.3591 208.179 85.0191 209.739 82.7891C209.789 82.7091 209.869 82.6491 209.959 82.6191C214.629 80.9491 218.479 83.2391 218.639 83.3291C218.859 83.4591 218.919 83.7391 218.789 83.9491C218.659 84.1591 218.379 84.2291 218.169 84.0991C218.139 84.0791 214.599 81.9891 210.409 83.4191C208.909 85.6191 207.009 89.8591 206.989 89.8991C206.929 90.0291 205.569 93.0091 208.599 94.7891C209.319 95.2091 209.989 95.3491 210.589 95.1791C211.489 94.9291 211.979 94.0791 211.979 94.0691C212.099 93.8491 212.379 93.7691 212.599 93.8891C212.819 94.0091 212.899 94.2791 212.779 94.4991C212.749 94.5491 212.119 95.6891 210.829 96.0491C210.579 96.1191 210.319 96.1491 210.069 96.1491" fill="#00E47C"/>
<path d="M204.189 109.379C204.189 109.379 204.089 109.379 204.049 109.359C203.439 109.159 198.129 107.329 197.619 105.309C197.529 104.979 197.529 104.469 197.989 103.969C198.369 103.549 198.869 103.329 199.479 103.319C201.909 103.229 205.369 106.559 205.519 106.699C205.699 106.879 205.709 107.159 205.529 107.339C205.359 107.519 205.069 107.529 204.889 107.349C203.959 106.459 201.209 104.159 199.499 104.219C199.139 104.229 198.859 104.349 198.649 104.579C198.449 104.799 198.459 104.949 198.489 105.079C198.789 106.239 202.229 107.789 204.329 108.499C204.569 108.579 204.689 108.839 204.619 109.069C204.549 109.259 204.379 109.379 204.189 109.379Z" fill="#00E47C"/>
<path d="M199.128 124.259C198.888 124.259 198.688 124.079 198.678 123.839C198.658 123.589 198.848 123.369 199.098 123.359L257.378 119.519C258.068 119.479 258.688 119.109 259.058 118.519C259.428 117.929 259.498 117.219 259.248 116.569L224.548 28.4991C224.228 27.7191 223.568 27.1191 222.738 26.8791C221.928 26.6391 221.068 26.7691 220.368 27.2391C217.378 29.2491 208.278 35.3491 188.148 30.8691C177.788 28.5591 169.478 29.4191 163.458 33.4191C156.778 37.8691 154.618 45.0191 153.928 48.8791C153.718 50.0391 153.858 51.2191 154.328 52.2991L180.788 112.809C180.888 113.039 180.788 113.309 180.558 113.399C180.328 113.499 180.058 113.399 179.958 113.169L153.498 52.6591C152.948 51.4191 152.788 50.0491 153.038 48.7191C153.748 44.7091 155.998 37.2991 162.958 32.6591C169.188 28.5091 177.728 27.6091 188.348 29.9791C208.098 34.3791 216.958 28.4391 219.858 26.4791C220.778 25.8591 221.928 25.6891 222.998 26.0091C224.078 26.3291 224.948 27.1191 225.378 28.1591L260.078 116.229C260.438 117.149 260.338 118.159 259.818 118.989C259.288 119.829 258.418 120.339 257.428 120.399L199.148 124.239H199.118" fill="#00E47C"/>
<path d="M172.268 47.5491L177.428 58.8591C178.128 60.3891 179.918 61.0891 181.468 60.4391C184.898 59.0091 191.158 56.8691 198.018 56.8091C206.928 56.7291 220.978 55.0391 220.978 55.0391L214.188 41.1591C214.188 41.1591 204.738 43.5191 196.768 43.8091C190.508 44.0391 178.428 44.9991 173.528 45.4091C172.478 45.4991 171.838 46.5991 172.278 47.5491" fill="#00E47C"/>
<path d="M186.728 71.7291C186.618 71.7291 186.498 71.6891 186.408 71.5991C186.228 71.4291 186.228 71.1391 186.398 70.9591C186.548 70.8091 190.198 67.1291 201.588 66.6891C208.718 66.4091 222.218 63.4791 222.348 63.4491C222.588 63.3991 222.828 63.5491 222.888 63.7991C222.948 64.0491 222.788 64.2891 222.538 64.3391C222.408 64.3691 208.828 67.3191 201.618 67.5991C190.648 68.0291 187.078 71.5591 187.038 71.5991C186.948 71.6891 186.828 71.7391 186.718 71.7391" fill="#00E47C"/>
<path d="M190.269 82.9291C190.169 82.9291 190.059 82.8991 189.979 82.8191C189.789 82.6591 189.759 82.3691 189.929 82.1791C190.189 81.8691 196.509 74.5991 210.349 74.5991C216.739 74.5991 224.959 73.2091 225.039 73.1891C225.289 73.1491 225.519 73.3091 225.569 73.5591C225.609 73.8091 225.449 74.0391 225.199 74.0791C225.119 74.0891 216.829 75.4991 210.359 75.4991C203.359 75.4991 198.369 77.4691 195.409 79.1291C192.209 80.9291 190.639 82.7491 190.629 82.7591C190.539 82.8691 190.409 82.9191 190.289 82.9191" fill="#00E47C"/>
<path d="M300.292 66.535H310.102C312.032 66.535 313.732 66.845 315.192 67.475C316.652 68.105 317.782 68.995 318.572 70.165C319.362 71.335 319.762 72.705 319.762 74.285C319.762 77.375 318.202 79.355 315.072 80.235V80.585C316.332 80.735 317.442 81.105 318.382 81.695C319.322 82.285 320.062 83.085 320.592 84.095C321.122 85.105 321.392 86.275 321.392 87.625C321.392 89.295 320.992 90.755 320.192 92.005C319.392 93.255 318.262 94.215 316.812 94.895C315.362 95.575 313.662 95.905 311.732 95.905H300.292V66.545V66.535ZM310.102 79.215C311.272 79.215 312.252 79.025 313.062 78.655C313.862 78.285 314.462 77.745 314.862 77.055C315.262 76.365 315.462 75.535 315.462 74.585C315.462 73.635 315.262 72.815 314.862 72.125C314.462 71.435 313.862 70.905 313.062 70.535C312.262 70.165 311.272 69.975 310.102 69.975H304.312V79.215H310.102ZM311.732 92.445C312.902 92.445 313.882 92.245 314.692 91.855C315.492 91.455 316.092 90.895 316.492 90.165C316.892 89.435 317.092 88.565 317.092 87.555C317.092 86.545 316.892 85.675 316.492 84.945C316.092 84.215 315.492 83.645 314.692 83.245C313.892 82.845 312.902 82.645 311.732 82.645H304.312V92.455H311.732V92.445Z" fill="white"/>
<path d="M325.992 71.345C325.592 71.115 325.272 70.795 325.042 70.395C324.812 69.995 324.692 69.535 324.692 69.015C324.692 68.495 324.812 68.035 325.042 67.635C325.272 67.235 325.592 66.915 325.992 66.685C326.392 66.455 326.852 66.335 327.372 66.335C327.892 66.335 328.352 66.455 328.762 66.685C329.172 66.915 329.492 67.235 329.722 67.645C329.952 68.055 330.072 68.505 330.072 69.015C330.072 69.525 329.952 69.975 329.722 70.385C329.492 70.795 329.172 71.115 328.762 71.345C328.352 71.575 327.892 71.695 327.372 71.695C326.852 71.695 326.392 71.585 325.992 71.345ZM325.492 75.235H329.242V95.885H325.492V75.235Z" fill="white"/>
<path d="M341.122 95.195C340.052 94.465 339.102 93.305 338.262 91.725H337.932V95.885H334.382V65.305H338.132V79.145H338.462C339.252 77.665 340.172 76.575 341.212 75.875C342.262 75.175 343.502 74.825 344.942 74.825C346.672 74.825 348.212 75.275 349.572 76.185C350.932 77.085 351.992 78.355 352.762 79.985C353.532 81.615 353.912 83.475 353.912 85.575C353.912 87.675 353.532 89.505 352.762 91.145C351.992 92.775 350.932 94.045 349.572 94.945C348.212 95.845 346.672 96.305 344.962 96.305C343.462 96.305 342.182 95.935 341.122 95.205V95.195ZM347.222 92.115C348.112 91.505 348.782 90.635 349.222 89.515C349.662 88.395 349.882 87.075 349.882 85.575C349.882 84.075 349.662 82.735 349.232 81.625C348.792 80.515 348.132 79.645 347.232 79.035C346.332 78.425 345.232 78.115 343.912 78.115C342.592 78.115 341.492 78.415 340.602 79.035C339.712 79.645 339.042 80.515 338.602 81.625C338.162 82.735 337.942 84.055 337.942 85.575C337.942 87.095 338.162 88.395 338.602 89.515C339.042 90.635 339.712 91.505 340.602 92.115C341.492 92.725 342.592 93.035 343.912 93.035C345.232 93.035 346.332 92.725 347.222 92.115Z" fill="white"/>
<path d="M360.573 95.385C359.763 95.045 359.173 94.505 358.813 93.775C358.453 93.045 358.263 92.065 358.263 90.835V65.305H362.013V90.485C362.013 91.025 362.083 91.455 362.223 91.755C362.363 92.065 362.593 92.275 362.913 92.405C363.233 92.535 363.673 92.595 364.253 92.595H365.783V95.875H363.823C362.463 95.875 361.383 95.705 360.573 95.365V95.385Z" fill="white"/>
<path d="M369.682 71.345C369.282 71.115 368.962 70.795 368.732 70.395C368.502 69.995 368.382 69.535 368.382 69.015C368.382 68.495 368.502 68.035 368.732 67.635C368.962 67.235 369.282 66.915 369.682 66.685C370.082 66.455 370.542 66.335 371.062 66.335C371.582 66.335 372.042 66.455 372.452 66.685C372.862 66.915 373.182 67.235 373.412 67.645C373.642 68.055 373.762 68.505 373.762 69.015C373.762 69.525 373.642 69.975 373.412 70.385C373.182 70.795 372.862 71.115 372.452 71.345C372.042 71.575 371.582 71.695 371.062 71.695C370.542 71.695 370.082 71.585 369.682 71.345ZM369.182 75.235H372.932V95.885H369.182V75.235Z" fill="white"/>
<path d="M382.122 94.955C380.592 94.055 379.412 92.795 378.572 91.175C377.732 89.555 377.322 87.685 377.322 85.575C377.322 83.465 377.742 81.585 378.572 79.955C379.412 78.335 380.592 77.075 382.122 76.175C383.652 75.275 385.412 74.825 387.412 74.825C389.412 74.825 391.172 75.275 392.702 76.175C394.232 77.075 395.412 78.335 396.252 79.955C397.092 81.585 397.502 83.455 397.502 85.575C397.502 87.695 397.082 89.545 396.252 91.175C395.412 92.795 394.232 94.065 392.702 94.955C391.172 95.855 389.412 96.305 387.412 96.305C385.412 96.305 383.652 95.855 382.122 94.955ZM390.782 92.125C391.682 91.515 392.362 90.655 392.802 89.535C393.242 88.425 393.462 87.105 393.462 85.585C393.462 84.065 393.242 82.745 392.802 81.635C392.362 80.525 391.692 79.655 390.782 79.045C389.882 78.435 388.752 78.125 387.412 78.125C386.072 78.125 384.962 78.425 384.062 79.045C383.162 79.655 382.482 80.525 382.032 81.635C381.582 82.745 381.362 84.065 381.362 85.585C381.362 87.105 381.582 88.425 382.032 89.535C382.482 90.645 383.152 91.515 384.062 92.125C384.962 92.735 386.082 93.045 387.412 93.045C388.742 93.045 389.882 92.735 390.782 92.125Z" fill="white"/>
<path d="M405.572 95.295C404.692 94.905 404.072 94.295 403.702 93.475C403.332 92.655 403.152 91.565 403.152 90.205V78.505H399.522V75.245H403.152V70.255H406.902V75.245H412.692V78.505H406.902V90.065C406.902 90.705 406.962 91.205 407.092 91.565C407.222 91.925 407.472 92.195 407.832 92.355C408.202 92.525 408.732 92.615 409.422 92.615H412.682V95.895H409.172C407.632 95.895 406.432 95.695 405.552 95.305L405.572 95.295Z" fill="white"/>
<path d="M419.752 94.945C418.232 94.045 417.052 92.775 416.212 91.155C415.372 89.535 414.962 87.665 414.962 85.555C414.962 83.445 415.372 81.605 416.202 79.975C417.032 78.355 418.192 77.085 419.702 76.185C421.202 75.285 422.942 74.825 424.912 74.825C426.882 74.825 428.562 75.275 430.032 76.165C431.502 77.055 432.632 78.295 433.432 79.895C434.232 81.495 434.632 83.325 434.632 85.385V86.715H419.012C419.102 88.025 419.392 89.145 419.872 90.085C420.352 91.025 421.012 91.765 421.882 92.275C422.742 92.795 423.792 93.045 425.012 93.045C426.232 93.045 427.272 92.785 428.132 92.275C428.992 91.755 429.652 91.015 430.112 90.055L434.112 90.405C433.652 91.615 432.982 92.665 432.102 93.545C431.222 94.425 430.182 95.105 428.972 95.585C427.762 96.065 426.442 96.295 425.012 96.295C423.032 96.295 421.272 95.845 419.752 94.935V94.945ZM430.662 83.725C430.462 81.945 429.882 80.555 428.932 79.565C427.982 78.575 426.652 78.075 424.952 78.075C423.252 78.075 421.862 78.575 420.872 79.565C419.882 80.555 419.282 81.945 419.082 83.725H430.662Z" fill="white"/>
<path d="M443.023 94.945C441.503 94.045 440.333 92.775 439.493 91.155C438.653 89.535 438.243 87.655 438.243 85.535C438.243 83.415 438.663 81.565 439.493 79.945C440.333 78.325 441.503 77.075 443.023 76.175C444.543 75.275 446.293 74.825 448.273 74.825C449.783 74.825 451.163 75.095 452.413 75.635C453.663 76.175 454.733 76.955 455.613 77.985C456.493 79.015 457.143 80.235 457.553 81.645L453.703 82.315C453.313 80.935 452.653 79.885 451.733 79.175C450.813 78.465 449.653 78.115 448.233 78.115C446.913 78.115 445.813 78.415 444.923 79.025C444.033 79.625 443.363 80.485 442.923 81.605C442.483 82.715 442.263 84.035 442.263 85.545C442.263 87.055 442.483 88.385 442.923 89.495C443.363 90.605 444.033 91.475 444.923 92.085C445.813 92.695 446.913 93.005 448.233 93.005C451.073 93.005 452.893 91.545 453.693 88.625L457.543 89.295C457.133 90.765 456.493 92.025 455.613 93.075C454.733 94.125 453.673 94.935 452.423 95.485C451.173 96.035 449.783 96.315 448.263 96.315C446.283 96.315 444.533 95.865 443.013 94.955L443.023 94.945Z" fill="white"/>
<path d="M463.262 95.575C462.332 95.095 461.602 94.415 461.072 93.545C460.542 92.675 460.272 91.675 460.272 90.545C460.272 88.735 460.982 87.275 462.402 86.165C463.822 85.055 465.942 84.295 468.772 83.905L473.742 83.195C473.712 81.995 473.532 81.025 473.202 80.275C472.872 79.525 472.382 78.975 471.742 78.625C471.102 78.275 470.292 78.095 469.292 78.095C468.012 78.095 466.962 78.395 466.132 78.995C465.302 79.595 464.692 80.535 464.292 81.805L460.602 81.495C460.952 80.085 461.522 78.875 462.312 77.885C463.102 76.895 464.092 76.135 465.282 75.615C466.472 75.095 467.842 74.825 469.392 74.825C471.092 74.825 472.542 75.145 473.752 75.785C474.962 76.425 475.882 77.365 476.522 78.595C477.162 79.835 477.482 81.335 477.482 83.105V95.885H473.932V91.725H473.602C472.772 93.195 471.732 94.325 470.472 95.115C469.212 95.905 467.842 96.295 466.362 96.295C465.202 96.295 464.162 96.055 463.232 95.575H463.262ZM465.222 92.295C465.852 92.795 466.742 93.035 467.882 93.035C468.942 93.035 469.922 92.835 470.822 92.435C471.722 92.035 472.432 91.485 472.962 90.785C473.492 90.085 473.762 89.305 473.762 88.455V86.065L469.422 86.715C468.182 86.895 467.192 87.115 466.452 87.395C465.712 87.675 465.162 88.035 464.812 88.475C464.462 88.915 464.282 89.475 464.282 90.135C464.282 91.075 464.602 91.795 465.232 92.285L465.222 92.295Z" fill="white"/>
<path d="M342.982 114.105C344.102 113.325 345.442 112.935 346.992 112.935C348.312 112.935 349.442 113.215 350.382 113.795C351.322 114.375 352.052 115.215 352.552 116.355C353.052 117.495 353.302 118.875 353.302 120.505V134.265H347.432V121.375C347.432 120.115 347.132 119.145 346.522 118.485C345.912 117.815 345.052 117.485 343.922 117.485C342.672 117.485 341.702 117.895 341.012 118.695C340.322 119.505 339.982 120.645 339.982 122.135V134.265H334.112V121.375C334.112 120.115 333.812 119.145 333.202 118.485C332.592 117.815 331.732 117.485 330.602 117.485C329.352 117.485 328.382 117.895 327.692 118.695C327.002 119.505 326.662 120.645 326.662 122.135V134.265H320.792V113.345H326.462V117.725H326.792C327.632 116.105 328.612 114.905 329.722 114.115C330.832 113.325 332.142 112.935 333.672 112.935C335.202 112.935 336.552 113.345 337.582 114.155C338.612 114.965 339.312 116.155 339.682 117.725H340.012C340.872 116.095 341.862 114.885 342.982 114.105Z" fill="#00E47C"/>
<path d="M361.783 133.285C360.143 132.365 358.863 131.075 357.963 129.435C357.063 127.795 356.603 125.915 356.603 123.805C356.603 121.695 357.043 119.845 357.943 118.185C358.833 116.535 360.083 115.245 361.693 114.325C363.303 113.405 365.153 112.945 367.233 112.945C369.313 112.945 371.113 113.405 372.673 114.325C374.233 115.245 375.443 116.525 376.293 118.155C377.143 119.785 377.563 121.655 377.563 123.755V125.465H362.763C362.923 126.985 363.383 128.185 364.133 129.045C364.883 129.905 365.953 130.335 367.353 130.335C368.293 130.335 369.093 130.135 369.763 129.745C370.433 129.355 370.943 128.785 371.293 128.055L377.163 128.545C376.683 129.865 375.973 130.985 375.033 131.895C374.083 132.815 372.973 133.505 371.693 133.975C370.413 134.445 369.013 134.675 367.503 134.675C365.343 134.675 363.443 134.215 361.793 133.285H361.783ZM371.513 121.525C371.373 120.205 370.973 119.175 370.293 118.425C369.613 117.675 368.613 117.305 367.293 117.305C365.973 117.305 364.953 117.675 364.213 118.425C363.483 119.175 363.013 120.205 362.803 121.525H371.513ZM368.083 103.315H374.093L368.753 111.085H363.223L368.073 103.315H368.083Z" fill="#00E47C"/>
<path d="M384.492 133.275C383.222 132.345 382.232 131.055 381.512 129.415C380.802 127.775 380.442 125.915 380.442 123.845C380.442 121.775 380.792 119.895 381.502 118.235C382.212 116.575 383.202 115.275 384.472 114.345C385.742 113.405 387.182 112.935 388.802 112.935C390.252 112.935 391.512 113.315 392.582 114.085C393.652 114.855 394.502 115.975 395.142 117.455H395.472V103.675H401.342V134.255H395.672V129.895H395.342C394.552 131.495 393.632 132.695 392.572 133.485C391.512 134.275 390.262 134.665 388.822 134.665C387.202 134.665 385.762 134.195 384.492 133.265V133.275ZM394.582 128.435C395.312 127.305 395.672 125.765 395.672 123.805C395.672 121.845 395.312 120.305 394.582 119.175C393.852 118.045 392.712 117.485 391.142 117.485C389.572 117.485 388.432 118.055 387.692 119.175C386.962 120.305 386.592 121.845 386.592 123.805C386.592 125.765 386.962 127.305 387.692 128.435C388.422 129.565 389.572 130.125 391.142 130.125C392.712 130.125 393.852 129.565 394.582 128.435Z" fill="#00E47C"/>
<path d="M406.452 110.615C405.892 110.305 405.452 109.865 405.132 109.305C404.812 108.745 404.652 108.105 404.652 107.385C404.652 106.665 404.812 106.025 405.132 105.465C405.452 104.905 405.892 104.475 406.452 104.165C407.012 103.855 407.642 103.695 408.352 103.695C409.062 103.695 409.692 103.855 410.252 104.165C410.812 104.475 411.242 104.915 411.552 105.465C411.862 106.025 412.022 106.665 412.022 107.385C412.022 108.105 411.862 108.745 411.552 109.305C411.242 109.865 410.802 110.295 410.252 110.615C409.692 110.925 409.062 111.085 408.352 111.085C407.642 111.085 407.012 110.925 406.452 110.615ZM405.412 113.345H411.282V134.265H405.412V113.345Z" fill="#00E47C"/>
<path d="M419.852 133.285C418.232 132.365 416.982 131.075 416.092 129.435C415.202 127.795 414.752 125.915 414.752 123.805C414.752 121.695 415.192 119.825 416.092 118.175C416.982 116.535 418.232 115.245 419.852 114.325C421.472 113.405 423.342 112.945 425.462 112.945C427.022 112.945 428.472 113.215 429.792 113.765C431.122 114.315 432.252 115.135 433.192 116.215C434.132 117.295 434.822 118.605 435.262 120.145L429.492 121.025C429.192 119.895 428.682 119.025 427.962 118.415C427.242 117.805 426.342 117.495 425.252 117.495C423.732 117.495 422.612 118.055 421.902 119.175C421.192 120.295 420.832 121.845 420.832 123.815C420.832 125.785 421.192 127.285 421.902 128.355C422.612 129.425 423.732 129.955 425.252 129.955C426.342 129.955 427.232 129.645 427.942 129.035C428.652 128.425 429.162 127.545 429.472 126.385L435.282 127.285C434.842 128.885 434.152 130.245 433.202 131.355C432.252 132.465 431.112 133.295 429.802 133.855C428.482 134.415 427.032 134.695 425.462 134.695C423.342 134.695 421.472 134.235 419.852 133.305V133.285Z" fill="#00E47C"/>
<path d="M440.372 133.925C439.412 133.425 438.662 132.735 438.132 131.835C437.592 130.935 437.322 129.905 437.322 128.735C437.322 126.795 438.132 125.245 439.752 124.095C441.372 122.945 443.812 122.165 447.072 121.745L450.702 121.275C450.662 119.955 450.352 118.995 449.762 118.385C449.182 117.785 448.282 117.475 447.092 117.475C446.072 117.475 445.252 117.695 444.622 118.115C443.992 118.545 443.522 119.225 443.192 120.165L437.732 119.715C438.082 118.255 438.692 117.025 439.552 116.015C440.412 115.005 441.512 114.235 442.842 113.715C444.172 113.195 445.712 112.935 447.452 112.935C449.382 112.935 451.022 113.255 452.382 113.895C453.742 114.535 454.782 115.475 455.492 116.715C456.202 117.955 456.562 119.475 456.562 121.255V134.265H450.892V129.905H450.562C449.682 131.535 448.672 132.735 447.542 133.515C446.412 134.285 445.112 134.675 443.632 134.675C442.412 134.675 441.322 134.425 440.362 133.935L440.372 133.925ZM444.182 129.585C444.662 129.945 445.382 130.125 446.332 130.125C447.202 130.125 447.962 129.975 448.622 129.675C449.282 129.375 449.792 128.955 450.152 128.405C450.512 127.855 450.692 127.215 450.692 126.475V124.925L447.922 125.315C446.812 125.465 445.932 125.655 445.292 125.875C444.652 126.095 444.192 126.375 443.892 126.715C443.602 127.045 443.452 127.475 443.452 127.985C443.452 128.695 443.692 129.225 444.172 129.585H444.182Z" fill="#00E47C"/>
</svg>
