<svg width="600" height="200" viewBox="0 0 600 200" fill="none" xmlns="http://www.w3.org/2000/svg">
<mask id="mask0_28_14453" style="mask-type:luminance" maskUnits="userSpaceOnUse" x="114" y="20" width="161" height="161">
<path d="M275 20.3225H114.646V180.677H275V20.3225Z" fill="white"/>
</mask>
<g mask="url(#mask0_28_14453)">
<path d="M174.73 165.517C172.852 165.592 171.028 164.875 169.702 163.543C168.043 161.521 167.161 158.975 167.209 156.359L161.586 86.784C161.565 86.356 161.897 85.9976 162.325 85.9762C162.731 85.9602 163.079 86.2544 163.127 86.6609L168.765 156.316V156.359C168.728 158.573 169.455 160.735 170.825 162.473C171.857 163.495 173.27 164.041 174.719 163.976L213.866 163.019C214.284 162.997 214.642 163.318 214.669 163.736C214.669 163.746 214.669 163.762 214.669 163.773C214.685 164.201 214.353 164.559 213.925 164.575C213.925 164.575 213.92 164.575 213.915 164.575L174.741 165.538V165.528L174.73 165.517Z" fill="white"/>
<path d="M207.88 92.572H207.864C207.463 92.572 207.126 92.2617 207.105 91.8605L206.768 85.6445C206.741 85.2272 207.057 84.8688 207.474 84.842C207.49 84.842 207.506 84.842 207.527 84.842H207.538C207.939 84.842 208.266 85.1577 208.287 85.5535L208.624 91.7696C208.651 92.1868 208.335 92.5452 207.918 92.572C207.907 92.572 207.896 92.572 207.88 92.572Z" fill="white"/>
<path d="M210.79 92.5667C210.389 92.5667 210.052 92.2564 210.031 91.8552L209.699 85.7087C209.656 85.2968 209.956 84.9224 210.373 84.8796C210.785 84.8368 211.159 85.1363 211.202 85.5536C211.202 85.5803 211.202 85.6017 211.202 85.6285L211.534 91.7696C211.56 92.1869 211.245 92.5453 210.828 92.572C210.817 92.572 210.806 92.572 210.79 92.572" fill="white"/>
<path d="M226.85 97.563L235.633 98.2531L234.922 88.5385H234.959L232.6 56.1905L223.394 54.9708C223.089 51.2155 222.896 48.8725 222.87 48.4927C222.902 47.6474 223.025 38.8904 215.054 37.5317C207.394 36.221 166.604 30.4972 166.198 30.4383C162.951 30.0157 159.672 30.9091 157.093 32.9205C154.766 35.2582 153.632 38.532 154.023 41.8112C154.301 48.9046 162.443 156.417 162.673 159.317C162.512 162.452 163.545 165.528 165.551 167.935C167.455 169.812 170.06 170.802 172.729 170.663H173.083C183.172 170.428 219.799 169.031 221.131 168.983C224.196 169.133 227.203 168.09 229.519 166.084C231.311 164.131 232.14 161.478 231.782 158.846C231.402 153.77 229.048 124.636 226.855 97.579M226.967 93.7489C226.876 93.8505 226.748 93.9147 226.614 93.9254C226.518 93.9254 226.438 93.8451 226.438 93.7489C226.438 93.6526 226.518 93.5723 226.614 93.5723C226.727 93.5563 227.037 93.2514 227.005 92.0156C226.957 90.5018 226.454 90.4108 226.448 90.4108C226.352 90.4001 226.277 90.3092 226.288 90.2129C226.293 90.1219 226.374 90.0471 226.465 90.0471C226.55 90.0471 227.299 90.1273 227.358 91.9942C227.449 92.6041 227.304 93.23 226.957 93.7435M225.496 90.7906C225.416 90.7906 225.352 90.7157 225.352 90.6355C225.352 90.5553 225.421 90.4857 225.502 90.4911C225.534 90.4911 226.315 90.5178 226.358 91.914C226.416 92.3473 226.299 92.786 226.031 93.1337C225.93 93.2514 225.785 93.3209 225.63 93.3316C225.544 93.3316 225.48 93.2621 225.48 93.1818C225.48 93.0962 225.55 93.032 225.63 93.032C225.791 93.032 226.085 92.786 226.063 91.9247C226.031 90.8388 225.528 90.796 225.507 90.796M228.107 94.1073C228.021 94.2036 227.904 94.2624 227.78 94.2678C227.674 94.2624 227.593 94.1715 227.593 94.0698C227.599 93.9628 227.69 93.8826 227.791 93.8826C227.781 93.8826 228.203 93.7489 228.15 92.037C228.107 90.5552 227.732 90.154 227.593 90.1273C227.492 90.1166 227.417 90.031 227.417 89.9294C227.427 89.8224 227.513 89.7421 227.615 89.7475C227.759 89.7475 228.465 89.8919 228.529 92.0317C228.647 92.7539 228.497 93.4974 228.107 94.118M223.533 56.581L231.161 57.5813L233.296 86.8802L225.946 86.2811L224.384 86.1527L214.509 85.3395C213.401 83.2586 211.31 81.8838 208.961 81.6912C207.271 81.5789 205.612 82.178 204.387 83.3389C204.04 83.6652 203.729 84.0289 203.462 84.4301L176.902 82.2476L174.559 50.0868L221.96 56.367L223.528 56.5756L223.533 56.581ZM224.838 93.1925C224.849 93.5081 224.598 93.7703 224.287 93.7756C224.186 93.7756 224.089 93.7542 223.998 93.7061L221.971 92.2831C221.693 92.1333 221.591 91.791 221.741 91.5128C221.789 91.4219 221.859 91.3523 221.944 91.2988L223.897 90.0524C224.164 89.8866 224.512 89.9668 224.678 90.2343C224.731 90.3199 224.758 90.4215 224.763 90.5178L224.838 93.1925ZM214.979 89.4426C215.097 92.695 212.561 95.4286 209.309 95.5463C209.191 95.5463 209.068 95.5463 208.95 95.5463C205.447 95.2734 202.756 92.3259 202.809 88.8113C202.772 86.7839 203.74 84.8688 205.388 83.6973C205.42 83.6705 205.457 83.6438 205.495 83.617L205.527 83.5956C206.41 82.943 207.479 82.5953 208.576 82.5953C208.688 82.5953 208.795 82.5953 208.908 82.606C209.887 82.6702 210.833 82.9965 211.652 83.5421C213.717 84.7832 214.985 87.0193 214.985 89.4265M195.229 90.8923C195.235 91.0795 195.09 91.2346 194.903 91.24C194.726 91.2453 194.577 91.1116 194.555 90.9404L194.266 86.8C194.256 86.6127 194.395 86.4522 194.577 86.4415C194.764 86.4308 194.924 86.5699 194.935 86.7518L195.224 90.8976L195.229 90.8923ZM193.319 88.9558L191.313 90.0738C190.928 90.2717 190.233 90.3734 190.249 89.9347L190.088 87.1584C190.099 86.8427 190.367 86.5967 190.677 86.6127C190.778 86.6127 190.875 86.6448 190.96 86.6983L193.368 87.9715C193.635 88.1373 193.715 88.4904 193.544 88.7578C193.491 88.8434 193.416 88.913 193.33 88.9558M188.291 89.6886C188.302 90.0043 188.05 90.2664 187.74 90.2717C187.638 90.2717 187.542 90.2503 187.451 90.2022L185.418 88.7899C185.14 88.6401 185.039 88.2978 185.188 88.0196C185.236 87.9287 185.306 87.8591 185.392 87.8056L187.344 86.5592C187.612 86.3934 187.959 86.4736 188.125 86.7411C188.179 86.8267 188.205 86.9283 188.211 87.0246L188.291 89.6886ZM184.562 90.031C184.562 90.2182 184.413 90.368 184.225 90.368C184.06 90.368 183.915 90.2503 183.888 90.0845L183.551 85.944C183.573 85.7568 183.744 85.6284 183.926 85.6498C184.06 85.6659 184.172 85.7622 184.209 85.8959L184.552 90.0257L184.562 90.031ZM228.449 164.998C226.422 166.683 223.843 167.555 221.206 167.443H221.131C220.751 167.459 183.284 168.887 173.072 169.122C170.723 169.326 168.407 168.507 166.706 166.881C165 164.763 164.122 162.093 164.251 159.37V159.263C164.165 158.161 155.879 48.8885 155.601 41.7631C155.248 38.9493 156.189 36.1301 158.158 34.092C160.404 32.3962 163.224 31.6419 166.016 31.9896C166.417 32.0485 207.191 37.7724 214.83 39.0776C221.778 40.2652 221.372 48.1449 221.35 48.482V48.5943C221.361 48.7387 221.548 51.0015 221.853 54.7889L172.885 48.3161L175.463 83.6866L176.201 93.6312L225.309 97.4828C227.513 124.61 229.872 153.898 230.252 158.991C230.568 161.173 229.904 163.377 228.438 165.019" fill="white"/>
</g>
<path d="M315.015 81.9045H323.481L333.248 116.74H333.696L343.463 81.9045H351.638L340.061 120.135H326.577L315 81.9045H315.015Z" fill="#68E085"/>
<path d="M356.192 89.3379C355.467 88.9341 354.898 88.3657 354.48 87.6403C354.061 86.9149 353.859 86.0848 353.859 85.1425C353.859 84.2002 354.068 83.37 354.48 82.6446C354.898 81.9192 355.467 81.3508 356.192 80.947C356.918 80.5431 357.74 80.3337 358.66 80.3337C359.58 80.3337 360.403 80.5356 361.128 80.947C361.853 81.3508 362.422 81.9192 362.826 82.6446C363.23 83.37 363.439 84.2002 363.439 85.1425C363.439 86.0848 363.237 86.9149 362.826 87.6403C362.422 88.3657 361.853 88.9341 361.128 89.3379C360.403 89.7418 359.58 89.9512 358.66 89.9512C357.74 89.9512 356.918 89.7492 356.192 89.3379ZM354.839 92.8977H362.482V120.135H354.839V92.8977Z" fill="#68E085"/>
<path d="M372.212 118.849C370.559 117.637 369.265 115.962 368.338 113.816C367.41 111.677 366.947 109.261 366.947 106.569C366.947 103.877 367.41 101.424 368.33 99.2698C369.25 97.1085 370.536 95.4183 372.197 94.1993C373.849 92.9803 375.734 92.3671 377.836 92.3671C379.728 92.3671 381.373 92.8681 382.764 93.8703C384.155 94.8724 385.262 96.3382 386.099 98.2677H386.526V80.3191H394.169V120.142H386.787V114.459H386.361C385.337 116.545 384.133 118.108 382.749 119.133C381.365 120.157 379.743 120.673 377.865 120.673C375.757 120.673 373.879 120.068 372.227 118.856L372.212 118.849ZM385.352 112.544C386.301 111.078 386.772 109.067 386.772 106.517C386.772 103.966 386.301 101.962 385.352 100.489C384.402 99.023 382.914 98.2826 380.879 98.2826C378.845 98.2826 377.349 99.0155 376.392 100.489C375.435 101.955 374.956 103.966 374.956 106.517C374.956 109.067 375.435 111.071 376.392 112.544C377.349 114.01 378.845 114.75 380.879 114.75C382.914 114.75 384.409 114.018 385.352 112.544Z" fill="#68E085"/>
<path d="M405.357 118.864C403.218 117.66 401.557 115.985 400.376 113.846C399.202 111.707 398.611 109.261 398.611 106.517C398.611 103.772 399.187 101.356 400.353 99.2026C401.513 97.0488 403.143 95.3736 405.237 94.1695C407.331 92.9655 409.739 92.3672 412.446 92.3672C415.153 92.3672 417.502 92.9655 419.536 94.162C421.57 95.3586 423.141 97.0188 424.247 99.1502C425.354 101.282 425.908 103.712 425.908 106.434V108.663H406.635C406.845 110.645 407.443 112.2 408.415 113.322C409.387 114.444 410.786 115.005 412.611 115.005C413.83 115.005 414.877 114.751 415.744 114.235C416.612 113.718 417.277 112.986 417.734 112.028L425.377 112.664C424.756 114.377 423.836 115.835 422.602 117.031C421.368 118.228 419.917 119.125 418.25 119.739C416.574 120.352 414.757 120.651 412.79 120.651C409.978 120.651 407.495 120.053 405.357 118.849V118.864ZM418.018 103.548C417.838 101.835 417.307 100.489 416.425 99.5092C415.542 98.537 414.241 98.0509 412.521 98.0509C410.801 98.0509 409.47 98.537 408.512 99.5092C407.555 100.481 406.949 101.828 406.68 103.548H418.018Z" fill="#68E085"/>
<path d="M436.377 118.901C434.246 117.727 432.578 116.059 431.389 113.913C430.193 111.759 429.594 109.299 429.594 106.517C429.594 103.735 430.193 101.274 431.389 99.1353C432.586 96.9964 434.246 95.3287 436.377 94.1471C438.509 92.958 440.947 92.3672 443.691 92.3672C446.436 92.3672 448.874 92.958 451.005 94.1471C453.137 95.3362 454.797 96.9964 455.986 99.1353C457.175 101.274 457.766 103.735 457.766 106.517C457.766 109.299 457.175 111.782 455.986 113.92C454.797 116.059 453.144 117.72 451.02 118.901C448.896 120.075 446.451 120.666 443.691 120.666C440.932 120.666 438.509 120.075 436.377 118.901ZM448.268 112.544C449.248 111.079 449.742 109.067 449.742 106.517C449.742 103.966 449.248 101.962 448.268 100.489C447.289 99.0156 445.763 98.2827 443.691 98.2827C441.62 98.2827 440.087 99.0156 439.099 100.489C438.105 101.955 437.611 103.966 437.611 106.517C437.611 109.067 438.105 111.094 439.099 112.559C440.094 114.018 441.62 114.751 443.691 114.751C445.763 114.751 447.289 114.018 448.268 112.544Z" fill="#68E085"/>
<path d="M465.282 118.707C463.211 117.398 461.693 115.409 460.713 112.731L467.698 111.378C468.124 112.597 468.805 113.509 469.74 114.115C470.674 114.713 471.893 115.02 473.374 115.02C474.227 115.02 474.975 114.93 475.618 114.743C476.261 114.556 476.769 114.279 477.128 113.92C477.487 113.561 477.674 113.128 477.674 112.634C477.674 112.066 477.427 111.594 476.934 111.198C476.44 110.809 475.812 110.495 475.049 110.256C474.286 110.016 473.232 109.74 471.893 109.418C469.717 108.887 467.922 108.349 466.516 107.81C465.11 107.272 463.899 106.442 462.882 105.312C461.865 104.191 461.356 102.695 461.356 100.84C461.356 99.1426 461.827 97.6469 462.762 96.3681C463.697 95.0818 465.043 94.0946 466.785 93.4066C468.528 92.7185 470.585 92.3745 472.955 92.3745C476.014 92.3745 478.557 92.9952 480.576 94.2442C482.595 95.4931 484.083 97.3328 485.033 99.7783L478.235 101.289C477.794 100.227 477.091 99.4193 476.141 98.8734C475.184 98.3275 473.987 98.0507 472.559 98.0507C471.34 98.0507 470.398 98.2302 469.732 98.5967C469.066 98.9631 468.737 99.4792 468.737 100.152C468.737 100.721 468.984 101.184 469.478 101.558C469.971 101.932 470.6 102.224 471.347 102.448C472.103 102.673 473.157 102.927 474.518 103.233C476.747 103.749 478.587 104.265 480.03 104.804C481.473 105.335 482.722 106.172 483.777 107.324C484.831 108.476 485.355 110.016 485.355 111.946C485.355 113.771 484.846 115.341 483.829 116.657C482.812 117.974 481.391 118.976 479.566 119.656C477.742 120.337 475.625 120.681 473.225 120.681C470.001 120.681 467.354 120.023 465.29 118.714L465.282 118.707Z" fill="#68E085"/>
</svg>
