<svg width="601" height="200" viewBox="0 0 601 200" fill="none" xmlns="http://www.w3.org/2000/svg">
<mask id="mask0_61_7274" style="mask-type:luminance" maskUnits="userSpaceOnUse" x="11" y="9" width="183" height="182">
<path d="M193.62 9H11.6201V191H193.62V9Z" fill="white"/>
</mask>
<g mask="url(#mask0_61_7274)">
<path d="M62.8763 50.8753L74.1572 59.3694L75.2925 57.8697L63.7627 49.1935C63.9934 48.5196 64.1149 47.8092 64.1149 47.0928C64.2727 44.0266 61.9352 41.4098 58.8691 41.2216C55.809 41.4098 53.4654 44.0266 53.6233 47.0928C53.4654 50.1589 55.8029 52.7757 58.8691 52.9639C60.4598 52.9396 61.9413 52.1685 62.8702 50.8753M55.4994 47.0928C55.3415 45.0649 56.8412 43.2859 58.8691 43.0977C60.897 43.2859 62.3966 45.0649 62.2388 47.0928C62.3906 49.1206 60.8909 50.8935 58.8691 51.0878C56.8412 50.8996 55.3415 49.1206 55.4994 47.0928Z" fill="#F1F1F1"/>
<path d="M156.311 134.031L156.262 133.867C154.702 128.633 152.844 123.497 150.695 118.476C148.351 113.351 145.613 108.415 142.504 103.71L132.772 88.203C129.596 84.3112 126.069 80.7229 122.237 77.4807L118.898 31.6832C118.765 29.8314 117.332 28.3439 115.486 28.1435L44.6313 20.4084C43.1073 20.2384 41.7412 21.3373 41.5712 22.8613C41.553 23.0313 41.5469 23.2013 41.5591 23.3652L49.3124 129.672C49.4338 131.372 50.8303 132.695 52.5303 132.732L95.8263 133.709C97.3017 135.069 98.9107 136.271 100.629 137.31C102.942 141.159 105.013 145.148 106.84 149.252C108.449 152.683 110.119 156.228 112.074 159.568C120.616 174.285 138.886 179.622 149.074 179.622C161.144 179.622 163.676 177.825 163.676 176.331C163.87 168.092 161.399 150.922 156.305 134.019M122.407 80.0368C125.619 82.8054 128.576 85.8594 131.242 89.1563L140.974 104.663C144.028 109.289 146.718 114.147 149.025 119.186C149.656 120.631 150.276 122.155 150.889 123.734C145.504 115.731 137.665 109.69 128.552 106.527C127.289 105.987 125.959 105.634 124.593 105.483H124.101C123.822 105.483 123.525 105.501 123.221 105.525C122.905 104.614 122.553 103.521 122.207 102.459C122.116 102.18 122.025 101.9 121.934 101.621C121.4 99.9818 120.853 98.2878 120.416 97.0735C119.718 94.8574 118.783 92.7142 117.629 90.6984C115.128 87.0312 111.952 83.874 108.267 81.3968C106.112 79.8183 104.065 78.0939 102.141 76.2361C101.406 75.5014 99.0442 72.9453 99.275 70.972C99.4025 70.1706 99.9125 69.4845 100.641 69.1263C101.868 68.3734 104.6 68.8652 108.352 70.4924C111.169 71.7431 113.877 73.2428 116.433 74.9671C117.265 75.5439 118.728 76.7582 120.428 78.2518C121.066 78.8104 121.734 79.4054 122.414 80.0308M112.062 108.943C109.566 110.018 107.144 111.257 104.818 112.659C103.78 110.224 103.124 107.644 102.888 105.015C102.572 102.277 103.422 99.5325 105.225 97.4439L105.261 97.4075C105.686 96.9764 106.148 96.5817 106.646 96.2296C107.89 95.3128 109.39 94.8088 110.932 94.7846C111.272 94.7846 111.618 94.8149 111.958 94.8635C112.377 94.9242 112.79 95.0213 113.197 95.1549L113.367 95.2096C112.553 96.1324 111.91 97.1889 111.473 98.3425C111.339 98.6764 111.23 99.0103 111.133 99.3564C110.386 102.568 110.714 105.938 112.068 108.943M119.803 126.727C119.736 127.492 119.457 128.227 118.995 128.846C118.303 129.726 117.174 130.139 116.081 129.914C114.502 128.664 113.264 127.024 112.499 125.16C112.201 124.401 112.45 123.545 113.106 123.06C113.944 122.519 115.025 122.519 115.862 123.06C117.35 124.08 118.68 125.312 119.803 126.721M116.038 121.147C116.324 121.074 116.615 120.995 116.901 120.922L117.016 120.892L117.344 120.801C117.629 121.305 117.927 121.779 118.188 122.179C118.382 122.483 118.576 122.78 118.758 123.078C118.139 122.556 117.514 122.082 116.937 121.645C116.664 121.439 116.36 121.275 116.038 121.153M115.48 131.651L115.535 131.663C115.577 131.875 115.583 132.088 115.559 132.3C115.492 132.774 115.292 133.217 114.994 133.588C114.836 133.782 114.654 133.964 114.46 134.122C114.083 134.438 113.652 134.687 113.191 134.851C112.699 134.626 112.201 134.347 111.716 134.061C110.799 133.551 109.967 132.908 109.244 132.155C108.929 131.827 108.698 131.426 108.589 130.983C108.516 130.497 108.71 130.012 109.093 129.708C109.433 129.41 109.882 129.259 110.337 129.289C110.999 129.301 111.649 129.471 112.238 129.781C113.118 130.704 114.247 131.353 115.486 131.651M109.997 136.326C110.009 136.557 109.961 136.787 109.858 137C109.627 137.528 109.208 137.947 108.68 138.178C107.872 138.056 107.125 137.692 106.537 137.133C106.026 136.769 105.705 136.192 105.662 135.567C105.705 135.403 105.978 135.257 106.397 135.166C107.095 135.124 107.799 135.227 108.455 135.47C108.947 135.792 109.463 136.077 109.997 136.32M110.647 125.094C109.973 124.165 109.354 123.205 108.783 122.21C109.639 122.204 110.495 122.143 111.345 122.034L111.57 122.003C110.768 122.817 110.416 123.97 110.635 125.094M109.839 127.006L110.216 127.48C109.311 127.468 108.437 127.814 107.787 128.451C106.992 129.174 106.628 130.248 106.81 131.305C106.864 131.578 106.949 131.845 107.065 132.094H106.852L106.767 132.033C104.351 130.285 102.056 128.372 99.9125 126.302C96.9253 123.424 91.3698 118.069 91.8434 112.732C91.9284 109.538 94.011 106.745 97.0407 105.744C98.3339 105.294 99.7 105.051 101.072 105.033V105.143C101.339 108.069 102.074 110.935 103.246 113.624C102.286 114.238 101.479 114.784 100.726 115.325C100.477 115.501 100.331 115.798 100.35 116.102C100.38 116.618 100.483 117.128 100.659 117.607L100.684 117.668C100.696 117.705 100.708 117.741 100.726 117.777C100.769 117.881 100.811 117.984 100.878 118.117C101.679 119.684 103.027 120.898 104.666 121.53C105.292 121.772 105.948 121.942 106.609 122.046C107.532 123.794 108.607 125.452 109.833 127.006M103.95 118.057C103.294 118.069 102.687 117.698 102.396 117.11L102.371 117.031C102.305 116.855 102.256 116.672 102.22 116.49C104.588 114.827 107.083 113.339 109.669 112.04C109.93 112.404 110.149 112.793 110.325 113.206C110.55 113.703 110.574 114.268 110.392 114.784C110.009 115.44 109.433 115.962 108.74 116.272C108.03 116.678 107.302 117.049 106.555 117.383C105.753 117.796 104.861 118.026 103.956 118.045M105.498 93.2485C105.146 91.3966 106.36 89.6116 108.212 89.2595C110.064 88.9073 111.849 90.1216 112.201 91.9734C112.268 92.3377 112.28 92.7142 112.226 93.0845C109.93 92.7445 107.599 93.3213 105.717 94.6753C105.565 94.2199 105.492 93.7403 105.492 93.2545M108.862 87.3834C107.623 87.3955 106.433 87.8691 105.529 88.7252L96.2028 78.1061C97.0771 76.8978 97.7753 75.5742 98.2792 74.1717C98.9775 75.3982 99.8396 76.5275 100.847 77.5171C102.827 79.4357 104.94 81.2086 107.162 82.8358C110.665 85.1855 113.689 88.1787 116.075 91.6516C116.876 93.0117 117.544 94.4445 118.066 95.9381C117.247 95.2824 116.366 94.6996 115.443 94.1956C115.401 94.1653 115.352 94.141 115.298 94.1228C114.903 93.9163 114.502 93.7342 114.089 93.5763C114.089 93.467 114.108 93.3517 114.108 93.2485C114.266 90.1823 111.928 87.5594 108.862 87.3773M93.762 78.1304C91.7038 80.4922 88.7348 81.8644 85.6019 81.9069C83.9747 81.9069 82.3779 81.5243 80.9268 80.7897L79.925 80.0125L79.8157 80.1522C75.9178 77.4321 73.641 72.9392 73.7503 68.1852C73.7503 60.6079 79.0689 54.4696 85.608 54.4696C92.147 54.4696 97.4656 60.614 97.4656 68.1852C97.496 71.5549 96.3849 74.8335 94.3145 77.4929L93.6892 78.0393L93.7681 78.1304H93.762ZM115.067 96.0049C116.579 96.9582 117.987 98.0693 119.275 99.3139C119.572 100.225 119.9 101.214 120.216 102.186C120.616 103.43 121.035 104.718 121.406 105.798C121.096 105.871 120.805 105.944 120.544 106.011C118.224 106.618 115.947 107.365 113.719 108.245C110.799 100.893 113.907 97.0978 115.061 96.0049M51.0306 127.953L43.4716 24.2395C43.3987 23.2499 44.1455 22.3877 45.1352 22.3149C45.2445 22.3088 45.3538 22.3149 45.463 22.3149L114.199 29.8253C115.777 29.9953 117.004 31.2764 117.119 32.855L120.246 75.7139C119.032 74.6757 118.042 73.8742 117.465 73.4735C117.338 73.3824 104.436 64.6698 99.7 67.5781C99.5725 67.657 99.451 67.742 99.3357 67.827C99.3053 66.3638 99.0928 64.9127 98.7042 63.5041L106.591 60.4683C107.526 61.6765 108.953 62.393 110.477 62.4112C113.537 62.223 115.881 59.6061 115.723 56.54C116.057 53.6439 113.974 51.0271 111.078 50.6992C108.182 50.3653 105.565 52.4478 105.237 55.3439C105.195 55.7447 105.195 56.1454 105.237 56.54C105.237 57.3172 105.377 58.0883 105.65 58.8169L98.1032 61.719C96.5974 57.73 93.4099 54.6093 89.3905 53.1946L92.3474 45.7206C92.657 45.7874 92.9727 45.8177 93.2945 45.8177C96.3546 45.6295 98.6982 43.0127 98.5403 39.9466C98.8682 37.0504 96.7796 34.4397 93.8835 34.1118C90.9873 33.784 88.3766 35.8726 88.0487 38.7687C88.0062 39.1573 88.0062 39.558 88.0487 39.9466C88.0183 41.9502 88.9777 43.8384 90.623 44.9859L87.6055 52.63L88.2491 52.885C87.3869 52.6907 86.5065 52.5935 85.6201 52.5935C78.0489 52.5935 71.8863 59.5879 71.8863 68.1852C71.8863 68.7984 71.9227 69.4117 71.9835 70.0188L67.1141 71.7067C66.4098 69.6181 64.4791 68.1852 62.2751 68.1184C59.0329 68.5252 56.7318 71.476 57.1386 74.7182C57.4725 77.4018 59.5915 79.5207 62.2751 79.8547C65.3351 79.6665 67.6788 77.0496 67.5209 73.9835C67.5209 73.8378 67.5209 73.6921 67.5027 73.5524L72.281 71.8949C73.0763 75.8414 75.3714 79.3265 78.6743 81.6276L69.3909 93.5642C68.8991 93.3395 68.3709 93.2242 67.8366 93.2242C65.1105 93.6006 63.2101 96.1142 63.5805 98.8403C63.884 101.05 65.6205 102.787 67.8366 103.096C70.3806 102.908 72.2931 100.71 72.1352 98.1664C72.1474 96.8974 71.7042 95.6649 70.8845 94.6935L80.3257 82.5747C81.9772 83.3701 83.7865 83.783 85.6201 83.783C89.2084 83.7404 92.6145 82.2044 95.0188 79.545L104.399 90.2188C103.458 91.9856 103.398 94.0863 104.229 95.9078C104.15 95.9867 104.065 96.0656 104.005 96.1324C102.22 98.0692 101.194 100.583 101.115 103.218C99.1414 103.242 97.1924 103.685 95.3953 104.505C92.2745 105.999 90.2345 109.095 90.0948 112.556C90.0038 113.637 90.0948 114.73 90.362 115.78C89.2387 116.484 88.4555 117.62 88.1944 118.919C87.2534 123.485 92.2866 129.775 93.2945 130.995C93.5192 131.262 93.7438 131.523 93.9745 131.784L54.1393 130.874C52.5121 130.843 51.1763 129.58 51.0549 127.959M107.125 56.5522C106.828 54.6943 108.091 52.9396 109.955 52.6421C111.813 52.3446 113.567 53.6075 113.865 55.4714C113.919 55.8297 113.919 56.194 113.865 56.5522C114.162 58.4101 112.899 60.1647 111.036 60.4622C109.178 60.7597 107.423 59.4969 107.125 57.6329C107.071 57.2747 107.071 56.9104 107.125 56.5522ZM89.943 39.9648C89.6455 38.1069 90.9084 36.3522 92.7724 36.0547C94.6303 35.7572 96.3849 37.0201 96.6824 38.884C96.7371 39.2423 96.7371 39.6065 96.6824 39.9648C96.9799 41.8227 95.7171 43.5773 93.8531 43.8748C91.9952 44.1723 90.2405 42.9095 89.943 41.0455C89.8884 40.6873 89.8884 40.323 89.943 39.9648ZM65.663 74.0017C65.8209 76.0296 64.3212 77.8086 62.2933 77.9968C60.0893 77.6143 58.6079 75.5196 58.9904 73.3096C59.2818 71.6217 60.6054 70.2981 62.2933 70.0067C64.3212 70.1949 65.8209 71.9738 65.663 74.0017ZM98.686 133.746C97.9332 133.151 97.2107 132.519 96.5246 131.845C95.8688 131.208 95.2495 130.54 94.6606 129.842C92.6145 127.389 89.2995 122.404 89.943 119.283C90.0705 118.615 90.4227 118.014 90.9388 117.577C92.8331 121.396 95.4742 124.796 98.6921 127.589C100.319 129.149 102.019 130.631 103.798 132.015C104.436 132.513 105.079 132.999 105.729 133.466C105.407 133.557 105.098 133.697 104.818 133.885C104.393 134.164 104.078 134.589 103.938 135.081C103.78 135.828 103.926 136.605 104.345 137.237C102.323 136.302 100.422 135.13 98.68 133.746M161.885 176.082C161.551 176.386 159.432 177.807 149.074 177.807C139.305 177.807 121.794 172.706 113.616 158.645C111.716 155.366 110.058 151.851 108.461 148.457C106.98 145.3 105.45 142.045 103.683 138.912C103.968 139.046 104.248 139.167 104.521 139.283C105.893 139.975 107.447 140.2 108.959 139.938L109.074 139.914C110.155 139.55 111.029 138.755 111.491 137.71C111.624 137.419 111.709 137.115 111.758 136.799C112.517 136.854 113.276 136.739 113.98 136.466L114.168 136.387C115.043 136.01 115.814 135.427 116.403 134.674C116.53 134.511 116.646 134.334 116.755 134.152C117.095 133.594 117.301 132.962 117.356 132.313C117.374 132.106 117.374 131.906 117.356 131.699C118.564 131.542 119.657 130.91 120.398 129.945C121.139 128.979 121.564 127.808 121.612 126.593V126.526C121.667 125.47 121.46 124.42 121.023 123.46C120.635 122.671 120.191 121.912 119.7 121.184L119.572 120.989C121.126 122.319 122.559 123.788 123.852 125.373C124.32 125.925 124.763 126.466 125.121 126.964C125.413 127.346 125.68 127.741 125.911 128.16L126.056 130.133C125.619 131.578 125.267 132.981 124.994 134.347C123.464 140.546 123.907 147.066 126.263 153.004C126.415 153.314 126.724 153.508 127.07 153.502C127.568 153.502 127.969 153.102 127.969 152.604C127.969 152.464 127.939 152.324 127.872 152.203C127.441 151.341 123.798 143.375 127.89 130.285C128.224 128.688 127.726 127.03 126.566 125.877C126.378 125.622 126.063 125.227 125.668 124.741C125.115 124.061 124.399 123.236 123.64 122.41C122.523 121.044 121.181 119.878 119.669 118.967C118.631 118.676 117.526 118.731 116.518 119.131L116.403 119.168C114.666 119.654 112.899 120.012 111.114 120.23C109.184 120.57 107.198 120.437 105.334 119.842L105.11 119.751C105.856 119.593 106.585 119.35 107.277 119.022C108.085 118.664 108.868 118.263 109.633 117.826C110.671 117.328 111.521 116.496 112.043 115.47C112.408 114.523 112.389 113.479 111.995 112.55C111.813 112.088 111.576 111.651 111.297 111.244C112.068 110.886 112.796 110.564 113.494 110.279L113.646 110.224C116.032 109.247 118.485 108.433 120.981 107.778C121.485 107.644 122.007 107.517 122.529 107.425C123.136 107.31 123.755 107.262 124.375 107.286H124.441C125.625 107.432 126.785 107.741 127.884 108.215C140.956 113.127 148.928 120.989 154.538 134.492C158.242 146.757 162.048 165.451 161.854 176.107" fill="#F1F1F1"/>
</g>
<path d="M253.073 92.3047C250.389 90.6126 248.312 88.2359 246.835 85.1747C245.358 82.1135 244.62 78.6062 244.62 74.6374C244.62 70.6686 245.358 67.1536 246.835 64.1001C248.312 61.0389 250.389 58.6699 253.073 56.9701C255.757 55.278 258.865 54.4319 262.395 54.4319C265.11 54.4319 267.587 54.9396 269.833 55.9472C272.079 56.9547 273.994 58.4238 275.571 60.339C277.147 62.2618 278.309 64.5462 279.055 67.2075L273.486 68.192C272.671 65.2077 271.333 62.9618 269.487 61.4466C267.641 59.939 265.279 59.1776 262.403 59.1776C259.818 59.1776 257.626 59.8083 255.819 61.0774C254.011 62.3465 252.658 64.1309 251.75 66.446C250.843 68.7611 250.389 71.4916 250.389 74.6374C250.389 77.7832 250.843 80.5137 251.75 82.8288C252.658 85.144 254.019 86.9284 255.819 88.1975C257.619 89.4665 259.811 90.0972 262.403 90.0972C268.156 90.0972 271.856 86.9668 273.517 80.706L279.086 81.6905C278.339 84.4363 277.178 86.7976 275.601 88.7743C274.025 90.751 272.109 92.2585 269.856 93.2969C267.602 94.3352 265.11 94.8506 262.403 94.8506C258.872 94.8506 255.765 94.0045 253.081 92.3124L253.073 92.3047Z" fill="white"/>
<path d="M287.039 93.8737C285.793 93.2277 284.816 92.3201 284.1 91.1587C283.393 89.9973 283.039 88.6589 283.039 87.1437C283.039 84.7209 283.993 82.7673 285.893 81.2751C287.792 79.783 290.638 78.7754 294.422 78.2447L301.083 77.291C301.045 75.6911 300.806 74.3836 300.36 73.3837C299.914 72.3838 299.26 71.6454 298.407 71.1686C297.553 70.6917 296.461 70.4609 295.13 70.4609C293.423 70.4609 292.007 70.8609 290.9 71.6608C289.792 72.4607 288.969 73.7144 288.438 75.4296L283.493 75.022C283.97 73.1299 284.731 71.5224 285.785 70.1917C286.839 68.8611 288.162 67.8458 289.761 67.1459C291.354 66.446 293.192 66.0922 295.261 66.0922C297.537 66.0922 299.483 66.5229 301.106 67.3767C302.729 68.2304 303.968 69.4918 304.821 71.1455C305.675 72.7992 306.106 74.8143 306.106 77.1756V94.2968H301.352V88.7282H300.914C299.806 90.6972 298.407 92.2047 296.722 93.2584C295.038 94.3122 293.207 94.8429 291.223 94.8429C289.677 94.8429 288.277 94.5198 287.031 93.8737H287.039ZM289.661 89.4742C290.507 90.1357 291.692 90.4741 293.223 90.4741C294.645 90.4741 295.953 90.2049 297.153 89.6665C298.353 89.1281 299.306 88.3897 300.022 87.4514C300.729 86.513 301.083 85.4747 301.083 84.3286V81.1367L295.268 82.0135C293.615 82.252 292.284 82.5519 291.292 82.9288C290.3 83.3057 289.569 83.7825 289.092 84.3748C288.615 84.967 288.385 85.7054 288.385 86.5976C288.385 87.8513 288.808 88.8128 289.654 89.4819L289.661 89.4742Z" fill="white"/>
<path d="M315.005 92.8662C313.028 91.5432 311.567 89.5511 310.621 86.8745L315.566 85.9746C316.166 87.5052 317.066 88.6436 318.266 89.3896C319.466 90.1357 320.989 90.5126 322.827 90.5126C324.011 90.5126 325.042 90.3588 325.927 90.0588C326.811 89.7588 327.488 89.3281 327.957 88.7589C328.426 88.1975 328.665 87.5283 328.665 86.7669C328.665 85.9131 328.365 85.2132 327.765 84.6748C327.165 84.1364 326.419 83.721 325.527 83.4211C324.634 83.1211 323.388 82.7827 321.789 82.3981C319.658 81.8905 317.928 81.3751 316.589 80.8521C315.251 80.3368 314.105 79.5292 313.151 78.4524C312.197 77.3756 311.72 75.9296 311.72 74.1221C311.72 72.5223 312.151 71.1147 313.02 69.8995C313.882 68.6919 315.105 67.7536 316.681 67.0844C318.258 66.4229 320.081 66.0845 322.158 66.0845C325.034 66.0845 327.442 66.7306 329.395 68.0228C331.341 69.3149 332.764 71.184 333.657 73.6221L328.988 74.522C328.442 73.1606 327.588 72.13 326.434 71.4532C325.281 70.7686 323.811 70.4302 322.027 70.4302C320.373 70.4302 319.081 70.7225 318.151 71.307C317.22 71.8916 316.758 72.7146 316.758 73.7914C316.758 74.6297 317.058 75.3143 317.658 75.8373C318.258 76.368 319.012 76.7756 319.912 77.0833C320.812 77.3833 322.058 77.7063 323.642 78.0524C325.827 78.5447 327.596 79.0446 328.949 79.5523C330.303 80.0599 331.472 80.8598 332.441 81.952C333.418 83.0442 333.903 84.5209 333.903 86.3746C333.903 88.0821 333.441 89.5819 332.511 90.8664C331.58 92.1509 330.265 93.1354 328.565 93.8122C326.865 94.4968 324.873 94.8352 322.596 94.8352C319.52 94.8352 316.997 94.1737 315.02 92.8585L315.005 92.8662Z" fill="white"/>
<path d="M344.463 93.0431C342.417 91.8432 340.833 90.1511 339.71 87.9821C338.587 85.8131 338.033 83.3057 338.033 80.4829C338.033 77.6602 338.595 75.1374 339.71 72.9607C340.825 70.784 342.41 69.0996 344.463 67.8997C346.509 66.6998 348.87 66.0999 351.547 66.0999C354.224 66.0999 356.585 66.6998 358.631 67.8997C360.677 69.0996 362.261 70.7917 363.384 72.9607C364.507 75.1297 365.061 77.6448 365.061 80.4829C365.061 83.3211 364.5 85.8054 363.384 87.9821C362.269 90.1588 360.685 91.8432 358.631 93.0431C356.585 94.243 354.224 94.8429 351.547 94.8429C348.87 94.8429 346.509 94.243 344.463 93.0431ZM356.07 89.2512C357.277 88.4282 358.185 87.2745 358.769 85.7824C359.362 84.2902 359.654 82.5212 359.654 80.4829C359.654 78.4447 359.354 76.6757 358.769 75.1835C358.177 73.6914 357.277 72.5377 356.07 71.7147C354.862 70.8917 353.355 70.484 351.547 70.484C349.74 70.484 348.263 70.8917 347.055 71.7147C345.848 72.53 344.94 73.6914 344.34 75.1835C343.74 76.6757 343.44 78.4447 343.44 80.4829C343.44 82.5212 343.74 84.2902 344.34 85.7824C344.94 87.2745 345.848 88.4282 347.055 89.2512C348.263 90.0665 349.763 90.4818 351.547 90.4818C353.332 90.4818 354.854 90.0742 356.07 89.2512Z" fill="white"/>
<path d="M373.267 92.8662C371.291 91.5432 369.829 89.5511 368.883 86.8745L373.829 85.9746C374.429 87.5052 375.329 88.6436 376.529 89.3896C377.728 90.1357 379.251 90.5126 381.09 90.5126C382.274 90.5126 383.305 90.3588 384.189 90.0588C385.074 89.7588 385.751 89.3281 386.22 88.7589C386.689 88.1975 386.927 87.5283 386.927 86.7669C386.927 85.9131 386.628 85.2132 386.028 84.6748C385.428 84.1364 384.682 83.721 383.789 83.4211C382.897 83.1211 381.651 82.7827 380.051 82.3981C377.921 81.8905 376.19 81.3751 374.852 80.8521C373.514 80.3368 372.368 79.5292 371.414 78.4524C370.46 77.3756 369.983 75.9296 369.983 74.1221C369.983 72.5223 370.414 71.1147 371.283 69.8995C372.144 68.6919 373.367 67.7536 374.944 67.0844C376.521 66.4229 378.344 66.0845 380.42 66.0845C383.297 66.0845 385.705 66.7306 387.658 68.0228C389.604 69.3149 391.027 71.184 391.919 73.6221L387.251 74.522C386.704 73.1606 385.851 72.13 384.697 71.4532C383.543 70.7686 382.074 70.4302 380.29 70.4302C378.636 70.4302 377.344 70.7225 376.413 71.307C375.483 71.8916 375.021 72.7146 375.021 73.7914C375.021 74.6297 375.321 75.3143 375.921 75.8373C376.521 76.368 377.275 76.7756 378.175 77.0833C379.075 77.3833 380.32 77.7063 381.905 78.0524C384.089 78.5447 385.858 79.0446 387.212 79.5523C388.566 80.0599 389.735 80.8598 390.704 81.952C391.681 83.0442 392.165 84.5209 392.165 86.3746C392.165 88.0821 391.704 89.5819 390.773 90.8664C389.843 92.1509 388.527 93.1354 386.827 93.8122C385.128 94.4968 383.136 94.8352 380.859 94.8352C377.782 94.8352 375.26 94.1737 373.283 92.8585L373.267 92.8662Z" fill="white"/>
<path d="M414.171 93.0277C412.14 91.8201 410.564 90.1203 409.448 87.9513C408.333 85.7823 407.771 83.2672 407.771 80.4291C407.771 77.5909 408.333 75.1143 409.448 72.9453C410.564 70.7763 412.14 69.0919 414.171 67.892C416.201 66.6921 418.547 66.0922 421.201 66.0922C423.224 66.0922 425.07 66.4537 426.746 67.169C428.423 67.892 429.846 68.938 431.03 70.3071C432.215 71.6839 433.076 73.3145 433.622 75.2066L428.462 76.1065C427.931 74.2528 427.054 72.8453 425.823 71.8992C424.593 70.9532 423.031 70.4763 421.139 70.4763C419.37 70.4763 417.893 70.884 416.701 71.6916C415.509 72.4992 414.617 73.6529 414.025 75.145C413.432 76.6372 413.14 78.3908 413.14 80.4137C413.14 82.4365 413.432 84.221 414.025 85.7131C414.617 87.2053 415.509 88.359 416.701 89.182C417.893 90.0049 419.37 90.4126 421.139 90.4126C424.947 90.4126 427.385 88.459 428.454 84.544L433.615 85.4439C433.069 87.4129 432.207 89.0973 431.038 90.5049C429.861 91.9124 428.438 92.9892 426.762 93.7276C425.085 94.466 423.231 94.8352 421.193 94.8352C418.532 94.8352 416.194 94.2276 414.163 93.02L414.171 93.0277Z" fill="white"/>
<path d="M441.937 93.6199C440.852 93.1661 440.068 92.4431 439.575 91.4663C439.083 90.4818 438.837 89.1743 438.837 87.536V53.3474H443.859V87.0668C443.859 87.7975 443.952 88.3667 444.144 88.7743C444.336 89.182 444.644 89.4742 445.075 89.6511C445.505 89.8281 446.098 89.9127 446.867 89.9127H448.913V94.3122H446.29C444.467 94.3122 443.021 94.0814 441.937 93.6276V93.6199Z" fill="white"/>
<path d="M457.681 52.8475H463.089L456.835 61.885H452.082L457.681 52.8475ZM453.366 66.6383H458.389V94.2968H453.366V66.6383Z" fill="white"/>
<path d="M465.157 66.6383H469.911V72.2069H470.349C471.403 70.1841 472.726 68.6612 474.325 67.6305C475.918 66.5998 477.733 66.0845 479.771 66.0845C481.625 66.0845 483.232 66.4998 484.578 67.3305C485.924 68.1612 486.955 69.3534 487.662 70.9224C488.37 72.4915 488.724 74.3528 488.724 76.5218V94.2968H483.701V77.1218C483.701 72.6838 481.671 70.4609 477.61 70.4609C476.064 70.4609 474.733 70.7686 473.626 71.3762C472.518 71.9839 471.664 72.8684 471.072 74.0221C470.48 75.1758 470.187 76.5449 470.187 78.1293V94.2968H465.165V66.6383H465.157Z" fill="white"/>
<path d="M495.838 61.4235C495.3 61.1158 494.877 60.6928 494.569 60.1544C494.262 59.616 494.108 59.0007 494.108 58.3085C494.108 57.6162 494.262 57.0009 494.569 56.4625C494.877 55.9241 495.3 55.5011 495.838 55.1934C496.377 54.8857 496.992 54.7319 497.684 54.7319C498.377 54.7319 498.992 54.8857 499.538 55.1934C500.084 55.5011 500.515 55.9318 500.823 56.4779C501.13 57.024 501.284 57.6316 501.284 58.3085C501.284 58.9853 501.13 59.5929 500.823 60.139C500.515 60.6851 500.084 61.1158 499.538 61.4235C498.992 61.7311 498.377 61.885 497.684 61.885C496.992 61.885 496.377 61.7311 495.838 61.4235ZM495.169 66.6383H500.192V94.2968H495.169V66.6383Z" fill="white"/>
<path d="M512.352 93.0277C510.322 91.8201 508.745 90.1203 507.63 87.9513C506.515 85.7823 505.953 83.2672 505.953 80.4291C505.953 77.5909 506.515 75.1143 507.63 72.9453C508.745 70.7763 510.322 69.0919 512.352 67.892C514.383 66.6921 516.729 66.0922 519.382 66.0922C521.405 66.0922 523.251 66.4537 524.928 67.169C526.605 67.892 528.028 68.938 529.212 70.3071C530.397 71.6839 531.258 73.3145 531.804 75.2066L526.643 76.1065C526.112 74.2528 525.236 72.8453 524.005 71.8992C522.774 70.9532 521.213 70.4763 519.321 70.4763C517.552 70.4763 516.075 70.884 514.883 71.6916C513.691 72.4992 512.799 73.6529 512.206 75.145C511.614 76.6372 511.322 78.3908 511.322 80.4137C511.322 82.4365 511.614 84.221 512.206 85.7131C512.799 87.2053 513.691 88.359 514.883 89.182C516.075 90.0049 517.552 90.4126 519.321 90.4126C523.128 90.4126 525.566 88.459 526.635 84.544L531.796 85.4439C531.25 87.4129 530.389 89.0973 529.22 90.5049C528.043 91.9124 526.62 92.9892 524.943 93.7276C523.267 94.466 521.413 94.8352 519.375 94.8352C516.713 94.8352 514.375 94.2276 512.345 93.02L512.352 93.0277Z" fill="white"/>
<path d="M542.441 93.0431C540.395 91.8432 538.811 90.1511 537.688 87.9821C536.565 85.8131 536.011 83.3057 536.011 80.4829C536.011 77.6602 536.573 75.1374 537.688 72.9607C538.803 70.784 540.388 69.0996 542.441 67.8997C544.487 66.6998 546.849 66.0999 549.525 66.0999C552.202 66.0999 554.563 66.6998 556.609 67.8997C558.655 69.0996 560.239 70.7917 561.362 72.9607C562.485 75.1297 563.039 77.6448 563.039 80.4829C563.039 83.3211 562.478 85.8054 561.362 87.9821C560.247 90.1588 558.663 91.8432 556.609 93.0431C554.563 94.243 552.202 94.8429 549.525 94.8429C546.849 94.8429 544.487 94.243 542.441 93.0431ZM554.048 89.2512C555.255 88.4282 556.163 87.2745 556.747 85.7824C557.34 84.2902 557.632 82.5212 557.632 80.4829C557.632 78.4447 557.332 76.6757 556.747 75.1835C556.155 73.6914 555.255 72.5377 554.048 71.7147C552.84 70.8917 551.333 70.484 549.525 70.484C547.718 70.484 546.241 70.8917 545.033 71.7147C543.826 72.53 542.918 73.6914 542.318 75.1835C541.718 76.6757 541.418 78.4447 541.418 80.4829C541.418 82.5212 541.718 84.2902 542.318 85.7824C542.918 87.2745 543.826 88.4282 545.033 89.2512C546.241 90.0665 547.741 90.4818 549.525 90.4818C551.31 90.4818 552.832 90.0742 554.048 89.2512Z" fill="white"/>
<path d="M571.245 92.8662C569.269 91.5432 567.807 89.5511 566.861 86.8745L571.807 85.9746C572.407 87.5052 573.307 88.6436 574.507 89.3896C575.707 90.1357 577.229 90.5126 579.068 90.5126C580.252 90.5126 581.283 90.3588 582.167 90.0588C583.052 89.7588 583.729 89.3281 584.198 88.7589C584.667 88.1975 584.905 87.5283 584.905 86.7669C584.905 85.9131 584.606 85.2132 584.006 84.6748C583.406 84.1364 582.66 83.721 581.767 83.4211C580.875 83.1211 579.629 82.7827 578.029 82.3981C575.899 81.8905 574.168 81.3751 572.83 80.8521C571.492 80.3368 570.346 79.5292 569.392 78.4524C568.438 77.3756 567.961 75.9296 567.961 74.1221C567.961 72.5223 568.392 71.1147 569.261 69.8995C570.123 68.6919 571.345 67.7536 572.922 67.0844C574.499 66.4229 576.322 66.0845 578.399 66.0845C581.275 66.0845 583.683 66.7306 585.636 68.0228C587.582 69.3149 589.005 71.184 589.897 73.6221L585.229 74.522C584.682 73.1606 583.829 72.13 582.675 71.4532C581.521 70.7686 580.052 70.4302 578.268 70.4302C576.614 70.4302 575.322 70.7225 574.391 71.307C573.461 71.8916 572.999 72.7146 572.999 73.7914C572.999 74.6297 573.299 75.3143 573.899 75.8373C574.499 76.368 575.253 76.7756 576.153 77.0833C577.053 77.3833 578.299 77.7063 579.883 78.0524C582.067 78.5447 583.836 79.0446 585.19 79.5523C586.544 80.0599 587.713 80.8598 588.682 81.952C589.659 83.0442 590.143 84.5209 590.143 86.3746C590.143 88.0821 589.682 89.5819 588.751 90.8664C587.821 92.1509 586.505 93.1354 584.805 93.8122C583.106 94.4968 581.114 94.8352 578.837 94.8352C575.76 94.8352 573.238 94.1737 571.261 92.8585L571.245 92.8662Z" fill="white"/>
<path d="M270.271 114.925C269.525 114.51 268.941 113.925 268.51 113.179C268.079 112.433 267.872 111.579 267.872 110.61C267.872 109.641 268.087 108.787 268.51 108.041C268.941 107.295 269.525 106.711 270.271 106.295C271.017 105.88 271.863 105.665 272.809 105.665C273.756 105.665 274.602 105.872 275.348 106.295C276.094 106.711 276.678 107.295 277.094 108.041C277.509 108.787 277.724 109.641 277.724 110.61C277.724 111.579 277.517 112.433 277.094 113.179C276.678 113.925 276.094 114.51 275.348 114.925C274.602 115.341 273.756 115.556 272.809 115.556C271.863 115.556 271.017 115.348 270.271 114.925ZM268.879 118.586H276.74V146.599H268.879V118.586Z" fill="#68E085"/>
<path d="M282.154 118.586H289.746V124.455H290.184C292.476 120.179 295.591 118.04 299.522 118.04C301.321 118.04 302.89 118.456 304.229 119.294C305.567 120.132 306.598 121.332 307.313 122.901C308.028 124.47 308.39 126.324 308.39 128.47V146.599H300.529V129.478C300.529 127.77 300.098 126.447 299.245 125.516C298.391 124.586 297.16 124.124 295.561 124.124C294.399 124.124 293.399 124.363 292.569 124.847C291.738 125.332 291.107 126.032 290.669 126.962C290.23 127.893 290.015 129.016 290.015 130.347V146.591H282.154V118.579V118.586Z" fill="#68E085"/>
<path d="M319.242 145.66C317.85 145.03 316.82 144.076 316.158 142.791C315.497 141.507 315.158 139.853 315.158 137.838V124.57H310.574V118.594H315.158V111.303H323.019V118.594H330.011V124.57H323.019V136.938C323.019 137.846 323.111 138.546 323.304 139.038C323.496 139.53 323.819 139.884 324.273 140.092C324.727 140.299 325.38 140.407 326.242 140.407H330.011V146.606H324.634C322.434 146.606 320.635 146.291 319.242 145.668V145.66Z" fill="#68E085"/>
<path d="M339.133 145.291C336.933 144.053 335.225 142.33 334.01 140.13C332.802 137.93 332.195 135.415 332.195 132.593C332.195 129.77 332.787 127.285 333.987 125.07C335.179 122.855 336.856 121.132 339.009 119.894C341.163 118.656 343.64 118.04 346.424 118.04C349.208 118.04 351.623 118.656 353.716 119.886C355.808 121.117 357.423 122.824 358.561 125.017C359.699 127.209 360.269 129.708 360.269 132.508V134.8H340.448C340.663 136.838 341.278 138.438 342.278 139.592C343.278 140.746 344.717 141.322 346.593 141.322C347.847 141.322 348.924 141.061 349.816 140.53C350.708 139.999 351.393 139.246 351.862 138.261L359.723 138.915C359.084 140.684 358.138 142.176 356.869 143.407C355.6 144.637 354.108 145.56 352.393 146.191C350.67 146.822 348.801 147.129 346.778 147.129C343.886 147.129 341.332 146.514 339.133 145.276V145.291ZM352.154 129.539C351.97 127.778 351.423 126.393 350.516 125.386C349.608 124.386 348.27 123.886 346.501 123.886C344.732 123.886 343.363 124.386 342.378 125.386C341.394 126.386 340.771 127.77 340.494 129.539H352.154Z" fill="#68E085"/>
<path d="M364.884 118.586H372.475V125.44H372.914C373.644 123.547 374.375 122.063 375.113 120.986C375.852 119.909 376.636 119.156 377.475 118.709C378.313 118.263 379.275 118.04 380.367 118.04C380.751 118.04 381.12 118.063 381.474 118.11C381.828 118.156 382.128 118.225 382.359 118.317V126.401C381.32 126.124 380.159 125.993 378.867 125.993C376.813 125.993 375.275 126.409 374.267 127.239C373.26 128.07 372.752 129.308 372.752 130.97V146.614H364.891V118.602L364.884 118.586Z" fill="#68E085"/>
<path d="M387.889 146.153C386.604 145.491 385.605 144.553 384.882 143.353C384.159 142.153 383.805 140.769 383.805 139.2C383.805 136.6 384.889 134.523 387.05 132.985C389.219 131.447 392.481 130.393 396.849 129.831L401.71 129.201C401.657 127.432 401.234 126.147 400.457 125.34C399.672 124.532 398.48 124.124 396.88 124.124C395.511 124.124 394.411 124.409 393.573 124.986C392.734 125.563 392.096 126.478 391.665 127.732L384.351 127.132C384.828 125.186 385.635 123.532 386.797 122.178C387.95 120.825 389.419 119.794 391.204 119.094C392.988 118.394 395.042 118.04 397.372 118.04C399.957 118.04 402.157 118.471 403.979 119.325C405.802 120.179 407.187 121.44 408.14 123.109C409.094 124.778 409.571 126.801 409.571 129.185V146.606H401.98V140.761H401.541C400.357 142.945 399.011 144.553 397.503 145.591C395.996 146.63 394.242 147.145 392.258 147.145C390.619 147.145 389.158 146.814 387.873 146.145L387.889 146.153ZM392.996 140.338C393.642 140.822 394.604 141.061 395.88 141.061C397.042 141.061 398.072 140.861 398.949 140.461C399.834 140.061 400.518 139.492 400.995 138.753C401.48 138.015 401.718 137.154 401.718 136.177V134.1L398.003 134.615C396.511 134.815 395.334 135.069 394.48 135.369C393.627 135.669 393.004 136.046 392.611 136.492C392.219 136.938 392.027 137.507 392.027 138.2C392.027 139.146 392.35 139.861 392.996 140.346V140.338Z" fill="#68E085"/>
<path d="M420.724 145.291C418.555 144.053 416.878 142.33 415.686 140.13C414.494 137.93 413.894 135.415 413.894 132.593C413.894 129.77 414.486 127.262 415.686 125.055C416.878 122.855 418.555 121.132 420.724 119.894C422.893 118.656 425.393 118.04 428.231 118.04C430.323 118.04 432.261 118.41 434.03 119.148C435.807 119.886 437.322 120.978 438.591 122.424C439.853 123.87 440.783 125.624 441.36 127.678L433.63 128.855C433.23 127.347 432.546 126.178 431.584 125.363C430.623 124.547 429.408 124.132 427.954 124.132C425.916 124.132 424.416 124.886 423.462 126.386C422.508 127.885 422.032 129.962 422.032 132.6C422.032 135.238 422.508 137.246 423.462 138.677C424.416 140.107 425.916 140.822 427.954 140.822C429.408 140.822 430.615 140.415 431.561 139.592C432.507 138.769 433.192 137.592 433.607 136.038L441.391 137.238C440.806 139.384 439.883 141.199 438.607 142.684C437.33 144.168 435.815 145.284 434.046 146.03C432.277 146.776 430.338 147.153 428.231 147.153C425.393 147.153 422.885 146.537 420.724 145.299V145.291Z" fill="#68E085"/>
<path d="M452.113 145.66C450.72 145.03 449.69 144.076 449.028 142.791C448.367 141.507 448.028 139.853 448.028 137.838V124.57H443.444V118.594H448.028V111.303H455.889V118.594H462.881V124.57H455.889V136.938C455.889 137.846 455.981 138.546 456.174 139.038C456.366 139.53 456.689 139.884 457.143 140.092C457.597 140.299 458.25 140.407 459.112 140.407H462.881V146.606H457.504C455.305 146.606 453.505 146.291 452.113 145.668V145.66Z" fill="#68E085"/>
<path d="M468.365 114.925C467.619 114.51 467.034 113.925 466.603 113.179C466.173 112.433 465.965 111.579 465.965 110.61C465.965 109.641 466.18 108.787 466.603 108.041C467.034 107.295 467.619 106.711 468.365 106.295C469.111 105.88 469.957 105.665 470.903 105.665C471.849 105.665 472.695 105.872 473.441 106.295C474.187 106.711 474.772 107.295 475.187 108.041C475.602 108.787 475.818 109.641 475.818 110.61C475.818 111.579 475.61 112.433 475.187 113.179C474.772 113.925 474.187 114.51 473.441 114.925C472.695 115.341 471.849 115.556 470.903 115.556C469.957 115.556 469.111 115.348 468.365 114.925ZM466.972 118.586H474.833V146.599H466.972V118.586Z" fill="#68E085"/>
<path d="M478.118 118.586H486.117L492.862 143.245H493.324L500.069 118.586H507.768L499.192 146.599H486.686L478.11 118.586H478.118Z" fill="#68E085"/>
<path d="M515.836 145.33C513.644 144.122 511.929 142.407 510.706 140.199C509.476 137.984 508.86 135.454 508.86 132.593C508.86 129.731 509.476 127.209 510.706 125.001C511.937 122.801 513.644 121.086 515.836 119.871C518.029 118.656 520.536 118.04 523.359 118.04C526.182 118.04 528.689 118.648 530.881 119.871C533.073 121.094 534.781 122.801 536.003 125.001C537.226 127.201 537.834 129.731 537.834 132.593C537.834 135.454 537.226 138.007 536.003 140.215C534.781 142.415 533.081 144.122 530.896 145.337C528.712 146.545 526.197 147.153 523.359 147.153C520.521 147.153 518.029 146.545 515.836 145.337V145.33ZM528.066 138.792C529.074 137.284 529.581 135.215 529.581 132.593C529.581 129.97 529.074 127.908 528.066 126.393C527.058 124.886 525.489 124.124 523.359 124.124C521.228 124.124 519.651 124.878 518.636 126.393C517.613 127.901 517.106 129.97 517.106 132.593C517.106 135.215 517.613 137.3 518.636 138.807C519.659 140.307 521.228 141.061 523.359 141.061C525.489 141.061 527.058 140.307 528.066 138.792Z" fill="#68E085"/>
<path d="M545.556 145.13C543.425 143.784 541.864 141.738 540.856 138.984L548.04 137.592C548.479 138.846 549.179 139.784 550.14 140.407C551.101 141.022 552.355 141.338 553.878 141.338C554.755 141.338 555.524 141.245 556.186 141.053C556.847 140.861 557.37 140.576 557.739 140.207C558.108 139.838 558.301 139.392 558.301 138.884C558.301 138.3 558.047 137.807 557.539 137.407C557.032 137.007 556.386 136.684 555.601 136.438C554.816 136.192 553.732 135.908 552.355 135.577C550.117 135.031 548.271 134.477 546.825 133.923C545.379 133.369 544.133 132.516 543.087 131.354C542.041 130.201 541.518 128.662 541.518 126.755C541.518 125.009 542.002 123.47 542.964 122.155C543.925 120.832 545.31 119.817 547.102 119.109C548.894 118.402 551.009 118.048 553.447 118.048C556.593 118.048 559.208 118.686 561.285 119.971C563.362 121.255 564.892 123.155 565.869 125.663L558.878 127.216C558.424 126.124 557.701 125.293 556.724 124.732C555.739 124.17 554.509 123.886 553.04 123.886C551.786 123.886 550.817 124.07 550.132 124.447C549.448 124.824 549.109 125.355 549.109 126.047C549.109 126.632 549.363 127.109 549.871 127.493C550.378 127.878 551.025 128.178 551.794 128.408C552.571 128.639 553.655 128.908 555.055 129.216C557.347 129.747 559.239 130.277 560.724 130.824C562.208 131.37 563.492 132.231 564.577 133.416C565.661 134.6 566.2 136.184 566.2 138.169C566.2 140.046 565.677 141.661 564.631 143.014C563.585 144.368 562.123 145.399 560.247 146.099C558.37 146.799 556.193 147.152 553.724 147.152C550.409 147.152 547.686 146.476 545.564 145.13H545.556Z" fill="#68E085"/>
</svg>
