<svg width="600" height="200" viewBox="0 0 600 200" fill="none" xmlns="http://www.w3.org/2000/svg">
<path d="M201.265 90.245L147.995 84.065C144.515 84.145 141.635 81.385 141.555 77.895L141.095 56.745C141.015 53.265 143.785 50.375 147.265 50.305L200.535 56.475C204.015 56.405 206.895 59.165 206.975 62.645L207.435 83.795C207.515 87.275 204.745 90.155 201.265 90.235" fill="white"/>
<path d="M160.285 139.885L107.015 133.705C103.535 133.785 100.655 131.025 100.575 127.535L100.115 106.385C100.035 102.905 102.805 100.015 106.285 99.945L159.555 106.115C163.035 106.045 165.915 108.805 165.995 112.285L166.455 133.435C166.535 136.915 163.765 139.795 160.285 139.875V139.885Z" stroke="white" stroke-width="1.14" stroke-miterlimit="10"/>
<path d="M242.245 149.695L188.975 143.515C185.495 143.595 182.615 140.835 182.535 137.345L182.075 116.195C181.995 112.715 184.765 109.825 188.245 109.755L241.515 115.925C244.995 115.855 247.875 118.615 247.955 122.095L248.415 143.245C248.495 146.725 245.725 149.605 242.245 149.685V149.695Z" stroke="white" stroke-width="1.14" stroke-miterlimit="10"/>
<path d="M173.025 86.205L173.125 90.795C173.205 94.325 170.095 97.085 166.595 96.575L144.255 93.355C140.755 92.845 137.645 95.605 137.725 99.135L137.805 102.695" stroke="white" stroke-width="1.14" stroke-miterlimit="10"/>
<path d="M172.895 86.335L173.025 92.245C173.095 95.375 175.415 98.005 178.525 98.445L214.265 103.585C217.025 103.985 219.105 106.325 219.165 109.115L219.245 113.035" stroke="white" stroke-width="1.14" stroke-miterlimit="10"/>
<path d="M297.297 81.66H307.657L316.547 111.02H310.047L308.007 103.72H296.737L294.697 111.02H288.417L297.307 81.66H297.297ZM306.577 98.66L302.537 84.27H302.187L298.147 98.66H306.567H306.577Z" fill="#00E47C"/>
<path d="M321.636 110.36C320.736 109.93 320.076 109.26 319.656 108.37C319.236 107.48 319.026 106.33 319.026 104.91V80.42H324.896V104.32C324.896 104.88 324.956 105.3 325.066 105.59C325.176 105.88 325.386 106.09 325.666 106.2C325.946 106.31 326.356 106.37 326.886 106.37H328.396V111H325.136C323.696 111 322.526 110.78 321.626 110.35L321.636 110.36Z" fill="#00E47C"/>
<path d="M336.036 118.88C334.696 118.41 333.536 117.72 332.556 116.8C331.576 115.88 330.846 114.76 330.356 113.45L336.226 112.96C336.606 113.7 337.166 114.26 337.896 114.65C338.626 115.05 339.516 115.24 340.546 115.24C341.996 115.24 343.066 114.84 343.756 114.05C344.446 113.26 344.786 112.16 344.786 110.76V106.95H344.456C343.816 108.42 342.966 109.54 341.896 110.3C340.826 111.07 339.566 111.45 338.116 111.45C336.496 111.45 335.056 110.98 333.786 110.04C332.516 109.1 331.526 107.8 330.816 106.15C330.106 104.49 329.756 102.62 329.756 100.52C329.756 98.42 330.116 96.6 330.826 94.95C331.536 93.31 332.536 92.02 333.806 91.09C335.076 90.16 336.516 89.69 338.136 89.69C339.576 89.69 340.826 90.09 341.886 90.88C342.946 91.68 343.866 92.88 344.656 94.48H344.986V90.1H350.656V110.57C350.656 112.42 350.256 114.02 349.466 115.37C348.676 116.72 347.506 117.76 345.966 118.49C344.426 119.22 342.576 119.58 340.396 119.58C338.816 119.58 337.366 119.35 336.026 118.88H336.036ZM343.906 105.21C344.636 104.08 344.996 102.53 344.996 100.56C344.996 98.59 344.636 97.06 343.906 95.93C343.176 94.8 342.036 94.24 340.466 94.24C338.896 94.24 337.756 94.81 337.016 95.93C336.286 97.06 335.916 98.6 335.916 100.56C335.916 102.52 336.286 104.08 337.016 105.21C337.746 106.34 338.896 106.9 340.466 106.9C342.036 106.9 343.176 106.34 343.906 105.21Z" fill="#00E47C"/>
<path d="M359.347 110.07C357.707 109.17 356.427 107.89 355.517 106.24C354.607 104.59 354.137 102.7 354.137 100.56C354.137 98.42 354.597 96.54 355.517 94.89C356.437 93.25 357.717 91.97 359.347 91.06C360.987 90.15 362.857 89.7 364.967 89.7C367.077 89.7 368.947 90.15 370.587 91.06C372.227 91.97 373.497 93.25 374.407 94.89C375.317 96.54 375.777 98.42 375.777 100.56C375.777 102.7 375.317 104.6 374.407 106.25C373.497 107.9 372.227 109.17 370.597 110.07C368.967 110.97 367.087 111.43 364.967 111.43C362.847 111.43 360.987 110.98 359.347 110.07ZM368.477 105.19C369.227 104.06 369.607 102.52 369.607 100.56C369.607 98.6 369.227 97.0599 368.477 95.9299C367.727 94.7999 366.547 94.24 364.957 94.24C363.367 94.24 362.187 94.8099 361.427 95.9299C360.667 97.0599 360.287 98.6 360.287 100.56C360.287 102.52 360.667 104.08 361.427 105.2C362.187 106.32 363.367 106.88 364.957 106.88C366.547 106.88 367.717 106.32 368.477 105.19Z" fill="#00E47C"/>
<path d="M379.236 90.0999H384.906V95.22H385.236C385.776 93.81 386.326 92.6999 386.876 91.8999C387.426 91.0999 388.016 90.53 388.636 90.2C389.256 89.87 389.986 89.7 390.796 89.7C391.076 89.7 391.356 89.72 391.626 89.75C391.896 89.78 392.116 89.8399 392.286 89.8999V95.9299C391.516 95.7299 390.646 95.6199 389.676 95.6199C388.136 95.6199 386.996 95.93 386.236 96.55C385.486 97.17 385.106 98.1 385.106 99.33V111.01H379.236V90.09V90.0999Z" fill="#00E47C"/>
<path d="M396.057 87.3699C395.497 87.0599 395.057 86.62 394.747 86.06C394.427 85.5 394.267 84.86 394.267 84.14C394.267 83.42 394.427 82.78 394.747 82.22C395.067 81.66 395.507 81.23 396.057 80.92C396.607 80.61 397.247 80.45 397.957 80.45C398.667 80.45 399.297 80.61 399.857 80.92C400.417 81.23 400.847 81.67 401.157 82.22C401.467 82.78 401.627 83.42 401.627 84.14C401.627 84.86 401.467 85.5 401.157 86.06C400.847 86.62 400.407 87.0499 399.857 87.3699C399.297 87.6799 398.667 87.84 397.957 87.84C397.247 87.84 396.617 87.6799 396.057 87.3699ZM395.017 90.0999H400.887V111.02H395.017V90.0999Z" fill="#00E47C"/>
<path d="M410.046 110.31C409.006 109.84 408.236 109.13 407.746 108.17C407.246 107.21 407.006 105.98 407.006 104.47V94.56H403.586V90.1H407.006V84.66H412.876V90.1H418.096V94.56H412.876V103.8C412.876 104.48 412.946 105 413.086 105.37C413.226 105.74 413.466 106 413.806 106.16C414.146 106.32 414.636 106.39 415.276 106.39H418.086V111.02H414.066C412.426 111.02 411.076 110.79 410.036 110.32L410.046 110.31Z" fill="#00E47C"/>
<path d="M443.407 90.86C444.527 90.08 445.867 89.69 447.417 89.69C448.737 89.69 449.867 89.97 450.807 90.55C451.747 91.13 452.477 91.97 452.977 93.11C453.477 94.25 453.727 95.63 453.727 97.26V111.02H447.857V98.13C447.857 96.87 447.557 95.9 446.947 95.24C446.337 94.57 445.477 94.24 444.347 94.24C443.097 94.24 442.127 94.65 441.447 95.45C440.757 96.26 440.417 97.4 440.417 98.89V111.02H434.547V98.13C434.547 96.87 434.247 95.9 433.637 95.24C433.027 94.57 432.167 94.24 431.037 94.24C429.787 94.24 428.817 94.65 428.127 95.45C427.437 96.26 427.097 97.4 427.097 98.89V111.02H421.227V90.1H426.897V94.48H427.227C428.067 92.86 429.047 91.66 430.157 90.87C431.267 90.08 432.577 89.69 434.097 89.69C435.617 89.69 436.977 90.1 438.007 90.91C439.037 91.72 439.737 92.91 440.107 94.48H440.437C441.297 92.85 442.287 91.64 443.407 90.86Z" fill="#00E47C"/>
<path d="M462.247 110.07C460.607 109.17 459.327 107.89 458.417 106.24C457.497 104.59 457.037 102.7 457.037 100.56C457.037 98.42 457.497 96.54 458.417 94.89C459.337 93.25 460.607 91.97 462.247 91.06C463.887 90.15 465.757 89.7 467.867 89.7C469.977 89.7 471.847 90.15 473.487 91.06C475.127 91.97 476.397 93.25 477.307 94.89C478.217 96.54 478.677 98.42 478.677 100.56C478.677 102.7 478.217 104.6 477.307 106.25C476.397 107.9 475.127 109.17 473.497 110.07C471.867 110.97 469.987 111.43 467.867 111.43C465.747 111.43 463.887 110.98 462.247 110.07ZM471.377 105.19C472.127 104.06 472.507 102.52 472.507 100.56C472.507 98.6 472.127 97.0599 471.377 95.9299C470.627 94.7999 469.447 94.24 467.857 94.24C466.267 94.24 465.087 94.8099 464.327 95.9299C463.567 97.0599 463.187 98.6 463.187 100.56C463.187 102.52 463.567 104.08 464.327 105.2C465.087 106.32 466.267 106.88 467.857 106.88C469.447 106.88 470.617 106.32 471.377 105.19Z" fill="#00E47C"/>
<path d="M484.476 109.92C482.886 108.91 481.716 107.38 480.966 105.33L486.326 104.29C486.656 105.23 487.176 105.93 487.896 106.39C488.616 106.85 489.546 107.08 490.686 107.08C491.336 107.08 491.916 107.01 492.406 106.87C492.906 106.73 493.286 106.52 493.566 106.24C493.846 105.96 493.986 105.63 493.986 105.25C493.986 104.81 493.796 104.45 493.416 104.15C493.036 103.85 492.556 103.61 491.966 103.43C491.386 103.25 490.576 103.03 489.536 102.79C487.866 102.38 486.486 101.97 485.406 101.56C484.326 101.14 483.396 100.51 482.616 99.64C481.836 98.77 481.446 97.63 481.446 96.2C481.446 94.89 481.806 93.7499 482.526 92.7599C483.246 91.7699 484.276 91.02 485.616 90.49C486.956 89.96 488.536 89.7 490.356 89.7C492.706 89.7 494.656 90.18 496.206 91.14C497.756 92.1 498.896 93.51 499.636 95.39L494.416 96.55C494.076 95.73 493.536 95.12 492.806 94.7C492.076 94.28 491.156 94.0699 490.056 94.0699C489.116 94.0699 488.396 94.21 487.886 94.49C487.376 94.77 487.126 95.1699 487.126 95.6799C487.126 96.1199 487.316 96.4799 487.696 96.7599C488.076 97.0399 488.556 97.27 489.136 97.44C489.716 97.61 490.526 97.8099 491.576 98.0399C493.286 98.4399 494.696 98.83 495.806 99.24C496.916 99.65 497.876 100.29 498.676 101.18C499.476 102.07 499.886 103.25 499.886 104.73C499.886 106.13 499.496 107.34 498.716 108.35C497.936 109.36 496.846 110.13 495.446 110.65C494.046 111.17 492.426 111.44 490.576 111.44C488.106 111.44 486.066 110.94 484.476 109.93V109.92Z" fill="#00E47C"/>
</svg>
