<svg width="600" height="200" viewBox="0 0 600 200" fill="none" xmlns="http://www.w3.org/2000/svg">
<path d="M128.955 94.8849H111.995V111.845H128.955V94.8849Z" fill="white"/>
<path d="M118.995 108.805C116.315 108.805 115.555 103.615 115.525 103.395C115.505 103.225 115.615 103.065 115.785 103.045C115.945 103.025 116.105 103.135 116.135 103.305C116.325 104.665 117.215 108.185 118.995 108.185C120.615 108.185 123.435 102.005 124.825 98.115C124.885 97.955 125.055 97.875 125.215 97.935C125.375 97.995 125.455 98.165 125.405 98.325C125.025 99.395 121.585 108.805 118.995 108.805Z" fill="#09312A"/>
<path d="M194.195 124.085H137.695C137.445 124.085 137.235 123.875 137.235 123.625C137.235 123.375 137.445 123.165 137.695 123.165H194.195C194.445 123.165 194.655 123.375 194.655 123.625C194.655 123.875 194.445 124.085 194.195 124.085Z" fill="white"/>
<path d="M194.195 130.145H137.695C137.445 130.145 137.235 129.935 137.235 129.685C137.235 129.435 137.445 129.225 137.695 129.225H194.195C194.445 129.225 194.655 129.435 194.655 129.685C194.655 129.935 194.445 130.145 194.195 130.145Z" fill="white"/>
<path d="M194.195 146.925H137.695C137.445 146.925 137.235 146.715 137.235 146.465C137.235 146.215 137.445 146.005 137.695 146.005H194.195C194.445 146.005 194.655 146.215 194.655 146.465C194.655 146.715 194.445 146.925 194.195 146.925Z" fill="white"/>
<path d="M194.195 152.985H137.695C137.445 152.985 137.235 152.775 137.235 152.525C137.235 152.275 137.445 152.065 137.695 152.065H194.195C194.445 152.065 194.655 152.275 194.655 152.525C194.655 152.775 194.445 152.985 194.195 152.985Z" fill="white"/>
<path d="M128.505 136.155H112.455C112.205 136.155 111.995 135.945 111.995 135.695V119.645C111.995 119.395 112.205 119.185 112.455 119.185H128.505C128.755 119.185 128.965 119.395 128.965 119.645V135.695C128.965 135.945 128.755 136.155 128.505 136.155ZM112.915 135.235H128.045V120.105H112.915V135.235Z" fill="white"/>
<path d="M128.505 160.015H112.455C112.205 160.015 111.995 159.805 111.995 159.555V143.505C111.995 143.255 112.205 143.045 112.455 143.045H128.505C128.755 143.045 128.965 143.255 128.965 143.505V159.555C128.965 159.805 128.755 160.015 128.505 160.015ZM112.915 159.095H128.045V143.965H112.915V159.095Z" fill="white"/>
<path d="M207.785 174.145H102.375C98.3948 174.145 95.1548 170.905 95.1548 166.925V33.065C95.1548 29.085 98.3948 25.845 102.375 25.845H207.785C211.765 25.845 215.005 29.085 215.005 33.065V166.935C215.005 170.915 211.765 174.155 207.785 174.155M102.375 26.765C98.9048 26.765 96.0748 29.585 96.0748 33.065V166.935C96.0748 170.405 98.8948 173.225 102.375 173.225H207.785C211.255 173.225 214.085 170.405 214.085 166.935V33.065C214.085 29.595 211.265 26.765 207.785 26.765H102.375Z" fill="white"/>
<path d="M128.975 83.5449C127.595 83.5449 127.175 78.9549 126.355 61.9849C125.915 52.9149 125.315 40.5449 124.275 39.3149C122.915 40.0249 119.775 52.645 117.085 68.285C117.045 68.505 116.855 68.6649 116.635 68.6649H112.005C111.755 68.6649 111.545 68.455 111.545 68.205C111.545 67.955 111.755 67.745 112.005 67.745H116.245C116.525 66.135 117.675 59.7249 119.045 53.3949C122.325 38.3149 123.705 38.3549 124.355 38.3749C125.905 38.4349 126.395 43.735 127.275 61.955C127.695 70.595 128.215 81.315 129.065 82.605C129.775 82.215 130.455 77.4349 130.795 75.0849C131.595 69.4949 132.175 66.065 133.825 66.065C135.475 66.065 137.415 61.6549 138.245 58.8749C138.305 58.6849 138.475 58.5549 138.675 58.5449C138.875 58.5149 139.055 58.6549 139.125 58.8449L141.985 66.465H146.215L150.785 58.775C150.875 58.625 151.035 58.5349 151.205 58.5449C151.375 58.5549 151.535 58.665 151.605 58.815L154.295 64.7649C155.075 57.1349 157.225 39.7449 160.565 39.7449C162.635 39.7449 163.375 46.5449 164.465 60.9749C164.995 67.9749 165.655 76.675 166.575 77.495C167.435 77.305 167.865 72.005 168.095 69.135C168.575 63.215 168.965 59.5749 170.715 59.5749C172.665 59.5749 172.815 61.435 172.925 62.785C173.025 64.045 173.135 64.4849 173.525 64.4849H178.015C178.105 64.4849 178.195 64.515 178.275 64.565L182.585 67.535L183.125 60.9149C183.145 60.7149 183.285 60.5549 183.475 60.5049C183.665 60.4549 183.865 60.535 183.975 60.705L186.885 65.275H198.155C198.405 65.275 198.615 65.4849 198.615 65.7349C198.615 65.9849 198.405 66.1949 198.155 66.1949H186.635C186.475 66.1949 186.335 66.1149 186.245 65.9849L183.935 62.3649L183.435 68.4149C183.425 68.5749 183.325 68.7249 183.175 68.7949C183.025 68.8649 182.855 68.8549 182.715 68.7549L177.865 65.4049H173.515C172.195 65.4049 172.085 63.995 171.995 62.855C171.865 61.255 171.695 60.495 170.705 60.495C169.715 60.495 169.265 65.945 168.995 69.205C168.525 74.915 168.155 78.415 166.505 78.415C165.055 78.415 164.545 74.505 163.525 61.035C163.145 56.015 162.755 50.8349 162.225 46.8949C161.395 40.7249 160.585 40.6549 160.545 40.6549C158.645 40.6549 156.195 54.0949 155.015 66.5549C154.995 66.7649 154.835 66.935 154.635 66.965C154.435 67.005 154.225 66.895 154.135 66.705L151.105 59.9849L146.845 67.1449C146.765 67.2849 146.615 67.3749 146.445 67.3749H141.635C141.445 67.3749 141.275 67.2549 141.205 67.0749L138.695 60.385C137.895 62.645 136.065 66.9849 133.805 66.9849C132.865 66.9849 132.095 72.335 131.685 75.205C130.925 80.535 130.415 83.5449 128.945 83.5449" fill="white"/>
<path d="M194.195 101.245H137.695C137.445 101.245 137.235 101.035 137.235 100.785C137.235 100.535 137.445 100.325 137.695 100.325H194.195C194.445 100.325 194.655 100.535 194.655 100.785C194.655 101.035 194.445 101.245 194.195 101.245Z" fill="white"/>
<path d="M194.195 107.305H137.695C137.445 107.305 137.235 107.095 137.235 106.845C137.235 106.595 137.445 106.385 137.695 106.385H194.195C194.445 106.385 194.655 106.595 194.655 106.845C194.655 107.095 194.445 107.305 194.195 107.305Z" fill="white"/>
<path d="M261.655 113.57C259.515 112.29 257.865 110.51 256.725 108.23C255.575 105.95 255.005 103.34 255.005 100.4C255.005 97.46 255.575 94.86 256.725 92.57C257.875 90.29 259.515 88.51 261.655 87.23C263.795 85.95 266.295 85.31 269.145 85.31C271.265 85.31 273.215 85.69 274.995 86.45C276.775 87.21 278.305 88.34 279.575 89.83C280.845 91.33 281.785 93.15 282.375 95.29L276.075 96.25C275.545 94.39 274.695 92.95 273.515 91.94C272.335 90.93 270.865 90.42 269.085 90.42C267.525 90.42 266.165 90.82 265.015 91.63C263.865 92.44 262.985 93.59 262.375 95.1C261.765 96.61 261.455 98.36 261.455 100.39C261.455 102.42 261.765 104.18 262.375 105.68C262.985 107.18 263.865 108.34 265.015 109.15C266.165 109.96 267.515 110.36 269.085 110.36C270.875 110.36 272.365 109.84 273.555 108.79C274.735 107.74 275.585 106.23 276.105 104.24L282.405 105.22C281.825 107.44 280.885 109.31 279.615 110.85C278.335 112.39 276.805 113.54 275.015 114.32C273.225 115.1 271.275 115.48 269.155 115.48C266.305 115.48 263.805 114.84 261.665 113.56L261.655 113.57Z" fill="#00E47C"/>
<path d="M287.815 114.74C286.855 114.24 286.105 113.55 285.575 112.65C285.035 111.75 284.765 110.72 284.765 109.55C284.765 107.61 285.575 106.06 287.195 104.91C288.815 103.76 291.255 102.98 294.515 102.56L298.145 102.09C298.105 100.77 297.795 99.81 297.205 99.2C296.625 98.6 295.725 98.29 294.535 98.29C293.515 98.29 292.695 98.51 292.065 98.93C291.435 99.36 290.965 100.04 290.635 100.98L285.175 100.53C285.525 99.07 286.135 97.84 286.995 96.83C287.855 95.82 288.955 95.05 290.285 94.53C291.615 94.01 293.155 93.75 294.895 93.75C296.825 93.75 298.465 94.07 299.825 94.71C301.185 95.35 302.225 96.29 302.935 97.53C303.645 98.77 304.005 100.29 304.005 102.07V115.08H298.335V110.72H298.005C297.125 112.35 296.115 113.55 294.985 114.33C293.855 115.1 292.555 115.49 291.075 115.49C289.855 115.49 288.765 115.24 287.805 114.75L287.815 114.74ZM291.625 110.4C292.105 110.76 292.825 110.94 293.775 110.94C294.645 110.94 295.405 110.79 296.065 110.49C296.725 110.19 297.235 109.77 297.595 109.22C297.955 108.67 298.135 108.03 298.135 107.29V105.74L295.365 106.13C294.255 106.28 293.375 106.47 292.735 106.69C292.095 106.91 291.635 107.19 291.335 107.53C291.045 107.86 290.895 108.29 290.895 108.8C290.895 109.51 291.135 110.04 291.615 110.4H291.625Z" fill="#00E47C"/>
<path d="M310.495 114.43C309.595 114 308.935 113.33 308.515 112.44C308.095 111.55 307.885 110.4 307.885 108.98V84.49H313.755V108.39C313.755 108.95 313.815 109.37 313.925 109.66C314.035 109.95 314.245 110.16 314.525 110.27C314.815 110.39 315.215 110.44 315.745 110.44H317.255V115.07H313.995C312.555 115.07 311.385 114.85 310.485 114.42L310.495 114.43Z" fill="#00E47C"/>
<path d="M323.725 114.1C322.105 113.18 320.855 111.89 319.965 110.25C319.075 108.61 318.625 106.73 318.625 104.62C318.625 102.51 319.065 100.64 319.965 98.99C320.855 97.35 322.105 96.06 323.725 95.14C325.345 94.22 327.215 93.76 329.335 93.76C330.895 93.76 332.345 94.03 333.665 94.58C334.995 95.13 336.125 95.95 337.065 97.03C338.005 98.11 338.695 99.42 339.135 100.96L333.365 101.84C333.065 100.71 332.555 99.84 331.835 99.23C331.115 98.62 330.215 98.31 329.125 98.31C327.605 98.31 326.485 98.87 325.775 99.99C325.065 101.11 324.705 102.66 324.705 104.63C324.705 106.6 325.065 108.1 325.775 109.17C326.485 110.24 327.605 110.77 329.125 110.77C330.215 110.77 331.105 110.46 331.815 109.85C332.525 109.24 333.035 108.36 333.345 107.2L339.155 108.1C338.715 109.7 338.025 111.06 337.075 112.17C336.125 113.28 334.985 114.11 333.675 114.67C332.355 115.23 330.905 115.51 329.335 115.51C327.215 115.51 325.345 115.05 323.725 114.12V114.1Z" fill="#00E47C"/>
<path d="M361.545 115.08H355.875V110.72H355.545C353.835 113.9 351.515 115.49 348.595 115.49C347.245 115.49 346.075 115.18 345.065 114.55C344.055 113.93 343.285 113.03 342.755 111.86C342.215 110.69 341.945 109.3 341.945 107.7V94.16H347.815V106.96C347.815 108.22 348.135 109.21 348.785 109.91C349.435 110.61 350.345 110.96 351.525 110.96C352.395 110.96 353.135 110.78 353.755 110.41C354.375 110.04 354.845 109.51 355.175 108.82C355.505 108.13 355.665 107.29 355.665 106.29V94.16H361.535V115.08H361.545Z" fill="#00E47C"/>
<path d="M368.235 114.43C367.335 114 366.675 113.33 366.255 112.44C365.835 111.55 365.625 110.4 365.625 108.98V84.49H371.495V108.39C371.495 108.95 371.555 109.37 371.665 109.66C371.775 109.95 371.985 110.16 372.265 110.27C372.555 110.39 372.955 110.44 373.485 110.44H374.995V115.07H371.735C370.295 115.07 369.125 114.85 368.225 114.42L368.235 114.43Z" fill="#00E47C"/>
<path d="M379.805 114.74C378.845 114.24 378.095 113.55 377.565 112.65C377.025 111.75 376.755 110.72 376.755 109.55C376.755 107.61 377.565 106.06 379.185 104.91C380.805 103.76 383.245 102.98 386.505 102.56L390.135 102.09C390.095 100.77 389.785 99.81 389.195 99.2C388.615 98.6 387.715 98.29 386.525 98.29C385.505 98.29 384.685 98.51 384.055 98.93C383.425 99.36 382.955 100.04 382.625 100.98L377.165 100.53C377.515 99.07 378.125 97.84 378.985 96.83C379.845 95.82 380.945 95.05 382.275 94.53C383.605 94.01 385.145 93.75 386.885 93.75C388.815 93.75 390.455 94.07 391.815 94.71C393.175 95.35 394.215 96.29 394.925 97.53C395.635 98.77 395.995 100.29 395.995 102.07V115.08H390.325V110.72H389.995C389.115 112.35 388.105 113.55 386.975 114.33C385.845 115.1 384.545 115.49 383.065 115.49C381.845 115.49 380.755 115.24 379.795 114.75L379.805 114.74ZM383.615 110.4C384.095 110.76 384.815 110.94 385.765 110.94C386.635 110.94 387.395 110.79 388.055 110.49C388.715 110.19 389.225 109.77 389.585 109.22C389.945 108.67 390.125 108.03 390.125 107.29V105.74L387.355 106.13C386.245 106.28 385.365 106.47 384.725 106.69C384.085 106.91 383.625 107.19 383.325 107.53C383.035 107.86 382.885 108.29 382.885 108.8C382.885 109.51 383.125 110.04 383.605 110.4H383.615Z" fill="#00E47C"/>
<path d="M403.305 114.09C402.035 113.16 401.045 111.87 400.325 110.23C399.615 108.59 399.255 106.73 399.255 104.66C399.255 102.59 399.605 100.71 400.315 99.05C401.025 97.39 402.015 96.09 403.285 95.16C404.555 94.22 405.995 93.75 407.615 93.75C409.065 93.75 410.325 94.13 411.395 94.9C412.465 95.67 413.315 96.79 413.955 98.27H414.285V84.49H420.155V115.07H414.485V110.71H414.155C413.365 112.31 412.445 113.51 411.385 114.3C410.325 115.09 409.075 115.48 407.635 115.48C406.015 115.48 404.575 115.01 403.305 114.08V114.09ZM413.395 109.25C414.125 108.12 414.485 106.58 414.485 104.62C414.485 102.66 414.125 101.12 413.395 99.99C412.665 98.86 411.525 98.3 409.955 98.3C408.385 98.3 407.245 98.87 406.505 99.99C405.775 101.12 405.405 102.66 405.405 104.62C405.405 106.58 405.775 108.12 406.505 109.25C407.235 110.38 408.385 110.94 409.955 110.94C411.525 110.94 412.665 110.38 413.395 109.25Z" fill="#00E47C"/>
<path d="M428.875 114.13C427.235 113.23 425.955 111.95 425.045 110.3C424.125 108.65 423.665 106.76 423.665 104.62C423.665 102.48 424.125 100.6 425.045 98.95C425.965 97.31 427.235 96.03 428.875 95.12C430.515 94.21 432.385 93.76 434.495 93.76C436.605 93.76 438.475 94.21 440.115 95.12C441.755 96.03 443.025 97.31 443.935 98.95C444.845 100.6 445.305 102.48 445.305 104.62C445.305 106.76 444.845 108.66 443.935 110.31C443.025 111.96 441.755 113.23 440.125 114.13C438.495 115.03 436.615 115.49 434.495 115.49C432.375 115.49 430.515 115.04 428.875 114.13ZM438.005 109.25C438.755 108.12 439.135 106.58 439.135 104.62C439.135 102.66 438.755 101.12 438.005 99.99C437.255 98.86 436.075 98.3 434.485 98.3C432.895 98.3 431.715 98.87 430.955 99.99C430.195 101.12 429.815 102.66 429.815 104.62C429.815 106.58 430.195 108.14 430.955 109.26C431.715 110.38 432.895 110.94 434.485 110.94C436.075 110.94 437.245 110.38 438.005 109.25Z" fill="#00E47C"/>
<path d="M448.765 94.16H454.435V99.28H454.765C455.305 97.87 455.855 96.76 456.405 95.96C456.955 95.16 457.545 94.59 458.165 94.26C458.785 93.93 459.515 93.76 460.325 93.76C460.615 93.76 460.885 93.78 461.155 93.81C461.425 93.84 461.645 93.9 461.815 93.96V99.99C461.045 99.79 460.175 99.68 459.205 99.68C457.665 99.68 456.525 99.99 455.765 100.61C455.015 101.23 454.635 102.16 454.635 103.39V115.07H448.765V94.15V94.16Z" fill="#00E47C"/>
<path d="M466.025 114.74C465.065 114.24 464.315 113.55 463.785 112.65C463.245 111.75 462.975 110.72 462.975 109.55C462.975 107.61 463.785 106.06 465.405 104.91C467.025 103.76 469.465 102.98 472.725 102.56L476.355 102.09C476.315 100.77 476.005 99.81 475.415 99.2C474.835 98.6 473.935 98.29 472.745 98.29C471.725 98.29 470.905 98.51 470.275 98.93C469.645 99.36 469.175 100.04 468.845 100.98L463.385 100.53C463.735 99.07 464.345 97.84 465.205 96.83C466.065 95.82 467.165 95.05 468.495 94.53C469.825 94.01 471.365 93.75 473.105 93.75C475.035 93.75 476.675 94.07 478.035 94.71C479.395 95.35 480.435 96.29 481.145 97.53C481.855 98.77 482.215 100.29 482.215 102.07V115.08H476.545V110.72H476.215C475.335 112.35 474.325 113.55 473.195 114.33C472.065 115.1 470.765 115.49 469.285 115.49C468.065 115.49 466.975 115.24 466.015 114.75L466.025 114.74ZM469.835 110.4C470.315 110.76 471.035 110.94 471.985 110.94C472.855 110.94 473.615 110.79 474.275 110.49C474.935 110.19 475.445 109.77 475.805 109.22C476.165 108.67 476.345 108.03 476.345 107.29V105.74L473.575 106.13C472.465 106.28 471.585 106.47 470.945 106.69C470.305 106.91 469.845 107.19 469.545 107.53C469.255 107.86 469.105 108.29 469.105 108.8C469.105 109.51 469.345 110.04 469.825 110.4H469.835Z" fill="#00E47C"/>
<path d="M488.435 113.98C486.845 112.97 485.675 111.44 484.925 109.39L490.285 108.35C490.615 109.29 491.135 109.99 491.855 110.45C492.575 110.91 493.505 111.14 494.645 111.14C495.295 111.14 495.875 111.07 496.365 110.93C496.865 110.79 497.245 110.58 497.525 110.3C497.805 110.02 497.945 109.69 497.945 109.31C497.945 108.87 497.755 108.51 497.375 108.21C496.995 107.91 496.515 107.67 495.925 107.49C495.345 107.31 494.535 107.09 493.495 106.85C491.825 106.44 490.445 106.03 489.365 105.62C488.285 105.2 487.355 104.57 486.575 103.7C485.795 102.84 485.405 101.69 485.405 100.26C485.405 98.95 485.765 97.81 486.485 96.82C487.205 95.83 488.235 95.08 489.575 94.55C490.915 94.02 492.495 93.76 494.315 93.76C496.665 93.76 498.615 94.24 500.165 95.2C501.715 96.16 502.855 97.57 503.595 99.45L498.375 100.61C498.035 99.79 497.495 99.18 496.765 98.76C496.035 98.34 495.115 98.13 494.015 98.13C493.075 98.13 492.355 98.27 491.845 98.55C491.335 98.83 491.085 99.23 491.085 99.74C491.085 100.18 491.275 100.54 491.655 100.82C492.035 101.1 492.515 101.33 493.095 101.5C493.675 101.67 494.485 101.87 495.535 102.1C497.245 102.5 498.655 102.89 499.765 103.3C500.875 103.71 501.835 104.35 502.635 105.24C503.445 106.12 503.845 107.31 503.845 108.79C503.845 110.19 503.455 111.4 502.675 112.41C501.895 113.42 500.805 114.19 499.405 114.71C498.005 115.23 496.385 115.5 494.535 115.5C492.065 115.5 490.025 115 488.435 113.99V113.98Z" fill="#00E47C"/>
</svg>
