<svg width="600" height="200" viewBox="0 0 600 200" fill="none" xmlns="http://www.w3.org/2000/svg">
<g clip-path="url(#clip0_20_7006)">
<g clip-path="url(#clip1_20_7006)">
<path d="M245.58 62.83H255.39C257.32 62.83 259.02 63.14 260.48 63.77C261.94 64.4 263.07 65.29 263.86 66.46C264.65 67.63 265.05 69 265.05 70.58C265.05 73.67 263.49 75.65 260.36 76.53V76.88C261.62 77.03 262.73 77.4 263.67 77.99C264.61 78.58 265.35 79.38 265.88 80.39C266.41 81.4 266.68 82.57 266.68 83.92C266.68 85.59 266.28 87.05 265.48 88.3C264.68 89.55 263.55 90.51 262.1 91.19C260.65 91.87 258.95 92.2 257.02 92.2H245.58V62.84V62.83ZM255.39 75.51C256.56 75.51 257.54 75.32 258.35 74.95C259.15 74.58 259.75 74.04 260.15 73.35C260.55 72.66 260.75 71.83 260.75 70.88C260.75 69.93 260.55 69.11 260.15 68.42C259.75 67.73 259.15 67.2 258.35 66.83C257.55 66.46 256.56 66.27 255.39 66.27H249.6V75.51H255.39ZM257.02 88.74C258.19 88.74 259.17 88.54 259.98 88.15C260.78 87.75 261.38 87.19 261.78 86.46C262.18 85.73 262.38 84.86 262.38 83.85C262.38 82.84 262.18 81.97 261.78 81.24C261.38 80.51 260.78 79.94 259.98 79.54C259.18 79.14 258.19 78.94 257.02 78.94H249.6V88.75H257.02V88.74Z" fill="white"/>
<path d="M288.13 92.19H284.58V88.03H284.25C283.45 89.54 282.45 90.68 281.26 91.44C280.07 92.21 278.71 92.59 277.19 92.59C275.8 92.59 274.61 92.28 273.61 91.66C272.61 91.04 271.85 90.15 271.32 88.98C270.79 87.81 270.52 86.42 270.52 84.8V71.53H274.27V84.36C274.27 87.68 275.78 89.33 278.8 89.33C279.96 89.33 280.95 89.1 281.79 88.65C282.63 88.2 283.26 87.54 283.71 86.68C284.15 85.82 284.37 84.8 284.37 83.62V71.53H288.12V92.18L288.13 92.19Z" fill="white"/>
<path d="M295.05 91.12C293.58 90.13 292.48 88.64 291.78 86.65L295.47 85.98C295.92 87.12 296.59 87.97 297.49 88.53C298.39 89.09 299.52 89.37 300.89 89.37C301.77 89.37 302.54 89.26 303.2 89.03C303.86 88.81 304.37 88.48 304.72 88.06C305.07 87.64 305.25 87.14 305.25 86.57C305.25 85.93 305.03 85.41 304.58 85.01C304.13 84.61 303.57 84.3 302.91 84.07C302.24 83.85 301.31 83.59 300.12 83.31C298.53 82.93 297.23 82.54 296.24 82.16C295.24 81.77 294.38 81.17 293.67 80.37C292.96 79.57 292.6 78.48 292.6 77.14C292.6 75.94 292.92 74.89 293.57 73.99C294.22 73.09 295.13 72.39 296.3 71.89C297.47 71.39 298.84 71.15 300.39 71.15C302.54 71.15 304.34 71.63 305.79 72.6C307.24 73.57 308.3 74.96 308.97 76.78L305.48 77.45C305.07 76.43 304.44 75.67 303.57 75.16C302.71 74.65 301.61 74.39 300.28 74.39C299.04 74.39 298.08 74.61 297.38 75.04C296.69 75.48 296.34 76.09 296.34 76.9C296.34 77.52 296.56 78.04 297.01 78.43C297.46 78.83 298.02 79.13 298.69 79.36C299.36 79.58 300.29 79.83 301.47 80.08C303.1 80.45 304.42 80.82 305.44 81.2C306.46 81.58 307.32 82.18 308.05 82.99C308.78 83.81 309.14 84.91 309.14 86.29C309.14 87.57 308.79 88.69 308.1 89.64C307.41 90.6 306.43 91.33 305.15 91.84C303.88 92.35 302.39 92.61 300.7 92.61C298.4 92.61 296.52 92.12 295.04 91.13L295.05 91.12Z" fill="white"/>
<path d="M317.11 91.24C315.59 90.34 314.42 89.07 313.58 87.45C312.74 85.83 312.33 83.95 312.33 81.83C312.33 79.71 312.75 77.86 313.58 76.24C314.42 74.62 315.59 73.37 317.11 72.47C318.63 71.57 320.38 71.12 322.36 71.12C323.87 71.12 325.25 71.39 326.5 71.93C327.75 72.47 328.82 73.25 329.7 74.28C330.58 75.31 331.23 76.53 331.64 77.94L327.79 78.61C327.4 77.23 326.74 76.18 325.82 75.47C324.9 74.76 323.74 74.41 322.32 74.41C321 74.41 319.9 74.71 319.01 75.32C318.12 75.92 317.45 76.78 317.01 77.9C316.57 79.01 316.35 80.33 316.35 81.84C316.35 83.35 316.57 84.68 317.01 85.79C317.45 86.9 318.12 87.77 319.01 88.38C319.9 88.99 321 89.3 322.32 89.3C325.16 89.3 326.98 87.84 327.78 84.92L331.63 85.59C331.22 87.06 330.58 88.32 329.7 89.37C328.82 90.42 327.76 91.23 326.51 91.78C325.26 92.33 323.87 92.61 322.35 92.61C320.37 92.61 318.62 92.16 317.1 91.25L317.11 91.24Z" fill="white"/>
<path d="M337.36 91.87C336.43 91.39 335.7 90.71 335.17 89.84C334.64 88.97 334.37 87.97 334.37 86.84C334.37 85.03 335.08 83.57 336.5 82.46C337.92 81.35 340.04 80.59 342.87 80.2L347.84 79.49C347.81 78.29 347.63 77.32 347.3 76.57C346.97 75.82 346.48 75.27 345.84 74.92C345.2 74.57 344.39 74.39 343.39 74.39C342.11 74.39 341.06 74.69 340.23 75.29C339.4 75.89 338.79 76.83 338.39 78.1L334.7 77.79C335.05 76.38 335.62 75.17 336.41 74.18C337.2 73.19 338.19 72.43 339.38 71.91C340.57 71.39 341.94 71.12 343.49 71.12C345.19 71.12 346.64 71.44 347.85 72.08C349.06 72.72 349.98 73.66 350.62 74.89C351.26 76.13 351.58 77.63 351.58 79.4V92.18H348.03V88.02H347.7C346.87 89.49 345.83 90.62 344.57 91.41C343.31 92.2 341.94 92.59 340.46 92.59C339.3 92.59 338.26 92.35 337.33 91.87H337.36ZM339.32 88.59C339.95 89.09 340.84 89.33 341.98 89.33C343.04 89.33 344.02 89.13 344.92 88.73C345.82 88.33 346.53 87.78 347.06 87.08C347.59 86.38 347.86 85.6 347.86 84.75V82.36L343.52 83.01C342.28 83.19 341.29 83.41 340.55 83.69C339.81 83.97 339.26 84.33 338.91 84.77C338.56 85.21 338.38 85.77 338.38 86.43C338.38 87.37 338.7 88.09 339.33 88.58L339.32 88.59Z" fill="white"/>
<path d="M360.08 91.24C358.72 90.34 357.66 89.07 356.89 87.44C356.12 85.81 355.74 83.95 355.74 81.87C355.74 79.79 356.12 77.92 356.89 76.28C357.66 74.64 358.72 73.38 360.08 72.48C361.44 71.58 362.98 71.12 364.71 71.12C366.15 71.12 367.39 71.47 368.44 72.17C369.49 72.87 370.4 73.96 371.19 75.44H371.52V61.6H375.27V92.18H371.72V88.02H371.39C370.55 89.6 369.59 90.75 368.53 91.49C367.46 92.22 366.18 92.59 364.69 92.59C362.98 92.59 361.44 92.14 360.08 91.23V91.24ZM369.06 88.42C369.95 87.81 370.62 86.94 371.06 85.82C371.5 84.7 371.72 83.38 371.72 81.88C371.72 80.38 371.5 79.04 371.06 77.93C370.62 76.82 369.95 75.95 369.06 75.34C368.17 74.73 367.07 74.42 365.75 74.42C364.43 74.42 363.32 74.72 362.43 75.34C361.54 75.96 360.87 76.82 360.43 77.93C359.99 79.04 359.78 80.36 359.78 81.88C359.78 83.4 360 84.7 360.44 85.82C360.88 86.94 361.55 87.81 362.44 88.42C363.33 89.03 364.43 89.34 365.75 89.34C367.07 89.34 368.17 89.03 369.06 88.42Z" fill="white"/>
<path d="M384.41 91.25C382.88 90.35 381.7 89.09 380.86 87.47C380.02 85.85 379.61 83.98 379.61 81.87C379.61 79.76 380.03 77.88 380.86 76.25C381.7 74.63 382.88 73.37 384.41 72.47C385.94 71.57 387.7 71.12 389.7 71.12C391.7 71.12 393.46 71.57 394.99 72.47C396.52 73.37 397.7 74.63 398.54 76.25C399.38 77.88 399.79 79.75 399.79 81.87C399.79 83.99 399.37 85.84 398.54 87.47C397.7 89.09 396.52 90.36 394.99 91.25C393.46 92.15 391.7 92.6 389.7 92.6C387.7 92.6 385.94 92.15 384.41 91.25ZM393.07 88.42C393.97 87.81 394.65 86.95 395.09 85.83C395.53 84.72 395.75 83.4 395.75 81.88C395.75 80.36 395.53 79.04 395.09 77.93C394.65 76.82 393.98 75.95 393.07 75.34C392.17 74.73 391.04 74.42 389.7 74.42C388.36 74.42 387.25 74.72 386.35 75.34C385.45 75.95 384.77 76.82 384.32 77.93C383.87 79.04 383.65 80.36 383.65 81.88C383.65 83.4 383.87 84.72 384.32 85.83C384.77 86.94 385.44 87.81 386.35 88.42C387.25 89.03 388.37 89.34 389.7 89.34C391.03 89.34 392.17 89.03 393.07 88.42Z" fill="white"/>
<path d="M404.18 71.54H407.73V76.11H408.06C408.6 74.89 409.15 73.92 409.71 73.19C410.27 72.47 410.88 71.95 411.56 71.62C412.23 71.29 413.02 71.13 413.91 71.13C414.17 71.13 414.43 71.15 414.71 71.18C414.98 71.21 415.22 71.27 415.42 71.35V75.39C415.15 75.31 414.81 75.24 414.4 75.2C413.99 75.15 413.58 75.13 413.18 75.13C412.05 75.13 411.1 75.33 410.32 75.74C409.54 76.15 408.95 76.74 408.55 77.52C408.15 78.3 407.95 79.24 407.95 80.34V92.19H404.2V71.54H404.18Z" fill="white"/>
<path d="M430.99 91.24C429.63 90.34 428.57 89.07 427.8 87.44C427.03 85.81 426.65 83.95 426.65 81.87C426.65 79.79 427.03 77.92 427.8 76.28C428.57 74.64 429.63 73.38 430.99 72.48C432.35 71.58 433.89 71.12 435.62 71.12C437.06 71.12 438.3 71.47 439.35 72.17C440.4 72.87 441.31 73.96 442.1 75.44H442.43V61.6H446.18V92.18H442.63V88.02H442.3C441.46 89.6 440.5 90.75 439.44 91.49C438.37 92.22 437.09 92.59 435.6 92.59C433.89 92.59 432.35 92.14 430.99 91.23V91.24ZM439.97 88.42C440.86 87.81 441.53 86.94 441.97 85.82C442.41 84.7 442.63 83.38 442.63 81.88C442.63 80.38 442.41 79.04 441.97 77.93C441.53 76.82 440.86 75.95 439.97 75.34C439.08 74.73 437.98 74.42 436.66 74.42C435.34 74.42 434.23 74.72 433.34 75.34C432.45 75.96 431.78 76.82 431.34 77.93C430.9 79.04 430.69 80.36 430.69 81.88C430.69 83.4 430.91 84.7 431.35 85.82C431.79 86.94 432.46 87.81 433.35 88.42C434.24 89.03 435.34 89.34 436.66 89.34C437.98 89.34 439.08 89.03 439.97 88.42Z" fill="white"/>
<path d="M455.31 91.24C453.79 90.34 452.61 89.07 451.77 87.45C450.93 85.83 450.52 83.96 450.52 81.85C450.52 79.74 450.93 77.9 451.76 76.27C452.59 74.65 453.75 73.38 455.26 72.48C456.76 71.58 458.5 71.12 460.47 71.12C462.44 71.12 464.12 71.57 465.59 72.46C467.06 73.35 468.19 74.59 468.99 76.19C469.79 77.79 470.19 79.62 470.19 81.68V83.01H454.57C454.66 84.32 454.95 85.44 455.43 86.38C455.91 87.32 456.57 88.06 457.44 88.57C458.3 89.09 459.35 89.34 460.57 89.34C461.79 89.34 462.83 89.08 463.69 88.57C464.55 88.05 465.21 87.31 465.67 86.35L469.67 86.7C469.21 87.91 468.54 88.96 467.66 89.84C466.78 90.72 465.74 91.4 464.53 91.88C463.32 92.36 462 92.59 460.57 92.59C458.59 92.59 456.83 92.14 455.31 91.23V91.24ZM466.22 80.02C466.02 78.24 465.44 76.85 464.49 75.86C463.54 74.87 462.21 74.37 460.51 74.37C458.81 74.37 457.42 74.87 456.43 75.86C455.44 76.85 454.84 78.24 454.64 80.02H466.22Z" fill="white"/>
<path d="M266.85 110.41C267.97 109.63 269.31 109.24 270.86 109.24C272.18 109.24 273.31 109.52 274.25 110.1C275.19 110.68 275.92 111.52 276.42 112.66C276.92 113.8 277.17 115.18 277.17 116.81V130.57H271.3V117.68C271.3 116.42 271 115.45 270.39 114.79C269.78 114.12 268.92 113.79 267.79 113.79C266.54 113.79 265.57 114.2 264.88 115C264.19 115.81 263.85 116.95 263.85 118.44V130.57H257.98V117.68C257.98 116.42 257.68 115.45 257.07 114.79C256.46 114.12 255.6 113.79 254.47 113.79C253.22 113.79 252.25 114.2 251.56 115C250.87 115.81 250.53 116.95 250.53 118.44V130.57H244.66V109.65H250.33V114.03H250.66C251.5 112.41 252.48 111.21 253.59 110.42C254.7 109.63 256.01 109.24 257.54 109.24C259.07 109.24 260.42 109.65 261.45 110.46C262.48 111.27 263.18 112.46 263.55 114.03H263.88C264.74 112.4 265.73 111.19 266.85 110.41Z" fill="#00E47C"/>
<path d="M285.66 129.58C284.02 128.66 282.74 127.37 281.84 125.73C280.94 124.09 280.48 122.21 280.48 120.1C280.48 117.99 280.92 116.14 281.82 114.48C282.71 112.83 283.96 111.54 285.57 110.62C287.18 109.7 289.03 109.24 291.11 109.24C293.19 109.24 294.99 109.7 296.55 110.62C298.11 111.54 299.32 112.82 300.17 114.45C301.02 116.08 301.44 117.95 301.44 120.05V121.76H286.64C286.8 123.28 287.26 124.48 288.01 125.34C288.76 126.2 289.83 126.63 291.23 126.63C292.17 126.63 292.97 126.43 293.64 126.04C294.31 125.65 294.82 125.08 295.17 124.35L301.04 124.84C300.56 126.16 299.85 127.28 298.91 128.19C297.96 129.11 296.85 129.8 295.57 130.27C294.29 130.74 292.89 130.97 291.38 130.97C289.22 130.97 287.32 130.51 285.67 129.58H285.66ZM295.39 117.82C295.25 116.5 294.85 115.47 294.17 114.72C293.49 113.97 292.49 113.6 291.17 113.6C289.85 113.6 288.83 113.97 288.09 114.72C287.36 115.47 286.89 116.5 286.68 117.82H295.39Z" fill="#00E47C"/>
<path d="M308.37 129.57C307.1 128.64 306.11 127.35 305.39 125.71C304.68 124.07 304.32 122.21 304.32 120.14C304.32 118.07 304.67 116.19 305.38 114.53C306.09 112.87 307.08 111.57 308.35 110.64C309.62 109.7 311.06 109.23 312.68 109.23C314.13 109.23 315.39 109.61 316.46 110.38C317.53 111.15 318.38 112.27 319.02 113.75H319.35V99.97H325.22V130.55H319.55V126.19H319.22C318.43 127.79 317.51 128.99 316.45 129.78C315.39 130.57 314.14 130.96 312.7 130.96C311.08 130.96 309.64 130.49 308.37 129.56V129.57ZM318.46 124.73C319.19 123.6 319.55 122.06 319.55 120.1C319.55 118.14 319.19 116.6 318.46 115.47C317.73 114.34 316.59 113.78 315.02 113.78C313.45 113.78 312.31 114.35 311.57 115.47C310.84 116.6 310.47 118.14 310.47 120.1C310.47 122.06 310.84 123.6 311.57 124.73C312.3 125.86 313.45 126.42 315.02 126.42C316.59 126.42 317.73 125.86 318.46 124.73Z" fill="#00E47C"/>
<path d="M330.33 106.91C329.77 106.6 329.33 106.16 329.01 105.6C328.69 105.04 328.53 104.4 328.53 103.68C328.53 102.96 328.69 102.32 329.01 101.76C329.33 101.2 329.77 100.77 330.33 100.46C330.89 100.15 331.52 99.99 332.23 99.99C332.94 99.99 333.57 100.15 334.13 100.46C334.69 100.77 335.12 101.21 335.43 101.76C335.74 102.32 335.9 102.96 335.9 103.68C335.9 104.4 335.74 105.04 335.43 105.6C335.12 106.16 334.68 106.59 334.13 106.91C333.57 107.22 332.94 107.38 332.23 107.38C331.52 107.38 330.89 107.22 330.33 106.91ZM329.29 109.64H335.16V130.56H329.29V109.64Z" fill="#00E47C"/>
<path d="M343.73 129.58C342.11 128.66 340.86 127.37 339.97 125.73C339.08 124.09 338.63 122.21 338.63 120.1C338.63 117.99 339.07 116.12 339.97 114.47C340.86 112.83 342.11 111.54 343.73 110.62C345.35 109.7 347.22 109.24 349.34 109.24C350.9 109.24 352.35 109.51 353.67 110.06C355 110.61 356.13 111.43 357.07 112.51C358.01 113.59 358.7 114.9 359.14 116.44L353.37 117.32C353.07 116.19 352.56 115.32 351.84 114.71C351.12 114.1 350.22 113.79 349.13 113.79C347.61 113.79 346.49 114.35 345.78 115.47C345.07 116.59 344.71 118.14 344.71 120.11C344.71 122.08 345.07 123.58 345.78 124.65C346.49 125.72 347.61 126.25 349.13 126.25C350.22 126.25 351.11 125.94 351.82 125.33C352.53 124.72 353.04 123.84 353.35 122.68L359.16 123.58C358.72 125.18 358.03 126.54 357.08 127.65C356.13 128.76 354.99 129.59 353.68 130.15C352.36 130.71 350.91 130.99 349.34 130.99C347.22 130.99 345.35 130.53 343.73 129.6V129.58Z" fill="#00E47C"/>
<path d="M364.25 130.23C363.29 129.73 362.54 129.04 362.01 128.14C361.47 127.24 361.2 126.21 361.2 125.04C361.2 123.1 362.01 121.55 363.63 120.4C365.25 119.25 367.69 118.47 370.95 118.05L374.58 117.58C374.54 116.26 374.23 115.3 373.64 114.69C373.06 114.09 372.16 113.78 370.97 113.78C369.95 113.78 369.13 114 368.5 114.42C367.87 114.85 367.4 115.53 367.07 116.47L361.61 116.02C361.96 114.56 362.57 113.33 363.43 112.32C364.29 111.31 365.39 110.54 366.72 110.02C368.05 109.5 369.59 109.24 371.33 109.24C373.26 109.24 374.9 109.56 376.26 110.2C377.62 110.84 378.66 111.78 379.37 113.02C380.08 114.26 380.44 115.78 380.44 117.56V130.57H374.77V126.21H374.44C373.56 127.84 372.55 129.04 371.42 129.82C370.29 130.59 368.99 130.98 367.51 130.98C366.29 130.98 365.2 130.73 364.24 130.24L364.25 130.23ZM368.06 125.89C368.54 126.25 369.26 126.43 370.21 126.43C371.08 126.43 371.84 126.28 372.5 125.98C373.16 125.68 373.67 125.26 374.03 124.71C374.39 124.16 374.57 123.52 374.57 122.78V121.23L371.8 121.62C370.69 121.77 369.81 121.96 369.17 122.18C368.53 122.4 368.07 122.68 367.77 123.02C367.48 123.35 367.33 123.78 367.33 124.29C367.33 125 367.57 125.53 368.05 125.89H368.06Z" fill="#00E47C"/>
<path d="M406.49 110.41C407.61 109.63 408.95 109.24 410.5 109.24C411.82 109.24 412.95 109.52 413.89 110.1C414.83 110.68 415.56 111.52 416.06 112.66C416.56 113.8 416.81 115.18 416.81 116.81V130.57H410.94V117.68C410.94 116.42 410.64 115.45 410.03 114.79C409.42 114.12 408.56 113.79 407.43 113.79C406.18 113.79 405.21 114.2 404.52 115C403.83 115.81 403.49 116.95 403.49 118.44V130.57H397.62V117.68C397.62 116.42 397.32 115.45 396.71 114.79C396.1 114.12 395.24 113.79 394.11 113.79C392.86 113.79 391.89 114.2 391.2 115C390.51 115.81 390.17 116.95 390.17 118.44V130.57H384.3V109.65H389.97V114.03H390.3C391.14 112.41 392.12 111.21 393.23 110.42C394.34 109.63 395.65 109.24 397.18 109.24C398.71 109.24 400.06 109.65 401.09 110.46C402.12 111.27 402.82 112.46 403.19 114.03H403.52C404.38 112.4 405.37 111.19 406.49 110.41Z" fill="#00E47C"/>
<path d="M425.3 129.58C423.66 128.66 422.38 127.37 421.48 125.73C420.58 124.09 420.12 122.21 420.12 120.1C420.12 117.99 420.56 116.14 421.46 114.48C422.35 112.83 423.6 111.54 425.21 110.62C426.82 109.7 428.67 109.24 430.75 109.24C432.83 109.24 434.63 109.7 436.19 110.62C437.75 111.54 438.96 112.82 439.81 114.45C440.66 116.08 441.08 117.95 441.08 120.05V121.76H426.28C426.44 123.28 426.9 124.48 427.65 125.34C428.4 126.2 429.47 126.63 430.87 126.63C431.81 126.63 432.61 126.43 433.28 126.04C433.95 125.65 434.46 125.08 434.81 124.35L440.68 124.84C440.2 126.16 439.49 127.28 438.55 128.19C437.6 129.11 436.49 129.8 435.21 130.27C433.93 130.74 432.53 130.97 431.02 130.97C428.86 130.97 426.96 130.51 425.31 129.58H425.3ZM435.03 117.82C434.89 116.5 434.49 115.47 433.81 114.72C433.13 113.97 432.13 113.6 430.81 113.6C429.49 113.6 428.47 113.97 427.73 114.72C427 115.47 426.53 116.5 426.32 117.82H435.03Z" fill="#00E47C"/>
<path d="M444.57 109.64H450.24V114.02H450.57C452.28 110.83 454.61 109.23 457.54 109.23C458.89 109.23 460.06 109.54 461.06 110.17C462.06 110.8 462.83 111.69 463.36 112.86C463.9 114.03 464.17 115.42 464.17 117.02V130.56H458.3V117.78C458.3 116.5 457.98 115.52 457.34 114.82C456.7 114.13 455.78 113.78 454.59 113.78C453.72 113.78 452.98 113.96 452.36 114.32C451.74 114.68 451.27 115.21 450.94 115.9C450.61 116.59 450.45 117.44 450.45 118.43V130.56H444.58V109.64H444.57Z" fill="#00E47C"/>
<path d="M472.39 129.86C471.35 129.39 470.58 128.68 470.09 127.72C469.59 126.76 469.35 125.53 469.35 124.02V114.11H465.92V109.65H469.35V104.21H475.22V109.65H480.44V114.11H475.22V123.35C475.22 124.03 475.29 124.55 475.43 124.92C475.57 125.29 475.81 125.55 476.15 125.71C476.49 125.87 476.98 125.94 477.62 125.94H480.43V130.57H476.41C474.77 130.57 473.42 130.34 472.38 129.87L472.39 129.86Z" fill="#00E47C"/>
<path d="M487.39 129.61C485.75 128.71 484.47 127.43 483.56 125.78C482.64 124.13 482.18 122.24 482.18 120.1C482.18 117.96 482.64 116.08 483.56 114.43C484.48 112.79 485.75 111.51 487.39 110.6C489.03 109.69 490.9 109.24 493.01 109.24C495.12 109.24 496.99 109.69 498.63 110.6C500.27 111.51 501.54 112.79 502.45 114.43C503.36 116.08 503.82 117.96 503.82 120.1C503.82 122.24 503.36 124.14 502.45 125.79C501.54 127.44 500.27 128.71 498.64 129.61C497.01 130.51 495.13 130.97 493.01 130.97C490.89 130.97 489.03 130.52 487.39 129.61ZM496.52 124.73C497.27 123.6 497.65 122.06 497.65 120.1C497.65 118.14 497.27 116.6 496.52 115.47C495.77 114.34 494.59 113.78 493 113.78C491.41 113.78 490.23 114.35 489.47 115.47C488.71 116.6 488.33 118.14 488.33 120.1C488.33 122.06 488.71 123.62 489.47 124.74C490.23 125.86 491.41 126.42 493 126.42C494.59 126.42 495.76 125.86 496.52 124.73Z" fill="#00E47C"/>
<path d="M509.63 129.46C508.04 128.45 506.87 126.92 506.12 124.87L511.48 123.83C511.81 124.77 512.33 125.47 513.05 125.93C513.77 126.39 514.7 126.62 515.84 126.62C516.49 126.62 517.07 126.55 517.56 126.41C518.06 126.27 518.44 126.06 518.72 125.78C519 125.5 519.14 125.17 519.14 124.79C519.14 124.35 518.95 123.99 518.57 123.69C518.19 123.39 517.71 123.15 517.12 122.97C516.54 122.79 515.73 122.57 514.69 122.33C513.02 121.92 511.64 121.51 510.56 121.1C509.48 120.68 508.55 120.05 507.77 119.18C506.99 118.32 506.6 117.17 506.6 115.74C506.6 114.43 506.96 113.29 507.68 112.3C508.4 111.31 509.43 110.56 510.77 110.03C512.11 109.5 513.69 109.24 515.51 109.24C517.86 109.24 519.81 109.72 521.36 110.68C522.91 111.64 524.05 113.05 524.79 114.93L519.57 116.09C519.23 115.27 518.69 114.66 517.96 114.24C517.23 113.82 516.31 113.61 515.21 113.61C514.27 113.61 513.55 113.75 513.04 114.03C512.53 114.31 512.28 114.71 512.28 115.22C512.28 115.66 512.47 116.02 512.85 116.3C513.23 116.58 513.71 116.81 514.29 116.98C514.87 117.15 515.68 117.35 516.73 117.58C518.44 117.98 519.85 118.37 520.96 118.78C522.07 119.19 523.03 119.83 523.83 120.72C524.64 121.6 525.04 122.79 525.04 124.27C525.04 125.67 524.65 126.88 523.87 127.89C523.09 128.9 522 129.67 520.6 130.19C519.2 130.71 517.58 130.98 515.73 130.98C513.26 130.98 511.22 130.48 509.63 129.47V129.46Z" fill="#00E47C"/>
<path d="M155.9 98.04C155.66 98.04 155.46 97.86 155.45 97.62C155.45 97.58 155.18 93.62 155.42 90.23C155.66 86.72 157.58 84.41 160.32 84.34C163.07 84.26 165.12 86.1 165.24 88.7C165.44 93.04 165.44 97.41 165.44 97.46C165.44 97.71 165.24 97.91 164.99 97.91C164.74 97.91 164.54 97.71 164.54 97.46C164.54 97.41 164.54 93.07 164.34 88.75C164.24 86.63 162.6 85.19 160.35 85.25C157.64 85.32 156.5 87.9 156.34 90.29C156.11 93.61 156.37 97.51 156.37 97.55C156.39 97.8 156.2 98.02 155.95 98.04H155.92" fill="#00E47C"/>
<path d="M154.98 97.34L165.58 97.5L165.5 104.56C165.5 104.56 165.56 109.66 160.68 109.37C156.43 109.12 154.98 108.32 154.84 104.49C154.7 100.67 154.98 97.34 154.98 97.34Z" fill="#00E47C"/>
<path d="M153.14 53.26C153.14 53.26 157.85 56.08 160.37 58.85C162.89 61.61 163.37 62.91 164.85 61.55C166.33 60.19 169.33 57.5 167.57 55.58C165.81 53.66 158 46.49 158 46.49C158 46.49 156.67 45.07 154.64 46.86C152.16 49.04 151.9 49.44 151.9 49.44C151.9 49.44 150.32 50.85 153.14 53.25" fill="#00E47C"/>
<path d="M139.14 97.89C138.11 97.89 137.19 97.44 136.66 97.04C136.26 96.76 126.38 89.94 123.1 86.66C119.55 83.11 122.95 79.28 122.98 79.24C123.62 78.41 139.08 58.26 140.23 56.89C141.43 55.46 142.86 54.01 146.12 53.3C148.58 52.76 150.23 53.54 150.95 54L152.86 51.45C153.01 51.25 153.29 51.21 153.5 51.36C153.7 51.51 153.74 51.79 153.59 52L151.41 54.91C151.33 55.01 151.21 55.08 151.09 55.09C150.97 55.1 150.84 55.06 150.74 54.98C150.68 54.93 149.13 53.58 146.31 54.2C143.33 54.85 142.07 56.13 140.92 57.49C139.78 58.85 123.83 79.64 123.67 79.85C123.53 80.01 120.8 83.11 123.73 86.04C126.95 89.26 137.09 96.26 137.19 96.33C137.3 96.41 139.42 97.99 141.15 96.02C143.16 93.73 161.65 70.38 161.84 70.15C161.94 70.03 164.12 67.29 161.14 63.56C161.13 63.54 161.11 63.52 161.1 63.5C160.58 62.58 162.19 60.9 163.63 59.65C163.82 59.49 164.1 59.51 164.27 59.7C164.43 59.89 164.41 60.17 164.22 60.34C162.98 61.42 161.91 62.67 161.9 63.06C165.29 67.36 162.58 70.69 162.55 70.72C161.8 71.67 143.87 94.31 141.84 96.62C140.99 97.59 140.03 97.92 139.14 97.92" fill="#00E47C"/>
<path d="M86.7002 174.15C85.4502 174.15 84.2602 173.71 83.3102 172.89L79.9202 169.97C77.7402 168.09 77.4902 164.79 79.3702 162.62L120.07 115.34C98.5302 96.94 98.8602 68.62 110.38 50.04C125.25 26.07 156.85 18.65 180.82 33.52C192.43 40.72 200.55 52.02 203.67 65.32C206.79 78.62 204.54 92.35 197.34 103.96C187.74 119.44 171.04 128.16 153.82 128.16C146.7 128.16 139.5 126.67 132.66 123.55L90.6502 172.33C89.7402 173.38 88.4702 174.02 87.0902 174.13C86.9602 174.14 86.8302 174.14 86.6902 174.14M153.95 26.76C137.12 26.76 120.66 35.19 111.16 50.52C99.7802 68.87 99.5102 96.89 121.01 114.95C121.1 115.03 121.16 115.14 121.17 115.26C121.17 115.38 121.14 115.5 121.06 115.59L80.0602 163.21C78.5102 165.01 78.7202 167.73 80.5102 169.28L83.9002 172.2C84.7702 172.95 85.8902 173.31 87.0302 173.23C88.1802 173.15 89.2202 172.62 89.9802 171.75L132.21 122.71C132.34 122.55 132.56 122.51 132.74 122.59C155.75 133.29 183.19 125.07 196.57 103.49C203.64 92.08 205.85 78.6 202.79 65.53C199.73 52.46 191.76 41.37 180.35 34.29C172.12 29.19 162.98 26.76 153.95 26.76Z" fill="#00E47C"/>
<path d="M154.23 119.36C146.47 119.36 138.84 117.2 132.07 113.01C122.49 107.07 115.8 97.76 113.23 86.78C110.66 75.81 112.51 64.49 118.45 54.91C130.71 35.14 156.77 29.03 176.55 41.29C186.13 47.23 192.82 56.55 195.39 67.52C197.96 78.49 196.11 89.81 190.17 99.39C184.23 108.97 174.92 115.66 163.94 118.23C160.72 118.99 157.46 119.36 154.23 119.36ZM154.38 35.87C140.55 35.87 127.03 42.8 119.22 55.39C113.41 64.76 111.59 75.84 114.11 86.57C116.63 97.31 123.18 106.42 132.55 112.23C141.92 118.04 153 119.86 163.73 117.34C174.47 114.82 183.58 108.27 189.39 98.9C195.2 89.53 197.02 78.45 194.5 67.72C191.98 56.98 185.43 47.87 176.06 42.06C169.3 37.87 161.79 35.87 154.37 35.87" fill="#00E47C"/>
</g>
</g>
<defs>
<clipPath id="clip0_20_7006">
<rect width="600" height="200" fill="white"/>
</clipPath>
<clipPath id="clip1_20_7006">
<rect width="478.93" height="226" fill="white" transform="translate(61 -13)"/>
</clipPath>
</defs>
</svg>
