<svg width="600" height="200" viewBox="0 0 600 200" fill="none" xmlns="http://www.w3.org/2000/svg">
<path d="M304.51 25.85C293.96 25.85 285.41 34.4 285.41 44.95C285.41 55.5 293.96 64.05 304.51 64.05C315.06 64.05 323.61 55.5 323.61 44.95C323.61 34.4 315.06 25.85 304.51 25.85Z" fill="#00E47C"/>
<path d="M197.17 78.37C197.01 78.37 196.86 78.3 196.75 78.18C193.77 74.71 196.11 70.15 196.2 69.96C196.27 69.83 196.39 69.73 196.52 69.69L207.83 66.16C208.12 66.07 208.43 66.23 208.52 66.52C208.61 66.81 208.45 67.12 208.16 67.21L197.09 70.67C196.73 71.49 195.51 74.7 197.37 77.2C200.17 76.44 207.79 74.54 207.86 74.52C208.15 74.45 208.45 74.63 208.53 74.92C208.6 75.22 208.42 75.51 208.13 75.59C208.05 75.61 199.74 77.67 197.32 78.35C197.27 78.37 197.22 78.37 197.17 78.37Z" fill="#00E47C"/>
<path d="M258.18 174.14C252.88 174.14 246.01 173.17 237.04 170.05C223.07 165.19 212.58 154.49 209.89 148.78C207.17 143 206.3 136.89 205.53 131.5C205.06 128.19 204.65 125.34 203.89 123.05C198.58 112.44 197.9 107 198.46 100.15C199 93.58 202.98 83.89 206.45 78.1C209.09 73.68 207.26 64.31 206.64 61.54L206.61 61.41C206.45 60.72 206.23 59.79 206.84 59.1C209.4 56.19 214.73 56.66 217.2 57.32C219.82 58.01 220.33 59.11 220.4 59.32C220.41 59.35 220.42 59.39 220.43 59.43L221.42 66.3C224.46 61.38 229.38 58.33 230.73 57.56L229.29 47.28C229.29 47.22 229.29 47.17 229.29 47.11C229.32 46.92 229.7 45.26 233.2 44.56C236.71 43.86 238.27 45.68 238.33 45.76C238.4 45.84 238.44 45.94 238.45 46.05L239.48 55.37L240.51 55.31L242.35 45.74C242.38 45.55 242.51 45.4 242.69 45.33C244.98 44.41 247.05 45.05 248.08 45.51C248.47 45.68 248.7 46.09 248.66 46.51L248.5 48.16L250.26 48.49C250.84 48.61 251.21 49.15 251.13 49.72L249.9 56.61L251.77 57.58C256.08 60.47 256.57 65.5 256.61 67.25C257.6 67.19 259.67 67.05 261.61 66.84C263.45 66.64 265.19 67.14 266.41 68.2C267.51 69.17 268.11 70.57 268.14 72.23C268.22 76.38 264.35 77.79 264.31 77.81C264.26 77.83 264.22 77.84 264.17 77.84L260.31 78.12C261.94 78.53 263.79 79.23 265.47 80.54C269.7 83.84 269.59 88.09 269.46 92.59L269.44 93.26C269.32 97.88 269.39 98.75 272.25 102.64C278.42 109.81 282.27 118.65 283.03 122.62C283.16 123.28 283.41 124.1 283.7 125.04C284.99 129.2 287.15 136.17 284.95 149.03C282.63 162.65 276.88 170.7 267.86 172.96C265.41 173.57 262.26 174.15 258.16 174.15M213.17 57.91C211.13 57.91 208.94 58.36 207.65 59.82C207.42 60.09 207.54 60.63 207.67 61.16L207.7 61.3C208.53 64.98 210.16 74.03 207.39 78.67C203.98 84.35 200.08 93.85 199.55 100.25C199 106.91 199.68 112.2 204.88 122.61C204.88 122.63 204.9 122.66 204.91 122.68C205.71 125.07 206.14 128.12 206.6 131.36C207.36 136.67 208.22 142.7 210.87 148.33C213.48 153.87 223.71 164.28 237.38 169.03C249.43 173.22 258.75 174.11 267.59 171.9C276.27 169.73 281.59 162.19 283.86 148.85C286.01 136.25 283.9 129.44 282.64 125.37C282.34 124.4 282.08 123.56 281.94 122.83C281.2 118.98 277.44 110.38 271.38 103.33C268.29 99.15 268.21 98 268.33 93.24L268.35 92.57C268.47 88.17 268.57 84.38 264.78 81.42C262.08 79.32 258.79 78.9 257.02 78.67C256.63 78.62 256.3 78.58 256.06 78.53C255.79 78.48 255.55 78.17 255.57 77.9C255.59 77.59 255.83 77.34 256.14 77.32L264 76.76C264.46 76.58 267.09 75.39 267.03 72.27C267 70.9 266.55 69.81 265.67 69.04C264.7 68.19 263.22 67.78 261.72 67.94C259.04 68.23 256.11 68.38 256.07 68.39C255.93 68.39 255.76 68.34 255.65 68.23C255.54 68.12 255.48 67.97 255.49 67.81C255.49 67.75 255.79 61.62 251.2 58.53L249.02 57.41C248.81 57.3 248.69 57.06 248.73 56.83L250.03 49.56L247.78 49.17C247.5 49.12 247.31 48.86 247.33 48.58L247.53 46.5C246.68 46.13 245.1 45.67 243.35 46.27L241.49 55.96C241.44 56.21 241.24 56.39 240.98 56.41L239 56.53C238.71 56.55 238.45 56.33 238.42 56.04L237.35 46.39C237 46.08 235.78 45.19 233.38 45.67C231.02 46.14 230.47 47.03 230.36 47.28L231.83 57.8C231.83 57.8 231.83 57.83 231.83 57.85C231.83 57.95 231.81 58.05 231.77 58.13C231.73 58.21 231.66 58.29 231.57 58.34C231.57 58.34 231.56 58.34 231.55 58.35C231.48 58.39 224.82 62.15 221.55 68.26C221.41 68.53 221.07 68.63 220.8 68.48C220.57 68.35 220.46 68.09 220.53 67.84C220.49 67.76 220.46 67.68 220.45 67.59L219.31 59.68C219.23 59.55 218.72 58.88 216.88 58.4C215.95 58.15 214.59 57.93 213.14 57.93" fill="#00E47C"/>
<path d="M212.36 167.46C208.08 167.46 206.97 165.17 206.93 165.07C206.9 165 206.88 164.92 206.88 164.84V139.45C206.88 139.14 207.13 138.9 207.43 138.9C207.73 138.9 207.98 139.15 207.98 139.45V164.69C208.23 165.08 209.45 166.58 213.19 166.33C216.85 166.08 218.15 164.86 218.45 164.5V158.83C218.45 158.52 218.7 158.28 219 158.28C219.3 158.28 219.55 158.53 219.55 158.83V164.68C219.55 164.77 219.53 164.87 219.48 164.95C219.43 165.04 218.22 167.09 213.26 167.43C212.94 167.45 212.64 167.46 212.35 167.46" fill="#00E47C"/>
<path d="M227.73 173.61C222.93 173.61 222.06 170.65 222.02 170.52C222.01 170.47 222 170.43 222 170.38V161.68C222 161.37 222.25 161.13 222.55 161.13C222.85 161.13 223.1 161.38 223.1 161.68V170.29C223.24 170.67 224.2 172.68 228.24 172.5C232.12 172.32 233.23 170.98 233.45 170.64V168.28C233.45 167.98 233.7 167.73 234 167.73C234.3 167.73 234.55 167.98 234.55 168.28V170.78C234.55 170.85 234.53 170.92 234.51 170.98C234.41 171.22 233.42 173.35 228.29 173.59C228.1 173.59 227.91 173.6 227.73 173.6" fill="#00E47C"/>
<path d="M216.85 81.74C216.85 81.74 216.81 81.74 216.78 81.74C216.48 81.7 216.26 81.43 216.3 81.13C216.33 80.93 218.96 60.95 234.4 56.41C234.75 56.25 237 55.31 240.96 55.28C241.26 55.28 241.51 55.52 241.51 55.83C241.51 56.13 241.27 56.38 240.96 56.38C237 56.41 234.84 57.41 234.82 57.42C234.79 57.43 234.76 57.44 234.74 57.45C219.97 61.76 217.41 81.06 217.38 81.25C217.35 81.53 217.11 81.73 216.84 81.73" fill="#00E47C"/>
<path d="M233.86 102.07C231.12 102.07 228.84 101.44 227.03 100.19C223.14 97.5 222.94 92.97 222.94 92.77C222.94 92.67 222.96 92.58 223.01 92.49C223.13 92.26 235.15 70.06 256 67.27C256.31 67.22 256.58 67.44 256.62 67.74C256.66 68.04 256.45 68.32 256.15 68.36C236.71 70.96 225.09 91.02 224.06 92.87C224.13 93.62 224.61 97.17 227.68 99.28C230.96 101.54 236.05 101.52 242.81 99.22C243.1 99.12 243.41 99.28 243.51 99.56C243.61 99.85 243.46 100.16 243.17 100.26C239.66 101.46 236.56 102.05 233.89 102.05" fill="#00E47C"/>
<path d="M285.32 137.46H285.3C284.99 137.46 284.76 137.2 284.77 136.89C284.79 136.45 284.98 126.13 272.77 122.12C269.9 121.18 267.23 120.41 264.65 119.66C254.21 116.64 246.66 114.46 243.58 105.92C240.41 97.13 244.59 87.35 244.77 86.94C244.77 86.91 247.82 77.1 258.88 77.1C259.21 77.1 259.49 77.33 259.49 77.65C259.49 77.96 259.24 78.2 258.94 78.2H258.88C248.62 78.2 245.82 87.23 245.8 87.32C245.73 87.48 241.6 97.18 244.61 105.55C247.5 113.57 254.82 115.68 264.95 118.61C267.54 119.36 270.22 120.13 273.11 121.08C286.13 125.35 285.87 136.81 285.87 136.93C285.86 137.23 285.62 137.46 285.32 137.46Z" fill="#00E47C"/>
<path d="M195.57 97.99C194.22 97.99 193.24 97.46 192.6 96.38C192.14 95.61 192.03 94.6499 192.3 93.7499C192.58 92.8299 193.22 92.08 194.06 91.67C195.04 91.2 197.41 90.89 199.42 90.7L196.4 88.81C196.4 88.81 194.75 87.8799 194.34 86.3299C194.13 85.5199 194.28 84.7099 194.77 83.9099C195.33 83.0099 196.04 82.4699 196.88 82.2999C198.18 82.0399 199.29 82.7999 199.33 82.8299L203.48 85.2999C203.74 85.4499 203.83 85.7899 203.67 86.0499C203.52 86.3099 203.18 86.4 202.92 86.24L198.74 83.7499C198.74 83.7499 197.93 83.2 197.1 83.38C196.57 83.49 196.11 83.86 195.72 84.49C195.38 85.03 195.28 85.5399 195.41 86.0499C195.69 87.1399 196.95 87.8599 196.96 87.8699L200.48 90.0699C200.82 90.2799 200.98 90.68 200.89 91.06C200.8 91.45 200.48 91.7199 200.08 91.7499C197.27 91.9799 195.26 92.32 194.54 92.66C193.97 92.93 193.54 93.44 193.35 94.06C193.17 94.66 193.24 95.3 193.54 95.81C194.01 96.59 194.81 97.2999 197.25 96.6199L199.44 96.0099C199.73 95.9299 200.04 96.0999 200.12 96.3899C200.2 96.6799 200.03 96.9899 199.74 97.0699L197.55 97.6799C196.82 97.8799 196.16 97.9799 195.58 97.9799" fill="#00E47C"/>
<path d="M263.63 77.26C261.12 77.26 259.09 75.11 259.09 72.47C259.09 69.83 261.13 67.68 263.63 67.68C266.13 67.68 268.17 69.83 268.17 72.47C268.17 75.11 266.13 77.26 263.63 77.26ZM263.63 68.79C261.73 68.79 260.19 70.44 260.19 72.48C260.19 74.52 261.73 76.17 263.63 76.17C265.53 76.17 267.07 74.52 267.07 72.48C267.07 70.44 265.53 68.79 263.63 68.79Z" fill="#00E47C"/>
<path d="M268.8 88.0699C268.64 88.0699 268.48 88 268.37 87.87C268.18 87.63 268.22 87.29 268.45 87.1L272.74 83.6099C272.81 83.5499 274.41 82.2299 273.38 80.4299C272.37 78.6699 270.4 79.72 270.31 79.77L266.16 82.0699C265.89 82.2199 265.56 82.1199 265.41 81.8599C265.26 81.5899 265.36 81.2599 265.62 81.1099L269.77 78.81C270.81 78.24 273.09 77.7399 274.32 79.8899C275.52 81.9899 274.25 83.8099 273.41 84.4699L269.13 87.9599C269.03 88.0399 268.91 88.0799 268.78 88.0799" fill="#00E47C"/>
<path d="M273.49 94.39C273.12 94.39 272.86 94.34 272.84 94.34L268.79 93.45C268.49 93.38 268.31 93.09 268.37 92.79C268.44 92.49 268.73 92.31 269.03 92.37L273.06 93.26C273.06 93.26 274.1 93.45 274.84 92.9C275.27 92.58 275.53 92.04 275.6 91.3C275.69 90.39 275.51 89.67 275.06 89.16C274.27 88.27 272.9 88.24 272.88 88.24L269.16 87.93C268.86 87.9 268.63 87.64 268.66 87.34C268.69 87.04 268.96 86.81 269.25 86.84L272.93 87.15C272.99 87.17 274.75 87.18 275.87 88.42C276.54 89.17 276.82 90.18 276.69 91.41C276.58 92.47 276.17 93.27 275.48 93.78C274.81 94.28 274.02 94.38 273.48 94.38" fill="#00E47C"/>
<path d="M246.77 56.82C246.77 56.82 246.72 56.82 246.69 56.82C246.39 56.78 246.18 56.5 246.23 56.19L247.37 48.53C247.41 48.23 247.7 48.03 248 48.07C248.3 48.11 248.51 48.39 248.46 48.7L247.32 56.36C247.28 56.63 247.04 56.83 246.78 56.83" fill="#00E47C"/>
<path d="M233.15 48.85C230.23 48.85 229.45 47.61 229.36 47.46C229.21 47.2 229.31 46.86 229.57 46.71C229.83 46.57 230.16 46.65 230.31 46.91C230.34 46.96 231.13 48 234.24 47.7C236.73 47.45 237.37 46.69 237.4 46.42C237.4 46.11 237.63 45.88 237.93 45.87H237.94C238.24 45.87 238.48 46.12 238.49 46.42C238.49 46.62 238.43 48.38 234.34 48.79C233.91 48.83 233.51 48.85 233.14 48.85" fill="#00E47C"/>
<path d="M256.06 157.36C255.94 157.36 255.82 157.32 255.72 157.24C251.9 154.25 253.3 147.16 254.32 141.98L254.5 141.08C255.19 137.62 255.84 134.34 255.52 132.18C254.85 127.72 248.6 123.64 243.59 120.37C242.03 119.35 240.55 118.39 239.44 117.53C234.73 113.9 233.52 101.78 233.47 101.27C233.44 100.97 233.66 100.7 233.97 100.67C234.27 100.64 234.54 100.86 234.57 101.17C234.58 101.29 235.79 113.33 240.12 116.67C241.2 117.5 242.65 118.45 244.2 119.46C249.4 122.85 255.88 127.08 256.62 132.03C256.98 134.38 256.31 137.75 255.59 141.31L255.41 142.2C254.2 148.31 253.37 154 256.41 156.38C256.65 156.57 256.69 156.91 256.5 157.15C256.39 157.29 256.23 157.36 256.07 157.36" fill="#00E47C"/>
<path d="M259.63 147.95C259.51 147.95 256.67 147.89 255.14 146.02C254.29 144.99 254.02 143.63 254.33 141.99C254.38 141.69 254.67 141.49 254.97 141.55C255.27 141.61 255.46 141.89 255.41 142.19C255.17 143.5 255.36 144.55 255.99 145.31C257.19 146.79 259.63 146.84 259.66 146.84C259.96 146.84 260.2 147.09 260.2 147.4C260.2 147.7 259.95 147.94 259.65 147.94" fill="#00E47C"/>
<path d="M229.84 146.77C229.71 146.77 229.59 146.73 229.49 146.64C229.26 146.45 229.23 146.1 229.42 145.87C230.84 144.17 231.84 136.44 232.64 130.23C232.89 128.31 233.12 126.51 233.35 124.96C234.41 117.95 248.87 112.81 249.48 112.6C249.77 112.5 250.08 112.65 250.18 112.94C250.28 113.23 250.13 113.54 249.84 113.64C249.7 113.69 235.39 118.77 234.43 125.13C234.2 126.66 233.97 128.47 233.72 130.38C232.86 137.06 231.88 144.64 230.25 146.58C230.14 146.71 229.99 146.78 229.83 146.78" fill="#00E47C"/>
<path d="M268.9 135.01C268.7 135.01 268.5 134.9 268.41 134.7C265.77 129.42 252.21 126.6 252.08 126.57C251.78 126.51 251.59 126.22 251.65 125.92C251.71 125.62 252.01 125.44 252.3 125.49C252.88 125.61 266.53 128.45 269.4 134.21C269.54 134.48 269.43 134.81 269.15 134.95C269.07 134.99 268.99 135.01 268.9 135.01Z" fill="#00E47C"/>
<path d="M222.55 117.95C222.37 117.95 222.19 117.86 222.09 117.7C216.11 108.63 199.21 107.83 199.04 107.82C198.73 107.81 198.5 107.55 198.51 107.25C198.52 106.95 198.78 106.69 199.08 106.72C199.8 106.75 216.72 107.56 223 117.1C223.17 117.35 223.1 117.69 222.84 117.86C222.75 117.92 222.64 117.95 222.54 117.95" fill="#00E47C"/>
<path d="M283.31 103.51H271.82C271.52 103.51 271.27 103.26 271.27 102.96C271.27 102.66 271.52 102.41 271.82 102.41H283.31C296.63 102.41 307.47 91.57 307.47 78.25V64.04C307.47 63.74 307.72 63.49 308.02 63.49C308.32 63.49 308.57 63.74 308.57 64.04V78.25C308.57 92.18 297.24 103.51 283.31 103.51Z" fill="#00E47C"/>
<path d="M225.52 140H180.74C180.44 140 180.19 139.75 180.19 139.45C180.19 139.15 180.44 138.9 180.74 138.9H225.52C225.83 138.9 226.07 139.15 226.07 139.45C226.07 139.75 225.82 140 225.52 140Z" fill="#00E47C"/>
<path d="M165.07 117.81C154.52 117.81 145.97 126.36 145.97 136.91C145.97 147.46 154.52 156.01 165.07 156.01C175.62 156.01 184.17 147.46 184.17 136.91C184.17 126.36 175.62 117.81 165.07 117.81Z" fill="#00E47C"/>
<path d="M302.86 56.64C302.86 56.64 302.78 56.64 302.74 56.62C302.55 56.56 302.44 56.35 302.51 56.15C305.9 46.04 308.94 34.66 307.94 33.92C306.44 33.64 303.66 37.11 302.26 39.35C302.15 39.52 301.93 39.57 301.76 39.47C301.59 39.36 301.53 39.14 301.64 38.96C302.04 38.32 305.6 32.76 308.09 33.2C308.24 33.23 308.45 33.32 308.61 33.58C310 35.95 303.92 54.3 303.22 56.39C303.17 56.54 303.03 56.64 302.87 56.64" fill="#08312A"/>
<path d="M162.32 147.19C161.62 147.19 160.93 147.16 160.29 147.08C159.56 147 159.12 146.72 158.97 146.27C158.56 145.05 160.53 143.09 164.04 139.73C167.52 136.4 171.86 132.25 171.41 129.88C171.28 129.22 170.79 128.72 169.88 128.35C161.9 125.07 159.11 130.9 158.99 131.15C158.91 131.34 158.68 131.41 158.5 131.33C158.32 131.25 158.24 131.03 158.32 130.85C158.35 130.78 161.51 124.12 170.15 127.68C171.29 128.15 171.95 128.85 172.12 129.75C172.64 132.52 168.34 136.64 164.54 140.27C162.12 142.58 159.38 145.2 159.66 146.05C159.73 146.26 160.14 146.34 160.38 146.37C166.53 147.09 176.53 143.76 176.63 143.73C176.82 143.67 177.03 143.77 177.1 143.96C177.16 144.15 177.06 144.36 176.87 144.43C176.5 144.56 168.53 147.21 162.33 147.21" fill="#08312A"/>
<path d="M373.25 85.725H379.84L389.46 115.085H385.26L382.53 106.465H370.38L367.65 115.085H363.61L373.25 85.725ZM381.41 102.995L376.62 87.865H376.25L371.48 102.995H381.41Z" fill="white"/>
<path d="M395.36 114.495C394.48 114.105 393.86 113.495 393.49 112.675C393.12 111.855 392.94 110.765 392.94 109.405V97.705H389.31V94.445H392.94V89.455H396.69V94.445H402.48V97.705H396.69V109.265C396.69 109.905 396.75 110.405 396.88 110.765C397.01 111.125 397.26 111.395 397.62 111.555C397.99 111.725 398.52 111.815 399.21 111.815H402.47V115.095H398.96C397.42 115.095 396.22 114.895 395.34 114.505L395.36 114.495Z" fill="white"/>
<path d="M408.59 114.575C407.78 114.235 407.19 113.695 406.83 112.965C406.47 112.235 406.28 111.255 406.28 110.025V84.495H410.03V109.675C410.03 110.215 410.1 110.645 410.24 110.945C410.38 111.255 410.61 111.465 410.93 111.595C411.25 111.725 411.69 111.785 412.27 111.785H413.8V115.065H411.84C410.48 115.065 409.4 114.895 408.59 114.555V114.575Z" fill="white"/>
<path d="M418.99 114.765C418.06 114.285 417.33 113.605 416.8 112.735C416.27 111.865 416 110.865 416 109.735C416 107.925 416.71 106.465 418.13 105.355C419.55 104.245 421.67 103.485 424.5 103.095L429.47 102.385C429.44 101.185 429.26 100.215 428.93 99.465C428.6 98.715 428.11 98.165 427.47 97.815C426.83 97.465 426.02 97.285 425.02 97.285C423.74 97.285 422.69 97.585 421.86 98.185C421.03 98.785 420.42 99.725 420.02 100.995L416.33 100.685C416.68 99.275 417.25 98.065 418.04 97.075C418.83 96.085 419.82 95.325 421.01 94.805C422.2 94.285 423.57 94.015 425.12 94.015C426.82 94.015 428.27 94.335 429.48 94.975C430.69 95.615 431.61 96.555 432.25 97.785C432.89 99.025 433.21 100.525 433.21 102.295V115.075H429.66V110.915H429.33C428.5 112.385 427.46 113.515 426.2 114.305C424.94 115.095 423.57 115.485 422.09 115.485C420.93 115.485 419.89 115.245 418.96 114.765H418.99ZM420.95 111.485C421.58 111.985 422.47 112.225 423.61 112.225C424.67 112.225 425.65 112.025 426.55 111.625C427.45 111.225 428.16 110.675 428.69 109.975C429.22 109.275 429.49 108.495 429.49 107.645V105.255L425.15 105.905C423.91 106.085 422.92 106.305 422.18 106.585C421.44 106.865 420.89 107.225 420.54 107.665C420.19 108.105 420.01 108.665 420.01 109.325C420.01 110.265 420.33 110.985 420.96 111.475L420.95 111.485Z" fill="white"/>
<path d="M439.94 114.015C438.47 113.025 437.37 111.535 436.67 109.545L440.36 108.875C440.81 110.015 441.48 110.865 442.38 111.425C443.28 111.985 444.41 112.265 445.78 112.265C446.66 112.265 447.43 112.155 448.09 111.925C448.75 111.705 449.26 111.375 449.61 110.955C449.96 110.535 450.14 110.035 450.14 109.465C450.14 108.825 449.92 108.305 449.47 107.905C449.02 107.505 448.46 107.195 447.8 106.965C447.13 106.745 446.2 106.485 445.01 106.205C443.42 105.825 442.12 105.435 441.13 105.055C440.13 104.665 439.27 104.065 438.56 103.265C437.85 102.465 437.49 101.375 437.49 100.035C437.49 98.835 437.81 97.785 438.46 96.885C439.11 95.985 440.02 95.285 441.19 94.785C442.36 94.285 443.73 94.045 445.28 94.045C447.43 94.045 449.23 94.525 450.68 95.495C452.13 96.465 453.19 97.855 453.86 99.675L450.37 100.345C449.96 99.325 449.33 98.565 448.46 98.055C447.6 97.545 446.5 97.285 445.17 97.285C443.93 97.285 442.97 97.505 442.27 97.935C441.58 98.375 441.23 98.985 441.23 99.795C441.23 100.415 441.45 100.935 441.9 101.325C442.35 101.725 442.91 102.025 443.58 102.255C444.25 102.475 445.18 102.725 446.36 102.975C447.99 103.345 449.31 103.715 450.33 104.095C451.35 104.475 452.21 105.075 452.94 105.885C453.67 106.705 454.03 107.805 454.03 109.185C454.03 110.465 453.68 111.585 452.99 112.535C452.3 113.495 451.32 114.225 450.04 114.735C448.77 115.245 447.28 115.505 445.59 115.505C443.29 115.505 441.41 115.015 439.93 114.025L439.94 114.015Z" fill="white"/>
</svg>
