<svg width="600" height="200" viewBox="0 0 600 200" fill="none" xmlns="http://www.w3.org/2000/svg">
<mask id="mask0_61_551" style="mask-type:luminance" maskUnits="userSpaceOnUse" x="79" y="0" width="199" height="200">
<path d="M277.5 0H79.2598V200H277.5V0Z" fill="white"/>
</mask>
<g mask="url(#mask0_61_551)">
<path d="M216.838 63.4471H200.016V51.9175C200.016 50.0958 198.552 48.6228 196.746 48.6189H139.932C138.126 48.6189 136.666 50.0958 136.662 51.9175V133.255C136.666 135.073 138.13 136.546 139.932 136.55H156.754V148.072C156.754 149.894 158.218 151.374 160.023 151.374H216.842C218.647 151.374 220.107 149.898 220.111 148.076V66.7379C220.107 64.9202 218.643 63.4471 216.842 63.4432M139.932 135.077C138.934 135.077 138.122 134.258 138.122 133.251V51.9136C138.122 50.9029 138.93 50.0841 139.932 50.0841H196.746C197.744 50.0841 198.552 50.9029 198.556 51.9097V63.4432H189.617V62.1386C189.617 60.7244 188.479 59.5765 187.077 59.5765H149.601C148.199 59.5765 147.061 60.7244 147.061 62.1386V91.8539C147.061 93.2681 148.199 94.416 149.601 94.4199H156.754V102.51H147.496C147.096 102.51 146.77 102.839 146.77 103.242C146.77 103.646 147.096 103.975 147.496 103.975H156.754V111.223H147.496C147.096 111.223 146.77 111.552 146.77 111.955C146.77 112.359 147.096 112.688 147.496 112.688H156.754V135.081H139.932V135.077ZM218.647 148.072C218.647 149.079 217.839 149.901 216.842 149.901H160.023C159.025 149.901 158.214 149.083 158.214 148.076V66.734C158.214 65.7272 159.025 64.9084 160.023 64.9084H216.842C217.839 64.9084 218.651 65.7272 218.651 66.734V148.072H218.647Z" fill="white"/>
<path d="M207.164 93.5306H169.688C168.286 93.5306 167.148 92.3827 167.148 90.9685V76.9629C167.148 75.5487 168.286 74.4008 169.688 74.4008H207.164C208.566 74.4008 209.704 75.5487 209.704 76.9629V90.9685C209.704 92.3827 208.566 93.5306 207.164 93.5306Z" fill="white"/>
<path d="M209.494 101.362H167.584C167.184 101.362 166.857 101.033 166.857 100.629C166.857 100.226 167.184 99.8967 167.584 99.8967H209.494C209.894 99.8967 210.221 100.226 210.221 100.629C210.221 101.033 209.894 101.362 209.494 101.362Z" fill="white"/>
<path d="M209.494 110.083H167.584C167.184 110.083 166.857 109.754 166.857 109.35C166.857 108.947 167.184 108.617 167.584 108.617H209.494C209.894 108.617 210.221 108.947 210.221 109.35C210.221 109.754 209.894 110.083 209.494 110.083Z" fill="white"/>
<path d="M209.494 118.799H167.584C167.184 118.799 166.857 118.47 166.857 118.067C166.857 117.663 167.184 117.334 167.584 117.334H209.494C209.894 117.334 210.221 117.663 210.221 118.067C210.221 118.47 209.894 118.799 209.494 118.799Z" fill="white"/>
<path d="M209.494 127.52H167.584C167.184 127.52 166.857 127.191 166.857 126.787C166.857 126.384 167.184 126.055 167.584 126.055H209.494C209.894 126.055 210.221 126.384 210.221 126.787C210.221 127.191 209.894 127.52 209.494 127.52Z" fill="white"/>
</g>
<path d="M347.312 66.2468H353.926L363.59 95.7243H359.375L356.63 87.0633H344.429L341.684 95.7243H337.63L347.312 66.2468ZM355.5 83.5862L350.691 68.3977H350.322L345.53 83.5862H355.5Z" fill="white"/>
<path d="M366.716 74.9886H370.279V79.5728H370.608C371.156 78.3446 371.709 77.3701 372.269 76.6435C372.828 75.9227 373.445 75.3922 374.12 75.0693C374.794 74.7406 375.584 74.5792 376.484 74.5792C376.743 74.5792 377.009 74.5965 377.28 74.6311C377.551 74.6657 377.793 74.7233 377.995 74.804V78.8578C377.724 78.7771 377.384 78.7136 376.974 78.6617C376.565 78.6098 376.155 78.5925 375.746 78.5925C374.616 78.5925 373.653 78.8001 372.868 79.2095C372.084 79.6189 371.49 80.2186 371.087 81.0028C370.683 81.7871 370.481 82.7327 370.481 83.8399V95.7358H366.716V75.0001V74.9886Z" fill="white"/>
<path d="M385.623 95.1303C384.741 94.7325 384.118 94.1212 383.749 93.2967C383.38 92.4721 383.196 91.3765 383.196 90.0099V78.2581H379.551V74.9828H383.196V69.9661H386.961V74.9828H392.773V78.2581H386.961V89.8657C386.961 90.5058 387.024 91.0074 387.157 91.3707C387.284 91.734 387.538 91.9992 387.907 92.1665C388.276 92.3337 388.806 92.4202 389.504 92.4202H392.779V95.7185H389.256C387.716 95.7185 386.505 95.5225 385.623 95.1246V95.1303Z" fill="white"/>
<path d="M399.734 64.6495H403.787L399.099 71.425H395.536L399.734 64.6495ZM396.499 74.9885H400.264V95.7243H396.499V74.9885Z" fill="white"/>
<path d="M409.386 94.7728C407.864 93.8675 406.682 92.5932 405.846 90.9671C405.004 89.3352 404.589 87.4554 404.589 85.3276C404.589 83.1998 405.01 81.3431 405.846 79.717C406.688 78.0909 407.864 76.828 409.386 75.9285C410.909 75.0289 412.667 74.5792 414.657 74.5792C416.173 74.5792 417.557 74.8502 418.814 75.3864C420.071 75.9285 421.138 76.7127 422.026 77.7391C422.914 78.7713 423.56 79.9937 423.969 81.4123L420.1 82.0869C419.702 80.6972 419.045 79.642 418.122 78.9327C417.2 78.2235 416.029 77.866 414.611 77.866C413.284 77.866 412.177 78.1716 411.284 78.777C410.39 79.3825 409.721 80.2475 409.277 81.3661C408.833 82.4848 408.614 83.7995 408.614 85.3161C408.614 86.8326 408.833 88.1704 409.277 89.2891C409.721 90.4077 410.39 91.2727 411.284 91.8897C412.177 92.5067 413.284 92.8123 414.611 92.8123C417.465 92.8123 419.293 91.3476 420.095 88.4126L423.964 89.0872C423.554 90.5634 422.908 91.8262 422.032 92.8815C421.15 93.9367 420.083 94.744 418.826 95.2976C417.569 95.8511 416.179 96.1279 414.651 96.1279C412.656 96.1279 410.903 95.6724 409.381 94.7671L409.386 94.7728Z" fill="white"/>
<path d="M445.305 95.7243H441.741V91.5494H441.413C440.605 93.066 439.608 94.2077 438.414 94.9804C437.22 95.7531 435.86 96.1394 434.332 96.1394C432.942 96.1394 431.742 95.828 430.739 95.2053C429.736 94.5825 428.969 93.6887 428.438 92.5124C427.908 91.3361 427.643 89.9406 427.643 88.3145V74.9885H431.408V87.8648C431.408 91.1919 432.925 92.8584 435.952 92.8584C437.111 92.8584 438.114 92.6277 438.95 92.1722C439.786 91.7167 440.432 91.0593 440.876 90.1943C441.32 89.3294 441.539 88.3088 441.539 87.1209V74.9828H445.305V95.7185V95.7243Z" fill="white"/>
<path d="M452.703 95.2168C451.89 94.8766 451.302 94.3346 450.933 93.6022C450.564 92.8642 450.379 91.8839 450.379 90.6557V65.0244H454.145V90.3039C454.145 90.8517 454.214 91.2784 454.358 91.584C454.502 91.8896 454.733 92.1088 455.056 92.2414C455.379 92.374 455.823 92.4375 456.399 92.4375H457.933V95.7358H455.967C454.6 95.7358 453.516 95.5628 452.703 95.2226V95.2168Z" fill="white"/>
<path d="M464.513 94.7844C462.979 93.8848 461.791 92.6162 460.949 90.9901C460.107 89.3583 459.692 87.4842 459.692 85.368C459.692 83.2517 460.113 81.3604 460.949 79.7285C461.791 78.0966 462.973 76.8338 464.513 75.9343C466.046 75.0347 467.817 74.585 469.823 74.585C471.83 74.585 473.6 75.0347 475.134 75.9343C476.668 76.8338 477.856 78.1024 478.698 79.7285C479.54 81.3546 479.955 83.2402 479.955 85.368C479.955 87.4957 479.534 89.3583 478.698 90.9901C477.862 92.622 476.674 93.8848 475.134 94.7844C473.6 95.6839 471.83 96.1337 469.823 96.1337C467.817 96.1337 466.046 95.6839 464.513 94.7844ZM473.214 91.9416C474.119 91.3246 474.8 90.4596 475.238 89.341C475.682 88.2223 475.901 86.896 475.901 85.368C475.901 83.8399 475.682 82.5137 475.238 81.395C474.794 80.2763 474.119 79.4114 473.214 78.7944C472.309 78.1774 471.178 77.8718 469.823 77.8718C468.468 77.8718 467.361 78.1774 466.456 78.7944C465.55 79.4056 464.87 80.2763 464.42 81.395C463.971 82.5137 463.746 83.8399 463.746 85.368C463.746 86.896 463.971 88.2223 464.42 89.341C464.87 90.4596 465.55 91.3246 466.456 91.9416C467.361 92.5528 468.486 92.8642 469.823 92.8642C471.161 92.8642 472.303 92.5586 473.214 91.9416Z" fill="white"/>
<path d="M486.108 94.6518C484.626 93.66 483.53 92.1665 482.821 90.1598L486.529 89.4851C486.978 90.6326 487.653 91.4861 488.553 92.0454C489.452 92.6047 490.594 92.8873 491.972 92.8873C492.86 92.8873 493.633 92.7719 494.296 92.5471C494.959 92.3222 495.466 91.9993 495.824 91.5726C496.176 91.1516 496.354 90.6499 496.354 90.0791C496.354 89.439 496.129 88.9143 495.68 88.5106C495.23 88.107 494.671 87.7956 494.002 87.5707C493.333 87.3458 492.399 87.0921 491.199 86.8038C489.602 86.4232 488.305 86.0369 487.301 85.6448C486.298 85.2584 485.439 84.653 484.724 83.8457C484.009 83.0384 483.651 81.9543 483.651 80.5992C483.651 79.3998 483.974 78.3446 484.626 77.4335C485.271 76.5282 486.188 75.8247 487.37 75.3231C488.553 74.8272 489.919 74.5734 491.476 74.5734C493.633 74.5734 495.438 75.0578 496.902 76.0265C498.361 76.9953 499.428 78.3965 500.097 80.2244L496.597 80.8991C496.187 79.8784 495.547 79.1058 494.682 78.5983C493.817 78.0851 492.716 77.8314 491.378 77.8314C490.138 77.8314 489.17 78.0505 488.472 78.4888C487.774 78.927 487.428 79.544 487.428 80.3513C487.428 80.9798 487.653 81.493 488.103 81.8851C488.553 82.283 489.118 82.5886 489.792 82.8193C490.467 83.0499 491.401 83.2863 492.589 83.5458C494.227 83.9149 495.553 84.2897 496.568 84.6703C497.583 85.0508 498.459 85.6505 499.186 86.4694C499.918 87.2882 500.281 88.3953 500.281 89.785C500.281 91.0651 499.935 92.1895 499.238 93.1525C498.54 94.1155 497.554 94.8536 496.279 95.361C495.005 95.8685 493.512 96.1279 491.805 96.1279C489.498 96.1279 487.607 95.632 486.125 94.646L486.108 94.6518Z" fill="white"/>
<path d="M321.559 133.943C320.285 133.009 319.288 131.718 318.573 130.063C317.858 128.414 317.5 126.551 317.5 124.475C317.5 122.399 317.858 120.508 318.567 118.847C319.276 117.181 320.268 115.878 321.548 114.938C322.828 113.998 324.275 113.525 325.896 113.525C327.355 113.525 328.623 113.911 329.696 114.684C330.768 115.457 331.622 116.587 332.268 118.075H332.596V104.235H338.489V134.941H332.798V130.559H332.469C331.679 132.167 330.751 133.373 329.684 134.163C328.617 134.953 327.366 135.35 325.919 135.35C324.293 135.35 322.845 134.883 321.571 133.949L321.559 133.943ZM331.691 129.082C332.423 127.952 332.787 126.401 332.787 124.435C332.787 122.468 332.423 120.923 331.691 119.787C330.959 118.657 329.811 118.086 328.243 118.086C326.674 118.086 325.521 118.651 324.783 119.787C324.045 120.917 323.676 122.468 323.676 124.435C323.676 126.401 324.045 127.946 324.783 129.082C325.521 130.213 326.674 130.784 328.243 130.784C329.811 130.784 330.964 130.218 331.691 129.082Z" fill="#00E47C"/>
<path d="M347.116 133.955C345.467 133.027 344.186 131.735 343.275 130.086C342.37 128.437 341.915 126.551 341.915 124.435C341.915 122.319 342.359 120.456 343.258 118.795C344.152 117.135 345.409 115.843 347.024 114.915C348.638 113.986 350.495 113.525 352.582 113.525C354.67 113.525 356.48 113.986 358.049 114.909C359.617 115.831 360.828 117.112 361.682 118.755C362.535 120.398 362.962 122.272 362.962 124.371V126.09H348.102C348.263 127.618 348.725 128.817 349.474 129.682C350.224 130.547 351.302 130.98 352.709 130.98C353.649 130.98 354.456 130.784 355.125 130.386C355.794 129.988 356.307 129.423 356.659 128.685L362.552 129.175C362.074 130.501 361.364 131.62 360.413 132.542C359.461 133.465 358.343 134.157 357.057 134.63C355.771 135.102 354.364 135.333 352.848 135.333C350.679 135.333 348.765 134.872 347.116 133.943V133.955ZM356.878 122.146C356.74 120.825 356.33 119.787 355.65 119.032C354.97 118.282 353.966 117.907 352.64 117.907C351.314 117.907 350.287 118.282 349.549 119.032C348.811 119.781 348.344 120.819 348.136 122.146H356.878Z" fill="#00E47C"/>
<path d="M375.019 113.934H380.71V119.072H381.039C381.587 117.654 382.135 116.541 382.688 115.733C383.242 114.926 383.83 114.361 384.459 114.027C385.087 113.692 385.808 113.525 386.627 113.525C386.915 113.525 387.192 113.542 387.457 113.577C387.722 113.611 387.947 113.663 388.12 113.732V119.793C387.342 119.585 386.471 119.487 385.502 119.487C383.963 119.487 382.809 119.799 382.054 120.421C381.299 121.044 380.918 121.973 380.918 123.218V134.947H375.025V113.946L375.019 113.934Z" fill="#00E47C"/>
<path d="M394.342 133.955C392.693 133.027 391.413 131.735 390.502 130.086C389.597 128.437 389.141 126.551 389.141 124.435C389.141 122.319 389.585 120.456 390.485 118.795C391.378 117.135 392.636 115.843 394.25 114.915C395.865 113.986 397.721 113.525 399.809 113.525C401.896 113.525 403.707 113.986 405.275 114.909C406.844 115.831 408.055 117.112 408.908 118.755C409.761 120.398 410.188 122.272 410.188 124.371V126.09H395.328C395.49 127.618 395.951 128.817 396.701 129.682C397.45 130.547 398.529 130.98 399.936 130.98C400.876 130.98 401.683 130.784 402.352 130.386C403.021 129.988 403.534 129.423 403.886 128.685L409.779 129.175C409.3 130.501 408.591 131.62 407.639 132.542C406.688 133.465 405.569 134.157 404.283 134.63C402.998 135.102 401.591 135.333 400.08 135.333C397.912 135.333 395.997 134.872 394.348 133.943L394.342 133.955ZM404.105 122.146C403.966 120.825 403.557 119.787 402.876 119.032C402.196 118.282 401.193 117.907 399.866 117.907C398.54 117.907 397.514 118.282 396.776 119.032C396.038 119.781 395.571 120.819 395.363 122.146H404.105Z" fill="#00E47C"/>
<path d="M411.024 113.934H417.021L422.078 132.421H422.424L427.481 113.934H433.253L426.824 134.935H417.448L411.019 113.934H411.024Z" fill="#00E47C"/>
<path d="M436.76 111.19C436.2 110.878 435.762 110.44 435.439 109.881C435.116 109.321 434.96 108.681 434.96 107.955C434.96 107.228 435.122 106.588 435.439 106.029C435.762 105.469 436.2 105.031 436.76 104.72C437.319 104.408 437.953 104.247 438.662 104.247C439.372 104.247 440.006 104.403 440.565 104.72C441.125 105.031 441.563 105.469 441.874 106.029C442.186 106.588 442.347 107.228 442.347 107.955C442.347 108.681 442.191 109.321 441.874 109.881C441.563 110.44 441.125 110.878 440.565 111.19C440.006 111.501 439.372 111.662 438.662 111.662C437.953 111.662 437.319 111.507 436.76 111.19ZM435.716 113.934H441.609V134.935H435.716V113.934Z" fill="#00E47C"/>
<path d="M448.015 133.834C446.418 132.825 445.247 131.291 444.492 129.227L449.877 128.183C450.206 129.123 450.731 129.826 451.452 130.293C452.172 130.755 453.112 130.991 454.254 130.991C454.911 130.991 455.488 130.922 455.984 130.778C456.48 130.634 456.872 130.42 457.149 130.143C457.426 129.867 457.57 129.532 457.57 129.152C457.57 128.713 457.379 128.344 456.999 128.045C456.618 127.745 456.134 127.502 455.546 127.318C454.958 127.133 454.145 126.92 453.112 126.672C451.434 126.263 450.05 125.848 448.966 125.432C447.882 125.017 446.948 124.377 446.164 123.506C445.38 122.641 444.988 121.488 444.988 120.058C444.988 118.749 445.351 117.596 446.072 116.61C446.792 115.618 447.83 114.857 449.174 114.326C450.518 113.796 452.103 113.531 453.931 113.531C456.29 113.531 458.25 114.009 459.807 114.972C461.364 115.935 462.511 117.36 463.244 119.239L458.002 120.404C457.662 119.585 457.12 118.963 456.388 118.542C455.65 118.121 454.727 117.907 453.626 117.907C452.686 117.907 451.959 118.046 451.446 118.328C450.933 118.611 450.679 119.009 450.679 119.528C450.679 119.966 450.869 120.323 451.25 120.612C451.63 120.9 452.115 121.125 452.691 121.298C453.274 121.471 454.087 121.673 455.136 121.903C456.855 122.301 458.273 122.699 459.386 123.109C460.499 123.518 461.462 124.164 462.275 125.052C463.088 125.94 463.492 127.128 463.492 128.615C463.492 130.022 463.1 131.233 462.315 132.248C461.531 133.263 460.436 134.036 459.029 134.56C457.622 135.085 455.99 135.35 454.139 135.35C451.653 135.35 449.612 134.843 448.021 133.834H448.015Z" fill="#00E47C"/>
<path d="M467.626 111.19C467.067 110.878 466.629 110.44 466.306 109.881C465.983 109.321 465.827 108.681 465.827 107.955C465.827 107.228 465.989 106.588 466.306 106.029C466.629 105.469 467.067 105.031 467.626 104.72C468.186 104.408 468.82 104.247 469.529 104.247C470.238 104.247 470.873 104.403 471.432 104.72C471.991 105.031 472.43 105.469 472.741 106.029C473.052 106.588 473.214 107.228 473.214 107.955C473.214 108.681 473.058 109.321 472.741 109.881C472.43 110.44 471.991 110.878 471.432 111.19C470.873 111.501 470.238 111.662 469.529 111.662C468.82 111.662 468.186 111.507 467.626 111.19ZM466.583 113.934H472.476V134.935H466.583V113.934Z" fill="#00E47C"/>
<path d="M481.149 133.984C479.505 133.078 478.219 131.793 477.302 130.138C476.38 128.477 475.918 126.58 475.918 124.435C475.918 122.29 476.38 120.398 477.302 118.743C478.225 117.088 479.505 115.808 481.149 114.897C482.792 113.986 484.672 113.525 486.788 113.525C488.904 113.525 490.784 113.98 492.427 114.897C494.071 115.814 495.351 117.094 496.268 118.743C497.179 120.393 497.64 122.29 497.64 124.435C497.64 126.58 497.185 128.494 496.268 130.149C495.351 131.798 494.077 133.078 492.439 133.99C490.801 134.901 488.916 135.35 486.788 135.35C484.66 135.35 482.792 134.895 481.149 133.99V133.984ZM490.317 129.082C491.072 127.952 491.453 126.401 491.453 124.435C491.453 122.468 491.072 120.923 490.317 119.787C489.562 118.657 488.385 118.086 486.788 118.086C485.191 118.086 484.009 118.651 483.247 119.787C482.481 120.917 482.1 122.468 482.1 124.435C482.1 126.401 482.481 127.964 483.247 129.094C484.014 130.218 485.191 130.783 486.788 130.783C488.385 130.783 489.562 130.218 490.317 129.082ZM487.768 103.861H493.806L488.443 111.662H482.896L487.768 103.861Z" fill="#00E47C"/>
<path d="M501.071 113.934H506.763V118.334H507.091C508.81 115.128 511.145 113.525 514.092 113.525C515.441 113.525 516.617 113.836 517.621 114.465C518.624 115.093 519.397 115.993 519.933 117.169C520.469 118.346 520.74 119.735 520.74 121.344V134.935H514.847V122.099C514.847 120.819 514.524 119.827 513.884 119.13C513.244 118.432 512.321 118.086 511.122 118.086C510.246 118.086 509.502 118.265 508.879 118.628C508.256 118.991 507.783 119.516 507.455 120.214C507.126 120.912 506.964 121.753 506.964 122.751V134.929H501.071V113.929V113.934Z" fill="#00E47C"/>
</svg>
