<svg width="600" height="200" viewBox="0 0 600 200" fill="none" xmlns="http://www.w3.org/2000/svg">
<g clip-path="url(#clip0_20_7006)">
<g clip-path="url(#clip1_20_7006)">
<path d="M276.06 62.83H282.65L292.27 92.19H288.07L285.34 83.57H273.19L270.46 92.19H266.42L276.06 62.83ZM284.22 80.1L279.43 64.97H279.06L274.29 80.1H284.22Z" fill="white"/>
<path d="M298.72 91.24C297.2 90.34 296.03 89.07 295.19 87.45C294.35 85.83 293.94 83.95 293.94 81.83C293.94 79.71 294.36 77.86 295.19 76.24C296.03 74.62 297.2 73.37 298.72 72.47C300.24 71.57 301.99 71.12 303.97 71.12C305.48 71.12 306.86 71.39 308.11 71.93C309.36 72.47 310.43 73.25 311.31 74.28C312.19 75.31 312.84 76.53 313.25 77.94L309.4 78.61C309.01 77.23 308.35 76.18 307.43 75.47C306.51 74.76 305.35 74.41 303.93 74.41C302.61 74.41 301.51 74.71 300.62 75.32C299.73 75.92 299.06 76.78 298.62 77.9C298.18 79.01 297.96 80.33 297.96 81.84C297.96 83.35 298.18 84.68 298.62 85.79C299.06 86.9 299.73 87.77 300.62 88.38C301.51 88.99 302.61 89.3 303.93 89.3C306.77 89.3 308.59 87.84 309.39 84.92L313.24 85.59C312.83 87.06 312.19 88.32 311.31 89.37C310.43 90.42 309.37 91.23 308.12 91.78C306.87 92.33 305.48 92.61 303.96 92.61C301.98 92.61 300.23 92.16 298.71 91.25L298.72 91.24Z" fill="white"/>
<path d="M321.48 91.6C320.6 91.21 319.98 90.6 319.61 89.78C319.24 88.96 319.06 87.87 319.06 86.51V74.81H315.43V71.55H319.06V66.56H322.81V71.55H328.6V74.81H322.81V86.37C322.81 87.01 322.87 87.51 323 87.87C323.13 88.23 323.38 88.5 323.74 88.66C324.11 88.83 324.64 88.92 325.33 88.92H328.59V92.2H325.08C323.54 92.2 322.34 92 321.46 91.61L321.48 91.6Z" fill="white"/>
<path d="M349.74 92.19H346.19V88.03H345.86C345.06 89.54 344.06 90.68 342.87 91.44C341.68 92.21 340.32 92.59 338.8 92.59C337.41 92.59 336.22 92.28 335.22 91.66C334.22 91.04 333.46 90.15 332.93 88.98C332.4 87.81 332.13 86.42 332.13 84.8V71.53H335.88V84.36C335.88 87.68 337.39 89.33 340.41 89.33C341.57 89.33 342.56 89.1 343.4 88.65C344.24 88.2 344.87 87.54 345.32 86.68C345.76 85.82 345.98 84.8 345.98 83.62V71.53H349.73V92.18L349.74 92.19Z" fill="white"/>
<path d="M356.62 91.87C355.69 91.39 354.96 90.71 354.43 89.84C353.9 88.97 353.63 87.97 353.63 86.84C353.63 85.03 354.34 83.57 355.76 82.46C357.18 81.35 359.3 80.59 362.13 80.2L367.1 79.49C367.07 78.29 366.89 77.32 366.56 76.57C366.23 75.82 365.74 75.27 365.1 74.92C364.46 74.57 363.65 74.39 362.65 74.39C361.37 74.39 360.32 74.69 359.49 75.29C358.66 75.89 358.05 76.83 357.65 78.1L353.96 77.79C354.31 76.38 354.88 75.17 355.67 74.18C356.46 73.19 357.45 72.43 358.64 71.91C359.83 71.39 361.2 71.12 362.75 71.12C364.45 71.12 365.9 71.44 367.11 72.08C368.32 72.72 369.24 73.66 369.88 74.89C370.52 76.13 370.84 77.63 370.84 79.4V92.18H367.29V88.02H366.96C366.13 89.49 365.09 90.62 363.83 91.41C362.57 92.2 361.2 92.59 359.72 92.59C358.56 92.59 357.52 92.35 356.59 91.87H356.62ZM358.58 88.59C359.21 89.09 360.1 89.33 361.24 89.33C362.3 89.33 363.28 89.13 364.18 88.73C365.08 88.33 365.79 87.78 366.32 87.08C366.85 86.38 367.12 85.6 367.12 84.75V82.36L362.78 83.01C361.54 83.19 360.55 83.41 359.81 83.69C359.07 83.97 358.52 84.33 358.17 84.77C357.82 85.21 357.64 85.77 357.64 86.43C357.64 87.37 357.96 88.09 358.59 88.58L358.58 88.59Z" fill="white"/>
<path d="M378.07 91.68C377.26 91.34 376.67 90.8 376.31 90.07C375.95 89.34 375.76 88.36 375.76 87.13V61.6H379.51V86.78C379.51 87.32 379.58 87.75 379.72 88.05C379.86 88.36 380.09 88.57 380.41 88.7C380.73 88.83 381.17 88.89 381.75 88.89H383.28V92.17H381.32C379.96 92.17 378.88 92 378.07 91.66V91.68Z" fill="white"/>
<path d="M387.19 67.64C386.79 67.41 386.47 67.09 386.24 66.69C386.01 66.29 385.89 65.83 385.89 65.31C385.89 64.79 386.01 64.33 386.24 63.93C386.47 63.53 386.79 63.21 387.19 62.98C387.59 62.75 388.05 62.63 388.57 62.63C389.09 62.63 389.55 62.75 389.96 62.98C390.37 63.21 390.69 63.53 390.92 63.94C391.15 64.35 391.27 64.8 391.27 65.31C391.27 65.82 391.15 66.27 390.92 66.68C390.69 67.09 390.37 67.41 389.96 67.64C389.55 67.87 389.09 67.99 388.57 67.99C388.05 67.99 387.59 67.88 387.19 67.64ZM386.69 71.53H390.44V92.18H386.69V71.53Z" fill="white"/>
<path d="M395.23 71.54H410.44V74.8L399.63 88.6V88.93H410.44V92.19H395.23V88.93L406.04 75.13V74.8H395.23V71.54Z" fill="white"/>
<path d="M416.97 91.87C416.04 91.39 415.31 90.71 414.78 89.84C414.25 88.97 413.99 87.97 413.99 86.84C413.99 85.03 414.7 83.57 416.12 82.46C417.54 81.35 419.66 80.59 422.49 80.2L427.46 79.49C427.43 78.29 427.25 77.32 426.92 76.57C426.59 75.82 426.1 75.27 425.46 74.92C424.82 74.57 424.01 74.39 423.01 74.39C421.73 74.39 420.68 74.69 419.85 75.29C419.02 75.89 418.41 76.83 418.01 78.1L414.32 77.79C414.67 76.38 415.24 75.17 416.03 74.18C416.82 73.19 417.81 72.43 419 71.91C420.19 71.39 421.56 71.12 423.11 71.12C424.81 71.12 426.26 71.44 427.47 72.08C428.68 72.72 429.6 73.66 430.24 74.89C430.88 76.13 431.2 77.63 431.2 79.4V92.18H427.65V88.02H427.32C426.49 89.49 425.45 90.62 424.19 91.41C422.93 92.2 421.56 92.59 420.08 92.59C418.92 92.59 417.88 92.35 416.95 91.87H416.97ZM418.93 88.59C419.56 89.09 420.45 89.33 421.59 89.33C422.65 89.33 423.63 89.13 424.53 88.73C425.43 88.33 426.14 87.78 426.67 87.08C427.2 86.38 427.46 85.6 427.46 84.75V82.36L423.12 83.01C421.88 83.19 420.89 83.41 420.15 83.69C419.41 83.97 418.86 84.33 418.51 84.77C418.16 85.21 417.98 85.77 417.98 86.43C417.98 87.37 418.3 88.09 418.93 88.58V88.59Z" fill="white"/>
<path d="M440.13 91.24C438.61 90.34 437.44 89.07 436.6 87.45C435.76 85.83 435.35 83.95 435.35 81.83C435.35 79.71 435.77 77.86 436.6 76.24C437.44 74.62 438.61 73.37 440.13 72.47C441.65 71.57 443.39 71.12 445.38 71.12C446.89 71.12 448.27 71.39 449.52 71.93C450.77 72.47 451.84 73.25 452.72 74.28C453.6 75.31 454.25 76.53 454.66 77.94L450.81 78.61C450.42 77.23 449.76 76.18 448.84 75.47C447.92 74.76 446.76 74.41 445.34 74.41C444.02 74.41 442.92 74.71 442.03 75.32C441.14 75.92 440.47 76.78 440.03 77.9C439.59 79.01 439.37 80.33 439.37 81.84C439.37 83.35 439.59 84.68 440.03 85.79C440.47 86.9 441.14 87.77 442.03 88.38C442.92 88.99 444.03 89.3 445.34 89.3C448.18 89.3 450 87.84 450.8 84.92L454.65 85.59C454.24 87.06 453.6 88.32 452.72 89.37C451.84 90.42 450.78 91.23 449.53 91.78C448.28 92.33 446.89 92.61 445.37 92.61C443.39 92.61 441.64 92.16 440.12 91.25L440.13 91.24Z" fill="white"/>
<path d="M459.09 67.64C458.69 67.41 458.37 67.09 458.14 66.69C457.91 66.29 457.79 65.83 457.79 65.31C457.79 64.79 457.9 64.33 458.14 63.93C458.37 63.53 458.69 63.21 459.09 62.98C459.49 62.75 459.95 62.63 460.47 62.63C460.99 62.63 461.45 62.75 461.86 62.98C462.27 63.21 462.59 63.53 462.82 63.94C463.05 64.35 463.17 64.8 463.17 65.31C463.17 65.82 463.05 66.27 462.82 66.68C462.59 67.09 462.27 67.41 461.86 67.64C461.45 67.87 460.99 67.99 460.47 67.99C459.95 67.99 459.49 67.88 459.09 67.64ZM458.59 71.53H462.34V92.18H458.59V71.53Z" fill="white"/>
<path d="M471.53 91.25C470 90.35 468.82 89.09 467.98 87.47C467.14 85.85 466.73 83.98 466.73 81.87C466.73 79.76 467.15 77.88 467.98 76.25C468.82 74.63 470 73.37 471.53 72.47C473.06 71.57 474.82 71.12 476.82 71.12C478.82 71.12 480.58 71.57 482.11 72.47C483.64 73.37 484.82 74.63 485.66 76.25C486.5 77.88 486.91 79.75 486.91 81.87C486.91 83.99 486.49 85.84 485.66 87.47C484.83 89.1 483.64 90.36 482.11 91.25C480.58 92.15 478.82 92.6 476.82 92.6C474.82 92.6 473.06 92.15 471.53 91.25ZM480.19 88.42C481.09 87.81 481.77 86.95 482.21 85.83C482.65 84.72 482.87 83.4 482.87 81.88C482.87 80.36 482.65 79.04 482.21 77.93C481.77 76.82 481.1 75.95 480.19 75.34C479.28 74.73 478.16 74.42 476.82 74.42C475.48 74.42 474.37 74.72 473.47 75.34C472.57 75.96 471.89 76.82 471.44 77.93C470.99 79.04 470.77 80.36 470.77 81.88C470.77 83.4 470.99 84.72 471.44 85.83C471.89 86.94 472.56 87.81 473.47 88.42C474.37 89.03 475.49 89.34 476.82 89.34C478.15 89.34 479.29 89.03 480.19 88.42ZM478.16 61.24H482.2L477.53 67.99H473.98L478.16 61.24Z" fill="white"/>
<path d="M491.3 71.54H494.85V75.7H495.18C495.97 74.19 496.96 73.05 498.15 72.29C499.34 71.53 500.7 71.14 502.22 71.14C503.61 71.14 504.8 71.45 505.81 72.07C506.82 72.69 507.58 73.58 508.11 74.75C508.64 75.92 508.91 77.31 508.91 78.93V92.2H505.16V79.38C505.16 76.06 503.64 74.41 500.61 74.41C499.45 74.41 498.46 74.64 497.63 75.09C496.8 75.54 496.17 76.2 495.72 77.07C495.28 77.93 495.06 78.95 495.06 80.14V92.21H491.31V71.56L491.3 71.54Z" fill="white"/>
<path d="M290.04 110.41C291.16 109.63 292.5 109.24 294.05 109.24C295.37 109.24 296.5 109.52 297.44 110.1C298.38 110.68 299.11 111.52 299.61 112.66C300.11 113.8 300.36 115.18 300.36 116.81V130.57H294.49V117.68C294.49 116.42 294.19 115.45 293.58 114.79C292.97 114.12 292.11 113.79 290.98 113.79C289.73 113.79 288.76 114.2 288.07 115C287.38 115.81 287.04 116.95 287.04 118.44V130.57H281.17V117.68C281.17 116.42 280.87 115.45 280.26 114.79C279.65 114.12 278.79 113.79 277.66 113.79C276.41 113.79 275.44 114.2 274.75 115C274.06 115.81 273.72 116.95 273.72 118.44V130.57H267.85V109.65H273.52V114.03H273.85C274.69 112.41 275.67 111.21 276.78 110.42C277.89 109.63 279.2 109.24 280.73 109.24C282.26 109.24 283.61 109.65 284.64 110.46C285.67 111.27 286.37 112.46 286.74 114.03H287.07C287.93 112.4 288.92 111.19 290.04 110.41Z" fill="#00E47C"/>
<path d="M308.81 129.58C307.17 128.66 305.89 127.37 304.99 125.73C304.09 124.09 303.63 122.21 303.63 120.1C303.63 117.99 304.07 116.14 304.97 114.48C305.86 112.83 307.11 111.54 308.72 110.62C310.33 109.7 312.18 109.24 314.26 109.24C316.34 109.24 318.14 109.7 319.7 110.62C321.26 111.54 322.47 112.82 323.32 114.45C324.17 116.08 324.59 117.95 324.59 120.05V121.76H309.79C309.95 123.28 310.41 124.48 311.16 125.34C311.91 126.2 312.98 126.63 314.38 126.63C315.32 126.63 316.12 126.43 316.79 126.04C317.46 125.65 317.97 125.08 318.32 124.35L324.19 124.84C323.71 126.16 323 127.28 322.06 128.19C321.11 129.11 320 129.8 318.72 130.27C317.44 130.74 316.04 130.97 314.53 130.97C312.37 130.97 310.47 130.51 308.82 129.58H308.81ZM318.54 117.82C318.4 116.5 318 115.47 317.32 114.72C316.64 113.97 315.64 113.6 314.32 113.6C313 113.6 311.98 113.97 311.24 114.72C310.51 115.47 310.04 116.5 309.83 117.82H318.54ZM315.11 99.61H321.12L315.78 107.38H310.25L315.1 99.61H315.11Z" fill="#00E47C"/>
<path d="M331.51 129.57C330.24 128.64 329.25 127.35 328.53 125.71C327.82 124.07 327.46 122.21 327.46 120.14C327.46 118.07 327.81 116.19 328.52 114.53C329.23 112.87 330.22 111.57 331.49 110.64C332.76 109.7 334.2 109.23 335.82 109.23C337.27 109.23 338.53 109.61 339.6 110.38C340.67 111.15 341.52 112.27 342.16 113.75H342.49V99.97H348.36V130.55H342.69V126.19H342.36C341.57 127.79 340.65 128.99 339.59 129.78C338.53 130.57 337.28 130.96 335.84 130.96C334.22 130.96 332.78 130.49 331.51 129.56V129.57ZM341.6 124.73C342.33 123.6 342.69 122.06 342.69 120.1C342.69 118.14 342.33 116.6 341.6 115.47C340.87 114.34 339.73 113.78 338.16 113.78C336.59 113.78 335.45 114.35 334.71 115.47C333.98 116.6 333.61 118.14 333.61 120.1C333.61 122.06 333.98 123.6 334.71 124.73C335.44 125.86 336.59 126.42 338.16 126.42C339.73 126.42 340.87 125.86 341.6 124.73Z" fill="#00E47C"/>
<path d="M353.48 106.91C352.92 106.6 352.48 106.16 352.16 105.6C351.84 105.04 351.68 104.4 351.68 103.68C351.68 102.96 351.84 102.32 352.16 101.76C352.48 101.2 352.92 100.77 353.48 100.46C354.04 100.15 354.67 99.99 355.38 99.99C356.09 99.99 356.72 100.15 357.28 100.46C357.84 100.77 358.27 101.21 358.58 101.76C358.89 102.32 359.05 102.96 359.05 103.68C359.05 104.4 358.89 105.04 358.58 105.6C358.27 106.16 357.83 106.59 357.28 106.91C356.72 107.22 356.09 107.38 355.38 107.38C354.67 107.38 354.04 107.22 353.48 106.91ZM352.44 109.64H358.31V130.56H352.44V109.64Z" fill="#00E47C"/>
<path d="M366.91 129.58C365.29 128.66 364.04 127.37 363.15 125.73C362.26 124.09 361.81 122.21 361.81 120.1C361.81 117.99 362.25 116.12 363.15 114.47C364.04 112.83 365.29 111.54 366.91 110.62C368.53 109.7 370.4 109.24 372.52 109.24C374.08 109.24 375.53 109.51 376.85 110.06C378.18 110.61 379.31 111.43 380.25 112.51C381.19 113.59 381.88 114.9 382.32 116.44L376.55 117.32C376.25 116.19 375.74 115.32 375.02 114.71C374.3 114.1 373.4 113.79 372.31 113.79C370.79 113.79 369.67 114.35 368.96 115.47C368.25 116.59 367.89 118.14 367.89 120.11C367.89 122.08 368.25 123.58 368.96 124.65C369.67 125.72 370.79 126.25 372.31 126.25C373.4 126.25 374.29 125.94 375 125.33C375.71 124.72 376.22 123.84 376.53 122.68L382.34 123.58C381.9 125.18 381.21 126.54 380.26 127.65C379.31 128.76 378.17 129.59 376.86 130.15C375.54 130.71 374.09 130.99 372.52 130.99C370.4 130.99 368.53 130.53 366.91 129.6V129.58Z" fill="#00E47C"/>
<path d="M387.43 130.23C386.47 129.73 385.72 129.04 385.19 128.14C384.65 127.24 384.38 126.21 384.38 125.04C384.38 123.1 385.19 121.55 386.81 120.4C388.43 119.25 390.87 118.47 394.13 118.05L397.76 117.58C397.72 116.26 397.41 115.3 396.82 114.69C396.24 114.09 395.34 113.78 394.15 113.78C393.13 113.78 392.31 114 391.68 114.42C391.05 114.85 390.58 115.53 390.25 116.47L384.79 116.02C385.14 114.56 385.75 113.33 386.61 112.32C387.47 111.31 388.57 110.54 389.9 110.02C391.23 109.5 392.77 109.24 394.51 109.24C396.44 109.24 398.08 109.56 399.44 110.2C400.8 110.84 401.84 111.78 402.55 113.02C403.26 114.26 403.62 115.78 403.62 117.56V130.57H397.95V126.21H397.62C396.74 127.84 395.73 129.04 394.6 129.82C393.47 130.59 392.17 130.98 390.69 130.98C389.47 130.98 388.38 130.73 387.42 130.24L387.43 130.23ZM391.24 125.89C391.72 126.25 392.44 126.43 393.39 126.43C394.26 126.43 395.02 126.28 395.68 125.98C396.34 125.68 396.85 125.26 397.21 124.71C397.57 124.16 397.75 123.52 397.75 122.78V121.23L394.98 121.62C393.87 121.77 392.99 121.96 392.35 122.18C391.71 122.4 391.25 122.68 390.95 123.02C390.66 123.35 390.51 123.78 390.51 124.29C390.51 125 390.75 125.53 391.23 125.89H391.24Z" fill="#00E47C"/>
<path d="M133.36 68.79C133.23 68.79 133.1 68.73 133.01 68.63C131.46 66.82 132.66 64.46 132.72 64.36C132.78 64.25 132.87 64.17 132.99 64.14L138.58 62.39C138.82 62.32 139.08 62.45 139.15 62.69C139.22 62.93 139.09 63.18 138.85 63.26L133.46 64.95C133.27 65.41 132.82 66.75 133.54 67.82C135 67.43 138.45 66.57 138.61 66.53C138.85 66.47 139.1 66.62 139.16 66.86C139.22 67.1 139.07 67.35 138.83 67.41C138.79 67.42 134.69 68.44 133.49 68.78C133.45 68.79 133.41 68.8 133.37 68.8" fill="#00E47C"/>
<path d="M163.53 116.16C160.89 116.16 157.47 115.68 153.01 114.13C146.05 111.71 140.82 106.37 139.48 103.51C138.12 100.63 137.69 97.59 137.31 94.91C137.08 93.29 136.88 91.89 136.51 90.77C133.89 85.52 133.54 82.71 133.82 79.35C134.09 76.08 136.07 71.25 137.8 68.36C139.07 66.24 138.17 61.66 137.87 60.31V60.25C137.77 59.89 137.65 59.35 138.01 58.94C139.33 57.44 141.97 57.64 143.32 58C144.67 58.36 144.97 58.94 145.03 59.11C145.03 59.13 145.04 59.15 145.04 59.17L145.67 62.16C147.08 60.02 149.05 58.66 149.77 58.21L149.08 53.24C149.08 53.24 149.08 53.15 149.08 53.1C149.11 52.93 149.35 52.05 151.15 51.69C152.99 51.32 153.83 52.3 153.86 52.34C153.92 52.41 153.95 52.49 153.96 52.58L154.45 57.02H154.64L155.52 52.41C155.55 52.26 155.66 52.13 155.8 52.08C157 51.6 158.07 51.93 158.6 52.17C158.87 52.29 159.03 52.56 159 52.85L158.94 53.5L159.65 53.63C160.03 53.71 160.28 54.07 160.23 54.44L159.64 57.73L160.44 58.14C162.51 59.53 162.87 61.86 162.92 62.89C163.45 62.86 164.35 62.79 165.2 62.7C166.16 62.6 167.07 62.86 167.71 63.42C168.29 63.93 168.61 64.67 168.63 65.55C168.66 67.3 167.32 68.24 166.61 68.49C166.57 68.5 166.53 68.51 166.49 68.51L165.54 68.58C166.1 68.79 166.68 69.09 167.23 69.52C169.39 71.21 169.34 73.35 169.28 75.63V75.96C169.21 78.27 169.26 78.63 170.63 80.48C173.87 84.24 175.64 88.59 176 90.43C176.06 90.75 176.18 91.15 176.33 91.61C176.97 93.68 178.05 97.15 176.96 103.56C175.8 110.38 172.91 114.4 168.37 115.54C167.15 115.85 165.57 116.13 163.53 116.13M141.31 58.65C140.31 58.65 139.27 58.87 138.69 59.53C138.64 59.59 138.7 59.89 138.74 60.03V60.1C139.17 61.94 139.98 66.47 138.58 68.82C136.91 71.61 134.99 76.27 134.73 79.41C134.46 82.68 134.79 85.27 137.35 90.37C137.35 90.39 137.37 90.41 137.38 90.43C137.78 91.63 137.99 93.15 138.22 94.76C138.59 97.37 139.01 100.34 140.31 103.1C141.59 105.81 146.61 110.91 153.32 113.24C159.25 115.3 163.82 115.74 168.16 114.65C172.37 113.6 174.96 109.92 176.07 103.4C177.12 97.21 176.09 93.87 175.47 91.87C175.32 91.38 175.19 90.97 175.12 90.6C174.76 88.71 172.91 84.5 169.94 81.04C168.37 78.91 168.33 78.33 168.38 75.93V75.6C168.45 73.39 168.5 71.64 166.69 70.24C165.39 69.23 163.86 69.03 162.94 68.92C162.74 68.89 162.58 68.87 162.46 68.85C162.24 68.81 162.06 68.58 162.07 68.35C162.08 68.12 162.29 67.91 162.51 67.89L166.37 67.61C166.63 67.5 167.76 66.95 167.73 65.57C167.72 64.94 167.51 64.45 167.12 64.11C166.68 63.72 166 63.53 165.31 63.61C163.98 63.75 162.52 63.83 162.51 63.83C162.39 63.84 162.26 63.79 162.16 63.7C162.06 63.61 162.02 63.48 162.03 63.35C162.03 63.32 162.17 60.39 159.99 58.92L158.93 58.38C158.75 58.29 158.66 58.09 158.69 57.9L159.3 54.49L158.37 54.32C158.14 54.28 157.98 54.06 158 53.83L158.08 52.94C157.69 52.79 157.06 52.65 156.37 52.85L155.47 57.53C155.43 57.73 155.26 57.89 155.05 57.9L154.07 57.96C153.83 57.97 153.61 57.8 153.59 57.56L153.07 52.85C152.88 52.7 152.33 52.38 151.32 52.58C150.35 52.78 150.06 53.11 149.98 53.23L150.7 58.38C150.71 58.48 150.7 58.58 150.65 58.67C150.62 58.73 150.56 58.79 150.5 58.83C150.5 58.83 150.5 58.83 150.49 58.83C150.46 58.85 147.47 60.64 145.87 63.62C145.87 63.62 145.87 63.63 145.86 63.64C145.81 63.73 145.72 63.8 145.64 63.83C145.61 63.84 145.57 63.85 145.54 63.86C145.46 63.87 145.38 63.86 145.3 63.83C145.27 63.82 145.25 63.81 145.23 63.8C145.16 63.75 145.1 63.68 145.06 63.61C145.05 63.58 145.04 63.56 145.03 63.53C145.03 63.53 145.03 63.51 145.03 63.5L144.18 59.41C144.18 59.41 143.9 59.09 143.1 58.88C142.61 58.75 141.98 58.66 141.33 58.66" fill="#00E47C"/>
<path d="M140.88 112.85C138.64 112.85 138.05 111.62 138.02 111.56C137.99 111.5 137.98 111.44 137.98 111.37V98.81C137.98 98.56 138.18 98.35 138.44 98.35C138.7 98.35 138.9 98.55 138.9 98.81V111.24C139.05 111.44 139.64 112.03 141.28 111.92C142.89 111.81 143.53 111.31 143.72 111.12V108.39C143.72 108.14 143.92 107.93 144.17 107.93C144.42 107.93 144.63 108.13 144.63 108.39V111.28C144.63 111.36 144.61 111.44 144.57 111.5C144.5 111.62 143.85 112.64 141.35 112.82C141.19 112.83 141.04 112.84 140.89 112.84" fill="#00E47C"/>
<path d="M148.47 115.9C145.96 115.9 145.49 114.31 145.47 114.24C145.46 114.2 145.45 114.16 145.45 114.12V109.82C145.45 109.57 145.65 109.36 145.91 109.36C146.17 109.36 146.37 109.56 146.37 109.82V114.04C146.46 114.24 146.92 115.06 148.72 114.99C150.42 114.91 150.98 114.38 151.12 114.2V113.09C151.12 112.84 151.32 112.64 151.58 112.64C151.84 112.64 152.04 112.84 152.04 113.09V114.33C152.04 114.39 152.03 114.45 152.01 114.5C151.96 114.63 151.42 115.79 148.77 115.91C148.67 115.91 148.57 115.91 148.48 115.91" fill="#00E47C"/>
<path d="M143.09 70.46C143.09 70.46 143.05 70.46 143.03 70.46C142.78 70.43 142.61 70.2 142.64 69.95C142.69 69.54 143.97 59.86 151.71 57.58C151.93 57.48 153.07 57.03 155.02 57.01C155.27 57.01 155.47 57.21 155.47 57.46C155.47 57.71 155.27 57.92 155.02 57.92C153.11 57.93 152.07 58.41 152.06 58.42C152.04 58.43 152.02 58.44 151.99 58.45C144.8 60.55 143.55 69.98 143.53 70.07C143.5 70.3 143.31 70.47 143.08 70.47" fill="#00E47C"/>
<path d="M146.37 76.18C146.3 76.18 146.23 76.16 146.16 76.13C145.94 76.01 145.85 75.74 145.97 75.51C146.21 75.05 152.02 64.34 162.42 62.94C162.67 62.9 162.9 63.08 162.93 63.33C162.96 63.58 162.79 63.81 162.54 63.84C152.61 65.17 146.83 75.83 146.77 75.93C146.69 76.09 146.53 76.17 146.37 76.17" fill="#00E47C"/>
<path d="M176.96 98.01H176.94C176.69 98.01 176.49 97.79 176.5 97.54C176.5 97.33 176.59 92.36 170.69 90.42C169.28 89.96 167.96 89.57 166.68 89.2C161.46 87.69 157.69 86.6 156.14 82.29C154.55 77.88 156.64 72.98 156.73 72.77C156.73 72.77 158.27 67.79 163.88 67.79C164.17 67.79 164.36 67.99 164.36 68.25C164.36 68.51 164.16 68.7 163.9 68.7H163.87C158.95 68.7 157.63 72.9 157.57 73.08C157.53 73.18 155.52 77.91 156.98 81.98C158.38 85.86 161.96 86.89 166.92 88.33C168.21 88.7 169.53 89.09 170.96 89.55C174.38 90.67 175.95 92.78 176.67 94.36C177.45 96.07 177.4 97.51 177.4 97.57C177.4 97.81 177.19 98.01 176.94 98.01" fill="#00E47C"/>
<path d="M132.57 78.5C132.01 78.5 131.36 78.32 130.94 77.61C130.69 77.19 130.63 76.66 130.78 76.16C130.93 75.66 131.28 75.25 131.75 75.02C132.19 74.81 133.12 74.67 133.93 74.58L132.89 73.93C132.82 73.89 132.01 73.42 131.79 72.59C131.67 72.15 131.76 71.69 132.03 71.25C132.34 70.76 132.72 70.47 133.19 70.37C133.9 70.23 134.48 70.62 134.54 70.66L136.58 71.87C136.8 72 136.87 72.28 136.74 72.5C136.61 72.71 136.33 72.79 136.12 72.66L134.05 71.43C134.05 71.43 133.7 71.2 133.37 71.27C133.16 71.31 132.97 71.47 132.81 71.74C132.67 71.96 132.63 72.17 132.68 72.37C132.78 72.75 133.2 73.07 133.36 73.16L135.57 74.54C135.74 74.64 135.82 74.85 135.77 75.04C135.72 75.23 135.55 75.37 135.36 75.38C134.37 75.44 132.63 75.62 132.15 75.85C131.91 75.96 131.74 76.17 131.66 76.43C131.59 76.68 131.61 76.94 131.73 77.15C131.93 77.49 132.27 77.77 133.36 77.47L134.44 77.17C134.68 77.1 134.93 77.24 135 77.49C135.07 77.73 134.93 77.98 134.68 78.05L133.6 78.35C133.4 78.41 133.01 78.51 132.58 78.51" fill="#00E47C"/>
<path d="M166.23 68.24C164.89 68.24 163.8 67.1 163.8 65.69C163.8 64.28 164.89 63.14 166.23 63.14C167.57 63.14 168.66 64.28 168.66 65.69C168.66 67.1 167.57 68.24 166.23 68.24ZM166.23 64.05C165.39 64.05 164.71 64.78 164.71 65.69C164.71 66.6 165.39 67.33 166.23 67.33C167.07 67.33 167.75 66.6 167.75 65.69C167.75 64.78 167.07 64.05 166.23 64.05Z" fill="#00E47C"/>
<path d="M168.78 73.59C168.65 73.59 168.52 73.53 168.43 73.42C168.27 73.22 168.3 72.94 168.49 72.78L170.61 71.05C170.68 70.99 171.31 70.45 170.89 69.71C170.5 69.03 169.76 69.38 169.62 69.45L167.57 70.59C167.35 70.71 167.07 70.63 166.95 70.41C166.83 70.19 166.91 69.91 167.13 69.79L169.18 68.65C169.75 68.34 171 68.07 171.68 69.25C172.34 70.4 171.65 71.39 171.19 71.75L169.07 73.47C168.98 73.54 168.88 73.57 168.78 73.57" fill="#00E47C"/>
<path d="M171.11 76.71C170.92 76.71 170.78 76.68 170.75 76.68L168.74 76.24C168.49 76.19 168.34 75.94 168.39 75.7C168.44 75.45 168.69 75.3 168.93 75.35L170.93 75.79C170.93 75.79 171.37 75.86 171.66 75.64C171.83 75.51 171.93 75.29 171.96 74.98C172 74.58 171.93 74.27 171.74 74.06C171.41 73.68 170.8 73.67 170.79 73.67L168.94 73.52C168.69 73.5 168.5 73.28 168.52 73.03C168.54 72.78 168.76 72.59 169.01 72.62L170.83 72.77C170.83 72.77 171.8 72.79 172.41 73.46C172.78 73.87 172.93 74.42 172.86 75.08C172.8 75.66 172.57 76.09 172.19 76.38C171.82 76.66 171.39 76.71 171.1 76.71" fill="#00E47C"/>
<path d="M157.89 58.13C157.89 58.13 157.84 58.13 157.82 58.13C157.57 58.09 157.4 57.86 157.44 57.61L158 53.82C158.04 53.57 158.27 53.4 158.52 53.44C158.77 53.48 158.94 53.71 158.9 53.96L158.34 57.75C158.31 57.98 158.11 58.14 157.89 58.14" fill="#00E47C"/>
<path d="M151.15 54.19C149.64 54.19 149.2 53.55 149.12 53.41C149 53.19 149.08 52.91 149.3 52.79C149.51 52.67 149.78 52.74 149.91 52.95C149.94 52.98 150.31 53.4 151.68 53.26C152.84 53.14 153.05 52.82 153.08 52.78C153.1 52.56 153.29 52.38 153.52 52.37C153.79 52.37 153.98 52.56 153.99 52.81C153.99 53 153.91 53.95 151.77 54.17C151.55 54.19 151.34 54.2 151.16 54.2" fill="#00E47C"/>
<path d="M110.79 94.26C110.54 94.26 110.33 94.06 110.33 93.8C110.33 78.6 111.06 61.19 111.6 48.48C111.89 41.68 112.11 36.32 112.11 33.81C112.11 31.99 112.85 30.46 114.31 29.25C123.77 21.45 162.2 28.9 185.16 33.35C188.04 33.91 190.63 34.41 192.84 34.82C197.26 35.64 200.47 39.49 200.47 44C200.81 52.12 201.01 59.69 201.2 67.01C201.33 71.78 201.46 76.71 201.63 81.67C201.63 81.92 201.44 82.13 201.19 82.14H201.17C200.93 82.14 200.72 81.95 200.71 81.7C200.55 76.74 200.41 71.81 200.29 67.03C200.09 59.71 199.89 52.14 199.56 44.01C199.56 39.93 196.66 36.45 192.68 35.71C190.47 35.3 187.87 34.8 184.99 34.24C163.68 30.11 124.02 22.42 114.89 29.95C113.63 30.98 113.03 32.24 113.03 33.8C113.03 36.33 112.8 41.7 112.52 48.51C111.99 61.21 111.25 78.61 111.25 93.79C111.25 94.04 111.05 94.25 110.79 94.25" fill="#00E47C"/>
<path d="M192.22 174.15C166.5 172.34 130.33 173.33 115.96 173.84C113.77 173.91 111.69 173.12 110.11 171.6C108.53 170.08 107.66 168.03 107.66 165.83C107.66 161.18 107.98 153.75 108.35 145.15C108.87 133.05 109.53 118 109.53 104.69C109.53 104.44 109.73 104.23 109.99 104.23C110.25 104.23 110.45 104.43 110.45 104.69C110.45 118.03 109.8 133.09 109.27 145.19C108.9 153.78 108.58 161.2 108.58 165.83C108.58 167.78 109.35 169.6 110.75 170.95C112.15 172.3 113.99 173.02 115.93 172.94C130.31 172.43 166.52 171.44 192.25 173.25C196.42 173.25 197.99 173.25 199.57 165.81C202.08 154.19 201.61 119.97 200.93 91.46C200.93 91.21 201.12 91 201.37 90.99C201.64 90.99 201.83 91.18 201.84 91.44C202.52 120 202.98 154.29 200.46 166C198.73 174.16 196.55 174.16 192.22 174.16" fill="#00E47C"/>
<path d="M182.7 130.93C182.7 130.93 182.61 130.93 182.57 130.91C171.22 127.57 132.51 129.21 132.13 129.23C132.13 129.23 132.12 129.23 132.11 129.23C131.87 129.23 131.67 129.04 131.66 128.79C131.65 128.54 131.84 128.33 132.1 128.31C133.7 128.24 171.35 126.65 182.84 130.03C183.08 130.1 183.22 130.35 183.15 130.59C183.09 130.79 182.91 130.92 182.71 130.92" fill="#00E47C"/>
<path d="M182.7 140.34C182.7 140.34 182.61 140.34 182.57 140.32C171.23 136.98 132.51 138.62 132.13 138.64C131.89 138.66 131.67 138.46 131.66 138.2C131.65 137.95 131.84 137.74 132.1 137.72C133.7 137.65 171.35 136.06 182.84 139.44C183.08 139.51 183.22 139.76 183.15 140C183.09 140.2 182.91 140.33 182.71 140.33" fill="#00E47C"/>
<path d="M182.7 151.22C182.7 151.22 182.61 151.22 182.57 151.2C171.23 147.86 132.51 149.5 132.13 149.52C131.89 149.53 131.67 149.34 131.66 149.09C131.65 148.84 131.84 148.63 132.1 148.61C133.7 148.54 171.35 146.95 182.84 150.33C183.08 150.4 183.22 150.65 183.15 150.89C183.09 151.09 182.91 151.22 182.71 151.22" fill="#00E47C"/>
<path d="M116.37 115.51L124.18 104.91C125.47 103.16 128.22 103.84 128.55 105.98L130.18 116.59C130.41 118.07 129.27 119.39 127.77 119.39H118.33C116.33 119.39 115.19 117.12 116.37 115.51Z" fill="#00E47C"/>
<path d="M120.04 114.17C119.94 114.17 119.85 114.14 119.76 114.08C119.7 114.03 113.22 109.04 106.63 101.81C100.52 95.11 93.05 85.06 92.16 75.19C90.7 59.22 103.17 52.88 105.68 51.77C106.21 51.54 106.82 51.57 107.33 51.87C107.85 52.17 108.18 52.71 108.22 53.31C108.26 53.92 108 54.51 107.52 54.88C102.53 58.79 99.99 63.62 99.96 69.22C99.85 86.93 124.65 107.12 124.91 107.32C125.1 107.48 125.13 107.76 124.98 107.96C124.82 108.16 124.54 108.19 124.34 108.03C124.28 107.98 117.93 102.84 111.68 95.55C105.89 88.79 99 78.73 99.05 69.22C99.09 63.33 101.75 58.26 106.96 54.17C107.21 53.97 107.34 53.68 107.32 53.37C107.3 53.07 107.14 52.81 106.87 52.65C106.62 52.5 106.31 52.48 106.05 52.6C102.66 54.1 91.71 60.13 93.07 75.1C94.75 93.54 120.07 113.15 120.32 113.34C120.52 113.49 120.56 113.78 120.41 113.98C120.32 114.1 120.18 114.16 120.05 114.16" fill="#00E47C"/>
<path d="M194.06 73.43L188.64 85.43C187.75 87.4 184.91 87.32 184.14 85.29L180.34 75.26C179.81 73.87 180.65 72.33 182.11 72.02L191.34 70.05C193.29 69.63 194.89 71.61 194.07 73.43" fill="#00E47C"/>
<path d="M216.76 133.86C216.57 133.86 216.37 133.83 216.18 133.77C215.61 133.58 215.17 133.12 215.01 132.55C214.84 131.96 214.98 131.33 215.37 130.86C219.43 125.99 220.91 120.74 219.77 115.25C216.18 97.9 187.7 83.34 187.42 83.19C187.2 83.07 187.1 82.8 187.22 82.58C187.33 82.36 187.61 82.26 187.83 82.38C187.9 82.42 195.18 86.12 202.82 91.95C209.9 97.35 218.74 105.75 220.67 115.07C221.86 120.84 220.32 126.35 216.07 131.44C215.87 131.68 215.8 131.99 215.89 132.29C215.97 132.58 216.18 132.8 216.48 132.9C216.76 132.99 217.06 132.95 217.29 132.78C220.29 130.61 229.74 122.42 225.29 108.06C219.8 90.38 190.94 76.49 190.65 76.35C190.42 76.24 190.33 75.97 190.43 75.74C190.54 75.52 190.81 75.42 191.04 75.52C191.11 75.55 198.48 79.08 206.44 84.77C213.81 90.04 223.22 98.32 226.15 107.78C230.91 123.1 220.04 131.9 217.82 133.5C217.51 133.72 217.14 133.84 216.76 133.84" fill="#00E47C"/>
</g>
</g>
<defs>
<clipPath id="clip0_20_7006">
<rect width="600" height="200" fill="white"/>
</clipPath>
<clipPath id="clip1_20_7006">
<rect width="478.93" height="226" fill="white" transform="translate(61 -13)"/>
</clipPath>
</defs>
</svg>
