<svg width="600" height="200" viewBox="0 0 600 200" fill="none" xmlns="http://www.w3.org/2000/svg">
<g clip-path="url(#clip0_20_7006)">
<g clip-path="url(#clip1_20_7006)">
<path d="M183.45 161.75C177.91 157.76 174.97 154.82 172.2 150.58C168.21 144.38 166 136.88 166 129.46C166 108.02 183.29 90.65 204.73 90.65C226.17 90.65 243.46 108.02 243.46 129.38C243.46 138.19 240.44 146.99 235.14 153.51C232.94 156.28 231.06 157.92 226.01 161.75V139.08H229.84V154.57C232.69 151.23 234.08 149.19 235.47 146.74C238.32 141.69 239.87 135.41 239.87 129.37C239.87 109.8 224.13 93.9 204.73 93.9C185.33 93.9 169.59 109.8 169.59 129.61C169.59 138.66 172.77 146.65 179.54 154.56V139.07H183.45V161.74V161.75ZM191.11 165.66C190.38 165.5 188.66 164.68 187.28 163.95V139.08H191.11V165.66ZM214.43 111.03L204.73 103.53L195.03 111.03L192.91 108.26L204.73 99.05L216.55 108.26L214.43 111.03ZM198.85 167.7C197.46 167.46 197.38 167.46 196.89 167.29C196.48 167.21 196.32 167.21 195.02 166.88V113.88H198.85V167.7ZM206.6 168.03C206.03 168.11 205.87 168.11 205.05 168.11C203.82 168.11 203.42 168.11 202.77 168.03V113.89H206.6V168.03ZM214.35 166.8C213.12 167.21 212.07 167.45 210.52 167.78V113.88H214.35V166.8ZM222.18 163.95C220.96 164.52 220.22 164.85 218.27 165.74V139.08H222.18V163.95Z" fill="#00E47C"/>
<path d="M266.46 94.48C267.68 94.4 268.66 94.32 268.99 94.32C273.64 94.32 276.74 97.01 276.74 101.17C276.74 104.03 275.19 106.06 271.85 107.69C276.09 108.59 278.37 111.28 278.37 115.28C278.37 118.38 276.66 120.99 273.97 122.05C272.75 122.54 271.28 122.7 268.59 122.7H266.06C264.67 122.62 263.61 122.62 262.8 122.62H258.07V120.99L260.84 120.5V96.77L258.07 96.28V94.57H263.04L266.46 94.49V94.48ZM258.23 164.28V162.65L260.84 162.16V138.35L258.23 137.94V136.15H267.61V137.86L265.16 138.35V162.08L267.52 162.57V164.28H258.22H258.23ZM266.95 106.96C270.45 106.96 272.09 105.17 272.09 101.33C272.09 98.07 270.38 96.11 267.44 96.11C266.62 96.11 266.05 96.19 264.91 96.6V106.96H266.95ZM264.91 120.33C265.73 120.82 266.3 120.98 267.44 120.98C271.27 120.98 273.64 118.62 273.64 114.78C273.64 110.94 271.44 108.91 266.71 108.91H264.92V120.32L264.91 120.33ZM280.49 164.28V162.65L282.61 162.24V150.34C282.61 148.06 281.88 147 280.33 147C279.11 147 278.05 147.49 276.5 148.79V162.08L278.62 162.57V164.28H270.22V162.65L272.58 162.16V147.32L270.22 147V145.37L275.28 144.07H276.42V146.52C278.87 144.65 280.01 144.16 281.8 144.16C284.9 144.16 286.61 146.12 286.61 149.46V162.1L288.73 162.59V164.3H280.49V164.28ZM297.53 112.26C297.53 118.7 294.19 123.03 289.29 123.03C284.39 123.03 281.46 118.95 281.46 113C281.46 106.64 284.8 102.24 289.69 102.24C294.58 102.24 297.52 106.24 297.52 112.27M285.78 112.84C285.78 118.06 287.08 120.99 289.37 120.99C291.82 120.99 293.12 117.89 293.12 111.78C293.12 106.89 291.81 104.2 289.53 104.2C287.25 104.2 285.78 107.38 285.78 112.84ZM304.45 146.84C305.59 148.31 305.92 149.29 305.92 150.83C305.92 154.58 302.99 157.35 299.07 157.35C298.25 157.35 297.6 157.27 296.87 157.02C295.89 157.67 295.32 158.33 295.32 158.81C295.32 159.29 295.81 159.54 297.03 159.63L301.92 159.88C305.75 160.04 307.55 161.51 307.55 164.53C307.55 168.85 303.72 171.62 297.85 171.62C293.44 171.62 290.59 169.99 290.59 167.46C290.59 165.83 291.41 164.77 293.77 163.22C292.14 162.57 291.49 161.83 291.49 160.69C291.49 159.22 292.55 157.92 295.16 156.29C292.71 154.74 291.82 153.19 291.82 150.66C291.82 146.83 294.76 143.89 298.59 143.89C299.41 143.89 299.73 143.97 301.2 144.3C302.02 144.54 302.59 144.63 303 144.63C303.08 144.63 303.41 144.63 303.73 144.55H304.46L307.8 144.47V146.83H304.46L304.45 146.84ZM295.97 163.55C294.91 164.53 294.5 165.34 294.5 166.57C294.5 168.37 296.13 169.43 298.82 169.43C302.16 169.43 304.69 168.04 304.69 166.09C304.69 164.38 303.79 164.05 297.52 163.64L295.97 163.56V163.55ZM296.13 150.5C296.13 153.93 296.95 155.47 298.9 155.47C300.85 155.47 301.67 153.92 301.67 150.9C301.67 147.31 300.69 145.6 298.73 145.6C296.94 145.6 296.12 147.15 296.12 150.49M304.6 112.33C305.01 117.87 306.39 120.16 309.33 120.16C310.8 120.16 311.86 119.43 313.08 117.55L314.87 118.28C312.83 121.95 311.36 123.01 308.18 123.01C303.29 123.01 300.51 119.5 300.51 113.14C300.51 106.37 303.37 102.29 308.09 102.29C312.81 102.29 314.86 105.55 314.94 112.32H304.59L304.6 112.33ZM310.8 110.37C310.64 105.97 309.82 104.25 307.95 104.25C306.08 104.25 305.09 106.13 304.61 110.37H310.81H310.8Z" fill="#00E47C"/>
<path d="M314.09 153.92C314.5 159.55 315.88 161.83 318.82 161.83C320.37 161.83 321.43 161.1 322.65 159.22L324.44 159.95C322.57 163.46 320.85 164.68 317.67 164.68C312.78 164.68 310.01 161.01 310.01 154.73C310.01 147.96 312.86 143.96 317.59 143.96C320.85 143.96 322.97 145.67 323.95 148.85C324.28 149.91 324.36 151.21 324.52 153.9H314.08L314.09 153.92ZM320.29 152.05C320.21 147.81 319.39 145.93 317.52 145.93C315.65 145.93 314.59 147.72 314.1 152.05H320.3H320.29ZM327.63 122.61V120.98L329.59 120.57V109.56C329.59 106.62 328.94 105.56 327.23 105.56C326.01 105.56 325.11 105.97 323.48 107.35V120.48L325.44 120.89V122.6H317.12V120.97L319.57 120.48V95.61L317.29 95.12V93.73L322.35 92.67H323.49V104.98C325.77 103.19 327.08 102.62 328.79 102.62C331.97 102.62 333.6 104.49 333.6 108.16V120.47L335.72 120.88V122.59H327.65L327.63 122.61ZM326.9 164.28V162.65L329.26 162.16V137.04L326.98 136.8V135.41L332.12 134.27H333.18V162.08L335.38 162.57V164.28H326.9ZM348.51 164.28V162.65L350.47 162.24V151.15C350.47 148.21 349.82 147.15 348.11 147.15C346.97 147.15 345.99 147.64 344.36 149.03V162.08L346.32 162.57V164.28H338.08V162.65L340.44 162.16V137.21L338.16 136.8V135.41L343.3 134.27H344.36V146.67C346.56 144.88 347.86 144.31 349.74 144.31C352.76 144.31 354.47 146.18 354.47 149.53V162.09L356.67 162.58V164.29H348.52L348.51 164.28ZM344.6 106.22C346.23 103.45 347.05 102.71 348.51 102.71C349.97 102.71 350.87 103.61 350.87 105.07C350.87 105.97 350.38 106.7 349.32 107.52L347.2 106.38C345.81 107.11 344.67 108.66 344.67 109.8V120.48L347.53 120.89V122.6H338.48V120.97L340.84 120.48V105.48L338.48 105.07V103.76L343.37 102.46H344.59V106.21L344.6 106.22ZM352.92 122.61V120.98L355.12 120.49V105.81L352.92 105.32V103.93L358.06 102.63H359.04V120.49L361.32 120.9V122.61H352.92ZM359.36 95.3C359.36 96.77 358.22 97.91 356.75 97.91C355.28 97.91 354.14 96.77 354.14 95.3C354.14 93.83 355.28 92.69 356.75 92.69C358.22 92.69 359.36 93.83 359.36 95.3ZM363.36 153.92C363.77 159.55 365.15 161.83 368.09 161.83C369.64 161.83 370.7 161.1 371.92 159.22L373.71 159.95C371.83 163.46 370.12 164.68 366.94 164.68C362.05 164.68 359.27 161.01 359.27 154.73C359.27 147.96 362.12 143.96 366.85 143.96C370.11 143.96 372.23 145.67 373.21 148.85C373.54 149.91 373.62 151.21 373.78 153.9H363.34L363.36 153.92ZM369.56 152.05C369.48 147.81 368.66 145.93 366.79 145.93C364.92 145.93 363.85 147.72 363.37 152.05H369.57H369.56Z" fill="#00E47C"/>
<path d="M374.43 122.61V120.98L376.55 120.57V108.67C376.55 106.39 375.82 105.33 374.27 105.33C373.05 105.33 371.99 105.82 370.44 107.12V120.41L372.56 120.9V122.61H364.16V120.98L366.52 120.49V105.65L364.16 105.32V103.69L369.21 102.39H370.35V104.84C372.8 102.97 373.94 102.48 375.73 102.48C378.83 102.48 380.54 104.44 380.54 107.78V120.42L382.66 120.91V122.62H374.42L374.43 122.61ZM376.96 164.28V162.65L379.16 162.16V147.4L376.96 146.91V145.61L382.1 144.3H383.08V162.08L385.36 162.57V164.28H376.96ZM383.48 136.88C383.48 138.35 382.26 139.57 380.79 139.57C379.32 139.57 378.18 138.43 378.18 136.96C378.18 135.49 379.41 134.27 380.95 134.27C382.34 134.27 383.48 135.5 383.48 136.88ZM398.32 105.16C399.46 106.63 399.79 107.61 399.79 109.16C399.79 112.91 396.86 115.68 392.94 115.68C392.12 115.68 391.47 115.6 390.74 115.35C389.76 116 389.19 116.66 389.19 117.06C389.19 117.63 389.68 117.88 390.9 117.96L395.79 118.2C399.62 118.36 401.42 119.83 401.42 122.85C401.42 127.17 397.59 129.94 391.72 129.94C387.32 129.94 384.46 128.31 384.46 125.78C384.46 124.15 385.36 123.01 387.64 121.54C386.01 120.89 385.36 120.07 385.36 118.93C385.36 117.54 386.42 116.24 389.03 114.61C386.58 113.06 385.69 111.51 385.69 108.98C385.69 105.15 388.63 102.21 392.46 102.21C393.28 102.21 393.6 102.29 395.07 102.62C395.89 102.86 396.46 102.95 396.86 102.95C396.94 102.95 397.27 102.95 397.59 102.87H398.32L401.66 102.79V105.15H398.32V105.16ZM408.84 164.28V162.65L411.04 162.16V150.83C411.04 148.14 410.31 147.08 408.59 147.08C407.28 147.08 406.39 147.57 404.76 149.04V162.09L406.8 162.58V164.29H398.56V162.66L400.84 162.17V150.76C400.84 148.23 400.02 147.09 398.23 147.09C396.92 147.09 395.95 147.58 394.56 148.97V162.1L396.44 162.59V164.3H388.12V162.67L390.48 162.18V147.18L388.12 146.77V145.38L393.25 144.08H394.31V146.77C396.35 145.06 397.9 144.41 399.85 144.41C401.8 144.41 403.27 145.23 404.42 147.02C406.54 145.06 407.93 144.33 410.05 144.33C413.56 144.33 415.02 146.04 415.02 150.12V162.11L417.3 162.6V164.31H408.82L408.84 164.28ZM388.37 124.9C388.37 126.69 390 127.76 392.69 127.76C396.03 127.76 398.56 126.29 398.56 124.42C398.56 122.55 397.91 122.38 389.84 121.89C388.78 122.87 388.37 123.68 388.37 124.91M390 108.85C390 112.27 390.82 113.82 392.77 113.82C394.72 113.82 395.54 112.27 395.54 109.25C395.54 105.66 394.56 103.95 392.6 103.95C390.81 103.95 389.99 105.5 389.99 108.84M408.01 112.35C408.42 117.89 409.8 120.18 412.74 120.18C414.21 120.18 415.27 119.45 416.49 117.57L418.28 118.3C416.24 121.97 414.77 123.03 411.59 123.03C406.7 123.03 403.92 119.52 403.92 113.16C403.92 106.39 406.78 102.31 411.51 102.31C416.24 102.31 418.28 105.57 418.36 112.34H408.01V112.35ZM414.21 110.39C414.05 105.99 413.23 104.27 411.36 104.27C409.49 104.27 408.5 106.15 408.02 110.39H414.22H414.21ZM427.83 106.23C429.46 103.46 430.28 102.72 431.74 102.72C433.2 102.72 434.1 103.62 434.1 105.08C434.1 105.98 433.61 106.71 432.55 107.53L430.43 106.39C429.04 107.12 427.9 108.67 427.9 109.81V120.49L430.76 120.9V122.61H421.71V120.98L424.07 120.49V105.49L421.71 105.08V103.78L426.6 102.47H427.82V106.22L427.83 106.23Z" fill="#00E47C"/>
<path d="M208.99 23.23H218.67C220.61 23.23 222.33 23.59 223.81 24.31C225.29 25.03 226.44 26.05 227.25 27.36C228.06 28.67 228.46 30.2 228.46 31.96C228.46 33.72 228.06 35.25 227.25 36.57C226.44 37.89 225.3 38.9 223.81 39.62C222.33 40.33 220.62 40.69 218.67 40.69H213V52.6H208.98V23.24L208.99 23.23ZM218.67 37.22C219.87 37.22 220.87 37.01 221.7 36.58C222.52 36.15 223.14 35.54 223.54 34.75C223.95 33.96 224.15 33.03 224.15 31.96C224.15 30.89 223.95 29.96 223.54 29.17C223.13 28.38 222.52 27.77 221.7 27.34C220.88 26.91 219.87 26.7 218.67 26.7H213V37.22H218.67Z" fill="white"/>
<path d="M232.25 31.93H235.8V36.5H236.13C236.67 35.28 237.22 34.31 237.78 33.58C238.34 32.86 238.95 32.34 239.63 32.01C240.31 31.68 241.09 31.52 241.98 31.52C242.24 31.52 242.5 31.54 242.78 31.57C243.05 31.6 243.29 31.66 243.49 31.74V35.78C243.22 35.7 242.88 35.63 242.47 35.59C242.06 35.54 241.65 35.52 241.25 35.52C240.12 35.52 239.17 35.72 238.39 36.13C237.61 36.54 237.02 37.13 236.62 37.91C236.22 38.69 236.02 39.63 236.02 40.73V52.58H232.27V31.93H232.25Z" fill="white"/>
<path d="M249.94 51.65C248.41 50.75 247.23 49.49 246.39 47.87C245.55 46.25 245.14 44.38 245.14 42.27C245.14 40.16 245.56 38.28 246.39 36.65C247.23 35.03 248.41 33.77 249.94 32.87C251.47 31.97 253.23 31.52 255.23 31.52C257.23 31.52 258.99 31.97 260.52 32.87C262.05 33.77 263.23 35.03 264.07 36.65C264.91 38.28 265.32 40.15 265.32 42.27C265.32 44.39 264.9 46.24 264.07 47.87C263.24 49.5 262.05 50.76 260.52 51.65C258.99 52.55 257.23 53 255.23 53C253.23 53 251.47 52.55 249.94 51.65ZM258.6 48.82C259.5 48.21 260.18 47.35 260.62 46.23C261.06 45.12 261.28 43.8 261.28 42.28C261.28 40.76 261.06 39.44 260.62 38.33C260.18 37.22 259.51 36.35 258.6 35.74C257.69 35.13 256.57 34.82 255.23 34.82C253.89 34.82 252.78 35.12 251.88 35.74C250.98 36.36 250.3 37.22 249.85 38.33C249.4 39.44 249.18 40.76 249.18 42.28C249.18 43.8 249.4 45.12 249.85 46.23C250.3 47.34 250.97 48.21 251.88 48.82C252.78 49.43 253.9 49.74 255.23 49.74C256.56 49.74 257.7 49.43 258.6 48.82Z" fill="white"/>
<path d="M273.29 51.64C271.93 50.74 270.87 49.47 270.1 47.84C269.33 46.21 268.95 44.35 268.95 42.27C268.95 40.19 269.33 38.32 270.1 36.68C270.87 35.05 271.93 33.78 273.29 32.88C274.65 31.98 276.19 31.52 277.92 31.52C279.36 31.52 280.6 31.87 281.65 32.57C282.7 33.27 283.61 34.36 284.4 35.84H284.73V22H288.48V52.58H284.93V48.42H284.6C283.76 50 282.8 51.15 281.73 51.89C280.66 52.63 279.38 52.99 277.89 52.99C276.18 52.99 274.64 52.54 273.28 51.63L273.29 51.64ZM282.27 48.82C283.16 48.21 283.83 47.34 284.27 46.22C284.71 45.1 284.93 43.78 284.93 42.28C284.93 40.78 284.71 39.44 284.27 38.33C283.83 37.22 283.16 36.35 282.27 35.74C281.38 35.13 280.28 34.82 278.96 34.82C277.64 34.82 276.53 35.12 275.64 35.74C274.75 36.36 274.08 37.22 273.64 38.33C273.21 39.44 272.99 40.76 272.99 42.28C272.99 43.8 273.21 45.1 273.65 46.22C274.09 47.34 274.76 48.21 275.65 48.82C276.54 49.43 277.64 49.74 278.96 49.74C280.28 49.74 281.38 49.43 282.27 48.82Z" fill="white"/>
<path d="M310.93 52.59H307.38V48.43H307.05C306.25 49.94 305.25 51.08 304.06 51.84C302.87 52.61 301.51 52.99 299.99 52.99C298.6 52.99 297.41 52.68 296.41 52.06C295.41 51.44 294.65 50.55 294.12 49.38C293.59 48.21 293.33 46.82 293.33 45.2V31.93H297.08V44.76C297.08 48.08 298.59 49.73 301.61 49.73C302.76 49.73 303.76 49.5 304.6 49.05C305.44 48.6 306.07 47.94 306.52 47.08C306.96 46.22 307.18 45.2 307.18 44.02V31.93H310.93V52.58V52.59Z" fill="white"/>
<path d="M320.05 51.64C318.53 50.74 317.36 49.47 316.52 47.85C315.68 46.23 315.27 44.35 315.27 42.23C315.27 40.11 315.69 38.26 316.52 36.64C317.35 35.02 318.53 33.77 320.05 32.87C321.57 31.97 323.32 31.52 325.3 31.52C326.81 31.52 328.19 31.79 329.44 32.33C330.69 32.87 331.76 33.65 332.64 34.68C333.52 35.71 334.17 36.93 334.58 38.34L330.73 39.01C330.34 37.63 329.68 36.58 328.76 35.87C327.84 35.16 326.68 34.81 325.26 34.81C323.94 34.81 322.84 35.11 321.95 35.72C321.06 36.32 320.39 37.18 319.95 38.3C319.51 39.41 319.29 40.73 319.29 42.24C319.29 43.75 319.51 45.08 319.95 46.19C320.39 47.3 321.06 48.17 321.95 48.78C322.84 49.39 323.94 49.7 325.26 49.7C328.1 49.7 329.92 48.24 330.72 45.32L334.57 45.99C334.16 47.46 333.52 48.72 332.64 49.77C331.76 50.82 330.7 51.63 329.45 52.18C328.2 52.73 326.81 53.01 325.29 53.01C323.31 53.01 321.56 52.56 320.04 51.65L320.05 51.64Z" fill="white"/>
<path d="M342.85 51.99C341.97 51.6 341.35 50.99 340.98 50.17C340.61 49.35 340.43 48.26 340.43 46.9V35.2H336.8V31.94H340.43V26.95H344.18V31.94H349.97V35.2H344.18V46.76C344.18 47.4 344.24 47.9 344.37 48.26C344.5 48.62 344.75 48.89 345.11 49.05C345.48 49.22 346.01 49.31 346.7 49.31H349.96V52.59H346.45C344.91 52.59 343.71 52.39 342.83 52L342.85 51.99Z" fill="white"/>
<path d="M357.04 51.65C355.51 50.75 354.33 49.49 353.49 47.87C352.65 46.25 352.24 44.38 352.24 42.27C352.24 40.16 352.66 38.28 353.49 36.65C354.33 35.03 355.51 33.77 357.04 32.87C358.57 31.97 360.33 31.52 362.33 31.52C364.33 31.52 366.09 31.97 367.62 32.87C369.15 33.77 370.33 35.03 371.17 36.65C372.01 38.28 372.42 40.15 372.42 42.27C372.42 44.39 372 46.24 371.17 47.87C370.33 49.49 369.15 50.76 367.62 51.65C366.09 52.55 364.33 53 362.33 53C360.33 53 358.57 52.55 357.04 51.65ZM365.7 48.82C366.6 48.21 367.28 47.35 367.72 46.23C368.16 45.11 368.38 43.8 368.38 42.28C368.38 40.76 368.16 39.44 367.72 38.33C367.28 37.22 366.61 36.35 365.7 35.74C364.8 35.13 363.67 34.82 362.33 34.82C360.99 34.82 359.88 35.12 358.98 35.74C358.08 36.35 357.4 37.22 356.95 38.33C356.5 39.44 356.28 40.76 356.28 42.28C356.28 43.8 356.5 45.12 356.95 46.23C357.4 47.34 358.07 48.21 358.98 48.82C359.88 49.43 361 49.74 362.33 49.74C363.66 49.74 364.8 49.43 365.7 48.82Z" fill="white"/>
<path d="M378.63 51.51C377.16 50.52 376.06 49.03 375.36 47.04L379.05 46.37C379.5 47.51 380.17 48.36 381.07 48.92C381.97 49.48 383.1 49.76 384.48 49.76C385.36 49.76 386.13 49.65 386.79 49.42C387.45 49.2 387.95 48.87 388.31 48.45C388.66 48.03 388.84 47.53 388.84 46.96C388.84 46.32 388.62 45.8 388.17 45.4C387.72 45 387.16 44.69 386.5 44.46C385.83 44.24 384.9 43.98 383.71 43.7C382.12 43.32 380.83 42.93 379.83 42.55C378.83 42.17 377.98 41.56 377.26 40.76C376.54 39.96 376.19 38.87 376.19 37.53C376.19 36.33 376.51 35.28 377.16 34.38C377.81 33.48 378.72 32.78 379.89 32.28C381.06 31.78 382.43 31.54 383.98 31.54C386.13 31.54 387.93 32.02 389.38 32.99C390.83 33.96 391.89 35.35 392.56 37.17L389.07 37.84C388.66 36.82 388.03 36.06 387.16 35.55C386.3 35.04 385.2 34.78 383.87 34.78C382.63 34.78 381.67 35 380.98 35.43C380.29 35.87 379.94 36.48 379.94 37.29C379.94 37.91 380.16 38.43 380.61 38.82C381.06 39.22 381.62 39.52 382.29 39.75C382.96 39.98 383.89 40.22 385.07 40.47C386.7 40.84 388.02 41.21 389.04 41.59C390.06 41.97 390.92 42.57 391.65 43.38C392.38 44.19 392.74 45.3 392.74 46.68C392.74 47.96 392.39 49.08 391.7 50.03C391.01 50.99 390.03 51.72 388.75 52.23C387.48 52.74 385.99 53 384.3 53C382 53 380.12 52.51 378.64 51.52L378.63 51.51Z" fill="white"/>
</g>
</g>
<defs>
<clipPath id="clip0_20_7006">
<rect width="600" height="200" fill="white"/>
</clipPath>
<clipPath id="clip1_20_7006">
<rect width="300" height="300" fill="white" transform="translate(150 -53)"/>
</clipPath>
</defs>
</svg>
