<svg width="600" height="200" viewBox="0 0 600 200" fill="none" xmlns="http://www.w3.org/2000/svg">
<mask id="mask0_28_14453" style="mask-type:luminance" maskUnits="userSpaceOnUse" x="54" y="7" width="187" height="187">
<path d="M241 7.19556H54.3906V193.805H241V7.19556Z" fill="white"/>
</mask>
<g mask="url(#mask0_28_14453)">
<path d="M209.139 59.9673C208.734 60.8699 208.05 61.617 207.178 62.0901C206.686 62.2271 206.169 62.2831 205.659 62.2395C204.924 62.1897 204.184 62.2706 203.48 62.4885C201.538 63.5468 199.975 65.1903 199.017 67.1824L198.786 67.5434C198.643 67.7738 198.506 67.9917 198.375 68.1846C196.097 71.5774 193.545 74.9827 189.641 76.041C187.967 76.5763 186.137 76.2028 184.798 75.0574C184.325 74.5593 183.908 74.0177 183.534 73.4388C182.831 71.9572 181.486 70.8864 179.886 70.5316C177.066 70.2701 174.34 72.4863 171.588 77.3794C171.221 78.033 170.866 78.7054 170.517 79.3777C169.689 81.0772 168.693 82.6958 167.554 84.2023C166.471 85.603 165.008 86.6613 163.34 87.2465C162.207 87.5142 161.03 87.5142 159.903 87.2465C159.181 87.1095 158.453 87.0348 157.718 87.0161V57.39C157.793 56.8795 157.438 56.4064 156.927 56.3317C156.417 56.257 155.944 56.6118 155.869 57.1223C155.857 57.2095 155.857 57.2966 155.869 57.3838V96.4412C155.869 96.9579 156.286 97.375 156.803 97.375H209.73C210.241 97.3128 210.608 96.8459 210.54 96.3354C210.509 96.0926 210.384 95.8747 210.197 95.7191C210.017 95.5697 209.78 95.5012 209.55 95.5199H157.712V88.8277C158.334 88.8526 158.951 88.9211 159.561 89.0393C160.333 89.1888 161.117 89.2697 161.908 89.2884C162.561 89.2946 163.215 89.2012 163.844 89.0082C165.873 88.311 167.654 87.0348 168.973 85.3478C170.187 83.7354 171.252 82.011 172.136 80.1932C172.478 79.5396 172.814 78.8921 173.169 78.2509C175.491 74.1111 177.683 72.1315 179.675 72.3245C180.565 72.4178 181.138 73.2334 181.86 74.2668L181.99 74.4597C182.42 75.1445 182.918 75.7795 183.472 76.3647C185.277 77.9708 187.792 78.5186 190.102 77.8089C194.578 76.6448 197.498 72.754 199.882 69.2056C200.075 68.9192 200.274 68.6017 200.486 68.2718L200.554 68.1598C201.457 66.7093 202.696 64.7172 204.053 64.2316C204.545 64.0884 205.061 64.0386 205.572 64.0822C206.3 64.132 207.035 64.0511 207.732 63.8394C209.021 63.248 210.067 62.2208 210.683 60.9446L210.428 60.7579L210.695 60.9197L210.739 60.8388C210.951 60.3844 210.751 59.8428 210.297 59.6311C209.886 59.4381 209.394 59.5875 209.145 59.9673" fill="white"/>
<path d="M224.957 31.2065H70.4334C68.018 31.2065 66.057 33.1675 66.0508 35.5891V129.971C66.0508 132.386 68.0117 134.347 70.4334 134.353H129.735V136.451C129.835 142.77 129.966 151.423 127.071 156.092C124.544 159.846 120.709 162.523 116.32 163.6C116.021 163.674 115.648 163.755 115.174 163.83C112.249 164.409 107.356 165.386 107.822 168.985C107.885 169.445 108.277 169.794 108.744 169.794H183.279C186.572 169.794 187.077 169.794 187.375 169.495C187.5 169.358 187.556 169.178 187.531 168.991C188.023 165.224 182.75 164.141 179.917 163.562L179.058 163.376C174.663 162.436 170.804 159.827 168.289 156.098C165.568 151.716 165.799 143.909 165.985 137.559C165.985 136.881 166.004 136.208 166.029 135.567C166.041 135.163 166.054 134.777 166.066 134.403H224.957C227.373 134.403 229.334 132.442 229.334 130.027V35.5767C229.321 33.1675 227.367 31.219 224.957 31.2128M131.622 136.401V134.328H164.28C164.28 135.281 164.28 136.339 164.199 137.441C163.981 143.635 163.688 152.12 166.745 157.032C169.49 161.19 173.761 164.104 178.641 165.125C178.816 165.168 179.021 165.212 179.245 165.262L179.581 165.33C181.449 165.722 184.829 166.42 185.576 167.895H109.864C110.655 166.569 113.83 165.947 115.61 165.598C116.077 165.505 116.482 165.424 116.799 165.343C121.667 164.172 125.913 161.203 128.677 157.02C131.858 151.89 131.728 142.919 131.628 136.376M195.848 118.031C172.864 117.956 149.451 117.8 126.816 117.638L123.547 117.613C102.786 117.464 85.3554 117.352 67.9059 117.265V35.5705C67.9059 34.1822 69.0389 33.0554 70.4272 33.0617H224.957C226.346 33.0617 227.466 34.1885 227.472 35.5705L227.497 117.676C216.914 117.887 206.518 118.08 195.848 118.043M67.937 119.132C83.0271 119.195 98.4285 119.301 113.319 119.4L123.566 119.469C148.056 119.643 172.018 119.811 195.879 119.879H198.4C208.199 119.879 218.153 119.699 227.528 119.506L227.504 129.952C227.497 131.334 226.377 132.455 224.995 132.461H70.4334C69.0514 132.455 67.937 131.334 67.9308 129.952V119.126L67.937 119.132Z" fill="white"/>
<path d="M109.64 73.8248C109.796 73.9369 109.977 73.9929 110.17 73.9991H110.182C110.307 73.9991 110.431 73.968 110.543 73.9182C110.842 73.7875 111.047 73.5135 111.091 73.1898L114.49 47.1619C114.521 46.9129 114.446 46.6577 114.291 46.4647C114.129 46.2655 113.898 46.1472 113.643 46.1285C103.745 45.3441 94.1145 49.5649 87.9826 57.3776C87.69 57.7947 87.7896 58.3674 88.2005 58.6663L109.64 73.831V73.8248Z" fill="white"/>
<path d="M217.045 72.0941C216.97 63.6402 216.889 54.8999 216.945 49.017V48.9983C216.926 48.5128 216.528 48.1268 216.042 48.1206H216.03C213.135 47.9898 209.163 47.8902 204.227 47.8218V40.5693C204.233 40.065 203.835 39.648 203.33 39.6355C170.648 38.7017 78.3951 39.2869 77.5236 39.2993C77.0193 39.2993 76.6085 39.704 76.6085 40.2082L75.7681 108.612C75.7681 109.128 76.1852 109.545 76.7019 109.545L203.349 109.763C203.866 109.763 204.283 109.346 204.283 108.83V105.076C216.148 104.995 216.335 104.777 216.578 104.515C217.2 103.831 217.331 100.668 217.082 73.2271L217.057 72.0941H217.045ZM202.378 47.7595C184.592 47.5416 159.884 47.6848 150.042 47.7595H149.444C148.934 47.7595 148.523 48.1704 148.511 48.6746L148.056 103.88C148.056 104.385 148.461 104.802 148.971 104.814C168.643 104.957 183.117 105.026 193.233 105.026H202.372L202.397 107.883L77.617 107.653L78.4263 41.1358C89.2147 41.0735 171.133 40.6129 202.365 41.4533L202.378 47.7595ZM149.955 103.015L150.384 49.6333C159.125 49.5586 199.135 49.2598 215.077 49.8823C215.04 55.6843 215.115 63.8643 215.177 71.7829V73.1836C215.283 83.1814 215.457 99.7033 215.109 103.04C210.178 103.351 174.457 103.221 149.942 103.021" fill="white"/>
<path d="M116.986 47.6663C116.743 47.6227 116.488 47.6787 116.289 47.8219C116.077 47.9713 115.946 48.1954 115.915 48.4507L112.653 73.3145C112.61 73.5759 112.691 73.8436 112.871 74.0428C113.045 74.2483 113.301 74.3665 113.568 74.3665H138.656C138.911 74.3665 139.154 74.2545 139.329 74.0677C139.503 73.8872 139.59 73.6382 139.578 73.3892C138.893 60.6211 129.555 49.9883 116.986 47.6601M114.627 72.5176L117.602 49.6833C124.973 51.3143 131.254 56.1078 134.765 62.7875C136.384 65.8005 137.374 69.1124 137.666 72.5176H114.627Z" fill="white"/>
<path d="M136.62 77.2301H110.605L89.4764 62.221C89.053 61.9284 88.4679 62.0342 88.1815 62.4637C88.1815 62.47 88.1691 62.4824 88.1628 62.4887C80.3875 74.6715 83.9545 90.8573 96.1436 98.6326C96.7164 98.9999 97.3016 99.3423 97.9054 99.6598C102.039 102.001 106.708 103.233 111.458 103.239H111.626C117.21 103.227 122.638 101.409 127.102 98.0537C132.755 93.7271 136.452 87.3213 137.367 80.2556C137.455 79.658 137.517 79.0106 137.56 78.2386C137.598 77.9709 137.517 77.697 137.336 77.4916C137.15 77.2986 136.882 77.2052 136.614 77.2301M135.637 79.0355C135.618 79.2658 135.593 79.5024 135.562 79.7327L135.506 80.0066C133.757 93.6587 121.269 103.308 107.623 101.559C93.971 99.8092 84.3218 87.3213 86.0711 73.6755C86.4945 70.3823 87.5652 67.2136 89.2336 64.3438L109.516 78.7117L109.982 78.9421C110.095 78.9919 110.219 79.023 110.337 79.0417H135.643L135.637 79.0355Z" fill="white"/>
</g>
<path d="M290.242 83.1116H296.555L305.781 111.25H301.757L299.137 102.983H287.49L284.87 111.25H281L290.242 83.1116ZM298.058 99.6633L293.467 85.1647H293.115L288.541 99.6633H298.058Z" fill="white"/>
<path d="M314.902 111.25H312.48L305.913 91.4563H309.645L315.331 109.412H315.7L321.347 91.4563H324.903L315.777 119.066H312.161L314.896 111.25H314.902Z" fill="white"/>
<path d="M344.521 111.25H341.119V107.265H340.806C340.035 108.713 339.083 109.803 337.943 110.54C336.804 111.278 335.505 111.647 334.046 111.647C332.72 111.647 331.575 111.349 330.617 110.755C329.659 110.16 328.927 109.307 328.421 108.184C327.914 107.061 327.661 105.729 327.661 104.177V91.4564H331.256V103.748C331.256 106.924 332.703 108.515 335.593 108.515C336.699 108.515 337.657 108.294 338.455 107.86C339.259 107.425 339.87 106.797 340.294 105.972C340.718 105.151 340.927 104.172 340.927 103.038V91.4509H344.521V111.245V111.25Z" fill="white"/>
<path d="M352.81 110.342C351.506 109.478 350.488 108.261 349.75 106.698C349.012 105.135 348.644 103.357 348.644 101.364C348.644 99.3718 349.012 97.5718 349.75 96.0086C350.488 94.4453 351.506 93.2289 352.81 92.3647C354.115 91.5005 355.59 91.0656 357.247 91.0656C358.629 91.0656 359.818 91.4014 360.825 92.0729C361.827 92.7445 362.707 93.7903 363.461 95.2105H363.775V81.9448H367.37V111.256H363.968V107.271H363.654C362.845 108.784 361.931 109.891 360.907 110.595C359.884 111.3 358.656 111.652 357.225 111.652C355.585 111.652 354.109 111.217 352.81 110.353V110.342ZM361.419 107.634C362.272 107.045 362.911 106.219 363.335 105.14C363.759 104.067 363.968 102.807 363.968 101.359C363.968 99.9112 363.753 98.6342 363.335 97.5663C362.911 96.4985 362.272 95.6728 361.419 95.0839C360.566 94.4949 359.509 94.2031 358.243 94.2031C356.977 94.2031 355.92 94.4949 355.056 95.0839C354.198 95.6673 353.559 96.4985 353.141 97.5663C352.722 98.6342 352.513 99.9002 352.513 101.359C352.513 102.818 352.722 104.067 353.146 105.14C353.57 106.214 354.209 107.045 355.062 107.634C355.915 108.217 356.972 108.515 358.238 108.515C359.504 108.515 360.561 108.223 361.414 107.634H361.419Z" fill="white"/>
<path d="M373.92 110.948C373.028 110.485 372.329 109.836 371.817 109.005C371.305 108.173 371.058 107.216 371.058 106.131C371.058 104.397 371.74 102.999 373.1 101.931C374.459 100.864 376.496 100.142 379.204 99.7626L383.971 99.0801C383.943 97.9352 383.773 96.9994 383.454 96.2838C383.134 95.5683 382.666 95.0398 382.055 94.6986C381.444 94.3573 380.663 94.1922 379.711 94.1922C378.489 94.1922 377.476 94.4784 376.683 95.0509C375.89 95.6233 375.302 96.5205 374.927 97.748L371.388 97.4563C371.729 96.1022 372.274 94.9518 373.028 93.9995C373.782 93.0473 374.729 92.3207 375.874 91.8198C377.013 91.3189 378.329 91.0657 379.81 91.0657C381.439 91.0657 382.832 91.3739 383.993 91.9849C385.154 92.5959 386.041 93.4986 386.652 94.6821C387.263 95.8655 387.571 97.3077 387.571 98.9975V111.25H384.169V107.265H383.855C383.063 108.674 382.061 109.753 380.855 110.507C379.65 111.261 378.34 111.641 376.92 111.641C375.813 111.641 374.812 111.41 373.92 110.948ZM375.797 107.799C376.402 108.272 377.25 108.515 378.345 108.515C379.364 108.515 380.3 108.322 381.158 107.937C382.017 107.551 382.699 107.023 383.211 106.351C383.718 105.68 383.971 104.937 383.971 104.117V101.832L379.81 102.46C378.626 102.63 377.674 102.845 376.964 103.115C376.254 103.385 375.731 103.726 375.39 104.15C375.048 104.573 374.883 105.102 374.883 105.74C374.883 106.638 375.186 107.326 375.791 107.805L375.797 107.799Z" fill="white"/>
<path d="M393.929 110.221C392.514 109.274 391.468 107.848 390.791 105.933L394.33 105.289C394.76 106.384 395.404 107.199 396.262 107.733C397.121 108.267 398.211 108.536 399.527 108.536C400.374 108.536 401.112 108.426 401.745 108.212C402.378 107.997 402.862 107.689 403.198 107.281C403.539 106.88 403.704 106.401 403.704 105.856C403.704 105.245 403.49 104.744 403.06 104.359C402.631 103.973 402.097 103.676 401.459 103.461C400.82 103.247 399.928 103.005 398.783 102.729C397.259 102.366 396.02 101.997 395.062 101.623C394.105 101.254 393.285 100.676 392.602 99.9055C391.919 99.1294 391.578 98.1001 391.578 96.8066C391.578 95.6616 391.886 94.6543 392.508 93.7846C393.125 92.9205 394 92.2489 395.128 91.77C396.257 91.2966 397.561 91.0544 399.048 91.0544C401.106 91.0544 402.829 91.5168 404.227 92.4416C405.62 93.3663 406.638 94.7039 407.277 96.4488L403.936 97.0928C403.545 96.1185 402.934 95.3809 402.108 94.8965C401.282 94.4066 400.231 94.1644 398.954 94.1644C397.771 94.1644 396.846 94.3736 396.18 94.7919C395.514 95.2103 395.184 95.7993 395.184 96.5699C395.184 97.1699 395.398 97.6597 395.828 98.034C396.257 98.4083 396.796 98.7056 397.44 98.9258C398.084 99.1459 398.976 99.3716 400.11 99.6193C401.673 99.9716 402.939 100.329 403.908 100.693C404.877 101.056 405.713 101.628 406.407 102.41C407.106 103.192 407.453 104.249 407.453 105.575C407.453 106.797 407.123 107.87 406.457 108.79C405.791 109.709 404.849 110.413 403.633 110.898C402.416 111.388 400.991 111.63 399.361 111.63C397.16 111.63 395.354 111.157 393.94 110.215L393.929 110.221Z" fill="white"/>
<path d="M417.328 91.1978H423.052L427.88 108.845H428.21L433.037 91.1978H438.547L432.41 111.245H423.46L417.322 91.1978H417.328Z" fill="#68E085"/>
<path d="M441.894 88.5831C441.36 88.2859 440.942 87.8676 440.634 87.3336C440.325 86.7997 440.177 86.1887 440.177 85.4951C440.177 84.8016 440.331 84.1906 440.634 83.6567C440.942 83.1227 441.36 82.7044 441.894 82.4072C442.428 82.1099 443.034 81.9558 443.711 81.9558C444.388 81.9558 444.993 82.1044 445.527 82.4072C446.061 82.7044 446.479 83.1227 446.777 83.6567C447.074 84.1906 447.228 84.8016 447.228 85.4951C447.228 86.1887 447.079 86.7997 446.777 87.3336C446.479 87.8676 446.061 88.2859 445.527 88.5831C444.993 88.8804 444.388 89.0345 443.711 89.0345C443.034 89.0345 442.428 88.8859 441.894 88.5831ZM440.898 91.2032H446.523V111.25H440.898V91.2032Z" fill="#68E085"/>
<path d="M452.639 110.193C451.114 109.23 449.996 107.766 449.275 105.795L454.417 104.799C454.73 105.696 455.231 106.368 455.919 106.814C456.607 107.254 457.504 107.48 458.594 107.48C459.222 107.48 459.772 107.414 460.246 107.276C460.719 107.138 461.093 106.935 461.358 106.67C461.622 106.406 461.759 106.087 461.759 105.724C461.759 105.305 461.578 104.953 461.214 104.667C460.851 104.381 460.389 104.149 459.827 103.973C459.266 103.797 458.49 103.594 457.504 103.357C455.903 102.966 454.582 102.57 453.547 102.173C452.512 101.777 451.62 101.166 450.872 100.335C450.123 99.5092 449.749 98.4083 449.749 97.0433C449.749 95.7938 450.096 94.6929 450.784 93.7516C451.472 92.8049 452.462 92.0783 453.745 91.5719C455.027 91.0655 456.541 90.8123 458.286 90.8123C460.537 90.8123 462.409 91.2691 463.895 92.1884C465.381 93.1076 466.477 94.4672 467.176 96.2616L462.172 97.3735C461.847 96.5919 461.33 95.9974 460.631 95.5956C459.926 95.1938 459.046 94.9901 457.994 94.9901C457.097 94.9901 456.404 95.1222 455.914 95.3919C455.424 95.6616 455.182 96.0415 455.182 96.5369C455.182 96.9552 455.363 97.2965 455.727 97.5717C456.09 97.8469 456.552 98.0616 457.103 98.2267C457.659 98.3918 458.435 98.5845 459.437 98.8047C461.077 99.1845 462.431 99.5643 463.493 99.9551C464.556 100.346 465.475 100.962 466.251 101.81C467.027 102.658 467.412 103.792 467.412 105.212C467.412 106.555 467.038 107.711 466.29 108.68C465.541 109.648 464.495 110.386 463.152 110.887C461.809 111.388 460.251 111.641 458.484 111.641C456.112 111.641 454.163 111.157 452.644 110.193H452.639Z" fill="#68E085"/>
<path d="M488.946 111.25H483.513V107.067H483.199C481.559 110.116 479.335 111.641 476.533 111.641C475.245 111.641 474.117 111.344 473.153 110.744C472.19 110.144 471.453 109.285 470.935 108.162C470.418 107.039 470.165 105.713 470.165 104.177V91.2031H475.79V103.472C475.79 104.683 476.098 105.625 476.72 106.296C477.337 106.968 478.218 107.304 479.346 107.304C480.177 107.304 480.893 107.127 481.487 106.775C482.082 106.423 482.533 105.916 482.847 105.25C483.16 104.584 483.315 103.781 483.315 102.828V91.2031H488.94V111.25H488.946Z" fill="#68E085"/>
<path d="M494.819 110.926C493.899 110.452 493.184 109.781 492.672 108.922C492.155 108.063 491.901 107.072 491.901 105.95C491.901 104.089 492.677 102.603 494.224 101.502C495.776 100.401 498.11 99.647 501.237 99.2451L504.716 98.7938C504.677 97.5278 504.374 96.6085 503.818 96.0306C503.257 95.4526 502.404 95.1609 501.259 95.1609C500.285 95.1609 499.492 95.3645 498.892 95.7774C498.292 96.1902 497.835 96.8452 497.521 97.7424L492.287 97.3131C492.628 95.9205 493.206 94.737 494.037 93.7683C494.863 92.7995 495.914 92.0619 497.191 91.561C498.468 91.0601 499.938 90.8069 501.606 90.8069C503.455 90.8069 505.029 91.1151 506.334 91.7261C507.638 92.3371 508.629 93.2398 509.312 94.4343C509.994 95.6287 510.336 97.0764 510.336 98.7828V111.25H504.903V107.067H504.589C503.741 108.63 502.778 109.781 501.699 110.524C500.62 111.267 499.365 111.636 497.945 111.636C496.773 111.636 495.727 111.399 494.808 110.92L494.819 110.926ZM498.474 106.764C498.936 107.111 499.624 107.282 500.538 107.282C501.369 107.282 502.107 107.138 502.734 106.852C503.367 106.566 503.857 106.159 504.198 105.63C504.545 105.102 504.716 104.485 504.716 103.786V102.3L502.057 102.669C500.989 102.812 500.147 102.994 499.536 103.208C498.925 103.423 498.479 103.693 498.198 104.012C497.918 104.331 497.78 104.739 497.78 105.234C497.78 105.911 498.011 106.423 498.474 106.77V106.764Z" fill="#68E085"/>
<path d="M516.517 110.623C515.658 110.204 515.025 109.571 514.624 108.718C514.222 107.865 514.018 106.764 514.018 105.404V81.9336H519.644V104.837C519.644 105.371 519.699 105.779 519.809 106.059C519.919 106.34 520.111 106.533 520.387 106.643C520.662 106.753 521.053 106.808 521.559 106.808H523.007V111.245H519.88C518.499 111.245 517.381 111.035 516.517 110.617V110.623Z" fill="#68E085"/>
<path d="M529.161 110.309C527.587 109.423 526.365 108.19 525.495 106.616C524.631 105.041 524.196 103.241 524.196 101.221C524.196 99.2011 524.62 97.4232 525.478 95.8379C526.332 94.2526 527.531 93.0197 529.073 92.1334C530.614 91.2472 532.386 90.8069 534.379 90.8069C536.372 90.8069 538.1 91.2472 539.597 92.1279C541.094 93.0086 542.25 94.2306 543.065 95.7994C543.88 97.3681 544.287 99.1571 544.287 101.161V102.801H530.102C530.256 104.26 530.697 105.405 531.412 106.23C532.128 107.056 533.157 107.469 534.5 107.469C535.397 107.469 536.168 107.282 536.806 106.902C537.445 106.522 537.935 105.983 538.271 105.278L543.896 105.746C543.439 107.012 542.757 108.08 541.854 108.96C540.946 109.841 539.878 110.502 538.65 110.953C537.417 111.404 536.08 111.625 534.632 111.625C532.563 111.625 530.735 111.184 529.161 110.298V110.309ZM538.48 99.036C538.348 97.7755 537.957 96.7847 537.307 96.0636C536.658 95.348 535.7 94.9902 534.434 94.9902C533.168 94.9902 532.188 95.348 531.484 96.0636C530.779 96.7792 530.333 97.77 530.135 99.036H538.48Z" fill="#68E085"/>
<path d="M549.835 110.193C548.311 109.23 547.193 107.766 546.472 105.795L551.613 104.799C551.927 105.696 552.428 106.368 553.116 106.814C553.804 107.254 554.701 107.48 555.791 107.48C556.419 107.48 556.969 107.414 557.442 107.276C557.916 107.138 558.29 106.935 558.554 106.67C558.819 106.406 558.956 106.087 558.956 105.724C558.956 105.305 558.775 104.953 558.411 104.667C558.048 104.381 557.586 104.149 557.024 103.973C556.463 103.797 555.687 103.594 554.701 103.357C553.099 102.966 551.778 102.57 550.744 102.173C549.709 101.777 548.817 101.166 548.068 100.335C547.32 99.5092 546.946 98.4083 546.946 97.0433C546.946 95.7938 547.292 94.6929 547.98 93.7516C548.668 92.8049 549.659 92.0783 550.942 91.5719C552.224 91.0655 553.738 90.8123 555.483 90.8123C557.734 90.8123 559.606 91.2691 561.092 92.1884C562.578 93.1076 563.673 94.4672 564.373 96.2616L559.369 97.3735C559.044 96.5919 558.527 95.9974 557.828 95.5956C557.123 95.1938 556.243 94.9901 555.191 94.9901C554.294 94.9901 553.6 95.1222 553.11 95.3919C552.621 95.6616 552.378 96.0415 552.378 96.5369C552.378 96.9552 552.56 97.2965 552.923 97.5717C553.287 97.8469 553.749 98.0616 554.299 98.2267C554.855 98.3918 555.632 98.5845 556.633 98.8047C558.274 99.1845 559.628 99.5643 560.69 99.9551C561.752 100.346 562.672 100.962 563.448 101.81C564.224 102.658 564.609 103.792 564.609 105.212C564.609 106.555 564.235 107.711 563.486 108.68C562.738 109.648 561.692 110.386 560.349 110.887C559.006 111.388 557.448 111.641 555.681 111.641C553.309 111.641 551.36 111.157 549.841 110.193H549.835Z" fill="#68E085"/>
</svg>
