<?xml version="1.0" encoding="UTF-8"?>
<svg id="Capa_2" data-name="Capa 2" xmlns="http://www.w3.org/2000/svg" viewBox="0 0 300 300">
  <defs>
    <style>
      .cls-1 {
        fill: none;
      }

      .cls-2, .cls-3 {
        fill: #00e47c;
      }

      .cls-3 {
        fill-rule: evenodd;
      }
    </style>
  </defs>
  <g id="iPhone_mockup">
    <g>
      <g id="telephone">
        <g id="Vector_14" data-name="Vector 14">
          <path class="cls-3" d="m209.28,232c-3.12,3.12-7.37,4.88-11.79,4.88s-8.66-1.76-11.78-4.88l-113.72-113.7c-3.12-3.13-4.88-7.36-4.88-11.78s1.76-8.66,4.88-11.78l14.17-14.18-7.86-7.86-14.17,14.17c-5.21,5.21-8.13,12.27-8.13,19.64s2.92,14.43,8.13,19.64l113.72,113.72c5.21,5.21,12.28,8.13,19.63,8.13s14.43-2.92,19.64-8.13l14.17-14.17-7.86-7.87-14.17,14.18h0Zm-71.39-117.11l-39.56-62.89-8.06,8.06,39.57,62.89,8.06-8.07h-.01Zm51.22,51.22l-8.04,8.06,62.88,39.57,8.06-8.06-62.89-39.57Z"/>
          <path class="cls-2" d="m121,131.78l7.84-7.86,51.22,51.22-7.84,7.87-51.22-51.23Z"/>
        </g>
      </g>
      <rect class="cls-1" width="300" height="300"/>
    </g>
  </g>
</svg>