<?xml version="1.0" encoding="UTF-8"?>
<svg id="Capa_2" data-name="Capa 2" xmlns="http://www.w3.org/2000/svg" xmlns:xlink="http://www.w3.org/1999/xlink" viewBox="0 0 598 598">
  <defs>
    <style>
      .cls-1, .cls-2, .cls-3, .cls-4 {
        fill: none;
      }

      .cls-2 {
        clip-path: url(#clippath-1);
      }

      .cls-3 {
        isolation: isolate;
      }

      .cls-5 {
        fill: #68e085;
      }

      .cls-6 {
        fill: #fff;
      }

      .cls-4 {
        clip-path: url(#clippath);
      }
    </style>
    <clipPath id="clippath">
      <rect class="cls-1" width="598" height="598"/>
    </clipPath>
    <clipPath id="clippath-1">
      <rect class="cls-1" x="149.12" y="113.19" width="299.76" height="299.76"/>
    </clipPath>
  </defs>
  <g id="botones">
    <g id="Grupo_100" data-name="Grupo 100">
      <g class="cls-4">
        <g id="Grupo_99" data-name="Grupo 99">
          <g id="Videos">
            <g class="cls-3">
              <path class="cls-5" d="m184.57,434.52h11.32l13.06,46.58h.6l13.06-46.58h10.93l-15.48,51.12h-18.03l-15.48-51.12Z"/>
              <path class="cls-5" d="m239.63,444.46c-.97-.54-1.73-1.3-2.29-2.27-.56-.97-.83-2.08-.83-3.34s.28-2.37.83-3.34c.56-.97,1.32-1.73,2.29-2.27.97-.54,2.07-.82,3.3-.82s2.33.27,3.3.82c.97.54,1.73,1.3,2.27,2.27.54.97.82,2.08.82,3.34s-.27,2.37-.82,3.34c-.54.97-1.3,1.73-2.27,2.27-.97.54-2.07.82-3.3.82s-2.33-.27-3.3-.82Zm-1.81,4.76h10.22v36.42h-10.22v-36.42Z"/>
              <path class="cls-5" d="m261.05,483.92c-2.21-1.62-3.94-3.86-5.18-6.73-1.24-2.86-1.86-6.09-1.86-9.69s.62-6.88,1.85-9.76c1.23-2.89,2.95-5.15,5.17-6.78,2.21-1.63,4.73-2.45,7.54-2.45,2.53,0,4.73.67,6.59,2.01,1.86,1.34,3.34,3.3,4.46,5.88h.57v-24h10.22v53.25h-9.87v-7.6h-.57c-1.37,2.79-2.98,4.88-4.83,6.25-1.85,1.37-4.02,2.06-6.53,2.06-2.82,0-5.33-.81-7.54-2.43Zm17.57-8.43c1.27-1.96,1.9-4.65,1.9-8.06s-.63-6.09-1.9-8.06c-1.27-1.96-3.26-2.95-5.98-2.95s-4.72.98-6,2.95c-1.28,1.96-1.92,4.65-1.92,8.06s.64,6.09,1.92,8.06c1.28,1.96,3.28,2.95,6,2.95s4.72-.98,5.98-2.95Z"/>
              <path class="cls-5" d="m305.37,483.94c-2.86-1.61-5.08-3.85-6.66-6.71-1.57-2.86-2.36-6.13-2.36-9.8s.77-6.9,2.33-9.78c1.55-2.88,3.73-5.12,6.53-6.73,2.8-1.61,6.02-2.41,9.64-2.41s6.76.8,9.48,2.4c2.72,1.6,4.82,3.82,6.3,6.67,1.48,2.85,2.22,6.1,2.22,9.74v2.98h-25.77c.28,2.65,1.08,4.73,2.38,6.23,1.3,1.5,3.17,2.25,5.61,2.25,1.63,0,3.03-.34,4.19-1.03,1.16-.69,2.05-1.67,2.66-2.95l10.22.85c-.83,2.29-2.06,4.24-3.71,5.84-1.65,1.6-3.59,2.8-5.82,3.62-2.24.82-4.67,1.22-7.3,1.22-3.76,0-7.08-.8-9.94-2.41Zm16.93-20.48c-.24-2.29-.95-4.09-2.13-5.4-1.18-1.3-2.92-1.95-5.22-1.95s-4.08.65-5.36,1.95c-1.28,1.3-2.09,3.1-2.45,5.4h15.16Z"/>
              <path class="cls-5" d="m346.85,483.99c-2.85-1.57-5.08-3.8-6.67-6.67-1.6-2.88-2.4-6.17-2.4-9.89s.8-7.01,2.4-9.87c1.6-2.86,3.82-5.09,6.67-6.67,2.85-1.59,6.11-2.38,9.78-2.38s6.93.79,9.78,2.38c2.85,1.59,5.07,3.81,6.66,6.67,1.59,2.86,2.38,6.15,2.38,9.87s-.79,7.04-2.38,9.9c-1.59,2.86-3.8,5.08-6.64,6.66-2.84,1.57-6.11,2.36-9.8,2.36s-6.93-.79-9.78-2.36Zm15.9-8.5c1.31-1.96,1.97-4.65,1.97-8.06s-.66-6.09-1.97-8.06-3.35-2.95-6.12-2.95-4.82.98-6.14,2.95c-1.33,1.96-1.99,4.65-1.99,8.06s.66,6.12,1.99,8.08c1.33,1.95,3.37,2.93,6.14,2.93s4.81-.98,6.12-2.95Z"/>
              <path class="cls-5" d="m385.5,483.73c-2.77-1.75-4.8-4.41-6.11-7.99l9.34-1.81c.57,1.63,1.48,2.85,2.73,3.66,1.25.8,2.88,1.21,4.86,1.21,1.14,0,2.14-.12,3-.37.86-.25,1.54-.62,2.02-1.1.48-.48.73-1.06.73-1.72,0-.76-.33-1.39-.99-1.92-.66-.52-1.5-.94-2.52-1.26-1.02-.32-2.43-.69-4.22-1.12-2.91-.71-5.31-1.43-7.19-2.15-1.88-.72-3.5-1.83-4.86-3.34-1.36-1.5-2.04-3.5-2.04-5.98,0-2.27.63-4.27,1.88-5.98,1.25-1.72,3.05-3.04,5.38-3.96,2.33-.92,5.08-1.38,8.25-1.38,4.09,0,7.49.83,10.19,2.5,2.7,1.67,4.69,4.13,5.96,7.4l-9.09,2.02c-.59-1.42-1.53-2.5-2.8-3.23-1.28-.73-2.88-1.1-4.79-1.1-1.63,0-2.89.24-3.78.73-.89.49-1.33,1.18-1.33,2.08,0,.76.33,1.38.99,1.88.66.5,1.5.89,2.5,1.19,1.01.3,2.42.64,4.24,1.05,2.98.69,5.44,1.38,7.37,2.1,1.93.71,3.6,1.83,5.01,3.37,1.41,1.54,2.11,3.6,2.11,6.18,0,2.44-.68,4.54-2.04,6.3-1.36,1.76-3.26,3.1-5.7,4.01-2.44.91-5.27,1.37-8.48,1.37-4.31,0-7.85-.88-10.61-2.63Z"/>
            </g>
          </g>
          <g id="Grupo_1578" data-name="Grupo 1578">
            <g class="cls-2">
              <g id="Grupo_1578-2" data-name="Grupo 1578-2">
                <path id="Trazado_4729" data-name="Trazado 4729" class="cls-6" d="m261.44,384.61c-3.51.14-6.92-1.2-9.4-3.69-3.1-3.78-4.75-8.54-4.66-13.43l-10.51-130.06c-.04-.8.58-1.47,1.38-1.51.76-.03,1.41.52,1.5,1.28l10.54,130.21v.08c-.07,4.14,1.29,8.18,3.85,11.43,1.93,1.91,4.57,2.93,7.28,2.81l73.18-1.79c.78-.04,1.45.56,1.5,1.34,0,.02,0,.05,0,.07.03.8-.59,1.47-1.39,1.5,0,0-.01,0-.02,0l-73.23,1.8v-.02Z"/>
                <path id="Trazado_4730" data-name="Trazado 4730" class="cls-6" d="m323.41,248.25h-.03c-.75,0-1.38-.58-1.42-1.33l-.63-11.62c-.05-.78.54-1.45,1.32-1.5.03,0,.06,0,.1,0h.02c.75,0,1.36.59,1.4,1.33l.63,11.62c.05.78-.54,1.45-1.32,1.5-.02,0-.04,0-.07,0"/>
                <path id="Trazado_4731" data-name="Trazado 4731" class="cls-6" d="m328.85,248.24h0c-.75,0-1.38-.58-1.42-1.33l-.62-11.49c-.08-.77.48-1.47,1.26-1.55.77-.08,1.47.48,1.55,1.26,0,.05,0,.09,0,.14l.62,11.48c.05.78-.54,1.45-1.32,1.5-.02,0-.04,0-.07,0"/>
                <path id="Trazado_4732" data-name="Trazado 4732" class="cls-6" d="m358.87,257.58l16.42,1.29-1.33-18.16h.07l-4.41-60.47-17.21-2.28c-.57-7.02-.93-11.4-.98-12.11.06-1.58.29-17.95-14.61-20.49-14.32-2.45-90.57-13.15-91.33-13.26-6.07-.79-12.2.88-17.02,4.64-4.35,4.37-6.47,10.49-5.74,16.62.52,13.26,15.74,214.24,16.17,219.66-.3,5.86,1.63,11.61,5.38,16.11,3.56,3.51,8.43,5.36,13.42,5.1h.66c18.86-.44,87.33-3.05,89.82-3.14,5.73.28,11.35-1.67,15.68-5.42,3.35-3.65,4.9-8.61,4.23-13.53-.71-9.49-5.11-63.95-9.21-114.53m.21-7.16c-.17.19-.41.31-.66.33h0c-.18,0-.33-.15-.33-.33s.15-.33.33-.33h0c.21-.03.79-.6.73-2.91-.09-2.83-1.03-3-1.04-3-.18-.02-.32-.19-.3-.37.01-.17.16-.31.33-.31.16,0,1.56.15,1.67,3.64.17,1.14-.1,2.31-.75,3.27m-2.73-5.52c-.15,0-.27-.14-.27-.29,0-.15.13-.28.28-.27h0c.06,0,1.52.05,1.6,2.66.11.81-.11,1.63-.61,2.28-.19.22-.46.35-.75.37h0c-.16,0-.28-.13-.28-.28,0-.16.13-.28.28-.28,0,0,0,0,0,0,.3,0,.85-.46.81-2.07-.06-2.03-1-2.11-1.04-2.11m4.86,6.19c-.16.18-.38.29-.61.3h0c-.2-.01-.35-.18-.35-.37.01-.2.18-.35.37-.35-.02,0,.77-.25.67-3.45-.08-2.77-.78-3.52-1.04-3.57-.19-.02-.33-.18-.33-.37.02-.2.18-.35.37-.34.27,0,1.59.27,1.71,4.27.22,1.35-.06,2.74-.79,3.9m-8.55-70.17l14.26,1.87,3.99,54.77-13.74-1.12-2.92-.24-18.46-1.52c-2.07-3.89-5.98-6.46-10.37-6.82-3.16-.21-6.26.91-8.55,3.08-.65.61-1.23,1.29-1.73,2.04l-49.65-4.08-4.38-60.12,88.61,11.74,2.93.39Zm2.44,68.44c.02.59-.45,1.08-1.03,1.09-.19,0-.37-.04-.54-.13l-3.79-2.66c-.52-.28-.71-.92-.43-1.44.09-.17.22-.3.38-.4l3.65-2.33c.5-.31,1.15-.16,1.46.34.1.16.15.35.16.53l.14,5Zm-18.43-7.01c.22,6.08-4.52,11.19-10.6,11.41-.22,0-.45,0-.67,0-6.55-.51-11.58-6.02-11.48-12.59-.07-3.79,1.74-7.37,4.82-9.56.06-.05.13-.1.2-.15l.06-.04c1.65-1.22,3.65-1.87,5.7-1.87.21,0,.41,0,.62.02,1.83.12,3.6.73,5.13,1.75,3.86,2.32,6.23,6.5,6.23,11m-36.93,2.74c.01.35-.26.64-.61.65-.33.01-.61-.24-.65-.56l-.54-7.74c-.02-.35.24-.65.58-.67.35-.02.65.24.67.58l.54,7.75Zm-3.57-3.62l-3.75,2.09c-.72.37-2.02.56-1.99-.26l-.3-5.19c.02-.59.52-1.05,1.1-1.02.19,0,.37.06.53.16l4.5,2.38c.5.31.65.97.33,1.47-.1.16-.24.29-.4.37m-9.42,1.37c.02.59-.45,1.08-1.03,1.09-.19,0-.37-.04-.54-.13l-3.8-2.64c-.52-.28-.71-.92-.43-1.44.09-.17.22-.3.38-.4l3.65-2.33c.5-.31,1.15-.16,1.46.34.1.16.15.35.16.53l.15,4.98Zm-6.97.64c0,.35-.28.63-.63.63-.31,0-.58-.22-.63-.53l-.63-7.74c.04-.35.36-.59.7-.55.25.03.46.21.53.46l.64,7.72Zm82.04,140.14c-3.79,3.15-8.61,4.78-13.54,4.57h-.14c-.71.03-70.75,2.7-89.84,3.14-4.39.38-8.72-1.15-11.9-4.19-3.19-3.96-4.83-8.95-4.59-14.04v-.2c-.16-2.06-15.65-206.33-16.17-219.65-.66-5.26,1.1-10.53,4.78-14.34,4.2-3.17,9.47-4.58,14.69-3.93.75.11,76.97,10.81,91.25,13.25,12.99,2.22,12.23,16.95,12.19,17.58v.21c.02.27.37,4.5.94,11.58l-91.54-12.1,4.82,66.12h0l1.38,18.59,91.8,7.2c4.12,50.71,8.53,105.46,9.24,114.98.59,4.08-.65,8.2-3.39,11.27"/>
              </g>
            </g>
          </g>
        </g>
      </g>
    </g>
  </g>
</svg>