<?xml version="1.0" encoding="UTF-8"?>
<svg id="Capa_2" data-name="Capa 2" xmlns="http://www.w3.org/2000/svg" xmlns:xlink="http://www.w3.org/1999/xlink" viewBox="0 0 598 598">
  <defs>
    <style>
      .cls-1, .cls-2, .cls-3 {
        fill: none;
      }

      .cls-2 {
        isolation: isolate;
      }

      .cls-4 {
        fill: #67de83;
      }

      .cls-5 {
        fill: #08312a;
      }

      .cls-3 {
        clip-path: url(#clippath);
      }
    </style>
    <clipPath id="clippath">
      <rect class="cls-1" width="598" height="598"/>
    </clipPath>
  </defs>
  <g id="botones">
    <g id="Grupo_100" data-name="Grupo 100">
      <g class="cls-3">
        <g id="Videos">
          <g class="cls-2">
            <path class="cls-5" d="m192.94,483.02c-3.73-2.22-6.59-5.33-8.59-9.3-2-3.98-3-8.52-3-13.63s1-9.66,3-13.63c2-3.98,4.86-7.08,8.59-9.3,3.73-2.22,8.08-3.34,13.05-3.34,3.69,0,7.09.66,10.19,1.99s5.76,3.29,7.97,5.89c2.21,2.6,3.84,5.78,4.88,9.51l-10.97,1.67c-.92-3.24-2.41-5.75-4.46-7.51-2.05-1.76-4.62-2.65-7.72-2.65-2.72,0-5.08.71-7.08,2.11-2,1.41-3.53,3.42-4.6,6.04-1.07,2.62-1.6,5.69-1.6,9.21s.53,6.6,1.6,9.21,2.6,4.63,4.6,6.04c2,1.41,4.36,2.11,7.08,2.11,3.12,0,5.72-.91,7.77-2.73s3.54-4.46,4.44-7.92l10.97,1.7c-1.02,3.86-2.64,7.12-4.86,9.8-2.22,2.67-4.89,4.69-8,6.04s-6.51,2.02-10.21,2.02c-4.97,0-9.32-1.11-13.05-3.34Z"/>
            <path class="cls-5" d="m268.47,485.64h-9.87v-7.6h-.57c-2.98,5.54-7.02,8.31-12.11,8.31-2.34,0-4.39-.54-6.14-1.63-1.75-1.09-3.09-2.65-4.03-4.69-.94-2.04-1.4-4.45-1.4-7.24v-23.57h10.22v22.29c0,2.2.56,3.91,1.69,5.13s2.72,1.83,4.78,1.83c1.51,0,2.81-.32,3.89-.96,1.08-.64,1.9-1.56,2.47-2.77.57-1.21.85-2.67.85-4.4v-21.12h10.22v36.42Z"/>
            <path class="cls-5" d="m283.45,483.94c-2.86-1.61-5.08-3.85-6.66-6.71-1.57-2.86-2.36-6.13-2.36-9.8s.78-6.9,2.33-9.78c1.55-2.88,3.73-5.12,6.53-6.73s6.02-2.41,9.64-2.41,6.76.8,9.48,2.4c2.72,1.6,4.82,3.82,6.3,6.67s2.22,6.1,2.22,9.74v2.98h-25.77c.28,2.65,1.08,4.73,2.38,6.23s3.17,2.25,5.61,2.25c1.63,0,3.03-.34,4.19-1.03,1.16-.69,2.05-1.67,2.66-2.95l10.22.85c-.83,2.3-2.06,4.24-3.71,5.84-1.64,1.6-3.58,2.8-5.82,3.62s-4.67,1.22-7.3,1.22c-3.76,0-7.08-.8-9.94-2.41Zm16.93-20.48c-.24-2.29-.95-4.09-2.13-5.4-1.18-1.3-2.92-1.95-5.22-1.95s-4.08.65-5.36,1.95c-1.28,1.3-2.09,3.1-2.45,5.4h15.16Z"/>
            <path class="cls-5" d="m316.93,449.22h9.87v7.63h.57c2.98-5.56,7.03-8.34,12.14-8.34,2.34,0,4.38.54,6.12,1.63,1.74,1.09,3.08,2.65,4.01,4.69.93,2.04,1.4,4.45,1.4,7.24v23.57h-10.22v-22.26c0-2.22-.56-3.94-1.67-5.15-1.11-1.21-2.71-1.81-4.79-1.81-1.51,0-2.81.31-3.89.94-1.08.63-1.9,1.54-2.47,2.75s-.85,2.67-.85,4.4v21.12h-10.22v-36.42Z"/>
            <path class="cls-5" d="m365.15,484.42c-1.81-.82-3.15-2.06-4.01-3.73-.86-1.67-1.3-3.82-1.3-6.44v-17.25h-5.96v-7.77h5.96v-9.48h10.22v9.48h9.09v7.77h-9.09v16.08c0,1.18.12,2.09.37,2.73.25.64.67,1.1,1.26,1.37.59.27,1.44.41,2.56.41h4.9v8.06h-6.99c-2.86,0-5.2-.41-7.01-1.22Z"/>
            <path class="cls-5" d="m388.12,485.06c-1.67-.86-2.97-2.08-3.91-3.64-.94-1.56-1.4-3.36-1.4-5.4,0-3.38,1.41-6.08,4.22-8.08s7.06-3.37,12.74-4.1l6.32-.82c-.07-2.3-.62-3.97-1.63-5.02-1.02-1.05-2.57-1.58-4.65-1.58-1.78,0-3.21.37-4.3,1.12-1.09.75-1.92,1.94-2.49,3.57l-9.51-.78c.62-2.53,1.67-4.68,3.18-6.44,1.5-1.76,3.41-3.1,5.73-4.01,2.32-.91,4.99-1.37,8.02-1.37,3.36,0,6.22.56,8.59,1.67,2.37,1.11,4.17,2.75,5.41,4.92,1.24,2.17,1.86,4.8,1.86,7.9v22.65h-9.87v-7.6h-.57c-1.54,2.84-3.29,4.93-5.25,6.28-1.96,1.35-4.24,2.02-6.82,2.02-2.13,0-4.03-.43-5.7-1.3Zm6.64-7.56c.84.63,2.09.94,3.75.94,1.51,0,2.84-.26,3.99-.78s2.04-1.26,2.66-2.22c.63-.96.94-2.08.94-3.35v-2.7l-4.83.67c-1.94.26-3.47.59-4.58.98-1.11.39-1.92.88-2.43,1.46-.51.58-.76,1.32-.76,2.22,0,1.23.42,2.16,1.26,2.79Z"/>
          </g>
        </g>
        <g>
          <rect class="cls-1" x="149" y="113.07" width="300" height="300"/>
          <g>
            <path class="cls-4" d="m369.97,247.98c-.31-.44-.61-.86-.89-1.26-.95-1.38-1.88-2.71-3.1-3.47,0,0-.01,0-.02-.01-1.38-.85-3.12-.95-5.7.5-.38.22-.75.46-1.11.71l-.3-3.44,1.45.09c1.37.1,2.71-.42,3.68-1.4.97-.98,1.47-2.32,1.37-3.7l-5.25-72.42c-.16-2.23-1.89-4.07-4.1-4.37l-2.9-.4-.17-1.95c-.57-6.61-5.56-11.91-12.12-12.9l-79.3-11.9c-4.32-.65-8.64.67-11.85,3.64-3.21,2.97-4.87,7.17-4.56,11.52l2.48,34.59c-1.1-1.85-2.26-3.53-2.9-4.43-3.07-4.31-7.91-6.91-12.69-6.8-.8.02-1.95.14-2.77.94-.68.67-.9,1.54-1.07,2.38-2.78,14.22-2.44,28.68.91,39.83-6.38,5.64-12.94,12.55-13.73,18.42-1.52,11.18,7.28,22.55,9.75,25.5-3.22,3.14-5,5.46-5.72,9.23-.99,5.17.76,11.08,2.16,15.83,1.47,4.98,3.88,9.41,7.17,13.18,1.15,1.32,2.25,2.67,3.31,3.98,1.26,1.54,2.57,3.12,3.96,4.67-2.04,1.35-3.44,2.38-3.86,2.8-2.65,2.69-5.72,11.48-2.41,19.4,2.64,6.31,9.09,9.75,15.34,13.08,3.46,1.85,6.73,3.59,9.21,5.74,9.07,7.86,18.34,16.64,24.68,27.5,4.94,8.46,9.08,14.78,17.36,19.05,2.99,1.54,6.34,2.11,9.8,2.11,5.64,0,11.57-1.52,16.73-2.83.93-.24,1.84-.47,2.72-.69,38.67-9.51,49.9-54.43,54.99-87.38,1.49-9.66,1.63-12.18,2.03-19.67.07-1.31.15-2.77.25-4.45.66-11.55-6.27-22.18-12.82-31.24Zm-2.51-.14c.29.42.59.85.91,1.3,3.29,4.55,6.67,9.5,9.09,14.74-.55.44-1.58.7-2.13.47-.87-.36-1.58-1.22-2.21-2.1-3.25-4.51-5.51-10.03-6.42-15.5.24.33.49.7.77,1.1Zm-11.73-86.67c1.3.18,2.31,1.25,2.4,2.56l5.25,72.42c.06.8-.23,1.59-.8,2.16-.57.57-1.36.85-2.16.82l-52.51-3.35c-.19,0-.38.03-.55.13l-8.29,4.71-7.06-5.57c-.16-.12-.35-.2-.55-.21l-6.98-.45c-1.38-.09-2.5-1.2-2.6-2.57-1-13.31-4.56-63.14-5.63-78.1-.06-.84.26-1.65.87-2.23.52-.49,1.2-.75,1.9-.75.13,0,.25,0,.38.03l76.31,10.41Zm-108.65-14.08c-.27-3.76,1.16-7.38,3.93-9.93,2.77-2.56,6.49-3.7,10.21-3.14l79.3,11.9c5.65.85,9.95,5.43,10.44,11.13l.13,1.51-71.41-9.75c-1.43-.19-2.85.26-3.9,1.24-1.05.98-1.59,2.37-1.49,3.81,1.07,14.96,4.64,64.79,5.63,78.11.18,2.35,2.09,4.24,4.44,4.39l6.67.43,7.34,5.79c.18.14.39.21.61.21.17,0,.34-.04.49-.13l8.62-4.89,48.78,3.11.44,5.07c-5.43,5.08-7.91,14.13-5.45,21.59.63,1.9,2.25,4.65,3.97,7.57,1.64,2.78,3.32,5.65,3.9,7.42l4.42,51.42c.3,3.4-.79,6.68-3.05,9.24-2.26,2.56-5.39,4.03-8.8,4.15l-78.73,2.78c-.15,0-.3,0-.45,0-6.46,0-11.82-4.95-12.28-11.45l-1.66-23.15c1.68-.92,3.37-1.87,5.04-2.85.05.86.1,1.86.16,2.99.63,12.08,1.41,24.13,3.5,27.2,1.64,2.42,4.22,4,7.08,4.34.39.05.79.07,1.19.07.13,0,.26,0,.39,0l14.42-.56c.54-.02.97-.48.95-1.02-.02-.54-.45-.98-1.02-.95l-14.42.56c-.43.02-.86,0-1.27-.05-2.26-.27-4.38-1.58-5.68-3.5-1.95-2.87-2.77-18.62-3.16-26.19-.09-1.65-.16-3.04-.23-4.08,3.82-2.6,6.54-5.98,7.44-9.29.33-.36.63-.76.85-1.22.7-1.47.6-3.34-.29-5.42-.81-1.88-1.89-3.22-3.23-3.97-1.66-.93-3.49-.73-5.2-.18-.34.01-.68.04-1.04.08-.35-4.81-.72-9.85-1.08-14.9-.37-5.2-.74-10.37-1.1-15.26,4.68-4.28,8.89-8.58,10.45-11.44.76-1.39,2.96-6.1.58-9.86.36-1.79-.11-3.86-1.38-6.06-1.31-2.27-2.89-3.79-4.69-4.54-3.71-1.54-7.62.99-10.48,2.83-.38.25-.75.49-1.1.7-.83.52-1.67,1.05-2.49,1.62l-.41-5.76c3.74-4.43,6.79-9.67,6.7-14.9-.02-.86-.06-1.55-.13-2.25.15-.28.28-.56.38-.87.66-1.93.24-4.27-1.2-6.76-1.31-2.27-2.89-3.79-4.69-4.54-.85-.35-1.95-.34-3.17-.09l-3.75-52.33Zm15.34,147.89c.3-.14.61-.29.93-.45,2.09-1.02,4.69-2.29,6.57-1.23.95.53,1.75,1.55,2.39,3.03.46,1.07.89,2.6.32,3.78-.5,1.04-1.68,1.7-3.05,2.39-2.09,1.05-4.46,2.25-6.92,2.44-1.65.13-3.17-.24-4.27-1.05-1.03-.75-1.6-1.75-1.65-2.91-.06-1.32.59-2.7,1.73-3.7,1.12-.98,2.56-1.66,3.96-2.3Zm-4.85-1.71l-1.86-26.01c1.6-1.36,3.26-2.8,4.9-4.26.33,4.43.66,9.07.99,13.73.37,5.1.73,10.2,1.09,15.06-1.6.33-3.33.83-5.12,1.48Zm13.88-53.18c-.52,1.53-1.99,2.6-3.83,3.82-2.04,1.35-4.15,2.75-6.42,3.62-1.75.67-4.37,1.3-6.91.47-2.23-.72-3.95-2.63-4.19-4.64-.19-1.64.5-3.48,1.91-5.05,1.34-1.49,3.13-2.6,4.87-3.68.36-.22.74-.47,1.14-.72,2.11-1.36,4.63-2.99,6.97-2.99.58,0,1.14.1,1.68.32,1.39.57,2.65,1.82,3.74,3.7.8,1.38,1.63,3.39,1.04,5.14Zm-13.42-29.92c-.52,1.53-1.99,2.6-3.72,3.75l-.12.08c-2.04,1.35-4.14,2.75-6.41,3.61-1.75.67-4.37,1.3-6.91.47-2.23-.72-3.95-2.63-4.19-4.65-.19-1.64.5-3.48,1.91-5.05,1.46-1.62,11.71-8.28,14.65-7.06,1.39.57,2.64,1.82,3.74,3.7.8,1.38,1.63,3.39,1.04,5.14Zm-27.92-35.87c.11-.56.23-1.08.51-1.35.25-.24.71-.37,1.45-.38,4.15-.11,8.34,2.19,11.03,5.97,1.09,1.54,3.73,5.39,4.87,8.28l.94,13.16c-4.83,1.72-10.58,5.89-11.67,7-1.87,1.49-4.14,3.32-6.51,5.35-3.02-10.73-3.25-24.48-.61-38.03Zm-12.81,58.14c.73-5.36,7.35-12.16,13.54-17.6,0,0,0,0,0,0,1.38-1.21,2.73-2.35,4-3.39-.15.75-.2,1.49-.12,2.22.33,2.8,2.56,5.33,5.54,6.29,1.08.35,2.15.49,3.18.49,1.93,0,3.7-.49,5.04-1,2.46-.94,4.66-2.4,6.79-3.81l.12-.08c.7-.47,1.51-1.01,2.27-1.68,0,.02,0,.05,0,.07.22,11.94-18.75,24.82-18.95,24.95-.45.3-.57.92-.27,1.37.19.28.5.44.82.44.19,0,.38-.05.55-.17.44-.29,6.12-4.15,11.29-9.67l.36,5.09c-6.57,4.27-14.6,10.49-18.9,14.65-1.68,1.62-3.17,3.01-4.48,4.23-.56.52-1.08,1-1.58,1.47-2.4-2.91-10.61-13.72-9.23-23.86Zm16.24,66.21c-1.07-1.32-2.19-2.69-3.35-4.03-3.1-3.56-5.37-7.74-6.76-12.45-1.34-4.55-3.01-10.2-2.11-14.91.8-4.17,3.1-6.31,8.14-11,1.32-1.23,2.82-2.62,4.51-4.25,3.38-3.26,9.11-7.83,14.59-11.69-.38,1.08-.52,2.19-.4,3.25.33,2.8,2.56,5.32,5.54,6.29,1.08.35,2.15.49,3.19.49,1.93,0,3.7-.49,5.04-1,2.47-.95,4.67-2.41,6.91-3.89,1.14-.76,2.58-1.72,3.58-3.06.54,2.1-.17,4.61-1.21,6.51-1.5,2.74-5.75,7.02-10.46,11.3,0,.01-.02.02-.03.03-7.68,6.97-16.57,13.89-16.72,14-.43.34-.51.95-.17,1.38.19.25.49.38.78.38.21,0,.42-.07.6-.21.38-.29,4.06-3.16,8.65-7l1.8,25.18c-6.4,2.56-13.32,6.51-18.01,9.49-1.44-1.59-2.79-3.23-4.1-4.83Zm147.29-19.55c-.1,1.68-.18,3.14-.25,4.45-.41,7.62-.54,9.92-2.01,19.48-5,32.4-15.99,76.54-53.51,85.77-.88.22-1.8.45-2.74.69-7.99,2.04-17.94,4.59-25.13.88-7.81-4.02-11.79-10.11-16.55-18.29-6.48-11.11-15.89-20.02-25.09-27.99-2.64-2.29-6.01-4.09-9.57-5.99-5.94-3.17-12.08-6.45-14.45-12.1-3.09-7.4.22-15.44,1.99-17.25,1.28-1.3,13.32-9.24,23.47-13.18.06-.02.12-.04.18-.07.25-.09.49-.19.74-.28-.25.18-.5.36-.74.57-1.61,1.41-2.49,3.33-2.4,5.27.08,1.75.95,3.31,2.46,4.41,1.3.95,2.99,1.45,4.81,1.45.26,0,.52-.01.78-.03,2.85-.22,5.51-1.57,7.66-2.64.03-.02.06-.03.1-.05-1.42,2.37-3.72,4.42-5.91,5.87-.01,0-.03.02-.04.03-.27.18-.54.36-.8.51-2.43,1.45-4.97,2.83-7.42,4.17-2.83,1.55-5.75,3.14-8.56,4.86-.46.28-.61.89-.33,1.36.19.3.51.47.84.47.18,0,.35-.05.51-.15,2.74-1.68,5.62-3.25,8.4-4.77l1.6,22.24c.54,7.54,6.75,13.28,14.25,13.28.17,0,.35,0,.52,0l78.73-2.78c3.96-.14,7.58-1.85,10.21-4.82,2.62-2.97,3.88-6.77,3.54-10.72l-4.43-51.52s-.02-.07-.03-.1c0-.04,0-.09-.01-.13-.62-1.98-2.32-4.86-4.11-7.91-1.59-2.7-3.24-5.49-3.79-7.19-2.56-7.74.95-17.77,7.51-21.46,1.43-.8,2.39-1,3.2-.75.63,6.52,3.18,13.29,7.07,18.68.81,1.12,1.74,2.23,3.06,2.78.38.16.81.23,1.25.23.83,0,1.71-.26,2.43-.7,1.77,4.31,2.83,8.8,2.57,13.41Z"/>
            <path class="cls-4" d="m308.3,218.26c.12.02.23.05.35.09l.25.07,28.49-.27.57-.11c.27-.06.54-.12.81-.18,3.44-.84,5.51-3.35,5.53-6.71.04-5.1-.91-9.15-2.98-12.72-1.71-2.96-4.2-4.58-7.38-4.81-.73-.05-1.63.13-2.4.51-.71.35-1.4.75-2.07,1.14-.96.55-1.95,1.13-2.98,1.53-3.53,1.36-7.32,1.02-11.27-1.01-.19-.1-.38-.21-.56-.33-.23-.14-.45-.28-.69-.39-.27-.13-.52-.3-.78-.46-.71-.46-1.5-.98-2.63-.85-2.2.24-3.92.95-5.24,2.18-1.43,1.33-2.41,3.03-3.09,5.37-.93,3.23-1.21,6.66-.82,10.19.41,3.7,2.98,6.24,6.89,6.77Z"/>
            <path class="cls-4" d="m321.84,192.19c.12,0,.24,0,.37,0,5.13-.15,9.51-3.27,10.9-7.77,1.44-4.68-.34-9.67-4.56-12.71-1.99-1.44-4.26-2.01-6.02-2.34h-.04s-2.8.03-2.8.03l-1.25.3c-6.09,1.43-9.59,6.77-8.51,12.99.8,4.63,5.56,9.51,11.91,9.51Z"/>
          </g>
        </g>
      </g>
    </g>
  </g>
</svg>