<?xml version="1.0" encoding="UTF-8"?>
<svg id="Capa_2" data-name="Capa 2" xmlns="http://www.w3.org/2000/svg" viewBox="0 0 300 300">
  <defs>
    <style>
      .cls-1 {
        fill: none;
      }

      .cls-2 {
        fill: #00e47c;
      }

      .cls-3 {
        fill: #fff;
      }
    </style>
  </defs>
  <g id="botones">
    <g>
      <rect class="cls-1" width="300" height="300"/>
      <g>
        <g>
          <path class="cls-2" d="m32.88,214.94c-5.54-3.99-8.48-6.93-11.25-11.17-3.99-6.2-6.2-13.7-6.2-21.12,0-21.44,17.29-38.81,38.73-38.81s38.73,17.37,38.73,38.73c0,8.81-3.02,17.61-8.32,24.13-2.2,2.77-4.08,4.41-9.13,8.24v-22.67h3.83v15.49c2.85-3.34,4.24-5.38,5.63-7.83,2.85-5.05,4.4-11.33,4.4-17.37,0-19.57-15.74-35.47-35.14-35.47s-35.14,15.9-35.14,35.71c0,9.05,3.18,17.04,9.95,24.95v-15.49h3.91v22.67Zm7.66,3.91c-.73-.16-2.45-.98-3.83-1.71v-24.87h3.83v26.58Zm23.32-54.63l-9.7-7.5-9.7,7.5-2.12-2.77,11.82-9.21,11.82,9.21-2.12,2.77Zm-15.58,56.67c-1.39-.24-1.47-.24-1.96-.41-.41-.08-.57-.08-1.87-.41v-53h3.83v53.82Zm7.75.33c-.57.08-.73.08-1.55.08-1.23,0-1.63,0-2.28-.08v-54.14h3.83v54.14Zm7.75-1.23c-1.23.41-2.28.65-3.83.98v-53.9h3.83v52.92Zm7.83-2.85c-1.22.57-1.96.9-3.91,1.79v-26.66h3.91v24.87Z"/>
          <path class="cls-2" d="m115.89,147.67c1.22-.08,2.2-.16,2.53-.16,4.65,0,7.75,2.69,7.75,6.85,0,2.86-1.55,4.89-4.89,6.52,4.24.9,6.52,3.59,6.52,7.59,0,3.1-1.71,5.71-4.4,6.77-1.22.49-2.69.65-5.38.65h-2.53c-1.39-.08-2.45-.08-3.26-.08h-4.73v-1.63l2.77-.49v-23.73l-2.77-.49v-1.71h4.97l3.42-.08Zm-8.23,69.8v-1.63l2.61-.49v-23.81l-2.61-.41v-1.79h9.38v1.71l-2.45.49v23.73l2.36.49v1.71h-9.3Zm8.72-57.32c3.5,0,5.14-1.79,5.14-5.63,0-3.26-1.71-5.22-4.65-5.22-.82,0-1.39.08-2.53.49v10.36h2.04Zm-2.04,13.37c.82.49,1.39.65,2.53.65,3.83,0,6.2-2.36,6.2-6.2s-2.2-5.87-6.93-5.87h-1.79v11.41Zm15.58,43.95v-1.63l2.12-.41v-11.9c0-2.28-.73-3.34-2.28-3.34-1.22,0-2.28.49-3.83,1.79v13.29l2.12.49v1.71h-8.4v-1.63l2.36-.49v-14.84l-2.36-.32v-1.63l5.06-1.3h1.14v2.45c2.45-1.87,3.59-2.36,5.38-2.36,3.1,0,4.81,1.96,4.81,5.3v12.64l2.12.49v1.71h-8.24Zm17.04-52.02c0,6.44-3.34,10.77-8.24,10.77s-7.83-4.08-7.83-10.03c0-6.36,3.34-10.76,8.23-10.76s7.83,4,7.83,10.03m-11.74.57c0,5.22,1.3,8.15,3.59,8.15,2.45,0,3.75-3.1,3.75-9.21,0-4.89-1.31-7.58-3.59-7.58s-3.75,3.18-3.75,8.64m18.67,34c1.14,1.47,1.47,2.45,1.47,3.99,0,3.75-2.93,6.52-6.85,6.52-.82,0-1.47-.08-2.2-.33-.98.65-1.55,1.31-1.55,1.79s.49.73,1.71.82l4.89.25c3.83.16,5.63,1.63,5.63,4.65,0,4.32-3.83,7.09-9.7,7.09-4.41,0-7.26-1.63-7.26-4.16,0-1.63.82-2.69,3.18-4.24-1.63-.65-2.28-1.39-2.28-2.53,0-1.47,1.06-2.77,3.67-4.4-2.45-1.55-3.34-3.1-3.34-5.63,0-3.83,2.94-6.77,6.77-6.77.82,0,1.14.08,2.61.41.82.24,1.39.33,1.8.33.08,0,.41,0,.73-.08h.73l3.34-.08v2.36h-3.34Zm-8.48,16.71c-1.06.98-1.47,1.79-1.47,3.02,0,1.8,1.63,2.86,4.32,2.86,3.34,0,5.87-1.39,5.87-3.34,0-1.71-.9-2.04-7.17-2.45l-1.55-.08Zm.16-13.05c0,3.43.82,4.97,2.77,4.97s2.77-1.55,2.77-4.57c0-3.59-.98-5.3-2.94-5.3-1.79,0-2.61,1.55-2.61,4.89m8.48-38.16c.41,5.54,1.79,7.83,4.73,7.83,1.47,0,2.53-.73,3.75-2.61l1.79.73c-2.04,3.67-3.51,4.73-6.69,4.73-4.89,0-7.67-3.51-7.67-9.87,0-6.77,2.86-10.85,7.58-10.85s6.77,3.26,6.85,10.03h-10.35Zm6.2-1.96c-.16-4.4-.98-6.12-2.85-6.12s-2.86,1.88-3.34,6.12h6.2Z"/>
          <path class="cls-2" d="m163.52,207.11c.41,5.63,1.79,7.91,4.73,7.91,1.55,0,2.61-.73,3.83-2.61l1.79.73c-1.87,3.51-3.59,4.73-6.77,4.73-4.89,0-7.66-3.67-7.66-9.95,0-6.77,2.85-10.77,7.58-10.77,3.26,0,5.38,1.71,6.36,4.89.33,1.06.41,2.36.57,5.05h-10.44Zm6.2-1.87c-.08-4.24-.9-6.12-2.77-6.12s-2.93,1.79-3.42,6.12h6.2Zm7.34-29.44v-1.63l1.96-.41v-11.01c0-2.94-.65-4-2.36-4-1.22,0-2.12.41-3.75,1.79v13.13l1.96.41v1.71h-8.32v-1.63l2.45-.49v-24.87l-2.28-.49v-1.39l5.06-1.06h1.14v12.31c2.28-1.79,3.59-2.36,5.3-2.36,3.18,0,4.81,1.87,4.81,5.54v12.31l2.12.41v1.71h-8.07Zm-.73,41.67v-1.63l2.36-.49v-25.12l-2.28-.24v-1.39l5.14-1.14h1.06v27.81l2.2.49v1.71h-8.48Zm21.61,0v-1.63l1.96-.41v-11.09c0-2.94-.65-4-2.36-4-1.14,0-2.12.49-3.75,1.88v13.05l1.96.49v1.71h-8.24v-1.63l2.36-.49v-24.95l-2.28-.41v-1.39l5.14-1.14h1.06v12.4c2.2-1.79,3.5-2.36,5.38-2.36,3.02,0,4.73,1.87,4.73,5.22v12.56l2.2.49v1.71h-8.15Zm-3.91-58.06c1.63-2.77,2.45-3.51,3.91-3.51s2.36.9,2.36,2.36c0,.9-.49,1.63-1.55,2.45l-2.12-1.14c-1.39.73-2.53,2.28-2.53,3.42v10.68l2.86.41v1.71h-9.05v-1.63l2.36-.49v-15l-2.36-.41v-1.31l4.89-1.3h1.22v3.75Zm8.32,16.39v-1.63l2.2-.49v-14.68l-2.2-.49v-1.39l5.14-1.3h.98v17.86l2.28.41v1.71h-8.4Zm6.44-27.31c0,1.47-1.14,2.61-2.61,2.61s-2.61-1.14-2.61-2.61,1.14-2.61,2.61-2.61,2.61,1.14,2.61,2.61m4,58.62c.41,5.63,1.79,7.91,4.73,7.91,1.55,0,2.61-.73,3.83-2.61l1.79.73c-1.88,3.51-3.59,4.73-6.77,4.73-4.89,0-7.67-3.67-7.67-9.95,0-6.77,2.85-10.77,7.58-10.77,3.26,0,5.38,1.71,6.36,4.89.33,1.06.41,2.36.57,5.05h-10.44Zm6.2-1.87c-.08-4.24-.9-6.12-2.77-6.12s-2.94,1.79-3.42,6.12h6.2Z"/>
          <path class="cls-2" d="m223.86,175.8v-1.63l2.12-.41v-11.9c0-2.28-.73-3.34-2.28-3.34-1.22,0-2.28.49-3.83,1.79v13.29l2.12.49v1.71h-8.4v-1.63l2.36-.49v-14.84l-2.36-.33v-1.63l5.05-1.3h1.14v2.45c2.45-1.87,3.59-2.36,5.38-2.36,3.1,0,4.81,1.96,4.81,5.3v12.64l2.12.49v1.71h-8.24Zm2.53,41.67v-1.63l2.2-.49v-14.76l-2.2-.49v-1.3l5.14-1.31h.98v17.78l2.28.49v1.71h-8.4Zm6.52-27.4c0,1.47-1.22,2.69-2.69,2.69s-2.61-1.14-2.61-2.61,1.23-2.69,2.77-2.69c1.39,0,2.53,1.23,2.53,2.61m14.84-31.72c1.14,1.47,1.47,2.45,1.47,4,0,3.75-2.93,6.52-6.85,6.52-.82,0-1.47-.08-2.2-.33-.98.65-1.55,1.31-1.55,1.71,0,.57.49.82,1.71.9l4.89.24c3.83.16,5.63,1.63,5.63,4.65,0,4.32-3.83,7.09-9.7,7.09-4.4,0-7.26-1.63-7.26-4.16,0-1.63.9-2.77,3.18-4.24-1.63-.65-2.28-1.47-2.28-2.61,0-1.39,1.06-2.69,3.67-4.32-2.45-1.55-3.34-3.1-3.34-5.63,0-3.83,2.94-6.77,6.77-6.77.82,0,1.14.08,2.61.41.82.24,1.39.33,1.79.33.08,0,.41,0,.73-.08h.73l3.34-.08v2.36h-3.34Zm10.52,59.12v-1.63l2.2-.49v-11.33c0-2.69-.73-3.75-2.45-3.75-1.31,0-2.2.49-3.83,1.96v13.05l2.04.49v1.71h-8.24v-1.63l2.28-.49v-11.41c0-2.53-.82-3.67-2.61-3.67-1.31,0-2.28.49-3.67,1.88v13.13l1.88.49v1.71h-8.32v-1.63l2.36-.49v-15l-2.36-.41v-1.39l5.13-1.3h1.06v2.69c2.04-1.71,3.59-2.36,5.54-2.36s3.42.82,4.57,2.61c2.12-1.96,3.51-2.69,5.63-2.69,3.51,0,4.97,1.71,4.97,5.79v11.99l2.28.49v1.71h-8.48Zm-20.47-39.38c0,1.79,1.63,2.86,4.32,2.86,3.34,0,5.87-1.47,5.87-3.34s-.65-2.04-8.72-2.53c-1.06.98-1.47,1.79-1.47,3.02m1.63-16.06c0,3.42.82,4.97,2.77,4.97s2.77-1.55,2.77-4.57c0-3.59-.98-5.3-2.94-5.3-1.79,0-2.61,1.55-2.61,4.89m18.02,3.51c.41,5.54,1.79,7.83,4.73,7.83,1.47,0,2.53-.73,3.75-2.61l1.79.73c-2.04,3.67-3.51,4.73-6.69,4.73-4.89,0-7.67-3.51-7.67-9.87,0-6.77,2.86-10.85,7.59-10.85s6.77,3.26,6.85,10.03h-10.35Zm6.2-1.96c-.16-4.4-.98-6.12-2.85-6.12s-2.86,1.88-3.34,6.12h6.2Zm13.62-4.16c1.63-2.77,2.45-3.51,3.91-3.51s2.36.9,2.36,2.36c0,.9-.49,1.63-1.55,2.45l-2.12-1.14c-1.39.73-2.53,2.28-2.53,3.42v10.68l2.86.41v1.71h-9.05v-1.63l2.36-.49v-15l-2.36-.41v-1.3l4.89-1.31h1.22v3.75Z"/>
        </g>
        <g>
          <path class="cls-3" d="m58.42,76.42h9.68c1.94,0,3.66.36,5.14,1.08,1.48.72,2.63,1.74,3.44,3.05s1.21,2.84,1.21,4.6-.4,3.29-1.21,4.61c-.81,1.32-1.95,2.33-3.44,3.05-1.48.71-3.19,1.07-5.14,1.07h-5.67v11.91h-4.02v-29.36Zm9.68,13.99c1.2,0,2.2-.21,3.03-.64.82-.43,1.44-1.04,1.84-1.83.41-.79.61-1.72.61-2.79s-.2-2-.61-2.79c-.41-.79-1.02-1.4-1.84-1.83-.82-.43-1.83-.64-3.03-.64h-5.67v10.52h5.67Z"/>
          <path class="cls-3" d="m81.68,85.12h3.55v4.57h.33c.54-1.22,1.09-2.19,1.65-2.92.56-.72,1.17-1.24,1.85-1.57s1.46-.49,2.35-.49c.26,0,.52.02.8.05.27.03.51.09.71.17v4.04c-.27-.08-.61-.15-1.02-.19-.41-.05-.82-.07-1.22-.07-1.13,0-2.08.2-2.86.61-.78.41-1.37,1-1.77,1.78-.4.78-.6,1.72-.6,2.82v11.85h-3.75v-20.65Z"/>
          <path class="cls-3" d="m99.37,104.84c-1.53-.9-2.71-2.16-3.55-3.78s-1.25-3.49-1.25-5.6.42-3.99,1.25-5.62c.84-1.62,2.02-2.88,3.55-3.78,1.53-.9,3.29-1.35,5.29-1.35s3.76.45,5.29,1.35c1.53.9,2.71,2.16,3.55,3.78.84,1.63,1.25,3.5,1.25,5.62s-.42,3.97-1.25,5.6-2.02,2.89-3.55,3.78c-1.53.9-3.29,1.35-5.29,1.35s-3.76-.45-5.29-1.35Zm8.66-2.83c.9-.61,1.58-1.47,2.02-2.59.44-1.11.66-2.43.66-3.95s-.22-2.84-.66-3.95c-.44-1.11-1.11-1.98-2.02-2.59s-2.03-.92-3.37-.92-2.45.3-3.35.92-1.58,1.48-2.03,2.59c-.45,1.11-.67,2.43-.67,3.95s.22,2.84.67,3.95c.45,1.11,1.12,1.98,2.03,2.59.9.61,2.02.92,3.35.92s2.47-.31,3.37-.92Z"/>
          <path class="cls-3" d="m122.72,104.83c-1.36-.9-2.42-2.17-3.19-3.8-.77-1.63-1.15-3.49-1.15-5.57s.38-3.95,1.15-5.59c.77-1.63,1.83-2.9,3.19-3.8s2.9-1.36,4.63-1.36c1.44,0,2.68.35,3.73,1.05,1.05.7,1.96,1.79,2.75,3.27h.33v-13.84h3.75v30.58h-3.55v-4.16h-.33c-.84,1.58-1.8,2.73-2.87,3.47s-2.35,1.1-3.84,1.1c-1.71,0-3.25-.45-4.61-1.36Zm8.98-2.82c.89-.61,1.56-1.48,2-2.6.44-1.12.66-2.44.66-3.94s-.22-2.84-.66-3.95c-.44-1.11-1.11-1.98-2-2.59s-1.99-.92-3.31-.92-2.43.3-3.32.92-1.56,1.48-2,2.59c-.43,1.11-.65,2.43-.65,3.95s.22,2.82.66,3.94c.44,1.12,1.11,1.99,2,2.6.89.61,1.99.92,3.31.92s2.42-.31,3.31-.92Z"/>
          <path class="cls-3" d="m160.36,105.78h-3.55v-4.16h-.33c-.8,1.51-1.8,2.65-2.99,3.41-1.19.77-2.55,1.15-4.07,1.15-1.39,0-2.58-.31-3.58-.93-1-.62-1.76-1.51-2.29-2.68s-.79-2.56-.79-4.18v-13.27h3.75v12.83c0,3.32,1.51,4.97,4.53,4.97,1.15,0,2.15-.23,2.99-.68.84-.45,1.47-1.11,1.92-1.97.44-.86.66-1.88.66-3.06v-12.09h3.75v20.65Z"/>
          <path class="cls-3" d="m169.48,104.83c-1.52-.9-2.69-2.17-3.53-3.79s-1.25-3.5-1.25-5.62.42-3.97,1.25-5.59,2.01-2.87,3.53-3.77c1.52-.9,3.27-1.35,5.25-1.35,1.51,0,2.89.27,4.14.81s2.32,1.32,3.2,2.35,1.53,2.25,1.94,3.66l-3.85.67c-.39-1.38-1.05-2.43-1.97-3.14-.92-.71-2.08-1.06-3.5-1.06-1.32,0-2.42.3-3.31.91-.89.6-1.56,1.46-2,2.58-.44,1.11-.66,2.43-.66,3.94s.22,2.84.66,3.95,1.11,1.98,2,2.59c.89.61,1.99.92,3.31.92,2.84,0,4.66-1.46,5.46-4.38l3.85.67c-.41,1.47-1.05,2.73-1.93,3.78-.88,1.05-1.94,1.86-3.19,2.41-1.25.55-2.64.83-4.16.83-1.98,0-3.73-.45-5.25-1.36Z"/>
          <path class="cls-3" d="m192.28,105.18c-.88-.39-1.5-1-1.87-1.82-.37-.82-.55-1.91-.55-3.27v-11.7h-3.63v-3.26h3.63v-4.99h3.75v4.99h5.79v3.26h-5.79v11.56c0,.64.06,1.14.19,1.5.13.36.38.63.74.79.37.17.9.26,1.59.26h3.26v3.28h-3.51c-1.54,0-2.74-.2-3.62-.59Z"/>
          <path class="cls-3" d="m206.47,104.84c-1.53-.9-2.71-2.16-3.55-3.78-.84-1.62-1.25-3.49-1.25-5.6s.42-3.99,1.25-5.62c.84-1.62,2.02-2.88,3.55-3.78,1.53-.9,3.29-1.35,5.29-1.35s3.76.45,5.29,1.35c1.53.9,2.71,2.16,3.55,3.78.84,1.63,1.25,3.5,1.25,5.62s-.42,3.97-1.25,5.6c-.84,1.62-2.02,2.89-3.55,3.78-1.53.9-3.29,1.35-5.29,1.35s-3.76-.45-5.29-1.35Zm8.66-2.83c.9-.61,1.58-1.47,2.02-2.59s.66-2.43.66-3.95-.22-2.84-.66-3.95c-.44-1.11-1.11-1.98-2.02-2.59-.9-.61-2.03-.92-3.37-.92s-2.45.3-3.35.92c-.9.61-1.58,1.48-2.03,2.59-.45,1.11-.67,2.43-.67,3.95s.22,2.84.67,3.95,1.12,1.98,2.03,2.59c.9.61,2.02.92,3.35.92s2.47-.31,3.37-.92Z"/>
          <path class="cls-3" d="m228.06,104.7c-1.47-.99-2.57-2.48-3.27-4.47l3.69-.67c.45,1.14,1.12,1.99,2.02,2.55s2.03.84,3.41.84c.88,0,1.65-.11,2.31-.34.66-.22,1.16-.55,1.52-.97.35-.42.53-.92.53-1.49,0-.64-.22-1.16-.67-1.56-.45-.4-1.01-.71-1.67-.94-.67-.22-1.6-.48-2.79-.76-1.59-.38-2.88-.77-3.88-1.15s-1.85-.99-2.57-1.79-1.07-1.89-1.07-3.23c0-1.2.32-2.25.97-3.15s1.56-1.6,2.73-2.1,2.54-.74,4.09-.74c2.15,0,3.95.48,5.4,1.45,1.45.97,2.51,2.36,3.18,4.18l-3.49.67c-.41-1.02-1.04-1.78-1.91-2.29-.86-.51-1.96-.77-3.29-.77-1.24,0-2.2.22-2.89.65-.69.44-1.04,1.05-1.04,1.86,0,.62.22,1.14.67,1.53.45.4,1.01.7,1.68.93s1.6.47,2.78.72c1.63.37,2.95.74,3.97,1.12s1.88.98,2.61,1.79,1.09,1.92,1.09,3.3c0,1.28-.35,2.4-1.04,3.35-.69.96-1.67,1.69-2.95,2.2-1.27.51-2.76.77-4.45.77-2.3,0-4.18-.49-5.66-1.48Z"/>
        </g>
      </g>
    </g>
  </g>
</svg>