<?xml version="1.0" encoding="UTF-8"?>
<svg id="Capa_2" data-name="Capa 2" xmlns="http://www.w3.org/2000/svg" xmlns:xlink="http://www.w3.org/1999/xlink" viewBox="0 0 598 598">
  <defs>
    <style>
      .cls-1, .cls-2, .cls-3 {
        fill: none;
      }

      .cls-2 {
        isolation: isolate;
      }

      .cls-4 {
        fill: #00e47c;
      }

      .cls-5 {
        fill: #08312a;
      }

      .cls-3 {
        clip-path: url(#clippath);
      }
    </style>
    <clipPath id="clippath">
      <rect class="cls-1" width="598" height="598"/>
    </clipPath>
  </defs>
  <g id="botones">
    <g id="Grupo_100" data-name="Grupo 100">
      <g class="cls-3">
        <g id="Videos">
          <g class="cls-2">
            <path class="cls-5" d="m215.45,434.52h18.5c3.88,0,7.27.69,10.17,2.08,2.9,1.38,5.13,3.32,6.69,5.8,1.56,2.49,2.34,5.34,2.34,8.56s-.78,6.07-2.34,8.56c-1.56,2.49-3.79,4.42-6.69,5.8-2.9,1.38-6.29,2.08-10.17,2.08h-7.74v18.25h-10.76v-51.12Zm18.5,24.1c1.73,0,3.18-.32,4.37-.96,1.18-.64,2.08-1.53,2.68-2.68.6-1.15.9-2.49.9-4.03s-.3-2.88-.9-4.03c-.6-1.15-1.5-2.04-2.68-2.68-1.18-.64-2.64-.96-4.37-.96h-7.74v15.34h7.74Z"/>
            <path class="cls-5" d="m263.95,483.94c-2.86-1.61-5.08-3.85-6.66-6.71-1.57-2.86-2.36-6.13-2.36-9.8s.78-6.9,2.33-9.78c1.55-2.88,3.73-5.12,6.53-6.73s6.02-2.41,9.64-2.41,6.76.8,9.48,2.4c2.72,1.6,4.82,3.82,6.3,6.67,1.48,2.85,2.22,6.1,2.22,9.74v2.98h-25.77c.28,2.65,1.08,4.73,2.38,6.23,1.3,1.5,3.17,2.25,5.61,2.25,1.63,0,3.03-.34,4.19-1.03s2.05-1.67,2.66-2.95l10.22.85c-.83,2.3-2.07,4.24-3.71,5.84s-3.59,2.8-5.82,3.62-4.67,1.22-7.29,1.22c-3.76,0-7.08-.8-9.94-2.41Zm16.93-20.48c-.24-2.29-.95-4.09-2.13-5.4-1.18-1.3-2.92-1.95-5.22-1.95s-4.08.65-5.36,1.95c-1.28,1.3-2.09,3.1-2.45,5.4h15.16Z"/>
            <path class="cls-5" d="m297.42,449.22h9.87v8.91h.57c.95-2.46,1.9-4.39,2.86-5.79s1.98-2.38,3.07-2.96c1.09-.58,2.34-.87,3.76-.87.5,0,.98.03,1.44.09.46.06.85.15,1.15.27v10.51c-1.35-.36-2.86-.53-4.54-.53-2.67,0-4.67.54-5.98,1.62-1.31,1.08-1.97,2.69-1.97,4.85v20.34h-10.22v-36.42Z"/>
            <path class="cls-5" d="m329.64,437.42c.89-1.69,2.24-2.95,4.06-3.78,1.82-.83,4.15-1.24,6.99-1.24h6.57v8.06h-4.83c-.99,0-1.77.13-2.33.39-.56.26-.96.7-1.21,1.31s-.37,1.47-.37,2.56v4.51h8.73v7.77h-8.73v28.65h-10.22v-28.65h-5.96v-7.77h5.96v-5.33c0-2.63.44-4.79,1.33-6.48Zm24.05,7.05c-.97-.54-1.73-1.3-2.29-2.27-.56-.97-.83-2.08-.83-3.34s.28-2.37.83-3.34c.56-.97,1.32-1.73,2.29-2.27.97-.54,2.07-.82,3.3-.82s2.33.27,3.3.82c.97.54,1.73,1.3,2.27,2.27.54.97.82,2.08.82,3.34s-.27,2.37-.82,3.34c-.54.97-1.3,1.73-2.27,2.27-.97.54-2.07.82-3.3.82s-2.33-.27-3.3-.82Zm-1.81,4.76h10.22v36.42h-10.22v-36.42Z"/>
            <path class="cls-5" d="m373.67,484.51c-1.56-.76-2.71-1.91-3.44-3.46-.73-1.55-1.1-3.55-1.1-6.02v-42.64h10.22v41.61c0,.97.1,1.71.3,2.22s.55.86,1.05,1.06c.5.2,1.21.3,2.13.3h2.63v8.06h-5.68c-2.51,0-4.54-.38-6.11-1.14Z"/>
          </g>
        </g>
        <g>
          <rect class="cls-1" x="149" y="113.07" width="300" height="300"/>
          <path class="cls-4" d="m269.45,268.5c-19.48,1.16-34.34,17.9-33.17,37.38.56,9.37,4.82,18.13,11.85,24.36,7.87,6.41,15.92,9.05,23.49,9.05,10.07-.15,19.61-4.58,26.23-12.17,10.86-12.23,14.6-33.02-2.85-49.83-7-6.22-16.2-9.38-25.54-8.79Zm26.95,57.31c-14.61,16.47-34.61,13.05-46.97,2.94-13.79-12.23-15.05-33.33-2.81-47.11,5.87-6.62,14.13-10.63,22.95-11.16h2.03c8.14-.01,16,2.98,22.07,8.39,16.48,15.74,12.96,35.41,2.73,46.95Zm55.72-53.03c-6.32.59-11.8-6.43-13.8-9.47-2.46-3.36-4.04-7.28-4.59-11.41-.23-1.86.15-3.75,1.09-5.38.24-.39.54-.81.83-1.22,1.31-1.74,2.78-3.93,1.72-6.41-.05-.11-.12-.2-.2-.29-5.11-5.22-10.83-9.8-17.05-13.65-2.7-1.68-5.7,1.31-7.87,3.49-.58.61-1.2,1.18-1.86,1.69-2.06,1.31-5.44,1.55-10.35.6-6.44-1.23-16.76-5.68-17.05-12.37,0-1.7-.25-5.69-3.32-6.91-2.62-1.05-5.82-.92-8.67-.8h-3.19c-3.54,0-8.38,0-10.71,2.1-2.11,1.89-2.14,5.13-2.16,7.99.02.91-.02,1.81-.12,2.71-.54,4.09-4.04,6.96-6.64,8.77l-.34.24c-3.09,2.16-6.94,4.84-10.61,5.25-3.11.39-5.1-1.51-7.4-3.71-.46-.43-.92-.88-1.4-1.31-5.55-5-11.3-5.25-17.05-.72-3.13,2.45-9.65,7.53-8.81,13.3.3,1.45.82,2.85,1.55,4.14.47.88.87,1.79,1.19,2.74.66,1.92.94,3.95.84,5.98-.58,5.46-4.64,13.62-9.57,16.61-1.63.85-3.41,1.38-5.25,1.56-.87.14-1.76.3-2.62.51-11.66,2.94-10.23,17.78-9.49,22.32.63,3.93,3.2,5,5.93,6.14,4.5,1.89,10.08,4.24,10.6,21.66.16,3.93-1.72,6.18-3.71,8.6-4.59,5.56-6.71,10.2,4.97,23.38,3.13,3.44,6.06,2.71,9.18,1.95,4.5-1.11,10.07-2.49,20.26,8.03,4.03,3.58,4.09,7.09,4.17,10.49.12,5.25.22,10.25,13.11,13.8,1.5.68,3.12,1.04,4.76,1.06,5.25,0,9.39-3.86,12.97-7.63,11.58-9.49,22.65-2.86,32.98,4.75.07.06.16.1.25.13,4.27,1.53,10.16.66,14.99-2.22,4.2-2.52,6.94-6.18,7.51-10.02.19-1.82.01-3.65-.51-5.4-.6-2.62-1.04-4.42,1.15-6.43,2.85-2.62,12.51-10.69,12.92-11.03.04-.03.08-.06.1-.1,2.44-2.82,5.48-1.7,9-.42s8.33,3.04,11.16-2.36l.26-.5c4.76-9.11,7.15-13.69.93-23.09-3.96-6.16-4.58-13.9-1.65-20.61,1.2-3.23,3.34-6.01,6.15-8,.46-.31.96-.63,1.48-.96,2.36-1.47,5.25-3.29,5.81-6.56.81-5.11-1.13-13.89-5.25-18.36-1.68-1.88-4.15-2.87-6.66-2.66h.03Zm9.97,20.78c-.37,2.31-2.62,3.75-4.9,5.14-.54.34-1.06.67-1.55,1-3.13,2.19-5.52,5.28-6.86,8.86-3.18,7.32-2.49,15.75,1.84,22.46,5.57,8.43,3.63,12.13-1.05,21.09l-.25.5c-1.94,3.7-4.46,2.99-8.73,1.43-3.66-1.31-7.79-2.86-11.11.92-1.31,1.06-10.14,8.5-12.92,11.03-3.06,2.78-2.36,5.73-1.74,8.34.46,1.5.62,3.08.47,4.64-.49,3.27-2.88,6.41-6.56,8.62-4.27,2.62-9.43,3.4-13.11,2.11-10.49-7.68-22.65-14.95-35.41-4.51-4.46,4.68-9.32,9.02-15.66,6.18h-.14c-11.59-3.16-11.68-7.04-11.8-11.95-.08-3.65-.16-7.79-4.77-11.89-7.32-7.55-12.63-9.32-16.76-9.32-1.81.04-3.6.32-5.34.81-2.92.72-4.87,1.19-7.2-1.31-11.43-12.9-8.42-16.58-4.92-20.81,2.05-2.49,4.35-5.25,4.16-9.93-.54-18.69-7.04-21.43-11.8-23.42-2.62-1.08-4.29-1.8-4.75-4.63-.66-4.08-2.06-17.56,7.87-19.97.8-.2,1.63-.33,2.49-.47,2.09-.22,4.12-.84,5.98-1.84,5.51-3.33,9.89-12.04,10.49-18.1.14-2.28-.16-4.57-.9-6.73-.34-1.06-.78-2.09-1.31-3.07-.62-1.11-1.06-2.31-1.31-3.55-.68-4.63,5.25-9.18,8.06-11.45,5.07-3.93,9.7-3.75,14.58.63l1.31,1.31c2.35,2.2,4.87,4.63,8.9,4.1s8.22-3.36,11.49-5.64l.34-.25c2.9-2.02,6.82-5.25,7.46-10.12.1-.98.15-1.97.14-2.96,0-2.45,0-5.25,1.51-6.56,1.77-1.61,6.36-1.59,9.39-1.59h3.27c2.62-.1,5.65-.22,7.87.66,1.68.67,1.99,3.12,2.09,5.18.39,8.8,13.6,13.24,18.66,14.21,3.46.67,8.44,1.31,11.8-.89.77-.59,1.5-1.24,2.16-1.94,1.73-1.72,4.09-4.08,5.47-3.21,6.02,3.72,11.57,8.15,16.54,13.19.47,1.31-.31,2.62-1.56,4.33-.33.46-.64.92-.92,1.31-1.12,1.99-1.58,4.29-1.31,6.56.56,4.46,2.25,8.7,4.92,12.33,2.23,3.34,8.26,11.03,15.62,10.35,1.94-.13,3.82.69,5.05,2.19,3.88,4.2,5.36,12.52,4.69,16.64h.03Zm55.35-120.64c-1.11-2.43-2.07-4.92-2.87-7.46-2.44-7.07-8.08-5.87-12.61-4.92l-.85.18c-4.31-5.68-9.84-10.32-16.18-13.59v-1.31c0-5,0-10.16-7.53-11.5-1.55-.28-3-.68-4.41-1.08-2.08-.68-4.22-1.12-6.4-1.31-1.79-.19-3.59.36-4.96,1.53-.93.84-1.77,3.02-2.85,6.01-.35.97-.81,2.26-1.09,2.79-7.2.87-14.1,3.37-20.18,7.32-.91-.39-1.79-.85-2.62-1.39-2.53-1.53-5.68-3.44-8.65-1.74-5.25,3.71-14.42,13.6-9.69,20.48.13.18.5.58.96,1.08.82.82,1.57,1.69,2.26,2.62-2.27,5.12-3.56,10.62-3.82,16.21v2.07c.13,2.15.13,3.3-1.42,4.33-.61.37-1.24.71-1.89,1.02-1.09.48-2.11,1.1-3.04,1.85-1.92,1.78-2.62,4.51-1.8,6.99l.41,1.67c1.19,5.15,2.32,10.03,6.39,13.39.05.04.1.08.16.1,2.09,1.11,4.72.56,7.05,0,1.17-.3,2.37-.47,3.58-.5,4.91,6.04,11.03,11,17.95,14.56-1.31,5.97-1.7,8.64-.55,10.33s3,1.8,6.26,2.28c2.89.4,5.76.96,8.59,1.67,1.09.46,2.25.71,3.42.75.75.02,1.5-.15,2.16-.5,2.06-1.1,2.62-3.58,3.19-5.99.47-2.07.92-4.04,2.22-4.48,7.24-.81,14.19-3.29,20.31-7.25,8.5,5.77,10.56,4.18,15.04-1.09,1.15-1.31,2.45-2.87,4.17-4.56,6.88-6.78,3.41-10.79-1.22-15.74,2.46-5.81,3.72-12.05,3.71-18.36,0-.37-.02-.74-.07-1.1-.08-.94-.12-1.31.5-2.03.8-.75,1.73-1.33,2.74-1.73l.84-.41c1.42-.57,2.7-1.47,3.71-2.62,1.82-2.39.49-5.25-.49-7.37l-.43-1.19Zm-53.23,33.74c-11.61.54-17.39-8.1-17.82-16.37-.43-8.26,4.39-17.52,16.01-18.2h1.04c10.94,0,16.38,8.38,16.8,16.39.43,8.26-4.39,17.49-16.02,18.17Z"/>
        </g>
      </g>
    </g>
  </g>
</svg>