<?xml version="1.0" encoding="UTF-8"?>
<svg id="Capa_2" data-name="Capa 2" xmlns="http://www.w3.org/2000/svg" viewBox="0 0 478.93 226">
  <defs>
    <style>
      .cls-1 {
        fill: none;
      }

      .cls-2 {
        fill: #00e47c;
      }

      .cls-3 {
        fill: #fff;
      }
    </style>
  </defs>
  <g id="botones">
    <g>
      <rect class="cls-1" x="0" width="478.93" height="226"/>
      <g>
        <g>
          <path class="cls-3" d="m184.58,75.83h9.81c1.93,0,3.63.31,5.09.94,1.46.63,2.59,1.52,3.38,2.69s1.19,2.54,1.19,4.12c0,3.09-1.56,5.07-4.69,5.95v.35c1.26.15,2.37.52,3.31,1.11.94.59,1.68,1.39,2.21,2.4.53,1.01.8,2.18.8,3.53,0,1.67-.4,3.13-1.2,4.38-.8,1.25-1.93,2.21-3.38,2.89s-3.15,1.01-5.08,1.01h-11.44v-29.36Zm9.81,12.68c1.17,0,2.15-.19,2.96-.56.8-.37,1.4-.91,1.8-1.6s.6-1.52.6-2.47-.2-1.77-.6-2.46c-.4-.69-1-1.22-1.8-1.59-.8-.37-1.79-.56-2.96-.56h-5.79v9.24h5.79Zm1.63,13.23c1.17,0,2.15-.2,2.96-.59.8-.4,1.4-.96,1.8-1.69.4-.73.6-1.6.6-2.61s-.2-1.88-.6-2.61c-.4-.73-1-1.3-1.8-1.7-.8-.4-1.79-.6-2.96-.6h-7.42v9.81h7.42Z"/>
          <path class="cls-3" d="m227.13,105.19h-3.55v-4.16h-.33c-.8,1.51-1.8,2.65-2.99,3.41-1.19.77-2.55,1.15-4.07,1.15-1.39,0-2.58-.31-3.58-.93s-1.76-1.51-2.29-2.68-.8-2.56-.8-4.18v-13.27h3.75v12.83c0,3.32,1.51,4.97,4.53,4.97,1.16,0,2.15-.23,2.99-.68.84-.45,1.47-1.11,1.92-1.97.44-.86.66-1.88.66-3.06v-12.09h3.75v20.65Z"/>
          <path class="cls-3" d="m234.05,104.12c-1.47-.99-2.57-2.48-3.27-4.47l3.69-.67c.45,1.14,1.12,1.99,2.02,2.55s2.03.84,3.4.84c.88,0,1.65-.11,2.31-.34.66-.22,1.17-.55,1.52-.97.35-.42.53-.92.53-1.49,0-.64-.22-1.16-.67-1.56-.45-.4-1.01-.71-1.67-.94-.67-.22-1.6-.48-2.79-.76-1.59-.38-2.89-.77-3.88-1.15-1-.39-1.86-.99-2.57-1.79s-1.07-1.89-1.07-3.23c0-1.2.32-2.25.97-3.15s1.56-1.6,2.73-2.1,2.54-.74,4.09-.74c2.15,0,3.95.48,5.4,1.45,1.45.97,2.51,2.36,3.18,4.18l-3.49.67c-.41-1.02-1.04-1.78-1.91-2.29-.86-.51-1.96-.77-3.29-.77-1.24,0-2.2.22-2.9.65-.69.44-1.04,1.05-1.04,1.86,0,.62.22,1.14.67,1.53.45.4,1.01.7,1.68.93.67.22,1.6.47,2.78.72,1.63.37,2.95.74,3.97,1.12s1.88.98,2.61,1.79c.73.82,1.09,1.92,1.09,3.3,0,1.28-.35,2.4-1.04,3.35-.69.96-1.67,1.69-2.95,2.2-1.27.51-2.76.77-4.45.77-2.3,0-4.18-.49-5.66-1.48Z"/>
          <path class="cls-3" d="m256.11,104.24c-1.52-.9-2.69-2.17-3.53-3.79-.84-1.62-1.25-3.5-1.25-5.62s.42-3.97,1.25-5.59c.84-1.62,2.01-2.87,3.53-3.77,1.52-.9,3.27-1.35,5.25-1.35,1.51,0,2.89.27,4.14.81,1.25.54,2.32,1.32,3.2,2.35.88,1.03,1.53,2.25,1.94,3.66l-3.85.67c-.39-1.38-1.05-2.43-1.97-3.14-.92-.71-2.08-1.06-3.5-1.06-1.32,0-2.42.3-3.31.91-.89.6-1.56,1.46-2,2.58-.44,1.11-.66,2.43-.66,3.94s.22,2.84.66,3.95c.44,1.11,1.11,1.98,2,2.59.89.61,1.99.92,3.31.92,2.84,0,4.66-1.46,5.46-4.38l3.85.67c-.41,1.47-1.05,2.73-1.93,3.78-.88,1.05-1.94,1.86-3.19,2.41-1.25.55-2.64.83-4.16.83-1.98,0-3.73-.45-5.25-1.36Z"/>
          <path class="cls-3" d="m276.36,104.87c-.93-.48-1.66-1.16-2.19-2.03-.53-.87-.8-1.87-.8-3,0-1.81.71-3.27,2.13-4.38,1.42-1.11,3.54-1.87,6.37-2.26l4.97-.71c-.03-1.2-.21-2.17-.54-2.92-.33-.75-.82-1.3-1.46-1.65-.64-.35-1.45-.53-2.45-.53-1.28,0-2.33.3-3.16.9-.83.6-1.44,1.54-1.84,2.81l-3.69-.31c.35-1.41.92-2.62,1.71-3.61s1.78-1.75,2.97-2.27,2.56-.79,4.11-.79c1.7,0,3.15.32,4.36.96s2.13,1.58,2.77,2.81c.64,1.24.96,2.74.96,4.51v12.78h-3.55v-4.16h-.33c-.83,1.47-1.87,2.6-3.13,3.39-1.26.79-2.63,1.18-4.11,1.18-1.16,0-2.2-.24-3.13-.72Zm1.96-3.28c.63.5,1.52.74,2.66.74,1.06,0,2.04-.2,2.94-.6.9-.4,1.61-.95,2.14-1.65s.8-1.48.8-2.33v-2.39l-4.34.65c-1.24.18-2.23.4-2.97.68-.74.28-1.29.64-1.64,1.08-.35.44-.53,1-.53,1.66,0,.94.32,1.66.95,2.15Z"/>
          <path class="cls-3" d="m299.08,104.24c-1.36-.9-2.42-2.17-3.19-3.8-.77-1.63-1.15-3.49-1.15-5.57s.38-3.95,1.15-5.59,1.83-2.9,3.19-3.8,2.9-1.36,4.63-1.36c1.44,0,2.68.35,3.73,1.05,1.05.7,1.96,1.79,2.75,3.27h.33v-13.84h3.75v30.58h-3.55v-4.16h-.33c-.84,1.58-1.8,2.73-2.86,3.47-1.07.73-2.35,1.1-3.84,1.1-1.71,0-3.25-.45-4.61-1.36Zm8.98-2.82c.89-.61,1.56-1.48,2-2.6.44-1.12.66-2.44.66-3.94s-.22-2.84-.66-3.95c-.44-1.11-1.11-1.98-2-2.59-.89-.61-1.99-.92-3.31-.92s-2.43.3-3.32.92-1.56,1.48-2,2.59c-.44,1.11-.65,2.43-.65,3.95s.22,2.82.66,3.94c.44,1.12,1.11,1.99,2,2.6.89.61,1.99.92,3.31.92s2.42-.31,3.31-.92Z"/>
          <path class="cls-3" d="m323.41,104.25c-1.53-.9-2.71-2.16-3.55-3.78-.84-1.62-1.25-3.49-1.25-5.6s.42-3.99,1.25-5.62c.84-1.62,2.02-2.88,3.55-3.78,1.53-.9,3.29-1.35,5.29-1.35s3.76.45,5.29,1.35c1.53.9,2.71,2.16,3.55,3.78.84,1.63,1.25,3.5,1.25,5.62s-.42,3.97-1.25,5.6c-.84,1.62-2.02,2.89-3.55,3.78-1.53.9-3.29,1.35-5.29,1.35s-3.76-.45-5.29-1.35Zm8.66-2.83c.9-.61,1.58-1.47,2.02-2.59.44-1.11.66-2.43.66-3.95s-.22-2.84-.66-3.95c-.44-1.11-1.11-1.98-2.02-2.59-.9-.61-2.03-.92-3.37-.92s-2.45.3-3.35.92c-.9.61-1.58,1.48-2.03,2.59-.45,1.11-.67,2.43-.67,3.95s.22,2.84.67,3.95c.45,1.11,1.12,1.98,2.03,2.59.9.61,2.02.92,3.35.92s2.47-.31,3.37-.92Z"/>
          <path class="cls-3" d="m343.18,84.54h3.55v4.57h.33c.54-1.22,1.09-2.19,1.65-2.92.56-.72,1.17-1.24,1.85-1.57.67-.33,1.46-.49,2.35-.49.26,0,.52.02.8.05.27.03.51.09.71.17v4.04c-.27-.08-.61-.15-1.02-.19-.41-.05-.82-.07-1.22-.07-1.13,0-2.08.2-2.86.61-.78.41-1.37,1-1.77,1.78s-.6,1.72-.6,2.82v11.85h-3.75v-20.65Z"/>
          <path class="cls-3" d="m369.99,104.24c-1.36-.9-2.42-2.17-3.19-3.8-.77-1.63-1.15-3.49-1.15-5.57s.38-3.95,1.15-5.59,1.83-2.9,3.19-3.8,2.9-1.36,4.63-1.36c1.44,0,2.68.35,3.73,1.05,1.05.7,1.96,1.79,2.75,3.27h.33v-13.84h3.75v30.58h-3.55v-4.16h-.33c-.84,1.58-1.8,2.73-2.86,3.47-1.07.73-2.35,1.1-3.84,1.1-1.71,0-3.25-.45-4.61-1.36Zm8.98-2.82c.89-.61,1.56-1.48,2-2.6.44-1.12.66-2.44.66-3.94s-.22-2.84-.66-3.95c-.44-1.11-1.11-1.98-2-2.59-.89-.61-1.99-.92-3.31-.92s-2.43.3-3.32.92-1.56,1.48-2,2.59c-.44,1.11-.65,2.43-.65,3.95s.22,2.82.66,3.94c.44,1.12,1.11,1.99,2,2.6.89.61,1.99.92,3.31.92s2.42-.31,3.31-.92Z"/>
          <path class="cls-3" d="m394.31,104.24c-1.52-.9-2.7-2.17-3.54-3.79-.84-1.62-1.25-3.49-1.25-5.6s.41-3.95,1.24-5.58c.83-1.62,1.99-2.89,3.5-3.79,1.5-.9,3.24-1.36,5.21-1.36s3.65.45,5.12,1.34,2.6,2.13,3.4,3.73c.8,1.6,1.2,3.43,1.2,5.49v1.33h-15.62c.09,1.31.38,2.43.86,3.37.48.94,1.14,1.68,2.01,2.19.86.52,1.91.77,3.13.77s2.26-.26,3.12-.77c.86-.52,1.52-1.26,1.98-2.22l4,.35c-.46,1.21-1.13,2.26-2.01,3.14-.88.88-1.92,1.56-3.13,2.04-1.21.48-2.53.71-3.96.71-1.98,0-3.74-.45-5.26-1.36Zm10.91-11.22c-.2-1.78-.78-3.17-1.73-4.16-.95-.99-2.28-1.49-3.98-1.49s-3.09.5-4.08,1.49c-.99.99-1.59,2.38-1.79,4.16h11.58Z"/>
          <path class="cls-2" d="m205.85,123.41c1.12-.78,2.46-1.17,4.01-1.17,1.32,0,2.45.28,3.39.86s1.67,1.42,2.17,2.56c.5,1.14.75,2.52.75,4.15v13.76h-5.87v-12.89c0-1.26-.3-2.23-.91-2.89-.61-.67-1.47-1-2.6-1-1.25,0-2.22.41-2.91,1.21-.69.81-1.03,1.95-1.03,3.44v12.13h-5.87v-12.89c0-1.26-.3-2.23-.91-2.89-.61-.67-1.47-1-2.6-1-1.25,0-2.22.41-2.91,1.21-.69.81-1.03,1.95-1.03,3.44v12.13h-5.87v-20.92h5.67v4.38h.33c.84-1.62,1.82-2.82,2.93-3.61s2.42-1.18,3.95-1.18,2.88.41,3.91,1.22,1.73,2,2.1,3.57h.33c.86-1.63,1.85-2.84,2.97-3.62Z"/>
          <path class="cls-2" d="m224.66,142.58c-1.64-.92-2.92-2.21-3.82-3.85-.9-1.64-1.36-3.52-1.36-5.63s.44-3.96,1.34-5.62c.89-1.65,2.14-2.94,3.75-3.86,1.61-.92,3.46-1.38,5.54-1.38s3.88.46,5.44,1.38,2.77,2.2,3.62,3.83,1.27,3.5,1.27,5.6v1.71h-14.8c.16,1.52.62,2.72,1.37,3.58s1.82,1.29,3.22,1.29c.94,0,1.74-.2,2.41-.59.67-.39,1.18-.96,1.53-1.69l5.87.49c-.48,1.32-1.19,2.44-2.13,3.35-.95.92-2.06,1.61-3.34,2.08-1.28.47-2.68.7-4.19.7-2.16,0-4.06-.46-5.71-1.39Zm9.73-11.76c-.14-1.32-.54-2.35-1.22-3.1s-1.68-1.12-3-1.12-2.34.37-3.08,1.12c-.73.75-1.2,1.78-1.41,3.1h8.71Z"/>
          <path class="cls-2" d="m247.37,142.57c-1.27-.93-2.26-2.22-2.98-3.86-.71-1.64-1.07-3.5-1.07-5.57s.35-3.95,1.06-5.61c.71-1.66,1.7-2.96,2.97-3.89,1.27-.94,2.71-1.41,4.33-1.41,1.45,0,2.71.38,3.78,1.15,1.07.77,1.92,1.89,2.56,3.37h.33v-13.78h5.87v30.58h-5.67v-4.36h-.33c-.79,1.6-1.71,2.8-2.77,3.59s-2.31,1.18-3.75,1.18c-1.62,0-3.06-.47-4.33-1.4Zm10.09-4.84c.73-1.13,1.09-2.67,1.09-4.63s-.36-3.5-1.09-4.63c-.73-1.13-1.87-1.69-3.44-1.69s-2.71.57-3.45,1.69c-.73,1.13-1.1,2.67-1.1,4.63s.37,3.5,1.1,4.63c.73,1.13,1.88,1.69,3.45,1.69s2.71-.56,3.44-1.69Z"/>
          <path class="cls-2" d="m269.33,119.91c-.56-.31-1-.75-1.32-1.31-.32-.56-.48-1.2-.48-1.92s.16-1.36.48-1.92c.32-.56.76-.99,1.32-1.3.56-.31,1.19-.47,1.9-.47s1.34.16,1.9.47c.56.31.99.75,1.3,1.3.31.56.47,1.2.47,1.92s-.16,1.36-.47,1.92c-.31.56-.75.99-1.3,1.31-.56.31-1.19.47-1.9.47s-1.34-.16-1.9-.47Zm-1.04,2.73h5.87v20.92h-5.87v-20.92Z"/>
          <path class="cls-2" d="m282.73,142.58c-1.62-.92-2.87-2.21-3.76-3.85-.89-1.64-1.34-3.52-1.34-5.63s.44-3.98,1.34-5.63c.89-1.64,2.14-2.93,3.76-3.85,1.62-.92,3.49-1.38,5.61-1.38,1.56,0,3.01.27,4.33.82,1.33.55,2.46,1.37,3.4,2.45s1.63,2.39,2.07,3.93l-5.77.88c-.3-1.13-.81-2-1.53-2.61-.72-.61-1.62-.92-2.71-.92-1.52,0-2.64.56-3.35,1.68s-1.07,2.67-1.07,4.64.36,3.47,1.07,4.54c.71,1.07,1.83,1.6,3.35,1.6,1.09,0,1.98-.31,2.69-.92.71-.61,1.22-1.49,1.53-2.65l5.81.9c-.44,1.6-1.13,2.96-2.08,4.07-.95,1.11-2.09,1.94-3.4,2.5-1.32.56-2.77.84-4.34.84-2.12,0-3.99-.46-5.61-1.39Z"/>
          <path class="cls-2" d="m303.25,143.23c-.96-.5-1.71-1.19-2.24-2.09-.54-.9-.81-1.93-.81-3.1,0-1.94.81-3.49,2.43-4.64,1.62-1.15,4.06-1.93,7.32-2.35l3.63-.47c-.04-1.32-.35-2.28-.94-2.89-.58-.6-1.48-.91-2.67-.91-1.02,0-1.84.22-2.47.64-.63.43-1.1,1.11-1.43,2.05l-5.46-.45c.35-1.46.96-2.69,1.82-3.7.86-1.01,1.96-1.78,3.29-2.3,1.33-.52,2.87-.78,4.61-.78,1.93,0,3.57.32,4.93.96,1.36.64,2.4,1.58,3.11,2.82.71,1.24,1.07,2.76,1.07,4.54v13.01h-5.67v-4.36h-.33c-.88,1.63-1.89,2.83-3.02,3.61-1.13.77-2.43,1.16-3.91,1.16-1.22,0-2.31-.25-3.27-.74Zm3.81-4.34c.48.36,1.2.54,2.15.54.87,0,1.63-.15,2.29-.45.66-.3,1.17-.72,1.53-1.27.36-.55.54-1.19.54-1.93v-1.55l-2.77.39c-1.11.15-1.99.34-2.63.56-.64.22-1.1.5-1.4.84-.29.33-.44.76-.44,1.27,0,.71.24,1.24.72,1.6Z"/>
          <path class="cls-2" d="m345.49,123.41c1.12-.78,2.46-1.17,4.01-1.17,1.32,0,2.45.28,3.39.86s1.67,1.42,2.17,2.56c.5,1.14.75,2.52.75,4.15v13.76h-5.87v-12.89c0-1.26-.3-2.23-.91-2.89-.61-.67-1.47-1-2.6-1-1.25,0-2.22.41-2.91,1.21-.69.81-1.03,1.95-1.03,3.44v12.13h-5.87v-12.89c0-1.26-.3-2.23-.91-2.89-.61-.67-1.47-1-2.6-1-1.25,0-2.22.41-2.91,1.21-.69.81-1.03,1.95-1.03,3.44v12.13h-5.87v-20.92h5.67v4.38h.33c.84-1.62,1.82-2.82,2.93-3.61s2.42-1.18,3.95-1.18,2.88.41,3.91,1.22,1.73,2,2.1,3.57h.33c.86-1.63,1.85-2.84,2.97-3.62Z"/>
          <path class="cls-2" d="m364.3,142.58c-1.64-.92-2.92-2.21-3.82-3.85-.9-1.64-1.36-3.52-1.36-5.63s.44-3.96,1.34-5.62c.89-1.65,2.14-2.94,3.75-3.86,1.61-.92,3.46-1.38,5.54-1.38s3.88.46,5.44,1.38,2.77,2.2,3.62,3.83,1.27,3.5,1.27,5.6v1.71h-14.8c.16,1.52.62,2.72,1.37,3.58s1.82,1.29,3.22,1.29c.94,0,1.74-.2,2.41-.59.67-.39,1.18-.96,1.53-1.69l5.87.49c-.48,1.32-1.19,2.44-2.13,3.35-.95.92-2.06,1.61-3.34,2.08-1.28.47-2.68.7-4.19.7-2.16,0-4.06-.46-5.71-1.39Zm9.73-11.76c-.14-1.32-.54-2.35-1.22-3.1s-1.68-1.12-3-1.12-2.34.37-3.08,1.12c-.73.75-1.2,1.78-1.41,3.1h8.71Z"/>
          <path class="cls-2" d="m383.57,122.64h5.67v4.38h.33c1.71-3.19,4.04-4.79,6.97-4.79,1.35,0,2.52.31,3.52.94,1,.63,1.77,1.52,2.3,2.69.54,1.17.81,2.56.81,4.16v13.54h-5.87v-12.78c0-1.28-.32-2.26-.96-2.96-.64-.69-1.56-1.04-2.75-1.04-.87,0-1.61.18-2.23.54-.62.36-1.09.89-1.42,1.58s-.49,1.54-.49,2.53v12.13h-5.87v-20.92Z"/>
          <path class="cls-2" d="m411.39,142.86c-1.04-.47-1.81-1.18-2.3-2.14-.5-.96-.74-2.19-.74-3.7v-9.91h-3.43v-4.46h3.43v-5.44h5.87v5.44h5.22v4.46h-5.22v9.24c0,.68.07,1.2.21,1.57s.38.63.72.79c.34.16.83.23,1.47.23h2.81v4.63h-4.02c-1.64,0-2.99-.23-4.03-.7Z"/>
          <path class="cls-2" d="m426.39,142.61c-1.64-.9-2.92-2.18-3.83-3.83-.92-1.65-1.38-3.54-1.38-5.68s.46-4.02,1.38-5.67c.92-1.64,2.19-2.92,3.83-3.83,1.64-.91,3.51-1.36,5.62-1.36s3.98.45,5.62,1.36c1.64.91,2.91,2.19,3.82,3.83.91,1.65,1.37,3.53,1.37,5.67s-.46,4.04-1.37,5.69c-.91,1.65-2.18,2.92-3.81,3.82-1.63.9-3.51,1.36-5.63,1.36s-3.98-.45-5.62-1.36Zm9.13-4.88c.75-1.13,1.13-2.67,1.13-4.63s-.38-3.5-1.13-4.63c-.75-1.13-1.93-1.69-3.52-1.69s-2.77.57-3.53,1.69c-.76,1.13-1.14,2.67-1.14,4.63s.38,3.52,1.14,4.64c.76,1.12,1.94,1.68,3.53,1.68s2.76-.56,3.52-1.69Z"/>
          <path class="cls-2" d="m448.63,142.46c-1.59-1.01-2.76-2.54-3.51-4.59l5.36-1.04c.33.94.85,1.64,1.57,2.1s1.65.69,2.79.69c.65,0,1.23-.07,1.72-.21.5-.14.88-.35,1.16-.63.28-.28.42-.61.42-.99,0-.44-.19-.8-.57-1.1-.38-.3-.86-.54-1.45-.72-.58-.18-1.39-.4-2.43-.64-1.67-.41-3.05-.82-4.13-1.23-1.08-.42-2.01-1.05-2.79-1.92-.78-.86-1.17-2.01-1.17-3.44,0-1.31.36-2.45,1.08-3.44.72-.99,1.75-1.74,3.09-2.27,1.34-.53,2.92-.79,4.74-.79,2.35,0,4.3.48,5.85,1.44,1.55.96,2.69,2.37,3.43,4.25l-5.22,1.16c-.34-.82-.88-1.43-1.61-1.85s-1.65-.63-2.75-.63c-.94,0-1.66.14-2.17.42-.51.28-.76.68-.76,1.19,0,.44.19.8.57,1.08.38.28.86.51,1.44.68s1.39.37,2.44.6c1.71.4,3.12.79,4.23,1.2,1.11.41,2.07,1.05,2.87,1.94.81.88,1.21,2.07,1.21,3.55,0,1.4-.39,2.61-1.17,3.62-.78,1.01-1.87,1.78-3.27,2.3-1.4.52-3.02.79-4.87.79-2.47,0-4.51-.5-6.1-1.51Z"/>
        </g>
        <g>
          <path class="cls-2" d="m94.9,111.04c-.24,0-.44-.18-.45-.42,0-.04-.27-4-.03-7.39.24-3.51,2.16-5.82,4.9-5.89,2.75-.08,4.8,1.76,4.92,4.36.2,4.34.2,8.71.2,8.76,0,.25-.2.45-.45.45-.25,0-.45-.2-.45-.45,0-.05,0-4.39-.2-8.71-.1-2.12-1.74-3.56-3.99-3.5-2.71.07-3.85,2.65-4.01,5.04-.23,3.32.03,7.22.03,7.26.02.25-.17.47-.42.49h-.03"/>
          <path class="cls-2" d="m93.98,110.34l10.6.16-.08,7.06s.06,5.1-4.82,4.81c-4.25-.25-5.7-1.05-5.84-4.88-.14-3.82.14-7.15.14-7.15"/>
          <path class="cls-2" d="m92.14,66.26s4.71,2.82,7.23,5.59c2.52,2.76,3,4.06,4.48,2.7,1.48-1.36,4.48-4.05,2.72-5.97-1.76-1.92-9.57-9.09-9.57-9.09,0,0-1.33-1.42-3.36.37-2.48,2.18-2.74,2.58-2.74,2.58,0,0-1.58,1.41,1.24,3.81"/>
          <path class="cls-2" d="m78.14,110.89c-1.03,0-1.95-.45-2.48-.85-.4-.28-10.28-7.1-13.56-10.38-3.55-3.55-.15-7.38-.12-7.42.64-.83,16.1-20.98,17.25-22.35,1.2-1.43,2.63-2.88,5.89-3.59,2.46-.54,4.11.24,4.83.7l1.91-2.55c.15-.2.43-.24.64-.09.2.15.24.43.09.64l-2.18,2.91c-.08.1-.2.17-.32.18-.12.01-.25-.03-.35-.11-.06-.05-1.61-1.4-4.43-.78-2.98.65-4.24,1.93-5.39,3.29-1.14,1.36-17.09,22.15-17.25,22.36-.14.16-2.87,3.26.06,6.19,3.22,3.22,13.36,10.22,13.46,10.29.11.08,2.23,1.66,3.96-.31,2.01-2.29,20.5-25.64,20.69-25.87.1-.12,2.28-2.86-.7-6.59-.01-.02-.03-.04-.04-.06-.52-.92,1.09-2.6,2.53-3.85.19-.16.47-.14.64.05.16.19.14.47-.05.64-1.24,1.08-2.31,2.33-2.32,2.72,3.39,4.3.68,7.63.65,7.66-.75.95-18.68,23.59-20.71,25.9-.85.97-1.81,1.3-2.7,1.3"/>
          <path class="cls-2" d="m25.7,187.15c-1.25,0-2.44-.44-3.39-1.26l-3.39-2.92c-2.18-1.88-2.43-5.18-.55-7.35l40.7-47.28c-21.54-18.4-21.21-46.72-9.69-65.3,14.87-23.97,46.47-31.39,70.44-16.52,11.61,7.2,19.73,18.5,22.85,31.8,3.12,13.3.87,27.03-6.33,38.64-9.6,15.48-26.3,24.2-43.52,24.2-7.12,0-14.32-1.49-21.16-4.61l-42.01,48.78c-.91,1.05-2.18,1.69-3.56,1.8-.13.01-.26.01-.4.01M92.95,39.76c-16.83,0-33.29,8.43-42.79,23.76-11.38,18.35-11.65,46.37,9.85,64.43.09.08.15.19.16.31,0,.12-.03.24-.11.33l-41,47.62c-1.55,1.8-1.34,4.52.45,6.07l3.39,2.92c.87.75,1.99,1.11,3.13,1.03,1.15-.08,2.19-.61,2.95-1.48l42.23-49.04c.13-.16.35-.2.53-.12,23.01,10.7,50.45,2.48,63.83-19.1,7.07-11.41,9.28-24.89,6.22-37.96-3.06-13.07-11.03-24.16-22.44-31.24-8.23-5.1-17.37-7.53-26.4-7.53"/>
          <path class="cls-2" d="m93.23,132.36c-7.76,0-15.39-2.16-22.16-6.35-9.58-5.94-16.27-15.25-18.84-26.23-2.57-10.97-.72-22.29,5.22-31.87,12.26-19.77,38.32-25.88,58.1-13.62,9.58,5.94,16.27,15.26,18.84,26.23,2.57,10.97.72,22.29-5.22,31.87-5.94,9.58-15.25,16.27-26.23,18.84-3.22.76-6.48,1.13-9.71,1.13m.15-83.49c-13.83,0-27.35,6.93-35.16,19.52-5.81,9.37-7.63,20.45-5.11,31.18,2.52,10.74,9.07,19.85,18.44,25.66,9.37,5.81,20.45,7.63,31.18,5.11,10.74-2.52,19.85-9.07,25.66-18.44,5.81-9.37,7.63-20.45,5.11-31.18-2.52-10.74-9.07-19.85-18.44-25.66-6.76-4.19-14.27-6.19-21.69-6.19"/>
        </g>
      </g>
    </g>
  </g>
</svg>