<?xml version="1.0" encoding="UTF-8"?>
<svg id="Capa_2" data-name="Capa 2" xmlns="http://www.w3.org/2000/svg" viewBox="0 0 300 300">
  <defs>
    <style>
      .cls-1 {
        fill: none;
      }

      .cls-2 {
        fill: #00e47c;
      }

      .cls-3 {
        fill: #fff;
      }

      .cls-4 {
        fill: #09312a;
      }
    </style>
  </defs>
  <g id="botones">
    <g>
      <rect class="cls-1" width="300" height="300"/>
      <g>
        <g>
          <path class="cls-2" d="m32.23,256.54c-2.14-1.28-3.79-3.06-4.93-5.34-1.15-2.28-1.72-4.89-1.72-7.83s.57-5.54,1.72-7.83c1.15-2.28,2.79-4.06,4.93-5.34s4.64-1.92,7.49-1.92c2.12,0,4.07.38,5.85,1.14,1.78.76,3.31,1.89,4.58,3.38,1.27,1.5,2.21,3.32,2.8,5.46l-6.3.96c-.53-1.86-1.38-3.3-2.56-4.31-1.18-1.01-2.65-1.52-4.43-1.52-1.56,0-2.92.4-4.07,1.21-1.15.81-2.03,1.96-2.64,3.47s-.92,3.26-.92,5.29.31,3.79.92,5.29,1.49,2.66,2.64,3.47c1.15.81,2.5,1.21,4.07,1.21,1.79,0,3.28-.52,4.47-1.57,1.18-1.05,2.03-2.56,2.55-4.55l6.3.98c-.58,2.22-1.52,4.09-2.79,5.63-1.28,1.54-2.81,2.69-4.6,3.47s-3.74,1.16-5.86,1.16c-2.85,0-5.35-.64-7.49-1.92Z"/>
          <path class="cls-2" d="m58.39,257.71c-.96-.5-1.71-1.19-2.24-2.09-.54-.9-.81-1.93-.81-3.1,0-1.94.81-3.49,2.43-4.64,1.62-1.15,4.06-1.93,7.32-2.35l3.63-.47c-.04-1.32-.35-2.28-.94-2.89-.58-.6-1.48-.91-2.67-.91-1.02,0-1.84.22-2.47.64-.63.43-1.1,1.11-1.43,2.05l-5.46-.45c.35-1.46.96-2.69,1.82-3.7.86-1.01,1.96-1.78,3.29-2.3,1.33-.52,2.87-.78,4.61-.78,1.93,0,3.57.32,4.93.96,1.36.64,2.4,1.58,3.11,2.82.71,1.24,1.07,2.76,1.07,4.54v13.01h-5.67v-4.36h-.33c-.88,1.63-1.89,2.83-3.02,3.61-1.13.77-2.43,1.16-3.91,1.16-1.22,0-2.31-.25-3.27-.74Zm3.81-4.34c.48.36,1.2.54,2.15.54.87,0,1.63-.15,2.29-.45.66-.3,1.17-.72,1.53-1.27.36-.55.54-1.19.54-1.93v-1.55l-2.77.39c-1.11.15-1.99.34-2.63.56-.64.22-1.1.5-1.4.84-.29.33-.44.76-.44,1.27,0,.71.24,1.24.72,1.6Z"/>
          <path class="cls-2" d="m81.07,257.4c-.9-.43-1.56-1.1-1.98-1.99-.42-.89-.63-2.04-.63-3.46v-24.49h5.87v23.9c0,.56.06.98.17,1.27s.32.5.6.61c.29.12.69.17,1.22.17h1.51v4.63h-3.26c-1.44,0-2.61-.22-3.51-.65Z"/>
          <path class="cls-2" d="m94.3,257.07c-1.62-.92-2.87-2.21-3.76-3.85-.89-1.64-1.34-3.52-1.34-5.63s.44-3.98,1.34-5.63c.89-1.64,2.14-2.93,3.76-3.85,1.62-.92,3.49-1.38,5.61-1.38,1.56,0,3.01.27,4.33.82,1.33.55,2.46,1.37,3.4,2.45s1.63,2.39,2.07,3.93l-5.77.88c-.3-1.13-.81-2-1.53-2.61-.72-.61-1.62-.92-2.71-.92-1.52,0-2.64.56-3.35,1.68s-1.07,2.67-1.07,4.64.36,3.47,1.07,4.54c.71,1.07,1.83,1.6,3.35,1.6,1.09,0,1.98-.31,2.69-.92.71-.61,1.22-1.49,1.53-2.65l5.81.9c-.44,1.6-1.13,2.96-2.08,4.07-.95,1.11-2.09,1.94-3.4,2.5-1.32.56-2.77.84-4.34.84-2.12,0-3.99-.46-5.61-1.39Z"/>
          <path class="cls-2" d="m132.12,258.05h-5.67v-4.36h-.33c-1.71,3.18-4.03,4.77-6.95,4.77-1.35,0-2.52-.31-3.53-.94-1.01-.62-1.78-1.52-2.31-2.69-.54-1.17-.81-2.56-.81-4.16v-13.54h5.87v12.8c0,1.26.32,2.25.97,2.95s1.56,1.05,2.74,1.05c.87,0,1.61-.18,2.23-.55.62-.37,1.09-.9,1.42-1.59.33-.69.49-1.53.49-2.53v-12.13h5.87v20.92Z"/>
          <path class="cls-2" d="m138.81,257.4c-.9-.43-1.56-1.1-1.98-1.99-.42-.89-.63-2.04-.63-3.46v-24.49h5.87v23.9c0,.56.06.98.17,1.27s.32.5.6.61c.29.12.69.17,1.22.17h1.51v4.63h-3.26c-1.44,0-2.61-.22-3.51-.65Z"/>
          <path class="cls-2" d="m150.38,257.71c-.96-.5-1.71-1.19-2.24-2.09-.54-.9-.81-1.93-.81-3.1,0-1.94.81-3.49,2.43-4.64,1.62-1.15,4.06-1.93,7.32-2.35l3.63-.47c-.04-1.32-.35-2.28-.94-2.89-.58-.6-1.48-.91-2.67-.91-1.02,0-1.84.22-2.47.64-.63.43-1.1,1.11-1.43,2.05l-5.46-.45c.35-1.46.96-2.69,1.82-3.7.86-1.01,1.96-1.78,3.29-2.3,1.33-.52,2.87-.78,4.61-.78,1.93,0,3.57.32,4.93.96,1.36.64,2.4,1.58,3.11,2.82.71,1.24,1.07,2.76,1.07,4.54v13.01h-5.67v-4.36h-.33c-.88,1.63-1.89,2.83-3.02,3.61-1.13.77-2.43,1.16-3.91,1.16-1.22,0-2.31-.25-3.27-.74Zm3.81-4.34c.48.36,1.2.54,2.15.54.87,0,1.63-.15,2.29-.45.66-.3,1.17-.72,1.53-1.27.36-.55.54-1.19.54-1.93v-1.55l-2.77.39c-1.11.15-1.99.34-2.63.56-.64.22-1.1.5-1.4.84-.29.33-.44.76-.44,1.27,0,.71.24,1.24.72,1.6Z"/>
          <path class="cls-2" d="m173.88,257.06c-1.27-.93-2.26-2.22-2.98-3.86-.71-1.64-1.07-3.5-1.07-5.57s.35-3.95,1.06-5.61c.71-1.66,1.7-2.96,2.97-3.89,1.27-.94,2.71-1.41,4.33-1.41,1.45,0,2.71.38,3.78,1.15,1.07.77,1.92,1.89,2.56,3.37h.33v-13.78h5.87v30.58h-5.67v-4.36h-.33c-.79,1.6-1.71,2.8-2.77,3.59s-2.31,1.18-3.75,1.18c-1.62,0-3.06-.47-4.33-1.4Zm10.09-4.84c.73-1.13,1.09-2.67,1.09-4.63s-.36-3.5-1.09-4.63c-.73-1.13-1.87-1.69-3.44-1.69s-2.71.57-3.45,1.69c-.73,1.13-1.1,2.67-1.1,4.63s.37,3.5,1.1,4.63c.73,1.13,1.88,1.69,3.45,1.69s2.71-.56,3.44-1.69Z"/>
          <path class="cls-2" d="m199.45,257.1c-1.64-.9-2.92-2.18-3.83-3.83-.92-1.65-1.38-3.54-1.38-5.68s.46-4.02,1.38-5.67c.92-1.64,2.19-2.92,3.83-3.83,1.64-.91,3.51-1.36,5.62-1.36s3.98.45,5.62,1.36c1.64.91,2.91,2.19,3.82,3.83.91,1.65,1.37,3.53,1.37,5.67s-.46,4.04-1.37,5.69c-.91,1.65-2.18,2.92-3.81,3.82-1.63.9-3.51,1.36-5.63,1.36s-3.98-.45-5.62-1.36Zm9.13-4.88c.75-1.13,1.13-2.67,1.13-4.63s-.38-3.5-1.13-4.63c-.75-1.13-1.93-1.69-3.52-1.69s-2.77.57-3.53,1.69c-.76,1.13-1.14,2.67-1.14,4.63s.38,3.52,1.14,4.64c.76,1.12,1.94,1.68,3.53,1.68s2.76-.56,3.52-1.69Z"/>
          <path class="cls-2" d="m219.34,237.13h5.67v5.12h.33c.54-1.41,1.09-2.52,1.64-3.32.55-.8,1.14-1.37,1.76-1.7.62-.33,1.35-.5,2.16-.5.29,0,.56.02.83.05.27.03.49.09.66.15v6.03c-.77-.2-1.64-.31-2.61-.31-1.54,0-2.68.31-3.44.93-.75.62-1.13,1.55-1.13,2.78v11.68h-5.87v-20.92Z"/>
          <path class="cls-2" d="m236.6,257.71c-.96-.5-1.71-1.19-2.24-2.09-.54-.9-.81-1.93-.81-3.1,0-1.94.81-3.49,2.43-4.64,1.62-1.15,4.06-1.93,7.32-2.35l3.63-.47c-.04-1.32-.35-2.28-.94-2.89-.58-.6-1.48-.91-2.67-.91-1.02,0-1.84.22-2.47.64-.63.43-1.1,1.11-1.43,2.05l-5.46-.45c.35-1.46.96-2.69,1.82-3.7.86-1.01,1.96-1.78,3.29-2.3,1.33-.52,2.87-.78,4.61-.78,1.93,0,3.57.32,4.93.96,1.36.64,2.4,1.58,3.11,2.82.71,1.24,1.07,2.76,1.07,4.54v13.01h-5.67v-4.36h-.33c-.88,1.63-1.89,2.83-3.02,3.61-1.13.77-2.43,1.16-3.91,1.16-1.22,0-2.31-.25-3.27-.74Zm3.81-4.34c.48.36,1.2.54,2.15.54.87,0,1.63-.15,2.29-.45.66-.3,1.17-.72,1.53-1.27.36-.55.54-1.19.54-1.93v-1.55l-2.77.39c-1.11.15-1.99.34-2.63.56-.64.22-1.1.5-1.4.84-.29.33-.44.76-.44,1.27,0,.71.24,1.24.72,1.6Z"/>
          <path class="cls-2" d="m259.01,256.95c-1.59-1.01-2.76-2.54-3.51-4.59l5.36-1.04c.33.94.85,1.64,1.57,2.1s1.65.69,2.79.69c.65,0,1.23-.07,1.72-.21.5-.14.88-.35,1.16-.63.28-.28.42-.61.42-.99,0-.44-.19-.8-.57-1.1-.38-.3-.86-.54-1.45-.72-.58-.18-1.39-.4-2.43-.64-1.67-.41-3.05-.82-4.13-1.23-1.08-.42-2.01-1.05-2.79-1.92-.78-.86-1.17-2.01-1.17-3.44,0-1.31.36-2.45,1.08-3.44.72-.99,1.75-1.74,3.09-2.27,1.34-.53,2.92-.79,4.74-.79,2.35,0,4.3.48,5.85,1.44,1.55.96,2.69,2.37,3.43,4.25l-5.22,1.16c-.34-.82-.88-1.43-1.61-1.85s-1.65-.63-2.75-.63c-.94,0-1.66.14-2.17.42-.51.28-.76.68-.76,1.19,0,.44.19.8.57,1.08.38.28.86.51,1.44.68s1.39.37,2.44.6c1.71.4,3.12.79,4.23,1.2,1.11.41,2.07,1.05,2.87,1.94.81.88,1.21,2.07,1.21,3.55,0,1.4-.39,2.61-1.17,3.62-.78,1.01-1.87,1.78-3.27,2.3-1.4.52-3.02.79-4.87.79-2.47,0-4.51-.5-6.1-1.51Z"/>
        </g>
        <g>
          <rect class="cls-3" x="106.63" y="110.58" width="16.96" height="16.96"/>
          <path class="cls-4" d="m113.63,124.5c-2.68,0-3.44-5.19-3.47-5.41-.02-.17.09-.33.26-.35.16-.02.32.09.35.26.19,1.36,1.08,4.88,2.86,4.88,1.62,0,4.44-6.18,5.83-10.07.06-.16.23-.24.39-.18.16.06.24.23.19.39-.38,1.07-3.82,10.48-6.41,10.48"/>
          <path class="cls-3" d="m188.83,139.78h-56.5c-.25,0-.46-.21-.46-.46s.21-.46.46-.46h56.5c.25,0,.46.21.46.46s-.21.46-.46.46"/>
          <path class="cls-3" d="m188.83,145.84h-56.5c-.25,0-.46-.21-.46-.46s.21-.46.46-.46h56.5c.25,0,.46.21.46.46s-.21.46-.46.46"/>
          <path class="cls-3" d="m188.83,162.62h-56.5c-.25,0-.46-.21-.46-.46s.21-.46.46-.46h56.5c.25,0,.46.21.46.46s-.21.46-.46.46"/>
          <path class="cls-3" d="m188.83,168.68h-56.5c-.25,0-.46-.21-.46-.46s.21-.46.46-.46h56.5c.25,0,.46.21.46.46s-.21.46-.46.46"/>
          <path class="cls-3" d="m123.14,151.85h-16.05c-.25,0-.46-.21-.46-.46v-16.05c0-.25.21-.46.46-.46h16.05c.25,0,.46.21.46.46v16.05c0,.25-.21.46-.46.46m-15.59-.92h15.13v-15.13h-15.13v15.13Z"/>
          <path class="cls-3" d="m123.14,175.71h-16.05c-.25,0-.46-.21-.46-.46v-16.05c0-.25.21-.46.46-.46h16.05c.25,0,.46.21.46.46v16.05c0,.25-.21.46-.46.46m-15.59-.92h15.13v-15.13h-15.13v15.13Z"/>
          <path class="cls-3" d="m202.42,189.84h-105.41c-3.98,0-7.22-3.24-7.22-7.22V48.76c0-3.98,3.24-7.22,7.22-7.22h105.41c3.98,0,7.22,3.24,7.22,7.22v133.87c0,3.98-3.24,7.22-7.22,7.22M97.01,42.46c-3.47,0-6.3,2.82-6.3,6.3v133.87c0,3.47,2.82,6.29,6.3,6.29h105.41c3.47,0,6.3-2.82,6.3-6.29V48.76c0-3.47-2.82-6.3-6.3-6.3h-105.41Z"/>
          <path class="cls-3" d="m123.61,99.24c-1.38,0-1.8-4.59-2.62-21.56-.44-9.07-1.04-21.44-2.08-22.67-1.36.71-4.5,13.33-7.19,28.97-.04.22-.23.38-.45.38h-4.63c-.25,0-.46-.21-.46-.46s.21-.46.46-.46h4.24c.28-1.61,1.43-8.02,2.8-14.35,3.28-15.08,4.66-15.04,5.31-15.02,1.55.06,2.04,5.36,2.92,23.58.42,8.64.94,19.36,1.79,20.65.71-.39,1.39-5.17,1.73-7.52.8-5.59,1.38-9.02,3.03-9.02s3.59-4.41,4.42-7.19c.06-.19.23-.32.43-.33.2-.03.38.11.45.3l2.86,7.62h4.23l4.57-7.69c.09-.15.25-.24.42-.23.17.01.33.12.4.27l2.69,5.95c.78-7.63,2.93-25.02,6.27-25.02,2.07,0,2.81,6.8,3.9,21.23.53,7,1.19,15.7,2.11,16.52.86-.19,1.29-5.49,1.52-8.36.48-5.92.87-9.56,2.62-9.56,1.95,0,2.1,1.86,2.21,3.21.1,1.26.21,1.7.6,1.7h4.49c.09,0,.18.03.26.08l4.31,2.97.54-6.62c.02-.2.16-.36.35-.41.19-.05.39.03.5.2l2.91,4.57h11.27c.25,0,.46.21.46.46s-.21.46-.46.46h-11.52c-.16,0-.3-.08-.39-.21l-2.31-3.62-.5,6.05c-.01.16-.11.31-.26.38-.15.07-.32.06-.46-.04l-4.85-3.35h-4.35c-1.32,0-1.43-1.41-1.52-2.55-.13-1.6-.3-2.36-1.29-2.36s-1.44,5.45-1.71,8.71c-.47,5.71-.84,9.21-2.49,9.21-1.45,0-1.96-3.91-2.98-17.38-.38-5.02-.77-10.2-1.3-14.14-.83-6.17-1.64-6.24-1.68-6.24-1.9,0-4.35,13.44-5.53,25.9-.02.21-.18.38-.38.41-.2.04-.41-.07-.5-.26l-3.03-6.72-4.26,7.16c-.08.14-.23.23-.4.23h-4.81c-.19,0-.36-.12-.43-.3l-2.51-6.69c-.8,2.26-2.63,6.6-4.89,6.6-.94,0-1.71,5.35-2.12,8.22-.76,5.33-1.27,8.34-2.74,8.34"/>
          <path class="cls-3" d="m188.83,116.94h-56.5c-.25,0-.46-.21-.46-.46s.21-.46.46-.46h56.5c.25,0,.46.21.46.46s-.21.46-.46.46"/>
          <path class="cls-3" d="m188.83,123h-56.5c-.25,0-.46-.21-.46-.46s.21-.46.46-.46h56.5c.25,0,.46.21.46.46s-.21.46-.46.46"/>
        </g>
      </g>
    </g>
  </g>
</svg>