<?xml version="1.0" encoding="UTF-8"?>
<svg id="Capa_2" data-name="Capa 2" xmlns="http://www.w3.org/2000/svg" viewBox="0 0 291.89 404.9">
  <defs>
    <style>
      .cls-1 {
        fill: #00e47c;
      }
    </style>
  </defs>
  <g id="iPhone_mockup">
    <path class="cls-1" d="m290.51,274.18s.01-.06.01-.1c-.02-.22-.07-.45-.1-.67-4.09-32.36-16.65-63.41-36.22-87.77-6.27-7.81-11.69-14.55-12.33-24.61-.17-2.64-.16-5.34-.11-8.14,2.9.43,7.11,1.3,10.33,2.07.8.19,1.61.29,2.41.29,1.93,0,3.83-.55,5.5-1.62,2.36-1.51,3.96-3.85,4.51-6.59,0,0,.05-.26.05-.26,1.02-5.15-1.94-10.2-6.88-11.75-5.37-1.68-10.11-2.14-13.37-2.2l10.33-8.76c3.67-3.12,4.67-8.45,2.3-12.79-1.33-2.45-3.55-4.21-6.23-4.96-2.69-.75-5.49-.39-7.9,1.02l-11.95,6.99c-7.3-5.74-14.58-8.1-22.57-9.88,1.77-.14,3.59-.25,5.49-.29l1.04-.02c3.42-.07,6.92-.15,10.23-.96.03,0,.06,0,.09,0,.11-.03.2-.07.3-.09.63-.16,1.26-.36,1.87-.59.21-.08.42-.15.62-.23.71-.29,1.42-.61,2.1-1.01,1.87-1.07,3.46-2.54,4.74-4.24.08-.11.18-.2.26-.31.11-.15.18-.31.28-.46,1.99-2.99,3.04-6.61,2.75-10.23-.49-6.08-4.66-11.61-10.37-13.76-.58-.22-1.18-.39-1.78-.55-.15-.04-.3-.08-.45-.11-.63-.15-1.27-.27-1.91-.36-.02,0-.03,0-.05,0-.02,0-.04,0-.06,0-2.23-.3-4.5-.29-6.69-.23-4.8.12-9.4.47-13.84.99-4.05-26.52-17.52-32.47-22.13-33.74l3.48-22.6c.07-.44-.06-.88-.34-1.21-2.17-2.56-5.67-2.97-7.88-2.94l.84-6.14c.08-.6-.2-1.19-.72-1.5-9.08-5.51-17.5-1.69-17.85-1.53-.45.21-.76.62-.85,1.11,0,0-4.51,25.02-5.59,31.01-.42,0-.85-.01-1.26-.01-.73,0-1.44.04-2.16.07l-3.32-29.52s0,0,0,0c-.47-4.17-7.81-5.54-14.8-4.74-7,.8-13.83,3.79-13.36,7.96,0,0,0,0,0,0,0,0,0,0,0,0l4.49,33.46c-11.93,6.43-21.41,16.66-28.64,28.57-.65-6.26-2.01-11.56-3.89-18.82-.38-1.48-.79-3.06-1.22-4.74,0-.03-.03-.05-.04-.08-.48-1.7-2.13-3.73-6.82-5.26-3.93-1.28-9.1-1.88-14.52-1.68s-10.51,1.16-14.31,2.72c-5.47,2.24-6.54,4.92-6.47,6.76.01.36.07.7.16,1.03,1.49,5.88,2.57,12.04,3.24,18.07l-34.42,10.33c-.31.09-.57.28-.77.53-.09.12-8.88,11.88.94,25.91.29.42.76.65,1.24.65.17,0,.33-.03.49-.08.19-.06,18.18-6.21,31.97-8.53-.33,1.58-.72,3.04-1.17,4.35-2.93,7.25-6.49,14.15-9.93,20.82-.82,1.59-1.65,3.2-2.47,4.81l-13.06-7.65c-2.34-1.37-5.07-1.72-7.69-1-2.62.73-4.77,2.44-6.07,4.83-2.41,4.42-1.13,9.96,2.98,12.87l12.01,8.52c-3.95.16-9.85.76-16.04,2.7-4.82,1.52-7.73,6.39-6.78,11.34l.18.88c.55,2.68,2.12,4.96,4.42,6.42,1.62,1.03,3.45,1.56,5.32,1.56.78,0,1.57-.09,2.35-.28l.86-.21c2.88-.69,5.63-1.35,7.88-1.74-2.63,15.81-2.08,31.21,1.67,45.86,1.87,7.28,5.02,14.15,8.06,20.79,3.31,7.22,6.73,14.68,8.39,22.52,1.59,7.52,2.49,15.16,3.35,22.55.97,8.3,1.99,16.79,4,25.27v73.38c-.01.09-.02.17-.01.26.07,2.52,2.34,4.7,6.39,6.14,3.28,1.17,7.5,1.79,11.99,1.79.43,0,.86,0,1.3-.02,9.3-.25,19.11-3.38,19.24-8.72.01-.08.02-.15.02-.23v-13.6c2.61,2.16,5.32,4.27,8.14,6.31v27.21c-.01.09-.02.17-.01.26.07,2.52,2.34,4.7,6.39,6.14,3.28,1.17,7.5,1.79,12,1.79.43,0,.86,0,1.3-.02,4.97-.13,9.65-1.01,13.18-2.48,3.85-1.6,5.99-3.81,6.06-6.23.01-.08.02-.16.02-.24v-5.02c5.95,2.44,12.12,4.67,18.49,6.64,20.05,6.21,40.05,9.28,57.74,9.28,19.69,0,36.52-3.82,47.3-11.39,18.85-13.24,30.53-39.46,34.71-77.94,1.49-13.76,1.31-27.69-.37-41.4Zm-28.97-127.73c-.39,1.92-1.51,3.57-3.16,4.63-1.66,1.06-3.64,1.4-5.57.94-3.32-.79-7.86-1.74-10.97-2.18,0-.04,0-.08,0-.12.12-4.61.23-9.28-.19-13.8,2.6-.13,8.37-.09,15.13,2.02,3.46,1.08,5.52,4.63,4.81,8.26l-.05.26Zm-17.19-36.48c1.69-.99,3.67-1.25,5.55-.72,1.89.53,3.44,1.76,4.44,3.59,1.62,2.97.92,6.72-1.66,8.91l-11.63,9.87c-1.06-5.58-3.26-10.79-7.77-15.19l11.06-6.47Zm-43.07-3.88c10.79,2.16,19.31,3.87,28.06,10.9,5.94,4.77,8.27,10.86,9.13,17.63,0,.04,0,.07.01.11.58,4.71.46,9.75.33,14.9-.1,3.85-.2,7.83.04,11.59.7,11.02,6.67,18.45,12.99,26.32,16.73,20.82,28.23,46.65,33.59,73.96-6.82-9.43-19.1-17.19-28.57-20.24l-37.36-12.04c-22.6-7.28-45.43-16.07-54.55-36.11-8.42-18.51-3.65-49.4,6.1-66.62,6.45-11.39,15.26-18,28.29-20.78l1.93.39Zm28.53-29.22c2.92,2.24,4.94,5.74,5.23,9.38.39,4.86-2.29,9.94-6.51,12.37-.54.31-1.11.57-1.7.82-.2.08-.41.15-.62.22-.42.15-.84.29-1.29.41-.13.03-.25.06-.38.1-5.56-.07-10.46-4.85-11.45-11.24-1.09-7.08,2.97-13.6,9.06-14.54.32-.05.63-.09.95-.12.26.04.53.06.78.11.23.04.46.08.68.13.7.15,1.39.33,2.06.58,1.14.43,2.21,1.04,3.18,1.79ZM130.66,3.23c1.22-.14,2.37-.2,3.43-.2,4.88,0,7.9,1.31,8.01,2.27.13,1.18-3.82,3.81-10.68,4.6-6.86.79-11.3-.89-11.44-2.07h0c-.13-1.18,3.82-3.82,10.68-4.6Zm-10.13,8.71c2.01.81,4.66,1.19,7.48,1.19,1.23,0,2.5-.08,3.75-.22,4.16-.47,8.25-1.73,10.8-3.54l2.84,25.27c-7.69.61-14.72,2.55-21.08,5.56l-3.79-28.26ZM16.55,102.32c-6.76-10.55-1.91-19.11-.65-21.01l33.35-10.01c.72,8.29.63,16.19-.29,22.57-12.36,1.93-28.09,7.01-32.4,8.45Zm-3.81,31.27c-2.85-2.02-3.74-5.87-2.07-8.94.9-1.66,2.4-2.85,4.21-3.35,1.82-.5,3.71-.26,5.34.69l13.23,7.75c-2.27,4.54-4.45,9.19-6.36,14.03l-14.35-10.18Zm-.15,30.46l-.86.21c-1.84.44-3.73.12-5.32-.89-1.6-1.02-2.69-2.61-3.07-4.47l-.17-.84c-.66-3.43,1.36-6.81,4.71-7.86,7.38-2.32,14.48-2.62,17.81-2.61-1.31,3.7-2.46,7.51-3.33,11.5-.22,1.01-.38,2.02-.58,3.03-2.56.36-5.77,1.12-9.18,1.94Zm69.94,210.62c-.01.09-.02.18-.02.26.06,2.2-6.26,5.56-16.28,5.83-4.61.14-8.94-.44-12.19-1.6-2.57-.91-4.23-2.14-4.37-3.24,0-.05,0-.1,0-.15v-63.16c.16.46.3.91.47,1.37,6.1,16.29,17.29,31.49,32.38,44.68v16Zm47.06,19.15c-.01.09-.02.18-.02.27.03,1.12-1.58,2.5-4.19,3.59-3.19,1.32-7.48,2.12-12.09,2.24-4.61.14-8.94-.44-12.19-1.6-2.58-.91-4.23-2.14-4.37-3.24,0-.05,0-.1,0-.15v-25.22c9.86,6.81,20.88,12.86,32.85,18v6.11Zm158.27-78.56c-4.08,37.57-15.33,63.07-33.44,75.78-19.74,13.86-60.89,14.54-102.4,1.69-48.97-15.16-85.99-44.99-99.03-79.8-4.48-11.98-5.87-23.79-7.33-36.3-.87-7.46-1.77-15.17-3.4-22.83-1.73-8.16-5.22-15.79-8.6-23.16-2.99-6.52-6.08-13.26-7.88-20.28-4.13-16.09-4.29-33.13-.47-50.64,2.9-13.31,8.62-24.39,14.68-36.13,3.47-6.73,7.06-13.69,10.07-21.14,3.7-10.6,3.51-30.19-.29-48.15,3.7,1.87,9.37,2.81,15.19,2.81.66,0,1.32-.01,1.98-.04,5.43-.2,10.53-1.16,14.36-2.72,2.1-.85,3.55-1.77,4.54-2.68.04.16.08.32.12.47,2.35,9.08,3.77,14.59,4.14,22.75-6.67,12.34-11.09,26.1-13.43,39.17-.15.82.4,1.61,1.23,1.76.09.02.18.02.27.02.72,0,1.36-.52,1.49-1.25,6.55-36.59,29.69-78.77,73.45-77.12q1.27,0,2.4-6.3l4.76-26.42c1.92-.67,7.41-2.08,13.43,1.16l-4.07,29.83c-.11.83.47,1.6,1.3,1.71.83.11,1.6-.47,1.71-1.3l2.95-21.64c1.42-.07,3.92.03,5.52,1.39l-3.58,23.26c-.06.41.04.82.29,1.15.25.33.62.54,1.03.59.17.02,16.51,2.28,21.01,31.41-51.78,7.18-79.5,40.94-101.6,76.97-.44.72-.21,1.65.5,2.09.71.44,1.65.21,2.09-.5,23.78-38.76,54.16-74.84,114.73-76.82-4.17,3.32-6.49,9.15-5.53,15.31.77,5.02,3.57,9.22,7.33,11.64-.88.03-1.77.05-2.65.07l-1.04.02c-5.29.12-10.1.63-14.49,1.55-.11.01-.2.03-.3.06-13.96,2.98-23.65,10.14-30.51,22.26-10.12,17.88-15.03,50.02-6.22,69.38,9.63,21.17,33.13,30.25,56.38,37.75l37.36,12.04c12.15,3.92,30.1,16.63,31.48,29.59,1.74,13.74,1.95,27.71.45,41.51Z"/>
  </g>
</svg>