<?xml version="1.0" encoding="UTF-8"?>
<svg id="Capa_2" data-name="Capa 2" xmlns="http://www.w3.org/2000/svg" xmlns:xlink="http://www.w3.org/1999/xlink" viewBox="0 0 598 598">
  <defs>
    <style>
      .cls-1, .cls-2, .cls-3 {
        fill: none;
      }

      .cls-2 {
        isolation: isolate;
      }

      .cls-4 {
        fill: #67de83;
      }

      .cls-5 {
        fill: #08312a;
      }

      .cls-3 {
        clip-path: url(#clippath);
      }
    </style>
    <clipPath id="clippath">
      <rect class="cls-1" width="598" height="598"/>
    </clipPath>
  </defs>
  <g id="botones">
    <g id="Grupo_100" data-name="Grupo 100">
      <g class="cls-3">
        <g id="Videos">
          <g class="cls-2">
            <path class="cls-5" d="m104.12,482.7c-3.44-2.44-5.96-6.13-7.54-11.08l10.12-1.95c.85,2.6,2.18,4.55,3.98,5.84,1.8,1.29,4.14,1.93,7.03,1.93,1.75,0,3.31-.23,4.69-.69,1.37-.46,2.45-1.12,3.23-1.97.78-.85,1.17-1.85,1.17-2.98,0-1.23-.47-2.25-1.4-3.07-.94-.82-2.11-1.48-3.53-2.01-1.42-.52-3.4-1.11-5.93-1.77-3.76-1.02-6.85-2.03-9.27-3.04-2.41-1.01-4.49-2.54-6.23-4.6-1.74-2.06-2.61-4.78-2.61-8.17,0-3.15.76-5.88,2.27-8.18s3.67-4.08,6.48-5.31c2.8-1.23,6.12-1.85,9.96-1.85,5.3,0,9.67,1.22,13.12,3.66,3.44,2.44,5.91,6.04,7.4,10.79l-9.83,2.24c-.78-2.58-2.09-4.52-3.94-5.82-1.85-1.3-4.25-1.95-7.21-1.95-1.7,0-3.17.21-4.4.62-1.23.41-2.17,1.01-2.82,1.77-.65.77-.98,1.67-.98,2.72,0,1.23.47,2.24,1.4,3.04.93.79,2.12,1.44,3.57,1.93,1.44.5,3.42,1.05,5.93,1.67,3.86.97,7.02,1.95,9.5,2.95s4.6,2.54,6.39,4.65c1.79,2.11,2.68,4.91,2.68,8.41s-.83,6.27-2.5,8.66c-1.67,2.39-4.01,4.19-7.01,5.4-3.01,1.21-6.51,1.81-10.51,1.81-5.35,0-9.75-1.22-13.19-3.66Z"/>
            <path class="cls-5" d="m176.42,485.64h-9.87v-7.6h-.57c-2.98,5.54-7.02,8.31-12.11,8.31-2.34,0-4.39-.54-6.14-1.63-1.75-1.09-3.09-2.65-4.03-4.69-.94-2.04-1.4-4.45-1.4-7.24v-23.57h10.22v22.29c0,2.2.56,3.91,1.69,5.13s2.72,1.83,4.77,1.83c1.51,0,2.81-.32,3.89-.96,1.08-.64,1.9-1.56,2.47-2.77s.85-2.67.85-4.4v-21.12h10.22v36.42Z"/>
            <path class="cls-5" d="m193.3,499.33c-2.33-.82-4.35-2.02-6.05-3.62s-2.98-3.54-3.83-5.84l10.22-.85c.66,1.28,1.63,2.26,2.91,2.95,1.28.69,2.82,1.03,4.61,1.03,2.53,0,4.4-.69,5.59-2.08,1.19-1.38,1.79-3.3,1.79-5.73v-6.64h-.57c-1.11,2.56-2.6,4.5-4.46,5.84-1.86,1.34-4.05,2-6.59,2-2.82,0-5.33-.82-7.54-2.45-2.21-1.63-3.94-3.89-5.17-6.78s-1.85-6.15-1.85-9.8.62-6.83,1.86-9.69,2.97-5.11,5.18-6.73c2.21-1.62,4.73-2.43,7.54-2.43,2.51,0,4.69.69,6.53,2.08,1.85,1.38,3.46,3.47,4.83,6.27h.57v-7.63h9.87v35.64c0,3.22-.69,6-2.08,8.36-1.38,2.35-3.41,4.17-6.09,5.43-2.67,1.27-5.91,1.9-9.69,1.9-2.75,0-5.28-.41-7.62-1.22Zm13.7-23.8c1.27-1.96,1.9-4.66,1.9-8.09s-.63-6.09-1.9-8.06c-1.27-1.96-3.26-2.95-5.98-2.95s-4.72.98-6,2.95c-1.28,1.96-1.92,4.65-1.92,8.06s.64,6.13,1.92,8.09c1.28,1.96,3.28,2.95,6,2.95s4.72-.98,5.98-2.95Z"/>
            <path class="cls-5" d="m233.75,483.94c-2.86-1.61-5.08-3.85-6.66-6.71-1.57-2.86-2.36-6.13-2.36-9.8s.77-6.9,2.33-9.78c1.55-2.88,3.73-5.12,6.53-6.73,2.8-1.61,6.02-2.41,9.64-2.41s6.76.8,9.48,2.4c2.72,1.6,4.82,3.82,6.3,6.67,1.48,2.85,2.22,6.1,2.22,9.74v2.98h-25.77c.28,2.65,1.08,4.73,2.38,6.23,1.3,1.5,3.17,2.25,5.61,2.25,1.63,0,3.03-.34,4.19-1.03,1.16-.69,2.05-1.67,2.66-2.95l10.22.85c-.83,2.3-2.06,4.24-3.71,5.84-1.65,1.6-3.59,2.8-5.82,3.62s-4.67,1.22-7.29,1.22c-3.76,0-7.08-.8-9.94-2.41Zm16.93-20.48c-.24-2.29-.95-4.09-2.13-5.4-1.18-1.3-2.92-1.95-5.22-1.95s-4.08.65-5.36,1.95c-1.28,1.3-2.09,3.1-2.45,5.4h15.16Z"/>
            <path class="cls-5" d="m267.23,449.22h9.87v8.91h.57c.95-2.46,1.9-4.39,2.86-5.79.96-1.4,1.98-2.38,3.07-2.96,1.09-.58,2.34-.87,3.76-.87.5,0,.98.03,1.44.09.46.06.85.15,1.15.27v10.51c-1.35-.36-2.86-.53-4.54-.53-2.67,0-4.67.54-5.98,1.62-1.31,1.08-1.97,2.69-1.97,4.85v20.34h-10.22v-36.42Z"/>
            <path class="cls-5" d="m300.74,483.94c-2.86-1.61-5.08-3.85-6.66-6.71s-2.36-6.13-2.36-9.8.77-6.9,2.33-9.78c1.55-2.88,3.73-5.12,6.53-6.73,2.8-1.61,6.02-2.41,9.64-2.41s6.76.8,9.48,2.4c2.72,1.6,4.82,3.82,6.3,6.67,1.48,2.85,2.22,6.1,2.22,9.74v2.98h-25.77c.28,2.65,1.08,4.73,2.38,6.23,1.3,1.5,3.17,2.25,5.61,2.25,1.63,0,3.03-.34,4.19-1.03,1.16-.69,2.05-1.67,2.66-2.95l10.22.85c-.83,2.3-2.07,4.24-3.71,5.84-1.65,1.6-3.59,2.8-5.82,3.62s-4.67,1.22-7.29,1.22c-3.76,0-7.08-.8-9.94-2.41Zm16.93-20.48c-.24-2.29-.95-4.09-2.13-5.4-1.18-1.3-2.92-1.95-5.22-1.95s-4.08.65-5.36,1.95c-1.28,1.3-2.09,3.1-2.45,5.4h15.16Z"/>
            <path class="cls-5" d="m334.22,449.22h9.87v7.63h.57c2.98-5.56,7.03-8.34,12.14-8.34,2.34,0,4.38.54,6.12,1.63,1.74,1.09,3.08,2.65,4.01,4.69.93,2.04,1.4,4.45,1.4,7.24v23.57h-10.22v-22.26c0-2.22-.56-3.94-1.67-5.15s-2.71-1.81-4.79-1.81c-1.51,0-2.81.31-3.89.94-1.08.63-1.9,1.54-2.47,2.75-.57,1.21-.85,2.67-.85,4.4v21.12h-10.22v-36.42Z"/>
            <path class="cls-5" d="m382.81,483.94c-2.82-1.61-5-3.85-6.55-6.71s-2.33-6.13-2.33-9.8.78-6.93,2.33-9.8c1.55-2.86,3.73-5.1,6.55-6.71s6.07-2.41,9.76-2.41c2.72,0,5.24.48,7.54,1.44,2.31.96,4.28,2.38,5.93,4.26,1.64,1.88,2.85,4.16,3.6,6.83l-10.05,1.53c-.52-1.96-1.41-3.48-2.66-4.54-1.26-1.06-2.83-1.6-4.72-1.6-2.65,0-4.6.98-5.84,2.93-1.24,1.95-1.86,4.65-1.86,8.08s.62,6.04,1.86,7.9c1.24,1.86,3.19,2.79,5.84,2.79,1.89,0,3.46-.53,4.69-1.6,1.23-1.07,2.12-2.6,2.66-4.62l10.12,1.56c-.76,2.79-1.96,5.15-3.62,7.08-1.66,1.93-3.63,3.38-5.93,4.35-2.3.97-4.82,1.46-7.56,1.46-3.69,0-6.95-.8-9.76-2.41Z"/>
            <path class="cls-5" d="m416.58,444.46c-.97-.54-1.73-1.3-2.29-2.27-.56-.97-.83-2.08-.83-3.34s.28-2.37.83-3.34c.56-.97,1.32-1.73,2.29-2.27.97-.54,2.07-.82,3.3-.82s2.33.27,3.3.82c.97.54,1.73,1.3,2.27,2.27.54.97.82,2.08.82,3.34s-.27,2.37-.82,3.34c-.54.97-1.3,1.73-2.27,2.27-.97.54-2.07.82-3.3.82s-2.33-.27-3.3-.82Zm-1.81,4.76h10.22v36.42h-10.22v-36.42Z"/>
            <path class="cls-5" d="m435.66,485.06c-1.67-.86-2.97-2.08-3.91-3.64-.94-1.56-1.4-3.36-1.4-5.4,0-3.38,1.41-6.08,4.22-8.08s7.06-3.37,12.74-4.1l6.32-.82c-.07-2.3-.62-3.97-1.63-5.02-1.02-1.05-2.57-1.58-4.65-1.58-1.78,0-3.21.37-4.3,1.12-1.09.75-1.92,1.94-2.48,3.57l-9.51-.78c.62-2.53,1.67-4.68,3.18-6.44,1.5-1.76,3.41-3.1,5.73-4.01,2.32-.91,4.99-1.37,8.02-1.37,3.36,0,6.22.56,8.59,1.67,2.37,1.11,4.17,2.75,5.41,4.92,1.24,2.17,1.86,4.8,1.86,7.9v22.65h-9.87v-7.6h-.57c-1.54,2.84-3.29,4.93-5.25,6.28-1.96,1.35-4.24,2.02-6.82,2.02-2.13,0-4.03-.43-5.7-1.3Zm6.64-7.56c.84.63,2.09.94,3.75.94,1.51,0,2.85-.26,3.99-.78s2.04-1.26,2.66-2.22c.63-.96.94-2.08.94-3.35v-2.7l-4.83.67c-1.94.26-3.47.59-4.58.98-1.11.39-1.92.88-2.43,1.46-.51.58-.76,1.32-.76,2.22,0,1.23.42,2.16,1.26,2.79Z"/>
            <path class="cls-5" d="m474.62,483.73c-2.77-1.75-4.8-4.41-6.11-7.99l9.34-1.81c.57,1.63,1.48,2.85,2.73,3.66,1.25.8,2.88,1.21,4.86,1.21,1.14,0,2.14-.12,3-.37.86-.25,1.54-.62,2.02-1.1s.73-1.06.73-1.72c0-.76-.33-1.4-.99-1.92-.66-.52-1.5-.94-2.52-1.26s-2.43-.69-4.22-1.12c-2.91-.71-5.31-1.43-7.19-2.15-1.88-.72-3.5-1.83-4.86-3.34-1.36-1.5-2.04-3.5-2.04-5.98,0-2.27.63-4.27,1.88-5.98,1.25-1.72,3.05-3.04,5.38-3.96,2.33-.92,5.08-1.38,8.25-1.38,4.09,0,7.49.83,10.19,2.5,2.7,1.67,4.69,4.14,5.96,7.4l-9.09,2.02c-.59-1.42-1.53-2.5-2.8-3.23-1.28-.73-2.88-1.1-4.79-1.1-1.63,0-2.89.24-3.78.73-.89.49-1.33,1.18-1.33,2.08,0,.76.33,1.38.99,1.88.66.5,1.5.89,2.5,1.19,1.01.3,2.42.65,4.24,1.05,2.98.69,5.44,1.38,7.37,2.09s3.6,1.83,5.01,3.37c1.41,1.54,2.11,3.6,2.11,6.18,0,2.44-.68,4.54-2.04,6.3-1.36,1.76-3.26,3.1-5.7,4.01-2.44.91-5.27,1.37-8.48,1.37-4.31,0-7.85-.88-10.61-2.63Z"/>
          </g>
        </g>
        <g>
          <rect class="cls-1" x="149" y="113.07" width="300" height="300"/>
          <g>
            <path class="cls-4" d="m350.77,268.01l-1.45-.73c-19.98-13.49-43.23-21.92-67.22-24.37l-1.78-.16c1.07-5.47,3.63-10.99,6.12-16.34l.25-.54c.97-2.1,1.89-4.09,2.73-6.09.86-2.07,1.77-4.17,2.67-6.25l.15-.35c3.73-8.6,7.58-17.49,9.4-26.93,1.87-10.63-.2-21.55-5.82-30.74-7.49-12.74-25.6-25.57-53.88-23.34-13.16.93-25.41,7.4-33.59,17.75-9.16,11.49-13.36,26.44-11.53,41.03,1.32,9.66,6.17,18.37,10.86,26.79l.16.29c1.72,3.1,3.36,6.03,4.82,9.02.59,1.21,1.14,2.31,1.64,3.32l.58,1.16c.94,1.87,1.72,3.42,2.43,4.96-2.45-.65-4.96-1-7.5-1.03-5.3,0-9.17,2.48-10.91,6.98-2.2,5.89.08,14.02,5.19,18.5,3.28,2.88,11.05,6.91,16.56,7.18.23,1.07.49,2.14.74,3.14,0,.01,0,.02,0,.03-3.51-.9-8.32-1.61-12.51.86-4.62,2.71-6.57,8.86-6.42,13.41.21,6.71,6.9,12.49,12.96,14,2.52.63,5.1,1.01,7.6,1.11l10.18,2.23c-.75,0-1.5.01-2.24.04-5.64.08-10.83,2.71-14.25,7.23-2.68,3.89-3.31,8.87-1.71,13.3,2.1,6.67,8.37,12.04,16.39,14.02,2.58.62,5.23.93,7.89.93.07,0,.13,0,.2,0,4.55-.04,9.11-.6,13.53-1.66.61-.15,1.24-.29,1.86-.44-3.63,2.63-6.39,6.29-7.9,10.57-1.09,3.07-.85,6.48.68,9.41,1.07,1.63,2.44,3,4.05,4.05,11.03,7.94,25.94,12.52,40.38,16.96,7.96,2.27,15.91,5,23.59,8.12,13.86,5.87,28.51,8.85,43.56,8.85h.26c5.64,0,11.38-.43,16.99-1.31,9.11-1.45,15.86-5.73,20.06-12.73,10.25-17.01,2.24-44.05-.45-51.93-5.63-16.47-18.99-46.21-45.31-60.27Zm43.08,110.98c-3.75,6.07-9.73,9.8-17.8,11.08-20.06,3.12-40.55.55-59.24-7.42-7.78-3.14-15.81-5.91-23.87-8.22l-.17-.05c-14.17-4.36-28.82-8.86-39.36-16.49-1.28-.83-2.36-1.89-3.19-3.09-1.1-2.17-1.25-4.73-.4-7.03,1.74-5.61,7.09-10.41,14.27-12.82,4.11-1.13,8.32-2.05,12.53-2.73.82-.13,1.62-.28,2.38-.43,8.15-1.42,16.73-2.68,22.46-3.33-3.38,1.48-5.58,2.9-6.66,4.3-1.16,1.52-1.55,3.45-1.08,5.27.44,2.03,1.71,3.82,3.57,4.94,1.37.54,2.81.78,4.24.69,2.69-.08,5.39-.37,8.04-.87-2.43,2.06-5.81,3.44-8.61,4.58l-.24.1c-.74.31-1.46.6-2.14.9l-.74.32c-8.41,3.69-18.88,8.28-28.63,9.91-.8.13-1.35.89-1.22,1.69.06.39.27.73.59.96.32.23.71.32,1.1.26,10.08-1.68,20.33-6.16,29.37-10.12l.74-.32c.67-.3,1.39-.59,2.14-.89l.18-.07c4.58-1.88,10.27-4.21,12.67-9.1,1.32-3.38,1.24-7.21-.22-10.49-.77-2.03-2.24-3.72-4.14-4.78l-.2-.06c-.31-.15-.63-.28-.96-.38-1.93-.61-11.45.64-18.07,1.62.64-.57,1.22-1.19,1.72-1.85.12-.1.22-.23.27-.33,3.06-4.11,3.5-9.7,1.12-14.23-.69-1.43-1.6-2.74-2.71-3.89l-.11-.11c-.42-.43-.88-.82-1.4-1.18-1.83-1.15-3.94-1.88-6.08-2.12-4.79-.58-9.67-.64-14.46-.17l-1.76.1c-6.36.36-12.69.48-18.73.38l-15.86-3.43c3.2-1.17,5.61-3.97,6.61-7.81.36-1.41.51-2.86.47-4.31,1.42.12,2.86.17,4.26.16,10.55-.21,21.21-1.03,31.69-2.44,2.85,1.37,5.82,2.6,8.61,3.74,2.66,1.09,5.05,2.08,7.41,3.18l2.1.95c3.08,1.21,5.98,2.83,8.59,4.79,2.09,1.76,3.55,4.58,4.96,7.31l.41.8c.42.82.84,1.64,1.27,2.39,3.99,7.11,8.51,15.16,14.08,22.1.55.68,1.16,1.47,1.84,2.35,8.95,11.71,29.85,39.06,73.19,28.34-.18,5.97-1.81,11.85-4.75,17.04l-.14.25.04.06Zm-84.85-122.85c-9.23-1.58-19.68-3.36-29.45-6.67.06-1.23.18-2.57.33-3.79l1.94.16c18.07,1.87,35.33,7.02,51.41,15.32-8.07-2.27-16.26-3.66-24.23-5.01Zm.24,9.07c-.28.34-.67.56-1.01.61-.38-.02-.72-.21-.95-.53-.99-1.25-1.16-4.16-.89-6.67l5.5.94c-.36,2.08-1.27,4.03-2.64,5.65Zm-52.8-23.57v.47l-.07.04c-1.95-.1-8.45-.29-15.53-.33l-.02-59.52s.06-.08.18-.16c.54-.37,1.22-.5,1.74-.4.96.42,1.79,1.09,2.45,1.98l.22.24c1.08,1.46,2.73,2.44,4.61,2.69,1.9-.08,3.69-.96,4.87-2.36l.2-.19c.71-.87,1.66-1.51,2.64-1.82.59-.06,1.19.12,1.6.48.39.4.56.97.45,1.62l1.51,57.86c-.96-.32-1.97-.57-2.94-.57-.63,0-1.23.11-1.79.37l-.11-.41Zm23.39,16.19c-2.39.69-4.98.57-7.33-.36-2.2-.69-4.34-1.63-6.35-2.78-1.18-.7-2.26-1.55-3.22-2.54-1.56-1.56-2.81-4.77-3.49-7.34.74.17,1.46.41,2.16.7l.09.04c.24.1.45.18.63.23,3,1.07,6.01,2.37,8.92,3.63l.51.23c1.76.75,3.61,1.47,5.58,2.15.15.09.33.14.37.13,1.61.57,3.42,1.21,5.26,1.7-.16,1.89-1.37,3.52-3.13,4.2Zm-2.67-14c-.19,1.34-.36,3.02-.46,4.61-1.25-.47-2.52-.98-3.75-1.51l-.33-.15c-1.08-.43-2.16-.89-3.26-1.35-1.66-.7-3.38-1.42-5.1-2.07l-1.62-58.85c.19-1.42-.31-2.87-1.36-3.87-1.1-.99-2.57-1.45-4.1-1.25-1.7.43-3.19,1.36-4.28,2.65l-.19.18c-.67.84-1.62,1.39-2.68,1.55-.99-.23-1.85-.8-2.48-1.67l-.21-.23c-.94-1.24-2.2-2.2-3.7-2.79-1.49-.38-3.07-.1-4.31.77-.82.53-1.35,1.44-1.41,2.45v59.62c-6.16,0-10.34.11-13.15.31-.66.04-1.3.23-1.87.55-1.45-4.39-3.3-8.69-5.48-12.77-.34-.7-.69-1.41-1.07-2.16-.33-.65-.67-1.34-1.05-2.1-1.53-3.11-3.28-6.27-4.98-9.33l-.13-.23c-4.54-8.17-9.24-16.61-10.45-25.64-1.75-13.8,2.23-27.96,10.91-38.84,7.68-9.7,19.16-15.75,31.51-16.61,26.9-2.12,44.06,9.92,51.16,21.89,5.31,8.57,7.24,18.76,5.45,28.67-1.79,9.23-5.75,18.35-9.23,26.4-.95,2.19-1.9,4.38-2.81,6.53-.8,1.88-1.67,3.83-2.93,6.52-2.82,6.06-5.74,12.32-6.65,18.71Zm-49.53,32.68c1.68.57,3.32,1.31,4.86,2.19.46.27.92.58,1.36.91.33.25.63.54.9.86l.14.15c.25.29.49.62.71.97l.06.19c.51.87.9,1.8,1.14,2.75v.09s.01.09.01.09c.55,2.16.55,4.45,0,6.6-.89,3.42-3.1,5.64-6.05,6.09-4.88.74-9.79.52-14.58-.67-5.04-1.26-10.56-6.1-10.74-11.3-.12-3.71,1.39-8.67,4.98-10.77,1.58-.87,3.36-1.29,5.16-1.25,2.6.1,5.16.59,7.61,1.47l4.43,1.61Zm43.36,41.5c-.32-2.09-.35-4.96,1.32-6.71,1.4-1.43,3.7-1.76,5.94-1.97,3.19-.29,6.43-.44,9.63-.44.62,0,1.25,0,1.87.02.74.84,1.37,1.78,1.87,2.81,1.79,3.4,1.59,7.46-.51,10.67-5.1.08-10.27-.14-15.37-.63-1.49-.15-3.16-.39-3.93-1.34-.48-.7-.75-1.52-.81-2.41Zm26.03,16.51c1.39-1.7,5.55-3.71,12.37-5.95,1.05.76,1.86,1.8,2.35,3.02,1.02,2.39,1.18,5.06.47,7.55-3.35.9-11.55,2.2-13.71,1.17-1.03-.71-1.75-1.76-2.04-3-.25-.97-.04-2.02.56-2.8Zm-62.48-28.63c2.71,0,5.43.12,8.06.23l.93.04c1.74.07,3.49.14,5.25.17,6.64.11,13.07-.02,19.12-.38l1.79-.11c4.59-.44,9.24-.39,13.8.15.06,0,.12.02.18.03-1.79.07-3.68.2-5.64.39-2.85.25-5.76.78-7.79,2.85-2.03,2.08-2.77,5.26-2.12,9.17.12,1.37.6,2.68,1.42,3.82,1.64,2.02,4.44,2.3,5.96,2.45,4.13.41,8.41.63,12.75.67-.84.6-1.74,1.09-2.71,1.46-3.85,1.42-7.87,2.36-11.94,2.81-6.83.9-13.95,2.5-21.25,4.19-5.68,1.3-13.1,2.58-20.15.88-6.99-1.69-12.46-6.3-14.29-12.07-1.3-3.57-.8-7.57,1.31-10.69,2.87-3.74,7.23-5.92,11.95-5.98.57,0,1.13-.02,1.71-.04.56-.02,1.13-.04,1.69-.04Zm93.24,25.39l-.21-.28h-.04s-.15-.18-.15-.18c-.55-.72-1.05-1.37-1.51-1.94-5.27-6.54-9.5-14.03-13.58-21.27l-.24-.42c-.43-.75-.84-1.56-1.26-2.37l-.22-.43c-1.56-3.09-3.17-6.29-5.82-8.52-2.83-2.19-5.95-3.97-9.24-5.29l-2.06-.94c-2.29-1.07-4.66-2.04-6.95-2.99l-.57-.24c-3.79-1.48-7.55-3.19-11.18-5.08-.32-.17-.64-.35-1.01-.57l-1.05-.69c-.13-.08-.26-.17-.38-.26l-1.61-1.23-2.98-2.77-.16-.19c-7.45-7.91-11.67-19.04-10.52-27.76v-.16s.03-.24.03-.24c.75,2.24,1.95,5.02,3.68,6.74,1.14,1.16,2.42,2.16,3.83,2.98,2.19,1.26,4.53,2.29,6.94,3.05,1.78.59,3.63.91,5.51.95.04,0,.08,0,.12,0,1.22,0,2.43-.21,3.59-.62,2.69-1.03,4.59-3.36,5.06-6.17,6.1,1.62,12.29,2.78,17.63,3.71-.24,2.2-.42,6.6,1.46,9.04.78,1.02,1.97,1.63,3.28,1.66h.23c1.2-.07,2.34-.64,3.11-1.55,1.76-2.04,2.92-4.5,3.38-7.15,10.91,1.94,23.43,4.54,34.65,10.5,25.42,13.58,38.42,42.54,43.91,58.6,1.6,4.68,5.29,16.82,5.38,29.14-42.05,10.77-62.33-15.72-71.01-27.06Zm-107.62-66.11c-4.63-.48-11.32-4.01-14.08-6.37-4.18-3.67-6.14-10.51-4.37-15.25.84-2.29,2.94-5.03,8.1-5.06,2.61.04,5.21.43,7.74,1.16l1.18.28c.56,1.44,1.12,3.07,1.89,5.53-.61,2.05-.59,4.2.05,6.24l.36,1.17c.43,1.09.67,2.23.71,3.33-.09,1.04-.34,2.06-.74,3.02h0c-.44,1.09-.75,2.24-.91,3.44-.05.84-.02,1.67.08,2.5Z"/>
            <path class="cls-4" d="m212.48,281.31c-.78,1.12-1.21,2.43-1.24,3.77-.27,3.48.63,6.32,2.56,8.01,1.3,1.04,2.85,1.75,4.47,2.04,2.31.55,4.68.84,7.11.86.03,0,.06,0,.08,0,.45,0,.89-.13,1.3-.4.47-.36.78-.89.86-1.43,1.11-4.39,1.7-8.91,1.75-13.38.08-.84-.26-1.66-.94-2.24-.36-.24-.78-.39-1.22-.41-3.31-.39-6.62-.15-9.83.69-2.25.59-3.8,1.07-4.91,2.48Zm1.7,3.97c0-.78.23-1.55.63-2.17.51-.65,1.65-.99,3.32-1.42,1.96-.52,3.99-.78,6.02-.78.75,0,1.51.04,2.28.11-.07,4.05-.59,8.1-1.55,12.04-1.99-.06-3.98-.32-5.95-.78-1.16-.21-2.27-.7-3.19-1.39-1.62-1.43-1.67-4.1-1.56-5.6Z"/>
          </g>
        </g>
      </g>
    </g>
  </g>
</svg>