<?xml version="1.0" encoding="UTF-8"?>
<svg id="Capa_2" data-name="Capa 2" xmlns="http://www.w3.org/2000/svg" viewBox="0 0 478.93 226">
  <defs>
    <style>
      .cls-1 {
        fill: none;
      }

      .cls-2 {
        fill: #00e47c;
      }

      .cls-3 {
        fill: #fff;
      }
    </style>
  </defs>
  <g id="botones">
    <g>
      <rect class="cls-1" x="0" width="478.93" height="226"/>
      <g>
        <g>
          <path class="cls-3" d="m215.06,75.83h6.59l9.62,29.36h-4.2l-2.73-8.62h-12.15l-2.73,8.62h-4.04l9.64-29.36Zm8.16,17.27l-4.79-15.13h-.37l-4.77,15.13h9.93Z"/>
          <path class="cls-3" d="m237.72,104.24c-1.52-.9-2.69-2.17-3.53-3.79-.84-1.62-1.25-3.5-1.25-5.62s.42-3.97,1.25-5.59c.84-1.62,2.01-2.87,3.53-3.77,1.52-.9,3.27-1.35,5.25-1.35,1.51,0,2.89.27,4.14.81,1.25.54,2.32,1.32,3.2,2.35.88,1.03,1.53,2.25,1.94,3.66l-3.85.67c-.39-1.38-1.05-2.43-1.97-3.14-.92-.71-2.08-1.06-3.5-1.06-1.32,0-2.42.3-3.31.91-.89.6-1.56,1.46-2,2.58-.44,1.11-.66,2.43-.66,3.94s.22,2.84.66,3.95c.44,1.11,1.11,1.98,2,2.59.89.61,1.99.92,3.31.92,2.84,0,4.66-1.46,5.46-4.38l3.85.67c-.41,1.47-1.05,2.73-1.93,3.78-.88,1.05-1.94,1.86-3.19,2.41-1.25.55-2.64.83-4.16.83-1.98,0-3.73-.45-5.25-1.36Z"/>
          <path class="cls-3" d="m260.48,104.6c-.88-.39-1.5-1-1.87-1.82-.37-.82-.55-1.91-.55-3.27v-11.7h-3.63v-3.26h3.63v-4.99h3.75v4.99h5.79v3.26h-5.79v11.56c0,.64.06,1.14.19,1.5.13.36.38.63.74.79.37.17.9.26,1.59.26h3.26v3.28h-3.51c-1.54,0-2.74-.2-3.62-.59Z"/>
          <path class="cls-3" d="m288.74,105.19h-3.55v-4.16h-.33c-.8,1.51-1.8,2.65-2.99,3.41-1.19.77-2.55,1.15-4.07,1.15-1.39,0-2.58-.31-3.58-.93s-1.76-1.51-2.29-2.68-.8-2.56-.8-4.18v-13.27h3.75v12.83c0,3.32,1.51,4.97,4.53,4.97,1.16,0,2.15-.23,2.99-.68.84-.45,1.47-1.11,1.92-1.97.44-.86.66-1.88.66-3.06v-12.09h3.75v20.65Z"/>
          <path class="cls-3" d="m295.62,104.87c-.93-.48-1.66-1.16-2.19-2.03-.53-.87-.8-1.87-.8-3,0-1.81.71-3.27,2.13-4.38,1.42-1.11,3.54-1.87,6.37-2.26l4.97-.71c-.03-1.2-.21-2.17-.54-2.92-.33-.75-.82-1.3-1.46-1.65-.64-.35-1.45-.53-2.45-.53-1.28,0-2.33.3-3.16.9-.83.6-1.44,1.54-1.84,2.81l-3.69-.31c.35-1.41.92-2.62,1.71-3.61s1.78-1.75,2.97-2.27,2.56-.79,4.11-.79c1.7,0,3.15.32,4.36.96s2.13,1.58,2.77,2.81c.64,1.24.96,2.74.96,4.51v12.78h-3.55v-4.16h-.33c-.83,1.47-1.87,2.6-3.13,3.39-1.26.79-2.63,1.18-4.11,1.18-1.16,0-2.2-.24-3.13-.72Zm1.96-3.28c.63.5,1.52.74,2.66.74,1.06,0,2.04-.2,2.94-.6.9-.4,1.61-.95,2.14-1.65s.8-1.48.8-2.33v-2.39l-4.34.65c-1.24.18-2.23.4-2.97.68-.74.28-1.29.64-1.64,1.08-.35.44-.53,1-.53,1.66,0,.94.32,1.66.95,2.15Z"/>
          <path class="cls-3" d="m317.07,104.68c-.81-.34-1.4-.88-1.76-1.61s-.55-1.71-.55-2.94v-25.53h3.75v25.18c0,.54.07.97.21,1.27.14.31.37.52.69.65.32.13.76.19,1.34.19h1.53v3.28h-1.96c-1.36,0-2.44-.17-3.25-.51Z"/>
          <path class="cls-3" d="m326.19,80.64c-.4-.23-.72-.55-.95-.95-.23-.4-.35-.86-.35-1.38s.12-.98.35-1.38c.23-.4.55-.72.95-.95s.86-.35,1.38-.35.98.12,1.39.35c.41.23.73.55.96.96.23.41.35.86.35,1.37s-.12.96-.35,1.37c-.23.41-.55.73-.96.96-.41.23-.87.35-1.39.35s-.98-.11-1.38-.35Zm-.5,3.89h3.75v20.65h-3.75v-20.65Z"/>
          <path class="cls-3" d="m334.23,84.54h15.21v3.26l-10.81,13.8v.33h10.81v3.26h-15.21v-3.26l10.81-13.8v-.33h-10.81v-3.26Z"/>
          <path class="cls-3" d="m355.97,104.87c-.93-.48-1.66-1.16-2.19-2.03-.53-.87-.79-1.87-.79-3,0-1.81.71-3.27,2.13-4.38,1.42-1.11,3.54-1.87,6.37-2.26l4.97-.71c-.03-1.2-.21-2.17-.54-2.92-.33-.75-.82-1.3-1.46-1.65-.64-.35-1.45-.53-2.45-.53-1.28,0-2.33.3-3.16.9-.83.6-1.44,1.54-1.84,2.81l-3.69-.31c.35-1.41.92-2.62,1.71-3.61s1.78-1.75,2.97-2.27,2.56-.79,4.11-.79c1.7,0,3.15.32,4.36.96s2.13,1.58,2.77,2.81c.64,1.24.96,2.74.96,4.51v12.78h-3.55v-4.16h-.33c-.83,1.47-1.87,2.6-3.13,3.39s-2.63,1.18-4.11,1.18c-1.16,0-2.2-.24-3.13-.72Zm1.96-3.28c.63.5,1.52.74,2.66.74,1.06,0,2.04-.2,2.94-.6.9-.4,1.61-.95,2.14-1.65.53-.7.79-1.48.79-2.33v-2.39l-4.34.65c-1.24.18-2.23.4-2.97.68-.74.28-1.29.64-1.64,1.08-.35.44-.53,1-.53,1.66,0,.94.32,1.66.95,2.15Z"/>
          <path class="cls-3" d="m379.13,104.24c-1.52-.9-2.69-2.17-3.53-3.79-.84-1.62-1.25-3.5-1.25-5.62s.42-3.97,1.25-5.59c.84-1.62,2.01-2.87,3.53-3.77,1.52-.9,3.26-1.35,5.25-1.35,1.51,0,2.89.27,4.14.81s2.32,1.32,3.2,2.35,1.53,2.25,1.94,3.66l-3.85.67c-.39-1.38-1.05-2.43-1.97-3.14-.92-.71-2.08-1.06-3.5-1.06-1.32,0-2.42.3-3.31.91-.89.6-1.56,1.46-2,2.58-.44,1.11-.66,2.43-.66,3.94s.22,2.84.66,3.95c.44,1.11,1.11,1.98,2,2.59s2,.92,3.31.92c2.84,0,4.66-1.46,5.46-4.38l3.85.67c-.41,1.47-1.05,2.73-1.93,3.78-.88,1.05-1.94,1.86-3.19,2.41-1.25.55-2.64.83-4.16.83-1.98,0-3.73-.45-5.25-1.36Z"/>
          <path class="cls-3" d="m398.09,80.64c-.4-.23-.72-.55-.95-.95-.23-.4-.35-.86-.35-1.38s.11-.98.35-1.38c.23-.4.55-.72.95-.95s.86-.35,1.38-.35.98.12,1.39.35.73.55.96.96c.23.41.35.86.35,1.37s-.12.96-.35,1.37c-.23.41-.55.73-.96.96-.41.23-.87.35-1.39.35s-.98-.11-1.38-.35Zm-.5,3.89h3.75v20.65h-3.75v-20.65Z"/>
          <path class="cls-3" d="m410.53,104.25c-1.53-.9-2.71-2.16-3.55-3.78-.84-1.62-1.25-3.49-1.25-5.6s.42-3.99,1.25-5.62c.84-1.62,2.02-2.88,3.55-3.78,1.53-.9,3.29-1.35,5.29-1.35s3.76.45,5.29,1.35c1.53.9,2.71,2.16,3.55,3.78.84,1.63,1.25,3.5,1.25,5.62s-.42,3.97-1.25,5.6-2.02,2.89-3.55,3.78c-1.53.9-3.29,1.35-5.29,1.35s-3.76-.45-5.29-1.35Zm8.66-2.83c.9-.61,1.58-1.47,2.02-2.59.44-1.11.66-2.43.66-3.95s-.22-2.84-.66-3.95c-.44-1.11-1.11-1.98-2.02-2.59s-2.03-.92-3.37-.92-2.45.3-3.35.92-1.58,1.48-2.03,2.59c-.45,1.11-.67,2.43-.67,3.95s.22,2.84.67,3.95c.45,1.11,1.12,1.98,2.03,2.59.9.61,2.02.92,3.35.92s2.47-.31,3.37-.92Zm-2.03-27.18h4.04l-4.67,6.75h-3.55l4.18-6.75Z"/>
          <path class="cls-3" d="m430.3,84.54h3.55v4.16h.33c.79-1.51,1.78-2.65,2.97-3.41s2.55-1.15,4.07-1.15c1.39,0,2.58.31,3.59.93,1.01.62,1.77,1.51,2.3,2.68.53,1.17.8,2.56.8,4.18v13.27h-3.75v-12.82c0-3.32-1.52-4.97-4.55-4.97-1.16,0-2.15.23-2.98.68s-1.46,1.11-1.91,1.98c-.44.86-.66,1.88-.66,3.07v12.07h-3.75v-20.65Z"/>
          <path class="cls-2" d="m229.04,123.41c1.12-.78,2.46-1.17,4.01-1.17,1.32,0,2.45.28,3.39.86s1.67,1.42,2.17,2.56c.5,1.14.75,2.52.75,4.15v13.76h-5.87v-12.89c0-1.26-.3-2.23-.91-2.89-.61-.67-1.47-1-2.6-1-1.25,0-2.22.41-2.91,1.21-.69.81-1.03,1.95-1.03,3.44v12.13h-5.87v-12.89c0-1.26-.3-2.23-.91-2.89-.61-.67-1.47-1-2.6-1-1.25,0-2.22.41-2.91,1.21-.69.81-1.03,1.95-1.03,3.44v12.13h-5.87v-20.92h5.67v4.38h.33c.84-1.62,1.82-2.82,2.93-3.61s2.42-1.18,3.95-1.18,2.88.41,3.91,1.22,1.73,2,2.1,3.57h.33c.86-1.63,1.85-2.84,2.97-3.62Z"/>
          <path class="cls-2" d="m247.81,142.58c-1.64-.92-2.92-2.21-3.82-3.85-.9-1.64-1.36-3.52-1.36-5.63s.44-3.96,1.34-5.62c.89-1.65,2.14-2.94,3.75-3.86,1.61-.92,3.46-1.38,5.54-1.38s3.88.46,5.44,1.38,2.77,2.2,3.62,3.83,1.27,3.5,1.27,5.6v1.71h-14.8c.16,1.52.62,2.72,1.37,3.58s1.82,1.29,3.22,1.29c.94,0,1.74-.2,2.41-.59.67-.39,1.18-.96,1.53-1.69l5.87.49c-.48,1.32-1.19,2.44-2.13,3.35-.95.92-2.06,1.61-3.34,2.08-1.28.47-2.68.7-4.19.7-2.16,0-4.06-.46-5.71-1.39Zm9.73-11.76c-.14-1.32-.54-2.35-1.22-3.1s-1.68-1.12-3-1.12-2.34.37-3.08,1.12c-.73.75-1.2,1.78-1.41,3.1h8.71Zm-3.43-18.21h6.01l-5.34,7.77h-5.53l4.85-7.77Z"/>
          <path class="cls-2" d="m270.51,142.57c-1.27-.93-2.26-2.22-2.98-3.86-.71-1.64-1.07-3.5-1.07-5.57s.35-3.95,1.06-5.61c.71-1.66,1.7-2.96,2.97-3.89,1.27-.94,2.71-1.41,4.33-1.41,1.45,0,2.71.38,3.78,1.15,1.07.77,1.92,1.89,2.56,3.37h.33v-13.78h5.87v30.58h-5.67v-4.36h-.33c-.79,1.6-1.71,2.8-2.77,3.59s-2.31,1.18-3.75,1.18c-1.62,0-3.06-.47-4.33-1.4Zm10.09-4.84c.73-1.13,1.09-2.67,1.09-4.63s-.36-3.5-1.09-4.63c-.73-1.13-1.87-1.69-3.44-1.69s-2.71.57-3.45,1.69c-.73,1.13-1.1,2.67-1.1,4.63s.37,3.5,1.1,4.63c.73,1.13,1.88,1.69,3.45,1.69s2.71-.56,3.44-1.69Z"/>
          <path class="cls-2" d="m292.48,119.91c-.56-.31-1-.75-1.32-1.31-.32-.56-.48-1.2-.48-1.92s.16-1.36.48-1.92c.32-.56.76-.99,1.32-1.3.56-.31,1.19-.47,1.9-.47s1.34.16,1.9.47c.56.31.99.75,1.3,1.3.31.56.47,1.2.47,1.92s-.16,1.36-.47,1.92c-.31.56-.75.99-1.3,1.31-.56.31-1.19.47-1.9.47s-1.34-.16-1.9-.47Zm-1.04,2.73h5.87v20.92h-5.87v-20.92Z"/>
          <path class="cls-2" d="m305.91,142.58c-1.62-.92-2.87-2.21-3.76-3.85-.89-1.64-1.34-3.52-1.34-5.63s.44-3.98,1.34-5.63c.89-1.64,2.14-2.93,3.76-3.85,1.62-.92,3.49-1.38,5.61-1.38,1.56,0,3.01.27,4.33.82,1.33.55,2.46,1.37,3.4,2.45s1.63,2.39,2.07,3.93l-5.77.88c-.3-1.13-.81-2-1.53-2.61-.72-.61-1.62-.92-2.71-.92-1.52,0-2.64.56-3.35,1.68s-1.07,2.67-1.07,4.64.36,3.47,1.07,4.54c.71,1.07,1.83,1.6,3.35,1.6,1.09,0,1.98-.31,2.69-.92.71-.61,1.22-1.49,1.53-2.65l5.81.9c-.44,1.6-1.13,2.96-2.08,4.07-.95,1.11-2.09,1.94-3.4,2.5-1.32.56-2.77.84-4.34.84-2.12,0-3.99-.46-5.61-1.39Z"/>
          <path class="cls-2" d="m326.43,143.23c-.96-.5-1.71-1.19-2.24-2.09-.54-.9-.81-1.93-.81-3.1,0-1.94.81-3.49,2.43-4.64,1.62-1.15,4.06-1.93,7.32-2.35l3.63-.47c-.04-1.32-.35-2.28-.94-2.89-.58-.6-1.48-.91-2.67-.91-1.02,0-1.84.22-2.47.64-.63.43-1.1,1.11-1.43,2.05l-5.46-.45c.35-1.46.96-2.69,1.82-3.7.86-1.01,1.96-1.78,3.29-2.3,1.33-.52,2.87-.78,4.61-.78,1.93,0,3.57.32,4.93.96,1.36.64,2.4,1.58,3.11,2.82.71,1.24,1.07,2.76,1.07,4.54v13.01h-5.67v-4.36h-.33c-.88,1.63-1.89,2.83-3.02,3.61-1.13.77-2.43,1.16-3.91,1.16-1.22,0-2.31-.25-3.27-.74Zm3.81-4.34c.48.36,1.2.54,2.15.54.87,0,1.63-.15,2.29-.45.66-.3,1.17-.72,1.53-1.27.36-.55.54-1.19.54-1.93v-1.55l-2.77.39c-1.11.15-1.99.34-2.63.56-.64.22-1.1.5-1.4.84-.29.33-.44.76-.44,1.27,0,.71.24,1.24.72,1.6Z"/>
        </g>
        <g>
          <path class="cls-2" d="m72.36,81.79c-.13,0-.26-.06-.35-.16-1.55-1.81-.35-4.17-.29-4.27.06-.11.15-.19.27-.22l5.59-1.75c.24-.07.5.06.57.3.07.24-.06.49-.3.57l-5.39,1.69c-.19.46-.64,1.8.08,2.87,1.46-.39,4.91-1.25,5.07-1.29.24-.06.49.09.55.33.06.24-.09.49-.33.55-.04.01-4.14,1.03-5.34,1.37-.04.01-.08.02-.12.02"/>
          <path class="cls-2" d="m102.53,129.16c-2.64,0-6.06-.48-10.52-2.03-6.96-2.42-12.19-7.76-13.53-10.62-1.36-2.88-1.79-5.92-2.17-8.6-.23-1.62-.43-3.02-.8-4.14-2.62-5.25-2.97-8.06-2.69-11.42.27-3.27,2.25-8.1,3.98-10.99,1.27-2.12.37-6.7.07-8.05v-.06c-.1-.36-.22-.9.14-1.31,1.32-1.5,3.96-1.3,5.31-.94,1.35.36,1.65.94,1.71,1.11,0,.02.01.04.01.06l.63,2.99c1.41-2.14,3.38-3.5,4.1-3.95l-.69-4.97s0-.09,0-.14c.03-.17.27-1.05,2.07-1.41,1.84-.37,2.68.61,2.71.65.06.07.09.15.1.24l.49,4.44h.19s.88-4.61.88-4.61c.03-.15.14-.28.28-.33,1.2-.48,2.27-.15,2.8.09.27.12.43.39.4.68l-.06.65.71.13c.38.08.63.44.58.81l-.59,3.29.8.41c2.07,1.39,2.43,3.72,2.48,4.75.53-.03,1.43-.1,2.28-.19.96-.1,1.87.16,2.51.72.58.51.9,1.25.92,2.13.03,1.75-1.31,2.69-2.02,2.94-.04.01-.08.02-.12.02l-.95.07c.56.21,1.14.51,1.69.94,2.16,1.69,2.11,3.83,2.05,6.11v.33c-.07,2.31-.02,2.67,1.35,4.52,3.24,3.76,5.01,8.11,5.37,9.95.06.32.18.72.33,1.18.64,2.07,1.72,5.54.63,11.95-1.16,6.82-4.05,10.84-8.59,11.98-1.22.31-2.8.59-4.84.59m-22.22-57.48c-1,0-2.04.22-2.62.88-.05.06.01.36.05.5v.07c.43,1.84,1.24,6.37-.16,8.72-1.67,2.79-3.59,7.45-3.85,10.59-.27,3.27.06,5.86,2.62,10.96,0,.02.02.04.03.06.4,1.2.61,2.72.84,4.33.37,2.61.79,5.58,2.09,8.34,1.28,2.71,6.3,7.81,13.01,10.14,5.93,2.06,10.5,2.5,14.84,1.41,4.21-1.05,6.8-4.73,7.91-11.25,1.05-6.19.02-9.53-.6-11.53-.15-.49-.28-.9-.35-1.27-.36-1.89-2.21-6.1-5.18-9.56-1.57-2.13-1.61-2.71-1.56-5.11v-.33c.07-2.21.12-3.96-1.69-5.36-1.3-1.01-2.83-1.21-3.75-1.32-.2-.03-.36-.05-.48-.07-.22-.04-.4-.27-.39-.5s.22-.44.44-.46l3.86-.28c.26-.11,1.39-.66,1.36-2.04-.01-.63-.22-1.12-.61-1.46-.44-.39-1.12-.58-1.81-.5-1.33.14-2.79.22-2.8.22-.12.01-.25-.04-.35-.13s-.14-.22-.13-.35c0-.03.14-2.96-2.04-4.43l-1.06-.54c-.18-.09-.27-.29-.24-.48l.61-3.41-.93-.17c-.23-.04-.39-.26-.37-.49l.08-.89c-.39-.15-1.02-.29-1.71-.09l-.9,4.68c-.04.2-.21.36-.42.37l-.98.06c-.24.01-.46-.16-.48-.4l-.52-4.71c-.19-.15-.74-.47-1.75-.27-.97.2-1.26.53-1.34.65l.72,5.15c.01.1,0,.2-.05.29-.03.06-.09.12-.15.16,0,0,0,0-.01,0-.03.02-3.02,1.81-4.62,4.79,0,0,0,.01-.01.02h0c-.05.09-.14.16-.22.19-.03.01-.07.02-.1.03-.08.01-.16,0-.24-.03-.03-.01-.05-.02-.07-.03-.07-.05-.13-.12-.17-.19-.01-.03-.02-.05-.03-.08,0,0,0-.02,0-.03l-.85-4.09s-.28-.32-1.08-.53c-.49-.13-1.12-.22-1.77-.22"/>
          <path class="cls-2" d="m79.88,125.85c-2.24,0-2.83-1.23-2.86-1.29-.03-.06-.04-.12-.04-.19v-12.56c0-.25.2-.46.46-.46s.46.2.46.46v12.43c.15.2.74.79,2.38.68,1.61-.11,2.25-.61,2.44-.8v-2.73c0-.25.2-.46.45-.46s.46.2.46.46v2.89c0,.08-.02.16-.06.22-.07.12-.72,1.14-3.22,1.32-.16.01-.31.02-.46.02"/>
          <path class="cls-2" d="m87.47,128.9c-2.51,0-2.98-1.59-3-1.66-.01-.04-.02-.08-.02-.12v-4.3c0-.25.2-.46.46-.46s.46.2.46.46v4.22c.09.2.55,1.02,2.35.95,1.7-.08,2.26-.61,2.4-.79v-1.11c0-.25.2-.45.46-.45s.46.2.46.45v1.24c0,.06-.01.12-.03.17-.05.13-.59,1.29-3.24,1.41-.1,0-.2,0-.29,0"/>
          <path class="cls-2" d="m82.09,83.46s-.04,0-.06,0c-.25-.03-.42-.26-.39-.51.05-.41,1.33-10.09,9.07-12.37.22-.1,1.36-.55,3.31-.57h0c.25,0,.45.2.45.45,0,.25-.2.46-.45.46-1.91.01-2.95.49-2.96.5-.02.01-.04.02-.07.03-7.19,2.1-8.44,11.53-8.46,11.62-.03.23-.22.4-.45.4"/>
          <path class="cls-2" d="m85.37,89.18c-.07,0-.14-.02-.21-.05-.22-.12-.31-.39-.19-.62.24-.46,6.05-11.17,16.45-12.57.25-.04.48.14.51.39.03.25-.14.48-.39.51-9.93,1.33-15.71,11.99-15.77,12.09-.08.16-.24.24-.4.24"/>
          <path class="cls-2" d="m115.96,111.01h-.02c-.25,0-.45-.22-.44-.47,0-.21.09-5.18-5.81-7.12-1.41-.46-2.73-.85-4.01-1.22-5.22-1.51-8.99-2.6-10.54-6.91-1.59-4.41.5-9.31.59-9.52,0,0,1.54-4.98,7.15-4.98.29,0,.48.2.48.46s-.2.45-.46.45h-.03c-4.92,0-6.24,4.2-6.3,4.38-.04.1-2.05,4.83-.59,8.9,1.4,3.88,4.98,4.91,9.94,6.35,1.29.37,2.61.76,4.04,1.22,3.42,1.12,4.99,3.23,5.71,4.81.78,1.71.73,3.15.73,3.21,0,.24-.21.44-.46.44"/>
          <path class="cls-2" d="m71.57,91.5c-.56,0-1.21-.18-1.63-.89-.25-.42-.31-.95-.16-1.45.15-.5.5-.91.97-1.14.44-.21,1.37-.35,2.18-.44l-1.04-.65c-.07-.04-.88-.51-1.1-1.34-.12-.44-.03-.9.24-1.34.31-.49.69-.78,1.16-.88.71-.14,1.29.25,1.35.29l2.04,1.21c.22.13.29.41.16.63-.13.21-.41.29-.62.16l-2.07-1.23s-.35-.23-.68-.16c-.21.04-.4.2-.56.47-.14.22-.18.43-.13.63.1.38.52.7.68.79l2.21,1.38c.17.1.25.31.2.5-.05.19-.22.33-.41.34-.99.06-2.73.24-3.21.47-.24.11-.41.32-.49.58-.07.25-.05.51.07.72.2.34.54.62,1.63.32l1.08-.3c.24-.07.49.07.56.32.07.24-.07.49-.32.56l-1.08.3c-.2.06-.59.16-1.02.16"/>
          <path class="cls-2" d="m105.23,81.24c-1.34,0-2.43-1.14-2.43-2.55s1.09-2.55,2.43-2.55,2.43,1.14,2.43,2.55-1.09,2.55-2.43,2.55m0-4.19c-.84,0-1.52.73-1.52,1.64s.68,1.64,1.52,1.64,1.52-.73,1.52-1.64-.68-1.64-1.52-1.64"/>
          <path class="cls-2" d="m107.78,86.59c-.13,0-.26-.06-.35-.17-.16-.2-.13-.48.06-.64l2.12-1.73c.07-.06.7-.6.28-1.34-.39-.68-1.13-.33-1.27-.26l-2.05,1.14c-.22.12-.5.04-.62-.18-.12-.22-.04-.5.18-.62l2.05-1.14c.57-.31,1.82-.58,2.5.6.66,1.15-.03,2.14-.49,2.5l-2.12,1.72c-.09.07-.19.1-.29.1"/>
          <path class="cls-2" d="m110.11,89.71c-.19,0-.33-.03-.36-.03l-2.01-.44c-.25-.05-.4-.3-.35-.54.05-.25.3-.4.54-.35l2,.44s.44.07.73-.15c.17-.13.27-.35.3-.66.04-.4-.03-.71-.22-.92-.33-.38-.94-.39-.95-.39l-1.85-.15c-.25-.02-.44-.24-.42-.49.02-.25.24-.44.49-.41l1.82.15s.97.02,1.58.69c.37.41.52.96.45,1.62-.06.58-.29,1.01-.67,1.3-.37.28-.8.33-1.09.33"/>
          <path class="cls-2" d="m96.89,71.13s-.05,0-.07,0c-.25-.04-.42-.27-.38-.52l.56-3.79c.04-.25.27-.42.52-.38.25.04.42.27.38.52l-.56,3.79c-.03.23-.23.39-.45.39"/>
          <path class="cls-2" d="m90.15,67.19c-1.51,0-1.95-.64-2.03-.78-.12-.22-.04-.5.18-.62.21-.12.48-.05.61.16.03.03.4.45,1.77.31,1.16-.12,1.37-.44,1.4-.48.02-.22.21-.4.44-.41.27,0,.46.19.47.44,0,.19-.08,1.14-2.22,1.36-.22.02-.43.03-.61.03m1.92-1.37h0s0,0,0,0Z"/>
          <path class="cls-2" d="m49.79,107.26c-.25,0-.46-.2-.46-.46,0-15.2.73-32.61,1.27-45.32.29-6.8.51-12.16.51-14.67,0-1.82.74-3.35,2.2-4.56,9.46-7.8,47.89-.35,70.85,4.1,2.88.56,5.47,1.06,7.68,1.47,4.42.82,7.63,4.67,7.63,9.18.34,8.12.54,15.69.73,23.01.13,4.77.26,9.7.43,14.66,0,.25-.19.46-.44.47h-.02c-.24,0-.45-.19-.46-.44-.16-4.96-.3-9.89-.42-14.67-.2-7.32-.4-14.89-.73-23.02,0-4.08-2.9-7.56-6.88-8.3-2.21-.41-4.81-.91-7.69-1.47-21.31-4.13-60.97-11.82-70.1-4.29-1.26,1.03-1.86,2.29-1.86,3.85,0,2.53-.23,7.9-.51,14.71-.53,12.7-1.27,30.1-1.27,45.28,0,.25-.2.46-.46.46"/>
          <path class="cls-2" d="m131.22,187.15c-25.72-1.81-61.89-.82-76.26-.31-2.19.07-4.27-.72-5.85-2.24-1.58-1.52-2.45-3.57-2.45-5.77,0-4.65.32-12.08.69-20.68.52-12.1,1.18-27.15,1.18-40.46,0-.25.2-.46.46-.46s.46.2.46.46c0,13.34-.65,28.4-1.18,40.5-.37,8.59-.69,16.01-.69,20.64,0,1.95.77,3.77,2.17,5.12,1.4,1.35,3.24,2.07,5.18,1.99,14.38-.51,50.59-1.5,76.32.31,4.17,0,5.74,0,7.32-7.44,2.51-11.62,2.04-45.84,1.36-74.35,0-.25.19-.46.44-.47.27,0,.46.19.47.45.68,28.56,1.14,62.85-1.38,74.56-1.73,8.16-3.91,8.16-8.24,8.16"/>
          <path class="cls-2" d="m121.7,143.93s-.09,0-.13-.02c-11.35-3.34-50.06-1.7-50.44-1.68,0,0-.01,0-.02,0-.24,0-.44-.19-.45-.44-.01-.25.18-.46.44-.48,1.6-.07,39.25-1.66,50.74,1.72.24.07.38.32.31.56-.06.2-.24.33-.44.33"/>
          <path class="cls-2" d="m121.7,153.34s-.09,0-.13-.02c-11.34-3.34-50.06-1.7-50.44-1.68-.24.02-.46-.18-.47-.44-.01-.25.18-.46.44-.48,1.6-.07,39.25-1.66,50.74,1.72.24.07.38.32.31.56-.06.2-.24.33-.44.33"/>
          <path class="cls-2" d="m121.7,164.22s-.09,0-.13-.02c-11.34-3.34-50.06-1.7-50.44-1.68-.24.01-.46-.18-.47-.43-.01-.25.18-.46.44-.48,1.6-.07,39.25-1.66,50.74,1.72.24.07.38.32.31.56-.06.2-.24.33-.44.33"/>
          <path class="cls-2" d="m55.37,128.51l7.81-10.6c1.29-1.75,4.04-1.07,4.37,1.07l1.63,10.61c.23,1.48-.91,2.8-2.41,2.8h-9.44c-2,0-3.14-2.27-1.96-3.88"/>
          <path class="cls-2" d="m59.04,127.17c-.1,0-.19-.03-.28-.09-.06-.05-6.54-5.04-13.13-12.27-6.11-6.7-13.58-16.75-14.47-26.62-1.46-15.97,11.01-22.31,13.52-23.42.53-.23,1.14-.2,1.65.1.52.3.85.84.89,1.44.04.61-.22,1.2-.7,1.57-4.99,3.91-7.53,8.74-7.56,14.34-.11,17.71,24.69,37.9,24.95,38.1.19.16.22.44.07.64-.16.2-.44.23-.64.07-.06-.05-6.41-5.19-12.66-12.48-5.79-6.76-12.68-16.82-12.63-26.33.04-5.89,2.7-10.96,7.91-15.05.25-.2.38-.49.36-.8-.02-.3-.18-.56-.45-.72-.25-.15-.56-.17-.82-.05-3.39,1.5-14.34,7.53-12.98,22.5,1.68,18.44,27,38.05,27.25,38.24.2.15.24.44.09.64-.09.12-.23.18-.36.18"/>
          <path class="cls-2" d="m133.06,86.43l-5.42,12c-.89,1.97-3.73,1.89-4.5-.14l-3.8-10.03c-.53-1.39.31-2.93,1.77-3.24l9.23-1.97c1.95-.42,3.55,1.56,2.73,3.38"/>
          <path class="cls-2" d="m155.76,146.86c-.19,0-.39-.03-.58-.09-.57-.19-1.01-.65-1.17-1.22-.17-.59-.03-1.22.36-1.69,4.06-4.87,5.54-10.12,4.4-15.61-3.59-17.35-32.07-31.91-32.35-32.06-.22-.12-.32-.39-.2-.61.11-.22.39-.32.61-.2.07.04,7.35,3.74,14.99,9.57,7.08,5.4,15.92,13.8,17.85,23.12,1.19,5.77-.35,11.28-4.6,16.37-.2.24-.27.55-.18.85.08.29.29.51.59.61.28.09.58.05.81-.12,3-2.17,12.45-10.36,8-24.72-5.49-17.68-34.35-31.57-34.64-31.71-.23-.11-.32-.38-.22-.61.11-.22.38-.32.61-.22.07.03,7.44,3.56,15.4,9.25,7.37,5.27,16.78,13.55,19.71,23.01,4.76,15.32-6.11,24.12-8.33,25.72-.31.22-.68.34-1.06.34"/>
        </g>
      </g>
    </g>
  </g>
</svg>