<?xml version="1.0" encoding="UTF-8"?>
<svg id="Capa_2" data-name="Capa 2" xmlns="http://www.w3.org/2000/svg" xmlns:xlink="http://www.w3.org/1999/xlink" viewBox="0 0 996 524">
  <defs>
    <style>
      .cls-1, .cls-2, .cls-3 {
        fill: none;
      }

      .cls-2 {
        isolation: isolate;
      }

      .cls-4 {
        fill: #68e085;
      }

      .cls-5 {
        fill: #fff;
      }

      .cls-3 {
        clip-path: url(#clippath);
      }
    </style>
    <clipPath id="clippath">
      <rect class="cls-1" x="15.53" y="112" width="300" height="300"/>
    </clipPath>
  </defs>
  <g id="botones">
    <g>
      <rect class="cls-1" width="996" height="524"/>
      <g>
        <g id="Grupo_1661" data-name="Grupo 1661">
          <g class="cls-3">
            <g id="Grupo_1661-2" data-name="Grupo 1661-2">
              <path id="Trazado_4999" data-name="Trazado 4999" class="cls-5" d="m245.63,164.69c-6.54-7.12-35.47-33.7-35.47-33.7,0,0-4.92-5.25-12.46,1.39-3.64,2.92-7.03,6.12-10.16,9.58,0,0-4.01,3.6.55,9.88l-4.32,5.76c-5.45-3.01-11.84-3.83-17.88-2.29-8.87,1.6-16.83,6.45-22.31,13.62-4.4,5.25-63.42,82.17-63.96,82.87-.13.15-13.23,15,.46,28.7,12.37,12.37,50.05,38.34,50.39,38.57,2.81,2.11,6.22,3.28,9.73,3.34,4.13-.04,8.03-1.92,10.65-5.11,7.5-8.54,73.99-92.5,76.8-96.05.1-.13,10.43-12.91-2.14-29.19.89-1.62,2-3.1,3.3-4.4,2.25,1.74,4.04,1.64,6.72-.83,5.48-5.04,16.61-15.04,10.06-22.12m-26.69,12.12c2.59,2.85,4.6,5.27,6.27,7.18-4.21,4.56-5.67,8.03-4.33,10.36.07.12.14.23.23.34,10.64,13.29,2.95,22.92,2.6,23.35-2.83,3.57-69.34,87.54-76.67,95.89-3.49,3.97-9.51,4.41-13.54,1.01-.38-.26-37.88-26.14-49.78-38.05-10.05-10.05-1.23-20.6-.15-21.82l.69-.9c13.91-18.12,59.58-77.57,63.27-81.97,4.76-6.29,11.73-10.55,19.5-11.91,5.35-1.56,11.11-.57,15.63,2.68.53.49,1.24.73,1.96.66.72-.07,1.37-.44,1.8-1.01l5.25-6.99c.17.15.33.3.51.45,9.71,5.84,18.71,12.8,26.8,20.73"/>
              <path id="Trazado_5000" data-name="Trazado 5000" class="cls-5" d="m255.9,364.26l-9.85-31.2-.59.2s0-.08-.03-.11c-.06-.19-6.35-19.42-13.5-38.25-4.1-10.98-16.33-16.55-27.3-12.44-.25.09-.5.19-.75.3-11.97,4.27-17.12,17.25-13.12,33.08,2.86,10.61,6.31,21.05,10.34,31.27l-1.92.6c2.68,10.72,5.92,21.3,9.71,31.68,6.12,16.65,13.66,18.11,32.75,13.06,21.91-5.8,14.28-28.16,14.28-28.16m-50.62-18.49c-4.01-10.14-7.45-20.51-10.29-31.04-2.72-10.74-1.43-23.7,10.35-27.91,8.51-3.72,18.41.17,22.13,8.67.13.3.26.61.37.92,7.13,18.75,13.38,37.87,13.45,38.07l.02.05-36.04,11.24Z"/>
            </g>
          </g>
        </g>
        <g id="Productos_patrocinadores" data-name="Productos patrocinadores" class="cls-2">
          <g class="cls-2">
            <path class="cls-5" d="m405.8,186.89h19.57c3.93,0,7.39.73,10.38,2.18,2.99,1.46,5.31,3.51,6.94,6.16,1.63,2.65,2.45,5.75,2.45,9.29s-.82,6.65-2.45,9.31c-1.63,2.66-3.95,4.72-6.94,6.16-2.99,1.44-6.45,2.16-10.38,2.16h-11.45v24.06h-8.12v-59.33Zm19.57,28.26c2.42,0,4.46-.43,6.12-1.3,1.66-.87,2.9-2.09,3.73-3.69s1.24-3.47,1.24-5.64-.41-4.05-1.24-5.64-2.07-2.82-3.73-3.69c-1.66-.87-3.7-1.3-6.12-1.3h-11.45v21.26h11.45Z"/>
            <path class="cls-5" d="m452.64,204.49h7.17v9.23h.66c1.1-2.47,2.21-4.44,3.34-5.89,1.13-1.46,2.37-2.51,3.73-3.17s2.95-.99,4.76-.99c.52,0,1.06.04,1.61.1.55.07,1.03.19,1.44.35v8.16c-.55-.17-1.24-.29-2.06-.39-.82-.1-1.65-.14-2.47-.14-2.28,0-4.21.41-5.79,1.24-1.58.82-2.77,2.03-3.58,3.6-.81,1.58-1.22,3.48-1.22,5.71v23.94h-7.58v-41.73Z"/>
            <path class="cls-5" d="m488.13,244.32c-3.09-1.81-5.48-4.36-7.17-7.64-1.69-3.28-2.53-7.05-2.53-11.31s.84-8.07,2.53-11.35c1.69-3.28,4.08-5.83,7.17-7.64,3.09-1.81,6.65-2.72,10.69-2.72s7.6.91,10.69,2.72c3.09,1.81,5.48,4.36,7.17,7.64,1.69,3.28,2.53,7.07,2.53,11.35s-.84,8.03-2.53,11.31c-1.69,3.28-4.08,5.83-7.17,7.64-3.09,1.81-6.65,2.72-10.69,2.72s-7.6-.91-10.69-2.72Zm17.51-5.73c1.83-1.24,3.19-2.98,4.08-5.23.89-2.25,1.34-4.92,1.34-7.99s-.45-5.74-1.34-7.99c-.89-2.25-2.25-4-4.08-5.23-1.83-1.24-4.1-1.85-6.82-1.85s-4.95.62-6.78,1.85c-1.83,1.24-3.19,2.98-4.1,5.23-.91,2.25-1.36,4.92-1.36,7.99s.45,5.74,1.36,7.99c.91,2.25,2.27,4,4.1,5.23,1.83,1.24,4.09,1.85,6.78,1.85s4.99-.62,6.82-1.85Z"/>
            <path class="cls-5" d="m535.16,244.3c-2.75-1.83-4.9-4.39-6.45-7.68-1.55-3.3-2.33-7.04-2.33-11.25s.78-7.99,2.33-11.29c1.55-3.3,3.7-5.86,6.45-7.68,2.75-1.83,5.86-2.74,9.35-2.74,2.91,0,5.42.71,7.54,2.12,2.11,1.42,3.97,3.62,5.56,6.61h.66v-27.97h7.58v61.8h-7.17v-8.4h-.66c-1.7,3.19-3.63,5.52-5.79,7-2.16,1.48-4.74,2.22-7.77,2.22-3.46,0-6.56-.91-9.31-2.74Zm18.15-5.71c1.8-1.24,3.14-2.99,4.04-5.25.89-2.27,1.34-4.92,1.34-7.97s-.45-5.74-1.34-7.99c-.89-2.25-2.24-4-4.04-5.23-1.8-1.24-4.03-1.85-6.69-1.85s-4.9.62-6.72,1.85-3.16,2.98-4.04,5.23c-.88,2.25-1.32,4.92-1.32,7.99s.45,5.71,1.34,7.97c.89,2.27,2.24,4.02,4.04,5.25,1.8,1.24,4.03,1.85,6.69,1.85s4.9-.62,6.69-1.85Z"/>
            <path class="cls-5" d="m611.13,246.22h-7.17v-8.4h-.66c-1.62,3.05-3.63,5.35-6.04,6.9-2.4,1.55-5.14,2.33-8.22,2.33-2.8,0-5.21-.62-7.23-1.88-2.02-1.25-3.56-3.05-4.64-5.42-1.07-2.36-1.61-5.18-1.61-8.45v-26.82h7.58v25.91c0,6.7,3.05,10.05,9.15,10.05,2.33,0,4.35-.46,6.04-1.38,1.69-.92,2.98-2.25,3.87-3.98.89-1.73,1.34-3.79,1.34-6.18v-24.43h7.58v41.73Z"/>
            <path class="cls-5" d="m629.48,244.3c-3.06-1.83-5.44-4.38-7.13-7.66-1.69-3.28-2.53-7.07-2.53-11.35s.84-8.02,2.53-11.29c1.69-3.27,4.06-5.81,7.13-7.62,3.06-1.81,6.6-2.72,10.61-2.72,3.05,0,5.84.54,8.36,1.63,2.53,1.08,4.68,2.66,6.47,4.74,1.79,2.07,3.09,4.54,3.91,7.4l-7.79,1.36c-.8-2.8-2.12-4.92-3.98-6.34-1.85-1.43-4.21-2.14-7.07-2.14-2.66,0-4.9.61-6.69,1.83-1.8,1.22-3.15,2.96-4.04,5.21-.89,2.25-1.34,4.9-1.34,7.95s.45,5.74,1.34,7.99c.89,2.25,2.24,4,4.04,5.23,1.8,1.24,4.03,1.85,6.69,1.85,5.74,0,9.42-2.95,11.04-8.86l7.79,1.36c-.82,2.97-2.12,5.51-3.89,7.64-1.77,2.13-3.92,3.75-6.45,4.86-2.53,1.11-5.33,1.67-8.4,1.67-4.01,0-7.55-.91-10.61-2.74Z"/>
            <path class="cls-5" d="m675.38,245.03c-1.77-.8-3.03-2.03-3.77-3.69-.74-1.66-1.11-3.87-1.11-6.61v-23.65h-7.33v-6.59h7.33v-10.09h7.58v10.09h11.7v6.59h-11.7v23.36c0,1.29.13,2.3.39,3.03.26.73.76,1.26,1.5,1.61.74.34,1.81.52,3.21.52h6.59v6.63h-7.09c-3.1,0-5.54-.4-7.31-1.19Z"/>
            <path class="cls-5" d="m703.8,244.32c-3.09-1.81-5.48-4.36-7.17-7.64-1.69-3.28-2.53-7.05-2.53-11.31s.84-8.07,2.53-11.35c1.69-3.28,4.08-5.83,7.17-7.64,3.09-1.81,6.65-2.72,10.69-2.72s7.6.91,10.69,2.72c3.09,1.81,5.48,4.36,7.17,7.64,1.69,3.28,2.53,7.07,2.53,11.35s-.84,8.03-2.53,11.31c-1.69,3.28-4.08,5.83-7.17,7.64-3.09,1.81-6.65,2.72-10.69,2.72s-7.6-.91-10.69-2.72Zm17.51-5.73c1.83-1.24,3.19-2.98,4.08-5.23.89-2.25,1.34-4.92,1.34-7.99s-.45-5.74-1.34-7.99c-.89-2.25-2.25-4-4.08-5.23-1.83-1.24-4.1-1.85-6.82-1.85s-4.95.62-6.78,1.85c-1.83,1.24-3.19,2.98-4.1,5.23-.91,2.25-1.36,4.92-1.36,7.99s.45,5.74,1.36,7.99c.91,2.25,2.27,4,4.1,5.23,1.83,1.24,4.09,1.85,6.78,1.85s4.99-.62,6.82-1.85Z"/>
            <path class="cls-5" d="m747.27,244.06c-2.98-1.99-5.18-5.01-6.61-9.04l7.46-1.36c.91,2.31,2.27,4.02,4.08,5.15,1.81,1.13,4.11,1.69,6.88,1.69,1.79,0,3.34-.23,4.68-.68,1.33-.45,2.35-1.11,3.07-1.96.71-.85,1.07-1.85,1.07-3.01,0-1.29-.45-2.34-1.36-3.15-.91-.81-2.03-1.44-3.38-1.9-1.35-.45-3.23-.97-5.64-1.54-3.21-.77-5.83-1.54-7.85-2.33-2.02-.78-3.75-1.99-5.19-3.63-1.44-1.63-2.16-3.81-2.16-6.53,0-2.42.65-4.54,1.96-6.37,1.3-1.83,3.14-3.24,5.52-4.24,2.38-1,5.13-1.5,8.26-1.5,4.34,0,7.98.98,10.92,2.93,2.94,1.95,5.08,4.77,6.43,8.45l-7.04,1.36c-.82-2.06-2.11-3.6-3.85-4.63-1.74-1.03-3.96-1.54-6.65-1.54-2.5,0-4.45.44-5.85,1.32-1.4.88-2.1,2.13-2.1,3.75,0,1.26.45,2.29,1.36,3.09.91.8,2.04,1.42,3.4,1.88,1.36.45,3.23.94,5.62,1.46,3.3.74,5.97,1.5,8.01,2.27,2.05.77,3.8,1.98,5.27,3.62,1.47,1.65,2.2,3.87,2.2,6.67,0,2.58-.7,4.84-2.1,6.78-1.4,1.94-3.39,3.42-5.95,4.45-2.57,1.03-5.57,1.54-9,1.54-4.64,0-8.45-1-11.43-2.99Z"/>
            <path class="cls-4" d="m403.98,281.49h11.45v8.86h.66c1.62-3.24,3.49-5.67,5.62-7.27,2.13-1.61,4.65-2.41,7.56-2.41,3.3,0,6.23.94,8.8,2.82,2.57,1.88,4.57,4.48,5.99,7.81,1.43,3.32,2.14,7.07,2.14,11.25s-.71,8.02-2.14,11.37c-1.43,3.35-3.42,5.97-5.97,7.87-2.55,1.9-5.48,2.84-8.78,2.84-2.94,0-5.48-.77-7.62-2.31-2.14-1.54-3.87-3.8-5.19-6.8h-.66v24.72h-11.87v-58.75Zm27.58,30.53c1.47-2.28,2.2-5.41,2.2-9.39s-.74-7.07-2.2-9.35c-1.47-2.28-3.8-3.42-6.98-3.42s-5.47,1.14-6.94,3.42c-1.47,2.28-2.2,5.4-2.2,9.35s.73,7.11,2.2,9.39c1.47,2.28,3.78,3.42,6.94,3.42s5.51-1.14,6.98-3.42Z"/>
            <path class="cls-4" d="m457.36,323.08c-1.94-1-3.45-2.41-4.53-4.22-1.09-1.81-1.63-3.9-1.63-6.26,0-3.93,1.63-7.05,4.9-9.37,3.27-2.32,8.2-3.91,14.79-4.76l7.33-.95c-.08-2.66-.71-4.61-1.9-5.83-1.18-1.22-2.98-1.83-5.4-1.83-2.06,0-3.72.43-4.99,1.3-1.26.87-2.22,2.25-2.88,4.14l-11.04-.91c.71-2.94,1.94-5.43,3.69-7.48,1.74-2.05,3.96-3.6,6.65-4.66,2.69-1.06,5.79-1.59,9.31-1.59,3.9,0,7.22.65,9.97,1.94,2.75,1.29,4.84,3.19,6.28,5.71,1.44,2.51,2.16,5.57,2.16,9.17v26.29h-11.45v-8.82h-.66c-1.79,3.3-3.82,5.73-6.1,7.29-2.28,1.57-4.92,2.35-7.91,2.35-2.47,0-4.68-.5-6.61-1.5Zm7.7-8.78c.97.73,2.42,1.09,4.35,1.09,1.76,0,3.3-.3,4.64-.91,1.33-.6,2.36-1.46,3.09-2.58.73-1.11,1.09-2.41,1.09-3.89v-3.13l-5.6.78c-2.25.3-4.02.68-5.31,1.13-1.29.45-2.23,1.02-2.82,1.69-.59.67-.89,1.53-.89,2.57,0,1.43.49,2.51,1.46,3.23Z"/>
            <path class="cls-4" d="m506.46,322.34c-2.1-.95-3.65-2.39-4.66-4.33-1-1.94-1.5-4.43-1.5-7.48v-20.02h-6.92v-9.02h6.92v-11h11.87v11h10.55v9.02h-10.55v18.66c0,1.37.14,2.43.43,3.17s.78,1.27,1.46,1.59c.69.32,1.67.47,2.97.47h5.69v9.35h-8.12c-3.32,0-6.04-.47-8.14-1.42Z"/>
            <path class="cls-4" d="m528.9,281.49h11.45v10.34h.66c1.1-2.86,2.2-5.09,3.32-6.72,1.11-1.62,2.3-2.77,3.56-3.44,1.26-.67,2.72-1.01,4.37-1.01.58,0,1.13.03,1.67.1.54.07.98.17,1.34.31v12.19c-1.57-.41-3.32-.62-5.27-.62-3.1,0-5.42.63-6.94,1.88-1.52,1.25-2.29,3.12-2.29,5.62v23.61h-11.87v-42.27Z"/>
            <path class="cls-4" d="m567.85,321.84c-3.31-1.83-5.89-4.41-7.75-7.75-1.85-3.34-2.78-7.16-2.78-11.47s.93-8.13,2.78-11.45c1.85-3.32,4.44-5.91,7.75-7.75,3.31-1.84,7.09-2.76,11.35-2.76s8.04.92,11.35,2.76c3.31,1.84,5.88,4.42,7.72,7.75,1.84,3.32,2.76,7.14,2.76,11.45s-.92,8.17-2.76,11.49c-1.84,3.32-4.41,5.9-7.7,7.72-3.3,1.83-7.09,2.74-11.37,2.74s-8.04-.91-11.35-2.74Zm18.46-9.87c1.52-2.28,2.29-5.4,2.29-9.35s-.76-7.07-2.29-9.35c-1.52-2.28-3.89-3.42-7.11-3.42s-5.59,1.14-7.13,3.42c-1.54,2.28-2.31,5.4-2.31,9.35s.77,7.11,2.31,9.37c1.54,2.27,3.91,3.4,7.13,3.4s5.58-1.14,7.11-3.42Z"/>
            <path class="cls-4" d="m617.02,321.78c-3.27-1.87-5.8-4.46-7.6-7.79-1.8-3.32-2.7-7.11-2.7-11.37s.9-8.05,2.7-11.37c1.8-3.32,4.33-5.92,7.6-7.79,3.27-1.87,7.04-2.8,11.33-2.8,3.16,0,6.08.56,8.75,1.67,2.68,1.11,4.97,2.76,6.88,4.94,1.91,2.18,3.3,4.83,4.18,7.93l-11.66,1.77c-.6-2.28-1.63-4.04-3.09-5.27-1.46-1.24-3.28-1.85-5.48-1.85-3.08,0-5.34,1.13-6.78,3.4-1.44,2.27-2.16,5.39-2.16,9.37s.72,7.01,2.16,9.17c1.44,2.16,3.7,3.23,6.78,3.23,2.2,0,4.01-.62,5.44-1.85,1.43-1.24,2.46-3.02,3.09-5.36l11.74,1.81c-.88,3.24-2.28,5.98-4.2,8.22-1.92,2.24-4.22,3.92-6.88,5.05-2.66,1.13-5.59,1.69-8.78,1.69-4.28,0-8.06-.93-11.33-2.8Z"/>
            <path class="cls-4" d="m656.2,275.97c-1.13-.63-2.01-1.51-2.66-2.64-.65-1.13-.97-2.42-.97-3.87s.32-2.75.97-3.87c.65-1.13,1.53-2,2.66-2.64,1.13-.63,2.4-.95,3.83-.95s2.71.32,3.83.95c1.13.63,2,1.51,2.64,2.64.63,1.13.95,2.42.95,3.87s-.32,2.75-.95,3.87c-.63,1.13-1.51,2-2.64,2.64-1.13.63-2.4.95-3.83.95s-2.71-.32-3.83-.95Zm-2.1,5.52h11.87v42.27h-11.87v-42.27Z"/>
            <path class="cls-4" d="m674.12,281.49h11.45v8.86h.66c3.46-6.45,8.16-9.68,14.09-9.68,2.72,0,5.09.63,7.11,1.9,2.02,1.26,3.57,3.08,4.66,5.44,1.08,2.36,1.63,5.16,1.63,8.41v27.36h-11.87v-25.83c0-2.58-.65-4.57-1.94-5.97-1.29-1.4-3.15-2.1-5.56-2.1-1.76,0-3.26.36-4.51,1.09-1.25.73-2.2,1.79-2.86,3.19-.66,1.4-.99,3.1-.99,5.11v24.51h-11.87v-42.27Z"/>
            <path class="cls-4" d="m725.68,323.08c-1.94-1-3.45-2.41-4.53-4.22-1.09-1.81-1.63-3.9-1.63-6.26,0-3.93,1.63-7.05,4.9-9.37,3.27-2.32,8.2-3.91,14.79-4.76l7.33-.95c-.08-2.66-.71-4.61-1.9-5.83-1.18-1.22-2.98-1.83-5.4-1.83-2.06,0-3.72.43-4.99,1.3-1.26.87-2.22,2.25-2.88,4.14l-11.04-.91c.71-2.94,1.94-5.43,3.69-7.48,1.74-2.05,3.96-3.6,6.65-4.66,2.69-1.06,5.79-1.59,9.31-1.59,3.9,0,7.22.65,9.97,1.94,2.75,1.29,4.84,3.19,6.28,5.71,1.44,2.51,2.16,5.57,2.16,9.17v26.29h-11.45v-8.82h-.66c-1.79,3.3-3.82,5.73-6.1,7.29-2.28,1.57-4.92,2.35-7.91,2.35-2.47,0-4.68-.5-6.61-1.5Zm7.7-8.78c.97.73,2.42,1.09,4.35,1.09,1.76,0,3.3-.3,4.64-.91,1.33-.6,2.36-1.46,3.09-2.58.73-1.11,1.09-2.41,1.09-3.89v-3.13l-5.6.78c-2.25.3-4.02.68-5.31,1.13-1.29.45-2.23,1.02-2.82,1.69-.59.67-.89,1.53-.89,2.57,0,1.43.49,2.51,1.46,3.23Z"/>
            <path class="cls-4" d="m773.1,321.76c-2.57-1.88-4.57-4.48-6.02-7.81-1.44-3.32-2.16-7.07-2.16-11.25s.71-7.98,2.14-11.33c1.43-3.35,3.43-5.97,5.99-7.87,2.57-1.9,5.49-2.84,8.75-2.84,2.94,0,5.49.78,7.64,2.33,2.16,1.55,3.88,3.83,5.17,6.82h.66v-27.85h11.87v61.8h-11.45v-8.82h-.66c-1.59,3.24-3.46,5.66-5.6,7.25s-4.67,2.39-7.58,2.39c-3.27,0-6.19-.94-8.75-2.82Zm20.39-9.79c1.47-2.28,2.2-5.4,2.2-9.35s-.74-7.07-2.2-9.35c-1.47-2.28-3.78-3.42-6.94-3.42s-5.48,1.14-6.96,3.42c-1.48,2.28-2.22,5.4-2.22,9.35s.74,7.07,2.22,9.35c1.48,2.28,3.8,3.42,6.96,3.42s5.47-1.14,6.94-3.42Z"/>
            <path class="cls-4" d="m824.6,321.84c-3.31-1.83-5.89-4.41-7.75-7.75-1.85-3.34-2.78-7.16-2.78-11.47s.93-8.13,2.78-11.45c1.85-3.32,4.44-5.91,7.75-7.75,3.31-1.84,7.09-2.76,11.35-2.76s8.04.92,11.35,2.76c3.31,1.84,5.88,4.42,7.72,7.75,1.84,3.32,2.76,7.14,2.76,11.45s-.92,8.17-2.76,11.49c-1.84,3.32-4.41,5.9-7.7,7.72-3.3,1.83-7.09,2.74-11.37,2.74s-8.04-.91-11.35-2.74Zm18.46-9.87c1.52-2.28,2.29-5.4,2.29-9.35s-.76-7.07-2.29-9.35c-1.52-2.28-3.89-3.42-7.11-3.42s-5.59,1.14-7.13,3.42c-1.54,2.28-2.31,5.4-2.31,9.35s.77,7.11,2.31,9.37c1.54,2.27,3.91,3.4,7.13,3.4s5.58-1.14,7.11-3.42Z"/>
            <path class="cls-4" d="m864.7,281.49h11.45v10.34h.66c1.1-2.86,2.2-5.09,3.32-6.72,1.11-1.62,2.3-2.77,3.56-3.44,1.26-.67,2.72-1.01,4.37-1.01.58,0,1.13.03,1.67.1.54.07.98.17,1.34.31v12.19c-1.57-.41-3.32-.62-5.27-.62-3.1,0-5.42.63-6.94,1.88-1.52,1.25-2.29,3.12-2.29,5.62v23.61h-11.87v-42.27Z"/>
            <path class="cls-4" d="m903.6,321.78c-3.32-1.87-5.9-4.46-7.72-7.79-1.83-3.32-2.74-7.11-2.74-11.37s.9-8.01,2.7-11.35c1.8-3.34,4.33-5.94,7.58-7.81s6.98-2.8,11.19-2.8,7.84.93,11,2.78c3.16,1.85,5.6,4.44,7.31,7.75,1.72,3.31,2.57,7.08,2.57,11.31v3.46h-29.91c.33,3.08,1.25,5.49,2.76,7.23,1.51,1.74,3.68,2.62,6.51,2.62,1.9,0,3.52-.4,4.86-1.2,1.35-.8,2.38-1.94,3.09-3.42l11.87.99c-.96,2.67-2.4,4.92-4.31,6.78-1.91,1.85-4.16,3.25-6.76,4.2-2.6.95-5.42,1.42-8.47,1.42-4.37,0-8.21-.93-11.54-2.8Zm19.65-23.77c-.27-2.66-1.1-4.75-2.47-6.26-1.37-1.51-3.39-2.27-6.06-2.27s-4.74.76-6.22,2.27c-1.48,1.51-2.43,3.6-2.84,6.26h17.59Z"/>
            <path class="cls-4" d="m947.18,321.53c-3.21-2.03-5.58-5.12-7.09-9.27l10.84-2.1c.66,1.9,1.72,3.31,3.17,4.24,1.46.93,3.34,1.4,5.64,1.4,1.32,0,2.48-.14,3.48-.43,1-.29,1.78-.71,2.35-1.28.56-.56.84-1.23.84-2,0-.88-.39-1.62-1.15-2.22-.77-.6-1.74-1.09-2.93-1.46-1.18-.37-2.82-.8-4.9-1.3-3.38-.82-6.16-1.65-8.34-2.49-2.18-.84-4.07-2.13-5.64-3.87-1.58-1.74-2.37-4.06-2.37-6.94,0-2.64.73-4.95,2.18-6.94,1.46-1.99,3.54-3.52,6.24-4.59,2.7-1.07,5.9-1.61,9.58-1.61,4.75,0,8.69.97,11.82,2.9s5.44,4.8,6.92,8.59l-10.55,2.35c-.69-1.65-1.77-2.9-3.25-3.75s-3.34-1.28-5.56-1.28c-1.9,0-3.36.28-4.39.84-1.03.56-1.54,1.37-1.54,2.41,0,.88.38,1.61,1.15,2.18.77.58,1.74,1.04,2.9,1.38,1.17.34,2.81.75,4.92,1.22,3.46.8,6.31,1.61,8.55,2.43,2.24.82,4.17,2.13,5.81,3.91,1.63,1.79,2.45,4.18,2.45,7.17,0,2.83-.79,5.27-2.37,7.31-1.58,2.05-3.78,3.6-6.61,4.66-2.83,1.06-6.11,1.59-9.85,1.59-5,0-9.1-1.02-12.32-3.05Z"/>
          </g>
        </g>
      </g>
    </g>
  </g>
</svg>