<?xml version="1.0" encoding="UTF-8"?>
<svg id="Capa_2" data-name="Capa 2" xmlns="http://www.w3.org/2000/svg" xmlns:xlink="http://www.w3.org/1999/xlink" viewBox="0 0 598 598">
  <defs>
    <style>
      .cls-1, .cls-2, .cls-3, .cls-4 {
        fill: none;
      }

      .cls-2 {
        clip-path: url(#clippath-1);
      }

      .cls-3 {
        isolation: isolate;
      }

      .cls-5 {
        fill: #68e085;
      }

      .cls-6 {
        fill: #fff;
      }

      .cls-7 {
        fill: #f1f1f1;
      }

      .cls-4 {
        clip-path: url(#clippath);
      }
    </style>
    <clipPath id="clippath">
      <rect class="cls-1" width="598" height="598"/>
    </clipPath>
    <clipPath id="clippath-1">
      <rect class="cls-1" x="157.73" y="111.67" width="299.76" height="299.76"/>
    </clipPath>
  </defs>
  <g id="botones">
    <g id="Grupo_105" data-name="Grupo 105">
      <g class="cls-4">
        <g id="Grupo_104" data-name="Grupo 104">
          <g id="Casos_clínicos_interactivos" data-name="Casos clínicos interactivos" class="cls-3">
            <g class="cls-3">
              <path class="cls-6" d="m94.61,483.3c-3.49-2.2-6.19-5.29-8.11-9.27-1.92-3.98-2.88-8.54-2.88-13.7s.96-9.73,2.88-13.7c1.92-3.98,4.62-7.06,8.11-9.27,3.49-2.2,7.53-3.3,12.12-3.3,3.53,0,6.75.66,9.67,1.97,2.92,1.31,5.41,3.22,7.46,5.71,2.05,2.5,3.56,5.47,4.53,8.93l-7.24,1.28c-1.06-3.88-2.8-6.8-5.2-8.77-2.4-1.96-5.47-2.95-9.21-2.95-3.36,0-6.21.82-8.56,2.47s-4.11,3.97-5.29,6.98c-1.18,3.01-1.77,6.56-1.77,10.65s.59,7.64,1.77,10.65c1.18,3.01,2.95,5.33,5.29,6.98,2.34,1.65,5.19,2.47,8.56,2.47,7.48,0,12.29-4.07,14.45-12.21l7.24,1.28c-.97,3.57-2.48,6.64-4.53,9.21-2.05,2.57-4.54,4.53-7.47,5.88-2.93,1.35-6.17,2.02-9.69,2.02-4.59,0-8.63-1.1-12.12-3.3Z"/>
              <path class="cls-6" d="m138.77,485.34c-1.62-.84-2.89-2.02-3.82-3.53-.92-1.51-1.38-3.25-1.38-5.22,0-3.15,1.24-5.69,3.71-7.63,2.47-1.94,6.17-3.25,11.09-3.94l8.66-1.24c-.05-2.08-.36-3.78-.94-5.08-.58-1.3-1.43-2.26-2.54-2.88-1.11-.62-2.53-.92-4.26-.92-2.22,0-4.06.52-5.5,1.56-1.44,1.04-2.51,2.67-3.2,4.9l-6.43-.53c.62-2.46,1.61-4.55,2.98-6.28,1.37-1.73,3.09-3.05,5.17-3.96,2.07-.91,4.46-1.37,7.15-1.37,2.96,0,5.49.56,7.6,1.67,2.11,1.11,3.72,2.75,4.83,4.9,1.11,2.15,1.67,4.77,1.67,7.84v22.26h-6.18v-7.24h-.57c-1.44,2.56-3.26,4.52-5.45,5.89-2.19,1.37-4.57,2.06-7.15,2.06-2.01,0-3.83-.42-5.45-1.26Zm3.41-5.72c1.1.86,2.64,1.3,4.63,1.3,1.85,0,3.55-.35,5.11-1.05,1.56-.7,2.8-1.66,3.73-2.88.92-1.22,1.38-2.57,1.38-4.06v-4.15l-7.56,1.14c-2.15.31-3.88.7-5.17,1.19-1.29.49-2.24,1.11-2.86,1.88-.62.77-.92,1.73-.92,2.89,0,1.63.55,2.88,1.65,3.75Z"/>
              <path class="cls-6" d="m175.13,484.03c-2.57-1.72-4.47-4.31-5.7-7.79l6.43-1.17c.78,1.99,1.95,3.47,3.51,4.44s3.54,1.46,5.93,1.46c1.54,0,2.88-.2,4.03-.59,1.15-.39,2.03-.95,2.64-1.69.61-.73.92-1.6.92-2.59,0-1.11-.39-2.02-1.17-2.72s-1.75-1.24-2.91-1.63c-1.16-.39-2.78-.83-4.86-1.33-2.77-.66-5.02-1.33-6.76-2.01-1.74-.67-3.23-1.72-4.47-3.12s-1.86-3.28-1.86-5.63c0-2.08.56-3.91,1.69-5.49,1.12-1.57,2.71-2.79,4.76-3.66,2.05-.86,4.42-1.3,7.12-1.3,3.74,0,6.87.84,9.41,2.52,2.53,1.68,4.38,4.11,5.54,7.28l-6.07,1.17c-.71-1.77-1.82-3.11-3.32-3.99-1.5-.89-3.41-1.33-5.73-1.33-2.15,0-3.83.38-5.04,1.14s-1.81,1.83-1.81,3.23c0,1.09.39,1.98,1.17,2.66.78.69,1.76,1.22,2.93,1.62,1.17.39,2.79.81,4.85,1.26,2.84.64,5.14,1.29,6.9,1.95,1.76.66,3.28,1.7,4.54,3.12,1.27,1.42,1.9,3.34,1.9,5.75,0,2.22-.6,4.17-1.81,5.84-1.21,1.67-2.92,2.95-5.13,3.83-2.21.89-4.8,1.33-7.76,1.33-4,0-7.28-.86-9.85-2.57Z"/>
              <path class="cls-6" d="m213.43,484.26c-2.66-1.56-4.72-3.76-6.18-6.58s-2.18-6.08-2.18-9.75.73-6.95,2.18-9.78,3.51-5.02,6.18-6.58c2.66-1.56,5.73-2.34,9.21-2.34s6.55.78,9.21,2.34c2.66,1.56,4.72,3.76,6.18,6.58s2.18,6.09,2.18,9.78-.73,6.92-2.18,9.75-3.51,5.02-6.18,6.58c-2.66,1.56-5.73,2.34-9.21,2.34s-6.55-.78-9.21-2.34Zm15.09-4.93c1.57-1.07,2.75-2.57,3.51-4.51.77-1.94,1.15-4.24,1.15-6.89s-.39-4.95-1.15-6.89c-.77-1.94-1.94-3.44-3.51-4.51-1.57-1.07-3.53-1.6-5.88-1.6s-4.27.53-5.84,1.6c-1.57,1.06-2.75,2.57-3.53,4.51s-1.17,4.24-1.17,6.89.39,4.95,1.17,6.89c.78,1.94,1.96,3.44,3.53,4.51,1.57,1.06,3.52,1.6,5.84,1.6s4.3-.53,5.88-1.6Z"/>
              <path class="cls-6" d="m250.88,484.03c-2.57-1.72-4.47-4.31-5.7-7.79l6.43-1.17c.78,1.99,1.95,3.47,3.51,4.44s3.54,1.46,5.93,1.46c1.54,0,2.88-.2,4.03-.59,1.15-.39,2.03-.95,2.64-1.69.61-.73.92-1.6.92-2.59,0-1.11-.39-2.02-1.17-2.72s-1.75-1.24-2.91-1.63c-1.16-.39-2.78-.83-4.86-1.33-2.77-.66-5.02-1.33-6.76-2.01-1.74-.67-3.23-1.72-4.47-3.12s-1.86-3.28-1.86-5.63c0-2.08.56-3.91,1.69-5.49,1.12-1.57,2.71-2.79,4.76-3.66,2.05-.86,4.42-1.3,7.12-1.3,3.74,0,6.87.84,9.41,2.52,2.53,1.68,4.38,4.11,5.54,7.28l-6.07,1.17c-.71-1.77-1.82-3.11-3.32-3.99-1.5-.89-3.41-1.33-5.73-1.33-2.15,0-3.83.38-5.04,1.14s-1.81,1.83-1.81,3.23c0,1.09.39,1.98,1.17,2.66.78.69,1.76,1.22,2.93,1.62,1.17.39,2.79.81,4.85,1.26,2.84.64,5.14,1.29,6.9,1.95,1.76.66,3.28,1.7,4.54,3.12,1.27,1.42,1.9,3.34,1.9,5.75,0,2.22-.6,4.17-1.81,5.84-1.21,1.67-2.92,2.95-5.13,3.83-2.21.89-4.8,1.33-7.76,1.33-4,0-7.28-.86-9.85-2.57Z"/>
              <path class="cls-6" d="m304.06,484.24c-2.64-1.57-4.69-3.78-6.14-6.6s-2.18-6.09-2.18-9.78.73-6.91,2.18-9.73,3.5-5.01,6.14-6.57c2.64-1.56,5.69-2.34,9.14-2.34,2.63,0,5.03.47,7.21,1.4,2.18.94,4.03,2.3,5.57,4.08,1.54,1.79,2.66,3.91,3.37,6.37l-6.71,1.17c-.69-2.41-1.83-4.24-3.43-5.47-1.6-1.23-3.63-1.85-6.09-1.85-2.3,0-4.22.53-5.77,1.58-1.55,1.05-2.71,2.55-3.48,4.49-.77,1.94-1.15,4.22-1.15,6.85s.38,4.95,1.15,6.89c.77,1.94,1.93,3.44,3.48,4.51,1.55,1.07,3.47,1.6,5.77,1.6,4.95,0,8.12-2.54,9.51-7.63l6.71,1.17c-.71,2.56-1.83,4.75-3.35,6.58-1.53,1.83-3.38,3.23-5.56,4.19-2.18.96-4.59,1.44-7.24,1.44-3.46,0-6.5-.79-9.14-2.36Z"/>
              <path class="cls-6" d="m340.16,485.01c-1.41-.59-2.43-1.53-3.07-2.8-.64-1.28-.96-2.98-.96-5.11v-44.45h6.53v43.84c0,.95.12,1.69.37,2.22.25.53.65.91,1.21,1.14.56.23,1.33.34,2.33.34h2.66v5.72h-3.41c-2.37,0-4.25-.3-5.66-.89Z"/>
              <path class="cls-6" d="m360.63,432h7.03l-8.13,11.75h-6.18l7.28-11.75Zm-5.61,17.93h6.53v35.96h-6.53v-35.96Z"/>
              <path class="cls-6" d="m370.35,449.93h6.18v7.24h.57c1.37-2.63,3.09-4.61,5.17-5.95,2.07-1.34,4.43-2.01,7.08-2.01,2.41,0,4.5.54,6.25,1.62,1.75,1.08,3.09,2.63,4.01,4.67.92,2.04,1.38,4.46,1.38,7.28v23.11h-6.53v-22.33c0-5.77-2.64-8.66-7.92-8.66-2.01,0-3.74.4-5.18,1.19-1.44.79-2.55,1.94-3.32,3.44-.77,1.5-1.15,3.28-1.15,5.34v21.02h-6.53v-35.96Z"/>
              <path class="cls-6" d="m410.24,443.15c-.7-.4-1.25-.95-1.65-1.65-.4-.7-.6-1.5-.6-2.4s.2-1.7.6-2.4c.4-.7.95-1.25,1.65-1.65.7-.4,1.5-.6,2.4-.6s1.7.2,2.41.6,1.27.96,1.67,1.67c.4.71.6,1.5.6,2.38s-.2,1.67-.6,2.38c-.4.71-.96,1.27-1.67,1.67-.71.4-1.51.6-2.41.6s-1.7-.2-2.4-.6Zm-.87,6.78h6.53v35.96h-6.53v-35.96Z"/>
              <path class="cls-6" d="m431.71,484.24c-2.64-1.57-4.69-3.78-6.14-6.6s-2.18-6.09-2.18-9.78.73-6.91,2.18-9.73,3.5-5.01,6.14-6.57c2.64-1.56,5.69-2.34,9.14-2.34,2.63,0,5.03.47,7.21,1.4,2.18.94,4.03,2.3,5.57,4.08,1.54,1.79,2.66,3.91,3.37,6.37l-6.71,1.17c-.69-2.41-1.83-4.24-3.43-5.47-1.6-1.23-3.63-1.85-6.09-1.85-2.3,0-4.22.53-5.77,1.58-1.55,1.05-2.71,2.55-3.48,4.49-.77,1.94-1.15,4.22-1.15,6.85s.38,4.95,1.15,6.89c.77,1.94,1.93,3.44,3.48,4.51,1.55,1.07,3.47,1.6,5.77,1.6,4.95,0,8.12-2.54,9.51-7.63l6.71,1.17c-.71,2.56-1.83,4.75-3.35,6.58-1.53,1.83-3.38,3.23-5.56,4.19-2.18.96-4.59,1.44-7.24,1.44-3.46,0-6.5-.79-9.14-2.36Z"/>
              <path class="cls-6" d="m470.83,484.26c-2.66-1.56-4.72-3.76-6.18-6.58s-2.18-6.08-2.18-9.75.73-6.95,2.18-9.78,3.51-5.02,6.18-6.58c2.66-1.56,5.73-2.34,9.21-2.34s6.55.78,9.21,2.34c2.66,1.56,4.72,3.76,6.18,6.58s2.18,6.09,2.18,9.78-.73,6.92-2.18,9.75-3.51,5.02-6.18,6.58c-2.66,1.56-5.73,2.34-9.21,2.34s-6.55-.78-9.21-2.34Zm15.09-4.93c1.57-1.07,2.75-2.57,3.51-4.51.77-1.94,1.15-4.24,1.15-6.89s-.39-4.95-1.15-6.89c-.77-1.94-1.94-3.44-3.51-4.51-1.57-1.07-3.53-1.6-5.88-1.6s-4.27.53-5.84,1.6c-1.57,1.06-2.75,2.57-3.53,4.51s-1.17,4.24-1.17,6.89.39,4.95,1.17,6.89c.78,1.94,1.96,3.44,3.53,4.51,1.57,1.06,3.52,1.6,5.84,1.6s4.3-.53,5.88-1.6Z"/>
              <path class="cls-6" d="m508.28,484.03c-2.57-1.72-4.47-4.31-5.7-7.79l6.43-1.17c.78,1.99,1.95,3.47,3.51,4.44s3.54,1.46,5.93,1.46c1.54,0,2.88-.2,4.03-.59,1.15-.39,2.03-.95,2.64-1.69.61-.73.92-1.6.92-2.59,0-1.11-.39-2.02-1.17-2.72s-1.75-1.24-2.91-1.63c-1.16-.39-2.78-.83-4.86-1.33-2.77-.66-5.02-1.33-6.76-2.01-1.74-.67-3.23-1.72-4.47-3.12s-1.86-3.28-1.86-5.63c0-2.08.56-3.91,1.69-5.49,1.12-1.57,2.71-2.79,4.76-3.66,2.05-.86,4.42-1.3,7.12-1.3,3.74,0,6.87.84,9.41,2.52,2.53,1.68,4.38,4.11,5.54,7.28l-6.07,1.17c-.71-1.77-1.82-3.11-3.32-3.99-1.5-.89-3.41-1.33-5.73-1.33-2.15,0-3.83.38-5.04,1.14s-1.81,1.83-1.81,3.23c0,1.09.39,1.98,1.17,2.66.78.69,1.76,1.22,2.93,1.62,1.17.39,2.79.81,4.85,1.26,2.84.64,5.14,1.29,6.9,1.95,1.76.66,3.28,1.7,4.54,3.12,1.27,1.42,1.9,3.34,1.9,5.75,0,2.22-.6,4.17-1.81,5.84-1.21,1.67-2.92,2.95-5.13,3.83-2.21.89-4.8,1.33-7.76,1.33-4,0-7.28-.86-9.85-2.57Z"/>
              <path class="cls-5" d="m116.97,512.71c-.97-.54-1.73-1.3-2.29-2.27-.56-.97-.83-2.08-.83-3.34s.28-2.37.83-3.34c.56-.97,1.32-1.73,2.29-2.27.97-.54,2.07-.82,3.3-.82s2.33.27,3.3.82c.97.54,1.73,1.3,2.27,2.27.54.97.82,2.08.82,3.34s-.27,2.37-.82,3.34c-.54.97-1.3,1.73-2.27,2.27-.97.54-2.07.82-3.3.82s-2.33-.27-3.3-.82Zm-1.81,4.76h10.22v36.42h-10.22v-36.42Z"/>
              <path class="cls-5" d="m132.42,517.47h9.87v7.63h.57c2.98-5.56,7.03-8.34,12.14-8.34,2.34,0,4.38.54,6.12,1.63,1.74,1.09,3.08,2.65,4.01,4.69.93,2.04,1.4,4.45,1.4,7.24v23.57h-10.22v-22.26c0-2.22-.56-3.94-1.67-5.15-1.11-1.21-2.71-1.81-4.79-1.81-1.51,0-2.81.31-3.89.94-1.08.63-1.9,1.54-2.47,2.75-.57,1.21-.85,2.67-.85,4.4v21.12h-10.22v-36.42Z"/>
              <path class="cls-5" d="m180.64,552.67c-1.81-.82-3.15-2.06-4.01-3.73-.86-1.67-1.3-3.82-1.3-6.44v-17.25h-5.96v-7.77h5.96v-9.48h10.22v9.48h9.09v7.77h-9.09v16.08c0,1.18.12,2.09.37,2.73.25.64.67,1.1,1.26,1.37.59.27,1.44.41,2.56.41h4.9v8.06h-6.99c-2.86,0-5.2-.41-7.01-1.22Z"/>
              <path class="cls-5" d="m206.5,552.19c-2.86-1.61-5.08-3.85-6.66-6.71-1.57-2.86-2.36-6.13-2.36-9.8s.77-6.9,2.33-9.78c1.55-2.88,3.73-5.12,6.53-6.73,2.8-1.61,6.02-2.41,9.64-2.41s6.76.8,9.48,2.4c2.72,1.6,4.82,3.82,6.3,6.67,1.48,2.85,2.22,6.1,2.22,9.74v2.98h-25.77c.28,2.65,1.08,4.73,2.38,6.23,1.3,1.5,3.17,2.25,5.61,2.25,1.63,0,3.03-.34,4.19-1.03,1.16-.69,2.05-1.67,2.66-2.95l10.22.85c-.83,2.3-2.06,4.24-3.71,5.84-1.65,1.6-3.59,2.8-5.82,3.62-2.24.82-4.67,1.22-7.3,1.22-3.76,0-7.08-.8-9.94-2.41Zm16.93-20.48c-.24-2.29-.95-4.09-2.13-5.4-1.18-1.3-2.92-1.95-5.22-1.95s-4.08.65-5.36,1.95c-1.28,1.3-2.09,3.1-2.45,5.4h15.16Z"/>
              <path class="cls-5" d="m239.98,517.47h9.87v8.91h.57c.95-2.46,1.9-4.39,2.86-5.79s1.98-2.38,3.07-2.96c1.09-.58,2.34-.87,3.76-.87.5,0,.98.03,1.44.09.46.06.85.15,1.15.27v10.51c-1.35-.36-2.86-.53-4.54-.53-2.67,0-4.67.54-5.98,1.62-1.31,1.08-1.97,2.69-1.97,4.85v20.34h-10.22v-36.42Z"/>
              <path class="cls-5" d="m269.89,553.31c-1.67-.86-2.97-2.08-3.91-3.64-.94-1.56-1.4-3.36-1.4-5.4,0-3.38,1.41-6.08,4.22-8.08,2.82-2,7.06-3.37,12.74-4.1l6.32-.82c-.07-2.3-.62-3.97-1.63-5.02-1.02-1.05-2.57-1.58-4.65-1.58-1.78,0-3.21.37-4.3,1.12-1.09.75-1.92,1.94-2.48,3.57l-9.51-.78c.62-2.53,1.67-4.68,3.18-6.44,1.5-1.76,3.41-3.1,5.73-4.01,2.32-.91,4.99-1.37,8.02-1.37,3.36,0,6.22.56,8.59,1.67,2.37,1.11,4.17,2.75,5.41,4.92,1.24,2.17,1.86,4.8,1.86,7.9v22.65h-9.87v-7.6h-.57c-1.54,2.84-3.29,4.93-5.25,6.28-1.96,1.35-4.24,2.02-6.82,2.02-2.13,0-4.03-.43-5.7-1.3Zm6.64-7.56c.84.63,2.09.94,3.75.94,1.51,0,2.85-.26,3.99-.78,1.15-.52,2.04-1.26,2.66-2.22.63-.96.94-2.08.94-3.35v-2.7l-4.83.67c-1.94.26-3.47.59-4.58.98-1.11.39-1.92.88-2.43,1.46-.51.58-.76,1.32-.76,2.22,0,1.23.42,2.16,1.26,2.79Z"/>
              <path class="cls-5" d="m312.58,552.19c-2.82-1.61-5-3.85-6.55-6.71-1.55-2.86-2.33-6.13-2.33-9.8s.77-6.93,2.33-9.8c1.55-2.86,3.73-5.1,6.55-6.71,2.82-1.61,6.07-2.41,9.76-2.41,2.72,0,5.24.48,7.54,1.44,2.31.96,4.28,2.38,5.93,4.26,1.64,1.88,2.85,4.16,3.6,6.83l-10.05,1.53c-.52-1.96-1.41-3.48-2.66-4.54-1.25-1.06-2.83-1.6-4.72-1.6-2.65,0-4.6.98-5.84,2.93-1.24,1.95-1.86,4.65-1.86,8.08s.62,6.04,1.86,7.9c1.24,1.86,3.19,2.79,5.84,2.79,1.89,0,3.46-.53,4.69-1.6,1.23-1.07,2.12-2.6,2.66-4.62l10.12,1.56c-.76,2.79-1.96,5.15-3.62,7.08-1.66,1.93-3.63,3.38-5.93,4.35-2.3.97-4.82,1.46-7.56,1.46-3.69,0-6.95-.8-9.76-2.41Z"/>
              <path class="cls-5" d="m353.39,552.67c-1.81-.82-3.15-2.06-4.01-3.73-.86-1.67-1.3-3.82-1.3-6.44v-17.25h-5.96v-7.77h5.96v-9.48h10.22v9.48h9.09v7.77h-9.09v16.08c0,1.18.12,2.09.37,2.73.25.64.67,1.1,1.26,1.37.59.27,1.44.41,2.56.41h4.9v8.06h-6.99c-2.86,0-5.2-.41-7.01-1.22Z"/>
              <path class="cls-5" d="m374.52,512.71c-.97-.54-1.73-1.3-2.29-2.27-.56-.97-.83-2.08-.83-3.34s.28-2.37.83-3.34c.56-.97,1.32-1.73,2.29-2.27.97-.54,2.07-.82,3.3-.82s2.33.27,3.3.82c.97.54,1.73,1.3,2.27,2.27.54.97.82,2.08.82,3.34s-.27,2.37-.82,3.34c-.54.97-1.3,1.73-2.27,2.27-.97.54-2.07.82-3.3.82s-2.33-.27-3.3-.82Zm-1.81,4.76h10.22v36.42h-10.22v-36.42Z"/>
              <path class="cls-5" d="m387.2,517.47h10.4l8.77,32.06h.6l8.77-32.06h10.01l-11.15,36.42h-16.26l-11.15-36.42Z"/>
              <path class="cls-5" d="m436.24,552.24c-2.85-1.57-5.08-3.8-6.67-6.67-1.6-2.88-2.4-6.17-2.4-9.89s.8-7,2.4-9.87c1.6-2.86,3.82-5.09,6.67-6.67,2.85-1.58,6.11-2.38,9.78-2.38s6.93.79,9.78,2.38c2.85,1.59,5.07,3.81,6.66,6.67,1.59,2.86,2.38,6.15,2.38,9.87s-.79,7.04-2.38,9.91c-1.59,2.86-3.8,5.08-6.64,6.66-2.84,1.57-6.11,2.36-9.8,2.36s-6.93-.79-9.78-2.36Zm15.9-8.5c1.31-1.96,1.97-4.65,1.97-8.06s-.66-6.09-1.97-8.06c-1.31-1.96-3.35-2.95-6.12-2.95s-4.82.98-6.14,2.95c-1.33,1.96-1.99,4.65-1.99,8.06s.66,6.12,1.99,8.08c1.33,1.95,3.37,2.93,6.14,2.93s4.81-.98,6.12-2.95Z"/>
              <path class="cls-5" d="m474.88,551.98c-2.77-1.75-4.8-4.41-6.11-7.99l9.34-1.81c.57,1.63,1.48,2.85,2.73,3.66,1.25.8,2.88,1.21,4.86,1.21,1.14,0,2.14-.12,3-.37.86-.25,1.54-.62,2.02-1.1.48-.48.73-1.06.73-1.72,0-.76-.33-1.4-.99-1.92-.66-.52-1.5-.94-2.52-1.26-1.02-.32-2.43-.69-4.22-1.12-2.91-.71-5.31-1.43-7.19-2.15-1.88-.72-3.5-1.83-4.86-3.34-1.36-1.5-2.04-3.5-2.04-5.98,0-2.27.63-4.27,1.88-5.98,1.25-1.72,3.05-3.04,5.38-3.96,2.33-.92,5.08-1.38,8.25-1.38,4.09,0,7.49.83,10.19,2.5,2.7,1.67,4.69,4.14,5.96,7.4l-9.09,2.02c-.59-1.42-1.53-2.5-2.8-3.23-1.28-.73-2.88-1.1-4.79-1.1-1.63,0-2.89.24-3.78.73-.89.49-1.33,1.18-1.33,2.08,0,.76.33,1.38.99,1.88.66.5,1.5.89,2.5,1.19,1.01.3,2.42.65,4.24,1.05,2.98.69,5.44,1.38,7.37,2.09,1.93.71,3.6,1.83,5.01,3.37,1.41,1.54,2.11,3.6,2.11,6.18,0,2.44-.68,4.54-2.04,6.3-1.36,1.76-3.26,3.1-5.7,4.01-2.44.91-5.27,1.37-8.48,1.37-4.31,0-7.85-.88-10.61-2.63Z"/>
            </g>
          </g>
          <g id="Grupo_1580" data-name="Grupo 1580">
            <g class="cls-2">
              <g id="Grupo_1580-2" data-name="Grupo 1580-2">
                <path id="Trazado_4738" data-name="Trazado 4738" class="cls-7" d="m242.15,180.64l18.58,13.99,1.87-2.47-18.99-14.29c.38-1.11.58-2.28.58-3.46.26-5.05-3.59-9.36-8.64-9.67-5.04.31-8.9,4.62-8.64,9.67-.26,5.05,3.59,9.36,8.64,9.67,2.62-.04,5.06-1.31,6.59-3.44m-12.14-6.23c-.26-3.34,2.21-6.27,5.55-6.58,3.34.31,5.81,3.24,5.55,6.58.25,3.34-2.22,6.26-5.55,6.58-3.34-.31-5.81-3.24-5.55-6.58"/>
                <path id="Trazado_4739" data-name="Trazado 4739" class="cls-7" d="m396.04,317.6l-.08-.27c-2.57-8.62-5.63-17.08-9.17-25.35-3.86-8.44-8.37-16.57-13.49-24.32l-16.03-25.54c-5.23-6.41-11.04-12.32-17.35-17.66l-5.5-75.43c-.22-3.05-2.58-5.5-5.62-5.83l-116.7-12.74c-2.51-.28-4.76,1.53-5.04,4.04-.03.28-.04.56-.02.83l12.77,175.09c.2,2.8,2.5,4.98,5.3,5.04l71.31,1.61c2.43,2.24,5.08,4.22,7.91,5.93,3.81,6.34,7.22,12.91,10.23,19.67,2.65,5.65,5.4,11.49,8.62,16.99,14.07,24.24,44.16,33.03,60.94,33.03,19.88,0,24.05-2.96,24.05-5.42.32-13.57-3.75-41.85-12.14-69.69m-55.83-88.91c5.29,4.56,10.16,9.59,14.55,15.02l16.03,25.54c5.03,7.62,9.46,15.62,13.26,23.92,1.04,2.38,2.06,4.89,3.07,7.49-8.87-13.18-21.78-23.13-36.79-28.34-2.08-.89-4.27-1.47-6.52-1.72h-.81c-.46,0-.95.03-1.45.07-.52-1.5-1.1-3.3-1.67-5.05-.15-.46-.3-.92-.45-1.38-.88-2.7-1.78-5.49-2.5-7.49-1.15-3.65-2.69-7.18-4.59-10.5-4.12-6.04-9.35-11.24-15.42-15.32-3.55-2.6-6.92-5.44-10.09-8.5-1.21-1.21-5.1-5.42-4.72-8.67.21-1.32,1.05-2.45,2.25-3.04,2.02-1.24,6.52-.43,12.7,2.25,4.64,2.06,9.1,4.53,13.31,7.37,1.37.95,3.78,2.95,6.58,5.41,1.05.92,2.15,1.9,3.27,2.93m-17.05,47.62c-4.11,1.77-8.1,3.81-11.93,6.12-1.71-4.01-2.79-8.26-3.18-12.59-.52-4.51.88-9.03,3.85-12.47l.06-.06c.7-.71,1.46-1.36,2.28-1.94,2.05-1.51,4.52-2.34,7.06-2.38.56,0,1.13.05,1.69.13.69.1,1.37.26,2.04.48l.28.09c-1.34,1.52-2.4,3.26-3.12,5.16-.22.55-.4,1.1-.56,1.67-1.23,5.29-.69,10.84,1.54,15.79m12.74,29.29c-.11,1.26-.57,2.47-1.33,3.49-1.14,1.45-3,2.13-4.8,1.76-2.6-2.06-4.64-4.76-5.9-7.83-.49-1.25-.08-2.66,1-3.46,1.38-.89,3.16-.89,4.54,0,2.45,1.68,4.64,3.71,6.49,6.03m-6.2-9.18c.47-.12.95-.25,1.42-.37l.19-.05.54-.15c.47.83.96,1.61,1.39,2.27.32.5.64.99.94,1.48-1.02-.86-2.05-1.64-3-2.36-.45-.34-.95-.61-1.48-.81m-.92,17.29l.09.02c.07.35.08.7.04,1.05-.11.78-.44,1.51-.93,2.12-.26.32-.56.62-.88.88-.62.52-1.33.93-2.09,1.2-.81-.37-1.63-.83-2.43-1.3-1.51-.84-2.88-1.9-4.07-3.14-.52-.54-.9-1.2-1.08-1.93-.12-.8.2-1.6.83-2.1.56-.49,1.3-.74,2.05-.69,1.09.02,2.16.3,3.13.81,1.45,1.52,3.31,2.59,5.35,3.08m-9.04,7.7c.02.38-.06.76-.23,1.11-.38.87-1.07,1.56-1.94,1.94-1.33-.2-2.56-.8-3.53-1.72-.84-.6-1.37-1.55-1.44-2.58.07-.27.52-.51,1.21-.66,1.15-.07,2.31.1,3.39.5.81.53,1.66,1,2.54,1.4m1.07-18.49c-1.11-1.53-2.13-3.11-3.07-4.75,1.41-.01,2.82-.11,4.22-.29l.37-.05c-1.32,1.34-1.9,3.24-1.54,5.09m-1.31,3.15l.62.78h0c-1.49-.02-2.93.55-4,1.6-1.31,1.19-1.91,2.96-1.61,4.7.09.45.23.89.42,1.3h-.35l-.14-.1c-3.98-2.88-7.76-6.03-11.29-9.44-4.92-4.74-14.07-13.56-13.29-22.35.14-5.26,3.57-9.86,8.56-11.51,2.13-.74,4.38-1.14,6.64-1.17v.18c.44,4.82,1.65,9.54,3.58,13.97-1.58,1.01-2.91,1.91-4.15,2.8-.41.29-.65.78-.62,1.28.05.85.22,1.69.51,2.48l.04.1c.02.06.04.12.07.18.07.17.14.34.25.56,1.32,2.58,3.54,4.58,6.24,5.62,1.03.4,2.11.68,3.2.85,1.52,2.88,3.29,5.61,5.31,8.17m-9.69-14.74c-1.08.02-2.08-.59-2.56-1.56l-.04-.13h0c-.11-.29-.19-.59-.25-.89,3.9-2.74,8.01-5.19,12.27-7.33.43.6.79,1.24,1.08,1.92.37.82.41,1.75.11,2.6-.63,1.08-1.58,1.94-2.72,2.45-1.17.67-2.37,1.28-3.6,1.83-1.32.68-2.79,1.06-4.28,1.09m2.54-40.84c-.58-3.05,1.42-5.99,4.47-6.57,3.05-.58,5.99,1.42,6.57,4.47.11.6.13,1.22.04,1.83-3.78-.56-7.62.39-10.72,2.62-.25-.75-.37-1.54-.37-2.34m5.55-9.67c-2.04.02-4,.8-5.49,2.21l-15.36-17.49c1.44-1.99,2.59-4.17,3.42-6.48,1.15,2.02,2.57,3.88,4.23,5.51,3.26,3.16,6.74,6.08,10.4,8.76,5.77,3.87,10.75,8.8,14.68,14.52,1.32,2.24,2.42,4.6,3.28,7.06-1.35-1.08-2.8-2.04-4.32-2.87-.07-.05-.15-.09-.24-.12-.65-.34-1.31-.64-1.99-.9,0-.18.03-.37.03-.54.26-5.05-3.59-9.37-8.64-9.67m-24.87-15.23c-3.39,3.89-8.28,6.15-13.44,6.22-2.68,0-5.31-.63-7.7-1.84l-1.65-1.28-.18.23c-6.42-4.48-10.17-11.88-9.99-19.71,0-12.48,8.76-22.59,19.53-22.59s19.53,10.12,19.53,22.59c.05,5.55-1.78,10.95-5.19,15.33l-1.03.9.13.15Zm35.09,29.44c2.49,1.57,4.81,3.4,6.93,5.45.49,1.5,1.03,3.13,1.55,4.73.66,2.05,1.35,4.17,1.96,5.95-.51.12-.99.24-1.42.35-3.82,1-7.57,2.23-11.24,3.68-4.81-12.11.31-18.36,2.21-20.16m-105.46,52.62l-12.45-170.82c-.12-1.63,1.11-3.05,2.74-3.17.18-.01.36,0,.54,0l113.21,12.37c2.6.28,4.62,2.39,4.81,4.99l5.15,70.59c-2-1.71-3.63-3.03-4.58-3.69-.21-.15-21.46-14.5-29.26-9.71-.21.13-.41.27-.6.41-.05-2.41-.4-4.8-1.04-7.12l12.99-5c1.54,1.99,3.89,3.17,6.4,3.2,5.04-.31,8.9-4.62,8.64-9.67.55-4.77-2.88-9.08-7.65-9.62-4.77-.55-9.08,2.88-9.62,7.65-.07.66-.07,1.32,0,1.97,0,1.28.23,2.55.68,3.75l-12.43,4.78c-2.48-6.57-7.73-11.71-14.35-14.04l4.87-12.31c.51.11,1.03.16,1.56.16,5.04-.31,8.9-4.62,8.64-9.67.54-4.77-2.9-9.07-7.67-9.61s-9.07,2.9-9.61,7.67c-.07.64-.07,1.3,0,1.94-.05,3.3,1.53,6.41,4.24,8.3l-4.97,12.59,1.06.42c-1.42-.32-2.87-.48-4.33-.48-12.47,0-22.62,11.52-22.62,25.68,0,1.01.06,2.02.16,3.02l-8.02,2.78c-1.16-3.44-4.34-5.8-7.97-5.91-5.34.67-9.13,5.53-8.46,10.87.55,4.42,4.04,7.91,8.46,8.46,5.04-.31,8.9-4.62,8.64-9.67,0-.24,0-.48-.03-.71l7.87-2.73c1.31,6.5,5.09,12.24,10.53,16.03l-15.29,19.66c-.81-.37-1.68-.56-2.56-.56-4.49.62-7.62,4.76-7.01,9.25.5,3.64,3.36,6.5,7.01,7.01,4.19-.31,7.34-3.93,7.08-8.12.02-2.09-.71-4.12-2.06-5.72l15.55-19.96c2.72,1.31,5.7,1.99,8.72,1.99,5.91-.07,11.52-2.6,15.48-6.98l15.45,17.58c-1.55,2.91-1.65,6.37-.28,9.37-.13.13-.27.26-.37.37-2.94,3.19-4.63,7.33-4.76,11.67-3.25.04-6.46.77-9.42,2.12-5.14,2.46-8.5,7.56-8.73,13.26-.15,1.78,0,3.58.44,5.31-1.85,1.16-3.14,3.03-3.57,5.17-1.55,7.52,6.74,17.88,8.4,19.89.37.44.74.87,1.12,1.3l-65.61-1.5c-2.68-.05-4.88-2.13-5.08-4.8m92.35-117.61c-.49-3.06,1.59-5.95,4.66-6.44,3.06-.49,5.95,1.59,6.44,4.66.09.59.09,1.19,0,1.78.49,3.06-1.59,5.95-4.66,6.44-3.06.49-5.95-1.59-6.44-4.66-.09-.59-.09-1.19,0-1.78m-28.3-27.32c-.49-3.06,1.59-5.95,4.66-6.44,3.06-.49,5.95,1.59,6.44,4.66.09.59.09,1.19,0,1.78.49,3.06-1.59,5.95-4.66,6.44-3.06.49-5.95-1.59-6.44-4.66-.09-.59-.09-1.19,0-1.78m-39.99,56.06c.26,3.34-2.21,6.27-5.55,6.58-3.63-.63-6.07-4.08-5.44-7.72.48-2.78,2.66-4.96,5.44-5.44,3.34.31,5.81,3.24,5.55,6.58m54.39,98.4c-1.24-.98-2.43-2.02-3.56-3.13-1.08-1.05-2.1-2.15-3.07-3.3-3.37-4.04-8.83-12.25-7.77-17.39h0c.21-1.1.79-2.09,1.64-2.81,3.12,6.29,7.47,11.89,12.77,16.49,2.68,2.57,5.48,5.01,8.41,7.29,1.05.82,2.11,1.62,3.18,2.39-.53.15-1.04.38-1.5.69-.7.46-1.22,1.16-1.45,1.97-.26,1.23-.02,2.51.67,3.55-3.33-1.54-6.46-3.47-9.33-5.75m104.1,69.73c-.55.5-4.04,2.84-21.1,2.84-16.09,0-44.93-8.4-58.4-31.56-3.13-5.4-5.86-11.19-8.49-16.78-2.44-5.2-4.96-10.56-7.87-15.72.47.22.93.42,1.38.61,2.26,1.14,4.82,1.51,7.31,1.08l.19-.04c1.78-.6,3.22-1.91,3.98-3.63.22-.48.36-.98.44-1.5,1.25.09,2.5-.1,3.66-.55l.31-.13c1.44-.62,2.71-1.58,3.68-2.82.21-.27.4-.56.58-.86.56-.92.9-1.96.99-3.03.03-.34.03-.67,0-1.01,1.99-.26,3.79-1.3,5.01-2.89,1.22-1.59,1.92-3.52,2-5.52v-.11c.09-1.74-.25-3.47-.97-5.05-.64-1.3-1.37-2.55-2.18-3.75l-.21-.32c2.56,2.19,4.92,4.61,7.05,7.22.77.91,1.5,1.8,2.09,2.62.48.63.92,1.28,1.3,1.97l.24,3.25c-.72,2.38-1.3,4.69-1.75,6.94-2.52,10.21-1.79,20.95,2.09,30.73.25.51.76.83,1.33.82.82,0,1.48-.66,1.48-1.48,0-.23-.05-.46-.16-.66-.71-1.42-6.71-14.54.03-36.1.55-2.63-.27-5.36-2.18-7.26-.31-.42-.83-1.07-1.48-1.87-.91-1.12-2.09-2.48-3.34-3.84-1.84-2.25-4.05-4.17-6.54-5.67-1.71-.48-3.53-.39-5.19.27l-.19.06c-2.86.8-5.77,1.39-8.71,1.75-3.18.56-6.45.34-9.52-.64l-.37-.15c1.23-.26,2.43-.66,3.57-1.2,1.33-.59,2.62-1.25,3.88-1.97,1.71-.82,3.11-2.19,3.97-3.88.6-1.56.57-3.28-.08-4.81-.3-.76-.69-1.48-1.15-2.15,1.27-.59,2.47-1.12,3.62-1.59l.25-.09h0c3.93-1.61,7.97-2.95,12.08-4.03.83-.22,1.69-.43,2.55-.58,1-.19,2.02-.27,3.04-.23h.11c1.95.24,3.86.75,5.67,1.53,21.53,8.09,34.66,21.04,43.9,43.28,6.1,20.2,12.37,50.99,12.05,68.54"/>
              </g>
            </g>
          </g>
        </g>
      </g>
    </g>
  </g>
</svg>