<?xml version="1.0" encoding="UTF-8"?>
<svg id="Capa_2" data-name="Capa 2" xmlns="http://www.w3.org/2000/svg" viewBox="0 0 300 300">
  <defs>
    <style>
      .cls-1, .cls-2 {
        fill: none;
      }

      .cls-3 {
        fill: #00e47c;
      }

      .cls-4 {
        fill: #fff;
      }

      .cls-2 {
        stroke: #fff;
        stroke-miterlimit: 10;
        stroke-width: 1.14px;
      }
    </style>
  </defs>
  <g id="botones">
    <g>
      <rect class="cls-1" width="300" height="300"/>
      <g>
        <g>
          <path class="cls-3" d="m53.15,228.74h10.36l8.89,29.36h-6.5l-2.04-7.3h-11.27l-2.04,7.3h-6.28l8.89-29.36Zm9.28,17l-4.04-14.39h-.35l-4.04,14.39h8.42Z"/>
          <path class="cls-3" d="m77.49,257.44c-.9-.43-1.56-1.1-1.98-1.99-.42-.89-.63-2.04-.63-3.46v-24.49h5.87v23.9c0,.56.06.98.17,1.27s.32.5.6.61.69.17,1.22.17h1.51v4.63h-3.26c-1.44,0-2.61-.22-3.51-.65Z"/>
          <path class="cls-3" d="m91.89,265.96c-1.34-.47-2.5-1.16-3.48-2.08-.98-.92-1.71-2.04-2.2-3.35l5.87-.49c.38.74.94,1.3,1.67,1.69.73.4,1.62.59,2.65.59,1.45,0,2.52-.4,3.21-1.19s1.03-1.89,1.03-3.29v-3.81h-.33c-.64,1.47-1.49,2.59-2.56,3.35-1.07.77-2.33,1.15-3.78,1.15-1.62,0-3.06-.47-4.33-1.41-1.27-.94-2.26-2.24-2.97-3.89-.71-1.66-1.06-3.53-1.06-5.63s.36-3.92,1.07-5.57c.71-1.64,1.71-2.93,2.98-3.86,1.27-.93,2.71-1.4,4.33-1.4,1.44,0,2.69.4,3.75,1.19,1.06.8,1.98,2,2.77,3.6h.33v-4.38h5.67v20.47c0,1.85-.4,3.45-1.19,4.8-.79,1.35-1.96,2.39-3.5,3.12-1.54.73-3.39,1.09-5.57,1.09-1.58,0-3.03-.23-4.37-.7Zm7.87-13.67c.73-1.13,1.09-2.68,1.09-4.65s-.36-3.5-1.09-4.63c-.73-1.13-1.87-1.69-3.44-1.69s-2.71.57-3.45,1.69c-.73,1.13-1.1,2.67-1.1,4.63s.37,3.52,1.1,4.65c.73,1.13,1.88,1.69,3.45,1.69s2.71-.56,3.44-1.69Z"/>
          <path class="cls-3" d="m115.2,257.15c-1.64-.9-2.92-2.18-3.83-3.83s-1.38-3.54-1.38-5.68.46-4.02,1.38-5.67c.92-1.64,2.2-2.92,3.83-3.83,1.64-.91,3.51-1.36,5.62-1.36s3.98.45,5.62,1.36c1.64.91,2.91,2.19,3.82,3.83.91,1.65,1.37,3.53,1.37,5.67s-.46,4.04-1.37,5.69c-.91,1.65-2.18,2.92-3.81,3.82-1.63.9-3.51,1.36-5.63,1.36s-3.98-.45-5.62-1.36Zm9.13-4.88c.75-1.13,1.13-2.67,1.13-4.63s-.38-3.5-1.13-4.63c-.75-1.13-1.93-1.69-3.52-1.69s-2.77.57-3.53,1.69c-.76,1.13-1.14,2.67-1.14,4.63s.38,3.52,1.14,4.64c.76,1.12,1.94,1.68,3.53,1.68s2.76-.56,3.52-1.69Z"/>
          <path class="cls-3" d="m135.09,237.18h5.67v5.12h.33c.54-1.41,1.09-2.52,1.64-3.32.55-.8,1.14-1.37,1.76-1.7.62-.33,1.35-.5,2.16-.5.28,0,.56.02.83.05.27.03.49.09.66.15v6.03c-.77-.2-1.64-.31-2.61-.31-1.54,0-2.68.31-3.44.93-.75.62-1.13,1.55-1.13,2.78v11.68h-5.87v-20.92Z"/>
          <path class="cls-3" d="m151.91,234.45c-.56-.31-1-.75-1.31-1.31-.32-.56-.48-1.2-.48-1.92s.16-1.36.48-1.92c.32-.56.76-.99,1.31-1.3s1.19-.47,1.9-.47,1.34.16,1.9.47c.56.31.99.75,1.3,1.3.31.56.47,1.2.47,1.92s-.16,1.36-.47,1.92c-.31.56-.75.99-1.3,1.31-.56.31-1.19.47-1.9.47s-1.34-.16-1.9-.47Zm-1.04,2.73h5.87v20.92h-5.87v-20.92Z"/>
          <path class="cls-3" d="m165.9,257.39c-1.04-.47-1.81-1.18-2.3-2.14-.5-.96-.74-2.19-.74-3.7v-9.91h-3.42v-4.46h3.42v-5.44h5.87v5.44h5.22v4.46h-5.22v9.24c0,.68.07,1.2.21,1.57s.38.63.72.79c.34.16.83.23,1.47.23h2.81v4.63h-4.02c-1.64,0-2.99-.23-4.03-.7Z"/>
          <path class="cls-3" d="m199.26,237.94c1.12-.78,2.46-1.17,4.01-1.17,1.32,0,2.45.28,3.39.86s1.67,1.42,2.17,2.56.75,2.52.75,4.15v13.76h-5.87v-12.89c0-1.26-.3-2.23-.91-2.89-.61-.67-1.47-1-2.6-1-1.25,0-2.22.41-2.9,1.21-.69.81-1.03,1.95-1.03,3.44v12.13h-5.87v-12.89c0-1.26-.3-2.23-.91-2.89-.61-.67-1.47-1-2.6-1-1.25,0-2.22.41-2.91,1.21-.69.81-1.03,1.95-1.03,3.44v12.13h-5.87v-20.92h5.67v4.38h.33c.84-1.62,1.82-2.82,2.93-3.61s2.42-1.18,3.94-1.18,2.88.41,3.91,1.22,1.73,2,2.1,3.57h.33c.86-1.63,1.85-2.84,2.97-3.62Z"/>
          <path class="cls-3" d="m218.1,257.15c-1.64-.9-2.92-2.18-3.83-3.83-.92-1.65-1.38-3.54-1.38-5.68s.46-4.02,1.38-5.67c.92-1.64,2.19-2.92,3.83-3.83,1.64-.91,3.51-1.36,5.62-1.36s3.98.45,5.62,1.36c1.64.91,2.91,2.19,3.82,3.83.91,1.65,1.37,3.53,1.37,5.67s-.46,4.04-1.37,5.69c-.91,1.65-2.18,2.92-3.81,3.82s-3.51,1.36-5.63,1.36-3.98-.45-5.62-1.36Zm9.13-4.88c.75-1.13,1.13-2.67,1.13-4.63s-.38-3.5-1.13-4.63c-.75-1.13-1.93-1.69-3.52-1.69s-2.77.57-3.53,1.69c-.76,1.13-1.14,2.67-1.14,4.63s.38,3.52,1.14,4.64,1.94,1.68,3.53,1.68,2.76-.56,3.52-1.69Z"/>
          <path class="cls-3" d="m240.33,257c-1.59-1.01-2.76-2.54-3.51-4.59l5.36-1.04c.33.94.85,1.64,1.57,2.1s1.65.69,2.79.69c.65,0,1.23-.07,1.72-.21.5-.14.88-.35,1.16-.63s.42-.61.42-.99c0-.44-.19-.8-.57-1.1-.38-.3-.86-.54-1.45-.72-.58-.18-1.39-.4-2.43-.64-1.67-.41-3.05-.82-4.13-1.23-1.08-.42-2.01-1.05-2.79-1.92s-1.17-2.01-1.17-3.44c0-1.31.36-2.45,1.08-3.44.72-.99,1.75-1.74,3.09-2.27,1.34-.53,2.92-.79,4.74-.79,2.35,0,4.3.48,5.85,1.44s2.69,2.37,3.43,4.25l-5.22,1.16c-.34-.82-.88-1.43-1.61-1.85s-1.65-.63-2.75-.63c-.94,0-1.66.14-2.17.42-.51.28-.76.68-.76,1.19,0,.44.19.8.57,1.08.38.28.86.51,1.44.68s1.39.37,2.44.6c1.71.4,3.12.79,4.23,1.2,1.11.41,2.07,1.05,2.87,1.94s1.21,2.07,1.21,3.55c0,1.4-.39,2.61-1.17,3.62s-1.87,1.78-3.27,2.3c-1.4.52-3.02.79-4.87.79-2.47,0-4.51-.5-6.1-1.51Z"/>
        </g>
        <g>
          <path class="cls-4" d="m177.32,129.56l-53.27-6.18c-3.48.08-6.36-2.68-6.44-6.17l-.46-21.15c-.08-3.48,2.69-6.37,6.17-6.44l53.27,6.17c3.48-.07,6.36,2.69,6.44,6.17l.46,21.15c.08,3.48-2.69,6.36-6.17,6.44"/>
          <path class="cls-2" d="m136.34,179.2l-53.27-6.18c-3.48.08-6.36-2.68-6.44-6.17l-.46-21.15c-.08-3.48,2.69-6.37,6.17-6.44l53.27,6.17c3.48-.07,6.36,2.69,6.44,6.17l.46,21.15c.08,3.48-2.69,6.36-6.17,6.44Z"/>
          <path class="cls-2" d="m218.3,189.01l-53.27-6.18c-3.48.08-6.36-2.68-6.44-6.17l-.46-21.15c-.08-3.48,2.69-6.37,6.17-6.44l53.27,6.17c3.48-.07,6.36,2.69,6.44,6.17l.46,21.15c.08,3.48-2.69,6.36-6.17,6.44Z"/>
          <path class="cls-2" d="m149.08,125.52l.1,4.59c.08,3.53-3.03,6.29-6.53,5.78l-22.34-3.22c-3.5-.51-6.61,2.25-6.53,5.78l.08,3.56"/>
          <path class="cls-2" d="m148.95,125.65l.13,5.91c.07,3.13,2.39,5.76,5.5,6.2l35.74,5.14c2.76.4,4.84,2.74,4.9,5.53l.08,3.92"/>
        </g>
      </g>
    </g>
  </g>
</svg>