<?xml version="1.0" encoding="UTF-8"?>
<svg id="Capa_2" data-name="Capa 2" xmlns="http://www.w3.org/2000/svg" viewBox="0 0 300 300">
  <defs>
    <style>
      .cls-1 {
        fill: none;
      }

      .cls-2 {
        fill: #00e47c;
      }
    </style>
  </defs>
  <g id="botones">
    <g>
      <g>
        <path class="cls-2" d="m221.16,147.84c1.45-.78,2.79-1.57,4.22-2.53,30.58-20.55,38.16-63.14,16.89-94.92-10.68-15.96-26.69-26.75-45.08-30.37-17.26-3.39-34.67.07-49.03,9.74l-.09.07c-1.85,1.01-3.51,2.02-5.08,3.07-.35.23-.7.48-1.06.73-.13-2.73-1.21-5.22-3.27-7.59-.45-.52-1.09-1.13-2.04-1.3-.08-.02-.16-.02-.26-.02h0c-.07,0-.14-.01-.21-.01-.01,0-.01,0-.04,0-.83,0-1.53.35-1.83.5-6.96,3.47-12.94,8.39-18.71,13.16l-1.02.84c-1.06.87-4.19,3.49-8.47,7.11-20.54,13.47-33.03,22.51-37.13,26.87-1.9,2.03-3.87,4.12-5.17,6.79-.94,1.95-8.42,30.32-10.22,37.23-2.4,9.23-4.09,19.23-5.15,30.58v.05c-.13,1.35-.25,2.7-.36,4.08-.9,11.48-1.15,23.15-1.38,34.43l-.03,1.42c-.07,3.23-.14,6.45-.22,9.68-.66,25.94-.89,52.24-.68,78.16l.02.19c.01.1.04.19.07.29.03.09.06.18.1.27.04.09.1.17.19.29.06.08.13.16.21.23.07.06.15.11.25.18.06.04.15.09.25.13l.17.07c6.62,1.86,42.77,3.99,54.45,3.99,1.18,0,2.11-.02,2.76-.06,19.98-1.25,33.03-4.74,44.78-19.62,7.11-9,14.4-20.18,21.46-31.01,4.28-6.57,8.33-12.78,12.25-18.38,4.53-6.47,10.74-11.68,16.75-16.73l21.42-17.98c.92-.77,2.51-1.95,4.36-3.33,6.14-4.55,11.36-8.56,13.16-11.37.05-.07.11-.17.17-.29.35-.6.53-1.13.58-1.61.32-3.76-.73-6.79-3.12-9.01-3.54-3.3-9.55-4.08-14.85-4.03Zm-9.09,22.88c-1.06-4.13,6.41-10.43,11.46-13.51,4.45-.39,9.14,3.12,11.12,4.82-2.5,2.69-8.5,7.14-11.48,9.35-1.78,1.32-3.34,2.48-4.32,3.28l-.39.3c-.65.43-1.84.67-2.98.3-2.03-.65-2.98-2.83-3.42-4.55Zm10.66-16.89c-.23.03-.45.11-.65.23-.41.24-4.14,2.48-7.6,5.68-4.71,4.36-6.65,8.34-5.75,11.84,1.16,4.51,3.62,6.26,5.55,6.92l-14.74,12.37c-.23-.34-.47-.7-.71-1.06-1.53-2.31-3.1-4.7-5.43-6.35-1.74-1.24-3.74-1.35-5.36-.32-1.53.98-2.29,2.81-1.93,4.66.59,3.09,3.15,5.21,5.22,6.92.63.52,1.12.96,1.64,1.43.05.05.11.1.16.15-4.68,4.04-9.48,8.52-13.26,13.91-3.95,5.64-8.01,11.88-12.32,18.48-7.01,10.75-14.25,21.87-21.27,30.75-11.01,13.93-22.88,17.1-42.29,18.31-6.97.43-45.18-1.67-54.81-3.52-.19-25.52.04-51.32.69-76.69.08-3.23.15-6.46.22-9.69l.03-1.42c.23-11.24.48-22.86,1.37-34.23.09-1.11.19-2.19.28-3.27,13.37-10.22,15.46-26.97,17.48-43.18.7-5.6,1.36-10.89,2.47-15.8.99-4.36,2.07-8.57,4.36-12.09,2.19-3.35,28.66-26.05,39.78-35.25.67.81,1.47,1.44,2.85,1.94,1.53.56,3.36.46,5.13-.27,1.45-.6,2.68-1.53,3.79-2.44,2.96-2.44,5.59-5.16,8.62-8.49.52-.57,1.14-1.25,1.66-2.06,1.96,4.97-1.5,10.05-4.85,14.98l-.07.11c-.37.54-.73,1.07-1.08,1.6-1.75,2.63-3.44,5.29-5.08,7.87-4.66,7.32-9.07,14.23-14.74,20.74-7.11,8.17-10,15.82-9.97,26.41.02,6.53.2,16.45,1.49,27.24h0s0,.04,0,.04c0,.13.03.21.03.19,1.74,14.34,5,26.94,9.98,38.51,3.46,8.04,9.13,18.01,16.5,19.81,13.59,3.32,35.38-10.06,42.63-15.51,11.77-8.83,25.12-18.84,40.14-21.22,5.83-.92,16.28-1.84,20.79,2.35,1.12,1.04,1.78,2.35,1.99,3.97-3.03-2.37-7.86-5.22-12.91-4.54Zm-33.24,33.32c-.09-.47.06-.88.41-1.1.16-.11.34-.15.51-.15.39,0,.76.21.99.37,1.79,1.27,3.19,3.39,4.54,5.44.32.48.63.94.94,1.39-.37.31-.74.62-1.1.93-.19-.16-.37-.33-.56-.49-.52-.47-1.05-.93-1.7-1.48-2.01-1.66-3.69-3.18-4.03-4.91Zm-116.31-111.19c-2.61,4-3.78,8.53-4.84,13.21-1.15,5.08-1.82,10.45-2.53,16.14-1.78,14.31-3.62,29.08-13.54,38.62,1.06-9.49,2.57-17.97,4.63-25.86,4.07-15.63,9.43-35.44,9.99-36.6,1.06-2.2,2.85-4.1,4.58-5.94,1.94-2.07,5.99-5.32,12.08-9.72-6,5.39-9.47,8.78-10.36,10.14Zm62.04-46.96c-.34.71-.98,1.4-1.54,2.01-2.94,3.22-5.47,5.84-8.27,8.15-.9.74-1.88,1.49-2.92,1.92-.97.4-1.9.48-2.62.22-.67-.24-1.02-.48-1.37-.9,5.02-4.13,10.65-8.72,16.86-11.89.02.14-.05.27-.15.49Zm113.12,75.74c3.18-17.92-.76-36.25-11.09-51.62-11.84-17.62-30.54-28.71-50.59-30.87,3.27.13,6.56.51,9.85,1.16h0c17.48,3.44,32.71,13.7,42.88,28.9,8.39,12.54,12.41,27.62,11.3,42.47-.59,7.93-2.61,15.6-5.89,22.62,1.57-4.06,2.76-8.3,3.53-12.65Zm-13.95-49.7c9.83,14.62,13.58,32.06,10.55,49.09-3.02,17.01-12.43,31.59-26.5,41.04-1.91,1.28-3.45,2.25-5.68,3.39l-.44.07c-5.79.92-11.67,2.93-17.97,6.15-24.96,4.43-50.62-6.9-65.4-28.89-10.41-15.5-14.06-34.56-10-52.32,3.96-5.2,7.42-10.63,10.79-15.93,1.62-2.55,3.3-5.18,5.02-7.77.36-.54.74-1.1,1.13-1.67,1.99-2.93,4.24-6.23,5.35-9.78,1.21-.95,2.44-1.84,3.66-2.66,14.05-9.44,31.11-12.64,48.03-9,16.93,3.64,31.65,13.69,41.46,28.28Zm-128.61,43.21c2.76-2.77,5.5-5.26,8.17-7.66.21,5.58,1.07,11.13,2.59,16.52-3.59,3.61-7.76,8.22-10.38,13.39-.38-5.41-.57-11.07-.59-17.54,0-1.63.07-3.21.22-4.71Zm8.14-12.28l-1.01.9c-2.11,1.9-4.07,3.66-6.01,5.48,1.34-4.65,3.74-8.84,7.57-13.29-.3,2.29-.49,4.6-.55,6.91Zm17,99.44c-4.67-1.14-9.69-7.47-14.14-17.82-4.84-11.26-8.02-23.54-9.72-37.54.05-7.13,5.87-14.22,10.65-19.2,2.05,6.04,4.87,11.74,8.39,16.97,13.2,19.64,34.69,31.37,57.48,31.37,1.05,0,2.13-.03,3.23-.09-5.77,3.62-11.25,7.73-16.16,11.41-6.88,5.16-27.44,17.91-39.73,14.9Z"/>
        <path class="cls-2" d="m187.53,104.74c.6,1.95,2.64,5.37,5.55,6.27.46.14.92.21,1.37.21,1.04,0,2.02-.36,2.91-1.07,1.26-1,1.96-2.48,2.02-4.28.09-2.88-1.47-5.85-3.07-7.29-1.84-1.66-4.25-1.88-6.3-.58-2.25,1.43-3.27,4.2-2.49,6.73h0Z"/>
        <path class="cls-2" d="m157.88,95.2c-3.44-1.75-7.41-1.03-10.36,1.89-3.89,3.85-6.23,9.41-2.66,13.16h0c1.57,1.64,3.99,2.55,6.83,2.55,1.4,0,2.84-.22,4.17-.64,3.78-1.19,6.33-3.74,6.8-6.84.66-4.32-1.21-8.29-4.78-10.11Z"/>
        <path class="cls-2" d="m158.53,141.71c-9.3-4.54-16.9-11.12-22.58-19.57-7.12-10.6-11.11-22.84-11.52-35.41h0c-.02-.47-.23-.91-.58-1.23-.34-.31-.79-.47-1.2-.44-.46.02-.89.21-1.2.55s-.48.78-.46,1.24c.44,13.22,4.62,26.09,12.11,37.23,6.02,8.96,14.07,15.94,23.93,20.75.24.11.49.17.75.17.67,0,1.26-.37,1.55-.97.42-.86.06-1.89-.8-2.31Z"/>
      </g>
      <rect class="cls-1" width="300" height="300"/>
    </g>
  </g>
</svg>