<?xml version="1.0" encoding="UTF-8"?>
<svg id="Capa_2" data-name="Capa 2" xmlns="http://www.w3.org/2000/svg" xmlns:xlink="http://www.w3.org/1999/xlink" viewBox="0 0 598 598">
  <defs>
    <style>
      .cls-1, .cls-2, .cls-3, .cls-4 {
        fill: none;
      }

      .cls-2 {
        clip-path: url(#clippath-1);
      }

      .cls-3 {
        isolation: isolate;
      }

      .cls-5 {
        fill: #68e085;
      }

      .cls-6 {
        fill: #000082;
      }

      .cls-7 {
        fill: #fff;
      }

      .cls-8 {
        fill: #c9c9c9;
      }

      .cls-9 {
        fill: #dadada;
      }

      .cls-4 {
        clip-path: url(#clippath);
      }
    </style>
    <clipPath id="clippath">
      <rect class="cls-1" width="598" height="598"/>
    </clipPath>
    <clipPath id="clippath-1">
      <rect class="cls-1" x="91.84" y="107.92" width="412.1" height="299.76"/>
    </clipPath>
  </defs>
  <g id="botones">
    <g id="Grupo_105" data-name="Grupo 105">
      <g class="cls-4">
        <g id="Abstratcs">
          <g class="cls-3">
            <path class="cls-5" d="m169.18,434.63h16.86c3.38,0,6.37.63,8.95,1.88,2.58,1.25,4.57,3.02,5.98,5.31,1.41,2.28,2.11,4.95,2.11,8.01s-.7,5.73-2.11,8.02c-1.41,2.3-3.4,4.07-5.98,5.31-2.58,1.24-5.56,1.86-8.95,1.86h-9.87v20.73h-6.99v-51.12Zm16.86,24.35c2.08,0,3.84-.37,5.27-1.12,1.43-.75,2.5-1.8,3.21-3.18.71-1.37,1.06-2.99,1.06-4.86s-.35-3.49-1.06-4.86c-.71-1.37-1.78-2.43-3.21-3.18-1.43-.75-3.19-1.12-5.27-1.12h-9.87v18.32h9.87Z"/>
            <path class="cls-5" d="m239.75,485.75h-6.18v-7.24h-.57c-1.4,2.63-3.13,4.61-5.2,5.95-2.07,1.34-4.43,2.01-7.08,2.01-2.41,0-4.49-.54-6.23-1.62-1.74-1.08-3.07-2.63-3.99-4.67s-1.38-4.46-1.38-7.28v-23.11h6.53v22.33c0,5.77,2.63,8.66,7.88,8.66,2.01,0,3.75-.4,5.2-1.19,1.46-.79,2.57-1.93,3.34-3.43.77-1.49,1.15-3.27,1.15-5.33v-21.05h6.53v35.96Z"/>
            <path class="cls-5" d="m260.29,484.54c-1.86-1.28-3.52-3.29-4.99-6.04h-.57v7.24h-6.18v-53.25h6.53v24.1h.57c1.37-2.58,2.97-4.48,4.79-5.7,1.82-1.22,3.99-1.83,6.5-1.83,3,0,5.69.79,8.06,2.36,2.37,1.57,4.22,3.78,5.56,6.62,1.34,2.84,2.01,6.08,2.01,9.73s-.67,6.85-2.01,9.69-3.19,5.05-5.56,6.62c-2.37,1.57-5.04,2.36-8.02,2.36-2.6,0-4.83-.64-6.69-1.92Zm10.61-5.36c1.55-1.07,2.71-2.57,3.48-4.53.77-1.95,1.15-4.24,1.15-6.87s-.38-4.95-1.14-6.89c-.76-1.94-1.92-3.44-3.48-4.51-1.56-1.07-3.49-1.6-5.79-1.6s-4.22.53-5.77,1.6c-1.55,1.06-2.71,2.57-3.48,4.51-.77,1.94-1.15,4.24-1.15,6.89s.38,4.92,1.15,6.87c.77,1.95,1.93,3.46,3.48,4.53,1.55,1.06,3.47,1.6,5.77,1.6s4.22-.53,5.77-1.6Z"/>
            <path class="cls-5" d="m298.29,438.35h-.57v47.39h-6.99v-51.12h13.28l14.52,47.39h.57l14.55-47.39h13.28v51.12h-6.99v-47.39h-.57l-14.56,47.39h-12l-14.52-47.39Z"/>
            <path class="cls-5" d="m363.43,484.1c-2.65-1.57-4.7-3.78-6.16-6.6-1.46-2.83-2.18-6.08-2.18-9.74s.72-6.88,2.17-9.71c1.44-2.83,3.47-5.03,6.09-6.6s5.64-2.36,9.07-2.36,6.35.78,8.91,2.33c2.56,1.55,4.53,3.72,5.93,6.5,1.4,2.78,2.09,5.97,2.09,9.57v2.31h-27.19c.17,2.27.66,4.23,1.49,5.88.83,1.65,1.99,2.92,3.5,3.82s3.32,1.35,5.45,1.35,3.94-.45,5.43-1.35,2.64-2.19,3.44-3.87l6.96.6c-.8,2.11-1.97,3.93-3.5,5.47-1.53,1.54-3.34,2.72-5.45,3.55s-4.4,1.24-6.89,1.24c-3.46,0-6.51-.79-9.16-2.36Zm18.99-19.54c-.36-3.1-1.36-5.51-3.02-7.24-1.66-1.73-3.96-2.59-6.92-2.59s-5.37.86-7.1,2.59c-1.73,1.73-2.77,4.14-3.12,7.24h20.16Z"/>
            <path class="cls-5" d="m403.05,484.1c-2.37-1.57-4.22-3.78-5.56-6.62-1.34-2.84-2.01-6.07-2.01-9.69s.67-6.89,2.01-9.73c1.34-2.84,3.19-5.05,5.56-6.62,2.37-1.57,5.05-2.36,8.06-2.36,2.51,0,4.67.61,6.5,1.83,1.82,1.22,3.42,3.12,4.79,5.7h.57v-24.1h6.53v53.25h-6.18v-7.24h-.57c-1.47,2.75-3.13,4.76-4.99,6.04-1.86,1.28-4.09,1.92-6.69,1.92-2.98,0-5.66-.79-8.02-2.36Zm15.64-4.92c1.55-1.07,2.71-2.57,3.48-4.53.77-1.95,1.15-4.24,1.15-6.87s-.39-4.95-1.15-6.89c-.77-1.94-1.93-3.44-3.48-4.51-1.55-1.07-3.47-1.6-5.77-1.6s-4.22.53-5.79,1.6c-1.56,1.06-2.72,2.57-3.48,4.51-.76,1.94-1.14,4.24-1.14,6.89s.38,4.92,1.15,6.87c.77,1.95,1.93,3.46,3.48,4.53,1.55,1.06,3.47,1.6,5.77,1.6s4.22-.53,5.77-1.6Z"/>
          </g>
        </g>
        <g id="Grupo_1586" data-name="Grupo 1586">
          <g class="cls-2">
            <g id="Grupo_1586-2" data-name="Grupo 1586-2">
              <path id="Trazado_4760" data-name="Trazado 4760" class="cls-8" d="m281.61,308.66h0c-6-36.21-26.92-27.3-26.92-27.3l-.61-75.97s15.92-5.46,27.61,31.33l-.1,71.94h.02Z"/>
              <path id="Trazado_4761" data-name="Trazado 4761" class="cls-9" d="m281.56,309.03h0c-1.66-44.57-13.88-41.8-13.88-41.8l-1.43-68.93s13.63,7,15.61,34.56l-.31,76.18h.02Z"/>
              <path id="Trazado_4762" data-name="Trazado 4762" class="cls-7" d="m160.72,253.49c.35,4.52-1.43,8.95-4.81,11.97-4.02,2.87-8.91,4.26-13.84,3.94h-7.07v22.92h-12.11v-54.69h19.07c4.88-.26,9.71,1.12,13.72,3.94,3.51,2.93,5.39,7.37,5.05,11.93v-.02Zm-12.11,1.59c.18-2.25-.61-4.46-2.19-6.07-1.73-1.42-3.93-2.13-6.16-1.99h-5.28v16.33h5.59c2.27.2,4.51-.61,6.12-2.21,1.37-1.71,2.06-3.87,1.94-6.05"/>
              <path id="Trazado_4763" data-name="Trazado 4763" class="cls-7" d="m202.13,292.33h-10.92v-4.37l-4.51,2.56c-1.25.7-2.57,1.26-3.94,1.66-1.45.41-2.94.61-4.44.59-3.34.18-6.59-1.09-8.91-3.5-2.24-2.55-3.41-5.88-3.25-9.27v-25.94h10.92v23.44c0,1.38.53,2.71,1.49,3.7,1.23,1.16,2.9,1.74,4.58,1.59,1.72.05,3.43-.38,4.93-1.23,1.13-.65,2.19-1.41,3.17-2.27v-25.24h10.92v38.27l-.03.02Z"/>
              <path id="Trazado_4764" data-name="Trazado 4764" class="cls-7" d="m248.75,272.42c.17,5.38-1.76,10.62-5.38,14.6-3.45,3.84-8.4,5.98-13.56,5.85-2.01-.01-4.01-.28-5.95-.81-1.59-.35-3.09-1-4.44-1.9l-6.12,2.7-2.62-1.4v-53.84h10.71v18.27l4.1-1.99c.88-.41,1.79-.77,2.72-1.08,1.08-.34,2.22-.51,3.36-.5,4.88-.23,9.57,1.89,12.63,5.69,3.14,4.13,4.75,9.23,4.55,14.41h.03Zm-11.02.69c.07-2.96-.84-5.86-2.59-8.25-1.49-2.18-3.97-3.47-6.61-3.46-1.52-.02-3.03.25-4.44.8-1.09.35-2.03,1.06-2.66,2v18.17c.77.76,1.71,1.32,2.75,1.62,1.35.45,2.77.66,4.19.64,2.71.27,5.38-.76,7.21-2.77,1.65-2.61,2.41-5.68,2.16-8.75Z"/>
              <path id="Trazado_4765" data-name="Trazado 4765" class="cls-6" d="m391.69,274.81h-28.32c.32,2.62,1.63,5.02,3.67,6.7,1.97,1.4,4.34,2.13,6.75,2.06,2.38-.03,4.75-.34,7.06-.91,2.16-.45,4.22-1.27,6.09-2.42v9.62c-1.93,1.2-4.07,2.01-6.31,2.37-2.23.51-4.5.81-6.78.87-5.81.34-11.51-1.65-15.83-5.54-3.89-3.93-5.95-9.31-5.69-14.83-.23-5.62,1.87-11.09,5.81-15.1,3.86-3.82,9.11-5.9,14.53-5.74,5.33-.21,10.45,2.05,13.89,6.12,3.68,4.8,5.5,10.76,5.14,16.8h0Zm-10.06-5.19c-.33-2.46-1.48-4.74-3.27-6.47-1.68-1.47-3.86-2.25-6.09-2.19-2.37-.17-4.71.69-6.4,2.35-1.52,1.77-2.44,3.97-2.62,6.3h18.39Z"/>
              <path id="Trazado_4766" data-name="Trazado 4766" class="cls-6" d="m433.39,292.33h-8.31l-2.27-3.46-5.74,3.11c-.66.31-1.36.51-2.08.59-.78.12-1.57.18-2.35.19-4.94.32-9.72-1.79-12.81-5.65-3-4.12-4.54-9.13-4.37-14.23-.3-5.42,1.59-10.73,5.25-14.74,3.68-3.72,8.75-5.71,13.98-5.49,1.47-.01,2.93.12,4.37.4,1.28.27,2.5.74,3.63,1.39v-16.82h10.71v54.7Zm-10.71-11.78v-16.92c-.81-.85-1.82-1.5-2.94-1.87-1.43-.53-2.94-.79-4.47-.78-2.5-.2-4.95.77-6.64,2.62-1.66,2.44-2.43,5.37-2.19,8.31-.22,3.07.6,6.13,2.32,8.68,1.51,1.91,3.85,2.97,6.28,2.87,1.54.03,3.06-.27,4.48-.87,1.16-.49,2.22-1.19,3.13-2.06h.03Z"/>
              <path id="Trazado_4767" data-name="Trazado 4767" class="cls-7" d="m391.69,274.81h-28.32c.32,2.62,1.63,5.02,3.67,6.7,1.97,1.4,4.34,2.13,6.75,2.06,2.38-.03,4.75-.34,7.06-.91,2.16-.45,4.22-1.27,6.09-2.42v9.62c-1.93,1.2-4.07,2.01-6.31,2.37-2.23.51-4.5.81-6.78.87-5.81.34-11.51-1.65-15.83-5.54-3.89-3.93-5.95-9.31-5.69-14.83-.23-5.62,1.87-11.09,5.81-15.1,3.86-3.82,9.11-5.9,14.53-5.74,5.33-.21,10.45,2.05,13.89,6.12,3.68,4.8,5.5,10.76,5.14,16.8h0Zm-10.06-5.19c-.33-2.46-1.48-4.74-3.27-6.47-1.68-1.47-3.86-2.25-6.09-2.19-2.37-.17-4.71.69-6.4,2.35-1.52,1.77-2.44,3.97-2.62,6.3h18.39Z"/>
              <path id="Trazado_4768" data-name="Trazado 4768" class="cls-7" d="m433.39,292.33h-8.31l-2.27-3.46-5.74,3.11c-.66.31-1.36.51-2.08.59-.78.12-1.57.18-2.35.19-4.94.32-9.72-1.79-12.81-5.65-3-4.12-4.54-9.13-4.37-14.23-.3-5.42,1.59-10.73,5.25-14.74,3.68-3.72,8.75-5.71,13.98-5.49,1.47-.01,2.93.12,4.37.4,1.28.27,2.5.74,3.63,1.39v-16.82h10.71v54.7Zm-10.71-11.78v-16.92c-.81-.85-1.82-1.5-2.94-1.87-1.43-.53-2.94-.79-4.47-.78-2.5-.2-4.95.77-6.64,2.62-1.66,2.44-2.43,5.37-2.19,8.31-.22,3.07.6,6.13,2.32,8.68,1.51,1.91,3.85,2.97,6.28,2.87,1.54.03,3.06-.27,4.48-.87,1.16-.49,2.22-1.19,3.13-2.06h.03Z"/>
              <path id="Trazado_4769" data-name="Trazado 4769" class="cls-7" d="m281.57,239.46v69.21c10.38-43.25,65.75,8.63,65.75,8.63v-74.37s-55.36-46.71-65.74-3.46m49,47.72l-5.13-26.03-9.45,22.36h-4.81l-8.53-21.34-5.12,25h-10.06l10.35-46.58h3.98l12.35,27.47,12.34-27.47h4.29l10.37,46.58h-10.59.01Z"/>
              <path id="Trazado_4770" data-name="Trazado 4770" class="cls-8" d="m472.88,236.52c.21,7.73-5.89,14.16-13.61,14.38-7.73.21-14.16-5.89-14.38-13.61-.21-7.73,5.89-14.16,13.61-14.38.14,0,.29,0,.43,0,7.56-.14,13.8,5.87,13.94,13.42,0,.07,0,.13,0,.2m-24.5,0c-.18,5.83,4.4,10.7,10.23,10.88.13,0,.26,0,.39,0,5.7.03,10.35-4.56,10.39-10.26,0-.18,0-.36-.01-.54.02-5.8-4.66-10.52-10.46-10.54-5.8-.02-10.52,4.66-10.54,10.46h0Zm8.39,7.14h-3.14v-13.61c1.73-.31,3.48-.46,5.23-.44,1.64-.14,3.29.21,4.74,1,.87.74,1.36,1.84,1.33,2.99-.12,1.57-1.28,2.86-2.82,3.15v.17c1.39.56,2.35,1.84,2.49,3.32.13,1.19.47,2.34,1,3.41h-3.41c-.52-1.05-.88-2.17-1.07-3.32-.24-1.49-1.07-2.16-2.82-2.16h-1.49v5.49h-.04Zm.09-7.72h1.49c1.75,0,3.15-.59,3.15-1.99,0-1.24-.92-2.07-2.91-2.07-.59-.01-1.18.04-1.75.17v3.91l.02-.02Z"/>
            </g>
          </g>
        </g>
      </g>
    </g>
  </g>
</svg>