<?xml version="1.0" encoding="UTF-8"?>
<svg id="Capa_2" data-name="Capa 2" xmlns="http://www.w3.org/2000/svg" viewBox="0 0 300 300">
  <defs>
    <style>
      .cls-1 {
        fill: none;
      }

      .cls-2 {
        fill: #00e47c;
      }
    </style>
  </defs>
  <g id="botones">
    <g>
      <path class="cls-2" d="m277,172.89c-.56-.78-1.17-1.54-1.83-2.25v-.08l-.17-.17c-8.09-8.53-17.24-18.26-26.08-27.68-3.96-4.21-7.92-8.43-11.84-12.59,4.84-4.49,5.23-11.49.95-18.02-3.39-5.25-12.57-5.69-18.59-5.35,1-1.43,1.56-3.13,1.6-4.93-.11-3.06-1.31-5.98-3.4-8.24-2.73-2.8-6.52-4.41-10.44-4.36-3.24-.05-6.48-.46-9.62-1.24-16.11-18.29-21.81-31.6-23.77-37.92-1.13-3.6-4.56-6.03-8.33-5.91-10.69.34-30.96,4.36-46.62,27.39-2.41,3.52-1.8,8.3,1.4,11.11.75.67,3.03,2.92,4.63,4.54-4.2,2.18-8.3,4.63-12.21,7.27l-.66.43c-12.82,8.33-26.07,16.94-37.16,28.07-6,6.19-11.62,12.85-16.72,19.78-8.51,11.17-18.14,27.86-26.63,42.58l-.37.63c-4.35,7.53-8.46,14.64-12.15,20.58-.25.41-.3.93-.13,1.37,9.43,25.93,32.96,45.5,57.22,47.6,2.78.24,5.53.35,8.18.35,25.5-.04,49.81-11.02,66.71-30.13,2.72-3.24,7.75-10.12,11.78-15.65,2.42-3.33,4.9-6.73,6.84-9.28l10.63,27.73c3.5,9.12,12.22,14.73,21.45,14.73,2.72,0,5.5-.49,8.19-1.52,1.26-.48,2.48-1.08,3.64-1.78l56.66-34.09c.47-.28.94-.58,1.42-.93l.14-.14c10.24-7.35,12.61-21.66,5.29-31.92Zm-58.8-62.88c5.03-.4,14.45-.53,17.25,3.8,3.4,5.27,3.18,10.57-.52,13.99l-.59-.63c-5.62-5.97-11.08-11.77-16.13-17.16Zm-10.99-17.65h0s.01,0,.02,0h.08c3,0,5.92,1.21,8.03,3.32,1.56,1.67,2.47,3.84,2.58,6.11-.14,1.99-1.18,3.8-2.81,4.91-4.96-5.28-9.48-10.09-13.28-14.16l-.64-.69c2,.29,4.02.46,6.03.5Zm-76.95-4.14l3.83,6.94c-1.41.23-2.86-.35-3.71-1.48-.97-1.4-1.7-2.93-2.18-4.56.48-.23,1.01-.46,1.62-.72l.44-.18Zm18.74-4.85c2.01-.33,4.04-.64,6-.94l.34-.05c3.38-.49,7.3-1.08,11.11-1.82.8-.16,1.68-.37,2.6-.6l.44-.11c2.44-.74,4.96-1.16,7.51-1.26l-.08.15c-.38.81-.81,1.61-1.28,2.38-.96,1.6-2.35,2.87-4,3.68-3.51,1.57-9.87,1.44-14.13,1.35h-.63c-3.7-.07-6.23-.73-7.34-1.91-.24-.25-.43-.54-.56-.87Zm-23.67,7.09c.56,1.82,1.4,3.54,2.52,5.14,1.34,1.67,3.33,2.68,5.5,2.77h0c.59,0,1.18-.09,1.7-.26,1.13-.27,1.99-1.15,2.25-2.28v-.07c.09-.77-.1-1.56-.5-2.18l-3.58-6.54c4.1-1.37,8.33-2.44,12.6-3.17.23.94.69,1.8,1.35,2.51,1.71,1.85,4.84,2.8,9.59,2.91h4.19c3.51,0,8.58-.17,12.02-1.68,2.25-1.08,4.11-2.78,5.39-4.91.53-.86,1.03-1.76,1.46-2.65l.13-.25c.15-.29.3-.57.46-.86.67.26,1.29.65,1.8,1.16,2.6,2.64,2.54,6.22,2.03,8.76-1.39,6.95-7.81,15.02-14,17.61-4.65,1.82-9.48,3.32-14.37,4.45l-1.02.26c-1.69.44-3.43.89-5.13,1.38-3.73,1-7.29,2.54-10.57,4.58-.16.07-.3.16-.43.28-3.06,1.93-5.58,4.63-7.3,7.82-2.57,4.99-2.59,10.63-2.6,16.09v2.71c-.39,24.8-11.41,49.53-28.09,62.98-20.12,16.24-51.64,13.96-73.72,10.77-1.9-3.27-3.55-6.71-4.92-10.24,3.28-5.3,6.85-11.48,10.64-18.01l1.43-2.47c8.01-13.9,17.99-31.21,26.5-42.41,5.02-6.85,10.55-13.42,16.44-19.53,11.08-11.08,24.44-19.73,37.37-28.09,3.5-2.35,7.15-4.56,10.86-6.56Zm-22.7,119.14c17.37-14.02,28.86-39.68,29.27-65.4v-2.76c0-5.07,0-10.3,2.25-14.62,1.17-2.19,2.82-4.12,4.79-5.62l25.44,66.17,3.8,9.96c-2.9,3.91-5.6,7.57-8.02,10.88l-.29.4c-4.33,5.95-8.81,12.09-11.32,15.07-16.36,18.48-40.04,29.01-64.52,29.01-2.56,0-5.13-.11-7.7-.35-17.96-1.56-35.97-13.37-47.27-30.94,22.05,3,53.04,4.76,73.56-11.8Zm47.91-93.88c2.02-.57,4.09-1.1,6.07-1.61,5.01-1.17,9.98-2.71,14.79-4.59,7.15-3.01,14.28-11.95,15.88-19.93.96-4.73-.03-8.74-2.87-11.59-3.99-4.12-10.38-2.53-15.52-1.25l-.34.09c-.97.24-1.89.47-2.7.63-3.55.68-7.34,1.3-10.96,1.8-7.69,1.15-16.39,2.45-24.34,5.44-.1.03-.2.06-.28.09-.19.08-.39.15-.59.22-.35.13-.7.26-1.06.41l-.61.27c-1.58-1.63-4.68-4.67-5.59-5.42-2.06-1.78-2.44-4.8-.89-7.04,14.88-21.87,34.02-25.68,44.12-26,2.37-.09,4.5,1.42,5.2,3.68,2.29,7.36,9.06,22.83,28.67,43.78,20.35,21.72,57.95,61.65,73.17,77.81,4.16,4.38,6.06,10.33,5.21,16.32h0c-.67,5.04-3.31,9.69-7.28,12.84-3.74-2.24-7.77-3.92-11.99-4.99-14.2-3.78-29.98-5.6-48.97-5.6-3.94,0-8.02.08-12.25.23-5.8.36-11.66.08-17.38-.84-4.51-.86-8.82-2.46-12.8-4.76l-25.56-66.31c2.78-1.6,5.76-2.83,8.86-3.68Z"/>
      <rect class="cls-1" width="300" height="300"/>
    </g>
  </g>
</svg>