<?xml version="1.0" encoding="UTF-8"?>
<svg id="Capa_2" data-name="Capa 2" xmlns="http://www.w3.org/2000/svg" xmlns:xlink="http://www.w3.org/1999/xlink" viewBox="0 0 598 598">
  <defs>
    <style>
      .cls-1, .cls-2, .cls-3, .cls-4 {
        fill: none;
      }

      .cls-2 {
        clip-path: url(#clippath-1);
      }

      .cls-3 {
        isolation: isolate;
      }

      .cls-5 {
        fill: #00e47c;
      }

      .cls-6 {
        fill: #fff;
      }

      .cls-4 {
        clip-path: url(#clippath);
      }
    </style>
    <clipPath id="clippath">
      <rect class="cls-1" width="598" height="598"/>
    </clipPath>
    <clipPath id="clippath-1">
      <rect class="cls-1" x="157.73" y="111.67" width="299.76" height="299.76"/>
    </clipPath>
  </defs>
  <g id="botones">
    <g id="Grupo_105" data-name="Grupo 105">
      <g class="cls-4">
        <g id="Grupo_104" data-name="Grupo 104">
          <g id="Casos_clínicos_interactivos" data-name="Casos clínicos interactivos" class="cls-3">
            <g class="cls-3">
              <path class="cls-6" d="m182.72,434.77h11.47l16.76,51.12h-7.31l-4.76-15.02h-21.16l-4.76,15.02h-7.03l16.79-51.12Zm14.2,30.07l-8.34-26.34h-.64l-8.31,26.34h17.29Z"/>
              <path class="cls-6" d="m216.37,449.93h6.18v7.95h.57c.95-2.13,1.91-3.82,2.88-5.08.97-1.25,2.04-2.17,3.21-2.73,1.17-.57,2.54-.85,4.1-.85.45,0,.91.03,1.38.09.47.06.89.16,1.24.3v7.03c-.47-.14-1.06-.25-1.77-.34s-1.42-.12-2.13-.12c-1.96,0-3.63.36-4.99,1.07-1.36.71-2.39,1.75-3.09,3.11-.7,1.36-1.05,3-1.05,4.92v20.63h-6.53v-35.96Z"/>
              <path class="cls-6" d="m249.16,484.86c-1.53-.69-2.61-1.75-3.25-3.18-.64-1.43-.96-3.33-.96-5.7v-20.38h-6.32v-5.68h6.32v-8.7h6.53v8.7h10.08v5.68h-10.08v20.13c0,1.11.11,1.98.34,2.61.22.63.66,1.09,1.3,1.38s1.56.44,2.77.44h5.68v5.72h-6.11c-2.67,0-4.77-.34-6.3-1.03Z"/>
              <path class="cls-6" d="m273.63,432h7.03l-8.13,11.75h-6.18l7.28-11.75Zm-5.61,17.93h6.53v35.96h-6.53v-35.96Z"/>
              <path class="cls-6" d="m290.37,484.24c-2.64-1.57-4.69-3.78-6.14-6.6-1.46-2.83-2.18-6.09-2.18-9.78s.73-6.91,2.18-9.73c1.46-2.82,3.5-5.01,6.14-6.57,2.64-1.56,5.69-2.34,9.14-2.34,2.63,0,5.03.47,7.21,1.4,2.18.94,4.03,2.3,5.57,4.08,1.54,1.79,2.66,3.91,3.37,6.37l-6.71,1.17c-.69-2.41-1.83-4.24-3.43-5.47-1.6-1.23-3.63-1.85-6.09-1.85-2.3,0-4.22.53-5.77,1.58-1.55,1.05-2.71,2.55-3.48,4.49-.77,1.94-1.15,4.22-1.15,6.85s.38,4.95,1.15,6.89c.77,1.94,1.93,3.44,3.48,4.51,1.55,1.07,3.47,1.6,5.77,1.6,4.95,0,8.12-2.54,9.51-7.63l6.71,1.17c-.71,2.56-1.83,4.75-3.35,6.58-1.53,1.83-3.38,3.23-5.56,4.19-2.18.96-4.59,1.44-7.24,1.44-3.46,0-6.5-.79-9.14-2.36Z"/>
              <path class="cls-6" d="m352.66,485.89h-6.18v-7.24h-.57c-1.4,2.63-3.13,4.61-5.2,5.95-2.07,1.34-4.43,2.01-7.08,2.01-2.41,0-4.49-.54-6.23-1.62-1.74-1.08-3.07-2.63-3.99-4.67-.92-2.04-1.38-4.46-1.38-7.28v-23.11h6.53v22.33c0,5.77,2.63,8.66,7.88,8.66,2.01,0,3.75-.4,5.2-1.19s2.57-1.93,3.34-3.43,1.15-3.27,1.15-5.33v-21.05h6.53v35.96Z"/>
              <path class="cls-6" d="m365.49,485.01c-1.41-.59-2.43-1.53-3.07-2.8-.64-1.28-.96-2.98-.96-5.11v-44.45h6.53v43.84c0,.95.12,1.69.37,2.22.25.53.65.91,1.21,1.14.56.23,1.33.34,2.33.34h2.66v5.72h-3.41c-2.37,0-4.25-.3-5.66-.89Z"/>
              <path class="cls-6" d="m385.97,484.26c-2.66-1.56-4.72-3.76-6.18-6.58-1.46-2.83-2.18-6.08-2.18-9.75s.73-6.95,2.18-9.78c1.46-2.83,3.51-5.02,6.18-6.58,2.66-1.56,5.73-2.34,9.21-2.34s6.55.78,9.21,2.34c2.66,1.56,4.72,3.76,6.18,6.58s2.18,6.09,2.18,9.78-.73,6.92-2.18,9.75-3.51,5.02-6.18,6.58c-2.66,1.56-5.73,2.34-9.21,2.34s-6.55-.78-9.21-2.34Zm15.09-4.93c1.57-1.07,2.75-2.57,3.51-4.51.77-1.94,1.15-4.24,1.15-6.89s-.38-4.95-1.15-6.89-1.94-3.44-3.51-4.51c-1.57-1.07-3.53-1.6-5.88-1.6s-4.27.53-5.84,1.6c-1.57,1.06-2.75,2.57-3.53,4.51s-1.17,4.24-1.17,6.89.39,4.95,1.17,6.89c.78,1.94,1.96,3.44,3.53,4.51,1.57,1.06,3.52,1.6,5.84,1.6s4.3-.53,5.88-1.6Z"/>
              <path class="cls-6" d="m423.42,484.03c-2.57-1.72-4.47-4.31-5.7-7.79l6.43-1.17c.78,1.99,1.95,3.47,3.51,4.44s3.54,1.46,5.93,1.46c1.54,0,2.88-.2,4.03-.59s2.03-.95,2.65-1.69c.61-.73.92-1.6.92-2.59,0-1.11-.39-2.02-1.17-2.72s-1.75-1.24-2.91-1.63c-1.16-.39-2.78-.83-4.86-1.33-2.77-.66-5.02-1.33-6.76-2.01-1.74-.67-3.23-1.72-4.47-3.12s-1.86-3.28-1.86-5.63c0-2.08.56-3.91,1.69-5.49,1.12-1.57,2.71-2.79,4.76-3.66,2.05-.86,4.42-1.3,7.12-1.3,3.74,0,6.87.84,9.41,2.52,2.53,1.68,4.38,4.11,5.54,7.28l-6.07,1.17c-.71-1.77-1.82-3.11-3.32-3.99-1.5-.89-3.41-1.33-5.73-1.33-2.15,0-3.83.38-5.04,1.14s-1.81,1.83-1.81,3.23c0,1.09.39,1.98,1.17,2.66.78.69,1.76,1.22,2.93,1.62s2.79.81,4.85,1.26c2.84.64,5.14,1.29,6.9,1.95,1.76.66,3.28,1.7,4.54,3.12,1.27,1.42,1.9,3.34,1.9,5.75,0,2.22-.6,4.17-1.81,5.84-1.21,1.67-2.92,2.95-5.13,3.83s-4.8,1.33-7.76,1.33c-4,0-7.28-.86-9.85-2.57Z"/>
              <path class="cls-5" d="m138.06,552.17c-2.21-1.62-3.94-3.86-5.18-6.73-1.24-2.86-1.86-6.09-1.86-9.69s.62-6.88,1.85-9.76c1.23-2.89,2.95-5.15,5.17-6.78s4.73-2.45,7.54-2.45c2.53,0,4.73.67,6.59,2.01,1.86,1.34,3.34,3.3,4.46,5.88h.57v-24h10.22v53.25h-9.87v-7.6h-.57c-1.37,2.79-2.98,4.88-4.83,6.25-1.85,1.37-4.02,2.06-6.53,2.06-2.82,0-5.33-.81-7.54-2.43Zm17.57-8.43c1.27-1.96,1.9-4.65,1.9-8.06s-.63-6.09-1.9-8.06c-1.27-1.96-3.26-2.95-5.98-2.95s-4.72.98-6,2.95c-1.28,1.96-1.92,4.65-1.92,8.06s.64,6.09,1.92,8.06c1.28,1.96,3.28,2.95,6,2.95s4.72-.98,5.98-2.95Z"/>
              <path class="cls-5" d="m182.38,552.19c-2.86-1.61-5.08-3.85-6.66-6.71-1.57-2.86-2.36-6.13-2.36-9.8s.77-6.9,2.33-9.78c1.55-2.88,3.73-5.12,6.53-6.73,2.8-1.61,6.02-2.41,9.64-2.41s6.76.8,9.48,2.4c2.72,1.6,4.82,3.82,6.3,6.67,1.48,2.85,2.22,6.1,2.22,9.74v2.98h-25.77c.28,2.65,1.08,4.73,2.38,6.23,1.3,1.5,3.17,2.25,5.61,2.25,1.63,0,3.03-.34,4.19-1.03s2.05-1.67,2.66-2.95l10.22.85c-.83,2.3-2.06,4.24-3.71,5.84s-3.59,2.8-5.82,3.62-4.67,1.22-7.3,1.22c-3.76,0-7.08-.8-9.94-2.41Zm16.93-20.48c-.24-2.29-.95-4.09-2.13-5.4-1.18-1.3-2.92-1.95-5.22-1.95s-4.08.65-5.36,1.95c-1.28,1.3-2.09,3.1-2.45,5.4h15.16Z"/>
              <path class="cls-5" d="m230.77,517.47h9.87v8.91h.57c.95-2.46,1.9-4.39,2.86-5.79.96-1.4,1.98-2.38,3.07-2.96,1.09-.58,2.34-.87,3.76-.87.5,0,.98.03,1.44.09.46.06.85.15,1.15.27v10.51c-1.35-.36-2.86-.53-4.54-.53-2.67,0-4.67.54-5.98,1.62-1.31,1.08-1.97,2.69-1.97,4.85v20.34h-10.22v-36.42Z"/>
              <path class="cls-5" d="m264.28,552.19c-2.86-1.61-5.08-3.85-6.66-6.71-1.57-2.86-2.36-6.13-2.36-9.8s.77-6.9,2.33-9.78c1.55-2.88,3.73-5.12,6.53-6.73,2.8-1.61,6.02-2.41,9.64-2.41s6.76.8,9.48,2.4c2.72,1.6,4.82,3.82,6.3,6.67,1.48,2.85,2.22,6.1,2.22,9.74v2.98h-25.77c.28,2.65,1.08,4.73,2.38,6.23,1.3,1.5,3.17,2.25,5.61,2.25,1.63,0,3.03-.34,4.19-1.03,1.16-.69,2.05-1.67,2.66-2.95l10.22.85c-.83,2.3-2.06,4.24-3.71,5.84-1.65,1.6-3.59,2.8-5.82,3.62s-4.67,1.22-7.29,1.22c-3.76,0-7.08-.8-9.94-2.41Zm16.93-20.48c-.24-2.29-.95-4.09-2.13-5.4-1.18-1.3-2.92-1.95-5.22-1.95s-4.08.65-5.36,1.95c-1.28,1.3-2.09,3.1-2.45,5.4h15.16Z"/>
              <path class="cls-5" d="m293.21,517.47h10.4l8.77,32.06h.6l8.77-32.06h10.01l-11.15,36.42h-16.26l-11.15-36.42Z"/>
              <path class="cls-5" d="m337.84,512.71c-.97-.54-1.73-1.3-2.29-2.27-.56-.97-.83-2.08-.83-3.34s.28-2.37.83-3.34c.56-.97,1.32-1.73,2.29-2.27.97-.54,2.07-.82,3.3-.82s2.33.27,3.3.82c.97.54,1.73,1.3,2.27,2.27.54.97.82,2.08.82,3.34s-.27,2.37-.82,3.34c-.54.97-1.3,1.73-2.27,2.27-.97.54-2.07.82-3.3.82s-2.33-.27-3.3-.82Zm-1.81,4.76h10.22v36.42h-10.22v-36.42Z"/>
              <path class="cls-5" d="m357.36,551.98c-2.77-1.75-4.8-4.41-6.11-7.99l9.34-1.81c.57,1.63,1.48,2.85,2.73,3.66,1.25.8,2.88,1.21,4.86,1.21,1.14,0,2.14-.12,3-.37.86-.25,1.54-.62,2.02-1.1s.73-1.06.73-1.72c0-.76-.33-1.4-.99-1.92-.66-.52-1.5-.94-2.52-1.26s-2.43-.69-4.22-1.12c-2.91-.71-5.31-1.43-7.19-2.15-1.88-.72-3.5-1.83-4.86-3.34-1.36-1.5-2.04-3.5-2.04-5.98,0-2.27.63-4.27,1.88-5.98,1.25-1.72,3.05-3.04,5.38-3.96,2.33-.92,5.08-1.38,8.25-1.38,4.09,0,7.49.83,10.19,2.5,2.7,1.67,4.69,4.14,5.96,7.4l-9.09,2.02c-.59-1.42-1.53-2.5-2.8-3.23-1.28-.73-2.88-1.1-4.79-1.1-1.63,0-2.89.24-3.78.73-.89.49-1.33,1.18-1.33,2.08,0,.76.33,1.38.99,1.88s1.5.89,2.5,1.19c1.01.3,2.42.65,4.24,1.05,2.98.69,5.44,1.38,7.37,2.09,1.93.71,3.6,1.83,5.01,3.37,1.41,1.54,2.11,3.6,2.11,6.18,0,2.44-.68,4.54-2.04,6.3-1.36,1.76-3.26,3.1-5.7,4.01-2.44.91-5.27,1.37-8.48,1.37-4.31,0-7.85-.88-10.61-2.63Z"/>
              <path class="cls-5" d="m391.37,512.71c-.97-.54-1.73-1.3-2.29-2.27-.56-.97-.83-2.08-.83-3.34s.28-2.37.83-3.34c.56-.97,1.32-1.73,2.29-2.27.97-.54,2.07-.82,3.3-.82s2.33.27,3.3.82c.97.54,1.73,1.3,2.27,2.27.54.97.82,2.08.82,3.34s-.27,2.37-.82,3.34c-.54.97-1.3,1.73-2.27,2.27-.97.54-2.07.82-3.3.82s-2.33-.27-3.3-.82Zm-1.81,4.76h10.22v36.42h-10.22v-36.42Z"/>
              <path class="cls-5" d="m414.82,552.24c-2.85-1.57-5.08-3.8-6.67-6.67-1.6-2.88-2.4-6.17-2.4-9.89s.8-7,2.4-9.87,3.82-5.09,6.67-6.67c2.85-1.58,6.11-2.38,9.78-2.38s6.93.79,9.78,2.38c2.85,1.59,5.07,3.81,6.66,6.67,1.58,2.86,2.38,6.15,2.38,9.87s-.79,7.04-2.38,9.91c-1.59,2.86-3.8,5.08-6.64,6.66s-6.11,2.36-9.8,2.36-6.93-.79-9.78-2.36Zm15.9-8.5c1.31-1.96,1.97-4.65,1.97-8.06s-.66-6.09-1.97-8.06c-1.31-1.96-3.35-2.95-6.12-2.95s-4.82.98-6.14,2.95c-1.33,1.96-1.99,4.65-1.99,8.06s.66,6.12,1.99,8.08c1.33,1.95,3.37,2.93,6.14,2.93s4.81-.98,6.12-2.95Zm-4.42-43.74h10.47l-9.3,13.53h-9.62l8.45-13.53Z"/>
              <path class="cls-5" d="m449.37,517.47h9.87v7.63h.57c2.98-5.56,7.03-8.34,12.14-8.34,2.34,0,4.38.54,6.12,1.63,1.74,1.09,3.08,2.65,4.01,4.69.93,2.04,1.4,4.45,1.4,7.24v23.57h-10.22v-22.26c0-2.22-.56-3.94-1.67-5.15s-2.71-1.81-4.79-1.81c-1.52,0-2.81.31-3.89.94-1.08.63-1.9,1.54-2.47,2.75-.57,1.21-.85,2.67-.85,4.4v21.12h-10.22v-36.42Z"/>
            </g>
          </g>
          <g class="cls-2">
            <path id="Trazado_4740" data-name="Trazado 4740" class="cls-6" d="m406.64,168.25h-43.32v-29.43c0-4.65-3.77-8.41-8.42-8.42h-146.31c-4.65,0-8.41,3.77-8.42,8.42v207.62c.01,4.64,3.78,8.4,8.42,8.41h43.32v29.41c0,4.65,3.77,8.43,8.42,8.43h146.32c4.65,0,8.41-3.77,8.42-8.42v-207.62c-.01-4.64-3.78-8.4-8.42-8.41m-198.06,182.85c-2.57,0-4.66-2.09-4.66-4.66v-207.62c0-2.58,2.08-4.67,4.66-4.67,0,0,0,0,0,0h146.31c2.57,0,4.65,2.09,4.66,4.66v29.44h-23.02v-3.33c0-3.61-2.93-6.54-6.54-6.54h-96.51c-3.61,0-6.54,2.93-6.54,6.54v75.85c0,3.61,2.93,6.54,6.54,6.55h18.42v20.65h-23.84c-1.03,0-1.87.84-1.87,1.87s.84,1.87,1.87,1.87h23.84v18.5h-23.84c-1.03,0-1.87.84-1.87,1.87s.84,1.87,1.87,1.87h23.84v57.16h-43.32Zm202.71,33.17c0,2.57-2.08,4.67-4.65,4.67h-146.32c-2.57,0-4.66-2.09-4.66-4.66v-207.63c0-2.57,2.09-4.66,4.66-4.66h146.32c2.57,0,4.66,2.09,4.66,4.66v207.62Z"/>
            <path id="Trazado_4741" data-name="Trazado 4741" class="cls-6" d="m381.73,245.04h-96.51c-3.61,0-6.54-2.93-6.54-6.54v-35.75c0-3.61,2.93-6.54,6.54-6.54h96.51c3.61,0,6.54,2.93,6.54,6.54v35.75c0,3.61-2.93,6.54-6.54,6.54"/>
            <path id="Trazado_4742" data-name="Trazado 4742" class="cls-6" d="m387.73,265.03h-107.93c-1.03,0-1.87-.84-1.87-1.87s.84-1.87,1.87-1.87h107.93c1.03,0,1.87.84,1.87,1.87s-.84,1.87-1.87,1.87"/>
            <path id="Trazado_4743" data-name="Trazado 4743" class="cls-6" d="m387.73,287.29h-107.93c-1.03,0-1.87-.84-1.87-1.87s.84-1.87,1.87-1.87h107.93c1.03,0,1.87.84,1.87,1.87s-.84,1.87-1.87,1.87"/>
            <path id="Trazado_4744" data-name="Trazado 4744" class="cls-6" d="m387.73,309.54h-107.93c-1.03,0-1.87-.84-1.87-1.87s.84-1.87,1.87-1.87h107.93c1.03,0,1.87.84,1.87,1.87s-.84,1.87-1.87,1.87"/>
            <path id="Trazado_4745" data-name="Trazado 4745" class="cls-6" d="m387.73,331.8h-107.93c-1.03,0-1.87-.84-1.87-1.87s.84-1.87,1.87-1.87h107.93c1.03,0,1.87.84,1.87,1.87s-.84,1.87-1.87,1.87"/>
          </g>
        </g>
      </g>
    </g>
  </g>
</svg>