<?xml version="1.0" encoding="UTF-8"?>
<svg id="Capa_2" data-name="Capa 2" xmlns="http://www.w3.org/2000/svg" viewBox="0 0 300 300">
  <defs>
    <style>
      .cls-1 {
        fill: none;
      }

      .cls-2 {
        fill: #b6cdbf;
      }
    </style>
  </defs>
  <g id="botones">
    <g>
      <rect class="cls-1" width="300" height="300"/>
      <path class="cls-2" d="m205.62,78.07c-1.57-1.97-1.54-2.07-.94-4.78.86-3.86-.35-8.25-3.62-13.05-4.1-6.01-9.67-10.97-16.12-14.34-2-1.05-4.1-1.94-6.12-2.81-1.8-.77-3.66-1.57-5.43-2.46-1-.51-1.99-1.05-2.98-1.59-1.28-.71-2.61-1.44-3.97-2.08-14.97-7.11-31.57-3.69-39.59,3.13-.26.22-.52.45-.78.67-1.37,1.2-2.66,2.34-4.21,2.6-.81.14-1.69.03-2.61-.09-.75-.09-1.52-.19-2.32-.17-3.35.12-6.11,2.36-8.44,4.45-4.89,4.4-10.42,9.8-14.3,16.43-4.11,7.02-5.73,14.59-4.56,21.32.21,1.21.51,2.41.81,3.57.42,1.65.81,3.21.97,4.82.17,1.71.06,3.43-.05,5.24-.06.91-.11,1.81-.14,2.72-.23,9.84,4.54,26.16,18.74,39.8,2.47,2.37,4.94,2.93,7.33,3.47,1.47.33,2.98.68,4.56,1.45,1.06.52,1.84,1.41,2.67,2.35.51.58,1.04,1.17,1.64,1.69,1.84,1.58,4.41,1.76,6.28,1.9,1.94.14,3.89.27,5.84.4,3.81.26,7.75.53,11.62.85.89.08,1.8.18,2.71.28,1.85.21,3.74.42,5.62.42s3.9-.23,5.8-.93c1.22-.45,2.27-1.18,3.29-1.89,1.37-.96,2.67-1.86,4.21-1.94.69-.03,1.41.12,2.18.29.84.18,1.71.38,2.63.33,2.7-.1,4.83-2,6.62-3.78,4.16-4.13,8.26-8.46,12.19-12.87,2.38-2.67,4.63-5.32,6.1-8.49.21-.46.41-.93.61-1.41.49-1.19.96-2.31,1.7-3.22.4-.5.9-.95,1.42-1.42.53-.48,1.08-.98,1.56-1.56.75-.9,1.32-1.97,1.76-3.28,2.3-6.86,2.25-15.46,1.85-23.72-.25-5.16-1.47-8.49-4.51-12.32Zm.77,35.41c-.36,1.07-.82,1.93-1.41,2.64-.39.48-.87.9-1.37,1.36-.56.5-1.13,1.02-1.63,1.65-.91,1.14-1.46,2.44-1.99,3.71-.19.45-.37.9-.58,1.33-1.35,2.92-3.5,5.45-5.78,8-3.9,4.38-7.98,8.68-12.1,12.78-1.59,1.58-3.31,3.13-5.29,3.21-.67.01-1.39-.13-2.14-.29-.86-.18-1.74-.39-2.69-.33-2.11.1-3.71,1.22-5.25,2.29-.95.67-1.86,1.3-2.83,1.65-3.3,1.21-6.96.8-10.51.4-.93-.1-1.86-.21-2.77-.28-3.88-.33-7.83-.59-11.65-.85-1.94-.13-3.89-.26-5.83-.4-2.07-.15-3.88-.36-5.13-1.42-.49-.42-.95-.94-1.44-1.49-.88-1-1.88-2.13-3.29-2.83-1.78-.87-3.42-1.24-4.99-1.6-2.32-.53-4.32-.98-6.39-2.97-8.58-8.24-18.48-23.22-18.12-38.31.02-.88.08-1.76.13-2.64.11-1.81.23-3.68.05-5.56-.17-1.76-.6-3.47-1.02-5.12-.28-1.12-.58-2.28-.78-3.42-1.09-6.26.44-13.36,4.31-19.97,3.74-6.39,9.13-11.65,13.91-15.95,2.16-1.94,4.49-3.84,7.17-3.94.07,0,.14,0,.21,0,.57,0,1.17.07,1.79.15,1.03.13,2.09.26,3.2.07,2.11-.36,3.68-1.74,5.19-3.07.25-.22.5-.44.75-.65,9.74-8.29,26.68-7.95,37.44-2.84,1.31.62,2.61,1.34,3.87,2.03,1.01.55,2.01,1.11,3.04,1.63,1.82.92,3.71,1.73,5.54,2.51,1.99.85,4.05,1.73,5.99,2.75,6.16,3.22,11.48,7.95,15.39,13.69,2.94,4.32,4.06,8.19,3.32,11.49-.71,3.18-.68,3.95,1.32,6.46,2.78,3.5,3.85,6.43,4.08,11.17.39,8.07.45,16.44-1.75,22.99Zm19.43-23.58c-.36-3.41-.76-7.27-1.94-10.59,0,0,0,0,0,0l-.12-.32c-.56-1.49-1.58-2.5-2.57-3.47-.75-.73-1.45-1.43-1.88-2.27-.95-1.84-.67-3.9-.38-6.09.19-1.38.38-2.81.26-4.23-.55-6.54-4.27-12.87-11.38-19.37-4.78-4.36-12-10.5-19.49-13.46-1.09-.43-2.2-.78-3.28-1.13-1.31-.42-2.54-.81-3.75-1.32-1.83-.78-3.52-1.81-5.3-2.9-.85-.52-1.7-1.04-2.56-1.53-14.61-8.29-39.4-9.31-53.97,3.51l-.57.51c-1.52,1.36-3.09,2.76-4.9,2.92-.74.06-1.5-.08-2.31-.24-.54-.1-1.08-.2-1.62-.25-4.26-.39-8.09,2.21-11.29,4.79-8.67,7.01-14.92,14.04-19.08,21.5-5.13,9.18-7.04,19.17-5.39,28.14.21,1.12.47,2.23.73,3.34.43,1.84.84,3.57,1.01,5.36.21,2.2.04,4.39-.14,6.7-.08,1.09-.17,2.19-.21,3.28-.73,18.86,10.73,35.72,19.42,46.76,2.21,2.8,4.92,5.91,8.3,7.69,1.97,1.04,4.1,1.46,6.15,1.86,1.13.22,2.21.45,3.26.75l-18.06,67.17c-2.11,7.86-4.2,15.73-6.28,23.59-1.91,7.23-3.82,14.45-5.76,21.67l-1.07,3.97c-.1.38.03.79.34,1.04s.73.29,1.08.11l20.76-10.72c1.9-.98,4.22-.65,5.77.83l15.97,15.2c.19.18.43.28.69.28.08,0,.15,0,.23-.03.33-.08.59-.31.71-.63,1.07-2.88,5.09-20.12,8.98-36.79,1.06-4.56,2.09-8.96,3-12.81.42,4.92.89,9.82,1.46,14.7.16,1.33.25,2.74.35,4.1.17,2.46.35,5,.87,7.4.06.29.25.54.51.67.14.08.3.11.46.11.13,0,.26-.02.38-.08,2.97-1.22,10.86-7.39,15.57-11.07,1.29-1.01,2.31-1.81,2.88-2.23,1.55-1.14,3.57-1.32,5.28-.45l6.8,3.45c1.29.65,2.58,1.39,3.96,2.16,3.01,1.7,6.12,3.45,9.28,4.43.3.09.63.04.89-.15.25-.19.41-.49.41-.8,0-3.6-1.1-20.04-1.46-24.69-.54-6.89-1.16-13.89-1.76-20.66-.4-4.51-.8-9.02-1.18-13.53-.85-10.14-1.72-20.27-2.59-30.4l-.12-1.42c4.05-.09,6.94-.63,10.68-4.26,7.45-7.23,16.71-16.22,22.78-26.9,1.07-1.88,2.28-3.72,3.46-5.5,2.99-4.53,6.08-9.22,7.06-15.01,1.27-7.51,1.53-14.99.77-22.23l-.05-.49Zm-91.61,155.19c-3.28,14.06-6.95,29.78-8.45,35.07l-14.81-14.1c-2.17-2.06-5.41-2.53-8.07-1.15l-18.75,9.68.48-1.79c1.94-7.22,3.85-14.45,5.76-21.68,2.08-7.87,4.16-15.73,6.28-23.59l18.01-66.98c.17.08.35.15.52.24,1.1.59,2.08,1.4,3.11,2.26.85.7,1.72,1.43,2.69,2.04,3.74,2.37,8.26,2.73,12.24,3.05l2.71.22c.14,3.78.28,7.57.42,11.35.55,15.3,1.13,30.95,2.28,46.55-1.17,4.87-2.76,11.66-4.43,18.84Zm47.64-48.82c.38,4.51.78,9.03,1.18,13.54.6,6.76,1.22,13.76,1.76,20.64.32,4.04,1.24,17.86,1.42,23.13-2.53-.96-5.08-2.4-7.56-3.8-1.33-.75-2.71-1.53-4.03-2.2l-6.8-3.45c-2.39-1.21-5.21-.97-7.37.62-.58.43-1.62,1.24-2.93,2.26-3.84,3-10.61,8.29-13.99,10.23-.31-1.9-.45-3.9-.59-5.84-.1-1.38-.2-2.82-.36-4.2-2.61-22.42-3.44-45.37-4.23-67.57-.13-3.71-.27-7.41-.41-11.12l16.79,1.34c1.22.1,2.41.15,3.55.15,3.23,0,6.14-.39,8.68-1.16,1.62-.5,3.14-1.35,4.61-2.17,2.15-1.21,4.17-2.34,6.39-2.35h.92c.08,0,.16,0,.24,0l.13,1.57c.87,10.13,1.74,20.26,2.59,30.4Zm41.28-83.98c-.91,5.38-3.75,9.69-6.76,14.25-1.19,1.81-2.43,3.68-3.53,5.62-5.93,10.43-15.08,19.31-22.44,26.45-3.81,3.7-6.39,3.71-11.53,3.72h-.93c-2.74.01-5.09,1.34-7.36,2.61-1.44.81-2.79,1.57-4.21,2-3.2.97-7.07,1.29-11.5.93l-17.72-1.41c-.1-.03-.19-.05-.3-.05-.03,0-.05.01-.07.02l-3.4-.27c-3.75-.3-8.01-.64-11.34-2.74-.86-.54-1.65-1.2-2.48-1.89-1.06-.88-2.16-1.79-3.44-2.48-1.99-1.07-4.14-1.49-6.22-1.9-2-.39-3.89-.77-5.6-1.67-3.05-1.6-5.58-4.52-7.66-7.16-8.49-10.79-19.7-27.25-18.99-45.45.04-1.07.12-2.14.2-3.21.18-2.3.36-4.67.13-7.04-.18-1.93-.63-3.81-1.06-5.63-.25-1.08-.51-2.16-.71-3.24-1.57-8.51.27-18.03,5.17-26.8,4.04-7.23,10.12-14.07,18.6-20.92,2.84-2.29,5.9-4.39,9.17-4.39.23,0,.46.01.69.03.48.04.96.14,1.44.22.91.17,1.84.35,2.84.26,2.48-.21,4.39-1.91,6.07-3.42l.56-.49c10.83-9.53,33.67-13.49,51.67-3.27.85.48,1.68.99,2.51,1.5,1.77,1.08,3.59,2.2,5.56,3.04,1.29.55,2.63.98,3.93,1.39,1.05.33,2.13.68,3.16,1.08,7.18,2.83,14.21,8.82,18.88,13.07,6.72,6.14,10.24,12.04,10.74,18.06.1,1.21-.07,2.47-.25,3.8-.32,2.39-.66,4.87.58,7.27.58,1.13,1.43,1.96,2.26,2.77.88.86,1.7,1.67,2.1,2.75l.1.28s0,0,0,0c1.1,3.1,1.49,6.83,1.84,10.13l.05.49c.74,7.05.49,14.35-.75,21.68Zm-53.73-20.07v.21s0,0,0,0c.13,7.13-3.92,13.72-10.55,17.21-3.37,1.78-7.47,2.87-11.39,2.87s-7.77-1.12-10.48-3.8c-4.28-4.23-6.99-9.32-7.64-14.35-.76-5.9,1.35-11.3,5.92-15.21,5.54-4.72,13.71-6.41,20.81-4.31,7.49,2.21,13.09,9.52,13.32,17.38Z"/>
    </g>
  </g>
</svg>