<?xml version="1.0" encoding="UTF-8"?>
<svg id="Capa_2" data-name="Capa 2" xmlns="http://www.w3.org/2000/svg" xmlns:xlink="http://www.w3.org/1999/xlink" viewBox="0 0 598 598">
  <defs>
    <style>
      .cls-1, .cls-2, .cls-3 {
        fill: none;
      }

      .cls-2 {
        isolation: isolate;
      }

      .cls-4 {
        fill: #67de83;
      }

      .cls-5 {
        fill: #00e47c;
      }

      .cls-6 {
        fill: #08312a;
      }

      .cls-3 {
        clip-path: url(#clippath);
      }
    </style>
    <clipPath id="clippath">
      <rect class="cls-1" width="598" height="598"/>
    </clipPath>
  </defs>
  <g id="botones">
    <g id="Grupo_100" data-name="Grupo 100">
      <g class="cls-3">
        <g>
          <rect class="cls-1" x="149" y="113.07" width="300" height="300"/>
          <g>
            <path class="cls-4" d="m348.74,138.21c-1.19-2.85-3.57-4.99-6.52-5.88-2.92-.87-6.05-.41-8.58,1.29-7.62,5.12-30.81,20.68-82.62,9.14-28.02-6.25-50.6-3.85-67.09,7.12-18.44,12.27-24.38,31.89-26.27,42.5-.64,3.59-.21,7.26,1.25,10.59l82.91,190.33c.25.58.82.95,1.44.95.04,0,.07,0,.11,0l189.36-12.77c2.72-.18,5.11-1.6,6.57-3.91,1.46-2.3,1.72-5.08.72-7.61l-91.29-231.75Zm87.91,237.67c-.91,1.44-2.42,2.34-4.12,2.45h0l-188.25,12.69-82.47-189.31c-1.21-2.77-1.57-5.8-1.04-8.78,1.81-10.11,7.45-28.8,24.92-40.43,9.99-6.65,22.4-9.98,37.09-9.98,8.45,0,17.65,1.1,27.57,3.32,53.12,11.84,77.16-4.29,85.06-9.6,1.74-1.17,3.89-1.49,5.92-.89,2.05.62,3.7,2.1,4.51,4.05l91.28,231.72c.63,1.59.46,3.33-.45,4.77Z"/>
            <path class="cls-4" d="m303.73,191.72c-13.96-4.21-27.9-2.53-39.27,4.72-11.37,7.25-18.78,19.18-20.87,33.6-2.07,14.33,1.37,29.43,9.7,42.49,8.33,13.07,20.55,22.56,34.42,26.74,5.04,1.52,10.07,2.27,14.98,2.27,8.7,0,17.02-2.36,24.29-6.99,23.39-14.91,28.4-49.05,11.17-76.1-8.33-13.07-20.55-22.56-34.42-26.74Zm21.56,100.18c-10.58,6.75-23.61,8.3-36.67,4.36-13.15-3.96-24.75-12.99-32.67-25.42-7.92-12.43-11.2-26.76-9.24-40.35,1.95-13.5,8.86-24.65,19.44-31.39,6.75-4.3,14.49-6.49,22.61-6.49,4.61,0,9.33.71,14.06,2.13,13.15,3.96,24.75,12.99,32.67,25.42,16.3,25.59,11.73,57.77-10.2,71.75Z"/>
            <path class="cls-4" d="m317.05,235.76c-.88-3.85-4.06-5.86-7.95-5.01l-1.07.24-.31-1.39c-.37-1.65-.73-3.23-1.1-4.81-.17-.71-.4-1.65-.71-2.58-2.61-7.73-10.67-12.17-18.71-10.33-7.9,1.8-13.26,9.43-12.21,17.37.26,1.92.7,3.83,1.13,5.68.2.84.39,1.68.57,2.52l.14.62-.22.05c-.44.1-.84.18-1.24.29-3.46.91-5.43,4.12-4.69,7.62.11.5.22,1,.34,1.5l1.83,8.09c1.26,5.54,2.51,11.09,3.78,16.63.69,3.03,3.23,5.05,6.07,5.05.44,0,.89-.05,1.34-.15,10.52-2.36,21.76-4.9,34.36-7.79,2.82-.65,4.8-3.28,4.7-6.25-.02-.51-.08-1-.19-1.48-1.95-8.63-3.9-17.25-5.86-25.88Zm-16.72-10.84c.45,1.75.85,3.56,1.23,5.31.15.68.3,1.36.45,2.04l-19.05,4.32c-.2-.83-.41-1.66-.63-2.49-.57-2.17-1.1-4.22-1.29-6.32-.45-4.9,3.2-9.34,8.32-10.1.5-.07.99-.11,1.48-.11,4.43,0,8.37,2.96,9.49,7.34Z"/>
          </g>
        </g>
        <g id="Videos">
          <g class="cls-2">
            <path class="cls-6" d="m181.94,434.52h11.47l16.76,51.12h-7.31l-4.76-15.02h-21.16l-4.76,15.02h-7.03l16.79-51.12Zm14.2,30.07l-8.34-26.34h-.64l-8.31,26.34h17.29Z"/>
            <path class="cls-6" d="m210.41,449.68h6.78l10.33,32.62h.67l10.26-32.62h6.46l-11.89,35.96h-10.68l-11.93-35.96Z"/>
            <path class="cls-6" d="m251.22,442.9c-.7-.4-1.25-.95-1.65-1.65s-.6-1.5-.6-2.4.2-1.7.6-2.4c.4-.7.95-1.25,1.65-1.65.7-.4,1.5-.6,2.4-.6s1.71.2,2.41.6c.71.4,1.27.96,1.67,1.67.4.71.6,1.5.6,2.38s-.2,1.67-.6,2.38-.96,1.27-1.67,1.67c-.71.4-1.51.6-2.41.6s-1.7-.2-2.4-.6Zm-.87,6.78h6.53v35.96h-6.53v-35.96Z"/>
            <path class="cls-6" d="m268.86,483.78c-2.57-1.72-4.47-4.31-5.7-7.79l6.43-1.17c.78,1.99,1.95,3.47,3.51,4.44s3.54,1.46,5.93,1.46c1.54,0,2.88-.2,4.03-.59,1.15-.39,2.03-.95,2.64-1.69s.92-1.6.92-2.59c0-1.11-.39-2.02-1.17-2.72-.78-.7-1.75-1.24-2.91-1.63-1.16-.39-2.78-.83-4.86-1.33-2.77-.66-5.02-1.33-6.76-2.01-1.74-.67-3.23-1.72-4.47-3.12s-1.86-3.28-1.86-5.63c0-2.08.56-3.91,1.69-5.49,1.12-1.57,2.71-2.79,4.76-3.66,2.05-.86,4.42-1.3,7.12-1.3,3.74,0,6.88.84,9.41,2.52,2.53,1.68,4.38,4.11,5.54,7.28l-6.07,1.17c-.71-1.77-1.82-3.11-3.32-3.99-1.5-.89-3.41-1.33-5.73-1.33-2.15,0-3.83.38-5.04,1.14s-1.81,1.83-1.81,3.23c0,1.09.39,1.98,1.17,2.66.78.69,1.76,1.22,2.93,1.62s2.79.81,4.85,1.26c2.84.64,5.14,1.29,6.9,1.95,1.76.66,3.28,1.7,4.54,3.12,1.27,1.42,1.9,3.34,1.9,5.75,0,2.22-.6,4.17-1.81,5.84-1.21,1.67-2.92,2.95-5.13,3.83-2.21.89-4.8,1.33-7.76,1.33-4,0-7.28-.86-9.85-2.57Z"/>
            <path class="cls-6" d="m307.16,484.01c-2.66-1.56-4.72-3.76-6.18-6.58-1.46-2.83-2.18-6.08-2.18-9.75s.73-6.95,2.18-9.78c1.46-2.83,3.51-5.02,6.18-6.58,2.66-1.56,5.73-2.34,9.21-2.34s6.55.78,9.21,2.34c2.66,1.56,4.72,3.76,6.18,6.58,1.46,2.83,2.18,6.09,2.18,9.78s-.73,6.92-2.18,9.75c-1.46,2.83-3.52,5.02-6.18,6.58-2.66,1.56-5.73,2.34-9.21,2.34s-6.55-.78-9.21-2.34Zm15.09-4.93c1.57-1.07,2.75-2.57,3.51-4.51.77-1.94,1.15-4.24,1.15-6.89s-.39-4.95-1.15-6.89c-.77-1.94-1.94-3.44-3.51-4.51-1.57-1.07-3.53-1.6-5.88-1.6s-4.27.53-5.84,1.6c-1.57,1.06-2.75,2.57-3.53,4.51s-1.17,4.24-1.17,6.89.39,4.95,1.17,6.89c.78,1.94,1.96,3.44,3.53,4.51,1.57,1.06,3.52,1.6,5.84,1.6s4.3-.53,5.88-1.6Z"/>
            <path class="cls-6" d="m362.6,483.99c-2.37-1.57-4.22-3.78-5.56-6.62-1.34-2.84-2.01-6.07-2.01-9.69s.67-6.89,2.01-9.73c1.34-2.84,3.19-5.05,5.56-6.62,2.37-1.57,5.05-2.36,8.06-2.36,2.51,0,4.67.61,6.5,1.83s3.42,3.12,4.79,5.7h.57v-24.1h6.53v53.25h-6.18v-7.24h-.57c-1.47,2.75-3.13,4.76-4.99,6.04-1.86,1.28-4.09,1.92-6.69,1.92-2.98,0-5.66-.79-8.02-2.36Zm15.64-4.92c1.55-1.07,2.71-2.57,3.48-4.53.77-1.95,1.15-4.24,1.15-6.87s-.38-4.95-1.15-6.89c-.77-1.94-1.93-3.44-3.48-4.51-1.55-1.07-3.47-1.6-5.77-1.6s-4.22.53-5.79,1.6c-1.56,1.06-2.72,2.57-3.48,4.51-.76,1.94-1.14,4.24-1.14,6.89s.38,4.92,1.15,6.87c.77,1.95,1.93,3.46,3.48,4.53,1.55,1.06,3.47,1.6,5.77,1.6s4.22-.53,5.77-1.6Z"/>
            <path class="cls-6" d="m404.88,483.99c-2.65-1.57-4.7-3.78-6.16-6.6-1.46-2.83-2.18-6.08-2.18-9.74s.72-6.88,2.17-9.71c1.44-2.83,3.47-5.03,6.09-6.6,2.61-1.57,5.64-2.36,9.07-2.36s6.35.78,8.91,2.33c2.56,1.55,4.53,3.72,5.93,6.5s2.09,5.97,2.09,9.57v2.31h-27.19c.17,2.27.66,4.23,1.49,5.88.83,1.65,1.99,2.92,3.5,3.82,1.5.9,3.32,1.35,5.45,1.35s3.94-.45,5.43-1.35c1.49-.9,2.64-2.19,3.44-3.87l6.96.6c-.8,2.11-1.97,3.93-3.5,5.47-1.53,1.54-3.34,2.72-5.45,3.55s-4.4,1.24-6.89,1.24c-3.46,0-6.51-.79-9.16-2.36Zm18.99-19.54c-.35-3.1-1.36-5.51-3.02-7.24s-3.96-2.59-6.92-2.59-5.37.86-7.1,2.59-2.77,4.14-3.12,7.24h20.16Z"/>
            <path class="cls-5" d="m130.11,502.52h18.5c3.88,0,7.27.69,10.17,2.08,2.9,1.38,5.13,3.32,6.69,5.8,1.56,2.49,2.34,5.34,2.34,8.56s-.78,6.07-2.34,8.56c-1.56,2.49-3.79,4.42-6.69,5.8-2.9,1.38-6.29,2.08-10.17,2.08h-7.74v18.25h-10.76v-51.12Zm18.5,24.1c1.73,0,3.18-.32,4.37-.96,1.18-.64,2.08-1.53,2.68-2.68.6-1.15.91-2.49.91-4.03s-.3-2.88-.91-4.03c-.6-1.15-1.5-2.04-2.68-2.68-1.18-.64-2.64-.96-4.37-.96h-7.74v15.34h7.74Z"/>
            <path class="cls-5" d="m173.13,517.22h9.87v8.91h.57c.95-2.46,1.9-4.39,2.86-5.79s1.98-2.38,3.07-2.96c1.09-.58,2.34-.87,3.76-.87.5,0,.98.03,1.44.09.46.06.85.15,1.15.27v10.51c-1.35-.36-2.86-.53-4.54-.53-2.67,0-4.67.54-5.98,1.62-1.31,1.08-1.97,2.69-1.97,4.85v20.34h-10.22v-36.42Z"/>
            <path class="cls-5" d="m202.28,512.46c-.97-.54-1.73-1.3-2.29-2.27-.56-.97-.83-2.08-.83-3.34s.28-2.37.83-3.34c.56-.97,1.32-1.73,2.29-2.27.97-.54,2.07-.82,3.3-.82s2.33.27,3.3.82c.97.54,1.73,1.3,2.27,2.27.54.97.82,2.08.82,3.34s-.27,2.37-.82,3.34c-.54.97-1.3,1.73-2.27,2.27-.97.54-2.07.82-3.3.82s-2.33-.27-3.3-.82Zm-1.81,4.76h10.22v36.42h-10.22v-36.42Z"/>
            <path class="cls-5" d="m214.95,517.22h10.4l8.77,32.06h.6l8.77-32.06h10.01l-11.15,36.42h-16.26l-11.15-36.42Z"/>
            <path class="cls-5" d="m260.34,553.06c-1.67-.86-2.97-2.08-3.91-3.64-.94-1.56-1.4-3.36-1.4-5.4,0-3.38,1.41-6.08,4.22-8.08s7.06-3.37,12.74-4.1l6.32-.82c-.07-2.3-.62-3.97-1.63-5.02-1.02-1.05-2.57-1.58-4.65-1.58-1.78,0-3.21.37-4.3,1.12-1.09.75-1.92,1.94-2.48,3.57l-9.51-.78c.62-2.53,1.67-4.68,3.18-6.44,1.5-1.76,3.41-3.1,5.73-4.01,2.32-.91,4.99-1.37,8.02-1.37,3.36,0,6.22.56,8.59,1.67,2.37,1.11,4.17,2.75,5.41,4.92,1.24,2.17,1.86,4.8,1.86,7.9v22.65h-9.87v-7.6h-.57c-1.54,2.84-3.29,4.93-5.25,6.28-1.96,1.35-4.24,2.02-6.82,2.02-2.13,0-4.03-.43-5.7-1.3Zm6.64-7.56c.84.63,2.09.94,3.75.94,1.51,0,2.85-.26,3.99-.78,1.15-.52,2.04-1.26,2.66-2.22.63-.96.94-2.08.94-3.35v-2.7l-4.83.67c-1.94.26-3.47.59-4.58.98-1.11.39-1.92.88-2.43,1.46-.51.58-.76,1.32-.76,2.22,0,1.23.42,2.16,1.26,2.79Z"/>
            <path class="cls-5" d="m303.03,551.94c-2.82-1.61-5-3.85-6.55-6.71-1.55-2.86-2.33-6.13-2.33-9.8s.77-6.93,2.33-9.8c1.55-2.86,3.73-5.1,6.55-6.71s6.07-2.41,9.76-2.41c2.72,0,5.24.48,7.54,1.44,2.31.96,4.28,2.38,5.93,4.26,1.64,1.88,2.85,4.16,3.6,6.83l-10.05,1.53c-.52-1.96-1.41-3.48-2.66-4.54-1.25-1.06-2.83-1.6-4.72-1.6-2.65,0-4.6.98-5.84,2.93-1.24,1.95-1.86,4.65-1.86,8.08s.62,6.04,1.86,7.9c1.24,1.86,3.19,2.79,5.84,2.79,1.89,0,3.46-.53,4.69-1.6,1.23-1.07,2.12-2.6,2.66-4.62l10.12,1.56c-.76,2.79-1.96,5.15-3.62,7.08-1.66,1.93-3.63,3.38-5.93,4.35-2.3.97-4.82,1.46-7.56,1.46-3.69,0-6.95-.8-9.76-2.41Z"/>
            <path class="cls-5" d="m336.79,512.46c-.97-.54-1.73-1.3-2.29-2.27-.56-.97-.83-2.08-.83-3.34s.28-2.37.83-3.34c.56-.97,1.32-1.73,2.29-2.27.97-.54,2.07-.82,3.3-.82s2.33.27,3.3.82c.97.54,1.73,1.3,2.27,2.27.54.97.82,2.08.82,3.34s-.27,2.37-.82,3.34c-.54.97-1.3,1.73-2.27,2.27-.97.54-2.07.82-3.3.82s-2.33-.27-3.3-.82Zm-1.81,4.76h10.22v36.42h-10.22v-36.42Z"/>
            <path class="cls-5" d="m358.21,551.92c-2.21-1.62-3.94-3.86-5.18-6.73-1.24-2.86-1.86-6.09-1.86-9.69s.62-6.88,1.85-9.76c1.23-2.89,2.95-5.15,5.17-6.78s4.73-2.45,7.54-2.45c2.53,0,4.73.67,6.58,2.01,1.86,1.34,3.34,3.3,4.46,5.88h.57v-24h10.22v53.25h-9.87v-7.6h-.57c-1.37,2.79-2.98,4.88-4.83,6.25-1.85,1.37-4.02,2.06-6.53,2.06-2.82,0-5.33-.81-7.54-2.43Zm17.57-8.43c1.27-1.96,1.9-4.65,1.9-8.06s-.63-6.09-1.9-8.06c-1.27-1.96-3.26-2.95-5.98-2.95s-4.72.98-6,2.95c-1.28,1.96-1.92,4.65-1.92,8.06s.64,6.09,1.92,8.06c1.28,1.96,3.28,2.95,6,2.95s4.71-.98,5.98-2.95Z"/>
            <path class="cls-5" d="m398.22,553.06c-1.67-.86-2.97-2.08-3.91-3.64-.94-1.56-1.4-3.36-1.4-5.4,0-3.38,1.41-6.08,4.22-8.08s7.06-3.37,12.74-4.1l6.32-.82c-.07-2.3-.62-3.97-1.63-5.02-1.02-1.05-2.57-1.58-4.65-1.58-1.78,0-3.21.37-4.3,1.12-1.09.75-1.92,1.94-2.48,3.57l-9.51-.78c.62-2.53,1.67-4.68,3.18-6.44,1.5-1.76,3.41-3.1,5.73-4.01,2.32-.91,4.99-1.37,8.02-1.37,3.36,0,6.22.56,8.59,1.67,2.37,1.11,4.17,2.75,5.41,4.92,1.24,2.17,1.86,4.8,1.86,7.9v22.65h-9.87v-7.6h-.57c-1.54,2.84-3.29,4.93-5.25,6.28-1.96,1.35-4.24,2.02-6.82,2.02-2.13,0-4.03-.43-5.7-1.3Zm6.64-7.56c.84.63,2.09.94,3.75.94,1.51,0,2.85-.26,3.99-.78,1.15-.52,2.04-1.26,2.66-2.22.63-.96.94-2.08.94-3.35v-2.7l-4.83.67c-1.94.26-3.47.59-4.58.98-1.11.39-1.92.88-2.43,1.46-.51.58-.76,1.32-.76,2.22,0,1.23.42,2.16,1.26,2.79Z"/>
            <path class="cls-5" d="m439.08,551.92c-2.21-1.62-3.94-3.86-5.18-6.73-1.24-2.86-1.86-6.09-1.86-9.69s.62-6.88,1.85-9.76c1.23-2.89,2.95-5.15,5.17-6.78,2.21-1.63,4.73-2.45,7.54-2.45,2.53,0,4.73.67,6.59,2.01,1.86,1.34,3.34,3.3,4.46,5.88h.57v-24h10.22v53.25h-9.87v-7.6h-.57c-1.37,2.79-2.98,4.88-4.83,6.25-1.85,1.37-4.02,2.06-6.53,2.06-2.82,0-5.33-.81-7.54-2.43Zm17.57-8.43c1.27-1.96,1.9-4.65,1.9-8.06s-.63-6.09-1.9-8.06c-1.27-1.96-3.26-2.95-5.98-2.95s-4.72.98-6,2.95c-1.28,1.96-1.92,4.65-1.92,8.06s.64,6.09,1.92,8.06c1.28,1.96,3.28,2.95,6,2.95s4.72-.98,5.98-2.95Z"/>
          </g>
        </g>
      </g>
    </g>
  </g>
</svg>