<?xml version="1.0" encoding="UTF-8"?>
<svg id="Capa_2" data-name="Capa 2" xmlns="http://www.w3.org/2000/svg" xmlns:xlink="http://www.w3.org/1999/xlink" viewBox="0 0 300 300">
  <defs>
    <style>
      .cls-1, .cls-2 {
        fill: none;
      }

      .cls-3 {
        fill: #00e47c;
      }

      .cls-2 {
        clip-path: url(#clippath);
      }
    </style>
    <clipPath id="clippath">
      <rect class="cls-1" width="300" height="300"/>
    </clipPath>
  </defs>
  <g id="botones">
    <g class="cls-2">
      <g id="Grupo_1584" data-name="Grupo 1584">
        <path id="Trazado_4752" data-name="Trazado 4752" class="cls-3" d="m33.03,178.26c-4.57-2.71-8.25-6.7-10.59-11.46-4.93-10.66-4.93-22.94,0-33.6,2.34-4.77,6.02-8.75,10.59-11.46,4.88-2.82,10.44-4.25,16.08-4.13,4.31-.05,8.58.79,12.55,2.45,3.8,1.62,7.16,4.11,9.82,7.26,2.83,3.42,4.88,7.43,6,11.73l-13.5,2.06c-.88-3.56-2.79-6.77-5.49-9.24-2.66-2.22-6.05-3.38-9.51-3.26-3.11-.07-6.17.84-8.73,2.6-2.57,1.88-4.54,4.46-5.67,7.44-2.62,7.34-2.62,15.37,0,22.71,1.12,2.98,3.09,5.56,5.67,7.44,2.56,1.77,5.62,2.68,8.73,2.6,3.5.12,6.93-1.08,9.58-3.38,2.76-2.63,4.66-6.03,5.47-9.75l13.5,2.1c-1.09,4.42-3.13,8.54-6,12.08-2.65,3.23-6.03,5.78-9.87,7.44-3.98,1.69-8.26,2.54-12.58,2.49-5.64.12-11.2-1.3-16.08-4.12"/>
        <rect id="Rect치ngulo_1298" data-name="Rect치ngulo 1298" class="cls-3" x="85.34" y="118.5" width="13.26" height="63"/>
        <path id="Trazado_4753" data-name="Trazado 4753" class="cls-3" d="m108.75,118.5h40.99v10.81h-27.75v14.65h24.26v10.85h-24.25v15.88h28.61v10.81h-41.86v-63Z"/>
        <rect id="Rect치ngulo_1299" data-name="Rect치ngulo 1299" class="cls-3" x="156.78" y="149.82" width="21" height="10.76"/>
        <path id="Trazado_4754" data-name="Trazado 4754" class="cls-3" d="m188.25,170.65h13.7v-40.29h-.7c-.47,2.87-2.21,5.39-4.72,6.85-3.07,1.65-6.53,2.45-10.02,2.29v-11.2c3.36.14,6.69-.66,9.63-2.3,2.71-1.79,4.76-4.43,5.82-7.5h12.93v52.15h13.7v10.85h-40.32v-10.85Z"/>
        <path id="Trazado_4755" data-name="Trazado 4755" class="cls-3" d="m240.91,170.65h13.7v-40.29h-.7c-.47,2.87-2.21,5.39-4.73,6.85-3.07,1.65-6.53,2.45-10.02,2.29v-11.2c3.36.14,6.69-.66,9.63-2.29,2.71-1.79,4.76-4.43,5.82-7.5h12.95v52.15h13.7v10.85h-40.34v-10.85Z"/>
      </g>
    </g>
  </g>
</svg>