<?xml version="1.0" encoding="UTF-8"?>
<svg id="Capa_2" data-name="Capa 2" xmlns="http://www.w3.org/2000/svg" xmlns:xlink="http://www.w3.org/1999/xlink" viewBox="0 0 598 598">
  <defs>
    <style>
      .cls-1, .cls-2, .cls-3 {
        fill: none;
      }

      .cls-2 {
        isolation: isolate;
      }

      .cls-4 {
        fill: #67de83;
      }

      .cls-5 {
        fill: #00e47c;
      }

      .cls-6 {
        fill: #08312a;
      }

      .cls-3 {
        clip-path: url(#clippath);
      }
    </style>
    <clipPath id="clippath">
      <rect class="cls-1" width="598" height="598"/>
    </clipPath>
  </defs>
  <g id="botones">
    <g id="Grupo_100" data-name="Grupo 100">
      <g class="cls-3">
        <g id="Videos">
          <g class="cls-2">
            <path class="cls-6" d="m193.25,440.56h-16.29v45.08h-6.99v-45.08h-16.29v-6.04h39.58v6.04Z"/>
            <path class="cls-6" d="m199.81,483.99c-2.65-1.57-4.7-3.78-6.16-6.6-1.46-2.83-2.18-6.08-2.18-9.74s.72-6.88,2.17-9.71c1.44-2.83,3.47-5.03,6.09-6.6s5.64-2.36,9.07-2.36,6.35.78,8.91,2.33c2.56,1.55,4.53,3.72,5.93,6.5s2.09,5.97,2.09,9.57v2.31h-27.19c.17,2.27.66,4.23,1.49,5.88.83,1.65,1.99,2.92,3.5,3.82,1.5.9,3.32,1.35,5.45,1.35s3.94-.45,5.43-1.35c1.49-.9,2.64-2.19,3.44-3.87l6.96.6c-.81,2.11-1.97,3.93-3.5,5.47-1.53,1.54-3.34,2.72-5.45,3.55s-4.4,1.24-6.89,1.24c-3.46,0-6.51-.79-9.16-2.36Zm18.99-19.54c-.35-3.1-1.36-5.51-3.02-7.24s-3.96-2.59-6.92-2.59-5.37.86-7.1,2.59-2.77,4.14-3.12,7.24h20.16Zm-7.85-32.7h7.03l-8.13,11.75h-6.18l7.28-11.75Z"/>
            <path class="cls-6" d="m233.18,449.68h6.18v7.95h.57c.95-2.13,1.9-3.82,2.88-5.08.97-1.25,2.04-2.17,3.21-2.73,1.17-.57,2.54-.85,4.1-.85.45,0,.91.03,1.38.09.47.06.89.16,1.24.3v7.03c-.47-.14-1.06-.25-1.77-.34s-1.42-.12-2.13-.12c-1.96,0-3.63.36-4.99,1.07s-2.39,1.75-3.09,3.11c-.7,1.36-1.05,3-1.05,4.92v20.63h-6.53v-35.96Z"/>
            <path class="cls-6" d="m293.48,450.98c2.05-1.34,4.41-2.01,7.08-2.01,2.34,0,4.36.51,6.05,1.54,1.69,1.03,2.98,2.54,3.87,4.54.89,2,1.33,4.41,1.33,7.22v23.36h-6.53v-22.51c0-2.86-.64-4.99-1.92-6.39-1.28-1.4-3.18-2.09-5.72-2.09-1.94,0-3.6.39-4.99,1.17-1.38.78-2.44,1.91-3.16,3.37s-1.08,3.22-1.08,5.25v21.19h-6.53v-22.51c0-2.89-.63-5.02-1.88-6.41-1.25-1.38-3.15-2.08-5.68-2.08-1.94,0-3.61.4-5.01,1.19-1.4.79-2.46,1.94-3.2,3.44-.73,1.5-1.1,3.28-1.1,5.34v21.02h-6.53v-35.96h6.18v7.24h.57c1.35-2.63,3.03-4.61,5.04-5.95,2.01-1.34,4.31-2.01,6.89-2.01s4.95.68,6.76,2.04c1.81,1.36,3.08,3.33,3.82,5.91h.57c1.4-2.63,3.12-4.61,5.17-5.95Z"/>
            <path class="cls-6" d="m321.03,442.9c-.7-.4-1.25-.95-1.65-1.65-.4-.7-.6-1.5-.6-2.4s.2-1.7.6-2.4c.4-.7.95-1.25,1.65-1.65s1.5-.6,2.4-.6,1.7.2,2.41.6,1.27.96,1.67,1.67c.4.71.6,1.5.6,2.38s-.2,1.67-.6,2.38-.96,1.27-1.67,1.67c-.71.4-1.51.6-2.41.6s-1.7-.2-2.4-.6Zm-.87,6.78h6.53v35.96h-6.53v-35.96Z"/>
            <path class="cls-6" d="m335.49,449.68h6.18v7.24h.57c1.37-2.63,3.09-4.61,5.17-5.95,2.07-1.34,4.43-2.01,7.08-2.01,2.41,0,4.5.54,6.25,1.62,1.75,1.08,3.09,2.63,4.01,4.67.92,2.04,1.38,4.46,1.38,7.28v23.11h-6.53v-22.33c0-5.77-2.64-8.66-7.92-8.66-2.01,0-3.74.4-5.18,1.19-1.44.79-2.55,1.94-3.32,3.44-.77,1.5-1.15,3.28-1.15,5.34v21.02h-6.53v-35.96Z"/>
            <path class="cls-6" d="m381.55,484.01c-2.66-1.56-4.72-3.76-6.18-6.58s-2.18-6.08-2.18-9.75.73-6.95,2.18-9.78,3.51-5.02,6.18-6.58c2.66-1.56,5.73-2.34,9.21-2.34s6.55.78,9.21,2.34c2.66,1.56,4.72,3.76,6.18,6.58,1.46,2.83,2.18,6.09,2.18,9.78s-.73,6.92-2.18,9.75c-1.46,2.83-3.51,5.02-6.18,6.58-2.66,1.56-5.73,2.34-9.21,2.34s-6.55-.78-9.21-2.34Zm15.09-4.93c1.57-1.07,2.75-2.57,3.51-4.51.77-1.94,1.15-4.24,1.15-6.89s-.38-4.95-1.15-6.89c-.77-1.94-1.94-3.44-3.51-4.51-1.57-1.07-3.53-1.6-5.88-1.6s-4.27.53-5.84,1.6c-1.57,1.06-2.75,2.57-3.53,4.51-.78,1.94-1.17,4.24-1.17,6.89s.39,4.95,1.17,6.89c.78,1.94,1.96,3.44,3.53,4.51,1.57,1.06,3.52,1.6,5.84,1.6s4.3-.53,5.88-1.6Z"/>
            <path class="cls-6" d="m419.01,483.78c-2.57-1.72-4.47-4.31-5.7-7.79l6.43-1.17c.78,1.99,1.95,3.47,3.51,4.44,1.56.97,3.54,1.46,5.93,1.46,1.54,0,2.88-.2,4.03-.59,1.15-.39,2.03-.95,2.64-1.69.62-.73.92-1.6.92-2.59,0-1.11-.39-2.02-1.17-2.72-.78-.7-1.75-1.24-2.91-1.63-1.16-.39-2.78-.83-4.86-1.33-2.77-.66-5.02-1.33-6.76-2.01-1.74-.67-3.23-1.72-4.47-3.12-1.24-1.41-1.86-3.28-1.86-5.63,0-2.08.56-3.91,1.69-5.49,1.12-1.57,2.71-2.79,4.76-3.66,2.05-.86,4.42-1.3,7.12-1.3,3.74,0,6.87.84,9.41,2.52,2.53,1.68,4.38,4.11,5.54,7.28l-6.07,1.17c-.71-1.77-1.82-3.11-3.32-3.99-1.5-.89-3.41-1.33-5.73-1.33-2.15,0-3.83.38-5.04,1.14s-1.81,1.83-1.81,3.23c0,1.09.39,1.98,1.17,2.66.78.69,1.76,1.22,2.93,1.62,1.17.39,2.79.81,4.85,1.26,2.84.64,5.14,1.29,6.9,1.95,1.76.66,3.28,1.7,4.54,3.12s1.9,3.34,1.9,5.75c0,2.22-.6,4.17-1.81,5.84-1.21,1.67-2.92,2.95-5.13,3.83s-4.8,1.33-7.76,1.33c-4,0-7.28-.86-9.85-2.57Z"/>
            <path class="cls-5" d="m89.87,553.64h-6.85l-11.15-36.42h10.4l8.77,32.06h.6l8.77-32.06h10.01l-15.44,50.62h-10.01l4.9-14.2Z"/>
            <path class="cls-5" d="m137.41,551.94c-2.82-1.61-5-3.85-6.55-6.71-1.55-2.86-2.33-6.13-2.33-9.8s.77-6.93,2.33-9.8c1.55-2.86,3.73-5.1,6.55-6.71s6.07-2.41,9.76-2.41c2.72,0,5.24.48,7.54,1.44,2.31.96,4.28,2.38,5.93,4.26,1.64,1.88,2.85,4.16,3.6,6.83l-10.05,1.53c-.52-1.96-1.41-3.48-2.66-4.54-1.25-1.06-2.83-1.6-4.72-1.6-2.65,0-4.6.98-5.84,2.93-1.24,1.95-1.86,4.65-1.86,8.08s.62,6.04,1.86,7.9c1.24,1.86,3.19,2.79,5.84,2.79,1.89,0,3.46-.53,4.69-1.6,1.23-1.07,2.12-2.6,2.66-4.62l10.12,1.56c-.76,2.79-1.96,5.15-3.62,7.08-1.66,1.93-3.63,3.38-5.93,4.35-2.3.97-4.82,1.46-7.56,1.46-3.69,0-6.95-.8-9.76-2.41Z"/>
            <path class="cls-5" d="m177.36,551.99c-2.85-1.57-5.08-3.8-6.67-6.67-1.6-2.88-2.4-6.17-2.4-9.89s.8-7,2.4-9.87,3.82-5.09,6.67-6.67c2.85-1.58,6.11-2.38,9.78-2.38s6.93.79,9.78,2.38c2.85,1.59,5.07,3.81,6.66,6.67,1.58,2.86,2.38,6.15,2.38,9.87s-.79,7.04-2.38,9.91c-1.59,2.86-3.8,5.08-6.64,6.66s-6.11,2.36-9.8,2.36-6.93-.79-9.78-2.36Zm15.9-8.5c1.31-1.96,1.97-4.65,1.97-8.06s-.66-6.09-1.97-8.06c-1.31-1.96-3.36-2.95-6.12-2.95s-4.82.98-6.14,2.95c-1.33,1.96-1.99,4.65-1.99,8.06s.66,6.12,1.99,8.08c1.33,1.95,3.37,2.93,6.14,2.93s4.81-.98,6.12-2.95Z"/>
            <path class="cls-5" d="m211.92,517.22h9.87v7.63h.57c2.98-5.56,7.03-8.34,12.14-8.34,2.34,0,4.38.54,6.12,1.63,1.74,1.09,3.08,2.65,4.01,4.69.93,2.04,1.4,4.45,1.4,7.24v23.57h-10.22v-22.26c0-2.22-.56-3.94-1.67-5.15-1.11-1.21-2.71-1.81-4.79-1.81-1.51,0-2.81.31-3.89.94-1.08.63-1.9,1.54-2.47,2.75-.57,1.21-.85,2.67-.85,4.4v21.12h-10.22v-36.42Z"/>
            <path class="cls-5" d="m258.69,551.92c-2.21-1.62-3.94-3.86-5.18-6.73-1.24-2.86-1.86-6.09-1.86-9.69s.62-6.88,1.85-9.76c1.23-2.89,2.95-5.15,5.17-6.78s4.73-2.45,7.54-2.45c2.53,0,4.73.67,6.58,2.01,1.86,1.34,3.34,3.3,4.46,5.88h.57v-24h10.22v53.25h-9.87v-7.6h-.57c-1.37,2.79-2.98,4.88-4.83,6.25-1.85,1.37-4.02,2.06-6.53,2.06-2.82,0-5.33-.81-7.54-2.43Zm17.57-8.43c1.27-1.96,1.9-4.65,1.9-8.06s-.63-6.09-1.9-8.06c-1.27-1.96-3.26-2.95-5.98-2.95s-4.72.98-6,2.95c-1.28,1.96-1.92,4.65-1.92,8.06s.64,6.09,1.92,8.06c1.28,1.96,3.28,2.95,6,2.95s4.71-.98,5.98-2.95Z"/>
            <path class="cls-5" d="m296.87,512.46c-.97-.54-1.73-1.3-2.29-2.27-.56-.97-.83-2.08-.83-3.34s.28-2.37.83-3.34c.56-.97,1.32-1.73,2.29-2.27.97-.54,2.07-.82,3.3-.82s2.33.27,3.3.82c.97.54,1.73,1.3,2.27,2.27.54.97.82,2.08.82,3.34s-.27,2.37-.82,3.34c-.54.97-1.3,1.73-2.27,2.27-.97.54-2.07.82-3.3.82s-2.33-.27-3.3-.82Zm-1.81,4.76h10.22v36.42h-10.22v-36.42Z"/>
            <path class="cls-5" d="m320.12,551.94c-2.82-1.61-5-3.85-6.55-6.71s-2.33-6.13-2.33-9.8.78-6.93,2.33-9.8c1.55-2.86,3.73-5.1,6.55-6.71s6.07-2.41,9.76-2.41c2.72,0,5.24.48,7.54,1.44,2.31.96,4.28,2.38,5.93,4.26,1.64,1.88,2.85,4.16,3.6,6.83l-10.05,1.53c-.52-1.96-1.41-3.48-2.66-4.54-1.26-1.06-2.83-1.6-4.72-1.6-2.65,0-4.6.98-5.84,2.93-1.24,1.95-1.86,4.65-1.86,8.08s.62,6.04,1.86,7.9c1.24,1.86,3.19,2.79,5.84,2.79,1.89,0,3.46-.53,4.69-1.6,1.23-1.07,2.12-2.6,2.66-4.62l10.12,1.56c-.76,2.79-1.96,5.15-3.62,7.08-1.66,1.93-3.63,3.38-5.93,4.35-2.3.97-4.82,1.46-7.56,1.46-3.69,0-6.95-.8-9.76-2.41Z"/>
            <path class="cls-5" d="m353.88,512.46c-.97-.54-1.73-1.3-2.29-2.27-.56-.97-.83-2.08-.83-3.34s.28-2.37.83-3.34c.56-.97,1.32-1.73,2.29-2.27.97-.54,2.07-.82,3.3-.82s2.33.27,3.3.82c.97.54,1.73,1.3,2.27,2.27.54.97.82,2.08.82,3.34s-.27,2.37-.82,3.34c-.54.97-1.3,1.73-2.27,2.27-.97.54-2.07.82-3.3.82s-2.33-.27-3.3-.82Zm-1.81,4.76h10.22v36.42h-10.22v-36.42Z"/>
            <path class="cls-5" d="m377.33,551.99c-2.85-1.57-5.08-3.8-6.67-6.67-1.6-2.88-2.4-6.17-2.4-9.89s.8-7,2.4-9.87,3.82-5.09,6.67-6.67c2.85-1.58,6.11-2.38,9.78-2.38s6.93.79,9.78,2.38c2.85,1.59,5.07,3.81,6.66,6.67s2.38,6.15,2.38,9.87-.79,7.04-2.38,9.91-3.8,5.08-6.64,6.66-6.11,2.36-9.8,2.36-6.93-.79-9.78-2.36Zm15.9-8.5c1.31-1.96,1.97-4.65,1.97-8.06s-.66-6.09-1.97-8.06c-1.31-1.96-3.35-2.95-6.12-2.95s-4.82.98-6.14,2.95c-1.33,1.96-1.99,4.65-1.99,8.06s.66,6.12,1.99,8.08c1.33,1.95,3.37,2.93,6.14,2.93s4.81-.98,6.12-2.95Z"/>
            <path class="cls-5" d="m411.89,517.22h9.87v7.63h.57c2.98-5.56,7.03-8.34,12.14-8.34,2.34,0,4.38.54,6.12,1.63,1.74,1.09,3.08,2.65,4.01,4.69.93,2.04,1.4,4.45,1.4,7.24v23.57h-10.22v-22.26c0-2.22-.56-3.94-1.67-5.15s-2.71-1.81-4.79-1.81c-1.51,0-2.81.31-3.89.94-1.08.63-1.9,1.54-2.47,2.75-.57,1.21-.85,2.67-.85,4.4v21.12h-10.22v-36.42Z"/>
            <path class="cls-5" d="m460.63,551.94c-2.86-1.61-5.08-3.85-6.66-6.71-1.57-2.86-2.36-6.13-2.36-9.8s.78-6.9,2.33-9.78c1.55-2.88,3.73-5.12,6.53-6.73s6.02-2.41,9.64-2.41,6.76.8,9.48,2.4c2.72,1.6,4.82,3.82,6.3,6.67s2.22,6.1,2.22,9.74v2.98h-25.77c.28,2.65,1.08,4.73,2.38,6.23s3.17,2.25,5.61,2.25c1.63,0,3.03-.34,4.19-1.03,1.16-.69,2.05-1.67,2.66-2.95l10.22.85c-.83,2.3-2.06,4.24-3.71,5.84-1.64,1.6-3.58,2.8-5.82,3.62s-4.67,1.22-7.3,1.22c-3.76,0-7.08-.8-9.94-2.41Zm16.93-20.48c-.24-2.29-.95-4.09-2.13-5.4-1.18-1.3-2.92-1.95-5.22-1.95s-4.08.65-5.36,1.95c-1.28,1.3-2.09,3.1-2.45,5.4h15.16Z"/>
            <path class="cls-5" d="m498.19,551.73c-2.77-1.75-4.8-4.41-6.11-7.99l9.34-1.81c.57,1.63,1.48,2.85,2.73,3.66,1.25.8,2.88,1.21,4.86,1.21,1.14,0,2.14-.12,3-.37.86-.25,1.54-.62,2.02-1.1s.73-1.06.73-1.72c0-.76-.33-1.4-.99-1.92-.66-.52-1.5-.94-2.52-1.26s-2.43-.69-4.22-1.12c-2.91-.71-5.31-1.43-7.19-2.15-1.88-.72-3.5-1.83-4.86-3.34-1.36-1.5-2.04-3.5-2.04-5.98,0-2.27.63-4.27,1.88-5.98,1.25-1.72,3.05-3.04,5.38-3.96,2.33-.92,5.08-1.38,8.25-1.38,4.09,0,7.49.83,10.19,2.5,2.7,1.67,4.69,4.14,5.96,7.4l-9.09,2.02c-.59-1.42-1.53-2.5-2.8-3.23-1.28-.73-2.88-1.1-4.79-1.1-1.63,0-2.89.24-3.78.73-.89.49-1.33,1.18-1.33,2.08,0,.76.33,1.38.99,1.88.66.5,1.5.89,2.5,1.19,1.01.3,2.42.65,4.24,1.05,2.98.69,5.44,1.38,7.37,2.09s3.6,1.83,5.01,3.37c1.41,1.54,2.11,3.6,2.11,6.18,0,2.44-.68,4.54-2.04,6.3-1.36,1.76-3.26,3.1-5.7,4.01-2.44.91-5.27,1.37-8.48,1.37-4.31,0-7.85-.88-10.61-2.63Z"/>
          </g>
        </g>
        <g>
          <rect class="cls-1" x="149" y="113.07" width="300" height="300"/>
          <path class="cls-4" d="m418.42,133.57c-1.21-1.27-2.78-1.83-4.63-1.63-4.03.39-9.91,4.69-17.49,12.79-.9-2.31-1.31-3.23-1.4-3.42-.26-.55-.83-.87-1.41-.85l-183.29,8.91c-.6.03-1.15.46-1.34,1.05-.02.06-.05.16-.06.26l-30.92,236c-.06.44.09.87.39,1.19.27.3.66.47,1.15.47h.01l5.94-.35-1.72,4.22c-.19.47-.13,1,.17,1.41.27.39.72.62,1.28.62h0l184.13-10.78c.51,0,1-.27,1.26-.71,21.17-35.05,34.76-76.03,40.4-121.81,5.36-43.51,1.97-78.85-.55-96.14,2.1-3.95,3.95-7.72,5.51-11.21,4.65-10.41,5.49-16.96,2.57-20.02Zm-167.13,187.98c2.31-4.14,6.04-9.29,11.48-12.6.52-.31.92-.35,1.07-.35.13,0,.2.02.21.03.02.03.08.16.07.47-.02.59-.41,1.26-.78,1.84-2.84,4.48-7.08,8.21-12.04,10.61Zm-19.58,3.81c.47.86,1.34,1.55,2.33,1.82-.01.07-.03.15-.05.22l-.07.35c-.75,3.57-2.52,11.94-6.53,12.56-.06,0-.09.01-.11.02-.3-.4-.42-2.19.13-4.52.62-2.59,1.39-4.87,2.3-6.77.58-1.22,1.23-2.43,1.99-3.68Zm126.55-129.7c-.41.64-.27,1.48.33,1.95l.99.77-72.35,106.46c-.15.22-.34.53-5.96,19.46-.1.28-.14.58-.13.89-2.97.86-9.47,1.03-11.68.45-6.1-1.58-11.42-1.02-16.25,1.74-3.34,1.91-4.2,1.54-4.28,1.49-.08-.05-.24-.32-.25-1.04,0-.74.29-1.52.61-2.28,6.88-2.47,12.74-7.1,16.52-13.05.62-.98,1.2-2.06,1.24-3.34.06-1.89-.92-2.75-1.52-3.09-1.15-.68-2.84-.55-4.3.34-7.57,4.6-12.05,12.4-14.1,16.77-3.24,1.02-6.58,1.47-9.87,1.34-.06-1.04-.36-1.83-.91-2.4-.31-.32-.95-.8-1.97-.8h-.03c1.73-2.42,3.61-4.76,5.27-6.8,1.12-1.38,3.46-4.26,5.7-4.26.37.05.74-.07,1.04-.33.32-.27.51-.66.53-1.07.02-.39-.12-.77-.38-1.06-.27-.29-.63-.46-1.01-.48-3.7-.16-6.69,3.53-8.16,5.33-3.94,4.84-7.69,9.63-10.29,15.08-.99,2.09-1.84,4.56-2.5,7.36-.38,1.57-1.07,5.43.59,7.23.45.49,1.29,1.1,2.71.87,6.02-.94,8-10.35,8.96-14.87l.09-.4c.03-.16.06-.31.09-.47,2.98.12,5.95-.17,8.88-.88-.09.45-.13.88-.12,1.3.03,1.72.61,2.91,1.74,3.56,2.03,1.15,4.92-.19,7.2-1.5,4.12-2.35,8.71-2.83,14.05-1.44,2.75.72,10.65.58,14.15-.79.99.42,1.9.21,2.67-.38,15.2-12.34,15.42-12.64,15.56-12.82l76.5-103.62.73.51c.64.45,1.52.31,2-.31.11-.14,11.61-15.06,22.71-33.48,2.42,28.65,5.69,120.2-40.38,197.01l-181.63,10.66,30.53-233.04,181.04-8.81c.3.71.77,1.89,1.46,3.7-16.47,18.39-35.03,47.3-35.82,48.52Zm5.27,181.86c.51,0,.99-.27,1.26-.71,48.62-80.49,43.57-175.93,40.82-203.53.79-1.36,1.57-2.74,2.34-4.12,7.64,57.91,1.22,143.35-39.58,211.39l-181.11,10.6,1.37-3.36,174.9-10.27Z"/>
        </g>
      </g>
    </g>
  </g>
</svg>