<?xml version="1.0" encoding="UTF-8"?>
<svg id="Capa_2" data-name="Capa 2" xmlns="http://www.w3.org/2000/svg" viewBox="0 0 300 300">
  <defs>
    <style>
      .cls-1 {
        fill: none;
      }

      .cls-2 {
        fill: #00e47c;
      }
    </style>
  </defs>
  <g id="botones">
    <g>
      <g>
        <path class="cls-2" d="m230.1,52.69c-6.54-7.11-35.47-33.7-35.47-33.7,0,0-4.92-5.25-12.46,1.39-9.21,8.1-10.15,9.58-10.15,9.58,0,0-4.01,3.6.55,9.88l-4.32,5.76c-3.18-1.86-9.25-4.18-17.87-2.29-12.33,2.7-17.78,8.21-22.31,13.62-4.4,5.25-63.42,82.17-63.95,82.87-.13.15-13.23,15.01.46,28.7,12.36,12.36,50.05,38.34,50.39,38.57,1.02.78,4.73,3.34,9.73,3.34,4.03,0,7.72-1.77,10.65-5.11,7.5-8.54,73.99-92.5,76.8-96.05.11-.13,10.43-12.91-2.14-29.19.28-.75,1.47-2.39,3.3-4.4,2.24,1.74,4.04,1.64,6.72-.83,5.48-5.04,16.61-15.04,10.07-22.14Zm-26.69,12.12c2.59,2.85,4.6,5.27,6.27,7.18-4.21,4.55-5.67,8.03-4.33,10.36.07.12.15.24.23.34,10.64,13.29,2.95,22.93,2.6,23.35-2.83,3.57-69.34,87.54-76.67,95.89-5.77,6.58-12.74,1.62-13.54,1.01-.38-.26-37.87-26.14-49.78-38.06-10.05-10.05-1.23-20.6-.15-21.82l.69-.9c13.91-18.12,59.58-77.57,63.26-81.97,4.12-4.93,8.72-9.55,19.49-11.91,9.96-2.18,15.42,2.5,15.63,2.69.54.5,1.26.73,1.96.66.72-.07,1.37-.44,1.8-1.01l5.24-7c.17.15.33.3.51.45,0,0,17.46,10.47,26.8,20.73Z"/>
        <path class="cls-2" d="m240.38,252.26l-9.85-31.2-.6.19s-.01-.08-.02-.11c-.06-.19-6.35-19.42-13.52-38.26-4.3-11.3-16.1-16.42-28.06-12.15-11.97,4.27-17.12,17.26-13.11,33.08,3.27,12.9,8.71,27.12,10.34,31.27l-1.92.6s3.59,15.03,9.71,31.68c6.12,16.65,13.66,18.11,32.75,13.06,21.91-5.8,14.28-28.16,14.28-28.16Zm-50.64-18.49c-1.43-3.63-6.99-18.04-10.29-31.04-2.72-10.73-1.43-23.7,10.35-27.91,9.79-3.49,19.05.45,22.52,9.59,7.12,18.74,13.38,37.88,13.45,38.07,0,.02.02.03.02.05l-36.06,11.24Z"/>
      </g>
      <rect class="cls-1" width="300" height="300"/>
    </g>
  </g>
</svg>