<?xml version="1.0" encoding="UTF-8"?>
<svg id="Capa_2" data-name="Capa 2" xmlns="http://www.w3.org/2000/svg" viewBox="0 0 300 300">
  <defs>
    <style>
      .cls-1 {
        fill: none;
      }

      .cls-2 {
        fill: #00e47c;
      }

      .cls-3 {
        fill: #fff;
      }
    </style>
  </defs>
  <g id="botones">
    <g>
      <rect class="cls-1" width="300" height="300"/>
      <g>
        <g>
          <path class="cls-3" d="m61.39,200.17h9.81c1.93,0,3.63.31,5.09.94,1.46.63,2.59,1.52,3.38,2.69s1.19,2.54,1.19,4.12c0,3.09-1.56,5.07-4.69,5.95v.35c1.26.15,2.37.52,3.31,1.11.94.59,1.68,1.39,2.21,2.4.53,1.01.8,2.18.8,3.53,0,1.67-.4,3.13-1.2,4.38-.8,1.25-1.93,2.21-3.38,2.89s-3.15,1.01-5.08,1.01h-11.44v-29.36Zm9.81,12.68c1.17,0,2.15-.19,2.96-.56.8-.37,1.4-.91,1.8-1.6s.6-1.52.6-2.47-.2-1.77-.6-2.46c-.4-.69-1-1.22-1.8-1.59-.8-.37-1.79-.56-2.96-.56h-5.79v9.24h5.79Zm1.63,13.23c1.17,0,2.15-.2,2.96-.59.8-.4,1.4-.96,1.8-1.69.4-.73.6-1.6.6-2.61s-.2-1.88-.6-2.61c-.4-.73-1-1.3-1.8-1.7-.8-.4-1.79-.6-2.96-.6h-7.42v9.81h7.42Z"/>
          <path class="cls-3" d="m87.09,204.98c-.4-.23-.72-.55-.95-.95-.23-.4-.35-.86-.35-1.38s.12-.98.35-1.38c.23-.4.55-.72.95-.95s.86-.35,1.38-.35.98.12,1.39.35c.41.23.73.55.96.96.23.41.35.86.35,1.37s-.12.96-.35,1.37c-.23.41-.55.73-.96.96-.41.23-.87.35-1.39.35s-.98-.11-1.38-.35Zm-.5,3.89h3.75v20.65h-3.75v-20.65Z"/>
          <path class="cls-3" d="m102.22,228.83c-1.07-.73-2.02-1.89-2.86-3.47h-.33v4.16h-3.55v-30.58h3.75v13.84h.33c.79-1.48,1.71-2.57,2.75-3.27,1.05-.7,2.29-1.05,3.73-1.05,1.73,0,3.27.45,4.63,1.36,1.36.9,2.42,2.17,3.19,3.8s1.15,3.49,1.15,5.59-.38,3.93-1.15,5.57c-.77,1.63-1.83,2.9-3.19,3.8-1.36.9-2.9,1.36-4.61,1.36-1.5,0-2.78-.37-3.84-1.1Zm6.1-3.08c.89-.61,1.56-1.48,2-2.6.44-1.12.66-2.44.66-3.94s-.22-2.84-.65-3.95c-.44-1.11-1.1-1.98-2-2.59-.9-.61-2-.92-3.32-.92s-2.42.3-3.31.92c-.89.61-1.56,1.48-2,2.59-.44,1.11-.66,2.43-.66,3.95s.22,2.82.66,3.94c.44,1.12,1.11,1.99,2,2.6.89.61,1.99.92,3.31.92s2.42-.31,3.31-.92Z"/>
          <path class="cls-3" d="m121.67,229.02c-.81-.34-1.4-.88-1.76-1.61s-.55-1.71-.55-2.94v-25.53h3.75v25.18c0,.54.07.97.21,1.27.14.31.37.52.69.65.32.13.76.19,1.34.19h1.53v3.28h-1.96c-1.36,0-2.44-.17-3.25-.51Z"/>
          <path class="cls-3" d="m130.78,204.98c-.4-.23-.72-.55-.95-.95-.23-.4-.35-.86-.35-1.38s.12-.98.35-1.38c.23-.4.55-.72.95-.95s.86-.35,1.38-.35.98.12,1.39.35c.41.23.73.55.96.96.23.41.35.86.35,1.37s-.12.96-.35,1.37c-.23.41-.55.73-.96.96-.41.23-.87.35-1.39.35s-.98-.11-1.38-.35Zm-.5,3.89h3.75v20.65h-3.75v-20.65Z"/>
          <path class="cls-3" d="m143.22,228.59c-1.53-.9-2.71-2.16-3.55-3.78-.84-1.62-1.25-3.49-1.25-5.6s.42-3.99,1.25-5.62c.84-1.62,2.02-2.88,3.55-3.78,1.53-.9,3.29-1.35,5.29-1.35s3.76.45,5.29,1.35c1.53.9,2.71,2.16,3.55,3.78.84,1.63,1.25,3.5,1.25,5.62s-.42,3.97-1.25,5.6c-.84,1.62-2.02,2.89-3.55,3.78-1.53.9-3.29,1.35-5.29,1.35s-3.76-.45-5.29-1.35Zm8.66-2.83c.9-.61,1.58-1.47,2.02-2.59.44-1.11.66-2.43.66-3.95s-.22-2.84-.66-3.95c-.44-1.11-1.11-1.98-2.02-2.59-.9-.61-2.03-.92-3.37-.92s-2.45.3-3.35.92c-.9.61-1.58,1.48-2.03,2.59-.45,1.11-.67,2.43-.67,3.95s.22,2.84.67,3.95c.45,1.11,1.12,1.98,2.03,2.59.9.61,2.02.92,3.35.92s2.47-.31,3.37-.92Z"/>
          <path class="cls-3" d="m166.67,228.93c-.88-.39-1.5-1-1.87-1.82-.37-.82-.55-1.91-.55-3.27v-11.7h-3.63v-3.26h3.63v-4.99h3.75v4.99h5.79v3.26h-5.79v11.56c0,.64.06,1.14.19,1.5.13.36.38.63.74.79.37.17.9.26,1.59.26h3.26v3.28h-3.51c-1.54,0-2.74-.2-3.62-.59Z"/>
          <path class="cls-3" d="m180.85,228.58c-1.52-.9-2.7-2.17-3.54-3.79-.84-1.62-1.25-3.49-1.25-5.6s.41-3.95,1.24-5.58c.83-1.62,1.99-2.89,3.5-3.79,1.5-.9,3.24-1.36,5.21-1.36s3.65.45,5.12,1.34,2.6,2.13,3.4,3.73c.8,1.6,1.2,3.43,1.2,5.49v1.33h-15.62c.09,1.31.38,2.43.86,3.37.48.94,1.14,1.68,2.01,2.19.86.52,1.91.77,3.13.77s2.26-.26,3.12-.77c.86-.52,1.52-1.26,1.98-2.22l4,.35c-.46,1.21-1.13,2.26-2.01,3.14-.88.88-1.92,1.56-3.13,2.04-1.21.48-2.53.71-3.96.71-1.98,0-3.74-.45-5.26-1.36Zm10.91-11.22c-.2-1.78-.78-3.17-1.73-4.16-.95-.99-2.28-1.49-3.98-1.49s-3.09.5-4.08,1.49c-.99.99-1.59,2.38-1.79,4.16h11.58Z"/>
          <path class="cls-3" d="m204.12,228.58c-1.52-.9-2.69-2.17-3.53-3.79-.84-1.62-1.25-3.5-1.25-5.62s.42-3.97,1.25-5.59c.84-1.62,2.01-2.87,3.53-3.77,1.52-.9,3.27-1.35,5.25-1.35,1.51,0,2.89.27,4.14.81,1.25.54,2.32,1.32,3.2,2.35.88,1.03,1.53,2.25,1.94,3.66l-3.85.67c-.39-1.38-1.05-2.43-1.97-3.14-.92-.71-2.08-1.06-3.5-1.06-1.32,0-2.42.3-3.31.91-.89.6-1.56,1.46-2,2.58-.44,1.11-.66,2.43-.66,3.94s.22,2.84.66,3.95c.44,1.11,1.11,1.98,2,2.59.89.61,1.99.92,3.31.92,2.84,0,4.66-1.46,5.46-4.38l3.85.67c-.41,1.47-1.05,2.73-1.93,3.78-.88,1.05-1.94,1.86-3.19,2.41-1.25.55-2.64.83-4.16.83-1.98,0-3.73-.45-5.25-1.36Z"/>
          <path class="cls-3" d="m224.36,229.21c-.93-.48-1.66-1.16-2.19-2.03-.53-.87-.8-1.87-.8-3,0-1.81.71-3.27,2.13-4.38,1.42-1.11,3.54-1.87,6.37-2.26l4.97-.71c-.03-1.2-.21-2.17-.54-2.92-.33-.75-.82-1.3-1.46-1.65-.64-.35-1.45-.53-2.45-.53-1.28,0-2.33.3-3.16.9-.83.6-1.44,1.54-1.84,2.81l-3.69-.31c.35-1.41.92-2.62,1.71-3.61s1.78-1.75,2.97-2.27,2.56-.79,4.11-.79c1.7,0,3.15.32,4.36.96s2.13,1.58,2.77,2.81c.64,1.24.96,2.74.96,4.51v12.78h-3.55v-4.16h-.33c-.83,1.47-1.87,2.6-3.13,3.39-1.26.79-2.63,1.18-4.11,1.18-1.16,0-2.2-.24-3.13-.72Zm1.96-3.28c.63.5,1.52.74,2.66.74,1.06,0,2.04-.2,2.94-.6.9-.4,1.61-.95,2.14-1.65s.8-1.48.8-2.33v-2.39l-4.34.65c-1.24.18-2.23.4-2.97.68-.74.28-1.29.64-1.64,1.08-.35.44-.53,1-.53,1.66,0,.94.32,1.66.95,2.15Z"/>
          <path class="cls-2" d="m104.08,247.74c1.12-.78,2.46-1.17,4.01-1.17,1.32,0,2.45.28,3.39.86s1.67,1.42,2.17,2.56c.5,1.14.75,2.52.75,4.15v13.76h-5.87v-12.89c0-1.26-.3-2.23-.91-2.89-.61-.67-1.47-1-2.6-1-1.25,0-2.22.41-2.91,1.21-.69.81-1.03,1.95-1.03,3.44v12.13h-5.87v-12.89c0-1.26-.3-2.23-.91-2.89-.61-.67-1.47-1-2.6-1-1.25,0-2.22.41-2.91,1.21-.69.81-1.03,1.95-1.03,3.44v12.13h-5.87v-20.92h5.67v4.38h.33c.84-1.62,1.82-2.82,2.93-3.61s2.42-1.18,3.95-1.18,2.88.41,3.91,1.22,1.73,2,2.1,3.57h.33c.86-1.63,1.85-2.84,2.97-3.62Z"/>
          <path class="cls-2" d="m122.88,266.92c-1.64-.92-2.92-2.21-3.82-3.85-.9-1.64-1.36-3.52-1.36-5.63s.44-3.96,1.34-5.62c.89-1.65,2.14-2.94,3.75-3.86,1.61-.92,3.46-1.38,5.54-1.38s3.88.46,5.44,1.38,2.77,2.2,3.62,3.83,1.27,3.5,1.27,5.6v1.71h-14.8c.16,1.52.62,2.72,1.37,3.58s1.82,1.29,3.22,1.29c.94,0,1.74-.2,2.41-.59.67-.39,1.18-.96,1.53-1.69l5.87.49c-.48,1.32-1.19,2.44-2.13,3.35-.95.92-2.06,1.61-3.34,2.08-1.28.47-2.68.7-4.19.7-2.16,0-4.06-.46-5.71-1.39Zm9.73-11.76c-.14-1.32-.54-2.35-1.22-3.1s-1.68-1.12-3-1.12-2.34.37-3.08,1.12c-.73.75-1.2,1.78-1.41,3.1h8.71Zm-3.43-18.21h6.01l-5.34,7.77h-5.53l4.85-7.77Z"/>
          <path class="cls-2" d="m145.59,266.91c-1.27-.93-2.26-2.22-2.98-3.86-.71-1.64-1.07-3.5-1.07-5.57s.35-3.95,1.06-5.61c.71-1.66,1.7-2.96,2.97-3.89,1.27-.94,2.71-1.41,4.33-1.41,1.45,0,2.71.38,3.78,1.15,1.07.77,1.92,1.89,2.56,3.37h.33v-13.78h5.87v30.58h-5.67v-4.36h-.33c-.79,1.6-1.71,2.8-2.77,3.59s-2.31,1.18-3.75,1.18c-1.62,0-3.06-.47-4.33-1.4Zm10.09-4.84c.73-1.13,1.09-2.67,1.09-4.63s-.36-3.5-1.09-4.63c-.73-1.13-1.87-1.69-3.44-1.69s-2.71.57-3.45,1.69c-.73,1.13-1.1,2.67-1.1,4.63s.37,3.5,1.1,4.63c.73,1.13,1.88,1.69,3.45,1.69s2.71-.56,3.44-1.69Z"/>
          <path class="cls-2" d="m167.55,244.25c-.56-.31-1-.75-1.32-1.31-.32-.56-.48-1.2-.48-1.92s.16-1.36.48-1.92c.32-.56.76-.99,1.32-1.3.56-.31,1.19-.47,1.9-.47s1.34.16,1.9.47c.56.31.99.75,1.3,1.3.31.56.47,1.2.47,1.92s-.16,1.36-.47,1.92c-.31.56-.75.99-1.3,1.31-.56.31-1.19.47-1.9.47s-1.34-.16-1.9-.47Zm-1.04,2.73h5.87v20.92h-5.87v-20.92Z"/>
          <path class="cls-2" d="m180.95,266.92c-1.62-.92-2.87-2.21-3.76-3.85-.89-1.64-1.34-3.52-1.34-5.63s.44-3.98,1.34-5.63c.89-1.64,2.14-2.93,3.76-3.85,1.62-.92,3.49-1.38,5.61-1.38,1.56,0,3.01.27,4.33.82,1.33.55,2.46,1.37,3.4,2.45s1.63,2.39,2.07,3.93l-5.77.88c-.3-1.13-.81-2-1.53-2.61-.72-.61-1.62-.92-2.71-.92-1.52,0-2.64.56-3.35,1.68s-1.07,2.67-1.07,4.64.36,3.47,1.07,4.54c.71,1.07,1.83,1.6,3.35,1.6,1.09,0,1.98-.31,2.69-.92.71-.61,1.22-1.49,1.53-2.65l5.81.9c-.44,1.6-1.13,2.96-2.08,4.07-.95,1.11-2.09,1.94-3.4,2.5-1.32.56-2.77.84-4.34.84-2.12,0-3.99-.46-5.61-1.39Z"/>
          <path class="cls-2" d="m201.47,267.56c-.96-.5-1.71-1.19-2.24-2.09-.54-.9-.81-1.93-.81-3.1,0-1.94.81-3.49,2.43-4.64,1.62-1.15,4.06-1.93,7.32-2.35l3.63-.47c-.04-1.32-.35-2.28-.94-2.89-.58-.6-1.48-.91-2.67-.91-1.02,0-1.84.22-2.47.64-.63.43-1.1,1.11-1.43,2.05l-5.46-.45c.35-1.46.96-2.69,1.82-3.7.86-1.01,1.96-1.78,3.29-2.3,1.33-.52,2.87-.78,4.61-.78,1.93,0,3.57.32,4.93.96,1.36.64,2.4,1.58,3.11,2.82.71,1.24,1.07,2.76,1.07,4.54v13.01h-5.67v-4.36h-.33c-.88,1.63-1.89,2.83-3.02,3.61-1.13.77-2.43,1.16-3.91,1.16-1.22,0-2.31-.25-3.27-.74Zm3.81-4.34c.48.36,1.2.54,2.15.54.87,0,1.63-.15,2.29-.45.66-.3,1.17-.72,1.53-1.27.36-.55.54-1.19.54-1.93v-1.55l-2.77.39c-1.11.15-1.99.34-2.63.56-.64.22-1.1.5-1.4.84-.29.33-.44.76-.44,1.27,0,.71.24,1.24.72,1.6Z"/>
        </g>
        <g>
          <path class="cls-2" d="m115.83,179.99c-1.28,0-2.29-.22-2.64-.99-.22-.46-4.72-9.89-6.05-13.85-1.31-3.95-4.1-12.6-4.13-12.69-.04-.13-3.73-12.22-4.62-14.85-.89-2.6-4.4-11.67-7.25-16.35-2.8-4.6-.62-8.54.92-9.98.44-.41,1.43-1.24,2.57-2.21,1.63-1.38,3.48-2.94,4.21-3.67,1.34-1.34,7.71-8.93,9.81-12.39,1.15-1.9,4.88-6.14,6-7.4.1-.11.26-.17.41-.15.15.02.28.12.34.26l7.6,16.78c.05.11.05.24,0,.36-.03.07-2.72,6.68-.84,9.46,1.86,2.76,4.66,6.04,7.47,6.04s4.41-2.14,5.14-3.42c.32-.57,1.1-2.69,1.93-4.93,1.32-3.6,2.82-7.67,3.76-9.17,1.59-2.53,5.26-8.37,10.3-11.63,4.81-3.12,11.23-5.5,14.18-4.02,1.53.77,2.67,2.08,3.05,3.51.2.77.15,1.47-.14,1.91-.58.87-7.63,12.68-8.38,14.18-.15.3-.54.97-1.12,2-2.41,4.22-8.04,14.09-9,18.7-1.17,5.63-.84,21.81-.83,21.97.04.3.92,8.54-6.25,18.9-6.78,9.81-18.49,12.91-22.06,13.23-.41.04-.86.09-1.32.14-1.06.12-2.14.24-3.08.24m-.96-93.24c-1.44,1.63-4.45,5.11-5.44,6.74-2.14,3.51-8.59,11.2-9.95,12.56-.76.76-2.62,2.33-4.27,3.72-1.09.92-2.12,1.79-2.54,2.18-.04.04-3.89,3.72-.76,8.85,2.89,4.74,6.43,13.91,7.33,16.53.9,2.64,4.59,14.75,4.63,14.87.03.08,2.82,8.72,4.13,12.67,1.31,3.92,5.96,13.66,6.01,13.75,0,0,0,0,0,0,.33.73,3.12.41,4.79.23.47-.05.93-.11,1.35-.14.13-.01,13.67-1.68,21.39-12.84,6.96-10.06,6.1-18.25,6.09-18.33-.02-.71-.34-16.49.85-22.22.98-4.75,6.67-14.71,9.1-18.96.56-.98.96-1.68,1.1-1.96.75-1.5,7.86-13.4,8.44-14.27.12-.17.17-.61.02-1.17-.32-1.19-1.28-2.28-2.58-2.93-2.31-1.15-8.02.55-13.29,3.97-4.87,3.15-8.47,8.88-10,11.32-.91,1.45-2.45,5.65-3.69,9.03-.91,2.48-1.63,4.44-1.99,5.07-.83,1.45-2.69,3.87-5.93,3.87s-6.24-3.5-8.22-6.43c-1.97-2.93.23-8.97.68-10.13l-7.24-15.97Z"/>
          <path class="cls-2" d="m159.33,102.01c-.62,0-1.26-.2-1.93-.59-3.76-2.21-1.99-6.01-1.97-6.05.08-.17,2.02-4.51,3.58-6.74.05-.08.13-.14.22-.17,4.67-1.67,8.52.62,8.68.71.22.13.28.41.15.62-.13.21-.41.28-.62.15-.03-.02-3.57-2.11-7.76-.68-1.5,2.2-3.4,6.44-3.42,6.48-.06.13-1.42,3.11,1.61,4.89.72.42,1.39.56,1.99.39.9-.25,1.39-1.1,1.39-1.11.12-.22.4-.3.62-.18.22.12.3.39.18.61-.03.05-.66,1.19-1.95,1.55-.25.07-.51.1-.76.1"/>
          <path class="cls-2" d="m153.46,115.22s-.1,0-.14-.02c-.61-.2-5.92-2.03-6.43-4.05-.09-.33-.09-.84.37-1.34.38-.42.88-.64,1.49-.65,2.43-.09,5.89,3.24,6.04,3.38.18.18.19.46.01.64-.17.18-.46.19-.64.01-.93-.89-3.68-3.19-5.39-3.13-.36.01-.64.13-.85.36-.2.22-.19.37-.16.5.3,1.16,3.74,2.71,5.84,3.42.24.08.36.34.29.57-.07.19-.24.31-.43.31"/>
          <path class="cls-2" d="m148.4,130.1c-.24,0-.44-.18-.45-.42-.02-.25.17-.47.42-.48l58.28-3.84c.69-.04,1.31-.41,1.68-1,.37-.59.44-1.3.19-1.95l-34.7-88.07c-.32-.78-.98-1.38-1.81-1.62-.81-.24-1.67-.11-2.37.36-2.99,2.01-12.09,8.11-32.22,3.63-10.36-2.31-18.67-1.45-24.69,2.55-6.68,4.45-8.84,11.6-9.53,15.46-.21,1.16-.07,2.34.4,3.42l26.46,60.51c.1.23,0,.5-.23.59-.23.1-.5,0-.6-.23l-26.46-60.51c-.55-1.24-.71-2.61-.46-3.94.71-4.01,2.96-11.42,9.92-16.06,6.23-4.15,14.77-5.05,25.39-2.68,19.75,4.4,28.61-1.54,31.51-3.5.92-.62,2.07-.79,3.14-.47,1.08.32,1.95,1.11,2.38,2.15l34.7,88.07c.36.92.26,1.93-.26,2.76-.53.84-1.4,1.35-2.39,1.41l-58.28,3.84h-.03"/>
          <path class="cls-2" d="m121.54,53.39l5.16,11.31c.7,1.53,2.49,2.23,4.04,1.58,3.43-1.43,9.69-3.57,16.55-3.63,8.91-.08,22.96-1.77,22.96-1.77l-6.79-13.88s-9.45,2.36-17.42,2.65c-6.26.23-18.34,1.19-23.24,1.6-1.05.09-1.69,1.19-1.25,2.14"/>
          <path class="cls-2" d="m136,77.57c-.11,0-.23-.04-.32-.13-.18-.17-.18-.46-.01-.64.15-.15,3.8-3.83,15.19-4.27,7.13-.28,20.63-3.21,20.76-3.24.24-.05.48.1.54.35s-.1.49-.35.54c-.13.03-13.71,2.98-20.92,3.26-10.97.43-14.54,3.96-14.58,4-.09.09-.21.14-.32.14"/>
          <path class="cls-2" d="m139.54,88.77c-.1,0-.21-.03-.29-.11-.19-.16-.22-.45-.05-.64.26-.31,6.58-7.58,20.42-7.58,6.39,0,14.61-1.39,14.69-1.41.25-.04.48.12.53.37.04.25-.12.48-.37.52-.08.01-8.37,1.42-14.84,1.42-7,0-11.99,1.97-14.95,3.63-3.2,1.8-4.77,3.62-4.78,3.63-.09.11-.22.16-.34.16"/>
        </g>
      </g>
    </g>
  </g>
</svg>