<?xml version="1.0" encoding="UTF-8"?>
<svg id="Capa_2" data-name="Capa 2" xmlns="http://www.w3.org/2000/svg" xmlns:xlink="http://www.w3.org/1999/xlink" viewBox="0 0 598 598">
  <defs>
    <style>
      .cls-1, .cls-2, .cls-3, .cls-4 {
        fill: none;
      }

      .cls-2 {
        clip-path: url(#clippath-1);
      }

      .cls-3 {
        isolation: isolate;
      }

      .cls-5 {
        fill: #68e085;
      }

      .cls-6 {
        fill: #fff;
      }

      .cls-4 {
        clip-path: url(#clippath);
      }
    </style>
    <clipPath id="clippath">
      <rect class="cls-1" width="598" height="598"/>
    </clipPath>
    <clipPath id="clippath-1">
      <rect class="cls-1" x="148.01" y="107.92" width="299.76" height="299.76"/>
    </clipPath>
  </defs>
  <g id="botones">
    <g id="Grupo_105" data-name="Grupo 105">
      <g class="cls-4">
        <g id="Abstratcs">
          <g class="cls-3">
            <path class="cls-5" d="m163.36,434.63h11.47l16.76,51.12h-7.31l-4.76-15.02h-21.16l-4.76,15.02h-7.03l16.79-51.12Zm14.2,30.07l-8.34-26.34h-.64l-8.31,26.34h17.29Z"/>
            <path class="cls-5" d="m208.74,484.54c-1.86-1.28-3.52-3.29-4.99-6.04h-.57v7.24h-6.18v-53.25h6.53v24.1h.57c1.37-2.58,2.97-4.48,4.79-5.7,1.82-1.22,3.99-1.83,6.5-1.83,3,0,5.69.79,8.06,2.36,2.37,1.57,4.22,3.78,5.56,6.62,1.34,2.84,2.01,6.08,2.01,9.73s-.67,6.85-2.01,9.69-3.19,5.05-5.56,6.62c-2.37,1.57-5.04,2.36-8.02,2.36-2.6,0-4.83-.64-6.69-1.92Zm10.61-5.36c1.55-1.07,2.71-2.57,3.48-4.53.77-1.95,1.15-4.24,1.15-6.87s-.38-4.95-1.14-6.89c-.76-1.94-1.92-3.44-3.48-4.51-1.56-1.07-3.49-1.6-5.79-1.6s-4.22.53-5.77,1.6c-1.55,1.06-2.71,2.57-3.48,4.51-.77,1.94-1.15,4.24-1.15,6.89s.38,4.92,1.15,6.87c.77,1.95,1.93,3.46,3.48,4.53,1.55,1.06,3.47,1.6,5.77,1.6s4.22-.53,5.77-1.6Z"/>
            <path class="cls-5" d="m241.69,483.88c-2.57-1.72-4.47-4.31-5.7-7.79l6.42-1.17c.78,1.99,1.95,3.47,3.51,4.44,1.56.97,3.54,1.46,5.93,1.46,1.54,0,2.88-.2,4.03-.59,1.15-.39,2.03-.95,2.64-1.69s.92-1.6.92-2.59c0-1.11-.39-2.02-1.17-2.72-.78-.7-1.75-1.24-2.91-1.63-1.16-.39-2.78-.83-4.86-1.33-2.77-.66-5.02-1.33-6.76-2.01-1.74-.67-3.23-1.72-4.47-3.12-1.24-1.41-1.86-3.28-1.86-5.63,0-2.08.56-3.91,1.69-5.49,1.12-1.57,2.71-2.79,4.76-3.66,2.05-.86,4.42-1.3,7.12-1.3,3.74,0,6.88.84,9.41,2.52,2.53,1.68,4.38,4.11,5.54,7.28l-6.07,1.17c-.71-1.77-1.82-3.11-3.32-3.99-1.5-.89-3.41-1.33-5.73-1.33-2.15,0-3.83.38-5.04,1.14s-1.81,1.83-1.81,3.23c0,1.09.39,1.98,1.17,2.66s1.76,1.22,2.93,1.62c1.17.39,2.79.81,4.85,1.26,2.84.64,5.14,1.29,6.91,1.95,1.76.66,3.28,1.7,4.54,3.12,1.27,1.42,1.9,3.34,1.9,5.75,0,2.22-.6,4.17-1.81,5.84-1.21,1.67-2.92,2.95-5.13,3.83-2.21.89-4.8,1.33-7.76,1.33-4,0-7.28-.86-9.85-2.57Z"/>
            <path class="cls-5" d="m280.42,484.72c-1.53-.69-2.61-1.75-3.25-3.18-.64-1.43-.96-3.33-.96-5.7v-20.38h-6.32v-5.68h6.32v-8.7h6.53v8.7h10.08v5.68h-10.08v20.13c0,1.11.11,1.98.34,2.61.22.63.66,1.09,1.3,1.38s1.56.44,2.77.44h5.68v5.72h-6.11c-2.67,0-4.77-.34-6.3-1.03Z"/>
            <path class="cls-5" d="m299.28,449.78h6.18v7.95h.57c.95-2.13,1.9-3.82,2.88-5.08.97-1.25,2.04-2.17,3.21-2.73,1.17-.57,2.54-.85,4.1-.85.45,0,.91.03,1.38.09.47.06.89.16,1.24.3v7.03c-.47-.14-1.07-.25-1.78-.34s-1.42-.12-2.13-.12c-1.96,0-3.63.36-4.99,1.07-1.36.71-2.39,1.75-3.09,3.11-.7,1.36-1.05,3-1.05,4.92v20.63h-6.53v-35.96Z"/>
            <path class="cls-5" d="m326.64,485.2c-1.62-.84-2.89-2.02-3.82-3.53-.92-1.51-1.38-3.25-1.38-5.22,0-3.15,1.24-5.69,3.71-7.63,2.47-1.94,6.17-3.25,11.09-3.94l8.66-1.24c-.05-2.08-.36-3.78-.94-5.08-.58-1.3-1.43-2.26-2.54-2.88s-2.53-.92-4.26-.92c-2.22,0-4.06.52-5.5,1.56-1.44,1.04-2.51,2.67-3.19,4.9l-6.43-.53c.62-2.46,1.61-4.55,2.98-6.28,1.37-1.73,3.09-3.05,5.17-3.96,2.07-.91,4.46-1.37,7.15-1.37,2.96,0,5.49.56,7.6,1.67s3.71,2.75,4.83,4.9c1.11,2.15,1.67,4.77,1.67,7.84v22.26h-6.18v-7.24h-.57c-1.44,2.56-3.26,4.52-5.45,5.89-2.19,1.37-4.57,2.06-7.15,2.06-2.01,0-3.83-.42-5.45-1.26Zm3.41-5.72c1.1.86,2.64,1.3,4.63,1.3,1.85,0,3.55-.35,5.11-1.05,1.56-.7,2.8-1.66,3.73-2.88s1.38-2.57,1.38-4.06v-4.15l-7.56,1.14c-2.15.31-3.88.7-5.17,1.19-1.29.49-2.24,1.11-2.86,1.88-.62.77-.92,1.73-.92,2.89,0,1.63.55,2.88,1.65,3.75Z"/>
            <path class="cls-5" d="m365.86,484.72c-1.53-.69-2.61-1.75-3.25-3.18-.64-1.43-.96-3.33-.96-5.7v-20.38h-6.32v-5.68h6.32v-8.7h6.53v8.7h10.08v5.68h-10.08v20.13c0,1.11.11,1.98.34,2.61.22.63.66,1.09,1.3,1.38s1.56.44,2.77.44h5.68v5.72h-6.11c-2.67,0-4.77-.34-6.3-1.03Z"/>
            <path class="cls-5" d="m390.32,484.1c-2.64-1.57-4.69-3.78-6.14-6.6-1.46-2.83-2.18-6.09-2.18-9.78s.73-6.91,2.18-9.73c1.46-2.82,3.5-5.01,6.14-6.57,2.64-1.56,5.69-2.34,9.14-2.34,2.63,0,5.03.47,7.21,1.4,2.18.94,4.04,2.3,5.57,4.08,1.54,1.79,2.66,3.91,3.37,6.37l-6.71,1.17c-.69-2.41-1.83-4.24-3.43-5.47-1.6-1.23-3.63-1.85-6.09-1.85-2.3,0-4.22.53-5.77,1.58-1.55,1.05-2.71,2.55-3.48,4.49-.77,1.94-1.15,4.22-1.15,6.85s.38,4.95,1.15,6.89c.77,1.94,1.93,3.44,3.48,4.51,1.55,1.07,3.47,1.6,5.77,1.6,4.95,0,8.12-2.54,9.51-7.63l6.71,1.17c-.71,2.56-1.83,4.75-3.35,6.58-1.53,1.83-3.38,3.23-5.56,4.19-2.18.96-4.59,1.44-7.24,1.44-3.46,0-6.5-.79-9.14-2.36Z"/>
            <path class="cls-5" d="m425.57,483.88c-2.57-1.72-4.47-4.31-5.7-7.79l6.42-1.17c.78,1.99,1.95,3.47,3.51,4.44,1.56.97,3.54,1.46,5.93,1.46,1.54,0,2.88-.2,4.03-.59,1.15-.39,2.03-.95,2.64-1.69s.92-1.6.92-2.59c0-1.11-.39-2.02-1.17-2.72-.78-.7-1.75-1.24-2.91-1.63-1.16-.39-2.78-.83-4.86-1.33-2.77-.66-5.02-1.33-6.76-2.01-1.74-.67-3.23-1.72-4.47-3.12-1.24-1.41-1.86-3.28-1.86-5.63,0-2.08.56-3.91,1.69-5.49,1.12-1.57,2.71-2.79,4.76-3.66,2.05-.86,4.42-1.3,7.12-1.3,3.74,0,6.88.84,9.41,2.52,2.53,1.68,4.38,4.11,5.54,7.28l-6.07,1.17c-.71-1.77-1.82-3.11-3.32-3.99-1.5-.89-3.41-1.33-5.73-1.33-2.15,0-3.83.38-5.04,1.14s-1.81,1.83-1.81,3.23c0,1.09.39,1.98,1.17,2.66s1.76,1.22,2.93,1.62c1.17.39,2.79.81,4.85,1.26,2.84.64,5.14,1.29,6.91,1.95,1.76.66,3.28,1.7,4.54,3.12,1.27,1.42,1.9,3.34,1.9,5.75,0,2.22-.6,4.17-1.81,5.84-1.21,1.67-2.92,2.95-5.13,3.83-2.21.89-4.8,1.33-7.76,1.33-4,0-7.28-.86-9.85-2.57Z"/>
          </g>
        </g>
        <g id="Grupo_1587" data-name="Grupo 1587">
          <g class="cls-2">
            <g id="Grupo_1587-2" data-name="Grupo 1587-2">
              <path id="Trazado_4771" data-name="Trazado 4771" class="cls-6" d="m246.28,379.26c-.58,0-1.11-.34-1.34-.88l-76.78-176.24c-1.35-3.08-1.75-6.5-1.15-9.81,2.46-15.86,11.24-30.05,24.33-39.34,15.27-10.16,36.17-12.37,62.12-6.59,47.96,10.69,69.45-3.72,76.51-8.46,2.34-1.57,5.25-2,7.94-1.19,2.73.82,4.95,2.82,6.04,5.44l84.54,214.59c1.58,4.02-.39,8.55-4.41,10.14-.75.29-1.54.47-2.34.53l-175.36,11.82h-.09m-18.99-233.09c-12.11-.41-24.07,2.81-34.34,9.24-12.42,8.86-20.74,22.36-23.07,37.44-.49,2.74-.16,5.57.96,8.13l76.36,175.3,174.33-11.75h0c2.7-.19,4.74-2.52,4.55-5.22-.03-.5-.14-.99-.33-1.46l-84.53-214.56c-.76-1.81-2.29-3.19-4.17-3.75-1.86-.56-3.87-.26-5.48.82-7.31,4.91-29.57,19.86-78.76,8.88-8.37-1.95-16.93-2.98-25.53-3.07"/>
              <path id="Trazado_4772" data-name="Trazado 4772" class="cls-6" d="m301.31,293.43c-4.7-.02-9.37-.73-13.86-2.1-27.14-8.92-44.23-35.74-40.84-64.11,2.51-23.22,23.37-40.01,46.59-37.5,3.1.33,6.15,1.01,9.1,2.02,13.24,4.18,24.55,12.96,31.88,24.76,15.94,25.05,11.31,56.67-10.36,70.46-6.72,4.27-14.52,6.51-22.48,6.47m-12.91-100.88c-7.41-.05-14.67,2.03-20.93,6-10,6.56-16.59,17.2-18,29.07-3.17,26.94,13.05,52.4,38.8,60.9,11.36,3.74,23.8,2.27,33.97-4.02,20.31-12.94,24.55-42.75,9.45-66.44-6.95-11.21-17.68-19.56-30.25-23.53-4.22-1.29-8.61-1.96-13.02-1.97"/>
              <path id="Trazado_4773" data-name="Trazado 4773" class="cls-6" d="m292.19,269.04c-1.36,0-2.66-.51-3.66-1.42l-18.87-17.15c-2.22-2.02-2.39-5.47-.36-7.69s5.47-2.39,7.69-.36h0l12.52,11.38,12.57-40.73c.87-2.88,3.9-4.51,6.78-3.64,2.88.87,4.51,3.9,3.64,6.78,0,.02-.01.05-.02.07l-15.09,48.92c-.7,2.28-2.81,3.84-5.2,3.84"/>
            </g>
          </g>
        </g>
      </g>
    </g>
  </g>
</svg>