<?xml version="1.0" encoding="UTF-8"?>
<svg id="Capa_2" data-name="Capa 2" xmlns="http://www.w3.org/2000/svg" xmlns:xlink="http://www.w3.org/1999/xlink" viewBox="0 0 598 598">
  <defs>
    <style>
      .cls-1, .cls-2, .cls-3 {
        fill: none;
      }

      .cls-2 {
        isolation: isolate;
      }

      .cls-4 {
        fill: #67de83;
      }

      .cls-5 {
        fill: #08312a;
      }

      .cls-3 {
        clip-path: url(#clippath);
      }
    </style>
    <clipPath id="clippath">
      <rect class="cls-1" width="598" height="598"/>
    </clipPath>
  </defs>
  <g id="botones">
    <g id="Grupo_100" data-name="Grupo 100">
      <g class="cls-3">
        <g id="Videos">
          <g class="cls-2">
            <path class="cls-5" d="m158.23,483.02c-3.73-2.22-6.59-5.33-8.59-9.3-2-3.98-3-8.52-3-13.63s1-9.66,3-13.63c2-3.98,4.86-7.08,8.59-9.3,3.73-2.22,8.08-3.34,13.05-3.34,3.69,0,7.09.66,10.19,1.99,3.1,1.33,5.76,3.29,7.97,5.89,2.21,2.6,3.84,5.78,4.88,9.51l-10.97,1.67c-.92-3.24-2.41-5.75-4.46-7.51s-4.62-2.65-7.72-2.65c-2.72,0-5.08.71-7.08,2.11-2,1.41-3.53,3.42-4.6,6.04-1.06,2.62-1.6,5.69-1.6,9.21s.53,6.6,1.6,9.21c1.07,2.62,2.6,4.63,4.6,6.04,2,1.41,4.36,2.11,7.08,2.11,3.12,0,5.71-.91,7.77-2.73s3.54-4.46,4.44-7.92l10.97,1.7c-1.02,3.86-2.64,7.12-4.86,9.8-2.23,2.67-4.89,4.69-8.01,6.04s-6.51,2.02-10.21,2.02c-4.97,0-9.32-1.11-13.05-3.34Z"/>
            <path class="cls-5" d="m208,483.99c-2.85-1.57-5.08-3.8-6.67-6.67-1.6-2.88-2.4-6.17-2.4-9.89s.8-7,2.4-9.87,3.82-5.09,6.67-6.67c2.85-1.58,6.11-2.38,9.78-2.38s6.93.79,9.78,2.38c2.85,1.59,5.07,3.81,6.66,6.67s2.38,6.15,2.38,9.87-.79,7.04-2.38,9.91-3.8,5.08-6.64,6.66-6.11,2.36-9.8,2.36-6.93-.79-9.78-2.36Zm15.9-8.5c1.31-1.96,1.97-4.65,1.97-8.06s-.66-6.09-1.97-8.06c-1.31-1.96-3.35-2.95-6.12-2.95s-4.82.98-6.14,2.95c-1.33,1.96-1.99,4.65-1.99,8.06s.66,6.12,1.99,8.08c1.33,1.95,3.37,2.93,6.14,2.93s4.81-.98,6.12-2.95Z"/>
            <path class="cls-5" d="m242.55,449.22h9.87v7.63h.57c2.98-5.56,7.03-8.34,12.14-8.34,2.34,0,4.38.54,6.12,1.63,1.74,1.09,3.08,2.65,4.01,4.69.94,2.04,1.4,4.45,1.4,7.24v23.57h-10.22v-22.26c0-2.22-.56-3.94-1.67-5.15s-2.71-1.81-4.79-1.81c-1.51,0-2.81.31-3.89.94s-1.9,1.54-2.47,2.75-.85,2.67-.85,4.4v21.12h-10.22v-36.42Z"/>
            <path class="cls-5" d="m290.78,484.42c-1.81-.82-3.15-2.06-4.01-3.73-.86-1.67-1.3-3.82-1.3-6.44v-17.25h-5.96v-7.77h5.96v-9.48h10.22v9.48h9.09v7.77h-9.09v16.08c0,1.18.12,2.09.37,2.73.25.64.67,1.1,1.26,1.37.59.27,1.44.41,2.56.41h4.9v8.06h-6.99c-2.86,0-5.2-.41-7.01-1.22Z"/>
            <path class="cls-5" d="m313.75,485.06c-1.67-.86-2.97-2.08-3.91-3.64-.94-1.56-1.4-3.36-1.4-5.4,0-3.38,1.41-6.08,4.22-8.08,2.82-2,7.06-3.37,12.74-4.1l6.32-.82c-.07-2.3-.62-3.97-1.63-5.02-1.02-1.05-2.57-1.58-4.65-1.58-1.78,0-3.21.37-4.3,1.12-1.09.75-1.92,1.94-2.49,3.57l-9.51-.78c.62-2.53,1.67-4.68,3.18-6.44,1.5-1.76,3.41-3.1,5.73-4.01,2.32-.91,4.99-1.37,8.02-1.37,3.36,0,6.22.56,8.59,1.67,2.37,1.11,4.17,2.75,5.41,4.92,1.24,2.17,1.86,4.8,1.86,7.9v22.65h-9.87v-7.6h-.57c-1.54,2.84-3.29,4.93-5.25,6.28-1.96,1.35-4.24,2.02-6.82,2.02-2.13,0-4.03-.43-5.7-1.3Zm6.64-7.56c.84.63,2.09.94,3.75.94,1.51,0,2.85-.26,3.99-.78,1.15-.52,2.04-1.26,2.66-2.22.63-.96.94-2.08.94-3.35v-2.7l-4.83.67c-1.94.26-3.47.59-4.58.98s-1.92.88-2.43,1.46-.76,1.32-.76,2.22c0,1.23.42,2.16,1.26,2.79Z"/>
            <path class="cls-5" d="m356.44,483.94c-2.82-1.61-5-3.85-6.55-6.71s-2.33-6.13-2.33-9.8.78-6.93,2.33-9.8c1.55-2.86,3.73-5.1,6.55-6.71s6.07-2.41,9.76-2.41c2.72,0,5.24.48,7.54,1.44,2.31.96,4.28,2.38,5.93,4.26,1.64,1.88,2.84,4.16,3.6,6.83l-10.05,1.53c-.52-1.96-1.41-3.48-2.66-4.54-1.25-1.06-2.83-1.6-4.72-1.6-2.65,0-4.6.98-5.84,2.93-1.24,1.95-1.86,4.65-1.86,8.08s.62,6.04,1.86,7.9c1.24,1.86,3.19,2.79,5.84,2.79,1.89,0,3.46-.53,4.69-1.6,1.23-1.07,2.12-2.6,2.66-4.62l10.12,1.56c-.76,2.79-1.96,5.15-3.62,7.08-1.66,1.93-3.63,3.38-5.93,4.35-2.3.97-4.82,1.46-7.56,1.46-3.69,0-6.95-.8-9.76-2.41Z"/>
            <path class="cls-5" d="m397.24,484.42c-1.81-.82-3.15-2.06-4.01-3.73-.86-1.67-1.3-3.82-1.3-6.44v-17.25h-5.96v-7.77h5.96v-9.48h10.22v9.48h9.09v7.77h-9.09v16.08c0,1.18.12,2.09.37,2.73.25.64.67,1.1,1.26,1.37.59.27,1.44.41,2.56.41h4.9v8.06h-6.99c-2.86,0-5.2-.41-7.01-1.22Z"/>
            <path class="cls-5" d="m423.16,483.99c-2.85-1.57-5.08-3.8-6.67-6.67-1.6-2.88-2.4-6.17-2.4-9.89s.8-7,2.4-9.87,3.82-5.09,6.67-6.67c2.85-1.58,6.11-2.38,9.78-2.38s6.93.79,9.78,2.38c2.85,1.59,5.07,3.81,6.66,6.67,1.58,2.86,2.38,6.15,2.38,9.87s-.79,7.04-2.38,9.91c-1.59,2.86-3.8,5.08-6.64,6.66s-6.11,2.36-9.8,2.36-6.93-.79-9.78-2.36Zm15.9-8.5c1.31-1.96,1.97-4.65,1.97-8.06s-.66-6.09-1.97-8.06c-1.31-1.96-3.36-2.95-6.12-2.95s-4.82.98-6.14,2.95c-1.33,1.96-1.99,4.65-1.99,8.06s.66,6.12,1.99,8.08c1.33,1.95,3.37,2.93,6.14,2.93s4.81-.98,6.12-2.95Z"/>
          </g>
        </g>
        <g>
          <rect class="cls-1" x="149" y="113.07" width="300" height="300"/>
          <path class="cls-4" d="m429.39,255.97l-44.65-96.78c-.95-2.07-2.66-3.64-4.79-4.43-2.14-.79-4.45-.7-6.52.26l-165.21,76.21c-2.07.95-3.64,2.66-4.43,4.79-.79,2.14-.7,4.45.26,6.52l5.58,7.85c-7.06,8.27-14.27,16.85-19.58,26.67-2.97,5.67-5.57,11.59-7.74,17.59-3.71,9.74-7.05,23.64-10,35.9l-.13.53c-1.51,6.27-2.94,12.2-4.32,17.2-.09.35-.02.72.2,1,12.17,16.47,33.03,25.45,50.73,21.84,2.03-.42,4.01-.91,5.89-1.47,14.09-4.19,27.89-14.76,36.62-26.75l163.92-75.62c4.27-1.97,6.14-7.05,4.17-11.32Zm-220.09-22.4l165.21-76.21c.87-.4,1.8-.55,2.73-.52l-61.15,91.04-55.6-6.71c1.83-3.63,2.87-7.9,2.55-11.51-.31-3.57-1.86-6.21-4.48-7.64-3.71-2.1-7.92.38-11.31,2.37l-.23.13c-.64.38-1.24.73-1.79,1.02-2.38,1.23-4.95,2.47-7.42,3.59-5.02,2.34-10.67,5-15.56,8.58v-.02s-15.28-2.15-15.28-2.15c.59-.84,1.38-1.53,2.34-1.97Zm44.12-9.57l-.02.13c-.1.66-.24,1.31-.41,1.96-.35,1.34-1.07,2.54-2.07,3.46-2.17,1.86-6.72,3.1-9.77,3.93l-.45.13c-2.65.73-4.59.79-5.63.18-.23-.12-.42-.3-.58-.5,1.36-.66,2.74-1.3,4.07-1.93l.23-.11c2.3-1.06,4.97-2.31,7.52-3.63.53-.28,1.11-.62,1.73-.97l.29-.17c1.58-1.04,3.29-1.87,5.08-2.48Zm-31.25,16.68l4.19,4.14c-.96.46-2.11.35-2.95-.27-.98-.79-1.83-1.73-2.51-2.79.3-.26.62-.54,1-.85l.28-.22Zm-16.24-2.69l13.59,1.91-1.39,1.17c-2.39,2.3-4.65,4.76-6.77,7.3l-5.01-7.02c-.47-1.07-.61-2.23-.42-3.36Zm-35.63,110.35c1.22-4.46,2.46-9.61,3.78-15.05l.5-2.06c2.78-11.58,6.24-25.99,9.94-35.75,2.13-5.93,4.69-11.77,7.59-17.35,5.56-10.22,13.24-19.18,20.68-27.85,2-2.41,4.13-4.75,6.35-6.96.78,1.18,1.74,2.23,2.87,3.12,1.3.91,2.94,1.21,4.5.82,0,0,0,0,0,0,.42-.13.82-.32,1.16-.55.75-.43,1.18-1.24,1.12-2.1v-.06c-.12-.57-.42-1.09-.83-1.44l-3.92-3.9c2.63-1.84,5.42-3.49,8.3-4.91.36.62.87,1.14,1.49,1.5,1.61.96,4.04.98,7.44.05l2.98-.88c2.5-.74,6.07-1.93,8.2-3.72,1.37-1.24,2.34-2.85,2.8-4.63.2-.72.36-1.47.48-2.19l.04-.2c.05-.24.09-.47.14-.71.53.04,1.05.19,1.52.45,2.41,1.33,3.12,3.89,3.29,5.81.47,5.24-2.4,12.33-6.26,15.48-2.93,2.28-6.05,4.36-9.29,6.19l-.67.4c-1.11.67-2.25,1.36-3.36,2.06-2.45,1.5-4.65,3.34-6.56,5.48-.1.08-.18.18-.25.29-1.77,2.02-3,4.47-3.55,7.1-.78,4.09.39,8.11,1.53,11.99l.57,1.93c4.94,17.73,2.3,37.64-6.74,50.73-10.9,15.79-33.81,20.79-50.19,23.17-2.04-1.93-3.94-4.03-5.65-6.25Zm53.58,19.1c-1.82.54-3.67,1-5.55,1.37-13.11,2.67-28.41-1.95-40.14-12.07,16.32-2.51,38.75-7.77,49.86-23.87,6.73-9.75,10.05-23.1,9.53-36.64l23.42,42.24c-.55.85-1.12,1.69-1.72,2.53l-.34.16.09.2c-8.49,11.76-21.56,22.08-35.14,26.09Zm200.26-102.5l-160.04,73.83-26.89-48.5-.1.06c-.42-3.42-1.08-6.82-2-10.15l-.58-1.96c-1.07-3.6-2.17-7.33-1.47-10.88.38-1.8,1.14-3.52,2.23-5.01,0,0,.62-.81,1.57-1.84v-.02c.1-.12.22-.23.33-.34.28-.28.56-.56.85-.83.07-.06.13-.12.2-.18.3-.27.6-.53.91-.79,1.02-.85,2.09-1.64,3.23-2.34,1.31-.83,2.68-1.64,3.98-2.43,3.32-1.89,6.53-4.03,9.56-6.38,1.15-.94,2.22-2.18,3.16-3.59l58.26,7.03,62.51-93.07c1.11.61,2.01,1.53,2.54,2.7l44.65,96.78c1.37,2.98.07,6.52-2.91,7.89Z"/>
        </g>
      </g>
    </g>
  </g>
</svg>