<?xml version="1.0" encoding="UTF-8"?>
<svg id="Capa_2" data-name="Capa 2" xmlns="http://www.w3.org/2000/svg" xmlns:xlink="http://www.w3.org/1999/xlink" viewBox="0 0 598 598">
  <defs>
    <style>
      .cls-1, .cls-2, .cls-3 {
        fill: none;
      }

      .cls-2 {
        isolation: isolate;
      }

      .cls-4 {
        fill: #67de83;
      }

      .cls-5 {
        fill: #08312a;
      }

      .cls-3 {
        clip-path: url(#clippath);
      }
    </style>
    <clipPath id="clippath">
      <rect class="cls-1" width="598" height="598"/>
    </clipPath>
  </defs>
  <g id="botones">
    <g class="cls-3">
      <g id="Videos">
        <g class="cls-2">
          <path class="cls-5" d="m170.99,483.02c-3.73-2.22-6.59-5.33-8.59-9.3-2-3.98-3-8.52-3-13.63s1-9.66,3-13.63c2-3.98,4.86-7.08,8.59-9.3,3.73-2.22,8.08-3.34,13.05-3.34,3.69,0,7.09.66,10.19,1.99,3.1,1.33,5.76,3.29,7.97,5.89,2.21,2.6,3.84,5.78,4.88,9.51l-10.97,1.67c-.92-3.24-2.41-5.75-4.46-7.51-2.05-1.76-4.62-2.65-7.72-2.65-2.72,0-5.08.71-7.08,2.11-2,1.41-3.53,3.42-4.6,6.04-1.06,2.62-1.6,5.69-1.6,9.21s.53,6.6,1.6,9.21c1.07,2.62,2.6,4.63,4.6,6.04,2,1.41,4.36,2.11,7.08,2.11,3.12,0,5.72-.91,7.77-2.73s3.54-4.46,4.44-7.92l10.97,1.7c-1.02,3.86-2.64,7.12-4.86,9.8-2.23,2.67-4.89,4.69-8.01,6.04s-6.51,2.02-10.21,2.02c-4.97,0-9.32-1.11-13.05-3.34Z"/>
          <path class="cls-5" d="m212.75,449.22h9.87v8.91h.57c.95-2.46,1.9-4.39,2.86-5.79.96-1.4,1.98-2.38,3.07-2.96,1.09-.58,2.34-.87,3.76-.87.5,0,.98.03,1.44.09.46.06.85.15,1.15.27v10.51c-1.35-.36-2.86-.53-4.54-.53-2.67,0-4.67.54-5.98,1.62-1.31,1.08-1.97,2.69-1.97,4.85v20.34h-10.22v-36.42Z"/>
          <path class="cls-5" d="m246.27,483.94c-2.86-1.61-5.08-3.85-6.66-6.71-1.57-2.86-2.36-6.13-2.36-9.8s.77-6.9,2.33-9.78c1.55-2.88,3.73-5.12,6.53-6.73,2.8-1.61,6.02-2.41,9.64-2.41s6.76.8,9.48,2.4c2.72,1.6,4.82,3.82,6.3,6.67,1.48,2.85,2.22,6.1,2.22,9.74v2.98h-25.77c.28,2.65,1.08,4.73,2.38,6.23,1.3,1.5,3.17,2.25,5.61,2.25,1.63,0,3.03-.34,4.19-1.03,1.16-.69,2.05-1.67,2.66-2.95l10.22.85c-.83,2.3-2.06,4.24-3.71,5.84-1.65,1.6-3.59,2.8-5.82,3.62s-4.67,1.22-7.29,1.22c-3.76,0-7.08-.8-9.94-2.41Zm16.93-20.48c-.24-2.29-.95-4.09-2.13-5.4-1.18-1.3-2.92-1.95-5.22-1.95s-4.08.65-5.36,1.95c-1.28,1.3-2.09,3.1-2.45,5.4h15.16Zm-5.96-31.7h10.47l-9.3,13.53h-9.62l8.45-13.53Z"/>
          <path class="cls-5" d="m285.72,483.92c-2.21-1.62-3.94-3.86-5.18-6.73-1.24-2.86-1.86-6.09-1.86-9.69s.62-6.88,1.85-9.76c1.23-2.89,2.95-5.15,5.17-6.78,2.21-1.63,4.73-2.45,7.54-2.45,2.53,0,4.73.67,6.59,2.01,1.86,1.34,3.34,3.3,4.46,5.88h.57v-24h10.22v53.25h-9.87v-7.6h-.57c-1.37,2.79-2.98,4.88-4.83,6.25-1.85,1.37-4.02,2.06-6.53,2.06-2.82,0-5.33-.81-7.54-2.43Zm17.57-8.43c1.27-1.96,1.9-4.65,1.9-8.06s-.63-6.09-1.9-8.06c-1.27-1.96-3.26-2.95-5.98-2.95s-4.72.98-6,2.95c-1.28,1.96-1.92,4.65-1.92,8.06s.64,6.09,1.92,8.06c1.28,1.96,3.28,2.95,6,2.95s4.72-.98,5.98-2.95Z"/>
          <path class="cls-5" d="m323.9,444.46c-.97-.54-1.73-1.3-2.29-2.27-.56-.97-.83-2.08-.83-3.34s.28-2.37.83-3.34c.56-.97,1.32-1.73,2.29-2.27.97-.54,2.07-.82,3.3-.82s2.33.27,3.3.82c.97.54,1.73,1.3,2.27,2.27.54.97.82,2.08.82,3.34s-.27,2.37-.82,3.34c-.54.97-1.3,1.73-2.27,2.27-.97.54-2.07.82-3.3.82s-2.33-.27-3.3-.82Zm-1.81,4.76h10.22v36.42h-10.22v-36.42Z"/>
          <path class="cls-5" d="m348.2,484.42c-1.81-.82-3.15-2.06-4.01-3.73-.86-1.67-1.3-3.82-1.3-6.44v-17.25h-5.96v-7.77h5.96v-9.48h10.22v9.48h9.09v7.77h-9.09v16.08c0,1.18.12,2.09.37,2.73.25.64.67,1.1,1.26,1.37.59.27,1.44.41,2.56.41h4.9v8.06h-6.99c-2.86,0-5.2-.41-7.01-1.22Z"/>
          <path class="cls-5" d="m374.12,483.99c-2.85-1.57-5.08-3.8-6.67-6.67-1.6-2.88-2.4-6.17-2.4-9.89s.8-7,2.4-9.87,3.82-5.09,6.67-6.67c2.85-1.58,6.11-2.38,9.78-2.38s6.93.79,9.78,2.38c2.85,1.59,5.07,3.81,6.66,6.67,1.59,2.86,2.38,6.15,2.38,9.87s-.79,7.04-2.38,9.91c-1.59,2.86-3.8,5.08-6.64,6.66-2.84,1.57-6.11,2.36-9.8,2.36s-6.93-.79-9.78-2.36Zm15.9-8.5c1.31-1.96,1.97-4.65,1.97-8.06s-.66-6.09-1.97-8.06c-1.31-1.96-3.35-2.95-6.12-2.95s-4.82.98-6.14,2.95c-1.33,1.96-1.99,4.65-1.99,8.06s.66,6.12,1.99,8.08c1.33,1.95,3.37,2.93,6.14,2.93s4.81-.98,6.12-2.95Z"/>
          <path class="cls-5" d="m412.76,483.73c-2.77-1.75-4.8-4.41-6.11-7.99l9.34-1.81c.57,1.63,1.48,2.85,2.73,3.66s2.88,1.21,4.86,1.21c1.14,0,2.14-.12,3-.37.86-.25,1.54-.62,2.02-1.1.48-.48.73-1.06.73-1.72,0-.76-.33-1.4-.99-1.92-.66-.52-1.5-.94-2.52-1.26-1.02-.32-2.43-.69-4.22-1.12-2.91-.71-5.31-1.43-7.19-2.15-1.88-.72-3.5-1.83-4.86-3.34-1.36-1.5-2.04-3.5-2.04-5.98,0-2.27.63-4.27,1.88-5.98,1.25-1.72,3.05-3.04,5.38-3.96,2.33-.92,5.08-1.38,8.25-1.38,4.09,0,7.49.83,10.19,2.5,2.7,1.67,4.69,4.14,5.96,7.4l-9.09,2.02c-.59-1.42-1.53-2.5-2.8-3.23-1.28-.73-2.88-1.1-4.79-1.1-1.63,0-2.89.24-3.78.73-.89.49-1.33,1.18-1.33,2.08,0,.76.33,1.38.99,1.88.66.5,1.5.89,2.5,1.19,1.01.3,2.42.65,4.24,1.05,2.98.69,5.44,1.38,7.37,2.09,1.93.71,3.6,1.83,5.01,3.37,1.41,1.54,2.11,3.6,2.11,6.18,0,2.44-.68,4.54-2.04,6.3-1.36,1.76-3.26,3.1-5.7,4.01-2.44.91-5.27,1.37-8.48,1.37-4.31,0-7.85-.88-10.61-2.63Z"/>
        </g>
      </g>
      <g>
        <g>
          <path class="cls-4" d="m350,238.92c.21-.47.41-.93.64-1.5.48-1.63,1.44-3.06,2.79-4.14.58-.5,1.12-1.05,1.63-1.64.85-1.04,1.49-2.22,1.88-3.49,2.3-6.86,2.25-15.38,1.86-23.52-.02-4.6-1.65-9.07-4.61-12.6q-1.27-1.59-.75-3.95c.91-4.04-.33-8.57-3.68-13.46-4.1-6-9.66-10.96-16.1-14.33-1.81-.95-3.69-1.77-5.51-2.56l-.55-.24c-1.92-.82-3.64-1.56-5.27-2.37-.97-.5-1.93-1.02-2.9-1.56l-1.05-.56c-.96-.51-1.92-1.03-2.89-1.5-14.99-7.11-31.66-3.66-39.74,3.2l-.82.73c-1.01,1.11-2.3,1.93-3.59,2.33-.78.09-1.58.06-2.38-.09-.8-.12-1.59-.17-2.44-.17-3.56.13-6.42,2.43-8.81,4.58-4.47,4.02-10.11,9.51-14.17,16.26-4.14,7.08-5.76,14.69-4.56,21.44.21,1.21.5,2.4.81,3.59.47,1.52.82,3.08,1.03,4.59.13,1.66.13,3.34,0,5.07,0,.46-.03.91-.07,1.36-.03.42-.06.83-.07,1.21-.36,9.78,4.28,26.05,18.53,39.74,2.13,1.96,4.77,3.21,7.6,3.61,1.48.28,2.91.74,4.19,1.32.92.53,1.71,1.23,2.38,2.12.53.62,1.1,1.2,1.7,1.75,2.03,1.72,4.82,1.92,6.66,2.05l5.73.4c3.72.25,7.59.51,11.44.84.6,0,1.21.09,1.81.17l.69.09c1.86.24,3.74.37,5.6.41.11,0,.22,0,.33,0,1.93,0,3.83-.32,5.7-.97,1.22-.5,2.37-1.17,3.45-2.01,1.05-.9,2.32-1.48,3.55-1.68.65,0,1.3.09,1.91.24.93.25,1.89.35,2.87.36,2.92-.1,5.19-2.09,7.09-3.95,4.12-4.11,8.15-8.36,11.95-12.62,2.46-2.53,4.52-5.39,6.15-8.56Zm-105.63-31.34c-.21-1.73-.55-3.46-1.01-5.13-.25-.96-.56-2.16-.74-3.3-1.04-5.88.43-12.62,4.12-18.96,3.59-6.13,8.82-11.24,13.46-15.43,1.99-1.79,4.14-3.56,6.65-3.69.55.01,1.1.06,1.61.13,1.12.2,2.27.23,3.5.07,2.11-.52,4.02-1.62,5.47-3.12l.72-.63c9.3-7.91,25.49-7.57,35.77-2.66,1.12.51,2.37,1.17,3.79,1.99.98.54,1.95,1.08,2.95,1.58,1.81.91,3.7,1.72,5.47,2.47,1.48.63,3.7,1.6,5.81,2.67,5.9,3.09,11,7.63,14.76,13.13,2.74,4.03,3.79,7.59,3.13,10.59-.75,3.39-.71,4.38,1.49,7.08,2.46,2.9,3.81,6.58,3.8,10.43.37,7.86.41,15.99-1.66,22.19v.02c-.27.85-.68,1.63-1.21,2.29-.38.43-.79.84-1.22,1.22-.6.52-1.17,1.09-1.74,1.75-.86,1.18-1.55,2.47-2.04,3.81-.18.43-.35.86-.53,1.23-1.46,2.79-3.32,5.35-5.55,7.65-3.78,4.25-7.76,8.45-11.82,12.48-1.45,1.44-3,2.84-4.58,2.9-.64-.02-1.27-.1-1.86-.25-3.06-.93-6.39-.11-8.6,2.06-.79.62-1.66,1.12-2.54,1.5-3.06,1.12-6.53.72-9.91.33l-2.73-.27c-3.81-.31-7.68-.59-11.43-.83l-5.7-.39c-1.95-.15-3.53-.33-4.51-1.17-.46-.42-.88-.86-1.26-1.31-.95-1.24-2.13-2.25-3.55-3.03-1.62-.75-3.33-1.31-5.14-1.65-2.17-.28-4.17-1.21-5.77-2.67-8.34-7.95-17.93-22.39-17.53-36.92,0-.85,0-1.66.13-2.54.15-1.85.15-3.72,0-5.61Z"/>
          <path class="cls-4" d="m374.15,204.06c-.24-3.59-.89-7.15-1.95-10.63l-.14-.37c-.62-1.39-1.56-2.64-2.71-3.63-.66-.58-1.23-1.25-1.65-1.96-.82-1.6-.55-3.56-.28-5.43.24-1.43.33-2.89.25-4.36-.55-6.64-4.29-13.04-11.43-19.55-4.73-4.32-11.88-10.4-19.36-13.33-1.02-.41-2.07-.75-3.29-1.13-1.31-.42-2.45-.78-3.56-1.27-1.76-.8-3.48-1.74-5.27-2.88-.79-.48-1.58-.96-2.39-1.42-14.54-8.29-39.28-9.31-53.9,3.5l-.69.61c-1.35,1.19-2.75,2.42-4.13,2.54-.68.04-1.38-.06-2.08-.22-.55-.11-1.11-.2-1.68-.26-4.46-.43-8.41,2.25-11.69,4.89-8.59,6.95-14.78,13.92-18.91,21.31-5.15,9.2-7.03,19.2-5.31,28.15.2,1.11.46,2.22.73,3.33.43,1.67.76,3.39.97,5.05.13,2.11.09,4.25-.13,6.39-.09,1.1-.17,2.18-.21,3.26-.73,18.77,10.62,35.46,19.18,46.35,2.25,3.2,5.09,5.85,8.51,7.92,1.99.93,4.1,1.57,6.25,1.89.76.14,1.53.3,2.28.5l-17.55,64.99c-1.52,5.64-3.01,11.29-4.51,16.94l-2.58,9.75c-1.56,5.89-3.12,11.78-4.7,17.67l-1.04,3.9c-.2.7.05,1.45.62,1.93.57.45,1.35.53,2,.19l20.34-10.5c1.53-.79,3.4-.53,4.66.66l15.63,14.89c.34.33.8.52,1.26.52h.02l.43-.02c.59-.15,1.08-.58,1.29-1.15,1.02-2.76,4.6-18.01,8.83-36.16l.05-.21c.57-2.44,1.13-4.84,1.66-7.12.31,3.28.62,6.22.95,9.03.15,1.25.24,2.58.33,3.96.12,2.46.41,4.94.87,7.37.1.55.46,1.03.93,1.26.49.27,1.12.28,1.57.08,2.83-1.16,9.47-6.27,15.45-10.95.72-.55,1.34-1.03,1.84-1.43.4-.32.73-.57.98-.76,1.24-.93,2.92-1.07,4.3-.37l6.68,3.4c1.25.61,2.44,1.25,3.84,2.07,2.92,1.79,6.05,3.28,9.29,4.42.46.16.96.14,1.41-.07.45-.21.78-.58.95-1.05.07-.21.11-.43.11-.63,0-3.63-1.1-20.06-1.44-24.27-.5-6.53-1.09-13.15-1.66-19.57l-.06-.67c-.39-4.42-.78-8.84-1.16-13.26l-2.65-30.26c3.84-.19,6.7-1.06,10.09-4.39l.46-.44c7.17-7,16.1-15.72,21.99-26.07,1.02-1.78,2.17-3.52,3.36-5.34,2.98-4.51,6.07-9.17,7.05-15.04,1.26-7.27,1.51-14.68.76-22.06l-.07-.44Zm-109.19,70.6c.86.53,1.67,1.14,2.43,1.81.84.75,1.75,1.45,2.72,2.09,3.61,2.29,7.89,2.69,11.66,3.05l2.58.22c.14,3.46.27,6.9.39,10.36.58,16.14,1.14,30.72,2.22,45.51-1.08,4.77-2.62,11.36-4.25,18.33l-.45,1.92c-2.9,12.4-5.88,25.19-7.44,31.02l-13.47-12.81c-1.47-1.4-3.39-2.13-5.33-2.13-1.21,0-2.44.29-3.56.87l-16.64,8.59c1.34-4.98,2.66-9.97,3.98-14.96l2.82-10.66c1.64-6.21,3.29-12.41,4.96-18.61l17.37-64.59Zm62.37-.42h-1.03c-2.74.25-5.37,1.2-7.59,2.73-1.25.76-2.58,1.39-3.89,1.86-3.58.98-7.26,1.27-10.98.88l-17.27-1.37c-.1-.02-.2-.03-.31-.03-.06,0-.11,0-.17,0l-3.24-.27c-3.55-.28-7.58-.59-10.71-2.54-.82-.54-1.61-1.14-2.34-1.77-1.08-.97-2.26-1.82-3.56-2.56-2-.98-4.13-1.63-6.34-1.94-1.83-.27-3.6-.8-5.17-1.52-2.86-1.76-5.3-4.04-7.28-6.81-8.24-10.51-19.13-26.51-18.45-44.07,0-.77.07-1.54.13-2.31l.06-.75c.24-2.34.29-4.72.13-7.1-.22-1.89-.57-3.78-1.05-5.61l-.12-.53c-.21-.87-.41-1.74-.57-2.61-1.5-8.14.26-17.27,4.97-25.69,3.83-6.93,9.73-13.55,18.03-20.24,2.65-2.13,5.51-4.11,8.45-4.11h.68c.23,0,.51.06.8.12l.41.08c.99.24,2.01.33,3.05.28,2.7-.22,4.67-1.97,6.47-3.58l.48-.44c10.41-9.15,32.35-12.92,49.65-3.05.61.34,1.2.71,1.8,1.07l.62.38c1.77,1.14,3.64,2.16,5.59,3.04,1.3.54,2.65,1.01,3.98,1.39,1.01.32,2.05.65,3.03,1.03,6.91,2.72,13.72,8.52,18.24,12.65,6.42,5.86,9.77,11.46,10.25,17.08.04,1.19-.04,2.38-.25,3.65-.31,2.34-.67,5,.69,7.61.63,1.1,1.43,2.09,2.4,2.94.79.66,1.41,1.47,1.81,2.3l.09.27c.94,3.17,1.51,6.44,1.71,9.68v.57c.73,6.98.5,14.03-.68,20.95-.85,5.08-3.58,9.22-6.49,13.63-1.16,1.74-2.38,3.61-3.48,5.55-5.75,10.11-14.67,18.77-21.83,25.73-3.48,3.37-5.73,3.38-10.7,3.39Zm-38.68,19.61l-.06-1.8c-.12-3.3-.24-6.61-.37-9.92l15.48,1.23c1.22.09,2.4.14,3.54.14h0c2.97.07,5.91-.35,8.81-1.18,1.63-.58,3.2-1.32,4.71-2.23,1.74-1.2,3.77-1.95,5.78-2.17h.34l2.55,30.55c.35,4.22.72,8.44,1.1,12.66l.22,2.54c.53,6.03,1.08,12.21,1.56,18.29.26,3.33,1.07,15.32,1.33,21.26-2.07-.92-4.1-1.97-6.06-3.15l-.88-.49c-1.02-.57-2.04-1.15-3.06-1.67l-6.66-3.39c-2.6-1.33-5.8-1.06-8.13.69-.41.31-1.04.8-1.83,1.41l-1.06.82c-4,3.25-8.2,6.35-12.5,9.22-.16-1.36-.27-2.78-.37-4.31-.09-1.31-.2-2.77-.36-4.14-2.53-21.33-3.31-43.2-4.07-64.35Z"/>
          <path class="cls-4" d="m285.68,223.22c2.82,2.57,6.43,3.97,10.2,3.97.22,0,.44,0,.66-.01,4-.03,8-1.01,11.55-2.84,6.73-3.39,10.88-10.18,10.81-17.71v-.23c-.37-8.18-5.85-15.34-13.68-17.82-7.35-2.11-15.27-.48-21.18,4.38-4.6,3.78-6.94,9.8-6.1,15.71.89,5.55,3.64,10.71,7.75,14.56Z"/>
        </g>
        <rect class="cls-1" x="149" y="113.07" width="300" height="300"/>
      </g>
    </g>
  </g>
</svg>