<?xml version="1.0" encoding="UTF-8"?>
<svg id="Capa_2" data-name="Capa 2" xmlns="http://www.w3.org/2000/svg" viewBox="0 0 300 300">
  <defs>
    <style>
      .cls-1, .cls-2, .cls-3 {
        fill: none;
      }

      .cls-4 {
        fill: #00e47c;
      }

      .cls-5 {
        fill: #fff;
      }

      .cls-2 {
        stroke-linecap: round;
        stroke-linejoin: round;
      }

      .cls-2, .cls-3 {
        stroke: #00e47c;
        stroke-width: 1.15px;
      }

      .cls-3 {
        stroke-miterlimit: 10;
      }
    </style>
  </defs>
  <g id="botones">
    <g>
      <rect class="cls-1" width="300" height="300"/>
      <g>
        <g>
          <path class="cls-3" d="m184.62,150.98c6.83,9.29,3.8,23.12-6.77,30.9-10.57,7.78-24.68,6.55-31.52-2.74-6.83-9.29-3.8-23.12,6.77-30.9,10.57-7.78,24.68-6.55,31.52,2.74Z"/>
          <path class="cls-2" d="m146.81,184.52s-17.78-9.04-14.81-26.96c2.96-17.92,21.33-25.63,31.55-25.48,1.78-.3,2.37-2.67,2.37-2.67,0,0,1.48,3.11,2.82,3.71,1.33.59,13.63,3.85,14.07,3.85s3.26.45,3.26.45l-.45,3.7s8.74,12.59,5.48,23.11c-3.26,10.52-7.26,17.18-23.41,22.22-13.78,3.71-20.89-1.93-20.89-1.93Z"/>
          <path class="cls-2" d="m131.7,163.93s-6.22-18.81,11.11-29.92c13.18-9.18,24.15-5.93,24.15-5.93,0,0,9.04-20.15,8.3-52.44-.74-32.29-7.44-32.34-16.15-29.33-11.56,4-23.7,27.85-28.59,44.15-4.89,16.3-10.37,33.33-9.78,43.41,2.82-1.19,15.11-1.33,17.33-.59-.15-2.37,9.33-56.74,34.51-79.4"/>
          <path class="cls-2" d="m187.1,135.78s14.37-52,6.07-75.7c-5.93-16.59-37.09-36.3-59.29,10.71-14.65,31.03-17.93,65.65-17.93,65.65,0,0-8.4,5.86-11.66,12.53-3.26,6.67-2.67,19.69,7.26,29.33,20.5,19.92,38.51,7.85,38.51,7.85"/>
          <path class="cls-2" d="m146.21,184.07s-26.2,4.94-37.77-19.26c-7.77-18.5,3.56-24.89,3.56-24.89"/>
          <path class="cls-4" d="m165.89,130.96l-2.34,1.12s-9.94.96-15.14,3.46c-5.2,2.5-12.07,9.78-13.53,13.53-1.46,3.75-3.54,12.7-3.54,12.7,0,0-1.04-4.16-.62-9.78.42-5.62,2.71-11.45,9.99-16.23,0,0,8.74-6.66,16.23-8.32,7.49-1.67,8.95,3.54,8.95,3.54"/>
        </g>
        <g>
          <path class="cls-5" d="m77.86,228.76h9.68c1.94,0,3.66.36,5.14,1.08s2.63,1.74,3.44,3.05,1.21,2.84,1.21,4.6-.4,3.29-1.21,4.61c-.81,1.32-1.95,2.33-3.44,3.05s-3.19,1.07-5.14,1.07h-5.67v11.91h-4.02v-29.36Zm9.68,13.99c1.2,0,2.21-.21,3.03-.64s1.44-1.04,1.84-1.83c.41-.79.61-1.72.61-2.79s-.2-2-.61-2.79c-.41-.79-1.02-1.4-1.84-1.83s-1.83-.64-3.03-.64h-5.67v10.52h5.67Z"/>
          <path class="cls-5" d="m103.78,257.18c-1.53-.9-2.71-2.16-3.55-3.78s-1.25-3.49-1.25-5.6.42-3.99,1.25-5.62c.84-1.62,2.02-2.88,3.55-3.78,1.53-.9,3.29-1.35,5.29-1.35s3.76.45,5.29,1.35c1.53.9,2.71,2.16,3.55,3.78.84,1.63,1.25,3.5,1.25,5.62s-.42,3.97-1.25,5.6c-.84,1.62-2.02,2.89-3.55,3.78-1.53.9-3.29,1.35-5.29,1.35s-3.76-.45-5.29-1.35Zm8.66-2.83c.9-.61,1.58-1.47,2.02-2.59s.66-2.43.66-3.95-.22-2.84-.66-3.95c-.44-1.11-1.11-1.98-2.02-2.59s-2.03-.92-3.37-.92-2.45.3-3.35.92-1.58,1.48-2.03,2.59c-.45,1.11-.67,2.43-.67,3.95s.22,2.84.67,3.95c.45,1.11,1.12,1.98,2.03,2.59.9.61,2.02.92,3.35.92s2.47-.31,3.37-.92Z"/>
          <path class="cls-5" d="m127.14,257.17c-1.36-.9-2.42-2.17-3.19-3.8-.77-1.63-1.15-3.49-1.15-5.57s.38-3.95,1.15-5.59,1.83-2.9,3.19-3.8,2.9-1.36,4.63-1.36c1.44,0,2.68.35,3.73,1.05,1.05.7,1.96,1.79,2.75,3.27h.33v-13.84h3.75v30.58h-3.55v-4.16h-.33c-.84,1.58-1.8,2.73-2.86,3.47s-2.35,1.1-3.84,1.1c-1.71,0-3.25-.45-4.61-1.36Zm8.98-2.82c.89-.61,1.56-1.48,2-2.6.44-1.12.66-2.44.66-3.94s-.22-2.84-.66-3.95c-.44-1.11-1.11-1.98-2-2.59s-1.99-.92-3.31-.92-2.43.3-3.32.92c-.9.61-1.56,1.48-2,2.59-.44,1.11-.65,2.43-.65,3.95s.22,2.82.66,3.94c.44,1.12,1.11,1.99,2,2.6.89.61,2,.92,3.31.92s2.42-.31,3.31-.92Z"/>
          <path class="cls-5" d="m151.45,257.17c-1.52-.9-2.69-2.17-3.53-3.79-.84-1.62-1.25-3.5-1.25-5.62s.42-3.97,1.25-5.59c.84-1.62,2.01-2.87,3.53-3.77,1.52-.9,3.27-1.35,5.25-1.35,1.51,0,2.89.27,4.14.81s2.32,1.32,3.2,2.35,1.53,2.25,1.94,3.66l-3.85.67c-.4-1.38-1.05-2.43-1.97-3.14-.92-.71-2.08-1.06-3.5-1.06-1.32,0-2.42.3-3.31.91-.89.6-1.56,1.46-2,2.58-.44,1.11-.66,2.43-.66,3.94s.22,2.84.66,3.95c.44,1.11,1.11,1.98,2,2.59.89.61,1.99.92,3.31.92,2.84,0,4.66-1.46,5.46-4.38l3.85.67c-.41,1.47-1.05,2.73-1.93,3.78-.88,1.05-1.94,1.86-3.19,2.41-1.25.55-2.64.83-4.16.83-1.98,0-3.73-.45-5.25-1.36Z"/>
          <path class="cls-5" d="m171.73,257.81c-.93-.48-1.66-1.16-2.19-2.03-.53-.87-.8-1.87-.8-3,0-1.81.71-3.27,2.13-4.38,1.42-1.11,3.54-1.87,6.37-2.26l4.98-.71c-.03-1.2-.21-2.17-.54-2.92-.33-.75-.82-1.3-1.46-1.65-.64-.35-1.45-.53-2.45-.53-1.28,0-2.33.3-3.16.9s-1.44,1.54-1.83,2.81l-3.69-.31c.35-1.41.92-2.62,1.71-3.61.79-.99,1.78-1.75,2.97-2.27,1.19-.52,2.56-.79,4.11-.79,1.7,0,3.15.32,4.36.96,1.21.64,2.13,1.58,2.77,2.81.64,1.24.96,2.74.96,4.51v12.78h-3.55v-4.16h-.33c-.83,1.47-1.87,2.6-3.13,3.39s-2.63,1.18-4.11,1.18c-1.16,0-2.2-.24-3.13-.72Zm1.96-3.28c.63.5,1.52.74,2.66.74,1.06,0,2.04-.2,2.94-.6s1.61-.95,2.14-1.65.8-1.48.8-2.33v-2.39l-4.34.65c-1.24.18-2.23.4-2.97.68-.74.28-1.29.64-1.64,1.08-.35.44-.53,1-.53,1.66,0,.94.32,1.66.95,2.15Z"/>
          <path class="cls-5" d="m192.69,257.05c-1.47-.99-2.57-2.48-3.27-4.47l3.69-.67c.45,1.14,1.12,1.99,2.02,2.55s2.03.84,3.41.84c.88,0,1.65-.11,2.31-.34.66-.22,1.16-.55,1.52-.97.35-.42.53-.92.53-1.49,0-.64-.22-1.16-.67-1.56-.45-.4-1.01-.71-1.67-.94-.67-.22-1.6-.48-2.79-.76-1.59-.38-2.88-.77-3.88-1.15s-1.85-.99-2.57-1.79-1.07-1.89-1.07-3.23c0-1.2.32-2.25.97-3.15.65-.9,1.56-1.6,2.73-2.1s2.54-.74,4.09-.74c2.15,0,3.95.48,5.4,1.45,1.45.97,2.51,2.36,3.18,4.18l-3.49.67c-.41-1.02-1.04-1.78-1.91-2.29-.86-.51-1.96-.77-3.29-.77-1.24,0-2.2.22-2.89.65-.69.44-1.04,1.05-1.04,1.86,0,.62.22,1.14.67,1.53.45.4,1.01.7,1.68.93s1.6.47,2.78.72c1.63.37,2.95.74,3.97,1.12s1.88.98,2.61,1.79,1.09,1.92,1.09,3.3c0,1.28-.35,2.4-1.04,3.35-.69.96-1.68,1.69-2.95,2.2-1.27.51-2.76.77-4.45.77-2.3,0-4.18-.49-5.66-1.48Z"/>
          <path class="cls-5" d="m215.02,257.53c-.88-.39-1.5-1-1.87-1.82-.37-.82-.55-1.91-.55-3.27v-11.7h-3.63v-3.26h3.63v-4.99h3.75v4.99h5.79v3.26h-5.79v11.56c0,.64.06,1.14.19,1.5.13.36.38.63.74.79.37.17.9.26,1.59.26h3.26v3.28h-3.51c-1.54,0-2.74-.2-3.62-.59Z"/>
        </g>
      </g>
    </g>
  </g>
</svg>