<?xml version="1.0" encoding="UTF-8"?>
<svg id="Capa_2" data-name="Capa 2" xmlns="http://www.w3.org/2000/svg" viewBox="0 0 300 300">
  <defs>
    <style>
      .cls-1 {
        fill: none;
      }

      .cls-2 {
        fill: #00e47c;
      }

      .cls-3 {
        fill: #fff;
      }

      .cls-4 {
        fill: #08312a;
      }
    </style>
  </defs>
  <g id="botones">
    <g>
      <rect class="cls-1" width="300" height="300"/>
      <g>
        <g>
          <path class="cls-3" d="m114.05,228.51h6.59l9.62,29.36h-4.2l-2.73-8.62h-12.15l-2.73,8.62h-4.04l9.64-29.36Zm8.16,17.27l-4.79-15.13h-.37l-4.77,15.13h9.93Z"/>
          <path class="cls-3" d="m136.16,257.28c-.88-.39-1.5-1-1.87-1.82-.37-.82-.55-1.91-.55-3.27v-11.7h-3.63v-3.26h3.63v-4.99h3.75v4.99h5.79v3.26h-5.79v11.56c0,.64.06,1.14.19,1.5.13.36.38.63.74.79.37.17.9.26,1.59.26h3.26v3.28h-3.51c-1.54,0-2.74-.2-3.62-.59Z"/>
          <path class="cls-3" d="m149.39,257.36c-.81-.34-1.4-.88-1.76-1.61s-.55-1.71-.55-2.94v-25.53h3.75v25.18c0,.54.07.97.21,1.27.14.31.37.52.69.65.32.13.76.19,1.34.19h1.53v3.28h-1.96c-1.36,0-2.44-.17-3.25-.51Z"/>
          <path class="cls-3" d="m159.79,257.55c-.93-.48-1.66-1.16-2.19-2.03-.53-.87-.8-1.87-.8-3,0-1.81.71-3.27,2.13-4.38,1.42-1.11,3.54-1.87,6.37-2.26l4.97-.71c-.03-1.2-.21-2.17-.54-2.92-.33-.75-.82-1.3-1.46-1.65-.64-.35-1.45-.53-2.45-.53-1.28,0-2.33.3-3.16.9-.83.6-1.44,1.54-1.84,2.81l-3.69-.31c.35-1.41.92-2.62,1.71-3.61s1.78-1.75,2.97-2.27,2.56-.79,4.11-.79c1.7,0,3.15.32,4.36.96s2.13,1.58,2.77,2.81c.64,1.24.96,2.74.96,4.51v12.78h-3.55v-4.16h-.33c-.83,1.47-1.87,2.6-3.13,3.39-1.26.79-2.63,1.18-4.11,1.18-1.16,0-2.2-.24-3.13-.72Zm1.96-3.28c.63.5,1.52.74,2.66.74,1.06,0,2.04-.2,2.94-.6.9-.4,1.61-.95,2.14-1.65s.8-1.48.8-2.33v-2.39l-4.34.65c-1.24.18-2.23.4-2.97.68-.74.28-1.29.64-1.64,1.08-.35.44-.53,1-.53,1.66,0,.94.32,1.66.95,2.15Z"/>
          <path class="cls-3" d="m180.74,256.8c-1.47-.99-2.57-2.48-3.27-4.47l3.69-.67c.45,1.14,1.12,1.99,2.02,2.55s2.03.84,3.4.84c.88,0,1.65-.11,2.31-.34.66-.22,1.17-.55,1.52-.97.35-.42.53-.92.53-1.49,0-.64-.22-1.16-.67-1.56-.45-.4-1.01-.71-1.67-.94-.67-.22-1.6-.48-2.79-.76-1.59-.38-2.89-.77-3.88-1.15-1-.39-1.86-.99-2.57-1.79s-1.07-1.89-1.07-3.23c0-1.2.32-2.25.97-3.15s1.56-1.6,2.73-2.1,2.54-.74,4.09-.74c2.15,0,3.95.48,5.4,1.45,1.45.97,2.51,2.36,3.18,4.18l-3.49.67c-.41-1.02-1.04-1.78-1.91-2.29-.86-.51-1.96-.77-3.29-.77-1.24,0-2.2.22-2.9.65-.69.44-1.04,1.05-1.04,1.86,0,.62.22,1.14.67,1.53.45.4,1.01.7,1.68.93.67.22,1.6.47,2.78.72,1.63.37,2.95.74,3.97,1.12s1.88.98,2.61,1.79c.73.82,1.09,1.92,1.09,3.3,0,1.28-.35,2.4-1.04,3.35-.69.96-1.67,1.69-2.95,2.2-1.27.51-2.76.77-4.45.77-2.3,0-4.18-.49-5.66-1.48Z"/>
        </g>
        <g>
          <path class="cls-2" d="m219.72,41.73c-10.55,0-19.1,8.55-19.1,19.1s8.55,19.1,19.1,19.1,19.1-8.55,19.1-19.1-8.55-19.1-19.1-19.1"/>
          <path class="cls-2" d="m112.38,94.25c-.16,0-.31-.07-.42-.19-2.98-3.47-.64-8.03-.55-8.22.07-.13.19-.23.32-.27l11.31-3.53c.29-.09.6.07.69.36.09.29-.07.6-.36.69l-11.07,3.46c-.36.82-1.58,4.03.28,6.53,2.8-.76,10.42-2.66,10.49-2.68.29-.07.59.11.67.4.07.3-.11.59-.4.67-.08.02-8.39,2.08-10.81,2.76-.05.02-.1.02-.15.02"/>
          <path class="cls-2" d="m173.39,190.02c-5.3,0-12.17-.97-21.14-4.09-13.97-4.86-24.46-15.56-27.15-21.27-2.72-5.78-3.59-11.89-4.36-17.28-.47-3.31-.88-6.16-1.64-8.45-5.31-10.61-5.99-16.05-5.43-22.9.54-6.57,4.52-16.26,7.99-22.05,2.64-4.42.81-13.79.19-16.56l-.03-.13c-.16-.69-.38-1.62.23-2.31,2.56-2.91,7.89-2.44,10.36-1.78,2.62.69,3.13,1.79,3.2,2,.01.03.02.07.03.11l.99,6.87c3.04-4.92,7.96-7.97,9.31-8.74l-1.44-10.28c0-.06,0-.11,0-.17.03-.19.41-1.85,3.91-2.55,3.51-.7,5.07,1.12,5.13,1.2.07.08.11.18.12.29l1.03,9.32,1.03-.06,1.84-9.57c.03-.19.16-.34.34-.41,2.29-.92,4.36-.28,5.39.18.39.17.62.58.58,1l-.16,1.65,1.76.33c.58.12.95.66.87,1.23l-1.23,6.89,1.87.97c4.31,2.89,4.8,7.92,4.84,9.67.99-.06,3.06-.2,5-.41,1.84-.2,3.58.3,4.8,1.36,1.1.97,1.7,2.37,1.73,4.03.08,4.15-3.79,5.56-3.83,5.58-.05.02-.09.03-.14.03l-3.86.28c1.63.41,3.48,1.11,5.16,2.42,4.23,3.3,4.12,7.55,3.99,12.05l-.02.67c-.12,4.62-.05,5.49,2.81,9.38,6.17,7.17,10.02,16.01,10.78,19.98.13.66.38,1.48.67,2.42,1.29,4.16,3.45,11.13,1.25,23.99-2.32,13.62-8.07,21.67-17.09,23.93-2.45.61-5.6,1.19-9.7,1.19m-44.99-116.24c-2.04,0-4.23.45-5.52,1.91-.23.27-.11.81.02,1.34l.03.14c.83,3.68,2.46,12.73-.31,17.37-3.41,5.68-7.31,15.18-7.84,21.58-.55,6.66.13,11.95,5.33,22.36,0,.02.02.05.03.07.8,2.39,1.23,5.44,1.69,8.68.76,5.31,1.62,11.34,4.27,16.97,2.61,5.54,12.84,15.95,26.51,20.7,12.05,4.19,21.37,5.08,30.21,2.87,8.68-2.17,14-9.71,16.27-23.05,2.15-12.6.04-19.41-1.22-23.48-.3-.97-.56-1.81-.7-2.54-.74-3.85-4.5-12.45-10.56-19.5-3.09-4.18-3.17-5.33-3.05-10.09l.02-.67c.12-4.4.22-8.19-3.57-11.15-2.7-2.1-5.99-2.52-7.76-2.75-.39-.05-.72-.09-.96-.14-.27-.05-.51-.36-.49-.63.02-.31.26-.56.57-.58l7.86-.56c.46-.18,3.09-1.37,3.03-4.49-.03-1.37-.48-2.46-1.36-3.23-.97-.85-2.45-1.26-3.95-1.1-2.68.29-5.61.44-5.65.45-.14,0-.31-.05-.42-.16-.11-.11-.17-.26-.16-.42,0-.06.3-6.19-4.29-9.28l-2.18-1.12c-.21-.11-.33-.35-.29-.58l1.3-7.27-2.25-.39c-.28-.05-.47-.31-.45-.59l.2-2.08c-.85-.37-2.43-.83-4.18-.23l-1.86,9.69c-.05.25-.25.43-.51.45l-1.98.12c-.29.02-.55-.2-.58-.49l-1.07-9.65c-.35-.31-1.57-1.2-3.97-.72-2.36.47-2.91,1.36-3.02,1.61l1.47,10.52s0,.03,0,.05c0,.1-.02.2-.06.28s-.11.16-.2.21c0,0-.01,0-.02.01-.07.04-6.73,3.8-10,9.91-.14.27-.48.37-.75.22-.23-.13-.34-.39-.27-.64-.04-.08-.07-.16-.08-.25l-1.14-7.91c-.08-.13-.59-.8-2.43-1.28-.93-.25-2.29-.47-3.74-.47"/>
          <path class="cls-2" d="m127.57,183.34c-4.28,0-5.39-2.29-5.43-2.39-.03-.07-.05-.15-.05-.23v-25.39c0-.31.25-.55.55-.55s.55.25.55.55v25.24c.25.39,1.47,1.89,5.21,1.64,3.66-.25,4.96-1.47,5.26-1.83v-5.67c0-.31.25-.55.55-.55s.55.25.55.55v5.85c0,.09-.02.19-.07.27-.05.09-1.26,2.14-6.22,2.48-.32.02-.62.03-.91.03"/>
          <path class="cls-2" d="m142.94,189.49c-4.8,0-5.67-2.96-5.71-3.09-.01-.05-.02-.09-.02-.14v-8.7c0-.31.25-.55.55-.55s.55.25.55.55v8.61c.14.38,1.1,2.39,5.14,2.21,3.88-.18,4.99-1.52,5.21-1.86v-2.36c0-.3.25-.55.55-.55s.55.25.55.55v2.5c0,.07-.02.14-.04.2-.1.24-1.09,2.37-6.22,2.61-.19,0-.38.01-.56.01"/>
          <path class="cls-2" d="m132.06,97.62s-.04,0-.07,0c-.3-.04-.52-.31-.48-.61.03-.2,2.66-20.18,18.1-24.72.35-.16,2.6-1.1,6.56-1.13h0c.3,0,.55.24.55.55,0,.3-.24.55-.55.55-3.96.03-6.12,1.03-6.14,1.04-.03.01-.06.02-.08.03-14.77,4.31-17.33,23.61-17.36,23.8-.03.28-.27.48-.54.48"/>
          <path class="cls-2" d="m149.07,117.95c-2.74,0-5.02-.63-6.83-1.88-3.89-2.69-4.09-7.22-4.09-7.42,0-.1.02-.19.07-.28.12-.23,12.14-22.43,32.99-25.22.31-.05.58.17.62.47.04.3-.17.58-.47.62-19.44,2.6-31.06,22.66-32.09,24.51.07.75.55,4.3,3.62,6.41,3.28,2.26,8.37,2.24,15.13-.06.29-.1.6.06.7.34.1.29-.05.6-.34.7-3.51,1.2-6.61,1.79-9.28,1.79"/>
          <path class="cls-2" d="m200.53,153.34h-.02c-.31,0-.54-.26-.53-.57.02-.44.21-10.76-12-14.77-2.87-.94-5.54-1.71-8.12-2.46-10.44-3.02-17.99-5.2-21.07-13.74-3.17-8.79,1.01-18.57,1.19-18.98,0-.03,3.05-9.84,14.11-9.84.33,0,.61.23.61.55,0,.31-.25.55-.55.55h-.06c-10.26,0-13.06,9.03-13.08,9.12-.07.16-4.2,9.86-1.19,18.23,2.89,8.02,10.21,10.13,20.34,13.06,2.59.75,5.27,1.52,8.16,2.47,13.02,4.27,12.76,15.73,12.76,15.85-.01.3-.25.53-.55.53"/>
          <path class="cls-2" d="m110.78,113.87c-1.35,0-2.33-.53-2.97-1.61-.46-.77-.57-1.73-.3-2.63.28-.92.92-1.67,1.76-2.08.98-.47,3.35-.78,5.36-.97l-3.02-1.89s-1.65-.93-2.06-2.48c-.21-.81-.06-1.62.43-2.42.56-.9,1.27-1.44,2.11-1.61,1.3-.26,2.41.5,2.45.53l4.15,2.47c.26.15.35.49.19.75-.15.26-.49.35-.75.19l-4.18-2.49s-.81-.55-1.64-.37c-.53.11-.99.48-1.38,1.11-.34.54-.44,1.05-.31,1.56.28,1.09,1.54,1.81,1.55,1.82l3.52,2.2c.34.21.5.61.41.99-.09.39-.41.66-.81.69-2.81.23-4.82.57-5.54.91-.57.27-1,.78-1.19,1.4-.18.6-.11,1.24.19,1.75.47.78,1.27,1.49,3.71.81l2.19-.61c.29-.08.6.09.68.38.08.29-.09.6-.38.68l-2.19.61c-.73.2-1.39.3-1.97.3"/>
          <path class="cls-2" d="m178.84,93.14c-2.51,0-4.54-2.15-4.54-4.79s2.04-4.79,4.54-4.79,4.54,2.15,4.54,4.79-2.04,4.79-4.54,4.79m0-8.47c-1.9,0-3.44,1.65-3.44,3.69s1.54,3.69,3.44,3.69,3.44-1.65,3.44-3.69-1.54-3.69-3.44-3.69"/>
          <path class="cls-2" d="m184.01,103.95c-.16,0-.32-.07-.43-.2-.19-.24-.15-.58.08-.77l4.29-3.49c.07-.06,1.67-1.38.64-3.18-1.01-1.76-2.98-.71-3.07-.66l-4.15,2.3c-.27.15-.6.05-.75-.21-.15-.27-.05-.6.21-.75l4.15-2.3c1.04-.57,3.32-1.07,4.55,1.08,1.2,2.1-.07,3.92-.91,4.58l-4.28,3.49c-.1.08-.22.12-.35.12"/>
          <path class="cls-2" d="m188.7,110.27c-.37,0-.63-.05-.65-.05l-4.05-.89c-.3-.07-.48-.36-.42-.66.07-.3.36-.48.66-.42l4.03.89s1.04.19,1.78-.36c.43-.32.69-.86.76-1.6.09-.91-.09-1.63-.54-2.14-.79-.89-2.16-.92-2.18-.92l-3.72-.31c-.3-.03-.53-.29-.5-.59.03-.3.3-.53.59-.5l3.68.31c.06.02,1.82.03,2.94,1.27.67.75.95,1.76.82,2.99-.11,1.06-.52,1.86-1.21,2.37-.67.5-1.46.6-2,.6"/>
          <path class="cls-2" d="m161.98,72.7s-.05,0-.08,0c-.3-.04-.51-.32-.46-.63l1.14-7.66c.04-.3.33-.5.63-.46.3.04.51.32.46.63l-1.14,7.66c-.04.27-.28.47-.54.47"/>
          <path class="cls-2" d="m148.36,64.73c-2.92,0-3.7-1.24-3.79-1.39-.15-.26-.05-.6.21-.75.26-.14.59-.06.74.2.03.05.82,1.09,3.93.79,2.49-.25,3.13-1.01,3.16-1.28,0-.31.23-.54.53-.55h.01c.3,0,.54.25.55.55,0,.2-.06,1.96-4.15,2.37-.43.04-.83.06-1.2.06"/>
          <path class="cls-2" d="m171.27,173.24c-.12,0-.24-.04-.34-.12-3.82-2.99-2.42-10.08-1.4-15.26l.18-.9c.69-3.46,1.34-6.74,1.02-8.9-.67-4.46-6.92-8.54-11.93-11.81-1.56-1.02-3.04-1.98-4.15-2.84-4.71-3.63-5.92-15.75-5.97-16.26-.03-.3.19-.57.5-.6.3-.03.57.19.6.5.01.12,1.22,12.16,5.55,15.5,1.08.83,2.53,1.78,4.08,2.79,5.2,3.39,11.68,7.62,12.42,12.57.36,2.35-.31,5.72-1.03,9.28l-.18.89c-1.21,6.11-2.04,11.8,1,14.18.24.19.28.53.09.77-.11.14-.27.21-.43.21"/>
          <path class="cls-2" d="m174.84,163.83h0c-.12,0-2.96-.06-4.49-1.93-.85-1.03-1.12-2.39-.81-4.03.05-.3.34-.5.64-.44.3.06.49.34.44.64-.24,1.31-.05,2.36.58,3.12,1.2,1.48,3.64,1.53,3.67,1.53.3,0,.54.25.54.56,0,.3-.25.54-.55.54"/>
          <path class="cls-2" d="m145.05,162.65c-.13,0-.25-.04-.35-.13-.23-.19-.26-.54-.07-.77,1.42-1.7,2.42-9.43,3.22-15.64.25-1.92.48-3.72.71-5.27,1.06-7.01,15.52-12.15,16.13-12.36.29-.1.6.05.7.34.1.29-.05.6-.34.7-.14.05-14.45,5.13-15.41,11.49-.23,1.53-.46,3.34-.71,5.25-.86,6.68-1.84,14.26-3.47,16.2-.11.13-.26.2-.42.2"/>
          <path class="cls-2" d="m184.11,150.89c-.2,0-.4-.11-.49-.31-2.64-5.28-16.2-8.1-16.33-8.13-.3-.06-.49-.35-.43-.65.06-.3.36-.48.65-.43.58.12,14.23,2.96,17.1,8.72.14.27.03.6-.25.74-.08.04-.16.06-.25.06"/>
          <path class="cls-2" d="m137.76,133.83c-.18,0-.36-.09-.46-.25-5.98-9.07-22.88-9.87-23.05-9.88-.31-.01-.54-.27-.53-.57.01-.3.27-.56.57-.53.72.03,17.64.84,23.92,10.38.17.25.1.59-.16.76-.09.06-.2.09-.3.09"/>
          <path class="cls-2" d="m198.52,119.39h-11.49c-.3,0-.55-.25-.55-.55s.25-.55.55-.55h11.49c13.32,0,24.16-10.84,24.16-24.16v-14.21c0-.3.25-.55.55-.55s.55.25.55.55v14.21c0,13.93-11.33,25.26-25.26,25.26"/>
          <path class="cls-2" d="m140.73,155.88h-44.78c-.3,0-.55-.25-.55-.55s.25-.55.55-.55h44.78c.31,0,.55.25.55.55s-.25.55-.55.55"/>
          <path class="cls-2" d="m80.28,133.69c-10.55,0-19.1,8.55-19.1,19.1s8.55,19.1,19.1,19.1,19.1-8.55,19.1-19.1-8.55-19.1-19.1-19.1"/>
          <path class="cls-4" d="m218.07,72.52s-.08,0-.12-.02c-.19-.06-.3-.27-.23-.47,3.39-10.11,6.43-21.49,5.43-22.23-1.5-.28-4.28,3.19-5.68,5.43-.11.17-.33.22-.5.12-.17-.11-.23-.33-.12-.51.4-.64,3.96-6.2,6.45-5.76.15.03.36.12.52.38,1.39,2.37-4.69,20.72-5.39,22.81-.05.15-.19.25-.35.25"/>
          <path class="cls-4" d="m77.53,163.07c-.7,0-1.39-.03-2.03-.11-.73-.08-1.17-.36-1.32-.81-.41-1.22,1.56-3.18,5.07-6.54,3.48-3.33,7.82-7.48,7.37-9.85-.13-.66-.62-1.16-1.53-1.53-7.98-3.28-10.77,2.55-10.89,2.8-.08.19-.31.26-.49.18-.18-.08-.26-.3-.18-.48.03-.07,3.19-6.73,11.83-3.17,1.14.47,1.8,1.17,1.97,2.07.52,2.77-3.78,6.89-7.58,10.52-2.42,2.31-5.16,4.93-4.88,5.78.07.21.48.29.72.32,6.15.72,16.15-2.61,16.25-2.64.19-.06.4.04.47.23.06.19-.04.4-.23.47-.37.13-8.34,2.78-14.54,2.78"/>
        </g>
      </g>
    </g>
  </g>
</svg>