<?xml version="1.0" encoding="UTF-8"?>
<svg id="Capa_2" data-name="Capa 2" xmlns="http://www.w3.org/2000/svg" xmlns:xlink="http://www.w3.org/1999/xlink" viewBox="0 0 598 598">
  <defs>
    <style>
      .cls-1, .cls-2, .cls-3, .cls-4 {
        fill: none;
      }

      .cls-2 {
        clip-path: url(#clippath-1);
      }

      .cls-3 {
        isolation: isolate;
      }

      .cls-5 {
        fill: #68e085;
      }

      .cls-6 {
        fill: #fff;
      }

      .cls-4 {
        clip-path: url(#clippath);
      }
    </style>
    <clipPath id="clippath">
      <rect class="cls-1" y="0" width="598" height="598"/>
    </clipPath>
    <clipPath id="clippath-1">
      <rect class="cls-1" x="149.12" y="111.67" width="299.76" height="299.76"/>
    </clipPath>
  </defs>
  <g id="botones">
    <g class="cls-4">
      <g id="Ayudas_visuales" data-name="Ayudas visuales" class="cls-3">
        <g class="cls-3">
          <path class="cls-6" d="m57.75,435.53h11.47l16.76,51.12h-7.31l-4.76-15.02h-21.16l-4.76,15.02h-7.03l16.79-51.12Zm14.2,30.07l-8.34-26.34h-.64l-8.31,26.34h17.29Z"/>
          <path class="cls-6" d="m102.55,486.65h-4.4l-11.93-35.96h6.78l10.33,32.62h.67l10.26-32.62h6.46l-16.58,50.16h-6.57l4.97-14.2Z"/>
          <path class="cls-6" d="m156.36,486.65h-6.18v-7.24h-.57c-1.4,2.63-3.13,4.61-5.2,5.95-2.07,1.34-4.43,2.01-7.08,2.01-2.41,0-4.49-.54-6.23-1.62-1.74-1.08-3.07-2.63-3.99-4.67s-1.38-4.46-1.38-7.28v-23.11h6.53v22.33c0,5.77,2.63,8.66,7.88,8.66,2.01,0,3.75-.4,5.2-1.19,1.46-.79,2.57-1.93,3.34-3.43.77-1.49,1.15-3.27,1.15-5.33v-21.05h6.53v35.96Z"/>
          <path class="cls-6" d="m171.42,485c-2.37-1.57-4.22-3.78-5.56-6.62-1.34-2.84-2.01-6.07-2.01-9.69s.67-6.89,2.01-9.73c1.34-2.84,3.19-5.05,5.56-6.62,2.37-1.57,5.05-2.36,8.06-2.36,2.51,0,4.67.61,6.5,1.83,1.82,1.22,3.42,3.12,4.79,5.7h.57v-24.1h6.53v53.25h-6.18v-7.24h-.57c-1.47,2.75-3.13,4.76-4.99,6.04-1.86,1.28-4.09,1.92-6.69,1.92-2.98,0-5.66-.79-8.02-2.36Zm15.64-4.92c1.55-1.07,2.71-2.57,3.48-4.53.77-1.95,1.15-4.24,1.15-6.87s-.39-4.95-1.15-6.89c-.77-1.94-1.93-3.44-3.48-4.51-1.55-1.07-3.47-1.6-5.77-1.6s-4.22.53-5.79,1.6c-1.56,1.06-2.72,2.57-3.48,4.51-.76,1.94-1.14,4.24-1.14,6.89s.38,4.92,1.15,6.87c.77,1.95,1.93,3.46,3.48,4.53,1.55,1.06,3.47,1.6,5.77,1.6s4.22-.53,5.77-1.6Z"/>
          <path class="cls-6" d="m209.77,486.1c-1.62-.84-2.89-2.02-3.82-3.53s-1.38-3.25-1.38-5.22c0-3.15,1.24-5.69,3.71-7.63,2.47-1.94,6.17-3.25,11.09-3.94l8.66-1.24c-.05-2.08-.36-3.78-.94-5.08-.58-1.3-1.43-2.26-2.54-2.88-1.11-.62-2.53-.92-4.26-.92-2.22,0-4.06.52-5.5,1.56-1.44,1.04-2.51,2.67-3.19,4.9l-6.43-.53c.62-2.46,1.61-4.55,2.98-6.28,1.37-1.73,3.09-3.05,5.17-3.96,2.07-.91,4.46-1.37,7.15-1.37,2.96,0,5.49.56,7.6,1.67,2.11,1.11,3.72,2.75,4.83,4.9,1.11,2.15,1.67,4.77,1.67,7.84v22.26h-6.18v-7.24h-.57c-1.44,2.56-3.26,4.52-5.45,5.89-2.19,1.37-4.57,2.06-7.15,2.06-2.01,0-3.83-.42-5.45-1.26Zm3.41-5.72c1.1.86,2.64,1.3,4.63,1.3,1.85,0,3.55-.35,5.11-1.05,1.56-.7,2.8-1.66,3.73-2.88.92-1.22,1.38-2.57,1.38-4.06v-4.15l-7.56,1.14c-2.15.31-3.88.7-5.17,1.19-1.29.49-2.24,1.11-2.86,1.88-.62.77-.92,1.73-.92,2.89,0,1.63.55,2.88,1.65,3.75Z"/>
          <path class="cls-6" d="m246.12,484.78c-2.57-1.72-4.47-4.31-5.7-7.79l6.43-1.17c.78,1.99,1.95,3.47,3.51,4.44s3.54,1.46,5.93,1.46c1.54,0,2.88-.2,4.03-.59,1.15-.39,2.03-.95,2.64-1.69.62-.73.92-1.6.92-2.59,0-1.11-.39-2.02-1.17-2.72s-1.75-1.24-2.91-1.63c-1.16-.39-2.78-.83-4.86-1.33-2.77-.66-5.02-1.33-6.76-2.01-1.74-.67-3.23-1.72-4.47-3.12-1.24-1.41-1.86-3.28-1.86-5.63,0-2.08.56-3.91,1.69-5.49,1.12-1.57,2.71-2.79,4.76-3.66,2.05-.86,4.42-1.3,7.12-1.3,3.74,0,6.87.84,9.41,2.52,2.53,1.68,4.38,4.11,5.54,7.28l-6.07,1.17c-.71-1.77-1.82-3.11-3.32-3.99-1.5-.89-3.41-1.33-5.73-1.33-2.15,0-3.83.38-5.04,1.14-1.21.76-1.81,1.83-1.81,3.23,0,1.09.39,1.98,1.17,2.66s1.76,1.22,2.93,1.62,2.79.81,4.85,1.26c2.84.64,5.14,1.29,6.9,1.95,1.76.66,3.28,1.7,4.54,3.12,1.27,1.42,1.9,3.34,1.9,5.75,0,2.22-.6,4.17-1.81,5.84-1.21,1.67-2.92,2.95-5.13,3.83-2.21.89-4.8,1.33-7.76,1.33-4,0-7.28-.86-9.85-2.57Z"/>
          <path class="cls-5" d="m288.63,450.22h10.4l8.77,32.06h.6l8.77-32.06h10.01l-11.15,36.42h-16.26l-11.15-36.42Z"/>
          <path class="cls-5" d="m333.26,445.47c-.97-.54-1.73-1.3-2.29-2.27-.56-.97-.83-2.08-.83-3.34s.28-2.37.83-3.34c.56-.97,1.32-1.73,2.29-2.27.97-.54,2.07-.82,3.3-.82s2.33.27,3.3.82c.97.54,1.73,1.3,2.27,2.27.54.97.82,2.08.82,3.34s-.27,2.37-.82,3.34c-.54.97-1.3,1.73-2.27,2.27-.97.54-2.07.82-3.3.82s-2.33-.27-3.3-.82Zm-1.81,4.76h10.22v36.42h-10.22v-36.42Z"/>
          <path class="cls-5" d="m352.78,484.73c-2.77-1.75-4.8-4.41-6.11-7.99l9.34-1.81c.57,1.63,1.48,2.85,2.73,3.66,1.25.8,2.88,1.21,4.86,1.21,1.14,0,2.14-.12,3-.37.86-.25,1.54-.62,2.02-1.1.48-.48.73-1.06.73-1.72,0-.76-.33-1.4-.99-1.92-.66-.52-1.5-.94-2.52-1.26-1.02-.32-2.43-.69-4.22-1.12-2.91-.71-5.31-1.43-7.19-2.15-1.88-.72-3.5-1.83-4.86-3.34-1.36-1.5-2.04-3.5-2.04-5.98,0-2.27.63-4.27,1.88-5.98,1.25-1.72,3.05-3.04,5.38-3.96,2.33-.92,5.08-1.38,8.25-1.38,4.09,0,7.49.83,10.19,2.5,2.7,1.67,4.69,4.14,5.96,7.4l-9.09,2.02c-.59-1.42-1.53-2.5-2.8-3.23-1.28-.73-2.88-1.1-4.79-1.1-1.63,0-2.89.24-3.78.73-.89.49-1.33,1.18-1.33,2.08,0,.76.33,1.38.99,1.88.66.5,1.5.89,2.5,1.19,1.01.3,2.42.65,4.24,1.05,2.98.69,5.44,1.38,7.37,2.09,1.93.71,3.6,1.83,5.01,3.37,1.41,1.54,2.11,3.6,2.11,6.18,0,2.44-.68,4.54-2.04,6.3-1.36,1.76-3.26,3.1-5.7,4.01-2.44.91-5.27,1.37-8.48,1.37-4.31,0-7.85-.88-10.61-2.63Z"/>
          <path class="cls-5" d="m418.74,486.65h-9.87v-7.6h-.57c-2.98,5.54-7.02,8.31-12.11,8.31-2.34,0-4.39-.54-6.14-1.63-1.75-1.09-3.09-2.65-4.03-4.69-.94-2.04-1.4-4.45-1.4-7.24v-23.57h10.22v22.29c0,2.2.56,3.91,1.69,5.13,1.12,1.22,2.72,1.83,4.77,1.83,1.51,0,2.81-.32,3.89-.96,1.08-.64,1.9-1.56,2.47-2.77s.85-2.67.85-4.4v-21.12h10.22v36.42Z"/>
          <path class="cls-5" d="m429.41,486.06c-1.67-.86-2.97-2.08-3.9-3.64-.94-1.56-1.4-3.36-1.4-5.4,0-3.38,1.41-6.08,4.22-8.08,2.82-2,7.06-3.37,12.74-4.1l6.32-.82c-.07-2.3-.62-3.97-1.63-5.02-1.02-1.05-2.57-1.58-4.65-1.58-1.77,0-3.21.37-4.3,1.12-1.09.75-1.92,1.94-2.49,3.57l-9.51-.78c.62-2.53,1.67-4.68,3.18-6.44,1.5-1.76,3.41-3.1,5.73-4.01,2.32-.91,4.99-1.37,8.02-1.37,3.36,0,6.22.56,8.59,1.67,2.37,1.11,4.17,2.75,5.41,4.92,1.24,2.17,1.86,4.8,1.86,7.9v22.65h-9.87v-7.6h-.57c-1.54,2.84-3.29,4.93-5.25,6.28-1.96,1.35-4.24,2.02-6.82,2.02-2.13,0-4.03-.43-5.7-1.3Zm6.64-7.56c.84.63,2.09.94,3.75.94,1.51,0,2.85-.26,3.99-.78,1.15-.52,2.04-1.26,2.66-2.22.63-.96.94-2.08.94-3.35v-2.7l-4.83.67c-1.94.26-3.47.59-4.58.98-1.11.39-1.92.88-2.43,1.46-.51.58-.76,1.32-.76,2.22,0,1.23.42,2.16,1.26,2.79Z"/>
          <path class="cls-5" d="m468.83,485.51c-1.56-.76-2.71-1.91-3.44-3.46-.73-1.55-1.1-3.55-1.1-6.02v-42.64h10.22v41.61c0,.97.1,1.71.3,2.22.2.51.55.86,1.05,1.06.5.2,1.21.3,2.13.3h2.63v8.06h-5.68c-2.51,0-4.54-.38-6.11-1.14Z"/>
          <path class="cls-5" d="m491.8,484.94c-2.86-1.61-5.08-3.85-6.66-6.71-1.57-2.86-2.36-6.13-2.36-9.8s.77-6.9,2.33-9.78c1.55-2.88,3.73-5.12,6.53-6.73,2.8-1.61,6.02-2.41,9.64-2.41s6.76.8,9.48,2.4c2.72,1.6,4.82,3.82,6.3,6.67,1.48,2.85,2.22,6.1,2.22,9.74v2.98h-25.77c.28,2.65,1.08,4.73,2.38,6.23,1.3,1.5,3.17,2.25,5.61,2.25,1.63,0,3.03-.34,4.19-1.03,1.16-.69,2.05-1.67,2.66-2.95l10.22.85c-.83,2.3-2.07,4.24-3.71,5.84-1.65,1.6-3.59,2.8-5.82,3.62-2.24.82-4.67,1.22-7.3,1.22-3.76,0-7.08-.8-9.94-2.41Zm16.93-20.48c-.24-2.29-.95-4.09-2.13-5.4-1.18-1.3-2.92-1.95-5.22-1.95s-4.08.65-5.36,1.95c-1.28,1.3-2.09,3.1-2.45,5.4h15.16Z"/>
          <path class="cls-5" d="m529.36,484.73c-2.77-1.75-4.8-4.41-6.11-7.99l9.34-1.81c.57,1.63,1.48,2.85,2.73,3.66,1.25.8,2.88,1.21,4.86,1.21,1.14,0,2.14-.12,3-.37.86-.25,1.54-.62,2.02-1.1.48-.48.73-1.06.73-1.72,0-.76-.33-1.4-.99-1.92-.66-.52-1.5-.94-2.52-1.26-1.02-.32-2.43-.69-4.22-1.12-2.91-.71-5.31-1.43-7.19-2.15-1.88-.72-3.5-1.83-4.86-3.34-1.36-1.5-2.04-3.5-2.04-5.98,0-2.27.63-4.27,1.88-5.98,1.25-1.72,3.05-3.04,5.38-3.96,2.33-.92,5.08-1.38,8.25-1.38,4.09,0,7.49.83,10.19,2.5,2.7,1.67,4.69,4.14,5.96,7.4l-9.09,2.02c-.59-1.42-1.53-2.5-2.8-3.23-1.28-.73-2.88-1.1-4.79-1.1-1.63,0-2.89.24-3.78.73-.89.49-1.33,1.18-1.33,2.08,0,.76.33,1.38.99,1.88.66.5,1.5.89,2.5,1.19,1.01.3,2.42.65,4.24,1.05,2.98.69,5.44,1.38,7.37,2.09,1.93.71,3.6,1.83,5.01,3.37,1.41,1.54,2.11,3.6,2.11,6.18,0,2.44-.68,4.54-2.04,6.3-1.36,1.76-3.26,3.1-5.7,4.01-2.44.91-5.27,1.37-8.48,1.37-4.31,0-7.85-.88-10.61-2.63Z"/>
        </g>
      </g>
      <g id="Grupo_1582" data-name="Grupo 1582">
        <g class="cls-2">
          <g id="Grupo_1582-2" data-name="Grupo 1582-2">
            <path id="Trazado_4746" data-name="Trazado 4746" class="cls-6" d="m397.7,196.44c-.65,1.45-1.75,2.65-3.15,3.41-.79.22-1.62.31-2.44.24-1.18-.08-2.37.05-3.5.4-3.12,1.7-5.63,4.34-7.17,7.54l-.37.58c-.23.37-.45.72-.66,1.03-3.66,5.45-7.76,10.92-14.03,12.62-2.69.86-5.63.26-7.78-1.58-.76-.8-1.43-1.67-2.03-2.6-1.13-2.38-3.29-4.1-5.86-4.67-4.53-.42-8.91,3.14-13.33,11-.59,1.05-1.16,2.13-1.72,3.21-1.33,2.73-2.93,5.33-4.76,7.75-1.74,2.25-4.09,3.95-6.77,4.89-1.82.43-3.71.43-5.52,0-1.16-.22-2.33-.34-3.51-.37v-47.59c.12-.82-.45-1.58-1.27-1.7s-1.58.45-1.7,1.27c-.02.14-.02.28,0,.42v62.74c0,.83.67,1.5,1.5,1.5h85.02c.82-.1,1.41-.85,1.3-1.67-.05-.39-.25-.74-.55-.99-.29-.24-.67-.35-1.04-.32h-83.27v-10.75c1,.04,1.99.15,2.97.34,1.24.24,2.5.37,3.77.4,1.05.01,2.1-.14,3.11-.45,3.26-1.12,6.12-3.17,8.24-5.88,1.95-2.59,3.66-5.36,5.08-8.28.55-1.05,1.09-2.09,1.66-3.12,3.73-6.65,7.25-9.83,10.45-9.52,1.43.15,2.35,1.46,3.51,3.12l.21.31c.69,1.1,1.49,2.12,2.38,3.06,2.9,2.58,6.94,3.46,10.65,2.32,7.19-1.87,11.88-8.12,15.71-13.82.31-.46.63-.97.97-1.5l.11-.18c1.45-2.33,3.44-5.53,5.62-6.31.79-.23,1.62-.31,2.44-.24,1.17.08,2.35-.05,3.47-.39,2.07-.95,3.75-2.6,4.74-4.65l-.41-.3.43.26.07-.13h0c.34-.73.02-1.6-.71-1.94-.66-.31-1.45-.07-1.85.54"/>
            <path id="Trazado_4747" data-name="Trazado 4747" class="cls-6" d="m423.11,150.24h-248.22c-3.88,0-7.03,3.15-7.04,7.04v151.61c0,3.88,3.15,7.03,7.04,7.04h95.26s0,3.37,0,3.37c.16,10.15.37,24.05-4.28,31.55-4.06,6.03-10.22,10.33-17.27,12.06-.48.12-1.08.25-1.84.37-4.7.93-12.56,2.5-11.81,8.28.1.74.73,1.3,1.48,1.3h119.73c5.29,0,6.1,0,6.58-.48.2-.22.29-.51.25-.81.79-6.05-7.68-7.79-12.23-8.72l-1.38-.3c-7.06-1.51-13.26-5.7-17.3-11.69-4.37-7.04-4-19.58-3.7-29.78,0-1.09.03-2.17.07-3.2.02-.65.04-1.27.06-1.87h94.6c3.88,0,7.03-3.15,7.03-7.03v-151.72c-.02-3.87-3.16-7-7.03-7.01m-149.93,168.97v-3.33h52.46c0,1.53,0,3.23-.13,5-.35,9.95-.82,23.58,4.09,31.47h0c4.41,6.68,11.27,11.36,19.11,13,.28.07.61.14.97.22l.54.11c3,.63,8.43,1.75,9.63,4.12h-121.62c1.27-2.13,6.37-3.13,9.23-3.69.75-.15,1.4-.28,1.91-.41,7.82-1.88,14.64-6.65,19.08-13.37,5.11-8.24,4.9-22.65,4.74-33.16m103.16-29.47c-36.92-.12-74.53-.37-110.89-.63l-5.25-.04c-33.35-.24-61.35-.42-89.38-.56v-131.23c0-2.23,1.82-4.04,4.05-4.03,0,0,0,0,0,0h248.23c2.23,0,4.03,1.81,4.04,4.03l.04,131.89c-17,.34-33.7.65-50.84.59m-205.47,1.75c24.24.1,48.98.27,72.9.43l16.46.11c39.34.28,77.83.55,116.16.66h4.05c15.74,0,31.73-.29,46.79-.6l-.04,16.78c-.01,2.22-1.81,4.02-4.03,4.03h-248.28c-2.22-.01-4.01-1.81-4.02-4.03v-17.39Z"/>
            <path id="Trazado_4748" data-name="Trazado 4748" class="cls-6" d="m237.87,218.7c.25.18.54.27.85.28h.02c.2,0,.4-.05.58-.13.48-.21.81-.65.88-1.17l5.46-41.81c.05-.4-.07-.81-.32-1.12-.26-.32-.63-.51-1.04-.54-15.9-1.26-31.37,5.52-41.22,18.07-.47.67-.31,1.59.35,2.07l34.44,24.36Z"/>
            <path id="Trazado_4749" data-name="Trazado 4749" class="cls-6" d="m410.4,215.92c-.12-13.58-.25-27.62-.16-37.07v-.03c-.03-.78-.67-1.4-1.45-1.41h-.02c-4.65-.21-11.03-.37-18.96-.48v-11.65c.01-.81-.63-1.48-1.44-1.5-52.5-1.5-200.69-.56-202.09-.54-.81,0-1.47.65-1.47,1.46l-1.35,109.88c0,.83.67,1.5,1.5,1.5h0l203.44.35c.83,0,1.5-.67,1.5-1.5v-6.03c19.06-.13,19.36-.48,19.75-.9,1-1.1,1.21-6.18.81-50.26l-.04-1.82Zm-23.56-39.09c-28.57-.35-68.26-.12-84.07,0h-.96c-.82,0-1.48.66-1.5,1.47l-.73,88.68c0,.81.65,1.48,1.47,1.5,31.6.23,54.85.34,71.1.34h14.68l.04,4.59-200.44-.37,1.3-106.85c17.33-.1,148.92-.84,199.09.51l.02,10.13Zm-84.21,88.76l.69-85.75c14.04-.12,78.31-.6,103.92.4-.06,9.32.06,22.46.16,35.18v2.25c.17,16.06.45,42.6-.11,47.96-7.92.5-65.3.29-104.68-.03"/>
            <path id="Trazado_4750" data-name="Trazado 4750" class="cls-6" d="m249.67,176.68c-.39-.07-.8.02-1.12.25-.34.24-.55.6-.6,1.01l-5.24,39.94c-.07.42.06.85.35,1.17.28.33.69.52,1.12.52h40.3c.41,0,.8-.18,1.08-.48.28-.29.42-.69.4-1.09-1.1-20.51-16.1-37.59-36.29-41.33m-3.79,39.93l4.78-36.68c11.84,2.62,21.93,10.32,27.57,21.05,2.6,4.84,4.19,10.16,4.66,15.63h-37.01Z"/>
            <path id="Trazado_4751" data-name="Trazado 4751" class="cls-6" d="m281.21,224.17h-41.79s-33.94-24.11-33.94-24.11c-.68-.47-1.62-.3-2.08.39,0,.01-.02.03-.03.04-12.49,19.57-6.76,45.57,12.82,58.06.92.59,1.86,1.14,2.83,1.65,6.64,3.76,14.14,5.74,21.77,5.75h.27c8.97-.02,17.69-2.94,24.86-8.33,9.08-6.95,15.02-17.24,16.49-28.59.14-.96.24-2,.31-3.24.06-.43-.07-.87-.36-1.2-.3-.31-.73-.46-1.16-.42m-1.57,2.9c-.03.37-.07.75-.12,1.12l-.09.44c-2.81,21.93-22.87,37.43-44.79,34.62-21.93-2.81-37.43-22.87-34.62-44.79.68-5.29,2.4-10.38,5.08-14.99l32.58,23.08.75.37c.18.08.38.13.57.16h40.65Z"/>
          </g>
        </g>
      </g>
    </g>
  </g>
</svg>