<?xml version="1.0" encoding="UTF-8"?>
<svg id="Capa_2" data-name="Capa 2" xmlns="http://www.w3.org/2000/svg" xmlns:xlink="http://www.w3.org/1999/xlink" viewBox="0 0 598 598">
  <defs>
    <style>
      .cls-1, .cls-2, .cls-3 {
        fill: none;
      }

      .cls-2 {
        isolation: isolate;
      }

      .cls-4 {
        fill: #67de83;
      }

      .cls-5 {
        fill: #00e47c;
      }

      .cls-6 {
        fill: #08312a;
      }

      .cls-3 {
        clip-path: url(#clippath);
      }
    </style>
    <clipPath id="clippath">
      <rect class="cls-1" width="598" height="598"/>
    </clipPath>
  </defs>
  <g id="botones">
    <g id="Grupo_100" data-name="Grupo 100">
      <g class="cls-3">
        <g>
          <rect class="cls-1" x="149" y="113.07" width="300" height="300"/>
          <g>
            <path class="cls-4" d="m349.04,187.56c-1.65-1.1-3.34-2.12-5.06-3.16-.93-.57-1.84-1.12-2.76-1.69l-4.72-2.92,4.68-12.31c2.1-5.52,4.19-10.98,6.22-16.48.34-.91.68-2.52-.83-3.1-.51-.19-1.66-.62-2.61,1.85-1.65,4.3-3.28,8.6-4.92,12.91l-3.08,8.11c-.27.7-.57,1.41-.9,2.12l-2.61,6.02-5.53-1.36c-10.1-2.48-19.22-3.03-27.89-1.68-26.63,4.13-45.77,18.17-56.9,41.73-3.83,8.11-7.04,16.86-10.14,25.32-1.03,2.82-2.04,5.57-3.07,8.31-4.94,13.12-12.51,24.35-22.51,33.39-7.95,7.19-17.46,12.86-28.25,16.84-4.31,1.58-6.98,4.42-8.16,8.66-1.98,7.1,1.38,13.68,8.36,16.35,15.41,5.91,30.85,11.74,46.31,17.55,4.45,1.69,6.66,5.2,6.27,9.91-1.19,14.2,3.8,25.26,15.25,33.81.95.71,1.96,1.35,2.97,1.99l1.25.81,7.09,2.66c.51.02,1.05.06,1.64.19,11.37,2.25,21.19-.05,30-7.06,2.12-1.68,4.13-3.86,6.26-6.16,1.18-1.27,2.3-2.48,3.46-3.66l3.08-3.13,19.78,7.52c10.81,4.12,21.62,8.24,32.47,12.26,5.47,2.02,10.01,1.06,14.29-3.03,3.96-3.79,4.93-9.7,2.48-15.07-.52-1.15-1.06-2.29-1.6-3.43-1.68-3.55-3.42-7.21-4.76-11.19-6.32-18.7-5.88-37.86,1.29-56.94,1.22-3.25,2.48-6.49,3.75-9.73,3.33-8.55,6.74-17.31,9.26-26.01,8.76-30.27-3.26-62.51-29.89-80.22Zm-57.41,190.93c-7.04,10.4-23.36,14.85-36.37,9.91-13.19-5.14-22.27-19.26-20.48-31.59l1.2-8.3,60.42,22.93-4.77,7.05Zm85.48-119.25c-.64,4.28-1.83,8.73-3.85,14.42-2.48,6.97-5.17,13.95-7.77,20.71l-2.59,6.75c-9.76,25.6-8.47,49.81,3.95,74.02,1.4,2.72,2.06,7.2.21,10.63-1.13,2.09-4.63,6.62-12.77,3.54-19.95-7.58-39.84-15.13-59.7-22.66l-112.74-42.78c-.35-.09-.81-.23-1.3-.41-1.14-.43-2.08-1.01-2.9-1.78l-.3-.28c-1.41-1.3-4.03-3.7-4.01-7.52.01-3.93,3.04-7.3,5.84-8.76,2.4-1.24,4.86-2.39,7.31-3.54,4.02-1.88,7.82-3.65,11.27-5.83,15.94-10.05,27.59-24.59,34.62-43.22.89-2.36,1.77-4.71,2.64-7.07,3.32-8.92,6.74-18.1,10.72-26.97,12.42-27.7,44.53-44.28,74.71-38.57,37.92,7.18,62.3,41.27,56.65,79.31Z"/>
            <path class="cls-4" d="m417.95,192.44l-1.5-4.01c-.12-.33-.32-.53-.63-.65-.45-.17-.99-.11-1.14-.08-.58.09-1.3.38-1.37,1.23-.04.53.13,1.57.62,2.72,12.09,28.45,14.04,57.76,5.8,87.12-.47,1.67-1.01,3.31-1.56,4.96-.81,2.42-1.52,4.56-1.98,6.67-.15.7.83,1.27,1.46,1.45.75.22,1.58-.19,1.92-.96.39-.9.73-1.81,1.13-2.92l.78-2.1c8.14-24.24,9.26-48.75,3.32-72.85-1.69-6.86-4.31-13.83-6.83-20.57Z"/>
            <path class="cls-4" d="m198.43,208.68c1.38.44,2.06-.97,2.23-1.42,3.91-9.99,8.76-19.19,14.41-27.36,13.37-19.34,31.21-34.25,53-44.32.81-.37,1.39-.89,1.57-1.39.13-.37.08-.8-.17-1.32-.23-.47-.53-.74-.89-.87-.65-.25-1.44-.03-2.09.27-31.35,14.5-54.24,38.23-68.06,70.52l-.41,1.06c-.33.85-.61,1.56-.86,2.29-.21.61-.2,1.14.02,1.58.21.41.63.75,1.24.95Z"/>
          </g>
        </g>
        <g id="Videos">
          <g class="cls-2">
            <path class="cls-6" d="m80.98,438.25h-.57v47.39h-6.99v-51.12h13.38l22.72,47.39h.57v-47.39h6.99v51.12h-13.38l-22.72-47.39Z"/>
            <path class="cls-6" d="m133.61,484.01c-2.66-1.56-4.72-3.76-6.18-6.58-1.46-2.83-2.18-6.08-2.18-9.75s.73-6.95,2.18-9.78c1.46-2.83,3.51-5.02,6.18-6.58,2.66-1.56,5.73-2.34,9.21-2.34s6.55.78,9.21,2.34c2.66,1.56,4.72,3.76,6.18,6.58,1.46,2.83,2.18,6.09,2.18,9.78s-.73,6.92-2.18,9.75c-1.46,2.83-3.51,5.02-6.18,6.58-2.66,1.56-5.73,2.34-9.21,2.34s-6.55-.78-9.21-2.34Zm15.09-4.93c1.57-1.07,2.75-2.57,3.51-4.51.77-1.94,1.15-4.24,1.15-6.89s-.38-4.95-1.15-6.89-1.94-3.44-3.51-4.51c-1.57-1.07-3.53-1.6-5.88-1.6s-4.27.53-5.84,1.6c-1.57,1.06-2.75,2.57-3.53,4.51s-1.17,4.24-1.17,6.89.39,4.95,1.17,6.89c.78,1.94,1.96,3.44,3.53,4.51,1.57,1.06,3.52,1.6,5.84,1.6s4.3-.53,5.88-1.6Z"/>
            <path class="cls-6" d="m174.29,484.61c-1.53-.69-2.61-1.75-3.25-3.18-.64-1.43-.96-3.33-.96-5.7v-20.38h-6.32v-5.68h6.32v-8.7h6.53v8.7h10.08v5.68h-10.08v20.13c0,1.11.11,1.98.34,2.61.22.63.66,1.09,1.3,1.38.64.3,1.56.44,2.77.44h5.68v5.72h-6.11c-2.67,0-4.77-.34-6.3-1.03Z"/>
            <path class="cls-6" d="m194.03,442.9c-.7-.4-1.25-.95-1.65-1.65-.4-.7-.6-1.5-.6-2.4s.2-1.7.6-2.4c.4-.7.95-1.25,1.65-1.65s1.5-.6,2.4-.6,1.7.2,2.41.6,1.27.96,1.67,1.67c.4.71.6,1.5.6,2.38s-.2,1.67-.6,2.38-.96,1.27-1.67,1.67c-.71.4-1.51.6-2.41.6s-1.7-.2-2.4-.6Zm-.87,6.78h6.53v35.96h-6.53v-35.96Z"/>
            <path class="cls-6" d="m212.91,436.9c.77-1.54,1.96-2.67,3.57-3.41,1.61-.73,3.68-1.1,6.21-1.1h5.33v5.72h-5.08c-1.14,0-2.04.15-2.72.46-.67.31-1.17.8-1.47,1.47-.31.67-.46,1.58-.46,2.72v6.92h9.73v5.68h-9.73v30.28h-6.53v-30.28h-6.32v-5.68h6.32v-6.82c0-2.44.38-4.43,1.15-5.96Zm21.73,6c-.7-.4-1.25-.95-1.65-1.65s-.6-1.5-.6-2.4.2-1.7.6-2.4c.4-.7.95-1.25,1.65-1.65s1.5-.6,2.4-.6,1.7.2,2.41.6c.71.4,1.27.96,1.67,1.67.4.71.6,1.5.6,2.38s-.2,1.67-.6,2.38-.96,1.27-1.67,1.67c-.71.4-1.51.6-2.41.6s-1.7-.2-2.4-.6Zm-.87,6.78h6.53v35.96h-6.53v-35.96Z"/>
            <path class="cls-6" d="m256.12,483.99c-2.64-1.57-4.69-3.78-6.14-6.6-1.46-2.83-2.18-6.09-2.18-9.78s.73-6.91,2.18-9.73c1.46-2.82,3.5-5.01,6.14-6.57,2.64-1.56,5.69-2.34,9.14-2.34,2.63,0,5.03.47,7.21,1.4,2.18.94,4.04,2.3,5.57,4.08,1.54,1.79,2.66,3.91,3.37,6.37l-6.71,1.17c-.69-2.41-1.83-4.24-3.43-5.47-1.6-1.23-3.63-1.85-6.09-1.85-2.3,0-4.22.53-5.77,1.58-1.55,1.05-2.71,2.55-3.48,4.49-.77,1.94-1.15,4.22-1.15,6.85s.38,4.95,1.15,6.89c.77,1.94,1.93,3.44,3.48,4.51,1.55,1.07,3.47,1.6,5.77,1.6,4.95,0,8.12-2.54,9.51-7.63l6.71,1.17c-.71,2.56-1.83,4.75-3.35,6.58-1.53,1.83-3.38,3.23-5.56,4.19-2.18.96-4.59,1.44-7.24,1.44-3.46,0-6.5-.79-9.14-2.36Z"/>
            <path class="cls-6" d="m291.3,485.09c-1.62-.84-2.89-2.02-3.82-3.53s-1.38-3.25-1.38-5.22c0-3.15,1.24-5.69,3.71-7.63,2.47-1.94,6.17-3.25,11.09-3.94l8.66-1.24c-.05-2.08-.36-3.78-.94-5.08-.58-1.3-1.43-2.26-2.54-2.88-1.11-.62-2.53-.92-4.26-.92-2.23,0-4.06.52-5.5,1.56-1.44,1.04-2.51,2.67-3.2,4.9l-6.42-.53c.62-2.46,1.61-4.55,2.98-6.28,1.37-1.73,3.09-3.05,5.17-3.96,2.07-.91,4.46-1.37,7.15-1.37,2.96,0,5.49.56,7.6,1.67,2.11,1.11,3.71,2.75,4.83,4.9s1.67,4.77,1.67,7.84v22.26h-6.18v-7.24h-.57c-1.44,2.56-3.26,4.52-5.45,5.89-2.19,1.37-4.57,2.06-7.15,2.06-2.01,0-3.83-.42-5.45-1.26Zm3.41-5.72c1.1.86,2.64,1.3,4.63,1.3,1.85,0,3.55-.35,5.11-1.05,1.56-.7,2.8-1.66,3.73-2.88.92-1.22,1.38-2.57,1.38-4.06v-4.15l-7.56,1.14c-2.15.31-3.88.7-5.17,1.19-1.29.49-2.24,1.11-2.86,1.88-.62.77-.92,1.73-.92,2.89,0,1.63.55,2.88,1.65,3.75Z"/>
            <path class="cls-6" d="m331.48,483.99c-2.64-1.57-4.69-3.78-6.14-6.6-1.46-2.83-2.18-6.09-2.18-9.78s.73-6.91,2.18-9.73c1.46-2.82,3.5-5.01,6.14-6.57,2.64-1.56,5.69-2.34,9.14-2.34,2.63,0,5.03.47,7.21,1.4,2.18.94,4.03,2.3,5.57,4.08,1.54,1.79,2.66,3.91,3.37,6.37l-6.71,1.17c-.69-2.41-1.83-4.24-3.43-5.47-1.6-1.23-3.63-1.85-6.09-1.85-2.29,0-4.22.53-5.77,1.58-1.55,1.05-2.71,2.55-3.48,4.49-.77,1.94-1.15,4.22-1.15,6.85s.38,4.95,1.15,6.89c.77,1.94,1.93,3.44,3.48,4.51,1.55,1.07,3.47,1.6,5.77,1.6,4.95,0,8.12-2.54,9.51-7.63l6.71,1.17c-.71,2.56-1.83,4.75-3.36,6.58-1.53,1.83-3.38,3.23-5.56,4.19-2.18.96-4.59,1.44-7.24,1.44-3.46,0-6.5-.79-9.14-2.36Z"/>
            <path class="cls-6" d="m364.42,442.9c-.7-.4-1.25-.95-1.65-1.65s-.6-1.5-.6-2.4.2-1.7.6-2.4c.4-.7.95-1.25,1.65-1.65.7-.4,1.5-.6,2.4-.6s1.71.2,2.41.6c.71.4,1.27.96,1.67,1.67.4.71.6,1.5.6,2.38s-.2,1.67-.6,2.38-.96,1.27-1.67,1.67c-.71.4-1.51.6-2.41.6s-1.7-.2-2.4-.6Zm-.87,6.78h6.53v35.96h-6.53v-35.96Z"/>
            <path class="cls-6" d="m385.94,484.01c-2.66-1.56-4.72-3.76-6.18-6.58s-2.18-6.08-2.18-9.75.73-6.95,2.18-9.78,3.51-5.02,6.18-6.58c2.66-1.56,5.73-2.34,9.21-2.34s6.55.78,9.21,2.34c2.66,1.56,4.72,3.76,6.18,6.58,1.46,2.83,2.18,6.09,2.18,9.78s-.73,6.92-2.18,9.75c-1.46,2.83-3.51,5.02-6.18,6.58-2.66,1.56-5.73,2.34-9.21,2.34s-6.55-.78-9.21-2.34Zm15.09-4.93c1.57-1.07,2.75-2.57,3.51-4.51.77-1.94,1.15-4.24,1.15-6.89s-.38-4.95-1.15-6.89c-.77-1.94-1.94-3.44-3.51-4.51-1.57-1.07-3.53-1.6-5.88-1.6s-4.27.53-5.84,1.6c-1.57,1.06-2.75,2.57-3.53,4.51s-1.17,4.24-1.17,6.89.39,4.95,1.17,6.89c.78,1.94,1.96,3.44,3.53,4.51,1.57,1.06,3.52,1.6,5.84,1.6s4.3-.53,5.88-1.6Z"/>
            <path class="cls-6" d="m420.21,449.68h6.18v7.24h.57c1.37-2.63,3.09-4.61,5.17-5.95,2.07-1.34,4.43-2.01,7.08-2.01,2.41,0,4.5.54,6.25,1.62,1.75,1.08,3.09,2.63,4.01,4.67s1.38,4.46,1.38,7.28v23.11h-6.53v-22.33c0-5.77-2.64-8.66-7.92-8.66-2.01,0-3.74.4-5.18,1.19-1.44.79-2.55,1.94-3.32,3.44s-1.15,3.28-1.15,5.34v21.02h-6.53v-35.96Z"/>
            <path class="cls-6" d="m466.25,483.99c-2.65-1.57-4.7-3.78-6.16-6.6-1.46-2.83-2.18-6.08-2.18-9.74s.72-6.88,2.17-9.71c1.44-2.83,3.47-5.03,6.09-6.6,2.61-1.57,5.64-2.36,9.07-2.36s6.35.78,8.91,2.33c2.56,1.55,4.53,3.72,5.93,6.5,1.4,2.78,2.09,5.97,2.09,9.57v2.31h-27.19c.17,2.27.66,4.23,1.49,5.88.83,1.65,1.99,2.92,3.5,3.82,1.5.9,3.32,1.35,5.45,1.35s3.94-.45,5.43-1.35,2.64-2.19,3.44-3.87l6.96.6c-.8,2.11-1.97,3.93-3.5,5.47-1.53,1.54-3.34,2.72-5.45,3.55-2.11.83-4.4,1.24-6.89,1.24-3.46,0-6.51-.79-9.16-2.36Zm18.99-19.54c-.35-3.1-1.36-5.51-3.02-7.24-1.66-1.73-3.96-2.59-6.92-2.59s-5.37.86-7.1,2.59-2.77,4.14-3.12,7.24h20.16Z"/>
            <path class="cls-6" d="m502.8,483.78c-2.57-1.72-4.47-4.31-5.7-7.79l6.42-1.17c.78,1.99,1.95,3.47,3.51,4.44s3.54,1.46,5.93,1.46c1.54,0,2.88-.2,4.03-.59,1.15-.39,2.03-.95,2.64-1.69.62-.73.92-1.6.92-2.59,0-1.11-.39-2.02-1.17-2.72-.78-.7-1.75-1.24-2.91-1.63-1.16-.39-2.78-.83-4.86-1.33-2.77-.66-5.02-1.33-6.76-2.01-1.74-.67-3.23-1.72-4.47-3.12s-1.86-3.28-1.86-5.63c0-2.08.56-3.91,1.69-5.49,1.12-1.57,2.71-2.79,4.76-3.66,2.05-.86,4.42-1.3,7.12-1.3,3.74,0,6.88.84,9.41,2.52,2.53,1.68,4.38,4.11,5.54,7.28l-6.07,1.17c-.71-1.77-1.82-3.11-3.32-3.99-1.5-.89-3.41-1.33-5.73-1.33-2.15,0-3.83.38-5.04,1.14s-1.81,1.83-1.81,3.23c0,1.09.39,1.98,1.17,2.66s1.76,1.22,2.93,1.62c1.17.39,2.79.81,4.85,1.26,2.84.64,5.14,1.29,6.91,1.95,1.76.66,3.28,1.7,4.54,3.12,1.27,1.42,1.9,3.34,1.9,5.75,0,2.22-.6,4.17-1.81,5.84-1.21,1.67-2.92,2.95-5.13,3.83s-4.8,1.33-7.76,1.33c-4,0-7.28-.86-9.85-2.57Z"/>
            <path class="cls-5" d="m222.34,502.52h18.5c3.88,0,7.27.69,10.17,2.08,2.9,1.38,5.13,3.32,6.69,5.8,1.56,2.49,2.34,5.34,2.34,8.56s-.78,6.07-2.34,8.56c-1.56,2.49-3.79,4.42-6.69,5.8-2.9,1.38-6.29,2.08-10.17,2.08h-7.74v18.25h-10.76v-51.12Zm18.5,24.1c1.73,0,3.18-.32,4.37-.96,1.18-.64,2.08-1.53,2.68-2.68.6-1.15.9-2.49.9-4.03s-.3-2.88-.9-4.03c-.6-1.15-1.5-2.04-2.68-2.68-1.18-.64-2.64-.96-4.37-.96h-7.74v15.34h7.74Z"/>
            <path class="cls-5" d="m299.12,553.64h-9.87v-7.6h-.57c-2.98,5.54-7.02,8.31-12.11,8.31-2.34,0-4.39-.54-6.14-1.63-1.75-1.09-3.09-2.65-4.03-4.69-.94-2.04-1.4-4.45-1.4-7.24v-23.57h10.22v22.29c0,2.2.56,3.91,1.69,5.13s2.72,1.83,4.77,1.83c1.51,0,2.81-.32,3.89-.96,1.08-.64,1.9-1.56,2.47-2.77.57-1.21.85-2.67.85-4.4v-21.12h10.22v36.42Z"/>
            <path class="cls-5" d="m310.24,551.73c-2.77-1.75-4.8-4.41-6.11-7.99l9.34-1.81c.57,1.63,1.48,2.85,2.73,3.66,1.25.8,2.88,1.21,4.86,1.21,1.14,0,2.14-.12,3-.37.86-.25,1.54-.62,2.02-1.1s.73-1.06.73-1.72c0-.76-.33-1.4-.99-1.92-.66-.52-1.5-.94-2.52-1.26s-2.43-.69-4.22-1.12c-2.91-.71-5.31-1.43-7.19-2.15-1.88-.72-3.5-1.83-4.86-3.34-1.36-1.5-2.04-3.5-2.04-5.98,0-2.27.63-4.27,1.88-5.98,1.25-1.72,3.05-3.04,5.38-3.96,2.33-.92,5.08-1.38,8.25-1.38,4.09,0,7.49.83,10.19,2.5,2.7,1.67,4.69,4.14,5.96,7.4l-9.09,2.02c-.59-1.42-1.53-2.5-2.8-3.23-1.28-.73-2.88-1.1-4.79-1.1-1.63,0-2.89.24-3.78.73-.89.49-1.33,1.18-1.33,2.08,0,.76.33,1.38.99,1.88.66.5,1.5.89,2.5,1.19,1.01.3,2.42.65,4.24,1.05,2.98.69,5.44,1.38,7.37,2.09s3.6,1.83,5.01,3.37c1.41,1.54,2.11,3.6,2.11,6.18,0,2.44-.68,4.54-2.04,6.3-1.36,1.76-3.26,3.1-5.7,4.01-2.44.91-5.27,1.37-8.48,1.37-4.31,0-7.85-.88-10.61-2.63Z"/>
            <path class="cls-5" d="m342.43,500.39h10.22v23.86h.57c1.47-2.58,3.18-4.51,5.13-5.8s4.17-1.93,6.66-1.93c2.34,0,4.38.54,6.12,1.63,1.74,1.09,3.08,2.65,4.01,4.69.93,2.04,1.4,4.45,1.4,7.24v23.57h-10.22v-22.26c0-2.22-.56-3.94-1.67-5.15-1.11-1.21-2.71-1.81-4.79-1.81-1.51,0-2.81.31-3.89.94-1.08.63-1.9,1.54-2.47,2.75-.57,1.21-.85,2.67-.85,4.4v21.12h-10.22v-53.25Z"/>
          </g>
        </g>
      </g>
    </g>
  </g>
</svg>