<?xml version="1.0" encoding="UTF-8"?>
<svg id="Capa_2" data-name="Capa 2" xmlns="http://www.w3.org/2000/svg" viewBox="0 0 390 141.54">
  <defs>
    <style>
      .cls-1 {
        fill: none;
      }

      .cls-2 {
        fill: #00e47c;
      }
    </style>
  </defs>
  <g id="botones">
    <g>
      <rect class="cls-1" width="390" height="141.54"/>
      <g>
        <path class="cls-2" d="m77.57,101.6c-5.58-4.02-8.54-6.98-11.33-11.25-4.02-6.24-6.24-13.8-6.24-21.27,0-21.6,17.41-39.09,39-39.09s39,17.49,39,39.01c0,8.87-3.04,17.73-8.38,24.3-2.22,2.79-4.1,4.44-9.2,8.29v-22.83h3.86v15.6c2.87-3.37,4.27-5.42,5.66-7.88,2.87-5.09,4.43-11.41,4.43-17.49,0-19.71-15.85-35.72-35.39-35.72s-35.39,16.01-35.39,35.97c0,9.11,3.2,17.16,10.02,25.13v-15.6h3.94v22.83Zm7.72,3.94c-.74-.16-2.46-.99-3.86-1.73v-25.04h3.86v26.77Zm23.49-55.02l-9.77-7.55-9.77,7.55-2.14-2.79,11.91-9.28,11.91,9.28-2.14,2.79Zm-15.69,57.07c-1.4-.25-1.48-.25-1.97-.41-.41-.08-.57-.08-1.89-.41v-53.38h3.86v54.2Zm7.8.33c-.57.08-.74.08-1.56.08-1.23,0-1.64,0-2.3-.08v-54.53h3.86v54.53Zm7.8-1.23c-1.23.41-2.3.66-3.86.99v-54.28h3.86v53.29Zm7.88-2.87c-1.23.58-1.97.9-3.94,1.81v-26.85h3.94v25.04Z"/>
        <path class="cls-2" d="m161.17,33.86c1.23-.08,2.22-.16,2.55-.16,4.68,0,7.8,2.71,7.8,6.9,0,2.88-1.56,4.93-4.93,6.57,4.27.9,6.57,3.61,6.57,7.64,0,3.12-1.72,5.75-4.43,6.81-1.23.49-2.71.66-5.42.66h-2.55c-1.4-.08-2.46-.08-3.28-.08h-4.76v-1.64l2.79-.49v-23.9l-2.79-.49v-1.73h5.01l3.45-.08Zm-8.29,70.29v-1.64l2.63-.49v-23.98l-2.63-.41v-1.81h9.44v1.73l-2.46.49v23.9l2.38.49v1.73h-9.36Zm8.79-57.73c3.53,0,5.17-1.81,5.17-5.67,0-3.28-1.73-5.25-4.68-5.25-.82,0-1.4.08-2.55.49v10.43h2.05Zm-2.05,13.47c.82.49,1.4.66,2.55.66,3.86,0,6.24-2.38,6.24-6.24s-2.22-5.91-6.98-5.91h-1.81v11.49Zm15.69,44.26v-1.64l2.14-.41v-11.99c0-2.3-.74-3.37-2.3-3.37-1.23,0-2.3.49-3.86,1.81v13.38l2.13.49v1.73h-8.46v-1.64l2.38-.49v-14.95l-2.38-.33v-1.64l5.09-1.31h1.15v2.46c2.47-1.89,3.62-2.38,5.42-2.38,3.12,0,4.84,1.97,4.84,5.34v12.73l2.14.49v1.73h-8.29Zm17.16-52.39c0,6.49-3.37,10.84-8.29,10.84s-7.88-4.11-7.88-10.1c0-6.4,3.37-10.84,8.29-10.84s7.88,4.02,7.88,10.1m-11.82.58c0,5.26,1.31,8.21,3.61,8.21,2.46,0,3.78-3.12,3.78-9.28,0-4.93-1.32-7.64-3.61-7.64s-3.78,3.2-3.78,8.7m18.8,34.24c1.15,1.48,1.48,2.46,1.48,4.02,0,3.78-2.95,6.57-6.9,6.57-.82,0-1.48-.08-2.22-.33-.99.66-1.56,1.32-1.56,1.81s.49.74,1.73.82l4.92.25c3.86.16,5.67,1.64,5.67,4.68,0,4.35-3.86,7.14-9.77,7.14-4.44,0-7.31-1.64-7.31-4.19,0-1.64.82-2.71,3.2-4.27-1.64-.66-2.3-1.4-2.3-2.55,0-1.48,1.07-2.79,3.69-4.43-2.46-1.56-3.37-3.12-3.37-5.67,0-3.86,2.96-6.81,6.82-6.81.82,0,1.15.08,2.63.41.82.25,1.4.33,1.81.33.08,0,.41,0,.74-.08h.74l3.37-.08v2.38h-3.37Zm-8.54,16.83c-1.07.99-1.48,1.81-1.48,3.04,0,1.81,1.64,2.88,4.35,2.88,3.36,0,5.91-1.4,5.91-3.37,0-1.73-.9-2.05-7.23-2.46l-1.56-.08Zm.16-13.14c0,3.45.82,5.01,2.79,5.01s2.79-1.56,2.79-4.6c0-3.61-.99-5.34-2.96-5.34-1.81,0-2.63,1.56-2.63,4.93m8.54-38.43c.41,5.58,1.81,7.88,4.76,7.88,1.48,0,2.54-.74,3.78-2.63l1.81.74c-2.05,3.69-3.53,4.76-6.73,4.76-4.93,0-7.72-3.53-7.72-9.94,0-6.82,2.88-10.92,7.64-10.92s6.82,3.29,6.9,10.1h-10.43Zm6.24-1.97c-.16-4.43-.99-6.16-2.87-6.16s-2.88,1.89-3.37,6.16h6.24Z"/>
        <path class="cls-2" d="m209.12,93.72c.41,5.67,1.81,7.97,4.76,7.97,1.56,0,2.63-.74,3.86-2.63l1.81.74c-1.89,3.53-3.61,4.76-6.82,4.76-4.92,0-7.72-3.7-7.72-10.02,0-6.82,2.87-10.84,7.64-10.84,3.28,0,5.42,1.73,6.4,4.93.33,1.07.41,2.38.58,5.09h-10.51Zm6.24-1.89c-.08-4.27-.9-6.16-2.79-6.16s-2.95,1.81-3.45,6.16h6.24Zm7.39-29.64v-1.64l1.97-.41v-11.08c0-2.96-.66-4.02-2.38-4.02-1.23,0-2.13.41-3.78,1.81v13.22l1.97.41v1.72h-8.38v-1.64l2.47-.49v-25.05l-2.3-.49v-1.4l5.09-1.07h1.15v12.4c2.3-1.81,3.62-2.38,5.34-2.38,3.2,0,4.85,1.89,4.85,5.58v12.4l2.13.41v1.72h-8.13Zm-.74,41.96v-1.64l2.38-.49v-25.29l-2.3-.25v-1.4l5.17-1.15h1.07v28l2.22.49v1.73h-8.54Zm21.76,0v-1.64l1.97-.41v-11.16c0-2.96-.66-4.03-2.38-4.03-1.15,0-2.14.49-3.78,1.89v13.14l1.97.49v1.73h-8.29v-1.64l2.38-.49v-25.13l-2.3-.41v-1.4l5.17-1.15h1.07v12.48c2.22-1.81,3.53-2.38,5.42-2.38,3.04,0,4.76,1.89,4.76,5.25v12.65l2.22.49v1.73h-8.21Zm-3.94-58.47c1.64-2.79,2.46-3.53,3.94-3.53s2.38.9,2.38,2.38c0,.9-.49,1.64-1.56,2.46l-2.14-1.15c-1.4.74-2.55,2.3-2.55,3.45v10.76l2.88.41v1.72h-9.12v-1.64l2.38-.49v-15.11l-2.38-.41v-1.32l4.93-1.31h1.23v3.78Zm8.38,16.5v-1.64l2.22-.49v-14.78l-2.22-.49v-1.4l5.17-1.31h.99v17.98l2.3.41v1.72h-8.46Zm6.49-27.51c0,1.48-1.15,2.63-2.63,2.63s-2.63-1.15-2.63-2.63,1.15-2.63,2.63-2.63,2.63,1.15,2.63,2.63m4.03,59.04c.41,5.67,1.81,7.97,4.76,7.97,1.56,0,2.63-.74,3.86-2.63l1.81.74c-1.89,3.53-3.61,4.76-6.82,4.76-4.93,0-7.72-3.7-7.72-10.02,0-6.82,2.87-10.84,7.64-10.84,3.29,0,5.42,1.73,6.4,4.93.33,1.07.41,2.38.58,5.09h-10.51Zm6.24-1.89c-.08-4.27-.9-6.16-2.79-6.16s-2.96,1.81-3.45,6.16h6.24Z"/>
        <path class="cls-2" d="m269.89,62.19v-1.64l2.14-.41v-11.99c0-2.3-.74-3.37-2.3-3.37-1.23,0-2.3.49-3.86,1.81v13.39l2.14.49v1.73h-8.46v-1.64l2.38-.49v-14.95l-2.38-.33v-1.64l5.09-1.31h1.15v2.46c2.46-1.89,3.61-2.38,5.42-2.38,3.12,0,4.84,1.97,4.84,5.34v12.73l2.14.49v1.73h-8.29Zm2.55,41.96v-1.64l2.22-.49v-14.86l-2.22-.49v-1.31l5.17-1.32h.99v17.9l2.3.49v1.73h-8.46Zm6.57-27.59c0,1.48-1.23,2.71-2.71,2.71s-2.63-1.15-2.63-2.63,1.23-2.71,2.79-2.71c1.4,0,2.55,1.23,2.55,2.63m14.95-31.94c1.15,1.48,1.48,2.46,1.48,4.02,0,3.78-2.95,6.57-6.9,6.57-.82,0-1.48-.08-2.22-.33-.99.66-1.56,1.32-1.56,1.73,0,.58.49.82,1.73.9l4.92.25c3.86.16,5.67,1.64,5.67,4.68,0,4.35-3.86,7.14-9.77,7.14-4.43,0-7.31-1.64-7.31-4.19,0-1.64.9-2.79,3.2-4.27-1.64-.66-2.3-1.48-2.3-2.63,0-1.4,1.07-2.71,3.69-4.35-2.46-1.56-3.37-3.12-3.37-5.66,0-3.86,2.96-6.82,6.82-6.82.82,0,1.15.08,2.63.41.82.25,1.4.33,1.81.33.08,0,.41,0,.74-.08h.74l3.37-.08v2.38h-3.37Zm10.59,59.53v-1.64l2.22-.49v-11.41c0-2.71-.74-3.78-2.46-3.78-1.32,0-2.22.49-3.86,1.97v13.14l2.05.49v1.73h-8.29v-1.64l2.3-.49v-11.49c0-2.55-.82-3.7-2.63-3.7-1.32,0-2.3.49-3.7,1.89v13.22l1.89.49v1.73h-8.38v-1.64l2.38-.49v-15.11l-2.38-.41v-1.4l5.17-1.31h1.07v2.71c2.05-1.72,3.61-2.38,5.58-2.38s3.45.82,4.6,2.63c2.14-1.97,3.53-2.71,5.66-2.71,3.53,0,5.01,1.73,5.01,5.83v12.07l2.3.49v1.73h-8.54Zm-20.61-39.66c0,1.81,1.64,2.88,4.35,2.88,3.37,0,5.91-1.48,5.91-3.37s-.66-2.05-8.79-2.55c-1.07.99-1.48,1.81-1.48,3.04m1.64-16.18c0,3.45.82,5.01,2.79,5.01s2.79-1.56,2.79-4.6c0-3.61-.99-5.34-2.96-5.34-1.81,0-2.63,1.56-2.63,4.93m18.15,3.53c.41,5.58,1.81,7.88,4.76,7.88,1.48,0,2.55-.74,3.78-2.63l1.81.74c-2.05,3.69-3.53,4.76-6.73,4.76-4.93,0-7.72-3.53-7.72-9.94,0-6.81,2.88-10.92,7.64-10.92s6.82,3.29,6.9,10.1h-10.43Zm6.24-1.97c-.16-4.43-.99-6.16-2.87-6.16s-2.88,1.89-3.37,6.16h6.24Zm13.71-4.19c1.64-2.79,2.46-3.53,3.94-3.53s2.38.9,2.38,2.38c0,.9-.49,1.64-1.56,2.47l-2.14-1.15c-1.4.74-2.55,2.3-2.55,3.45v10.76l2.88.41v1.73h-9.12v-1.64l2.38-.49v-15.11l-2.38-.41v-1.31l4.93-1.32h1.23v3.78Z"/>
      </g>
    </g>
  </g>
</svg>