<?xml version="1.0" encoding="UTF-8"?>
<svg id="Capa_2" data-name="Capa 2" xmlns="http://www.w3.org/2000/svg" xmlns:xlink="http://www.w3.org/1999/xlink" viewBox="0 0 469 169">
  <defs>
    <style>
      .cls-1, .cls-2 {
        fill: none;
      }

      .cls-3, .cls-4 {
        fill: #15302a;
      }

      .cls-4 {
        fill-rule: evenodd;
      }

      .cls-2 {
        clip-path: url(#clippath);
      }
    </style>
    <clipPath id="clippath">
      <rect class="cls-1" x="6.1" y="15.84" width="456.8" height="137.32"/>
    </clipPath>
  </defs>
  <g id="iPhone_mockup">
    <g>
      <g id="Grupo_1454" data-name="Grupo 1454">
        <g class="cls-2">
          <g id="Grupo_1449" data-name="Grupo 1449">
            <path id="Trazado_4448" data-name="Trazado 4448" class="cls-3" d="m16.66,117.49c5.04,7.54,11.57,13.99,19.17,18.94v-38.45h-6.67v26.27c-10.77-11.48-16.82-26.58-16.97-42.31-.11-33.08,26.61-59.98,59.68-60.1,33.08-.11,59.98,26.61,60.1,59.68.02,10.29-2.56,20.41-7.5,29.44-2.72,4.75-5.93,9.2-9.59,13.28v-26.26h-6.54v38.45c5.82-3.9,11.05-8.6,15.56-13.97,22.47-28.65,17.46-70.09-11.19-92.57C84.07,7.43,42.63,12.44,20.16,41.09c-9.08,11.58-14.03,25.87-14.05,40.58.04,12.7,3.7,25.13,10.56,35.82"/>
            <path id="Trazado_4449" data-name="Trazado 4449" class="cls-3" d="m42.37,140.17c2.08,1.17,4.27,2.14,6.53,2.9v-45.09h-6.53v42.18Z"/>
            <path id="Trazado_4450" data-name="Trazado 4450" class="cls-3" d="m72.09,37.69l16.53,12.72,3.61-4.71-20.14-15.63-20.14,15.63,3.61,4.71,16.53-12.72Z"/>
            <path id="Trazado_4451" data-name="Trazado 4451" class="cls-3" d="m61.16,146.36l.93.16V55.26h-6.53v89.89c1.72.43,2.27.51,2.75.61h0l.44.08c.78.24,1.59.41,2.4.51"/>
            <path id="Trazado_4452" data-name="Trazado 4452" class="cls-3" d="m72.65,147.22c.88.03,1.77-.01,2.64-.14h0V55.26h-6.53v91.83c1.29.13,2.59.18,3.89.14"/>
            <path id="Trazado_4453" data-name="Trazado 4453" class="cls-3" d="m81.96,146.67c2.21-.42,4.39-.98,6.53-1.66V55.26h-6.53v91.42Z"/>
            <path id="Trazado_4454" data-name="Trazado 4454" class="cls-3" d="m97.99,141.93h0c1.46-.66,2.47-1.12,3.82-1.75v-42.18h-6.66v45.22l2.84-1.29"/>
            <path id="Trazado_4455" data-name="Trazado 4455" class="cls-4" d="m179.3,22.2l-2.03.14h0l-5.83.14h-8.48v2.9l4.73.83v40.24l-4.73.83v2.76h8.06c1.39,0,3.19,0,5.55.14h4.3c3.1.21,6.21-.16,9.17-1.11,4.65-1.88,7.64-6.46,7.5-11.48.24-6.54-4.61-12.15-11.12-12.86,4.83-1.56,8.17-5.98,8.33-11.06-.02-6.49-5.3-11.73-11.78-11.71-.47,0-.95.03-1.41.09-.36,0-1.18.06-2.27.14m7.56,11.77c0,6.5-2.78,9.54-8.76,9.54h-3.48v-17.56c1.37-.56,2.83-.84,4.31-.83,4.99,0,7.92,3.31,7.92,8.85m-7.92,33.33c-1.52.1-3.03-.29-4.31-1.11v-19.36h3.05c8.05,0,11.81,3.46,11.81,9.96.43,5.37-3.57,10.08-8.94,10.51-.54.04-1.08.04-1.62,0"/>
            <path id="Trazado_4456" data-name="Trazado 4456" class="cls-3" d="m163.23,137.95v2.77h15.84v-2.9l-4.03-.83v-40.24l4.16-.83v-2.9h-15.97v3.05l4.45.69v40.38l-4.45.82Z"/>
            <path id="Trazado_4457" data-name="Trazado 4457" class="cls-3" d="m201.16,137.96v2.76h14.04v-2.9l-3.61-.83v-21.44c0-5.67-2.91-8.99-8.2-8.99-3.46.12-6.73,1.56-9.17,4.01v-4.15h-1.95l-8.63,2.21v2.76l4.02.56v25.17l-4.02.83v2.76h14.33v-2.9l-3.61-.83v-22.54c1.71-1.8,4.05-2.89,6.53-3.05,2.64,0,3.89,1.8,3.89,5.67v20.19l-3.61.71Z"/>
            <path id="Trazado_4458" data-name="Trazado 4458" class="cls-4" d="m216.16,70.74c8.34,0,14.03-7.32,14.03-18.27h0c0-10.24-5-17.01-13.34-17.01s-14.05,7.49-14.05,18.27c0,10.1,5,17.01,13.34,17.01m.14-3.46c-3.89,0-6.09-4.98-6.09-13.83s2.5-14.66,6.39-14.66,6.09,4.57,6.09,12.86c0,10.37-2.22,15.63-6.39,15.63"/>
            <path id="Trazado_4459" data-name="Trazado 4459" class="cls-4" d="m244.51,117.9c.08-2.5-.81-4.93-2.5-6.78h5.69v-3.99l-5.69.14h-1.25c-.41.09-.82.13-1.24.12-1.04-.04-2.06-.23-3.05-.56l-.28-.06c-1.35-.39-2.75-.6-4.16-.63-6.24-.12-11.4,4.83-11.53,11.08,0,.13,0,.27,0,.4-.18,4.03,2.06,7.78,5.69,9.54-4.45,2.76-6.25,4.98-6.25,7.47,0,1.93,1.11,3.18,3.89,4.29-4.02,2.63-5.42,4.43-5.42,7.2,0,4.29,4.86,7.05,12.36,7.05,10,0,16.53-4.71,16.53-12.03,0-5.12-3.05-7.61-9.58-7.88l-8.36-.42c-2.09-.14-2.92-.56-2.92-1.39s.97-1.93,2.64-3.05c6.24,1.98,12.91-1.47,14.89-7.71.29-.91.47-1.85.53-2.8m-19.45,26.69c-.03-2,.9-3.9,2.5-5.12h0l2.64.14c10.69.69,12.22,1.24,12.22,4.15,0,3.32-4.3,5.67-10,5.67-4.57,0-7.36-1.8-7.36-4.84m7.5-18.8c-3.33,0-4.73-2.63-4.73-8.44s1.39-8.3,4.45-8.3c3.33,0,5,2.91,5,8.99,0,5.12-1.39,7.75-4.73,7.75"/>
            <path id="Trazado_4460" data-name="Trazado 4460" class="cls-4" d="m250.34,65.91c-5,0-7.36-3.87-8.05-13.28h17.64c-.14-11.48-3.61-17.01-11.67-17.01s-12.92,6.92-12.92,18.39c0,10.79,4.73,16.75,13.06,16.75,5.42,0,7.92-1.8,11.39-8.02l-3.05-1.25c-2.09,3.18-3.89,4.43-6.39,4.43m-2.36-26.97c3.19,0,4.57,2.9,4.86,10.37h-10.56c.84-7.2,2.5-10.37,5.69-10.37"/>
            <path id="Trazado_4461" data-name="Trazado 4461" class="cls-4" d="m266.46,136.57c-5,0-7.36-3.87-8.05-13.41h17.76c-.01-2.89-.34-5.76-.97-8.58-1.11-5.04-5.69-8.54-10.84-8.3-8.06,0-12.92,6.78-12.92,18.27,0,10.66,4.72,16.87,13.06,16.87,5.42,0,8.33-2.08,11.53-8.02l-3.05-1.25c-2.09,3.18-3.89,4.43-6.53,4.43m2.5-16.6c-.14-7.19-1.52-10.37-4.73-10.37s-5,3.05-5.83,10.37h10.56Z"/>
            <path id="Trazado_4462" data-name="Trazado 4462" class="cls-3" d="m281.46,70.06v-2.77l3.33-.69v-18.67c0-4.98-1.11-6.77-4.03-6.77-2.45.13-4.75,1.22-6.39,3.05v22.26l3.33.69v2.91h-14.17v-2.77l4.17-.83V24.28l-3.89-.83v-2.35l8.63-1.8h1.95v20.88c2.4-2.4,5.6-3.83,8.99-4.01,5.42,0,8.2,3.18,8.2,9.4v20.89l3.61.69v2.91h-13.73Z"/>
            <path id="Trazado_4463" data-name="Trazado 4463" class="cls-3" d="m280.21,140.72v-2.76l4.03-.83v-42.6l-3.89-.41v-2.35l8.75-1.93h1.81v47.16l3.75.83v2.91h-14.44Z"/>
            <path id="Trazado_4464" data-name="Trazado 4464" class="cls-3" d="m317.02,140.72v-2.76l3.33-.69v-18.81c0-4.98-1.11-6.78-4.03-6.78-2.46.22-4.74,1.36-6.39,3.19v22.12l3.33.83v2.91h-14.03v-2.77l4.03-.83v-42.32l-3.89-.69v-2.35l8.76-1.93h1.82v21.03c2.42-2.48,5.71-3.92,9.17-4.01,5.14,0,8.05,3.18,8.05,8.85v21.32l3.75.83v2.91h-13.91v-.05Z"/>
            <path id="Trazado_4465" data-name="Trazado 4465" class="cls-3" d="m310.35,42.26c2.78-4.71,4.16-5.95,6.67-5.95,2.04-.18,3.85,1.33,4.03,3.37.02.21.02.42,0,.64-.14,1.73-1.13,3.29-2.64,4.15l-3.61-1.93c-2.28,1.13-3.89,3.29-4.3,5.81v18.11l4.86.69v2.9h-15.42v-2.76l4.03-.83v-25.45l-4.03-.7v-2.21l8.34-2.21h2.08v6.36h0Z"/>
            <path id="Trazado_4466" data-name="Trazado 4466" class="cls-3" d="m324.52,70.07v-2.77l3.75-.83v-24.91l-3.75-.83v-2.36l8.76-2.21h1.66v30.29l3.89.69v2.92h-14.31Z"/>
            <path id="Trazado_4467" data-name="Trazado 4467" class="cls-3" d="m335.49,23.73c.01,2.46-1.97,4.46-4.43,4.47-2.46.01-4.46-1.97-4.47-4.43-.01-2.46,1.97-4.46,4.43-4.47,0,0,.02,0,.03,0,2.42-.03,4.41,1.9,4.44,4.32,0,.04,0,.07,0,.11"/>
            <path id="Trazado_4468" data-name="Trazado 4468" class="cls-4" d="m350.36,136.57c-5,0-7.36-3.87-8.05-13.41h17.76c-.01-2.89-.34-5.76-.97-8.58-1.11-5.04-5.68-8.54-10.84-8.3-8.05,0-12.92,6.78-12.92,18.27,0,10.66,4.73,16.87,13.06,16.87,5.42,0,8.34-2.08,11.53-8.02l-3.05-1.25c-2.09,3.18-3.89,4.43-6.53,4.43m2.5-16.59c-.14-7.19-1.52-10.37-4.73-10.37s-5,3.05-5.83,10.37h10.56Z"/>
            <path id="Trazado_4469" data-name="Trazado 4469" class="cls-3" d="m361.21,67.29v2.77h14.04v-2.9l-3.61-.83v-21.43c0-5.67-2.91-8.99-8.2-8.99-3.45.13-6.73,1.56-9.17,4.01v-4.16h-1.95l-8.63,2.21v2.77l4.03.55v25.17l-4.03.83v2.77h14.31v-2.91l-3.61-.83v-22.54c1.72-1.8,4.05-2.89,6.53-3.05,2.63,0,3.89,1.8,3.89,5.67v20.19l-3.59.7Z"/>
            <path id="Trazado_4470" data-name="Trazado 4470" class="cls-3" d="m365.51,137.96v2.76h14.31v-2.9l-3.89-.83v-30.15h-1.67l-8.76,2.21v2.21l3.75.83v25.03l-3.75.83Z"/>
            <path id="Trazado_4471" data-name="Trazado 4471" class="cls-3" d="m372.05,98.82c2.51-.03,4.54-2.06,4.57-4.57,0-2.4-1.91-4.35-4.31-4.43-2.57-.04-4.68,2-4.73,4.57-.03,2.42,1.91,4.4,4.32,4.43.04,0,.08,0,.12,0"/>
            <path id="Trazado_4472" data-name="Trazado 4472" class="cls-4" d="m401.92,40.45c1.68,1.85,2.58,4.28,2.5,6.77-.44,6.54-6.11,11.48-12.64,11.03-.94-.06-1.88-.24-2.78-.53-1.66,1.11-2.64,2.21-2.64,2.9,0,.97.83,1.39,2.92,1.52l8.33.41c6.53.28,9.59,2.77,9.59,7.88,0,7.33-6.53,12.03-16.53,12.03-7.5,0-12.36-2.76-12.36-7.05,0-2.76,1.52-4.7,5.42-7.19-2.78-1.11-3.89-2.49-3.89-4.43,0-2.35,1.8-4.57,6.25-7.33-3.63-1.76-5.88-5.51-5.7-9.54-.09-6.24,4.9-11.37,11.14-11.46.13,0,.26,0,.38,0,1.41.02,2.81.24,4.16.63l.28.06c.98.33,2.01.51,3.05.56.42,0,.84-.04,1.25-.14h1.25l5.69-.14v4h-5.67Zm-9.59,38.3c-4.57,0-7.36-1.8-7.36-4.84h0c-.03-2.01.9-3.9,2.5-5.12,13.75.83,14.87,1.1,14.87,4.29s-4.31,5.67-10,5.67m.14-23.65c-3.33,0-4.73-2.62-4.73-8.44s1.39-8.3,4.45-8.3c3.33,0,5,2.9,5,8.99,0,5.12-1.39,7.74-4.73,7.74"/>
            <path id="Trazado_4473" data-name="Trazado 4473" class="cls-3" d="m419.83,137.96v2.76h14.46v-2.9l-3.89-.83v-20.34c0-6.91-2.5-9.82-8.47-9.82-3.7.09-7.19,1.75-9.59,4.57-1.57-2.81-4.56-4.52-7.78-4.43-3.55.07-6.93,1.51-9.45,4.01v-4.57h-1.81l-8.75,2.21v2.35l4.02.69v25.44l-4.02.83v2.76h14.17v-2.9l-3.2-.83v-22.25c1.52-1.93,3.8-3.09,6.25-3.18,3.05,0,4.44,1.94,4.44,6.23v19.36l-3.89.83v2.76h14.03v-2.9l-3.47-.83v-22.13c2.78-2.49,4.3-3.32,6.53-3.32,2.91,0,4.16,1.8,4.16,6.36v19.22l-3.75.84Z"/>
            <path id="Trazado_4474" data-name="Trazado 4474" class="cls-4" d="m426.5,65.91c-5,0-7.36-3.87-8.05-13.28h17.64c-.14-11.48-3.61-17.01-11.67-17.01s-12.92,6.92-12.92,18.39c0,10.79,4.73,16.75,13.06,16.75,5.42,0,7.92-1.8,11.39-8.02l-3.05-1.25c-2.09,3.18-3.89,4.43-6.39,4.43m-2.36-26.97c3.19,0,4.57,2.9,4.86,10.37h-10.56c.83-7.2,2.5-10.37,5.69-10.37"/>
            <path id="Trazado_4475" data-name="Trazado 4475" class="cls-3" d="m458.87,36.31c-2.5,0-3.89,1.25-6.67,5.95h0v-6.37h-2.09l-8.33,2.21v2.21l4.02.7v25.44l-4.02.83v2.76h15.42v-2.89l-4.86-.69v-18.12c.42-2.52,2.02-4.68,4.31-5.81l3.61,1.93c1.51-.86,2.5-2.41,2.64-4.15.17-2.04-1.35-3.84-3.39-4.01-.21-.02-.42-.02-.64,0"/>
          </g>
        </g>
      </g>
      <rect class="cls-1" width="469" height="169"/>
    </g>
  </g>
</svg>