<?xml version="1.0" encoding="UTF-8"?>
<svg id="Capa_2" data-name="Capa 2" xmlns="http://www.w3.org/2000/svg" viewBox="0 0 185.12 19.98">
  <defs>
    <style>
      .cls-1 {
        fill: #00e47c;
      }

      .cls-2 {
        fill: #08312a;
      }
    </style>
  </defs>
  <g id="header">
    <g>
      <g>
        <path class="cls-2" d="m0,15.78h4.95v-4.26h2.64c.86.02,1.71-.18,2.47-.57.68-.38,1.25-.94,1.62-1.62.39-.77.58-1.62.57-2.48.01-.78-.14-1.55-.45-2.27-.27-.63-.69-1.18-1.22-1.62-.54-.43-1.16-.77-1.83-.97-.74-.22-1.5-.33-2.27-.32H0v14.12ZM4.95,5.52h.49c.22,0,.43,0,.65.04l.61.12c.18.07.34.2.45.37.13.19.18.42.17.65.02.24-.04.48-.17.69-.12.17-.27.3-.45.41-.19.1-.4.16-.61.17-.23.03-.46.05-.69.04h-.49v-2.48h.04Z"/>
        <polygon class="cls-2" points="13.63 15.78 23.09 15.78 23.09 11.24 18.79 11.24 18.79 1.66 13.63 1.66 13.63 15.78"/>
        <path class="cls-2" d="m23.9,15.78h4.95l.61-6.05c.04-.28.04-.57.08-.85.03-.28.05-.57.04-.85h.17c.02.3.06.6.12.89.05.3.12.6.2.89l1.82,5.96h3l2.03-6.33c.08-.24.12-.45.2-.69.04-.24.12-.49.17-.69h.08l.69,7.75h4.99l-2.32-14.12h-5.23l-1.58,5.56c-.09.31-.16.62-.2.93-.04.32-.12.65-.17.93h-.12l-1.94-7.42h-5.28l-2.31,14.08Z"/>
        <path class="cls-2" d="m43.83,5.41v-2.58h1.35c.14-.01.28.03.4.11.11.06.2.14.25.25.07.11.11.23.11.36,0,.39-.31.7-.69.73.07.03.13.06.18.11l.18.18s.08.15.18.33l.29.51h-.65l-.22-.44c-.08-.21-.2-.39-.36-.55-.11-.07-.23-.11-.36-.11h-.15v1.05h-.51v.04Zm.51-1.46h.22c.2.02.39,0,.58-.04.06-.03.13-.07.18-.11.04-.07.08-.11.08-.18,0-.07-.03-.13-.08-.18-.03-.07-.11-.11-.18-.11-.18-.04-.36-.05-.55-.04h-.22v.65h-.04Z"/>
        <path class="cls-2" d="m44.92,1.66c.42,0,.83.12,1.2.33.39.21.7.52.91.91.21.38.33.8.33,1.24,0,.42-.11.84-.33,1.2-.21.39-.52.7-.91.91-.37.21-.78.32-1.2.33-.42,0-.84-.11-1.2-.33-.39-.2-.7-.52-.91-.91-.21-.37-.32-.78-.33-1.2,0-.43.11-.86.33-1.24.21-.39.52-.7.91-.91.37-.21.78-.32,1.2-.33m0,.47c-.33,0-.66.08-.95.25-.93.55-1.26,1.75-.73,2.69.16.31.42.56.73.73.3.18.64.27.98.25.71,0,1.36-.37,1.71-.98.18-.3.27-.64.25-.98,0-.71-.37-1.36-.98-1.71-.32-.15-.67-.23-1.02-.25h0Z"/>
      </g>
      <g>
        <path class="cls-2" d="m58.64,14.89c-1.08-.65-1.91-1.55-2.5-2.7-.58-1.15-.87-2.47-.87-3.96s.29-2.8.87-3.96,1.41-2.06,2.5-2.7c1.08-.65,2.35-.97,3.79-.97,1.07,0,2.06.19,2.96.58.9.38,1.67.96,2.32,1.71.64.76,1.12,1.68,1.42,2.76l-3.19.49c-.27-.94-.7-1.67-1.29-2.18s-1.34-.77-2.24-.77c-.79,0-1.48.2-2.06.61-.58.41-1.03.99-1.34,1.75-.31.76-.46,1.65-.46,2.68s.15,1.92.46,2.68c.31.76.75,1.34,1.34,1.75.58.41,1.27.61,2.06.61.91,0,1.66-.26,2.26-.79s1.03-1.3,1.29-2.3l3.19.49c-.3,1.12-.77,2.07-1.41,2.85s-1.42,1.36-2.33,1.75-1.89.59-2.96.59c-1.44,0-2.71-.32-3.79-.97Z"/>
        <path class="cls-2" d="m71.87,15.48c-.48-.25-.86-.6-1.13-1.06-.27-.45-.41-.98-.41-1.57,0-.98.41-1.76,1.23-2.35.82-.58,2.05-.98,3.7-1.19l1.84-.24c-.02-.67-.18-1.15-.47-1.46-.3-.31-.75-.46-1.35-.46-.52,0-.93.11-1.25.33-.32.22-.56.56-.72,1.04l-2.76-.23c.18-.74.49-1.36.92-1.87s.99-.9,1.67-1.16c.67-.26,1.45-.4,2.33-.4.98,0,1.81.16,2.5.49s1.21.8,1.57,1.43c.36.63.54,1.39.54,2.29v6.58h-2.87v-2.21h-.17c-.45.83-.96,1.43-1.53,1.83-.57.39-1.23.59-1.98.59-.62,0-1.17-.13-1.65-.38Zm1.93-2.2c.24.18.61.27,1.09.27.44,0,.83-.08,1.16-.23s.59-.37.77-.64c.18-.28.27-.6.27-.97v-.78l-1.4.2c-.56.08-1.01.17-1.33.28s-.56.25-.71.42c-.15.17-.22.38-.22.64,0,.36.12.63.37.81Z"/>
        <path class="cls-2" d="m82.02,5.07h2.87v2.59h.16c.28-.72.55-1.28.83-1.68s.58-.69.89-.86c.32-.17.68-.25,1.09-.25.14,0,.28,0,.42.03.13.02.25.04.34.08v3.05c-.39-.1-.83-.15-1.32-.15-.78,0-1.36.16-1.74.47-.38.31-.57.78-.57,1.41v5.91h-2.97V5.07Z"/>
        <path class="cls-2" d="m91.22,15.15c-.64-.47-1.14-1.12-1.51-1.95-.36-.83-.54-1.77-.54-2.82s.18-2,.54-2.84c.36-.84.86-1.49,1.5-1.97s1.37-.71,2.19-.71c.74,0,1.37.19,1.91.58.54.39.97.96,1.29,1.71h.17V.19h2.97v15.47h-2.87v-2.21h-.17c-.4.81-.87,1.42-1.4,1.82s-1.17.6-1.9.6c-.82,0-1.55-.23-2.19-.71Zm5.1-2.45c.37-.57.55-1.35.55-2.34s-.18-1.77-.55-2.34-.95-.86-1.74-.86-1.37.29-1.74.86-.56,1.35-.56,2.34.19,1.77.56,2.34.95.86,1.74.86,1.37-.28,1.74-.86Z"/>
        <path class="cls-2" d="m102.33,3.69c-.28-.16-.5-.38-.67-.66-.16-.28-.24-.6-.24-.97s.08-.69.24-.97c.16-.28.38-.5.67-.66.28-.16.6-.24.96-.24s.68.08.96.24c.28.16.5.38.66.66s.24.6.24.97-.08.69-.24.97c-.16.28-.38.5-.66.66-.28.16-.6.24-.96.24s-.68-.08-.96-.24Zm-.53,1.38h2.97v10.58h-2.97V5.07Z"/>
        <path class="cls-2" d="m109.18,15.17c-.83-.46-1.47-1.1-1.94-1.94-.46-.84-.7-1.79-.7-2.87s.23-2.03.7-2.87c.46-.83,1.11-1.48,1.94-1.94s1.78-.69,2.84-.69,2.01.23,2.84.69,1.47,1.11,1.93,1.94c.46.83.69,1.79.69,2.87s-.23,2.05-.69,2.88-1.1,1.48-1.93,1.93-1.77.69-2.85.69-2.01-.23-2.84-.69Zm4.62-2.47c.38-.57.57-1.35.57-2.34s-.19-1.77-.57-2.34-.97-.86-1.78-.86-1.4.29-1.78.86-.58,1.35-.58,2.34.19,1.78.58,2.35.98.85,1.78.85,1.4-.28,1.78-.86Z"/>
        <path class="cls-2" d="m120.56,15.32c-.45-.22-.79-.56-1-1.01-.21-.45-.32-1.03-.32-1.75V.19h2.97v12.08c0,.28.03.5.09.64.06.15.16.25.3.31.14.06.35.09.62.09h.76v2.34h-1.65c-.73,0-1.32-.11-1.77-.33Z"/>
        <path class="cls-2" d="m127.29,15.17c-.83-.46-1.47-1.1-1.94-1.94-.46-.84-.7-1.79-.7-2.87s.23-2.03.7-2.87c.46-.83,1.11-1.48,1.94-1.94s1.78-.69,2.84-.69,2.01.23,2.84.69,1.47,1.11,1.93,1.94c.46.83.69,1.79.69,2.87s-.23,2.05-.69,2.88-1.1,1.48-1.93,1.93-1.77.69-2.85.69-2.01-.23-2.84-.69Zm4.62-2.47c.38-.57.57-1.35.57-2.34s-.19-1.77-.57-2.34-.97-.86-1.78-.86-1.4.29-1.78.86-.58,1.35-.58,2.34.19,1.78.58,2.35.98.85,1.78.85,1.4-.28,1.78-.86Z"/>
        <path class="cls-2" d="m140.23,19.63c-.68-.24-1.26-.59-1.76-1.05-.5-.46-.87-1.03-1.11-1.7l2.97-.25c.19.37.47.66.85.86.37.2.82.3,1.34.3.74,0,1.28-.2,1.62-.6.35-.4.52-.96.52-1.67v-1.93h-.17c-.32.74-.75,1.31-1.29,1.7-.54.39-1.18.58-1.91.58-.82,0-1.55-.24-2.19-.71s-1.14-1.13-1.5-1.97c-.36-.84-.54-1.79-.54-2.85s.18-1.98.54-2.82c.36-.83.86-1.48,1.51-1.95.64-.47,1.37-.71,2.19-.71.73,0,1.36.2,1.9.6s1,1.01,1.4,1.82h.17v-2.22h2.87v10.35c0,.93-.2,1.74-.6,2.43-.4.68-.99,1.21-1.77,1.58-.78.37-1.72.55-2.82.55-.8,0-1.53-.12-2.21-.36Zm3.98-6.91c.37-.57.55-1.35.55-2.35s-.18-1.77-.55-2.34-.95-.86-1.74-.86-1.37.29-1.74.86-.56,1.35-.56,2.34.19,1.78.56,2.35c.37.57.95.86,1.74.86s1.37-.29,1.74-.86Z"/>
        <path class="cls-2" d="m151.68,0h3.04l-2.7,3.93h-2.79l2.45-3.93Zm-1.99,5.07h2.97v10.58h-2.97V5.07Z"/>
        <path class="cls-2" d="m155.78,15.48c-.48-.25-.86-.6-1.13-1.06-.27-.45-.41-.98-.41-1.57,0-.98.41-1.76,1.23-2.35.82-.58,2.05-.98,3.7-1.19l1.84-.24c-.02-.67-.18-1.15-.47-1.46-.3-.31-.75-.46-1.35-.46-.52,0-.93.11-1.25.33-.32.22-.56.56-.72,1.04l-2.76-.23c.18-.74.49-1.36.92-1.87s.99-.9,1.67-1.16c.67-.26,1.45-.4,2.33-.4.98,0,1.81.16,2.5.49s1.21.8,1.57,1.43c.36.63.54,1.39.54,2.29v6.58h-2.87v-2.21h-.17c-.45.83-.96,1.43-1.53,1.83-.57.39-1.23.59-1.98.59-.62,0-1.17-.13-1.65-.38Zm1.93-2.2c.24.18.61.27,1.09.27.44,0,.83-.08,1.16-.23s.59-.37.77-.64c.18-.28.27-.6.27-.97v-.78l-1.4.2c-.56.08-1.01.17-1.33.28s-.56.25-.71.42c-.15.17-.22.38-.22.64,0,.36.12.63.37.81Z"/>
      </g>
      <g>
        <rect class="cls-2" x="165.78" y="9.59" width="19.34" height="5.68"/>
        <g>
          <path class="cls-1" d="m166.87,10.65h.75v2.96h1.52v.61h-2.28v-3.57Z"/>
          <path class="cls-1" d="m170.37,10.65h1.26l1.08,3.57h-.79l-.25-.89h-1.37l-.25.89h-.76l1.08-3.57Zm1.13,2.07l-.49-1.75h-.04l-.49,1.75h1.02Z"/>
          <path class="cls-1" d="m175.82,11.27h-1.11v2.96h-.75v-2.96h-1.11v-.61h2.98v.61Z"/>
          <path class="cls-1" d="m177.04,10.65h1.26l1.08,3.57h-.79l-.25-.89h-1.37l-.25.89h-.76l1.08-3.57Zm1.13,2.07l-.49-1.75h-.04l-.49,1.75h1.02Z"/>
          <path class="cls-1" d="m180.51,10.97h-.04v3.26h-.75v-3.57h1.41l.7,3.26h.04l.7-3.26h1.41v3.57h-.75v-3.26h-.04l-.7,3.26h-1.27l-.7-3.26Z"/>
        </g>
      </g>
    </g>
  </g>
</svg>