<?xml version="1.0" encoding="UTF-8"?>
<svg id="Capa_2" data-name="Capa 2" xmlns="http://www.w3.org/2000/svg" xmlns:xlink="http://www.w3.org/1999/xlink" viewBox="0 0 469 169">
  <defs>
    <style>
      .cls-1, .cls-2 {
        fill: none;
      }

      .cls-3 {
        fill: #15302a;
      }

      .cls-2 {
        clip-path: url(#clippath);
      }
    </style>
    <clipPath id="clippath">
      <rect class="cls-1" x="56.93" y="84.5" width="406.03" height="57.97"/>
    </clipPath>
  </defs>
  <g id="iPhone_mockup">
    <g>
      <rect class="cls-1" width="469" height="169"/>
      <g id="Grupo_1455" data-name="Grupo 1455">
        <path id="Trazado_4476" data-name="Trazado 4476" class="cls-3" d="m66.07,86.79l-9.14,54.92h32.38l1.12-6.5h-24.91l8.08-48.42h-7.53Z"/>
        <g id="Grupo_1452" data-name="Grupo 1452">
          <g class="cls-2">
            <g id="Grupo_1451" data-name="Grupo 1451">
              <path id="Trazado_4477" data-name="Trazado 4477" class="cls-3" d="m95.71,141.7l6.42-38.63h7.01l-6.4,38.63h-7.03Zm9.05-45.84c-.67-.37-1.22-.92-1.58-1.58-.38-.72-.57-1.53-.55-2.34,0-.96.24-1.9.7-2.75.45-.83,1.12-1.52,1.93-2,.85-.5,1.83-.76,2.82-.75.84-.02,1.66.18,2.4.57.68.36,1.23.92,1.58,1.6.38.73.58,1.54.56,2.36,0,.94-.24,1.87-.71,2.7-.47.82-1.14,1.51-1.94,2-.84.51-1.81.78-2.8.76-.84.02-1.66-.18-2.4-.57"/>
              <path id="Trazado_4478" data-name="Trazado 4478" class="cls-3" d="m125.62,88.85c.98-1.46,2.38-2.6,4.01-3.28,1.98-.77,4.09-1.13,6.21-1.07h6.83l-1.02,6.14h-5.08c-1.09-.03-2.18.15-3.2.53-.83.35-1.53.96-1.99,1.74-.55.99-.91,2.07-1.07,3.18l-1.14,6.97h10.37l-1.02,6.09h-10.4l-5.41,32.53h-7.02l5.42-32.53h-6.78l1.02-6.09h6.8l1.42-8.47c.26-2.04.95-4.01,2.03-5.76"/>
              <path id="Trazado_4479" data-name="Trazado 4479" class="cls-3" d="m147.01,140.27c-2.5-1.44-4.53-3.58-5.84-6.16-1.41-2.84-2.1-5.97-2.03-9.14-.03-3.91.9-7.76,2.71-11.23,1.73-3.39,4.33-6.26,7.53-8.32,3.26-2.1,7.07-3.19,10.95-3.14,2.96-.07,5.9.63,8.51,2.03,2.37,1.32,4.29,3.3,5.54,5.7,1.33,2.61,1.99,5.5,1.93,8.43-.02,2.04-.24,4.07-.65,6.07h-29.07c-.03.29-.05.59-.04.88-.18,2.89.67,5.75,2.4,8.08,1.81,2.02,4.46,3.09,7.17,2.9,2.05.04,4.07-.46,5.87-1.44,1.75-1.01,3.21-2.44,4.26-4.16l7.56.65c-1.1,2.22-2.6,4.21-4.43,5.89-1.8,1.66-3.89,2.96-6.18,3.83-2.34.9-4.83,1.35-7.34,1.33-3.09.07-6.15-.68-8.85-2.19m22.08-21.32v-.61c.17-2.65-.64-5.28-2.27-7.38-1.82-1.86-4.37-2.81-6.96-2.59-2.94-.11-5.82.89-8.05,2.8-2.23,2.07-3.76,4.78-4.38,7.76l21.66.03Z"/>
              <path id="Trazado_4480" data-name="Trazado 4480" class="cls-3" d="m210.28,88.85c.99-1.46,2.38-2.6,4.01-3.28,1.98-.77,4.09-1.13,6.21-1.07h6.83l-1.02,6.14h-5.08c-1.09-.03-2.18.15-3.2.53-.83.35-1.53.96-1.99,1.74-.55.99-.91,2.07-1.07,3.18l-1.14,6.97h10.4l-1.02,6.09h-10.44l-5.43,32.54h-7.01l5.42-32.53h-6.78l1.02-6.09h6.78l1.42-8.47c.26-2.04.95-4.01,2.03-5.76"/>
              <path id="Trazado_4481" data-name="Trazado 4481" class="cls-3" d="m231.72,140.23c-2.51-1.48-4.53-3.67-5.8-6.3-1.4-2.97-2.1-6.22-2.03-9.5-.02-3.82.89-7.58,2.66-10.96,1.71-3.32,4.29-6.13,7.46-8.12,3.26-2.05,7.05-3.11,10.91-3.05,3.12-.08,6.21.7,8.92,2.23,2.51,1.48,4.52,3.67,5.79,6.29,1.41,2.97,2.11,6.23,2.03,9.52.03,3.82-.89,7.59-2.67,10.97-1.71,3.33-4.28,6.13-7.45,8.12-3.26,2.05-7.04,3.11-10.89,3.05-3.12.08-6.21-.7-8.93-2.24m1.98-6.79c1.8,2.04,4.44,3.12,7.15,2.92,2.73.09,5.4-.79,7.54-2.5,2.03-1.68,3.57-3.87,4.46-6.35.95-2.55,1.43-5.25,1.43-7.97.18-2.92-.65-5.82-2.37-8.2-1.81-2.04-4.48-3.12-7.2-2.91-2.72-.09-5.39.79-7.53,2.49-2.04,1.66-3.58,3.85-4.46,6.33-.96,2.55-1.44,5.25-1.44,7.97-.18,2.93.66,5.84,2.39,8.22"/>
              <path id="Trazado_4482" data-name="Trazado 4482" class="cls-3" d="m272.9,103.07h6.63l-1.33,8.09h.61c1.04-1.83,2.26-3.56,3.62-5.17.98-1.16,2.19-2.11,3.55-2.8,1.29-.6,2.71-.9,4.13-.88.68,0,1.36.06,2.03.17.62.1,1.22.25,1.81.45l-1.26,7.35c-.59-.18-1.2-.3-1.81-.36-.76-.09-1.53-.13-2.3-.13-1.9-.04-3.79.35-5.52,1.14-1.56.74-2.9,1.9-3.86,3.33-1.05,1.59-1.73,3.4-1.99,5.29l-3.7,22.16h-7.01l6.41-38.65Z"/>
              <path id="Trazado_4483" data-name="Trazado 4483" class="cls-3" d="m296.47,103.07h6.9l2.37,35.05h.69l13.88-35.05h10.07l2.2,35.05h.6l14.07-35.05h7.44l-16.17,38.63h-11.5l-2.18-32.61h-.57l-13.11,32.61h-11.4l-3.28-38.63Z"/>
              <path id="Trazado_4484" data-name="Trazado 4484" class="cls-3" d="m357.85,141.23c-1.56-.77-2.86-1.98-3.76-3.47-.91-1.58-1.38-3.38-1.33-5.21-.09-3.66,1.81-7.07,4.96-8.93,3.97-2.36,8.4-3.84,13-4.31l9.5-1.33c.15-.93.23-1.87.24-2.81.16-1.87-.45-3.73-1.7-5.13-1.47-1.21-3.36-1.79-5.26-1.64-2.12-.05-4.2.55-5.97,1.71-1.87,1.35-3.35,3.17-4.28,5.28l-7.05-.61c.94-2.49,2.35-4.78,4.14-6.75,1.68-1.83,3.74-3.28,6.02-4.25,2.41-1,5-1.5,7.61-1.47,2.5-.07,4.99.45,7.25,1.52,1.95.97,3.56,2.51,4.59,4.43,1.11,2.17,1.66,4.58,1.58,7.01,0,1.29-.12,2.58-.35,3.85l-3.78,22.58h-6.64l1.25-7.32h-.6c-1.58,2.45-3.71,4.5-6.22,5.99-2.32,1.37-4.97,2.1-7.66,2.1-1.92.04-3.82-.39-5.55-1.24m3.98-6.09c1.29.9,2.86,1.33,4.43,1.22,1.94,0,3.87-.37,5.66-1.12,1.7-.69,3.23-1.75,4.48-3.1,1.14-1.21,1.9-2.73,2.17-4.36l.76-4.46-8.36,1.21c-1.88.24-3.73.63-5.55,1.15-1.39.38-2.65,1.1-3.69,2.09-.98,1.01-1.5,2.38-1.43,3.78-.09,1.37.47,2.7,1.52,3.58"/>
              <path id="Trazado_4485" data-name="Trazado 4485" class="cls-3" d="m398.71,103.07h6.63l-1.33,8.09h.61c1.04-1.83,2.25-3.56,3.61-5.17.98-1.16,2.19-2.11,3.55-2.8,1.29-.6,2.71-.91,4.13-.88.68,0,1.36.06,2.03.17.61.1,1.22.25,1.81.45l-1.26,7.35c-.59-.18-1.2-.3-1.81-.36-.77-.09-1.54-.13-2.31-.13-1.9-.04-3.78.35-5.51,1.14-1.57.74-2.9,1.89-3.86,3.33-1.05,1.59-1.72,3.4-1.97,5.29l-3.7,22.16h-7.01l6.4-38.65Z"/>
              <path id="Trazado_4486" data-name="Trazado 4486" class="cls-3" d="m426.64,140.38c-2.19-1.44-3.91-3.48-4.96-5.87-1.2-2.77-1.79-5.77-1.73-8.79-.01-3.92.85-7.79,2.51-11.34,1.57-3.46,3.99-6.46,7.03-8.73,2.93-2.2,6.49-3.37,10.15-3.33,2.52-.1,5.01.65,7.05,2.13,2.05,1.73,3.52,4.04,4.2,6.63h.6l4.45-26.58h7.01l-9.53,57.21h-6.65l1.26-7.33h-.6c-1.59,2.44-3.66,4.52-6.09,6.12-4.55,2.67-10.2,2.63-14.72-.11m3.25-6.96c1.75,2.04,4.36,3.13,7.03,2.94,2.69.09,5.33-.8,7.42-2.5,2.02-1.69,3.55-3.89,4.43-6.37.94-2.55,1.43-5.25,1.43-7.97.17-2.91-.66-5.8-2.37-8.17-1.74-2.03-4.34-3.12-7.01-2.94-2.71-.09-5.36.79-7.46,2.5-2.01,1.68-3.53,3.88-4.4,6.35-.95,2.56-1.43,5.28-1.42,8.01-.17,2.9.66,5.78,2.34,8.15"/>
            </g>
          </g>
        </g>
      </g>
    </g>
  </g>
</svg>