<?xml version="1.0" encoding="UTF-8"?>
<svg id="Capa_2" data-name="Capa 2" xmlns="http://www.w3.org/2000/svg" viewBox="0 0 186.28 255.07">
  <defs>
    <style>
      .cls-1 {
        stroke-miterlimit: 10;
      }

      .cls-1, .cls-2 {
        fill: #fff;
        stroke: #f5f4f2;
        stroke-width: .47px;
      }

      .cls-3 {
        fill: #f7f7f5;
      }

      .cls-4 {
        fill: #f4cab4;
      }

      .cls-5 {
        fill: #f9f8a9;
      }

      .cls-6 {
        fill: #006f80;
      }

      .cls-7 {
        fill: #ed6541;
      }

      .cls-8 {
        fill: #f48968;
      }

      .cls-9 {
        fill: #e3e2dc;
      }

      .cls-10 {
        fill: #d2f2f7;
      }

      .cls-2 {
        stroke-linejoin: round;
      }
    </style>
  </defs>
  <g id="Capa_1-2" data-name="Capa 1">
    <g>
      <rect class="cls-9" width="186.28" height="255.07" rx="12" ry="12"/>
      <g>
        <path class="cls-10" d="m126.24,9.55h38.63c7.42,0,13.43,6.27,13.43,14h0c0,7.73-6.01,14-13.43,14h-38.63c-7.42,0-13.43-6.27-13.43-14h0c0-7.73,6.01-14,13.43-14Z"/>
        <g>
          <path class="cls-6" d="m127.52,19.34h-.11v9.1h-1.34v-9.82h2.57l4.36,9.1h.11v-9.1h1.34v9.82h-2.57l-4.36-9.1Z"/>
          <path class="cls-6" d="m142.09,28.45h-1.19v-1.39h-.11c-.27.5-.6.89-1,1.14-.4.26-.85.39-1.36.39-.46,0-.86-.1-1.2-.31-.33-.21-.59-.51-.77-.9-.18-.39-.27-.86-.27-1.4v-4.44h1.25v4.29c0,1.11.5,1.66,1.51,1.66.39,0,.72-.08,1-.23.28-.15.49-.37.64-.66.15-.29.22-.63.22-1.02v-4.04h1.25v6.91Z"/>
          <path class="cls-6" d="m145.15,28.13c-.51-.3-.9-.73-1.18-1.27-.28-.54-.42-1.17-.42-1.87s.14-1.32.42-1.87c.28-.54.67-.97,1.17-1.27.5-.3,1.08-.45,1.74-.45s1.22.15,1.71.45c.49.3.87.71,1.14,1.25s.4,1.15.4,1.84v.44h-5.22c.03.44.13.81.29,1.13.16.32.38.56.67.73.29.17.64.26,1.05.26s.76-.09,1.04-.26c.29-.17.51-.42.66-.74l1.34.12c-.15.4-.38.75-.67,1.05-.29.3-.64.52-1.05.68-.41.16-.85.24-1.32.24-.66,0-1.25-.15-1.76-.45Zm3.65-3.75c-.07-.6-.26-1.06-.58-1.39-.32-.33-.76-.5-1.33-.5s-1.03.17-1.36.5c-.33.33-.53.8-.6,1.39h3.87Z"/>
          <path class="cls-6" d="m150.92,21.54h1.3l1.98,6.27h.13l1.97-6.27h1.24l-2.28,6.91h-2.05l-2.29-6.91Z"/>
          <path class="cls-6" d="m159.96,28.13c-.51-.3-.91-.72-1.19-1.27-.28-.54-.42-1.17-.42-1.87s.14-1.34.42-1.88c.28-.54.67-.96,1.19-1.26.51-.3,1.1-.45,1.77-.45s1.26.15,1.77.45c.51.3.91.72,1.19,1.26.28.54.42,1.17.42,1.88s-.14,1.33-.42,1.87c-.28.54-.67.96-1.19,1.27-.51.3-1.1.45-1.77.45s-1.26-.15-1.77-.45Zm2.9-.95c.3-.2.53-.49.67-.87s.22-.81.22-1.32-.07-.95-.22-1.32c-.15-.37-.37-.66-.67-.87-.3-.2-.68-.31-1.13-.31s-.82.1-1.12.31c-.3.2-.53.49-.68.87-.15.37-.23.81-.23,1.32s.08.95.23,1.32c.15.37.38.66.68.87.3.2.68.31,1.12.31s.83-.1,1.13-.31Z"/>
        </g>
      </g>
      <g>
        <polygon class="cls-1" points="35.6 107.92 36.85 172.24 128.92 172.12 128.35 107.38 35.6 107.92"/>
        <polygon class="cls-2" points="128.92 172.12 129.13 107.38 150.83 85.03 151.37 150.62 128.92 172.12"/>
        <polygon class="cls-7" points="70.56 86.03 34.91 107.58 129.13 106.99 151.07 84.66 70.56 86.03"/>
        <path class="cls-8" d="m35.46,127.7s1.41,1.04,3.17-1.9,1.96-8.42,6.46-8.42,4.51,9.21,4.51,9.21c0,0-.59,7.44,3.33,7.64s6.66-6.07,9.79-6.07,4.51,9.99,8.23,9.99,4.7-15.08,9.6-15.08,6.66,12.93,11.17,12.54,4.7-7.44,9.01-7.25,5.29,7.05,8.62,6.86c3.33-.2,5.48-7.05,5.48-9.21s3.13-4.11,5.68-4.11,8.54,8.09,8.54,8.09l.08-22.98-94.02.59.35,20.12Z"/>
        <path class="cls-8" d="m129.05,129.97s2.24-2.21,2.43-3.78-.39-4.31,2.15-4.51,5.29,1.37,6.46.39,3.53-8.62,6.27-10.58,4.54-4.55,4.54-4.55l-.09-22.19-21.69,22.23-.08,22.98Z"/>
        <path class="cls-4" d="m35.11,107.58s61.45.16,63.68-.68,4.32-1.81,6.83-3.35,5.07-3.29,8.48-4.02c3.06-.65,12.37,1.32,14.7,1.91,2.21.55,5.97-.55,5.97-.55l16.3-16.23-.09-1.84s-15.92,16.14-16.9,16.4c-2.22.6-3.75.49-5.43.35s-10.59-1.98-13.12-2.17c-2.58-.19-4.88.7-6.42,1.53s-7.67,5.72-11.16,6.14c-3.49.42-62.85.33-62.85.33v2.17Z"/>
        <path class="cls-8" d="m35.1,105.42l35.72-22.59,80.08.2-15.9,15.6s-1.77,2.1-9.43.58c-6.74-1.34-9.4-2.18-12.83-1.55-2.88.53-10.54,6.12-13.46,7.26s-64.18.49-64.18.49Z"/>
        <path class="cls-3" d="m37.07,161.61c3.04.83,10.23-.83,13.55-1.1,3.32-.28,14.65,1.93,18.25,2.48,3.59.55,20.74.83,24.89.28,4.15-.55,22.67-4.4,26.27-4.4s8.57,1.1,8.57,1.1v12.11H37.02l.05-10.45Z"/>
        <path class="cls-3" d="m129.29,160.13s4.22-2.66,4.77-3.66,5.66-7.21,7.88-8.65,9.13-8.21,9.13-8.21v10.92l-21.89,21.15.11-11.54Z"/>
        <path class="cls-5" d="m82.2,88.68c3.09-1.91,5.99-2.2,9.41-2.2s4.4-.98,3.18,1.83c-1.22,2.81-2.45,3.06-2.32,4.52s-.73,2.32-3.79,1.71-3.79.37-5.26.61-5.5,1.34-5.01-.49,1.22-4.4,3.79-5.99Z"/>
        <path class="cls-5" d="m66.43,98.22c4.39-.33,3.67-2.57,3.67-2.57,0,0-2.08-.98-3.91-.98s-3.67.73-3.3,1.96.24,1.83,3.55,1.59Z"/>
        <path class="cls-5" d="m102.5,101.4s2.81,1.1,3.06,1.83,1.47-.24,1.1-1.71c-.37-1.47-3.18-1.47-4.16-.12Z"/>
        <path class="cls-5" d="m58.11,99.44c1.88.75-1.22,2.93-2.81,2.2-1.59-.73.98-2.93,2.81-2.2Z"/>
        <path class="cls-5" d="m74.74,89.17c4.39-.33,3.67-2.57,3.67-2.57,0,0-2.08-.98-3.91-.98s-3.67.73-3.3,1.96.24,1.83,3.55,1.59Z"/>
        <path class="cls-5" d="m76.58,91.98c1.88.75-1.22,2.93-2.81,2.2-1.59-.73.98-2.93,2.81-2.2Z"/>
        <path class="cls-5" d="m119.74,87.7c1.88.75-1.22,2.93-2.81,2.2s.98-2.93,2.81-2.2Z"/>
        <path class="cls-5" d="m104.21,91.74c1.88.75-1.22,2.93-2.81,2.2s.98-2.93,2.81-2.2Z"/>
        <path class="cls-5" d="m130.86,91.74c1.88.75-1.22,2.93-2.81,2.2s.98-2.93,2.81-2.2Z"/>
      </g>
    </g>
  </g>
</svg>