<?xml version="1.0" encoding="UTF-8"?>
<svg id="Capa_2" data-name="Capa 2" xmlns="http://www.w3.org/2000/svg" viewBox="0 0 186.28 255.41">
  <defs>
    <style>
      .cls-1 {
        fill: #006f80;
      }

      .cls-2 {
        fill: #f5f4f2;
      }

      .cls-3 {
        fill: #e3e2dc;
      }

      .cls-4 {
        fill: #d2f2f7;
      }

      .cls-5 {
        fill: #9489e3;
      }

      .cls-6 {
        fill: #fff;
      }

      .cls-6, .cls-7 {
        stroke: #f5f4f2;
        stroke-miterlimit: 10;
        stroke-width: .67px;
      }

      .cls-7 {
        fill: none;
      }
    </style>
  </defs>
  <g id="Capa_1-2" data-name="Capa 1">
    <g>
      <g>
        <rect class="cls-3" width="186.28" height="255.07" rx="12" ry="12"/>
        <g>
          <path class="cls-6" d="m40.48,250.16c0-6.88,7.02-35.67,7.02-35.67,0,0,6.46,25,6.18,31.6-.13,3.06-.5,6.24-.86,8.78l78,.14.1-1.75s.42-17.27,1.12-21.35c.7-4.07,5.2-18.68,5.2-18.68l7.72,27.52s.53,10.07,1.13,14.28l28.08.05s-3.09-10.11-4.07-13.9c-.98-3.79-1.26-18.12-1.69-21.63-.42-3.51-1.83-36.23-2.11-37.78-.28-1.54-4.07-20.64-10.67-30.89-6.6-10.25-25-13.48-33.56-15.31-8.57-1.83-11.8-7.3-13.62-9.97-1.83-2.67-3.23-13.76-3.23-13.76,0,0,0-.98,4.35-1.26,4.35-.28,11.66-3.93,11.66-3.93,0,0-.28-1.83-.7-3.65s-1.83-16.99-2.25-20.36c-.42-3.37.56-21.06-5.34-29.91-5.9-8.85-13.48-10.95-19.24-11.94-5.76-.98-12.92.42-19.24,3.79-6.32,3.37-13.06,17.13-16.57,23.03-3.51,5.9-14.89,20.64-15.03,27.24-.14,6.6,8.57,9.97,13.76,11.66,5.2,1.69,18.12,2.25,18.12,2.25l.56,1.4s0,3.37-.42,12.5c-.42,9.13-7.58,11.8-21.21,16.57-13.62,4.77-20.78,13.62-25.56,21.77-4.77,8.14-8.57,29.21-8.57,32.72s-1.4,31.18-2.53,39.04c-1.12,7.86-4.92,22.05-4.92,22.05l27.81.05c.34-1.49.56-3.07.56-4.68Z"/>
          <path class="cls-7" d="m42.73,182.47s-.98,10.11,0,14.32c.98,4.21,4.77,17.69,4.77,17.69"/>
          <path class="cls-7" d="m137.24,213.22s2.25-10.95,3.51-16.15c1.26-5.2.28-16.29.28-16.29"/>
          <polygon class="cls-2" points="137.57 213.43 144.12 236.39 144.26 209.99 141.72 193.22 137.57 213.43"/>
          <path class="cls-7" d="m65,74.07s1.17,24.99,9.74,34.67c8.57,9.68,12.92,11,17.96,10.94,5.04-.06,11.27-5.04,12.08-6.12s.57-2.12.57-2.12l1.72-.57s5.44-11.73,6.3-14.88c.86-3.15,2.23-13.39,2.12-17.63s-.86-9.61-.86-9.61"/>
          <path class="cls-2" d="m86.79,154.29s1.33,4.44,1.38,6.86.69,17.66.69,17.66l-1.23,18.9s.94,6.41-4.88,7.55c-5.82,1.13-11.3,1.28-12.98,1.63s-10.9,2.57-12.29,2.47-5.77.64-5.63-2.22.05-16.83,1.88-23.44c1.83-6.61,4.44-14.41,6.02-17.52,1.58-3.11,3.4-7.2,6.02-10.16,2.62-2.96,7.85-10.9,14.65-11.55s4.39,5.63,5.18,7.7,1.18,2.12,1.18,2.12Z"/>
          <path class="cls-2" d="m95.47,167.91c.13-2.41.44-6.61.99-7.8s2.86-5.63,4.1-7.2,1.48-3.55,2.02-4.69,2.32-3.95,5.67-3.45,9.42,6.66,11.25,9.03,8.49,12.53,8.49,12.53c0,0,4.14,11.6,4.84,14.95s1.83,11.15,2.07,13.77.1,11.99.1,11.99c0,0-.2,3.5-4,3.75-3.8.25-11.6-1.97-13.17-2.47s-7.65-.69-7.65-.69c0,0-4.19-1.23-3.7-3.6s2.32-6.81,2.32-7.8.1-4.64-.69-5.72-7.06-9.23-7.06-9.23c0,0-5.92-7.06-5.58-13.37Z"/>
          <path class="cls-2" d="m75.88,111.04s3.74,7.2,9.84,9.93,15.95,4.46,18.41,4.37c2.46-.09,3.55-.36,3.55-.36,0,0-2.1-4.92-2.19-7.29s-.09-6.83-.09-6.83c0,0-3.74,7.84-10.93,8.02-7.2.18-15.31-3.1-18.59-7.84Z"/>
          <path class="cls-3" d="m69.39,188.61s-.23,1.71-.55,2.52-1.04,2.03-1.04,2.03c0,0,1.44-1.59,2.09-3.15s2.03-5.07,2.16-5.39,1.42-2.98,1.69-3.7.74-1.29.74-1.29c0,0,1.39,1.52,2.03,2.71s2.73,5.77,2.92,6.89.28,2.66.09,3.74-.72,2.07-.74,2.13,1.12-.63,1.37-1.42.4-2.7.4-2.7c0,0,1.84,1.06,2.3,1.12s.42-.06.42-.06c0,0-1.94-1.61-2.18-1.71s-1.69-3.63-1.69-3.63l-2.49-6.02s-1.37-2.75-1.18-3.47.36-1.12.36-1.12l5.2-9.83s3.81-5.47,4.27-6.23,3.34-3.15,5.77-3.04c2.43.11,6.57,4.42,6.57,4.42l5.86,6.76s.34,5.83.27,6.11-1.71,2.56-1.71,2.56l.13.53,1.95-2.32s.74,3.23.91,3.28.42-.46.42-.46c0,0-.84-3.26-.93-3.95s.06-5.41.06-5.41c0,0,4.52,7.02,4.71,7.55s4.1,7,4.12,7.88-.09,2.54-.11,2.64-.63,1.67-.82,1.92-.44.66-.44.66c0,0,1.25-.74,1.61-1.25s.89-1.29.89-1.29c0,0,.59.44.65,1.04s.74,3.93.55,4.59-.76,2.07-.95,2.39-.34.72-.34.72c0,0,1.12-.66,1.39-1.23s.7-2.28.68-2.96-.08-2.11-.08-2.11c0,0,2.88,2.01,3.3,1.99s.68-.47.68-.47c0,0-2.24-1.39-2.98-2.07s-2.6-3.13-2.6-3.13c0,0,.04-1.84-.32-2.37s-3.34-6.23-3.34-6.23c0,0-.55-.97-.28-1.14s2.9.57,3.47.57,2.81.51,3,.65-.23-.63-.72-.82-1.18-.27-1.21-.55.11-.44.11-.44l4.4-2.41s-2.87.63-3.02.66.74-1.35.84-1.97-.11-1.52-.11-1.52c0,0-1.16,3.63-1.9,4.02s-2.26.76-2.9.63-2.58-1.44-2.58-1.44c0,0-4.27-7.52-4.73-7.82s-3.13-3.21-2.85-4.19,2.05-2.85,2.52-2.98,1.86-.32,2.18-.42.65-.51.65-.51c0,0-4.14.15-4.31.13s.74-5.26,1.01-5.69-1.14.8-1.27,1.39-.25,1.2-.25,1.2c0,0-.87-1.02-1.18-1.21s-.28.38-.28.38c0,0,.53.87.66,2.54s.25,1.9-.02,2.41-.87,1.48-1.2,1.71-.57.21-.57.21c0,0-1.39-1.23-1.84-1.97s-5.62-7.23-5.73-8.26.04-11.52.04-11.52l-.04-6.62s2.75-4.95,2.9-6.32-1.02-4.86-1.56-5.85-.7-1.14-.7-1.14c0,0-1.54,1.78-2.37,1.61s-2.77-.63-3.09-1.37-1.44,2.33-1.78,2.81-1.06,2.62-.8,3.99,1.82,5.26,2.32,6.04.42,3.55.42,3.55l-.17,15.47s-2.96,4.92-3.13,5.03-4.84,6.78-5.18,6.87-2.09-.21-2.7-.8-2.13-1.86-2.13-1.86c0,0-.49-3.57-.55-4.02s.3,4.29.08,4.52-.46.13-.46.13c0,0-2.09-1.84-2.33-2.54s-.57-1.27-.57-1.27c0,0,.02,1.84.46,2.66s1.06,1.63,1.06,1.63c0,0-.51.46-1.02.7s-1.02,1.39-1.02,1.39c0,0,1.23-.66,2.14-.76s2.68.44,2.9.65,2.24,1.88,2.22,2.51-1.37,4.4-1.95,4.88-5.73.82-6.26.7-2.14-1.42-2.43-2.26-.93-1.88-.93-1.88c0,0-.09,1.67.34,2.37s1.31,1.58,1.25,1.78.4.3-.32.55-.59.32-1.42.87-1.69.8-1.94,1.2,3.51-1.35,4.52-1.4,3.06-.04,3.81,0,1.1-.11,1.35.08.51.84.4,1.56-2.18,5.9-2.6,6.26-2.14,2.3-2.75,2.3-3.02.87-3.23.85,2.35.02,3.8-.02,1.2.53,1.2.53c0,0-.08,1.4-.44,1.71s-2.71,3.64-3.3,4.16-2.37,2.03-2.37,2.03c0,0,1.42-.28,2.43-1.31s1.95-1.78,1.95-1.78Z"/>
          <path class="cls-5" d="m82.64,205.97c-1.18.08-12.5,1.18-13.68,1.52s-12.24,1.52-14.18,2.2-2.7-3.29-2.7-3.29c0,0-.17-9.03.08-11.23s2.62-13.93,2.62-13.93l1.18.25s.84,1.18,1.18,2.28-.25,1.52-1.18,3.12-.08,3.63.08,4.81-.84,3.04-1.35,4.39,2.45,1.1,2.45,3.29,2.79,4.14,3.72,4.14,3.88-2.45,6.67-2.45,3.88.59,6.08.76,4.22-.17,5.91-.68c0,0,2.47-.64,3.66-.64s4.4-.19,4.4-.19c0,0-.87,2.93-1.87,3.72s-2.34,1.88-3.06,1.93Z"/>
          <path class="cls-5" d="m104.89,186.24s6.14,4.96,5.85,8.59c-.3,3.63-1.92,7.4-.37,8.59s4.07-.59,7.55-.74,7.11,2.15,8.22,2.07,2.22-.37,2.37-1.04-.37-3.03-.07-3.7,2.37-1.04,3.03-2.89c.67-1.85-.67-3.7-.52-4.89s1.04-1.78.89-3.03-.22-2.59-1.33-4.37-.96-1.63-1.55-4.29-1.11-7.55-1.26-8.66,0-3.92.07-4.81,5.4,10.73,5.7,14.8c.3,4.07,1.55,19.1,1.18,23.02s-.74,6.07-2.44,6c-1.7-.07-3.85-.22-6.37-.81-2.52-.59-8.51-2.22-9.84-2.07s-9.4-.22-9.55-2.59c-.15-2.37,2.15-7.4,2-9.77-.15-2.37-3.55-9.4-3.55-9.4Z"/>
          <path class="cls-5" d="m78.27,166.95c.9.33-.28,2.4-.89,2.62s-1.11,1-1.73.72-.45-.78.06-1.39,1.95-2.17,2.56-1.95Z"/>
          <path class="cls-5" d="m103.08,156.99c.9.33-.28,2.4-.89,2.62s-1.11,1-1.73.72-.45-.78.06-1.39,1.95-2.17,2.56-1.95Z"/>
          <path class="cls-5" d="m67.74,172.91s-.61.67-1.78.5-1.84-.06-1.78-.89-.39-1.17.72-1.28,2.56.22,2.84,1.67Z"/>
          <path class="cls-5" d="m117.35,187.73s-.91-.02-1.55-1.01-1.17-1.42-.51-1.93.62-1.07,1.44-.3,1.52,2.07.62,3.24Z"/>
          <path class="cls-5" d="m64.29,183.27s-.33,1.67.33,1.56-.17-.5,1.28-.72,2.56-.5,2.23-1-.11-.84-1.28-.84-2.56,1-2.56,1Z"/>
          <path class="cls-5" d="m67.16,188.48c.84.45,1.28,2.45.11,2.62s-2.51,1.67-2.95.72-.78-1.39-.06-2.06,2.9-1.28,2.9-1.28Z"/>
          <path class="cls-5" d="m115.22,176.71c.07.94-1.38,2.39-2.15,1.5s-2.75-1.22-2.19-2.11.76-1.4,1.71-1.15,2.63,1.76,2.63,1.76Z"/>
          <path class="cls-5" d="m75.21,180.98s1.28,3.96,2.01,3.84.61-.89.28-1.73-1.23-2.23-1.78-2.51-.5.39-.5.39Z"/>
          <path class="cls-5" d="m104.6,169.13s1.28,3.96,2.01,3.84.61-.89.28-1.73-1.23-2.23-1.78-2.51-.5.39-.5.39Z"/>
          <path class="cls-5" d="m81.39,189.56s.03.06.09.17c.34.6,1.48,2.58,1.85,2.67.45.11.45-.45.11-1.11s-.72-1.89-1.34-2.28-.72.56-.72.56Z"/>
        </g>
      </g>
      <g>
        <path class="cls-4" d="m126.24,9.55h38.63c7.42,0,13.43,6.27,13.43,14h0c0,7.73-6.01,14-13.43,14h-38.63c-7.42,0-13.43-6.27-13.43-14h0c0-7.73,6.01-14,13.43-14Z"/>
        <g>
          <path class="cls-1" d="m127.52,19.34h-.11v9.1h-1.34v-9.82h2.57l4.36,9.1h.11v-9.1h1.34v9.82h-2.57l-4.36-9.1Z"/>
          <path class="cls-1" d="m142.09,28.45h-1.19v-1.39h-.11c-.27.5-.6.89-1,1.14-.4.26-.85.39-1.36.39-.46,0-.86-.1-1.2-.31-.33-.21-.59-.51-.77-.9-.18-.39-.27-.86-.27-1.4v-4.44h1.25v4.29c0,1.11.5,1.66,1.51,1.66.39,0,.72-.08,1-.23s.49-.37.64-.66c.15-.29.22-.63.22-1.02v-4.04h1.25v6.91Z"/>
          <path class="cls-1" d="m145.15,28.13c-.51-.3-.9-.73-1.18-1.27-.28-.54-.42-1.17-.42-1.87s.14-1.32.42-1.87c.28-.54.67-.97,1.17-1.27.5-.3,1.08-.45,1.74-.45s1.22.15,1.71.45c.49.3.87.71,1.14,1.25.27.53.4,1.15.4,1.84v.44h-5.22c.03.44.13.81.29,1.13.16.32.38.56.67.73s.64.26,1.05.26.76-.09,1.04-.26c.29-.17.51-.42.66-.74l1.34.12c-.15.4-.38.75-.67,1.05-.29.3-.64.52-1.05.68-.4.16-.85.24-1.32.24-.66,0-1.25-.15-1.76-.45Zm3.65-3.75c-.07-.6-.26-1.06-.58-1.39-.32-.33-.76-.5-1.33-.5s-1.03.17-1.36.5c-.33.33-.53.8-.6,1.39h3.87Z"/>
          <path class="cls-1" d="m150.92,21.54h1.3l1.98,6.27h.13l1.97-6.27h1.24l-2.28,6.91h-2.05l-2.29-6.91Z"/>
          <path class="cls-1" d="m159.96,28.13c-.51-.3-.91-.72-1.19-1.27-.28-.54-.42-1.17-.42-1.87s.14-1.34.42-1.88c.28-.54.67-.96,1.19-1.26.51-.3,1.1-.45,1.77-.45s1.26.15,1.77.45c.51.3.91.72,1.19,1.26.28.54.42,1.17.42,1.88s-.14,1.33-.42,1.87c-.28.54-.68.96-1.19,1.27-.51.3-1.1.45-1.77.45s-1.26-.15-1.77-.45Zm2.9-.95c.3-.2.53-.49.68-.87.15-.37.22-.81.22-1.32s-.07-.95-.22-1.32c-.15-.37-.37-.66-.68-.87s-.68-.31-1.13-.31-.82.1-1.12.31c-.3.2-.53.49-.68.87-.15.37-.23.81-.23,1.32s.08.95.23,1.32.38.66.68.87c.3.2.68.31,1.12.31s.83-.1,1.13-.31Z"/>
        </g>
      </g>
    </g>
  </g>
</svg>