<?xml version="1.0" encoding="UTF-8"?>
<svg id="Capa_2" data-name="Capa 2" xmlns="http://www.w3.org/2000/svg" viewBox="0 0 300 300">
  <defs>
    <style>
      .cls-1 {
        fill: none;
      }

      .cls-2 {
        fill: #08312a;
        fill-rule: evenodd;
      }
    </style>
  </defs>
  <g id="iPhone_mockup">
    <g>
      <g>
        <path id="Trazado_1712" data-name="Trazado 1712" class="cls-2" d="m133.88,109.24l57.33,27.93c7.24,3.52,10.26,12.25,6.73,19.49-1.43,2.93-3.8,5.3-6.73,6.73l-56.03,27.36-15.46-11.64v-63.77l14.17-6.1Zm-4.41,73.58l57.44-28.21c2.38-1.16,3.37-4.03,2.21-6.41-.47-.96-1.25-1.74-2.21-2.21l-57.4-28.84-.04,65.66Z"/>
        <path id="Trazado_1713" data-name="Trazado 1713" class="cls-2" d="m56,150c0-54.12,43.88-98,98-98s98,43.88,98,98-43.88,98-98,98c-54.1-.06-97.94-43.9-98-98m9.8,0c0,48.71,39.49,88.2,88.2,88.2s88.2-39.49,88.2-88.2-39.49-88.2-88.2-88.2c-48.69.06-88.14,39.51-88.2,88.2"/>
      </g>
      <rect class="cls-1" width="300" height="300"/>
    </g>
  </g>
</svg>