<?xml version="1.0" encoding="UTF-8"?>
<svg id="Capa_2" data-name="Capa 2" xmlns="http://www.w3.org/2000/svg" xmlns:xlink="http://www.w3.org/1999/xlink" viewBox="0 0 300 300">
  <defs>
    <style>
      .cls-1, .cls-2 {
        fill: none;
      }

      .cls-3 {
        fill: #68e085;
        fill-rule: evenodd;
      }

      .cls-2 {
        clip-path: url(#clippath);
      }
    </style>
    <clipPath id="clippath">
      <rect class="cls-1" x="52" y="52.42" width="196" height="195.17"/>
    </clipPath>
  </defs>
  <g id="iPhone_mockup">
    <g>
      <g id="Grupo_1446" data-name="Grupo 1446">
        <g class="cls-2">
          <g id="Grupo_1446-2" data-name="Grupo 1446-2">
            <path id="Trazado_4444" data-name="Trazado 4444" class="cls-3" d="m248,206.5c.08,22.67-18.24,41.12-40.91,41.2-21.69.08-39.7-16.74-41.11-38.38l-40.98-33.53c-14.21,17.5-39.93,20.17-57.43,5.96-17.5-14.21-20.17-39.93-5.96-57.43,14.21-17.5,39.93-20.17,57.43-5.96,2.4,1.95,4.58,4.17,6.48,6.61l40.43-27.47v-3.18c.05-23.17,18.85-41.91,42.02-41.91,22.09.04,39.99,17.95,40.03,40.04-.03,22.38-18.2,40.51-40.59,40.48-4.8,0-9.56-.86-14.05-2.53l-9.67-3.67,3.85-10.23,9.69,3.62c15.32,5.66,32.33-2.18,37.98-17.5,1.21-3.27,1.82-6.72,1.83-10.2-.05-16.03-13.03-29.02-29.07-29.07-17.13-.04-31.06,13.81-31.1,30.95,0,.01,0,.02,0,.03v8.96l-2.4,1.62-47.33,32.2-4.93,3.35-2.95-5.17c-8.29-14.46-26.73-19.47-41.19-11.18-3.19,1.83-6.01,4.22-8.34,7.06-10.38,12.94-8.3,31.85,4.64,42.23,12.94,10.38,31.85,8.3,42.23-4.64.94-1.17,1.79-2.41,2.54-3.71l3.28-5.57,4.99,4.09,47.5,38.9,2,1.64v2.59c-.52,17.07,12.9,31.32,29.97,31.83,17.07.52,31.32-12.9,31.83-29.97.52-17.07-12.9-31.32-29.97-31.83-8.33-.25-16.42,2.87-22.42,8.67l-3.91,3.9-7.76-7.73,3.91-3.9c15.95-15.87,41.75-15.8,57.61.15,7.58,7.63,11.85,17.94,11.85,28.69"/>
          </g>
        </g>
      </g>
      <rect class="cls-1" width="300" height="300"/>
    </g>
  </g>
</svg>