<?xml version="1.0" encoding="UTF-8"?>
<svg id="Capa_2" data-name="Capa 2" xmlns="http://www.w3.org/2000/svg" xmlns:xlink="http://www.w3.org/1999/xlink" viewBox="0 0 390 141.54">
  <defs>
    <style>
      .cls-1, .cls-2, .cls-3 {
        fill: none;
      }

      .cls-2 {
        isolation: isolate;
      }

      .cls-4 {
        fill: #00e47c;
      }

      .cls-5 {
        fill: #fff;
      }

      .cls-3 {
        clip-path: url(#clippath);
      }
    </style>
    <clipPath id="clippath">
      <rect class="cls-1" x="76.91" y="30" width="74.41" height="81.54"/>
    </clipPath>
  </defs>
  <g id="botones">
    <g>
      <rect class="cls-1" width="390" height="141.54"/>
      <g id="Grupo_1476" data-name="Grupo 1476">
        <g id="Actualización_médica" data-name="Actualización médica" class="cls-2">
          <g class="cls-2">
            <path class="cls-5" d="m173.32,40.51h7.76c1.53,0,2.87.25,4.03.74,1.16.5,2.05,1.21,2.68,2.13.63.93.94,2.01.94,3.26,0,2.44-1.24,4.01-3.71,4.71v.27c1,.12,1.87.41,2.62.88.75.47,1.33,1.1,1.75,1.9.42.8.63,1.73.63,2.79,0,1.32-.32,2.48-.95,3.47-.64.99-1.53,1.75-2.68,2.28-1.15.53-2.49.8-4.02.8h-9.05v-23.24Zm7.76,10.04c.93,0,1.71-.15,2.34-.44.63-.29,1.11-.72,1.43-1.27s.48-1.2.48-1.95-.16-1.4-.48-1.94-.79-.96-1.43-1.26c-.64-.3-1.42-.44-2.34-.44h-4.58v7.31h4.58Zm1.29,10.47c.93,0,1.71-.16,2.34-.47.63-.31,1.11-.76,1.43-1.34.32-.58.48-1.27.48-2.07s-.16-1.48-.48-2.07c-.32-.58-.79-1.03-1.43-1.35s-1.41-.48-2.34-.48h-5.87v7.76h5.87Z"/>
            <path class="cls-5" d="m193.63,44.32c-.32-.18-.57-.43-.75-.75-.18-.32-.27-.68-.27-1.09s.09-.77.27-1.09c.18-.32.43-.57.75-.75.32-.18.68-.27,1.09-.27s.77.09,1.1.27c.32.18.58.44.76.76.18.32.27.68.27,1.08s-.09.76-.27,1.08c-.18.32-.44.58-.76.76-.32.18-.69.27-1.1.27s-.77-.09-1.09-.27Zm-.4,3.08h2.97v16.35h-2.97v-16.35Z"/>
            <path class="cls-5" d="m205.54,63.2c-.84-.58-1.6-1.5-2.27-2.74h-.26v3.29h-2.81v-24.21h2.97v10.96h.26c.62-1.17,1.35-2.04,2.18-2.59.83-.55,1.81-.83,2.95-.83,1.37,0,2.59.36,3.66,1.07,1.08.72,1.92,1.72,2.53,3.01s.91,2.77.91,4.42-.3,3.12-.91,4.41-1.45,2.29-2.53,3.01c-1.08.72-2.29,1.07-3.65,1.07-1.18,0-2.2-.29-3.04-.87Zm4.83-2.44c.7-.48,1.23-1.17,1.58-2.06.35-.89.52-1.93.52-3.12s-.17-2.25-.52-3.13c-.34-.88-.87-1.57-1.58-2.05s-1.59-.73-2.63-.73-1.92.24-2.62.73c-.7.48-1.23,1.17-1.58,2.05-.35.88-.52,1.93-.52,3.13s.17,2.24.52,3.12c.35.89.88,1.57,1.58,2.06.7.48,1.58.73,2.62.73s1.92-.24,2.62-.73Z"/>
            <path class="cls-5" d="m220.91,63.34c-.64-.27-1.11-.69-1.4-1.28s-.44-1.36-.44-2.32v-20.21h2.97v19.93c0,.43.06.77.17,1.01.11.24.3.42.55.52.25.1.61.15,1.06.15h1.21v2.6h-1.55c-1.08,0-1.93-.13-2.57-.4Z"/>
            <path class="cls-5" d="m228.06,44.32c-.32-.18-.57-.43-.75-.75-.18-.32-.27-.68-.27-1.09s.09-.77.27-1.09c.18-.32.43-.57.75-.75.32-.18.68-.27,1.09-.27s.77.09,1.1.27c.32.18.58.44.76.76.18.32.27.68.27,1.08s-.09.76-.27,1.08c-.18.32-.44.58-.76.76-.32.18-.69.27-1.1.27s-.77-.09-1.09-.27Zm-.4,3.08h2.97v16.35h-2.97v-16.35Z"/>
            <path class="cls-5" d="m237.84,63c-1.21-.71-2.15-1.71-2.81-2.99-.66-1.29-.99-2.76-.99-4.43s.33-3.16.99-4.45c.66-1.29,1.6-2.28,2.81-2.99,1.21-.71,2.61-1.06,4.19-1.06s2.98.35,4.19,1.06c1.21.71,2.15,1.71,2.81,2.99.66,1.29.99,2.77.99,4.45s-.33,3.15-.99,4.43c-.66,1.29-1.6,2.28-2.81,2.99s-2.61,1.07-4.19,1.07-2.98-.36-4.19-1.07Zm6.86-2.24c.72-.48,1.25-1.17,1.6-2.05.35-.88.52-1.93.52-3.13s-.18-2.25-.52-3.13c-.35-.88-.88-1.57-1.6-2.05-.72-.48-1.61-.73-2.67-.73s-1.94.24-2.66.73c-.72.48-1.25,1.17-1.61,2.05-.35.88-.53,1.93-.53,3.13s.18,2.25.53,3.13c.36.88.89,1.57,1.61,2.05.72.48,1.6.73,2.66.73s1.96-.24,2.67-.73Z"/>
            <path class="cls-5" d="m256.33,63.28c-.69-.31-1.19-.79-1.48-1.44-.29-.65-.44-1.51-.44-2.59v-9.26h-2.87v-2.58h2.87v-3.95h2.97v3.95h4.58v2.58h-4.58v9.15c0,.51.05.9.15,1.19.1.29.3.5.59.63.29.13.71.2,1.26.2h2.58v2.6h-2.78c-1.22,0-2.17-.16-2.86-.47Z"/>
            <path class="cls-5" d="m267.46,63c-1.21-.71-2.14-1.72-2.8-3-.66-1.29-.99-2.76-.99-4.43s.33-3.13.98-4.41c.66-1.29,1.58-2.29,2.77-3s2.56-1.07,4.12-1.07,2.89.35,4.05,1.06c1.16.71,2.06,1.69,2.7,2.95.63,1.26.95,2.71.95,4.35v1.05h-12.36c.08,1.03.3,1.92.68,2.67s.91,1.33,1.59,1.74c.68.41,1.51.61,2.48.61s1.79-.2,2.47-.61c.68-.41,1.2-1,1.57-1.76l3.16.27c-.37.96-.9,1.79-1.59,2.49-.69.7-1.52,1.24-2.48,1.61-.96.38-2,.57-3.13.57-1.57,0-2.96-.36-4.16-1.07Zm8.63-8.88c-.16-1.41-.62-2.51-1.37-3.29-.75-.79-1.8-1.18-3.15-1.18s-2.44.39-3.23,1.18c-.79.79-1.26,1.88-1.42,3.29h9.17Z"/>
            <path class="cls-5" d="m285.82,63c-1.2-.71-2.13-1.72-2.79-3-.66-1.29-.99-2.77-.99-4.45s.33-3.14.99-4.42,1.59-2.28,2.79-2.99c1.2-.71,2.58-1.06,4.16-1.06,1.19,0,2.29.21,3.28.64.99.43,1.83,1.04,2.53,1.86.7.81,1.21,1.78,1.53,2.9l-3.05.53c-.31-1.1-.83-1.93-1.56-2.49-.73-.56-1.65-.84-2.77-.84-1.04,0-1.92.24-2.62.72-.7.48-1.23,1.16-1.58,2.04-.35.88-.52,1.92-.52,3.11s.17,2.25.52,3.13c.35.88.88,1.57,1.58,2.05.7.48,1.58.73,2.62.73,2.25,0,3.69-1.16,4.33-3.47l3.05.53c-.32,1.16-.83,2.16-1.53,2.99-.69.83-1.54,1.47-2.53,1.9s-2.09.65-3.29.65c-1.57,0-2.96-.36-4.16-1.07Z"/>
            <path class="cls-5" d="m301.81,63.5c-.74-.38-1.32-.92-1.74-1.61-.42-.69-.63-1.48-.63-2.37,0-1.43.56-2.59,1.69-3.47,1.12-.88,2.81-1.48,5.04-1.79l3.94-.56c-.02-.95-.16-1.72-.43-2.31-.26-.59-.65-1.03-1.15-1.31-.51-.28-1.15-.42-1.94-.42-1.01,0-1.85.24-2.5.71-.66.47-1.14,1.22-1.45,2.23l-2.92-.24c.28-1.12.73-2.07,1.36-2.86.62-.79,1.41-1.39,2.35-1.8.94-.41,2.03-.62,3.25-.62,1.34,0,2.5.25,3.45.76.96.51,1.69,1.25,2.2,2.23.51.98.76,2.17.76,3.57v10.12h-2.81v-3.29h-.26c-.66,1.16-1.48,2.05-2.48,2.68-1,.62-2.08.94-3.25.94-.91,0-1.74-.19-2.48-.57Zm1.55-2.6c.5.39,1.2.59,2.11.59.84,0,1.61-.16,2.32-.48.71-.32,1.27-.75,1.69-1.31.42-.55.63-1.17.63-1.85v-1.89l-3.44.52c-.98.14-1.76.32-2.35.54-.59.22-1.02.51-1.3.85-.28.35-.42.79-.42,1.32,0,.74.25,1.31.75,1.7Z"/>
          </g>
          <g class="cls-2">
            <path class="cls-4" d="m190.16,83.01c.89-.62,1.94-.93,3.17-.93,1.04,0,1.94.23,2.69.68.75.45,1.32,1.13,1.72,2.03.4.9.6,1.99.6,3.28v10.89h-4.65v-10.2c0-1-.24-1.76-.72-2.29-.48-.53-1.17-.79-2.06-.79-.99,0-1.76.32-2.3.96-.54.64-.81,1.55-.81,2.72v9.6h-4.65v-10.2c0-1-.24-1.76-.72-2.29s-1.16-.79-2.06-.79c-.99,0-1.76.32-2.3.96-.54.64-.81,1.55-.81,2.72v9.6h-4.65v-16.56h4.49v3.47h.26c.67-1.28,1.44-2.23,2.32-2.86.88-.62,1.92-.94,3.12-.94s2.28.32,3.1.97c.82.65,1.37,1.59,1.66,2.83h.26c.68-1.29,1.46-2.25,2.35-2.87Z"/>
            <path class="cls-4" d="m204.99,98.19c-1.3-.73-2.31-1.75-3.03-3.05-.72-1.3-1.07-2.79-1.07-4.45s.35-3.14,1.06-4.45c.7-1.31,1.69-2.33,2.97-3.06,1.28-.73,2.74-1.1,4.38-1.1s3.07.36,4.31,1.09c1.24.73,2.19,1.74,2.86,3.03.67,1.3,1.01,2.77,1.01,4.43v1.36h-11.72c.13,1.21.49,2.15,1.08,2.83.59.68,1.44,1.02,2.55,1.02.74,0,1.38-.16,1.9-.47.53-.31.93-.76,1.21-1.34l4.65.39c-.38,1.04-.94,1.93-1.69,2.66-.75.73-1.63,1.27-2.65,1.65s-2.12.56-3.32.56c-1.71,0-3.22-.37-4.52-1.1Zm7.7-9.31c-.11-1.04-.43-1.86-.97-2.45-.54-.59-1.33-.89-2.37-.89s-1.86.3-2.44.89c-.58.59-.95,1.41-1.11,2.45h6.89Zm-2.71-14.41h4.76l-4.23,6.15h-4.37l3.84-6.15Z"/>
            <path class="cls-4" d="m222.93,98.18c-1.01-.74-1.79-1.76-2.36-3.06s-.85-2.77-.85-4.41.28-3.13.84-4.44c.56-1.31,1.34-2.34,2.35-3.08,1.01-.74,2.15-1.11,3.43-1.11,1.15,0,2.15.3,2.99.91.84.61,1.52,1.5,2.03,2.67h.26v-10.91h4.65v24.21h-4.49v-3.45h-.26c-.62,1.27-1.36,2.22-2.19,2.84-.84.62-1.83.94-2.97.94-1.28,0-2.42-.37-3.43-1.11Zm7.99-3.83c.58-.89.86-2.11.86-3.66s-.29-2.77-.86-3.66c-.58-.89-1.48-1.34-2.72-1.34s-2.15.45-2.73,1.34c-.58.89-.87,2.11-.87,3.66s.29,2.77.87,3.66c.58.89,1.49,1.34,2.73,1.34s2.14-.45,2.72-1.34Z"/>
            <path class="cls-4" d="m240.28,80.24c-.44-.25-.79-.59-1.04-1.03-.25-.44-.38-.95-.38-1.52s.13-1.08.38-1.52c.25-.44.6-.79,1.04-1.03.44-.25.94-.37,1.5-.37s1.06.12,1.5.37c.44.25.79.59,1.03,1.03.25.44.37.95.37,1.52s-.12,1.08-.37,1.52c-.25.44-.59.79-1.03,1.03-.44.25-.94.37-1.5.37s-1.06-.12-1.5-.37Zm-.82,2.16h4.65v16.56h-4.65v-16.56Z"/>
            <path class="cls-4" d="m250.85,98.19c-1.28-.73-2.27-1.75-2.98-3.05s-1.06-2.79-1.06-4.45.35-3.15,1.06-4.46c.7-1.3,1.7-2.32,2.98-3.05s2.76-1.1,4.44-1.1c1.24,0,2.38.22,3.43.65s1.95,1.08,2.7,1.94c.75.86,1.29,1.89,1.64,3.11l-4.57.69c-.24-.89-.64-1.58-1.21-2.07s-1.29-.73-2.15-.73c-1.21,0-2.09.44-2.66,1.33s-.85,2.11-.85,3.67.28,2.75.85,3.59,1.45,1.27,2.66,1.27c.86,0,1.57-.24,2.13-.73.56-.48.96-1.18,1.21-2.1l4.6.71c-.34,1.27-.89,2.34-1.65,3.22-.75.88-1.65,1.54-2.7,1.98-1.04.44-2.19.66-3.44.66-1.68,0-3.16-.37-4.44-1.1Z"/>
            <path class="cls-4" d="m267.03,98.69c-.76-.39-1.35-.94-1.78-1.65-.43-.71-.64-1.53-.64-2.45,0-1.54.64-2.76,1.92-3.67,1.28-.91,3.21-1.53,5.79-1.86l2.87-.37c-.03-1.04-.28-1.8-.74-2.28s-1.17-.72-2.11-.72c-.81,0-1.46.17-1.95.51s-.87.88-1.13,1.62l-4.33-.36c.28-1.15.76-2.13,1.44-2.93s1.55-1.41,2.61-1.82c1.05-.41,2.27-.62,3.65-.62,1.53,0,2.83.25,3.91.76s1.9,1.25,2.46,2.24c.56.98.85,2.18.85,3.59v10.3h-4.49v-3.45h-.26c-.7,1.29-1.5,2.24-2.39,2.86-.89.61-1.93.92-3.1.92-.97,0-1.83-.2-2.59-.59Zm3.02-3.44c.38.29.95.43,1.7.43.69,0,1.29-.12,1.82-.36.52-.24.93-.57,1.21-1.01.29-.44.43-.94.43-1.53v-1.23l-2.19.31c-.88.12-1.58.27-2.08.44-.51.18-.87.4-1.11.66s-.35.6-.35,1.01c0,.56.19.98.57,1.27Z"/>
          </g>
        </g>
        <g id="Grupo_1616" data-name="Grupo 1616">
          <g class="cls-3">
            <g id="Grupo_1616-2" data-name="Grupo 1616-2">
              <path id="Trazado_4870" data-name="Trazado 4870" class="cls-4" d="m93.09,111.54c-.79,0-1.42-.12-1.64-.54-.14-.25-2.93-5.44-3.76-7.62s-2.55-6.93-2.56-6.98c-.02-.07-2.31-6.72-2.87-8.16-1.24-3.12-2.75-6.13-4.51-8.99-1.31-1.69-1.06-4.11.57-5.49.27-.22.88-.68,1.6-1.21,1.01-.76,2.16-1.61,2.62-2.02,2.19-2.12,4.23-4.4,6.1-6.81,1.16-1.43,2.4-2.79,3.73-4.07.07-.06.16-.09.25-.08.09.01.17.07.21.15l4.72,9.23c.03.06.03.14,0,.2-.02.04-1.69,3.67-.52,5.2s2.9,3.32,4.64,3.32c1.32-.03,2.53-.75,3.2-1.89.2-.31.69-1.48,1.2-2.71.65-1.74,1.43-3.42,2.34-5.04,1.66-2.55,3.84-4.73,6.4-6.39,2.99-1.71,6.98-3.02,8.81-2.21.88.35,1.57,1.05,1.89,1.93.14.34.1.73-.09,1.05-.36.48-4.74,6.97-5.21,7.8-.09.16-.33.53-.7,1.1-1.5,2.32-5,7.75-5.59,10.28-.72,3.1-.52,11.99-.52,12.08.02.17.58,4.7-3.88,10.39-4.21,5.39-11.49,7.1-13.7,7.27-.26.02-.54.05-.82.08-.66.06-1.33.13-1.91.13m-.59-51.27c-1.2,1.16-2.33,2.4-3.37,3.71-1.9,2.44-3.96,4.74-6.18,6.9-.47.42-1.63,1.28-2.65,2.05-.67.5-1.31.98-1.57,1.2-1.43,1.24-1.65,3.38-.49,4.88,1.78,2.89,3.3,5.93,4.55,9.09.56,1.45,2.85,8.11,2.88,8.18.02.04,1.75,4.8,2.56,6.97.82,2.17,3.7,7.51,3.73,7.56h0c.2.4,1.94.23,2.97.12.29-.03.58-.06.84-.08.08,0,8.49-.92,13.29-7.06,4.32-5.53,3.79-10.03,3.78-10.08-.01-.39-.21-9.07.53-12.22.61-2.61,4.15-8.09,5.65-10.43.35-.54.6-.92.68-1.08.47-.83,4.88-7.37,5.24-7.85.09-.2.1-.44.01-.65-.28-.74-.86-1.33-1.6-1.61-1.43-.63-4.98.3-8.26,2.18-2.48,1.62-4.6,3.74-6.21,6.22-.88,1.6-1.65,3.26-2.3,4.96-.36.95-.78,1.88-1.24,2.79-.78,1.3-2.17,2.1-3.68,2.13-1.99,0-3.88-1.92-5.11-3.54s.15-4.93.42-5.58l-4.48-8.77Z"/>
              <path id="Trazado_4871" data-name="Trazado 4871" class="cls-4" d="m120.11,68.66c-.42,0-.83-.12-1.2-.32-1.23-.5-1.82-1.9-1.32-3.12.03-.07.06-.14.09-.2.65-1.29,1.39-2.53,2.22-3.71.03-.04.08-.08.13-.09,1.78-.55,3.71-.41,5.39.39.12.05.17.19.11.31,0,.01-.01.02-.02.03-.09.12-.25.16-.39.08-1.51-.7-3.22-.84-4.82-.38-.79,1.14-1.5,2.33-2.12,3.57-.5.94-.14,2.1.8,2.59.07.03.13.07.2.09.37.22.81.3,1.24.21.35-.1.66-.31.86-.61.09-.12.25-.17.38-.1.12.05.18.19.12.31,0,.01,0,.02-.01.03-.29.42-.72.72-1.21.85-.16.04-.31.06-.47.06"/>
              <path id="Trazado_4872" data-name="Trazado 4872" class="cls-4" d="m116.46,75.93s-.06,0-.09-.01c-.38-.11-3.67-1.12-4-2.23-.07-.27.02-.56.23-.73.25-.23.58-.36.92-.36,1.4.26,2.7.9,3.75,1.86.1.08.11.23.03.32,0,.01-.02.02-.03.03-.11.1-.28.1-.4,0-.94-.87-2.09-1.46-3.35-1.72-.2,0-.39.07-.53.2-.12.12-.12.21-.1.27.19.64,2.33,1.49,3.63,1.88.13.03.21.16.18.29,0,0,0,.02,0,.02-.05.11-.15.17-.27.17"/>
              <path id="Trazado_4873" data-name="Trazado 4873" class="cls-4" d="m113.32,84.11c-.14,0-.26-.09-.28-.23,0-.15.11-.26.26-.27,0,0,0,0,0,0l36.2-2.1c.41-.01.8-.22,1.04-.55.23-.31.28-.72.12-1.07l-21.56-48.43c-.22-.45-.63-.78-1.12-.89-.5-.13-1.03-.06-1.47.2-1.85,1.1-7.51,4.46-20.01,2-6.44-1.27-11.59-.8-15.34,1.4-3.1,1.86-5.25,4.95-5.92,8.5-.13.64-.04,1.3.25,1.88l16.43,33.27c.06.12,0,.26-.12.32,0,0-.02,0-.03.01-.14.06-.3,0-.37-.13l-16.43-33.27c-.34-.67-.44-1.43-.29-2.17.7-3.69,2.95-6.9,6.17-8.83,3.87-2.28,9.17-2.78,15.77-1.48,12.27,2.42,17.77-.85,19.58-1.92.59-.34,1.29-.44,1.95-.26.64.16,1.19.59,1.48,1.18l21.56,48.42c.22.5.16,1.08-.17,1.52-.35.47-.9.76-1.48.78l-36.2,2.12h-.02Z"/>
              <path id="Trazado_4874" data-name="Trazado 4874" class="cls-4" d="m96.63,41.93l3.21,6.22c.51.87,1.57,1.24,2.51.87,3.29-1.23,6.76-1.91,10.28-2,5.53-.05,14.26-.97,14.26-.97l-4.22-7.63c-3.56.77-7.18,1.25-10.82,1.46-3.89.13-11.39.66-14.44.88-.46,0-.84.36-.85.82,0,.12.02.24.07.36"/>
              <path id="Trazado_4875" data-name="Trazado 4875" class="cls-4" d="m105.62,55.22c-.07,0-.14-.02-.2-.07-.1-.08-.11-.23-.03-.33,0,0,.02-.02.02-.03.09-.09,2.36-2.1,9.44-2.35,4.33-.35,8.64-.95,12.9-1.78.14-.03.29.05.34.19.02.14-.07.27-.21.29,0,0,0,0-.01,0-4.29.84-8.63,1.44-13,1.79-6.81.24-9.03,2.18-9.05,2.2-.06.05-.13.08-.2.08"/>
              <path id="Trazado_4876" data-name="Trazado 4876" class="cls-4" d="m107.82,61.38c-.07,0-.13-.02-.18-.06-.1-.07-.13-.22-.06-.32,0-.01.02-.02.03-.03.16-.17,4.09-4.17,12.69-4.17,3.05-.07,6.1-.33,9.12-.77.15-.03.29.06.32.2.02.14-.07.27-.21.29,0,0-.01,0-.02,0-3.05.45-6.13.71-9.22.78-3.21-.06-6.39.62-9.29,1.99-1.09.51-2.09,1.18-2.97,2-.06.06-.13.09-.21.09"/>
            </g>
          </g>
        </g>
      </g>
    </g>
  </g>
</svg>