<?xml version="1.0" encoding="UTF-8"?>
<svg id="Capa_2" data-name="Capa 2" xmlns="http://www.w3.org/2000/svg" viewBox="0 0 390 141.54">
  <defs>
    <style>
      .cls-1, .cls-2 {
        fill: none;
      }

      .cls-2 {
        isolation: isolate;
      }

      .cls-3 {
        fill: #00e47c;
      }

      .cls-4 {
        fill: #fff;
      }
    </style>
  </defs>
  <g id="botones">
    <g>
      <rect class="cls-1" width="390" height="141.54"/>
      <g id="Grupo_1476" data-name="Grupo 1476">
        <path class="cls-3" d="m188.35,34.81c-.58-1.49-2.15-2.53-4.01-2.63-.79-.04-20.02-.87-38.63-1.68-18.58-.8-37.8-1.63-38.58-1.67-1.11-.06-2.34,0-3.01.95-.23.33-.33.69-.42,1.01l-3.1,10.97c-1.8,6.37-3.27,12.94-4.69,19.28l-.49,2.18c-.9,4.01-1.67,7.37-2.51,10.74-.46,1.86-.91,3.57-1.36,5.22l-.09.32c-.29,1.03-.69,2.48-.37,3.46l-37,11.48c-.05.02-.1.04-.15.08-.01,0-.02.02-.03.03-.03.03-.06.06-.09.1-.01.02-.02.03-.03.05-.02.05-.04.09-.05.15,0,0,0,.01,0,.02,0,0,0,0,0,0,0,0,0,0,0,0-.24,1.99.47,3.24,2.11,3.72,2.21.65,61.85,8.32,87.39,11.59l.94.12c.3.04.59.06.88.06,2.11,0,4.13-.93,6.08-1.83.65-.3,1.26-.58,1.88-.83,1.65-.67,3.3-1.38,4.93-2.11,0,0,.02,0,.03-.01,4.4-1.98,8.73-4.13,12.95-6.24,1.19-.59,2.67-1.33,3.52-2.66.59-.91.8-2.03.62-3.12,1.63-.66,2.72-2.14,3.34-4.49.8-3.05,1.38-6.19,1.95-9.23.33-1.78.67-3.63,1.06-5.43,1.18-5.57,2.41-11.48,3.87-18.58.76-3.7,1.52-7.4,2.27-11.11.1-.48.21-.98.32-1.49.27-1.22.55-2.48.68-3.66.22-1.72.36-3.27-.21-4.75Zm-35.7,71.95c-.64.26-1.29.56-1.92.85-2.1.97-4.27,1.97-6.42,1.69l-.94-.12c-41.02-5.25-85.48-11.04-87.23-11.55-.74-.22-1.45-.66-1.42-2.12l3.77.49c3.76.49,7.52.98,11.28,1.46,5.25.68,10.51,1.35,15.76,2.02,5.92.76,11.84,1.51,17.76,2.25,5.76.72,11.51,1.44,17.27,2.13,4.5.55,9.35,1.13,14.3,1.68l1.2.14c2.51.28,5.1.58,7.66.76.19.01.37.02.55.02,1.46,0,2.78-.42,4.35-1.08l3.85-1.61c.93-.39,1.99-.84,3.02-.73.76.08,1.58.96,1.74,1.77-1.52.68-3.05,1.34-4.59,1.96Zm20.95-10.63c-.7,1.09-1.98,1.73-3.12,2.3-4.02,2.01-8.14,4.06-12.32,5.95-.34-1.16-1.44-2.24-2.56-2.36-1.27-.13-2.51.39-3.51.8l-3.85,1.61c-1.63.68-2.95,1.09-4.44.98-2.54-.18-5.12-.47-7.62-.75l-1.2-.13c-4.95-.55-9.79-1.14-14.29-1.68-5.76-.7-11.51-1.41-17.27-2.13-5.92-.74-11.84-1.49-17.76-2.25-5.25-.67-10.51-1.35-15.76-2.02-3.76-.49-7.52-.97-11.28-1.46l-2.01-.26,35.15-10.91c.47.32,1.02.47,1.53.6.49.13.9.21,1.28.27,4,.62,8.12,1.07,12.1,1.51,1.97.22,3.94.44,5.9.67,9.94,1.2,18,2.16,25.38,3.02,7.86.92,15.57,1.81,23.38,2.61,3.13.32,6.3.79,9.36,1.25l.66.1c.51.08.99.11,1.45.11s.87-.04,1.27-.12c.1.8-.05,1.62-.47,2.28Zm13.95-56.69c-.12,1.13-.4,2.37-.67,3.56-.12.52-.23,1.03-.33,1.51-.74,3.7-1.5,7.4-2.26,11.1-1.46,7.1-2.69,13.01-3.87,18.58-.39,1.82-.73,3.67-1.06,5.46-.56,3.02-1.14,6.14-1.93,9.16-.88,3.36-2.6,4.53-5.92,4.04l-.66-.1c-3.07-.46-6.24-.93-9.4-1.25-7.81-.81-15.51-1.7-23.37-2.61-7.38-.86-15.45-1.82-25.38-3.02-1.97-.24-3.94-.46-5.91-.67-3.97-.44-8.07-.89-12.05-1.51-.35-.05-.73-.13-1.21-.26-.52-.13-1-.26-1.34-.55-.5-.44.01-2.24.26-3.1l.09-.33c.46-1.67.91-3.38,1.37-5.25.84-3.38,1.61-6.75,2.51-10.76l.49-2.18c1.41-6.33,2.88-12.88,4.67-19.23l3.1-10.97c.07-.25.15-.52.28-.7.3-.43.94-.54,1.61-.54.17,0,.34,0,.51.02.79.04,20,.87,38.59,1.67,18.6.8,37.83,1.63,38.61,1.68,1.46.08,2.69.86,3.12,1.99.49,1.25.35,2.67.15,4.26Zm-3.06-1.59l-77.77-4.03c-.27-.03-.46.15-.52.39l-10.33,44.23c-.03.14,0,.29.08.4.08.12.21.2.35.21l75.08,9.39c.12.01.23.02.35.02,1.26,0,2.37-.87,2.65-2.13l10.59-47.87c.03-.15,0-.3-.09-.42s-.23-.19-.38-.2Zm-11.11,48.26c-.19.87-1,1.44-1.88,1.33l-74.52-9.32,10.11-43.27,76.75,3.98-10.46,47.28Zm-48.14-20.53c.03-.28.27-.49.55-.46,2.84.27,7.31.84,11.64,1.38,3.88.49,7.55.95,9.41,1.12.28.03.48.27.46.55-.02.26-.24.46-.5.46-.02,0-.03,0-.05,0-1.87-.17-5.55-.63-9.44-1.13-4.32-.55-8.78-1.11-11.61-1.38-.28-.03-.48-.27-.46-.55Zm0,3.74c.03-.28.26-.48.55-.46,2.68.25,7.2.82,11.57,1.38,3.93.5,7.65.97,9.48,1.13.28.03.48.27.46.55-.02.26-.24.46-.5.46-.02,0-.03,0-.05,0-1.84-.17-5.57-.64-9.51-1.14-4.36-.55-8.88-1.12-11.54-1.37-.28-.03-.48-.27-.46-.55Zm6.81-10.02c-1.25-1.62-1.79-3.63-1.52-5.65.55-4.18,4.39-7.14,8.57-6.59,2.03.26,3.83,1.3,5.07,2.92,1.25,1.62,1.79,3.63,1.52,5.65-.5,3.85-3.8,6.66-7.58,6.66-.33,0-.66-.02-.99-.06-2.03-.26-3.83-1.3-5.07-2.92Z"/>
        <g id="Actualización_médica" data-name="Actualización médica" class="cls-2">
          <g class="cls-2">
            <path class="cls-4" d="m220.87,70.29h-3.39v8.29h-4.89v-23.24h8.89c1.76,0,3.31.31,4.62.94,1.32.63,2.33,1.51,3.04,2.64.71,1.13,1.06,2.43,1.06,3.89,0,1.01-.17,1.95-.52,2.81-.34.86-.85,1.62-1.51,2.28s-1.46,1.18-2.38,1.58l5.18,9.1h-5.63l-4.49-8.29Zm.61-3.99c.79,0,1.45-.15,1.99-.44.54-.29.94-.7,1.22-1.22s.41-1.13.41-1.83-.14-1.31-.41-1.83-.68-.93-1.22-1.22c-.54-.29-1.2-.44-1.99-.44h-4v6.97h4Z"/>
            <path class="cls-4" d="m236.41,77.81c-1.3-.73-2.31-1.75-3.03-3.05-.72-1.3-1.07-2.79-1.07-4.46s.35-3.14,1.06-4.45c.7-1.31,1.69-2.33,2.97-3.06,1.27-.73,2.74-1.1,4.38-1.1s3.07.36,4.31,1.09c1.24.73,2.19,1.74,2.86,3.04s1.01,2.77,1.01,4.43v1.36h-11.72c.13,1.21.49,2.15,1.08,2.83.59.68,1.44,1.02,2.55,1.02.74,0,1.38-.15,1.9-.47.53-.31.93-.76,1.21-1.34l4.65.39c-.38,1.04-.94,1.93-1.69,2.66-.75.72-1.63,1.27-2.65,1.64-1.02.37-2.12.56-3.32.56-1.71,0-3.22-.37-4.52-1.1Zm7.7-9.31c-.11-1.04-.43-1.86-.97-2.45s-1.33-.89-2.37-.89-1.86.3-2.44.89-.95,1.41-1.11,2.45h6.89Z"/>
            <path class="cls-4" d="m256.11,84.81c-1.06-.37-1.98-.92-2.75-1.65-.77-.73-1.36-1.61-1.74-2.65l4.65-.39c.3.58.74,1.03,1.32,1.34.58.31,1.28.47,2.1.47,1.15,0,2-.31,2.54-.95.54-.63.82-1.5.82-2.61v-3.02h-.26c-.51,1.16-1.18,2.05-2.03,2.65-.85.61-1.84.91-2.99.91-1.28,0-2.42-.37-3.43-1.11-1.01-.74-1.79-1.77-2.35-3.08-.56-1.31-.84-2.8-.84-4.45s.28-3.11.85-4.41c.56-1.3,1.35-2.32,2.36-3.06,1.01-.74,2.15-1.11,3.43-1.11,1.14,0,2.13.31,2.97.94s1.57,1.58,2.19,2.85h.26v-3.47h4.49v16.2c0,1.46-.31,2.73-.94,3.8-.63,1.07-1.55,1.89-2.77,2.47-1.22.57-2.69.86-4.41.86-1.25,0-2.4-.19-3.46-.56Zm6.23-10.82c.58-.89.86-2.12.86-3.68s-.29-2.77-.86-3.66c-.58-.89-1.48-1.34-2.72-1.34s-2.15.45-2.73,1.34c-.58.89-.87,2.12-.87,3.66s.29,2.79.87,3.68,1.49,1.34,2.73,1.34,2.14-.45,2.72-1.34Z"/>
            <path class="cls-4" d="m271.71,59.87c-.44-.25-.79-.59-1.04-1.03s-.38-.95-.38-1.52.13-1.08.38-1.52.6-.79,1.04-1.03c.44-.25.94-.37,1.5-.37s1.06.12,1.5.37c.44.25.79.59,1.03,1.03.25.44.37.95.37,1.52s-.12,1.08-.37,1.52c-.25.44-.59.79-1.03,1.03-.44.25-.94.37-1.5.37s-1.06-.12-1.5-.37Zm-.82,2.16h4.65v16.56h-4.65v-16.56Z"/>
            <path class="cls-4" d="m280.59,77.71c-1.26-.8-2.18-2.01-2.78-3.63l4.24-.82c.26.74.67,1.3,1.24,1.66.57.37,1.31.55,2.21.55.52,0,.97-.06,1.36-.17.39-.11.7-.28.92-.5.22-.22.33-.48.33-.78,0-.35-.15-.63-.45-.87-.3-.24-.68-.43-1.15-.57-.46-.14-1.1-.31-1.92-.51-1.32-.32-2.41-.65-3.27-.98s-1.59-.83-2.21-1.52c-.62-.68-.93-1.59-.93-2.72,0-1.03.29-1.94.86-2.72.57-.78,1.39-1.38,2.45-1.8,1.06-.42,2.31-.63,3.75-.63,1.86,0,3.41.38,4.63,1.14,1.23.76,2.13,1.88,2.71,3.37l-4.13.92c-.27-.64-.69-1.13-1.28-1.47-.58-.33-1.31-.5-2.18-.5-.74,0-1.32.11-1.72.33-.4.22-.61.54-.61.95,0,.34.15.63.45.86.3.23.68.41,1.14.54.46.13,1.1.29,1.93.47,1.36.31,2.47.63,3.35.95.88.32,1.64.83,2.28,1.53s.96,1.63.96,2.81c0,1.11-.31,2.06-.93,2.87-.62.8-1.48,1.41-2.59,1.82s-2.39.62-3.86.62c-1.96,0-3.57-.4-4.83-1.2Z"/>
            <path class="cls-4" d="m299.25,78.03c-.82-.37-1.43-.94-1.82-1.7-.39-.76-.59-1.73-.59-2.93v-7.84h-2.71v-3.54h2.71v-4.31h4.65v4.31h4.13v3.54h-4.13v7.31c0,.54.06.95.17,1.24.11.29.3.5.57.62.27.12.66.19,1.16.19h2.23v3.66h-3.18c-1.3,0-2.36-.19-3.19-.56Z"/>
            <path class="cls-4" d="m308.04,62.03h4.49v4.05h.26c.43-1.12.86-2,1.3-2.63.44-.63.9-1.08,1.4-1.35.5-.26,1.07-.39,1.71-.39.23,0,.44.01.65.04.21.03.38.07.52.12v4.78c-.61-.16-1.3-.24-2.07-.24-1.22,0-2.12.25-2.72.73-.6.49-.9,1.22-.9,2.2v9.25h-4.65v-16.56Z"/>
            <path class="cls-4" d="m323.3,77.84c-1.3-.71-2.31-1.73-3.03-3.04-.73-1.31-1.09-2.8-1.09-4.49s.36-3.19,1.09-4.49c.73-1.3,1.74-2.31,3.03-3.04,1.3-.72,2.78-1.08,4.45-1.08s3.15.36,4.45,1.08c1.3.72,2.31,1.73,3.03,3.04.72,1.3,1.08,2.8,1.08,4.49s-.36,3.2-1.08,4.5c-.72,1.3-1.73,2.31-3.02,3.03s-2.78,1.07-4.45,1.07-3.15-.36-4.45-1.07Zm7.23-3.87c.6-.89.9-2.12.9-3.66s-.3-2.77-.9-3.66c-.6-.89-1.53-1.34-2.78-1.34s-2.19.45-2.79,1.34c-.6.89-.9,2.12-.9,3.66s.3,2.79.9,3.67c.6.89,1.53,1.33,2.79,1.33s2.19-.45,2.78-1.34Z"/>
          </g>
        </g>
      </g>
    </g>
  </g>
</svg>