<?xml version="1.0" encoding="UTF-8"?>
<svg id="Capa_2" data-name="Capa 2" xmlns="http://www.w3.org/2000/svg" xmlns:xlink="http://www.w3.org/1999/xlink" viewBox="0 0 390 141.54">
  <defs>
    <style>
      .cls-1, .cls-2, .cls-3, .cls-4, .cls-5 {
        fill: none;
      }

      .cls-2 {
        isolation: isolate;
      }

      .cls-6 {
        fill: #68e085;
      }

      .cls-7 {
        fill: #08312a;
      }

      .cls-3 {
        stroke-linecap: round;
        stroke-linejoin: round;
      }

      .cls-3, .cls-4 {
        stroke: #68e085;
        stroke-width: .63px;
      }

      .cls-4 {
        stroke-miterlimit: 10;
      }

      .cls-5 {
        clip-path: url(#clippath);
      }
    </style>
    <clipPath id="clippath">
      <rect class="cls-1" x="97.58" y="28.81" width="51.5" height="81.54"/>
    </clipPath>
  </defs>
  <g id="botones">
    <g>
      <rect class="cls-1" width="390" height="141.54"/>
      <g id="Grupo_1476" data-name="Grupo 1476">
        <g id="Grupo_155" data-name="Grupo 155">
          <g class="cls-5">
            <g id="Grupo_155-2" data-name="Grupo 155-2">
              <path id="Trazado_1705" data-name="Trazado 1705" class="cls-4" d="m142.68,88.87c3.73,5.07,2.07,12.62-3.7,16.86s-13.47,3.57-17.19-1.5-2.07-12.62,3.7-16.86,13.47-3.57,17.19,1.5Z"/>
              <path id="Trazado_1706" data-name="Trazado 1706" class="cls-3" d="m122.05,107.17s-9.7-4.93-8.08-14.71c1.62-9.78,11.64-13.98,17.22-13.9.97-.16,1.29-1.46,1.29-1.46,0,0,.81,1.7,1.54,2.02s7.44,2.1,7.68,2.1,1.78.24,1.78.24l-.24,2.02s4.77,6.87,2.99,12.61-3.96,9.37-12.77,12.12c-7.51,2.02-11.39-1.05-11.39-1.05Z"/>
              <path id="Trazado_1707" data-name="Trazado 1707" class="cls-3" d="m113.81,95.93s-3.4-10.26,6.06-16.33c7.19-5.01,13.17-3.23,13.17-3.23,0,0,4.93-10.99,4.53-28.61-.4-17.62-4.06-17.64-8.81-16-6.3,2.18-12.93,15.2-15.6,24.09s-5.66,18.19-5.33,23.68c3.11-.63,6.31-.74,9.46-.32-.08-1.29,5.1-30.96,18.83-43.32"/>
              <path id="Trazado_1708" data-name="Trazado 1708" class="cls-3" d="m144.04,80.58s7.84-28.37,3.31-41.3c-3.23-9.05-20.24-19.8-32.35,5.84-5.06,11.37-8.36,23.45-9.78,35.82-2.57,1.81-4.74,4.14-6.36,6.84-1.78,3.64-1.46,10.74,3.96,16,11.18,10.87,21.02,4.28,21.02,4.28"/>
              <path id="Trazado_1709" data-name="Trazado 1709" class="cls-3" d="m121.73,106.93s-14.29,2.69-20.61-10.51c-4.24-10.1,1.94-13.58,1.94-13.58"/>
              <path id="Trazado_1710" data-name="Trazado 1710" class="cls-6" d="m132.47,77.95l-1.28.61c-2.83.26-5.6.9-8.26,1.89-3.1,1.73-5.65,4.28-7.38,7.38-.79,2.04-1.93,6.93-1.93,6.93-.37-1.75-.48-3.55-.34-5.34.22-3.68,2.27-7,5.45-8.86,2.66-2.02,5.66-3.56,8.86-4.54,4.09-.91,4.88,1.93,4.88,1.93"/>
            </g>
          </g>
        </g>
        <g id="Actualización_médica" data-name="Actualización médica" class="cls-2">
          <g class="cls-2">
            <path class="cls-7" d="m172.91,55.35h8.41c1.76,0,3.31.31,4.62.94,1.32.63,2.33,1.51,3.04,2.64.71,1.13,1.07,2.43,1.07,3.89s-.36,2.76-1.07,3.89c-.71,1.13-1.72,2.01-3.04,2.64-1.32.63-2.86.94-4.62.94h-3.52v8.3h-4.89v-23.24Zm8.41,10.96c.79,0,1.45-.15,1.99-.44.54-.29.94-.7,1.22-1.22.27-.52.41-1.13.41-1.83s-.14-1.31-.41-1.83c-.27-.52-.68-.93-1.22-1.22-.54-.29-1.2-.44-1.99-.44h-3.52v6.97h3.52Z"/>
            <path class="cls-7" d="m194.98,77.84c-1.3-.71-2.31-1.73-3.03-3.03-.73-1.31-1.09-2.8-1.09-4.49s.36-3.19,1.09-4.49,1.74-2.31,3.03-3.03c1.3-.72,2.78-1.08,4.45-1.08s3.15.36,4.45,1.08,2.31,1.73,3.03,3.03c.72,1.3,1.08,2.8,1.08,4.49s-.36,3.2-1.08,4.5c-.72,1.3-1.73,2.31-3.02,3.03-1.29.72-2.78,1.07-4.45,1.07s-3.15-.36-4.45-1.07Zm7.23-3.87c.6-.89.9-2.11.9-3.66s-.3-2.77-.9-3.66c-.6-.89-1.53-1.34-2.78-1.34s-2.19.45-2.79,1.34c-.6.89-.9,2.11-.9,3.66s.3,2.78.9,3.67c.6.89,1.53,1.33,2.79,1.33s2.19-.45,2.78-1.34Z"/>
            <path class="cls-7" d="m213.41,77.8c-1.01-.74-1.79-1.76-2.36-3.06s-.85-2.77-.85-4.41.28-3.13.84-4.44c.56-1.31,1.34-2.34,2.35-3.08,1.01-.74,2.15-1.11,3.43-1.11,1.15,0,2.15.3,2.99.91.84.61,1.52,1.5,2.03,2.67h.26v-10.91h4.65v24.21h-4.49v-3.45h-.26c-.62,1.27-1.36,2.22-2.19,2.84-.84.62-1.83.94-2.97.94-1.28,0-2.42-.37-3.43-1.11Zm7.99-3.83c.58-.89.86-2.11.86-3.66s-.29-2.77-.86-3.66c-.58-.89-1.48-1.34-2.72-1.34s-2.15.45-2.73,1.34c-.58.89-.87,2.11-.87,3.66s.29,2.77.87,3.66c.58.89,1.49,1.34,2.73,1.34s2.14-.45,2.72-1.34Z"/>
            <path class="cls-7" d="m233.5,77.81c-1.28-.73-2.27-1.75-2.98-3.05s-1.06-2.79-1.06-4.45.35-3.15,1.06-4.46c.7-1.3,1.7-2.32,2.98-3.05s2.76-1.1,4.44-1.1c1.24,0,2.38.22,3.43.65s1.95,1.08,2.7,1.94c.75.86,1.29,1.89,1.64,3.11l-4.57.69c-.24-.89-.64-1.58-1.21-2.07s-1.29-.73-2.15-.73c-1.21,0-2.09.44-2.66,1.33s-.85,2.11-.85,3.67.28,2.75.85,3.59,1.45,1.27,2.66,1.27c.86,0,1.57-.24,2.13-.73.56-.48.96-1.18,1.21-2.1l4.6.71c-.34,1.27-.89,2.34-1.65,3.22-.75.88-1.65,1.54-2.7,1.98-1.04.44-2.19.66-3.44.66-1.68,0-3.16-.37-4.44-1.1Z"/>
            <path class="cls-7" d="m249.68,78.32c-.76-.39-1.35-.94-1.78-1.65-.43-.71-.64-1.53-.64-2.45,0-1.54.64-2.76,1.92-3.67,1.28-.91,3.21-1.53,5.79-1.86l2.87-.37c-.03-1.04-.28-1.8-.74-2.28s-1.17-.72-2.11-.72c-.81,0-1.46.17-1.95.51s-.87.88-1.13,1.62l-4.33-.36c.28-1.15.76-2.13,1.44-2.93s1.55-1.41,2.61-1.82c1.05-.41,2.27-.62,3.65-.62,1.53,0,2.83.25,3.91.76s1.9,1.25,2.46,2.24c.56.98.85,2.18.85,3.59v10.3h-4.49v-3.45h-.26c-.7,1.29-1.5,2.24-2.39,2.86-.89.61-1.93.92-3.1.92-.97,0-1.83-.2-2.59-.59Zm3.02-3.44c.38.29.95.43,1.7.43.69,0,1.29-.12,1.82-.36.52-.24.93-.57,1.21-1.01.29-.44.43-.94.43-1.53v-1.23l-2.19.31c-.88.12-1.58.27-2.08.44-.51.18-.87.4-1.11.66s-.35.6-.35,1.01c0,.56.19.98.57,1.27Z"/>
            <path class="cls-7" d="m267.39,77.72c-1.26-.8-2.18-2.01-2.78-3.63l4.24-.82c.26.74.67,1.3,1.24,1.66.57.37,1.31.55,2.21.55.52,0,.97-.06,1.36-.17.39-.11.7-.28.92-.5.22-.22.33-.48.33-.78,0-.34-.15-.63-.45-.87-.3-.24-.68-.43-1.15-.57-.46-.15-1.1-.32-1.92-.51-1.32-.32-2.41-.65-3.27-.98s-1.59-.83-2.21-1.52c-.62-.68-.93-1.59-.93-2.72,0-1.03.28-1.94.86-2.72.57-.78,1.39-1.38,2.45-1.8,1.06-.42,2.31-.63,3.75-.63,1.86,0,3.41.38,4.63,1.14s2.13,1.88,2.71,3.37l-4.13.92c-.27-.65-.69-1.13-1.28-1.47-.58-.33-1.31-.5-2.18-.5-.74,0-1.32.11-1.72.33-.4.22-.61.54-.61.94,0,.34.15.63.45.86.3.23.68.41,1.14.54.46.13,1.1.29,1.93.48,1.36.31,2.47.63,3.35.95.88.32,1.64.83,2.28,1.53.64.7.96,1.64.96,2.81,0,1.11-.31,2.06-.93,2.87-.62.8-1.48,1.41-2.59,1.82-1.11.41-2.39.62-3.86.62-1.96,0-3.57-.4-4.83-1.19Z"/>
            <path class="cls-7" d="m286.06,78.03c-.82-.37-1.43-.94-1.82-1.7-.39-.76-.59-1.73-.59-2.93v-7.84h-2.71v-3.54h2.71v-4.31h4.65v4.31h4.13v3.54h-4.13v7.31c0,.54.06.95.17,1.24.11.29.3.5.57.62.27.12.66.19,1.16.19h2.23v3.66h-3.18c-1.3,0-2.36-.19-3.19-.56Z"/>
          </g>
        </g>
      </g>
    </g>
  </g>
</svg>