<?xml version="1.0" encoding="UTF-8"?>
<svg id="Capa_2" data-name="Capa 2" xmlns="http://www.w3.org/2000/svg" xmlns:xlink="http://www.w3.org/1999/xlink" viewBox="0 0 390 141.54">
  <defs>
    <style>
      .cls-1, .cls-2, .cls-3 {
        fill: none;
      }

      .cls-2 {
        isolation: isolate;
      }

      .cls-4 {
        fill: #00e47c;
      }

      .cls-5 {
        fill: #fff;
      }

      .cls-3 {
        clip-path: url(#clippath);
      }
    </style>
    <clipPath id="clippath">
      <rect class="cls-1" x="52.42" y="30" width="74.4" height="81.54"/>
    </clipPath>
  </defs>
  <g id="botones">
    <g>
      <rect class="cls-1" width="390" height="141.54"/>
      <g>
        <g id="Productos_patrocinadores" data-name="Productos patrocinadores" class="cls-2">
          <g class="cls-2">
            <path class="cls-5" d="m153.95,40.53h5.21l7.62,23.24h-3.32l-2.16-6.83h-9.62l-2.16,6.83h-3.2l7.63-23.24Zm6.46,13.67l-3.79-11.98h-.29l-3.78,11.98h7.86Z"/>
            <path class="cls-5" d="m171.79,63.02c-1.2-.71-2.13-1.72-2.79-3-.66-1.29-.99-2.77-.99-4.45s.33-3.14.99-4.42,1.59-2.28,2.79-2.99c1.2-.71,2.58-1.06,4.16-1.06,1.19,0,2.29.21,3.28.64.99.43,1.83,1.04,2.53,1.86s1.21,1.78,1.53,2.9l-3.05.53c-.31-1.1-.83-1.93-1.56-2.49s-1.65-.84-2.77-.84c-1.04,0-1.92.24-2.62.72-.7.48-1.23,1.16-1.58,2.04-.35.88-.52,1.92-.52,3.11s.17,2.25.52,3.13c.35.88.88,1.57,1.58,2.05.7.48,1.58.73,2.62.73,2.25,0,3.69-1.16,4.33-3.47l3.05.53c-.32,1.16-.83,2.16-1.53,2.99-.69.83-1.54,1.47-2.53,1.9s-2.09.65-3.29.65c-1.57,0-2.96-.36-4.16-1.07Z"/>
            <path class="cls-5" d="m189.77,63.31c-.69-.31-1.19-.79-1.48-1.44-.29-.65-.44-1.51-.44-2.59v-9.26h-2.87v-2.58h2.87v-3.95h2.97v3.95h4.58v2.58h-4.58v9.15c0,.51.05.9.15,1.19.1.29.3.5.59.63.29.13.71.2,1.26.2h2.58v2.6h-2.78c-1.22,0-2.17-.16-2.86-.47Z"/>
            <path class="cls-5" d="m212.09,63.78h-2.81v-3.29h-.26c-.63,1.19-1.42,2.09-2.36,2.7-.94.61-2.02.91-3.22.91-1.1,0-2.04-.25-2.83-.73-.79-.49-1.4-1.2-1.82-2.12-.42-.92-.63-2.03-.63-3.31v-10.51h2.97v10.15c0,2.62,1.19,3.94,3.58,3.94.91,0,1.7-.18,2.36-.54.66-.36,1.17-.88,1.52-1.56s.52-1.49.52-2.42v-9.57h2.97v16.35Z"/>
            <path class="cls-5" d="m217.5,63.53c-.74-.38-1.32-.92-1.73-1.61-.42-.69-.63-1.48-.63-2.37,0-1.43.56-2.59,1.69-3.47,1.12-.88,2.81-1.48,5.04-1.79l3.94-.56c-.02-.95-.16-1.72-.43-2.31-.26-.59-.65-1.03-1.15-1.31-.51-.28-1.15-.42-1.94-.42-1.01,0-1.85.24-2.5.71s-1.14,1.22-1.45,2.23l-2.92-.24c.28-1.12.73-2.07,1.36-2.86s1.41-1.39,2.35-1.8,2.03-.62,3.25-.62c1.34,0,2.5.25,3.45.76.96.51,1.69,1.25,2.2,2.23.51.98.76,2.17.76,3.57v10.12h-2.81v-3.29h-.26c-.66,1.16-1.48,2.05-2.48,2.68s-2.08.94-3.25.94c-.92,0-1.74-.19-2.48-.57Zm1.55-2.6c.5.39,1.2.59,2.11.59.84,0,1.61-.16,2.32-.48.71-.32,1.28-.75,1.69-1.31.42-.55.63-1.17.63-1.85v-1.89l-3.44.52c-.98.14-1.76.32-2.35.54-.59.22-1.02.51-1.3.85-.28.35-.42.79-.42,1.32,0,.74.25,1.31.75,1.7Z"/>
            <path class="cls-5" d="m234.41,63.37c-.64-.27-1.11-.69-1.4-1.28s-.44-1.36-.44-2.32v-20.21h2.97v19.93c0,.43.06.77.17,1.01.11.24.3.42.55.52.25.1.6.15,1.06.15h1.21v2.6h-1.55c-1.08,0-1.93-.13-2.57-.4Z"/>
            <path class="cls-5" d="m241.56,44.34c-.32-.18-.57-.43-.75-.75-.18-.32-.27-.68-.27-1.09s.09-.77.27-1.09c.18-.32.43-.57.75-.75.32-.18.68-.27,1.09-.27s.77.09,1.1.27c.32.18.58.44.76.76.18.32.27.68.27,1.08s-.09.76-.27,1.08c-.18.32-.44.58-.76.76-.32.18-.69.27-1.1.27s-.77-.09-1.09-.27Zm-.4,3.08h2.97v16.35h-2.97v-16.35Z"/>
            <path class="cls-5" d="m247.87,47.43h12.04v2.58l-8.55,10.93v.26h8.55v2.58h-12.04v-2.58l8.55-10.93v-.26h-8.55v-2.58Z"/>
            <path class="cls-5" d="m265.05,63.53c-.74-.38-1.32-.92-1.73-1.61-.42-.69-.63-1.48-.63-2.37,0-1.43.56-2.59,1.69-3.47,1.12-.88,2.81-1.48,5.04-1.79l3.94-.56c-.02-.95-.16-1.72-.43-2.31-.26-.59-.65-1.03-1.15-1.31-.51-.28-1.15-.42-1.94-.42-1.01,0-1.85.24-2.5.71s-1.14,1.22-1.45,2.23l-2.92-.24c.28-1.12.73-2.07,1.36-2.86s1.41-1.39,2.35-1.8,2.03-.62,3.25-.62c1.34,0,2.5.25,3.45.76.96.51,1.69,1.25,2.2,2.23.51.98.76,2.17.76,3.57v10.12h-2.81v-3.29h-.26c-.66,1.16-1.48,2.05-2.48,2.68s-2.08.94-3.25.94c-.92,0-1.74-.19-2.48-.57Zm1.55-2.6c.5.39,1.2.59,2.11.59.84,0,1.61-.16,2.32-.48.71-.32,1.28-.75,1.69-1.31.42-.55.63-1.17.63-1.85v-1.89l-3.44.52c-.98.14-1.76.32-2.35.54-.59.22-1.02.51-1.3.85-.28.35-.42.79-.42,1.32,0,.74.25,1.31.75,1.7Z"/>
            <path class="cls-5" d="m283.32,63.02c-1.2-.71-2.13-1.72-2.79-3-.66-1.29-.99-2.77-.99-4.45s.33-3.14.99-4.42c.66-1.28,1.59-2.28,2.79-2.99,1.2-.71,2.58-1.06,4.16-1.06,1.19,0,2.29.21,3.28.64.99.43,1.83,1.04,2.53,1.86.7.81,1.21,1.78,1.53,2.9l-3.05.53c-.31-1.1-.83-1.93-1.56-2.49-.73-.56-1.65-.84-2.77-.84-1.04,0-1.92.24-2.62.72-.71.48-1.23,1.16-1.58,2.04-.35.88-.52,1.92-.52,3.11s.17,2.25.52,3.13c.35.88.88,1.57,1.58,2.05.7.48,1.58.73,2.62.73,2.25,0,3.69-1.16,4.33-3.47l3.05.53c-.32,1.16-.83,2.16-1.53,2.99s-1.54,1.47-2.53,1.9-2.09.65-3.29.65c-1.57,0-2.96-.36-4.16-1.07Z"/>
            <path class="cls-5" d="m298.29,44.34c-.32-.18-.57-.43-.75-.75-.18-.32-.27-.68-.27-1.09s.09-.77.27-1.09c.18-.32.43-.57.75-.75.32-.18.68-.27,1.09-.27s.77.09,1.1.27c.32.18.58.44.76.76.18.32.27.68.27,1.08s-.09.76-.27,1.08c-.18.32-.44.58-.76.76-.32.18-.69.27-1.1.27s-.77-.09-1.09-.27Zm-.4,3.08h2.97v16.35h-2.97v-16.35Z"/>
            <path class="cls-5" d="m308.07,63.03c-1.21-.71-2.15-1.71-2.81-2.99-.66-1.29-.99-2.76-.99-4.43s.33-3.16.99-4.45c.66-1.29,1.6-2.28,2.81-2.99,1.21-.71,2.61-1.06,4.19-1.06s2.98.35,4.19,1.06c1.21.71,2.15,1.71,2.81,2.99.66,1.29.99,2.77.99,4.45s-.33,3.15-.99,4.43c-.66,1.29-1.6,2.28-2.81,2.99s-2.61,1.07-4.19,1.07-2.98-.36-4.19-1.07Zm6.86-2.24c.72-.48,1.25-1.17,1.6-2.05.35-.88.52-1.93.52-3.13s-.17-2.25-.52-3.13c-.35-.88-.88-1.57-1.6-2.05-.72-.48-1.61-.73-2.67-.73s-1.94.24-2.65.73c-.72.48-1.25,1.17-1.61,2.05-.35.88-.53,1.93-.53,3.13s.18,2.25.53,3.13c.35.88.89,1.57,1.61,2.05.72.48,1.6.73,2.65.73s1.96-.24,2.67-.73Zm-1.61-21.51h3.2l-3.7,5.34h-2.81l3.31-5.34Z"/>
            <path class="cls-5" d="m323.65,47.43h2.81v3.29h.26c.62-1.19,1.41-2.1,2.35-2.7.94-.61,2.01-.91,3.22-.91,1.1,0,2.04.24,2.84.73.8.49,1.4,1.2,1.82,2.12s.63,2.03.63,3.31v10.51h-2.97v-10.15c0-2.63-1.2-3.94-3.6-3.94-.91,0-1.7.18-2.36.54s-1.16.88-1.51,1.57-.52,1.49-.52,2.43v9.55h-2.97v-16.35Z"/>
            <path class="cls-4" d="m165.01,79.82c.89-.62,1.94-.93,3.17-.93,1.04,0,1.94.23,2.69.68.75.45,1.32,1.13,1.72,2.03.4.9.6,1.99.6,3.28v10.89h-4.65v-10.2c0-1-.24-1.76-.72-2.29-.48-.53-1.16-.79-2.06-.79-.99,0-1.76.32-2.3.96-.54.64-.82,1.55-.82,2.72v9.6h-4.65v-10.2c0-1-.24-1.76-.72-2.29s-1.16-.79-2.06-.79c-.99,0-1.76.32-2.3.96-.54.64-.81,1.55-.81,2.72v9.6h-4.65v-16.56h4.49v3.47h.26c.67-1.28,1.44-2.23,2.32-2.86.88-.62,1.92-.94,3.12-.94s2.28.32,3.1.97c.82.65,1.37,1.59,1.66,2.83h.26c.68-1.29,1.46-2.25,2.35-2.87Z"/>
            <path class="cls-4" d="m179.84,95c-1.3-.73-2.31-1.75-3.03-3.05-.72-1.3-1.07-2.79-1.07-4.45s.35-3.14,1.06-4.45c.7-1.31,1.69-2.33,2.97-3.06,1.28-.73,2.74-1.1,4.38-1.1s3.07.36,4.31,1.09c1.24.73,2.19,1.74,2.86,3.03.67,1.3,1.01,2.77,1.01,4.43v1.36h-11.72c.13,1.21.49,2.15,1.08,2.83.59.68,1.44,1.02,2.55,1.02.74,0,1.38-.16,1.9-.47.53-.31.93-.76,1.21-1.34l4.65.39c-.38,1.04-.94,1.93-1.69,2.66-.75.73-1.63,1.27-2.65,1.65s-2.12.56-3.32.56c-1.71,0-3.22-.37-4.52-1.1Zm7.7-9.31c-.11-1.04-.43-1.86-.97-2.45-.54-.59-1.33-.89-2.37-.89s-1.86.3-2.44.89-.95,1.41-1.11,2.45h6.89Zm-2.71-14.41h4.76l-4.23,6.15h-4.37l3.84-6.15Z"/>
            <path class="cls-4" d="m197.78,94.99c-1.01-.74-1.79-1.76-2.36-3.06s-.85-2.77-.85-4.41.28-3.13.84-4.44c.56-1.31,1.34-2.34,2.35-3.08,1.01-.74,2.15-1.11,3.43-1.11,1.15,0,2.15.3,2.99.91.84.61,1.52,1.5,2.03,2.67h.26v-10.91h4.65v24.21h-4.49v-3.45h-.26c-.62,1.27-1.36,2.22-2.2,2.84-.84.62-1.83.94-2.97.94-1.28,0-2.42-.37-3.43-1.11Zm7.99-3.83c.58-.89.86-2.11.86-3.66s-.29-2.77-.86-3.66c-.58-.89-1.48-1.34-2.72-1.34s-2.15.45-2.73,1.34c-.58.89-.87,2.11-.87,3.66s.29,2.77.87,3.66c.58.89,1.49,1.34,2.73,1.34s2.14-.45,2.72-1.34Z"/>
            <path class="cls-4" d="m215.14,77.05c-.44-.25-.79-.59-1.04-1.03s-.38-.95-.38-1.52.13-1.08.38-1.52.6-.79,1.04-1.03c.44-.25.94-.37,1.5-.37s1.06.12,1.5.37c.44.25.79.59,1.03,1.03.25.44.37.95.37,1.52s-.12,1.08-.37,1.52c-.25.44-.59.79-1.03,1.03-.44.25-.94.37-1.5.37s-1.06-.12-1.5-.37Zm-.82,2.16h4.65v16.56h-4.65v-16.56Z"/>
            <path class="cls-4" d="m225.71,95c-1.28-.73-2.27-1.75-2.98-3.05-.71-1.3-1.06-2.79-1.06-4.45s.35-3.15,1.06-4.46c.7-1.3,1.7-2.32,2.98-3.05s2.76-1.1,4.44-1.1c1.24,0,2.38.22,3.43.65,1.05.44,1.95,1.08,2.7,1.94.75.86,1.29,1.89,1.64,3.11l-4.57.69c-.24-.89-.64-1.58-1.21-2.07-.57-.48-1.29-.73-2.15-.73-1.21,0-2.09.44-2.65,1.33s-.85,2.11-.85,3.67.28,2.75.85,3.59,1.45,1.27,2.65,1.27c.86,0,1.57-.24,2.13-.73.56-.48.96-1.18,1.21-2.1l4.6.71c-.34,1.27-.89,2.34-1.65,3.22-.75.88-1.65,1.54-2.7,1.98-1.04.44-2.19.66-3.44.66-1.68,0-3.16-.37-4.44-1.1Z"/>
            <path class="cls-4" d="m241.89,95.51c-.76-.39-1.35-.94-1.78-1.65-.42-.71-.64-1.53-.64-2.45,0-1.54.64-2.76,1.92-3.67,1.28-.91,3.21-1.53,5.79-1.86l2.87-.37c-.03-1.04-.28-1.8-.74-2.28-.46-.48-1.17-.72-2.11-.72-.81,0-1.46.17-1.95.51-.5.34-.87.88-1.13,1.62l-4.33-.36c.28-1.15.76-2.13,1.44-2.93s1.55-1.41,2.61-1.82c1.05-.41,2.27-.62,3.65-.62,1.53,0,2.83.25,3.91.76,1.08.51,1.9,1.25,2.46,2.24.56.98.85,2.18.85,3.59v10.3h-4.49v-3.45h-.26c-.7,1.29-1.5,2.24-2.39,2.86-.89.61-1.93.92-3.1.92-.97,0-1.83-.2-2.59-.59Zm3.02-3.44c.38.29.95.43,1.7.43.69,0,1.29-.12,1.82-.36.52-.24.93-.57,1.21-1.01.29-.44.43-.94.43-1.53v-1.23l-2.19.31c-.88.12-1.58.27-2.08.44-.51.18-.87.4-1.11.66-.23.26-.35.6-.35,1.01,0,.56.19.98.57,1.27Z"/>
          </g>
        </g>
        <g id="Grupo_1470" data-name="Grupo 1470">
          <g class="cls-3">
            <g id="Grupo_1475" data-name="Grupo 1475">
              <path id="Trazado_4513" data-name="Trazado 4513" class="cls-4" d="m75.14,53.61c-.07,0-.14-.03-.19-.09-.5-.69-.56-1.6-.16-2.35.03-.06.08-.1.15-.12l3.08-.96c.13-.05.27.01.33.14.05.13-.01.27-.14.33-.01,0-.02,0-.04.01l-2.97.93c-.24.5-.22,1.09.04,1.58.8-.22,2.7-.69,2.79-.71.14-.02.27.07.29.21.02.12-.05.24-.17.28-.02,0-2.28.56-2.93.75-.02,0-.04.01-.07.01"/>
              <path id="Trazado_4514" data-name="Trazado 4514" class="cls-4" d="m91.73,79.65c-1.98-.04-3.93-.42-5.78-1.12-3.07-1.04-5.7-3.1-7.44-5.84-.63-1.51-1.04-3.1-1.19-4.73-.08-.77-.23-1.53-.44-2.27-1.14-1.89-1.66-4.08-1.48-6.28.33-2.14,1.08-4.19,2.19-6.04.7-1.17.21-3.68.04-4.43v-.04c-.09-.24-.06-.51.09-.72.82-.66,1.92-.85,2.92-.52.73.2.91.51.94.61v.03l.35,1.64c.59-.87,1.36-1.61,2.25-2.17l-.38-2.73s0-.05,0-.08c.02-.1.15-.58,1.14-.77.53-.16,1.1-.02,1.49.36.03.04.05.08.06.13l.27,2.44h.11s.48-2.53.48-2.53c.02-.08.07-.15.15-.18.5-.19,1.06-.18,1.54.05.15.07.23.22.22.38l-.03.36.39.07c.2.04.34.23.32.44l-.32,1.81.44.23c.84.61,1.34,1.58,1.37,2.61.29-.02.79-.05,1.25-.1.5-.06,1,.08,1.38.4.33.3.51.73.5,1.17,0,.72-.44,1.36-1.11,1.61-.02,0-.04.01-.06.01l-.52.04c1.58.57,2.47,2.25,2.05,3.87v.18c-.16.9.12,1.83.75,2.49,1.38,1.58,2.39,3.45,2.95,5.47.05.22.11.44.18.65.69,2.12.81,4.39.34,6.57-.64,3.75-2.23,5.96-4.72,6.59-.87.22-1.76.33-2.66.33m-12.22-31.61c-.53-.04-1.05.13-1.44.48-.03.03,0,.2.03.28v.04c.23,1.01.68,3.5-.1,4.8-1.07,1.79-1.78,3.77-2.11,5.82-.17,2.11.34,4.22,1.44,6.03v.03c.24.78.39,1.58.48,2.38.15,1.58.54,3.12,1.15,4.58,1.68,2.62,4.2,4.59,7.15,5.58,2.58,1.08,5.42,1.35,8.16.78,2.32-.59,3.74-2.6,4.35-6.19.45-2.11.34-4.29-.33-6.34-.08-.27-.15-.5-.19-.7-.55-1.94-1.52-3.74-2.85-5.26-.7-.76-1.02-1.79-.86-2.81v-.18c.03-1.21.06-2.18-.93-2.95-.61-.43-1.32-.68-2.06-.73-.11-.01-.2-.03-.27-.04-.14-.02-.24-.16-.22-.31.02-.12.12-.21.24-.22l2.12-.15c.46-.18.75-.63.75-1.12.01-.3-.11-.6-.34-.81-.28-.23-.64-.32-1-.27-.73.08-1.53.12-1.54.12-.14,0-.26-.1-.26-.24,0,0,0-.02,0-.03.03-.94-.38-1.85-1.12-2.43l-.59-.29c-.1-.05-.15-.16-.13-.27l.34-1.88-.51-.09c-.13-.02-.21-.14-.2-.27l.05-.49c-.3-.12-.63-.14-.94-.05l-.49,2.57c-.02.11-.12.2-.23.2l-.54.03c-.13,0-.25-.09-.26-.22l-.29-2.59c-.28-.19-.64-.24-.96-.15-.53.11-.69.29-.73.36l.4,2.83c0,.05,0,.11-.03.16-.02.04-.05.07-.08.09h0c-1.05.66-1.92,1.57-2.54,2.64h0c-.03.06-.07.09-.12.11-.02,0-.04.01-.06.01-.04,0-.09,0-.13-.01l-.04-.02s-.07-.06-.09-.11c0-.01-.01-.03-.02-.04v-.02l-.47-2.25c-.17-.15-.37-.26-.59-.29-.32-.08-.65-.12-.97-.12"/>
              <path id="Trazado_4515" data-name="Trazado 4515" class="cls-4" d="m79.27,77.83c-1.23,0-1.56-.68-1.57-.71-.02-.03-.02-.07-.02-.1v-6.9c0-.14.11-.25.25-.25s.25.11.25.25v6.83c.08.11.41.44,1.31.38.48.02.96-.14,1.34-.44v-1.5c.01-.14.13-.24.27-.23.12,0,.22.11.23.23v1.59s-.01.09-.03.12c-.04.06-.39.63-1.77.72-.09,0-.17,0-.25,0"/>
              <path id="Trazado_4516" data-name="Trazado 4516" class="cls-4" d="m83.45,79.51c-1.38,0-1.64-.88-1.65-.91,0-.02-.01-.04-.01-.07v-2.37c0-.14.11-.25.25-.25s.25.11.25.25h0v2.32c.05.11.3.56,1.29.52.94-.04,1.24-.34,1.32-.44v-.61c0-.14.11-.25.25-.25s.25.11.25.25v.68s0,.06-.02.09c-.03.07-.32.71-1.78.77h-.16"/>
              <path id="Trazado_4517" data-name="Trazado 4517" class="cls-4" d="m80.49,54.52h-.03c-.14-.02-.23-.14-.22-.28.03-.23.73-5.55,4.99-6.81.58-.22,1.2-.32,1.82-.31h0c.14.01.24.13.23.27,0,.12-.11.22-.23.23-.56-.02-1.11.08-1.63.27-.01,0-.02.01-.04.01-3.95,1.15-4.64,6.34-4.65,6.39-.02.12-.12.22-.25.22"/>
              <path id="Trazado_4518" data-name="Trazado 4518" class="cls-4" d="m82.29,57.67s-.08,0-.12-.03c-.12-.07-.17-.22-.1-.34.13-.25,3.33-6.14,9.05-6.91.14-.03.27.06.3.19.03.14-.06.27-.19.3-.01,0-.02,0-.04,0-5.46.73-8.64,6.59-8.67,6.65-.04.08-.13.13-.22.13"/>
              <path id="Trazado_4519" data-name="Trazado 4519" class="cls-4" d="m99.11,69.68h-.01c-.14,0-.24-.12-.24-.26-.06-1.87-1.37-3.47-3.19-3.91-.78-.25-1.5-.47-2.2-.67-2.87-.83-4.94-1.43-5.8-3.8-.49-1.73-.37-3.58.33-5.23.59-1.66,2.17-2.76,3.93-2.74.14,0,.25.1.26.24,0,.14-.1.25-.24.26h-.02c-1.56-.04-2.96.93-3.46,2.41-.64,1.55-.76,3.27-.32,4.89.77,2.13,2.74,2.7,5.46,3.49.71.21,1.44.42,2.22.67,1.38.39,2.52,1.35,3.14,2.64.26.55.39,1.15.4,1.76,0,.13-.12.24-.25.24"/>
              <path id="Trazado_4520" data-name="Trazado 4520" class="cls-4" d="m74.71,58.95c-.37.02-.71-.17-.9-.49-.14-.24-.17-.53-.09-.8.08-.27.28-.5.53-.63.39-.13.79-.21,1.2-.24l-.57-.36c-.29-.16-.5-.42-.6-.73-.06-.25-.01-.52.13-.73.13-.24.37-.42.64-.48.26-.05.53.01.74.16l1.12.67c.12.07.16.22.09.34-.07.12-.22.16-.34.09l-1.14-.68c-.11-.08-.24-.11-.38-.09-.13.04-.25.13-.31.26-.07.1-.1.23-.07.35.07.19.2.34.37.44l1.22.76c.09.06.14.17.11.27-.03.1-.12.18-.23.19-.59.02-1.19.11-1.76.26-.13.06-.23.18-.27.32-.04.13-.03.27.04.39.11.19.29.34.9.17l.6-.16c.13-.04.27.04.3.17,0,0,0,0,0,0,.04.13-.04.27-.17.31l-.59.16c-.18.06-.37.09-.56.09"/>
              <path id="Trazado_4521" data-name="Trazado 4521" class="cls-4" d="m93.21,53.31c-.77.04-1.43-.56-1.47-1.33-.04-.77.56-1.43,1.33-1.47s1.43.56,1.47,1.33c0,.02,0,.05,0,.07.02.76-.58,1.38-1.34,1.4m0-2.3c-.5-.04-.93.33-.97.83-.04.5.33.93.83.97.5.04.93-.33.97-.83,0-.02,0-.05,0-.07.02-.48-.36-.88-.83-.9"/>
              <path id="Trazado_4522" data-name="Trazado 4522" class="cls-4" d="m94.61,56.25c-.14,0-.25-.11-.25-.25,0-.07.03-.14.09-.19l1.17-.95c.22-.18.28-.49.15-.73-.15-.23-.46-.3-.7-.15,0,0,0,0,0,0l-1.13.63c-.12.07-.27.02-.34-.1s-.02-.27.1-.34h0l1.13-.63c.46-.29,1.07-.15,1.36.31,0,0,0,.01.01.02.27.46.15,1.05-.27,1.37l-1.16.95s-.1.06-.16.06"/>
              <path id="Trazado_4523" data-name="Trazado 4523" class="cls-4" d="m95.89,57.97c-.07,0-.13,0-.2-.02l-1.1-.24c-.13-.04-.21-.18-.17-.31.04-.12.15-.19.28-.18l1.1.24c.14.02.28,0,.4-.08.1-.09.17-.22.17-.36.03-.18-.01-.36-.12-.5-.14-.13-.33-.21-.52-.22l-1.02-.09c-.14,0-.24-.13-.23-.26,0,0,0,0,0,0,.01-.14.13-.24.27-.23h0s1,.08,1,.08c.33.01.64.15.87.38.21.25.3.57.25.89-.01.28-.15.54-.37.71-.18.12-.39.19-.6.18"/>
              <path id="Trazado_4524" data-name="Trazado 4524" class="cls-4" d="m88.63,47.75h-.04c-.14-.02-.23-.15-.21-.28,0,0,0,0,0,0l.31-2.08c.02-.13.15-.23.28-.21.14.02.23.15.21.28,0,0,0,0,0,0l-.31,2.08c-.02.12-.12.21-.25.21"/>
              <path id="Trazado_4525" data-name="Trazado 4525" class="cls-4" d="m84.92,45.58c-.83,0-1.07-.35-1.12-.43-.07-.12-.03-.27.09-.34s.27-.03.34.09c.02.02.22.25.97.17.64-.06.76-.24.77-.27,0-.14.12-.25.26-.24.14,0,.25.12.24.26,0,.11-.04.63-1.22.75-.11.01-.22.02-.34.02"/>
              <path id="Trazado_4526" data-name="Trazado 4526" class="cls-4" d="m62.73,67.61c-.14,0-.25-.11-.25-.25,0-8.36.4-17.93.7-24.92.16-3.74.28-6.69.28-8.07-.01-.98.43-1.91,1.21-2.51,5.2-4.29,26.33-.19,38.96,2.26,1.58.31,3.01.59,4.22.81,2.43.45,4.19,2.57,4.19,5.05.19,4.46.29,8.63.4,12.65.07,2.62.15,5.33.23,8.06,0,.14-.1.25-.24.26h0c-.14,0-.25-.11-.25-.24-.09-2.72-.16-5.44-.23-8.07-.11-4.03-.22-8.19-.4-12.66,0-2.23-1.59-4.15-3.79-4.55-1.22-.23-2.64-.5-4.23-.81-11.72-2.27-33.52-6.5-38.54-2.36-.66.5-1.04,1.29-1.03,2.12,0,1.39-.12,4.34-.28,8.09-.29,6.98-.7,16.55-.7,24.9,0,.14-.11.25-.25.25"/>
              <path id="Trazado_4527" data-name="Trazado 4527" class="cls-4" d="m107.5,111.54c-14.14-1-34.03-.45-41.93-.17-2.43.09-4.47-1.81-4.56-4.24,0-.05,0-.11,0-.16,0-2.56.18-6.64.38-11.37.29-6.65.65-14.93.65-22.25.01-.14.13-.24.27-.23.12,0,.22.11.23.23,0,7.34-.36,15.62-.65,22.27-.2,4.72-.38,8.8-.38,11.35,0,2.16,1.74,3.91,3.9,3.91.05,0,.09,0,.14,0,7.91-.28,27.82-.83,41.96.17,2.29,0,3.16,0,4.02-4.09,1.38-6.39,1.12-25.2.75-40.88,0-.14.11-.25.24-.26.13,0,.25.1.26.23,0,0,0,.01,0,.02.38,15.7.63,34.56-.76,41-.95,4.48-2.15,4.48-4.53,4.48"/>
              <path id="Trazado_4528" data-name="Trazado 4528" class="cls-4" d="m102.27,87.78s-.05,0-.07,0c-6.24-1.84-27.52-.94-27.73-.93h-.01c-.14,0-.24-.13-.24-.26,0-.12.1-.22.23-.24.88-.04,21.58-.91,27.9.94.13.04.21.18.17.31,0,0,0,0,0,0-.03.11-.13.18-.24.18"/>
              <path id="Trazado_4529" data-name="Trazado 4529" class="cls-4" d="m102.27,92.95s-.05,0-.07,0c-6.24-1.84-27.52-.93-27.73-.92-.14,0-.25-.12-.24-.26,0-.13.1-.23.22-.24.88-.04,21.58-.91,27.9.94.13.04.21.18.17.31,0,0,0,0,0,0-.03.11-.13.18-.24.18"/>
              <path id="Trazado_4530" data-name="Trazado 4530" class="cls-4" d="m102.27,98.93s-.05,0-.07,0c-6.24-1.84-27.52-.93-27.73-.93-.14,0-.25-.1-.26-.24,0-.14.09-.26.23-.27,0,0,0,0,0,0,.88-.04,21.58-.91,27.9.94.13.04.21.18.17.31,0,0,0,0,0,0-.03.11-.13.18-.24.18"/>
              <path id="Trazado_4531" data-name="Trazado 4531" class="cls-4" d="m65.79,79.3l4.29-5.83c.44-.6,1.28-.72,1.87-.29.28.21.48.52.53.87l.9,5.83c.11.73-.39,1.41-1.12,1.53-.07.01-.13.02-.2.02h-5.19c-.74,0-1.34-.6-1.34-1.34,0-.28.09-.56.26-.79"/>
              <path id="Trazado_4532" data-name="Trazado 4532" class="cls-4" d="m67.81,78.57c-.05,0-.1-.02-.15-.05-2.58-2.06-4.99-4.31-7.22-6.75-3.37-3.68-7.47-9.21-7.96-14.64-.61-5.46,2.4-10.68,7.43-12.87.51-.22,1.1.01,1.32.52.05.1.07.21.08.33.02.33-.12.66-.39.87-2.57,1.81-4.11,4.74-4.16,7.89-.06,9.74,13.58,20.83,13.72,20.95.11.09.12.24.04.35-.09.11-.24.13-.35.04,0,0,0,0,0,0-2.5-2.09-4.83-4.39-6.96-6.86-3.19-3.72-6.97-9.24-6.94-14.48.05-3.3,1.66-6.37,4.35-8.28.14-.1.21-.27.2-.44-.01-.16-.1-.31-.25-.39-.14-.08-.3-.09-.45-.03-4.88,2.07-7.79,7.12-7.14,12.37.92,10.14,14.84,20.92,14.99,21.03.11.08.13.24.04.35-.05.06-.12.09-.19.1"/>
              <path id="Trazado_4533" data-name="Trazado 4533" class="cls-4" d="m108.51,56.16l-2.98,6.6c-.31.67-1.1.97-1.77.67-.32-.15-.57-.41-.7-.74l-2.09-5.51c-.26-.69.08-1.46.78-1.73.06-.02.13-.04.2-.06l5.08-1.08c.72-.15,1.43.31,1.59,1.03.06.28.03.57-.09.83"/>
              <path id="Trazado_4534" data-name="Trazado 4534" class="cls-4" d="m121,89.39c-.45,0-.84-.29-.96-.72-.09-.32-.02-.67.2-.93,2.13-2.31,3.03-5.5,2.42-8.59-1.98-9.54-17.63-17.54-17.79-17.62-.13-.05-.2-.19-.15-.32.05-.13.19-.2.32-.15.02,0,.04.02.06.03,2.89,1.53,5.64,3.28,8.24,5.26,3.89,2.97,8.75,7.59,9.81,12.71.64,3.23-.3,6.58-2.53,9-.11.13-.15.31-.1.47.04.16.16.28.32.33.15.05.32.03.45-.07,4.34-3.04,6.14-8.59,4.4-13.59-3.02-9.72-18.88-17.36-19.04-17.44-.13-.06-.18-.2-.12-.33.06-.13.2-.18.33-.12,0,0,0,0,0,0,2.95,1.47,5.79,3.17,8.47,5.09,4.05,2.9,9.22,7.45,10.84,12.65,1.74,5.21-.12,10.94-4.58,14.14-.17.12-.38.19-.59.19"/>
            </g>
          </g>
        </g>
      </g>
    </g>
  </g>
</svg>