<?xml version="1.0" encoding="UTF-8"?>
<svg id="Capa_2" data-name="Capa 2" xmlns="http://www.w3.org/2000/svg" viewBox="0 0 390 141.54">
  <defs>
    <style>
      .cls-1, .cls-2 {
        fill: none;
      }

      .cls-2 {
        isolation: isolate;
      }

      .cls-3 {
        fill: #00e47c;
      }

      .cls-4 {
        fill: #15302a;
      }
    </style>
  </defs>
  <g id="botones">
    <g>
      <rect class="cls-1" width="390" height="141.54"/>
      <g id="Grupo_1476" data-name="Grupo 1476">
        <g>
          <path class="cls-4" d="m80.4,68.5c-.13,0-.24-.1-.25-.23,0-.02-.15-2.2-.02-4.06.13-1.93,1.19-3.2,2.69-3.24,1.51-.04,2.64.97,2.7,2.4.11,2.39.11,4.79.11,4.81,0,.14-.11.25-.25.25-.14,0-.25-.11-.25-.25,0-.03,0-2.41-.11-4.79-.05-1.16-.96-1.96-2.19-1.92-1.49.04-2.12,1.46-2.21,2.77-.13,1.82.02,3.97.02,3.99,0,.14-.09.26-.23.27h-.02"/>
          <path class="cls-4" d="m79.89,68.12l5.83.09-.04,3.88s.03,2.8-2.65,2.65c-2.34-.14-3.13-.58-3.21-2.68-.08-2.1.08-3.93.08-3.93"/>
          <path class="cls-4" d="m78.89,43.88s2.59,1.55,3.97,3.07c1.38,1.52,1.65,2.23,2.46,1.49.81-.75,2.46-2.23,1.49-3.28-.97-1.05-5.26-5-5.26-5,0,0-.73-.78-1.85.21-1.37,1.2-1.51,1.42-1.51,1.42,0,0-.87.78.68,2.09"/>
          <path class="cls-4" d="m71.19,68.42c-.56,0-1.07-.24-1.37-.47-.22-.15-5.65-3.9-7.46-5.71-1.95-1.95-.08-4.06-.06-4.08.35-.46,8.85-11.53,9.49-12.29.66-.79,1.45-1.58,3.24-1.98,1.35-.3,2.26.13,2.66.39l1.05-1.4c.08-.11.24-.13.35-.05.11.08.13.24.05.35l-1.2,1.6c-.04.06-.11.09-.18.1-.07,0-.14-.02-.19-.06-.03-.03-.88-.77-2.43-.43-1.64.36-2.33,1.06-2.96,1.81-.63.75-9.4,12.18-9.49,12.29-.08.09-1.58,1.79.03,3.4,1.77,1.77,7.34,5.62,7.4,5.66.06.05,1.23.91,2.18-.17,1.1-1.26,11.27-14.1,11.37-14.23.06-.07,1.25-1.57-.39-3.62,0-.01-.02-.02-.02-.03-.29-.5.6-1.43,1.39-2.12.1-.09.26-.08.35.03.09.1.08.26-.03.35-.68.59-1.27,1.28-1.28,1.5,1.86,2.36.37,4.19.36,4.21-.41.52-10.27,12.97-11.39,14.24-.47.53-1,.71-1.48.71"/>
          <path class="cls-4" d="m42.35,110.35c-.69,0-1.34-.24-1.87-.69l-1.86-1.61c-1.2-1.03-1.33-2.85-.3-4.04l22.38-25.99c-11.84-10.12-11.66-25.69-5.33-35.91,8.17-13.18,25.55-17.26,38.73-9.08,6.39,3.96,10.85,10.17,12.56,17.49,1.72,7.32.48,14.86-3.48,21.25-5.28,8.51-14.46,13.31-23.93,13.31-3.91,0-7.88-.82-11.63-2.53l-23.1,26.82c-.5.58-1.2.93-1.96.99-.07,0-.15,0-.22,0M79.33,29.31c-9.25,0-18.3,4.64-23.53,13.06-6.26,10.09-6.4,25.5,5.42,35.43.05.04.08.1.09.17,0,.07-.02.13-.06.18l-22.54,26.18c-.85.99-.74,2.49.25,3.34l1.86,1.61c.48.41,1.09.61,1.72.57.63-.05,1.21-.34,1.62-.82l23.22-26.97c.07-.09.19-.11.29-.06,12.65,5.88,27.74,1.37,35.1-10.5,3.89-6.27,5.1-13.68,3.42-20.87-1.68-7.19-6.07-13.29-12.34-17.18-4.52-2.8-9.55-4.14-14.52-4.14"/>
          <path class="cls-4" d="m79.48,80.23c-4.27,0-8.46-1.18-12.18-3.49-5.27-3.27-8.95-8.39-10.36-14.42-1.42-6.03-.39-12.26,2.87-17.52,6.74-10.87,21.07-14.23,31.94-7.49,5.27,3.27,8.95,8.39,10.36,14.42,1.42,6.03.39,12.26-2.87,17.52-3.27,5.27-8.39,8.95-14.42,10.36-1.77.42-3.56.62-5.34.62m.08-45.9c-7.6,0-15.04,3.81-19.33,10.73-3.2,5.15-4.19,11.24-2.81,17.15,1.38,5.9,4.98,10.91,10.14,14.11,5.15,3.2,11.24,4.19,17.15,2.81,5.9-1.38,10.91-4.98,14.11-10.14,3.2-5.15,4.19-11.24,2.81-17.15-1.38-5.9-4.98-10.91-10.14-14.11-3.72-2.31-7.85-3.4-11.93-3.4"/>
        </g>
        <g id="Actualización_médica" data-name="Actualización médica" class="cls-2">
          <g class="cls-2">
            <path class="cls-4" d="m131.73,39.32h7.76c1.53,0,2.87.25,4.03.74,1.16.5,2.05,1.21,2.68,2.13.63.93.94,2.01.94,3.26,0,2.44-1.24,4.01-3.71,4.71v.27c1,.12,1.87.41,2.62.88.75.47,1.33,1.1,1.75,1.9.42.8.63,1.73.63,2.79,0,1.32-.32,2.48-.95,3.47-.64.99-1.53,1.75-2.68,2.28-1.15.53-2.49.8-4.02.8h-9.05v-23.24Zm7.76,10.04c.93,0,1.71-.15,2.34-.44.63-.29,1.11-.72,1.43-1.27s.48-1.2.48-1.95-.16-1.4-.48-1.94-.79-.96-1.43-1.26c-.64-.3-1.42-.44-2.34-.44h-4.58v7.31h4.58Zm1.29,10.47c.93,0,1.71-.16,2.34-.47.63-.31,1.11-.76,1.43-1.34.32-.58.48-1.27.48-2.07s-.16-1.48-.48-2.07c-.32-.58-.79-1.03-1.43-1.35s-1.41-.48-2.34-.48h-5.87v7.76h5.87Z"/>
            <path class="cls-4" d="m165.38,62.56h-2.81v-3.29h-.26c-.64,1.19-1.42,2.09-2.36,2.7-.94.61-2.01.91-3.22.91-1.1,0-2.04-.25-2.83-.73-.79-.49-1.4-1.2-1.82-2.12-.42-.92-.63-2.03-.63-3.31v-10.51h2.97v10.15c0,2.62,1.19,3.94,3.58,3.94.91,0,1.7-.18,2.36-.54.66-.36,1.17-.88,1.52-1.56.35-.68.52-1.49.52-2.42v-9.57h2.97v16.35Z"/>
            <path class="cls-4" d="m170.83,61.71c-1.17-.78-2.03-1.96-2.59-3.54l2.92-.53c.36.9.89,1.58,1.6,2.02.71.44,1.61.66,2.7.66.7,0,1.31-.09,1.83-.27.52-.18.92-.43,1.2-.77.28-.33.42-.73.42-1.18,0-.51-.18-.92-.53-1.24-.35-.32-.8-.56-1.32-.74-.53-.18-1.26-.38-2.21-.61-1.26-.3-2.28-.61-3.07-.91-.79-.31-1.47-.78-2.03-1.42-.56-.64-.85-1.49-.85-2.56,0-.95.26-1.78.77-2.49.51-.71,1.23-1.27,2.16-1.66.93-.39,2.01-.59,3.24-.59,1.7,0,3.13.38,4.28,1.15,1.15.76,1.99,1.87,2.52,3.31l-2.76.53c-.32-.81-.83-1.41-1.51-1.82-.68-.4-1.55-.61-2.61-.61-.98,0-1.74.17-2.29.52-.55.34-.82.83-.82,1.47,0,.5.18.9.53,1.21.36.31.8.56,1.33.73.53.18,1.27.37,2.2.57,1.29.29,2.34.59,3.14.89.8.3,1.49.78,2.07,1.42.58.65.86,1.52.86,2.61,0,1.01-.27,1.9-.82,2.66s-1.33,1.34-2.33,1.74-2.18.61-3.53.61c-1.82,0-3.31-.39-4.48-1.17Z"/>
            <path class="cls-4" d="m188.22,61.81c-1.2-.71-2.13-1.72-2.79-3-.66-1.29-.99-2.77-.99-4.45s.33-3.14.99-4.42,1.59-2.28,2.79-2.99c1.2-.71,2.58-1.06,4.16-1.06,1.19,0,2.29.21,3.28.64.99.43,1.83,1.04,2.53,1.86.7.81,1.21,1.78,1.53,2.9l-3.05.53c-.31-1.1-.83-1.93-1.56-2.49-.73-.56-1.65-.84-2.77-.84-1.04,0-1.92.24-2.62.72-.7.48-1.23,1.16-1.58,2.04-.35.88-.52,1.92-.52,3.11s.17,2.25.52,3.13c.35.88.88,1.57,1.58,2.05.7.48,1.58.73,2.62.73,2.25,0,3.69-1.16,4.33-3.47l3.05.53c-.32,1.16-.83,2.16-1.53,2.99-.69.83-1.54,1.47-2.53,1.9s-2.09.65-3.29.65c-1.57,0-2.96-.36-4.16-1.07Z"/>
            <path class="cls-4" d="m204.22,62.31c-.74-.38-1.32-.92-1.74-1.61-.42-.69-.63-1.48-.63-2.37,0-1.43.56-2.59,1.69-3.47,1.12-.88,2.81-1.48,5.04-1.79l3.94-.56c-.02-.95-.16-1.72-.43-2.31-.26-.59-.65-1.03-1.15-1.31-.51-.28-1.15-.42-1.94-.42-1.01,0-1.85.24-2.5.71-.66.47-1.14,1.22-1.45,2.23l-2.92-.24c.28-1.12.73-2.07,1.36-2.86.62-.79,1.41-1.39,2.35-1.8.94-.41,2.03-.62,3.25-.62,1.34,0,2.5.25,3.45.76.96.51,1.69,1.25,2.2,2.23.51.98.76,2.17.76,3.57v10.12h-2.81v-3.29h-.26c-.66,1.16-1.48,2.05-2.48,2.68-1,.62-2.08.94-3.25.94-.91,0-1.74-.19-2.48-.57Zm1.55-2.6c.5.39,1.2.59,2.11.59.84,0,1.61-.16,2.32-.48.71-.32,1.27-.75,1.69-1.31.42-.55.63-1.17.63-1.85v-1.89l-3.44.52c-.98.14-1.76.32-2.35.54-.59.22-1.02.51-1.3.85-.28.35-.42.79-.42,1.32,0,.74.25,1.31.75,1.7Z"/>
            <path class="cls-4" d="m222.14,61.81c-1.08-.71-1.92-1.72-2.53-3.01s-.91-2.76-.91-4.41.3-3.13.91-4.42,1.45-2.29,2.53-3.01,2.3-1.07,3.66-1.07c1.14,0,2.12.28,2.95.83.83.55,1.55,1.42,2.18,2.59h.26v-10.96h2.97v24.21h-2.81v-3.29h-.26c-.67,1.25-1.42,2.16-2.27,2.74-.84.58-1.86.87-3.04.87-1.36,0-2.57-.36-3.65-1.07Zm7.11-2.23c.7-.48,1.23-1.17,1.58-2.06s.52-1.93.52-3.12-.18-2.25-.52-3.13c-.35-.88-.88-1.57-1.58-2.05-.7-.48-1.58-.73-2.62-.73s-1.92.24-2.63.73c-.71.48-1.24,1.17-1.58,2.05-.34.88-.52,1.93-.52,3.13s.17,2.24.52,3.12.88,1.57,1.58,2.06c.7.48,1.58.73,2.62.73s1.92-.24,2.62-.73Z"/>
            <path class="cls-4" d="m241.37,61.82c-1.21-.71-2.15-1.71-2.81-2.99-.66-1.29-.99-2.76-.99-4.43s.33-3.16.99-4.45c.66-1.29,1.6-2.28,2.81-2.99,1.21-.71,2.61-1.06,4.19-1.06s2.98.35,4.19,1.06c1.21.71,2.15,1.71,2.81,2.99.66,1.29.99,2.77.99,4.45s-.33,3.15-.99,4.43c-.66,1.29-1.6,2.28-2.81,2.99s-2.61,1.07-4.19,1.07-2.98-.36-4.19-1.07Zm6.86-2.24c.72-.48,1.25-1.17,1.6-2.05.35-.88.52-1.93.52-3.13s-.18-2.25-.52-3.13c-.35-.88-.88-1.57-1.6-2.05-.72-.48-1.61-.73-2.67-.73s-1.94.24-2.66.73c-.72.48-1.25,1.17-1.61,2.05-.35.88-.53,1.93-.53,3.13s.18,2.25.53,3.13c.36.88.89,1.57,1.61,2.05.72.48,1.6.73,2.66.73s1.96-.24,2.67-.73Z"/>
            <path class="cls-4" d="m256.95,46.21h2.81v3.62h.26c.43-.97.87-1.74,1.31-2.31.44-.57.93-.98,1.46-1.24.53-.26,1.15-.39,1.86-.39.2,0,.41.01.63.04.22.03.4.07.56.14v3.2c-.22-.06-.48-.12-.81-.15s-.65-.06-.97-.06c-.89,0-1.65.16-2.27.48-.62.32-1.09.79-1.4,1.41s-.48,1.36-.48,2.24v9.38h-2.97v-16.35Z"/>
            <path class="cls-4" d="m278.08,61.81c-1.08-.71-1.92-1.72-2.53-3.01s-.91-2.76-.91-4.41.3-3.13.91-4.42,1.45-2.29,2.53-3.01,2.3-1.07,3.66-1.07c1.14,0,2.12.28,2.95.83.83.55,1.55,1.42,2.18,2.59h.26v-10.96h2.97v24.21h-2.81v-3.29h-.26c-.67,1.25-1.42,2.16-2.27,2.74-.84.58-1.86.87-3.04.87-1.36,0-2.57-.36-3.65-1.07Zm7.11-2.23c.7-.48,1.23-1.17,1.58-2.06s.52-1.93.52-3.12-.18-2.25-.52-3.13c-.35-.88-.88-1.57-1.58-2.05-.7-.48-1.58-.73-2.62-.73s-1.92.24-2.63.73c-.71.48-1.24,1.17-1.58,2.05-.34.88-.52,1.93-.52,3.13s.17,2.24.52,3.12.88,1.57,1.58,2.06c.7.48,1.58.73,2.62.73s1.92-.24,2.62-.73Z"/>
            <path class="cls-4" d="m297.3,61.81c-1.21-.71-2.14-1.72-2.8-3-.66-1.29-.99-2.76-.99-4.43s.33-3.13.98-4.41c.66-1.29,1.58-2.29,2.77-3s2.56-1.07,4.12-1.07,2.89.35,4.05,1.06c1.16.71,2.06,1.69,2.7,2.95.63,1.26.95,2.71.95,4.35v1.05h-12.36c.08,1.03.3,1.92.68,2.67s.91,1.33,1.59,1.74c.68.41,1.51.61,2.48.61s1.79-.2,2.47-.61c.68-.41,1.2-1,1.57-1.76l3.16.27c-.37.96-.9,1.79-1.59,2.49-.69.7-1.52,1.24-2.48,1.61-.96.38-2,.57-3.13.57-1.57,0-2.96-.36-4.16-1.07Zm8.63-8.88c-.16-1.41-.62-2.51-1.37-3.29-.75-.79-1.8-1.18-3.15-1.18s-2.44.39-3.23,1.18c-.79.79-1.26,1.88-1.42,3.29h9.17Z"/>
          </g>
          <g class="cls-2">
            <path class="cls-3" d="m148.57,81.82c.89-.62,1.94-.93,3.17-.93,1.04,0,1.94.23,2.69.68.75.45,1.32,1.13,1.72,2.03.4.9.6,1.99.6,3.28v10.89h-4.65v-10.2c0-1-.24-1.76-.72-2.29-.48-.53-1.17-.79-2.06-.79-.99,0-1.76.32-2.3.96-.54.64-.81,1.55-.81,2.72v9.6h-4.65v-10.2c0-1-.24-1.76-.72-2.29s-1.16-.79-2.06-.79c-.99,0-1.76.32-2.3.96-.54.64-.81,1.55-.81,2.72v9.6h-4.65v-16.56h4.49v3.47h.26c.67-1.28,1.44-2.23,2.32-2.86.88-.62,1.92-.94,3.12-.94s2.28.32,3.1.97c.82.65,1.37,1.59,1.66,2.83h.26c.68-1.29,1.46-2.25,2.35-2.87Z"/>
            <path class="cls-3" d="m163.39,97c-1.3-.73-2.31-1.75-3.03-3.05-.72-1.3-1.07-2.79-1.07-4.45s.35-3.14,1.06-4.45c.7-1.31,1.69-2.33,2.97-3.06,1.28-.73,2.74-1.1,4.38-1.1s3.07.36,4.31,1.09c1.24.73,2.19,1.74,2.86,3.03.67,1.3,1.01,2.77,1.01,4.43v1.36h-11.72c.13,1.21.49,2.15,1.08,2.83.59.68,1.44,1.02,2.55,1.02.74,0,1.38-.16,1.9-.47.53-.31.93-.76,1.21-1.34l4.65.39c-.38,1.04-.94,1.93-1.69,2.66-.75.73-1.63,1.27-2.65,1.65s-2.12.56-3.32.56c-1.71,0-3.22-.37-4.52-1.1Zm7.7-9.31c-.11-1.04-.43-1.86-.97-2.45-.54-.59-1.33-.89-2.37-.89s-1.86.3-2.44.89c-.58.59-.95,1.41-1.11,2.45h6.89Z"/>
            <path class="cls-3" d="m181.33,96.99c-1.01-.74-1.79-1.76-2.36-3.06s-.85-2.77-.85-4.41.28-3.13.84-4.44c.56-1.31,1.34-2.34,2.35-3.08,1.01-.74,2.15-1.11,3.43-1.11,1.15,0,2.15.3,2.99.91.84.61,1.52,1.5,2.03,2.67h.26v-10.91h4.65v24.21h-4.49v-3.45h-.26c-.62,1.27-1.36,2.22-2.19,2.84-.84.62-1.83.94-2.97.94-1.28,0-2.42-.37-3.43-1.11Zm7.99-3.83c.58-.89.86-2.11.86-3.66s-.29-2.77-.86-3.66c-.58-.89-1.48-1.34-2.72-1.34s-2.15.45-2.73,1.34c-.58.89-.87,2.11-.87,3.66s.29,2.77.87,3.66c.58.89,1.49,1.34,2.73,1.34s2.14-.45,2.72-1.34Z"/>
            <path class="cls-3" d="m198.69,79.05c-.44-.25-.79-.59-1.04-1.03-.25-.44-.38-.95-.38-1.52s.13-1.08.38-1.52c.25-.44.6-.79,1.04-1.03.44-.25.94-.37,1.5-.37s1.06.12,1.5.37c.44.25.79.59,1.03,1.03.25.44.37.95.37,1.52s-.12,1.08-.37,1.52c-.25.44-.59.79-1.03,1.03-.44.25-.94.37-1.5.37s-1.06-.12-1.5-.37Zm-.82,2.16h4.65v16.56h-4.65v-16.56Z"/>
            <path class="cls-3" d="m209.26,97c-1.28-.73-2.27-1.75-2.98-3.05s-1.06-2.79-1.06-4.45.35-3.15,1.06-4.46c.7-1.3,1.7-2.32,2.98-3.05s2.76-1.1,4.44-1.1c1.24,0,2.38.22,3.43.65s1.95,1.08,2.7,1.94c.75.86,1.29,1.89,1.64,3.11l-4.57.69c-.24-.89-.64-1.58-1.21-2.07s-1.29-.73-2.15-.73c-1.21,0-2.09.44-2.66,1.33s-.85,2.11-.85,3.67.28,2.75.85,3.59,1.45,1.27,2.66,1.27c.86,0,1.57-.24,2.13-.73.56-.48.96-1.18,1.21-2.1l4.6.71c-.34,1.27-.89,2.34-1.65,3.22-.75.88-1.65,1.54-2.7,1.98-1.04.44-2.19.66-3.44.66-1.68,0-3.16-.37-4.44-1.1Z"/>
            <path class="cls-3" d="m225.44,97.5c-.76-.39-1.35-.94-1.78-1.65-.43-.71-.64-1.53-.64-2.45,0-1.54.64-2.76,1.92-3.67,1.28-.91,3.21-1.53,5.79-1.86l2.87-.37c-.03-1.04-.28-1.8-.74-2.28s-1.17-.72-2.11-.72c-.81,0-1.46.17-1.95.51s-.87.88-1.13,1.62l-4.33-.36c.28-1.15.76-2.13,1.44-2.93s1.55-1.41,2.61-1.82c1.05-.41,2.27-.62,3.65-.62,1.53,0,2.83.25,3.91.76s1.9,1.25,2.46,2.24c.56.98.85,2.18.85,3.59v10.3h-4.49v-3.45h-.26c-.7,1.29-1.5,2.24-2.39,2.86-.89.61-1.93.92-3.1.92-.97,0-1.83-.2-2.59-.59Zm3.02-3.44c.38.29.95.43,1.7.43.69,0,1.29-.12,1.82-.36.52-.24.93-.57,1.21-1.01.29-.44.43-.94.43-1.53v-1.23l-2.19.31c-.88.12-1.58.27-2.08.44-.51.18-.87.4-1.11.66s-.35.6-.35,1.01c0,.56.19.98.57,1.27Z"/>
            <path class="cls-3" d="m258.85,81.82c.89-.62,1.94-.93,3.17-.93,1.04,0,1.94.23,2.69.68.75.45,1.32,1.13,1.72,2.03.4.9.6,1.99.6,3.28v10.89h-4.65v-10.2c0-1-.24-1.76-.72-2.29-.48-.53-1.17-.79-2.06-.79-.99,0-1.76.32-2.3.96-.54.64-.81,1.55-.81,2.72v9.6h-4.65v-10.2c0-1-.24-1.76-.72-2.29s-1.16-.79-2.06-.79c-.99,0-1.76.32-2.3.96-.54.64-.81,1.55-.81,2.72v9.6h-4.65v-16.56h4.49v3.47h.26c.67-1.28,1.44-2.23,2.32-2.86.88-.62,1.92-.94,3.12-.94s2.28.32,3.1.97c.82.65,1.37,1.59,1.66,2.83h.26c.68-1.29,1.46-2.25,2.35-2.87Z"/>
            <path class="cls-3" d="m273.67,97c-1.3-.73-2.31-1.75-3.03-3.05-.72-1.3-1.07-2.79-1.07-4.45s.35-3.14,1.06-4.45c.7-1.31,1.69-2.33,2.97-3.06,1.28-.73,2.74-1.1,4.38-1.1s3.07.36,4.31,1.09c1.24.73,2.19,1.74,2.86,3.03.67,1.3,1.01,2.77,1.01,4.43v1.36h-11.72c.13,1.21.49,2.15,1.08,2.83.59.68,1.44,1.02,2.55,1.02.74,0,1.38-.16,1.9-.47.53-.31.93-.76,1.21-1.34l4.65.39c-.38,1.04-.94,1.93-1.69,2.66-.75.73-1.63,1.27-2.65,1.65s-2.12.56-3.32.56c-1.71,0-3.22-.37-4.52-1.1Zm7.7-9.31c-.11-1.04-.43-1.86-.97-2.45-.54-.59-1.33-.89-2.37-.89s-1.86.3-2.44.89c-.58.59-.95,1.41-1.11,2.45h6.89Z"/>
            <path class="cls-3" d="m288.89,81.21h4.49v3.47h.26c1.36-2.53,3.2-3.79,5.52-3.79,1.07,0,1.99.25,2.78.74.79.5,1.4,1.21,1.82,2.13.42.92.64,2.02.64,3.29v10.72h-4.65v-10.12c0-1.01-.25-1.79-.76-2.34-.51-.55-1.23-.82-2.18-.82-.69,0-1.28.14-1.77.43-.49.29-.86.7-1.12,1.25-.26.55-.39,1.22-.39,2v9.6h-4.65v-16.56Z"/>
            <path class="cls-3" d="m310.82,97.21c-.82-.37-1.43-.94-1.82-1.7-.39-.76-.59-1.73-.59-2.93v-7.84h-2.71v-3.54h2.71v-4.31h4.65v4.31h4.13v3.54h-4.13v7.31c0,.54.06.95.17,1.24.11.29.3.5.57.62.27.12.66.19,1.16.19h2.23v3.66h-3.18c-1.3,0-2.36-.19-3.19-.56Z"/>
            <path class="cls-3" d="m322.6,97.02c-1.3-.71-2.31-1.73-3.03-3.03-.73-1.31-1.09-2.8-1.09-4.49s.36-3.19,1.09-4.49,1.74-2.31,3.03-3.03c1.3-.72,2.78-1.08,4.45-1.08s3.15.36,4.45,1.08,2.31,1.73,3.03,3.03c.72,1.3,1.08,2.8,1.08,4.49s-.36,3.2-1.08,4.5c-.72,1.3-1.73,2.31-3.02,3.03-1.29.72-2.78,1.07-4.45,1.07s-3.15-.36-4.45-1.07Zm7.23-3.87c.6-.89.9-2.11.9-3.66s-.3-2.77-.9-3.66c-.6-.89-1.53-1.34-2.78-1.34s-2.19.45-2.79,1.34c-.6.89-.9,2.11-.9,3.66s.3,2.78.9,3.67c.6.89,1.53,1.33,2.79,1.33s2.19-.45,2.78-1.34Z"/>
            <path class="cls-3" d="m340.17,96.9c-1.26-.8-2.18-2.01-2.78-3.63l4.24-.82c.26.74.67,1.3,1.24,1.66.57.37,1.31.55,2.21.55.52,0,.97-.06,1.36-.17.39-.11.7-.28.92-.5.22-.22.33-.48.33-.78,0-.34-.15-.63-.45-.87-.3-.24-.68-.43-1.15-.57-.46-.15-1.1-.32-1.92-.51-1.32-.32-2.41-.65-3.27-.98s-1.59-.83-2.21-1.52c-.62-.68-.93-1.59-.93-2.72,0-1.03.28-1.94.86-2.72.57-.78,1.39-1.38,2.45-1.8,1.06-.42,2.31-.63,3.75-.63,1.86,0,3.41.38,4.63,1.14s2.13,1.88,2.71,3.37l-4.13.92c-.27-.65-.69-1.13-1.28-1.47-.58-.33-1.31-.5-2.18-.5-.74,0-1.32.11-1.72.33-.4.22-.61.54-.61.94,0,.34.15.63.45.86.3.23.68.41,1.14.54.46.13,1.1.29,1.93.48,1.36.31,2.47.63,3.35.95.88.32,1.64.83,2.28,1.53.64.7.96,1.64.96,2.81,0,1.11-.31,2.06-.93,2.87-.62.8-1.48,1.41-2.59,1.82-1.11.41-2.39.62-3.86.62-1.96,0-3.57-.4-4.83-1.19Z"/>
          </g>
        </g>
      </g>
    </g>
  </g>
</svg>